<?xml version="1.0" encoding="utf-8"?><svg xmlns="http://www.w3.org/2000/svg" xmlns:xlink="http://www.w3.org/1999/xlink" xmlns:author="http://www.sothink.com" version="1.1" id="Layer_1" width="46.95000076293945" height="46" xml:space="preserve" viewBox="-0.5 -0.5 46.95000076293945 46">
<g id="5">
<path style="fill:#000000;fill-opacity:0.054902" d="M 27 2 L 27 1 L 27.75 1.25 L 28 2 L 27 2 M 32 7 L 32 6 L 32.75 6.25 L 33 7 L 32 7 M 14 42 L 13.25 41.75 L 13 41 L 14 41 L 14 42 " stroke-width="1" fill="undefined"/>
<path style="fill:#000000;fill-opacity:0.266667" d="M 29 4 L 29 3 L 29.75 3.25 L 30 4 L 29 4 M 37 12 L 37 11 L 37.75 11.25 L 38 12 L 37 12 " stroke-width="1" fill="undefined"/>
<path style="fill:#BB0028;fill-opacity:1" d="M 29 4 L 29 5 Q 28.5 5 28.25 4.75 Q 28 4.5 28 4 L 29 4 " stroke-width="1" fill="undefined"/>
<path style="fill:#D5002B;fill-opacity:1" d="M 22 3 L 22 2 L 23 2 L 24 2 L 25 2 Q 25 2.5 25.25 2.75 Q 25.5 3 26 3 L 27 3 Q 27 3.5 27.25 3.75 Q 27.5 4 28 4 Q 28 4.5 28.25 4.75 Q 28.5 5 29 5 Q 29 5.5 29.25 5.75 Q 29.5 6 30 6 Q 30 6.5 30.25 6.75 Q 30.5 7 31 7 L 31 8 Q 31 8.5 31.25 8.75 Q 31.5 9 32 9 Q 32 9.5 32.25 9.75 Q 32.5 10 33 10 Q 33 10.5 33.25 10.75 Q 33.5 11 34 11 Q 34 11.5 34.25 11.75 Q 34.5 12 35 12 L 36 12 Q 36 12.5 36.25 12.75 Q 36.5 13 37 13 Q 37 13.5 37.25 13.75 Q 37.5 14 38 14 Q 38 14.5 38.25 14.75 Q 38.45 15 38.95 15 Q 38.95 15.5 39.2 15.75 Q 39.45 16 39.95 16 L 39.95 17 Q 39.95 17.5 40.2 17.75 Q 40.45 18 40.95 18 Q 40.95 18.5 41.2 18.75 Q 41.45 19 41.95 19 L 41.95 20 L 40.95 20 L 39.95 20 L 38.95 20 L 38.95 21 L 38 21 L 37 21 L 37 22 L 36 22 L 35 22 L 34 22 L 33 22 L 32 22 L 31 22 L 30.75 21.25 L 30 21 L 29 21 L 28.75 20.25 L 28 20 L 27 20 L 26 20 L 25.75 19.25 L 25 19 L 24 19 L 23 19 L 23 20 L 23 21 L 22 21 Q 22 22 22.4 22.8 Q 22.5 23 23 23 L 24 23 Q 24 23.5 24.25 23.75 L 25 24 L 25 25 L 24 25 L 24 26 L 23 26 L 23 27 L 23 30 L 23 31 L 23 32 L 22 32 L 22 33 L 21 33 L 20 33 L 20 32 L 20.75 31.75 Q 21 31.5 21 31 L 21.75 30.75 Q 22 30.5 22 30 L 22 29 L 22 28 Q 22 27.5 21.75 27.25 Q 21.5 27 21 27 Q 21 26.5 20.75 26.25 Q 20.5 26 20 26 Q 20 25.5 19.75 25.25 Q 19.5 25 19 25 L 19 26 L 18 26 L 18 27 L 18 30 L 18 31 L 18.25 31.75 L 19 32 L 19 33 L 19 34 L 18 34 L 17 34 L 16 34 L 16 35 L 15 35 L 15 36 L 14 36 L 14 37 L 13 37 L 13 38 L 12 38 Q 12 37.5 11.75 37.25 Q 11.5 37 11 37 Q 11 36.5 10.75 36.25 Q 10.5 36 10 36 L 10 35 Q 10 34.5 9.75 34.25 Q 9.5 34 9 34 L 9 33 Q 9 32.5 8.75 32.25 Q 8.5 32 8 32 L 8 31 L 8 30 L 8 29 L 8 28 L 8 27 L 8 26 L 8 25 L 8 24 L 8.75 23.75 Q 9 23.5 9 23 L 9 22 L 9 21 Q 9.5 21 9.75 20.75 Q 10 20.5 10 20 L 10 19 Q 10.5 19 10.75 18.75 Q 11 18.5 11 18 L 11 17 Q 11.5 17 11.75 16.75 Q 12 16.5 12 16 Q 12.5 16 12.75 15.75 Q 13 15.5 13 15 Q 13.5 15 13.75 14.75 Q 14 14.5 14 14 Q 14.5 14 14.75 13.75 Q 15 13.5 15 13 Q 15.5 13 15.75 12.75 Q 16 12.5 16 12 Q 16.5 12 16.75 11.75 Q 17 11.5 17 11 Q 17.5 11 17.75 10.75 Q 18 10.5 18 10 L 19 10 L 20 10 L 21 10 L 22 10 Q 22.5 10 22.75 9.75 L 23 9 L 23.75 8.75 L 24 8 L 25 8 L 26 8 Q 26 8.5 26.25 8.75 Q 26.5 9 27 9 L 28 9 L 29 9 L 29.5 9 Q 29.5 8.5 29 8 L 28 8 L 27.75 7.25 L 27 7 L 26 7 L 25 7 L 24.75 6.25 L 24 6 L 23.75 5.25 L 23 5 L 22.75 4.25 L 22 4 L 22 3 M 13 31 L 13.25 31.75 L 14 32 L 14.25 32.75 L 15 33 L 16 33 L 16.75 32.75 L 17 32 L 17 31 Q 17 30.5 16.75 30.25 Q 16.5 30 16 30 Q 16 29.5 15.8 29.4 L 14 29 L 13 29 L 13 30 L 13 31 " stroke-width="1" fill="undefined"/>
<path style="fill:#290009;fill-opacity:0.894118" d="M 29 5 L 29 4 L 30 4 L 30 5 L 29 5 " stroke-width="1" fill="undefined"/>
<path style="fill:#B10024;fill-opacity:1" d="M 27.25 3.75 Q 27 3.5 27 3 L 28 3 L 28 4 Q 27.5 4 27.25 3.75 M 29.25 5.75 Q 29 5.5 29 5 L 30 5 L 30 6 Q 29.5 6 29.25 5.75 M 42.95 30 L 41.95 30 L 41.95 29 L 41.95 28 L 41.95 27 L 42.95 27 Q 42.95 28 43.35 28.8 Q 43.45 29 43.95 29 L 43.95 30 L 42.95 30 " stroke-width="1" fill="undefined"/>
<path style="fill:#000000;fill-opacity:0.14902" d="M 30 5 L 30 4 L 30.75 4.25 L 31 5 L 30 5 M 20 3 L 20 4 L 19 4 L 19 3 L 19 2 L 20 2 L 20 3 " stroke-width="1" fill="undefined"/>
<path style="fill:#000000;fill-opacity:0.223529" d="M 28 3 L 28 2 L 28.75 2.25 L 29 3 L 28 3 " stroke-width="1" fill="undefined"/>
<path style="fill:#200006;fill-opacity:0.847059" d="M 28 3 L 29 3 L 29 4 L 28 4 L 28 3 " stroke-width="1" fill="undefined"/>
<path style="fill:#0D0002;fill-opacity:0.713725" d="M 27 2 L 28 2 L 28 3 L 27 3 L 27 2 " stroke-width="1" fill="undefined"/>
<path style="fill:#1A0006;fill-opacity:0.866667" d="M 30 6 L 30 5 L 31 5 L 31 6 L 30 6 " stroke-width="1" fill="undefined"/>
<path style="fill:#000000;fill-opacity:0.168627" d="M 31 6 L 31 5 L 31.75 5.25 L 32 6 L 31 6 " stroke-width="1" fill="undefined"/>
<path style="fill:#B30025;fill-opacity:1" d="M 30.25 6.75 Q 30 6.5 30 6 L 31 6 L 31 7 Q 30.5 7 30.25 6.75 " stroke-width="1" fill="undefined"/>
<path style="fill:#690017;fill-opacity:0.937255" d="M 31 8 L 31 7 L 32 7 L 32 8 L 31 8 " stroke-width="1" fill="undefined"/>
<path style="fill:#000000;fill-opacity:0.282353" d="M 32 8 L 32 7 L 33 7 L 33 8 L 32 8 " stroke-width="1" fill="undefined"/>
<path style="fill:#090001;fill-opacity:0.654902" d="M 31 7 L 31 6 L 32 6 L 32 7 L 31 7 " stroke-width="1" fill="undefined"/>
<path style="fill:#BB0027;fill-opacity:1" d="M 31 8 L 32 8 L 32 9 Q 31.5 9 31.25 8.75 Q 31 8.5 31 8 M 14 13 L 15 13 Q 15 13.5 14.75 13.75 Q 14.5 14 14 14 L 14 13 M 15 33 L 14.25 32.75 L 14 32 Q 14.5 32 14.75 32.25 Q 15 32.5 15 33 " stroke-width="1" fill="undefined"/>
<path style="fill:#C10029;fill-opacity:1" d="M 27 8 L 27 7 L 27.75 7.25 L 28 8 L 27 8 M 41.95 26 L 42.95 26 L 42.95 25 L 43.95 25 L 43.95 26 L 42.95 26 L 42.95 27 L 41.95 27 L 41.95 26 " stroke-width="1" fill="undefined"/>
<path style="fill:#B70025;fill-opacity:1" d="M 29 9 L 28 9 L 28 8 L 29 8 L 29 9 " stroke-width="1" fill="undefined"/>
<path style="fill:#BF0029;fill-opacity:1" d="M 29 8 Q 29.5 8.5 29.5 9 L 29 9 L 29 8 M 15 12 L 16 12 Q 16 12.5 15.75 12.75 Q 15.5 13 15 13 L 15 12 M 10 18 L 11 18 Q 11 18.5 10.75 18.75 Q 10.5 19 10 19 L 10 18 " stroke-width="1" fill="undefined"/>
<path style="fill:#640016;fill-opacity:0.988235" d="M 32 9 L 33 9 L 33 10 Q 32.5 10 32.25 9.75 Q 32 9.5 32 9 " stroke-width="1" fill="undefined"/>
<path style="fill:#8A001D;fill-opacity:1" d="M 27 8 L 28 8 L 28 9 L 27 9 L 27 8 M 38.95 31 L 38.95 30 L 39.95 30 L 39.95 31 L 38.95 31 " stroke-width="1" fill="undefined"/>
<path style="fill:#140004;fill-opacity:0.682353" d="M 32 9 L 32 8 L 33 8 L 33 9 L 32 9 " stroke-width="1" fill="undefined"/>
<path style="fill:#000000;fill-opacity:0.113725" d="M 33 9 L 33 8 L 33.75 8.25 L 34 9 L 33 9 M 44.95 27 L 44.95 26 Q 45.45 26 45.7 26.25 L 45.95 27 L 44.95 27 " stroke-width="1" fill="undefined"/>
<path style="fill:#000000;fill-opacity:0.4" d="M 34 10 L 34 9 L 34.75 9.25 L 35 10 L 34 10 " stroke-width="1" fill="undefined"/>
<path style="fill:#6B0017;fill-opacity:1" d="M 33 10 L 34 10 L 34 11 Q 33.5 11 33.25 10.75 Q 33 10.5 33 10 M 25 8 L 24 8 L 24 7 L 24 6 L 24.75 6.25 L 25 7 L 25 8 " stroke-width="1" fill="undefined"/>
<path style="fill:#180005;fill-opacity:0.992157" d="M 34 11 L 34 10 L 35 10 L 35 11 L 34 11 " stroke-width="1" fill="undefined"/>
<path style="fill:#B20025;fill-opacity:1" d="M 34 11 L 35 11 L 35 12 Q 34.5 12 34.25 11.75 Q 34 11.5 34 11 M 42.95 24 L 43.95 24 L 43.95 25 L 42.95 25 L 42.95 24 " stroke-width="1" fill="undefined"/>
<path style="fill:#010000;fill-opacity:0.647059" d="M 36 11 L 35 11 L 35 10 L 36 10 L 36 11 " stroke-width="1" fill="undefined"/>
<path style="fill:#000000;fill-opacity:0.854902" d="M 33 10 L 33 9 L 34 9 L 34 10 L 33 10 " stroke-width="1" fill="undefined"/>
<path style="fill:#000000;fill-opacity:0.0941176" d="M 36 11 L 36 10 L 36.75 10.25 L 37 11 L 36 11 M 43.95 21 L 43.95 20 L 44.7 20.25 L 44.95 21 L 43.95 21 M 38 41 L 38.95 41 L 38.7 41.75 L 38 42 L 38 41 " stroke-width="1" fill="undefined"/>
<path style="fill:#020000;fill-opacity:0.792157" d="M 36 12 L 36 11 L 37 11 L 37 12 L 36 12 " stroke-width="1" fill="undefined"/>
<path style="fill:#570013;fill-opacity:1" d="M 36 12 L 35 12 L 35 11 L 36 11 L 36 12 " stroke-width="1" fill="undefined"/>
<path style="fill:#0B0001;fill-opacity:0.886275" d="M 37 13 L 37 12 L 38 12 L 38 13 L 37 13 " stroke-width="1" fill="undefined"/>
<path style="fill:#8D001E;fill-opacity:1" d="M 37 13 Q 36.5 13 36.25 12.75 Q 36 12.5 36 12 L 37 12 L 37 13 M 26 8 L 26 7 L 27 7 L 27 8 L 26 8 " stroke-width="1" fill="undefined"/>
<path style="fill:#9D0020;fill-opacity:1" d="M 38 14 Q 37.5 14 37.25 13.75 Q 37 13.5 37 13 L 38 13 L 38 14 " stroke-width="1" fill="undefined"/>
<path style="fill:#B50027;fill-opacity:1" d="M 28 20 L 28.75 20.25 L 29 21 L 28 21 L 28 20 " stroke-width="1" fill="undefined"/>
<path style="fill:#990020;fill-opacity:1" d="M 30 22 L 30 21 L 30.75 21.25 L 31 22 L 30 22 " stroke-width="1" fill="undefined"/>
<path style="fill:#3F000E;fill-opacity:1" d="M 30 22 L 29 22 L 29 21 L 30 21 L 30 22 " stroke-width="1" fill="undefined"/>
<path style="fill:#000000;fill-opacity:1" d="M 27 23 L 26 23 L 25.75 22.25 Q 25.5 22 25 22 L 24 22 L 24 21 L 24 20 L 25 20 Q 25 20.5 25.25 20.75 Q 25.5 21 26 21 L 27 21 L 28 21 Q 28 21.5 28.25 21.75 L 29 22 L 30 22 L 31 22 Q 31 22.5 31.25 22.75 L 32 23 L 33 23 L 34 23 L 35 23 L 36 23 L 36.75 22.75 L 37 22 L 38 22 L 38.95 22 L 39.95 22 L 40.7 21.75 L 40.95 21 L 41.95 21 L 42.95 21 L 42.95 22 L 42.95 23 L 41.95 23 L 40.95 23 L 39.95 23 L 38.95 23 L 38.95 24 L 38 24 L 37 24 L 36 24 L 35 24 L 34 24 L 34 25 L 33 25 L 32.75 24.25 L 32 24 L 31 24 L 30 24 L 29.75 23.25 L 29 23 L 28 23 L 27 23 M 31 27 L 30 27 L 30 26 L 31 26 L 31 27 M 30 42 L 31 42 L 32 42 L 33 42 L 34 42 L 34 43 L 33 43 L 32 43 L 31 43 L 30 43 L 30 42 M 19 42 L 20 42 L 21 42 L 22 42 L 22 43 L 21 43 L 20 43 L 19 43 L 19 42 " stroke-width="1" fill="undefined"/>
<path style="fill:#140004;fill-opacity:1" d="M 29 21 L 29 22 L 28.25 21.75 Q 28 21.5 28 21 L 29 21 " stroke-width="1" fill="undefined"/>
<path style="fill:#080808;fill-opacity:1" d="M 29 24 L 29 23 L 29.75 23.25 L 30 24 L 29 24 " stroke-width="1" fill="undefined"/>
<path style="fill:#2C2C2C;fill-opacity:1" d="M 35 25 L 35 24 L 36 24 L 36 25 L 35 25 M 28 24 L 28 23 L 29 23 L 29 24 L 28 24 " stroke-width="1" fill="undefined"/>
<path style="fill:#150004;fill-opacity:1" d="M 32 23 L 31.25 22.75 Q 31 22.5 31 22 L 32 22 L 32 23 " stroke-width="1" fill="undefined"/>
<path style="fill:#610014;fill-opacity:1" d="M 7 26 L 7 25 L 8 25 L 8 26 L 7 26 M 33 23 L 32 23 L 32 22 L 33 22 L 33 23 " stroke-width="1" fill="undefined"/>
<path style="fill:#7F001B;fill-opacity:1" d="M 27 20 L 28 20 L 28 21 L 27 21 L 27 20 " stroke-width="1" fill="undefined"/>
<path style="fill:#500011;fill-opacity:1" d="M 36 23 L 35 23 L 35 22 L 36 22 L 36 23 " stroke-width="1" fill="undefined"/>
<path style="fill:#93001F;fill-opacity:1" d="M 7 29 L 7 28 L 7 27 L 8 27 L 8 28 L 8 29 L 7 29 M 34 22 L 35 22 L 35 23 L 34 23 L 34 22 M 38 22 L 37 22 L 37 21 L 38 21 L 38 22 " stroke-width="1" fill="undefined"/>
<path style="fill:#AA0023;fill-opacity:1" d="M 33 22 L 34 22 L 34 23 L 33 23 L 33 22 M 17 5 L 18 5 L 19 5 L 19 6 L 18 6 L 17 6 L 17 5 " stroke-width="1" fill="undefined"/>
<path style="fill:#0D0002;fill-opacity:1" d="M 36 22 L 37 22 L 36.75 22.75 L 36 23 L 36 22 M 25 23 L 25 22 Q 25.5 22 25.75 22.25 L 26 23 L 25 23 " stroke-width="1" fill="undefined"/>
<path style="fill:#000000;fill-opacity:0.341176" d="M 38 13 L 38 12 L 38.75 12.25 L 38.95 13 L 38 13 " stroke-width="1" fill="undefined"/>
<path style="fill:#1D0006;fill-opacity:0.968627" d="M 38 14 L 38 13 L 38.95 13 L 38.95 14 L 38 14 " stroke-width="1" fill="undefined"/>
<path style="fill:#000000;fill-opacity:0.301961" d="M 38.95 14 L 38.95 13 L 39.7 13.25 L 39.95 14 L 38.95 14 " stroke-width="1" fill="undefined"/>
<path style="fill:#190005;fill-opacity:0.937255" d="M 38.95 15 L 38.95 14 L 39.95 14 L 39.95 15 L 38.95 15 " stroke-width="1" fill="undefined"/>
<path style="fill:#9F0021;fill-opacity:1" d="M 38.95 15 Q 38.45 15 38.25 14.75 Q 38 14.5 38 14 L 38.95 14 L 38.95 15 " stroke-width="1" fill="undefined"/>
<path style="fill:#AB0023;fill-opacity:1" d="M 39.95 16 Q 39.45 16 39.2 15.75 Q 38.95 15.5 38.95 15 L 39.95 15 L 39.95 16 " stroke-width="1" fill="undefined"/>
<path style="fill:#0C0001;fill-opacity:0.835294" d="M 39.95 16 L 39.95 15 L 40.95 15 L 40.95 16 L 39.95 16 " stroke-width="1" fill="undefined"/>
<path style="fill:#80001B;fill-opacity:1" d="M 7 27 L 7 26 L 8 26 L 8 27 L 7 27 M 39.95 17 L 39.95 16 L 40.95 16 L 40.95 17 L 39.95 17 " stroke-width="1" fill="undefined"/>
<path style="fill:#000000;fill-opacity:0.164706" d="M 40.95 16 L 40.95 15 L 41.7 15.25 L 41.95 16 L 40.95 16 M 44.95 28 L 44.95 27 L 45.95 27 L 45.95 28 L 44.95 28 " stroke-width="1" fill="undefined"/>
<path style="fill:#030000;fill-opacity:0.643137" d="M 40.95 17 L 40.95 16 L 41.95 16 L 41.95 17 L 40.95 17 " stroke-width="1" fill="undefined"/>
<path style="fill:#43000E;fill-opacity:0.988235" d="M 40.95 18 L 40.95 17 L 41.95 17 L 41.95 18 L 40.95 18 " stroke-width="1" fill="undefined"/>
<path style="fill:#000000;fill-opacity:0.321569" d="M 39.95 15 L 39.95 14 L 40.7 14.25 L 40.95 15 L 39.95 15 " stroke-width="1" fill="undefined"/>
<path style="fill:#C7002A;fill-opacity:1" d="M 22 9 L 23 9 L 22.75 9.75 Q 22.5 10 22 10 L 22 9 M 21 27 Q 21.5 27 21.75 27.25 Q 22 27.5 22 28 L 21 28 L 21 27 M 40.95 18 Q 40.45 18 40.2 17.75 Q 39.95 17.5 39.95 17 L 40.95 17 L 40.95 18 M 14 31 L 14 32 L 13.25 31.75 L 13 31 L 14 31 " stroke-width="1" fill="undefined"/>
<path style="fill:#010000;fill-opacity:0.905882" d="M 41.95 19 L 41.95 18 L 42.95 18 L 42.95 19 L 41.95 19 " stroke-width="1" fill="undefined"/>
<path style="fill:#B00025;fill-opacity:1" d="M 41.95 19 Q 41.45 19 41.2 18.75 Q 40.95 18.5 40.95 18 L 41.95 18 L 41.95 19 " stroke-width="1" fill="undefined"/>
<path style="fill:#6C0017;fill-opacity:1" d="M 9 36 L 9 35 L 10 35 L 10 36 L 9 36 M 41.95 21 L 40.95 21 L 40.95 20 L 41.95 20 L 41.95 21 " stroke-width="1" fill="undefined"/>
<path style="fill:#540012;fill-opacity:0.988235" d="M 41.95 20 L 41.95 19 L 42.95 19 L 42.95 20 L 41.95 20 " stroke-width="1" fill="undefined"/>
<path style="fill:#C5002A;fill-opacity:1" d="M 39.95 21 L 38.95 21 L 38.95 20 L 39.95 20 L 39.95 21 " stroke-width="1" fill="undefined"/>
<path style="fill:#160005;fill-opacity:1" d="M 39.95 21 L 39.95 22 L 38.95 22 L 38.95 21 L 39.95 21 " stroke-width="1" fill="undefined"/>
<path style="fill:#45000E;fill-opacity:1" d="M 38.95 22 L 38 22 L 38 21 L 38.95 21 L 38.95 22 " stroke-width="1" fill="undefined"/>
<path style="fill:#101010;fill-opacity:1" d="M 39.95 24 L 38.95 24 L 38.95 23 L 39.95 23 L 39.95 24 M 34 27 L 34 28 L 33 28 L 33 27 L 34 27 " stroke-width="1" fill="undefined"/>
<path style="fill:#0B0001;fill-opacity:1" d="M 40.95 21 L 40.7 21.75 L 39.95 22 L 39.95 21 L 40.95 21 " stroke-width="1" fill="undefined"/>
<path style="fill:#530012;fill-opacity:1" d="M 40.95 23 L 41.95 23 L 41.95 24 L 40.95 24 L 40.95 23 " stroke-width="1" fill="undefined"/>
<path style="fill:#96001F;fill-opacity:1" d="M 40.95 21 L 39.95 21 L 39.95 20 L 40.95 20 L 40.95 21 " stroke-width="1" fill="undefined"/>
<path style="fill:#38000C;fill-opacity:1" d="M 42.95 20 L 42.95 21 L 41.95 21 L 41.95 20 L 42.95 20 M 13 13 L 14 13 L 14 14 L 13 14 L 13 13 " stroke-width="1" fill="undefined"/>
<path style="fill:#20060C;fill-opacity:1" d="M 40.95 24 L 39.95 24 L 39.95 23 L 40.95 23 L 40.95 24 " stroke-width="1" fill="undefined"/>
<path style="fill:#000000;fill-opacity:0.105882" d="M 42.95 19 L 42.95 18 L 43.7 18.25 L 43.95 19 L 42.95 19 M 45.95 28 L 45.7 28.75 L 44.95 29 L 44.95 28 L 45.95 28 M 13 12 L 13 11 L 14 11 L 14 12 L 13 12 M 15 10 L 15 9 L 16 9 L 16 10 L 15 10 " stroke-width="1" fill="undefined"/>
<path style="fill:#000000;fill-opacity:0.470588" d="M 42.95 20 L 42.95 19 L 43.95 19 L 43.95 20 L 42.95 20 " stroke-width="1" fill="undefined"/>
<path style="fill:#050000;fill-opacity:0.737255" d="M 42.95 20 L 43.95 20 L 43.95 21 L 42.95 21 L 42.95 20 " stroke-width="1" fill="undefined"/>
<path style="fill:#000000;fill-opacity:0.219608" d="M 43.95 22 L 43.95 21 L 44.95 21 L 44.95 22 L 43.95 22 " stroke-width="1" fill="undefined"/>
<path style="fill:#060000;fill-opacity:0.941176" d="M 42.95 22 L 42.95 21 L 43.95 21 L 43.95 22 L 42.95 22 " stroke-width="1" fill="undefined"/>
<path style="fill:#0A0001;fill-opacity:1" d="M 42.95 23 L 42.95 22 L 43.95 22 L 43.95 23 L 42.95 23 " stroke-width="1" fill="undefined"/>
<path style="fill:#710018;fill-opacity:1" d="M 41.95 24 L 41.95 23 L 42.95 23 L 43.95 23 L 43.95 24 L 42.95 24 L 41.95 24 " stroke-width="1" fill="undefined"/>
<path style="fill:#000000;fill-opacity:0.439216" d="M 43.95 23 L 43.95 22 L 44.95 22 L 44.95 23 L 43.95 23 M 6 32 L 6 31 L 7 31 L 7 32 L 6 32 " stroke-width="1" fill="undefined"/>
<path style="fill:#080002;fill-opacity:0.698039" d="M 43.95 24 L 43.95 23 L 44.95 23 L 44.95 24 L 43.95 24 " stroke-width="1" fill="undefined"/>
<path style="fill:#000000;fill-opacity:0.384314" d="M 41.95 18 L 41.95 17 L 42.7 17.25 L 42.95 18 L 41.95 18 " stroke-width="1" fill="undefined"/>
<path style="fill:#180005;fill-opacity:0.894118" d="M 43.95 25 L 43.95 24 L 44.95 24 L 44.95 25 L 43.95 25 " stroke-width="1" fill="undefined"/>
<path style="fill:#D5002C;fill-opacity:1" d="M 42.95 24 L 42.95 25 L 42.95 26 L 41.95 26 L 41.95 25 L 41.95 24 L 42.95 24 " stroke-width="1" fill="undefined"/>
<path style="fill:#C8002A;fill-opacity:1" d="M 9 35 L 9 34 Q 9.5 34 9.75 34.25 Q 10 34.5 10 35 L 9 35 M 42.95 26 L 43.95 26 L 43.95 28 L 43.95 29 Q 43.45 29 43.35 28.8 Q 42.95 28 42.95 27 L 42.95 26 M 16 32 L 17 32 L 16.75 32.75 L 16 33 L 16 32 " stroke-width="1" fill="undefined"/>
<path style="fill:#2C0009;fill-opacity:0.996078" d="M 44.95 27 L 44.95 28 L 44.95 29 L 43.95 29 L 43.95 28 L 43.95 26 L 43.95 25 L 44.95 25 L 44.95 26 L 44.95 27 " stroke-width="1" fill="undefined"/>
<path style="fill:#1F0006;fill-opacity:0.972549" d="M 43.95 30 L 43.95 29 L 44.95 29 L 44.95 30 L 43.95 30 " stroke-width="1" fill="undefined"/>
<path style="fill:#AE0428;fill-opacity:1" d="M 41.95 24 L 41.95 25 L 40.95 25 L 40.95 24 L 41.95 24 " stroke-width="1" fill="undefined"/>
<path style="fill:#991F38;fill-opacity:1" d="M 40.95 26 L 40.95 25 L 41.95 25 L 41.95 26 L 40.95 26 " stroke-width="1" fill="undefined"/>
<path style="fill:#A6868C;fill-opacity:1" d="M 40.95 24 L 40.95 25 L 39.95 25 L 39.95 24 L 40.95 24 " stroke-width="1" fill="undefined"/>
<path style="fill:#85273A;fill-opacity:1" d="M 40.95 26 L 41.95 26 L 41.95 27 L 40.95 27 L 40.95 26 " stroke-width="1" fill="undefined"/>
<path style="fill:#CAC8C8;fill-opacity:1" d="M 39.95 26 L 39.95 25 L 40.95 25 L 40.95 26 L 39.95 26 " stroke-width="1" fill="undefined"/>
<path style="fill:#E7E7E7;fill-opacity:1" d="M 39.95 24 L 39.95 25 L 38.95 25 L 38.95 24 L 39.95 24 " stroke-width="1" fill="undefined"/>
<path style="fill:#FEFEFE;fill-opacity:1" d="M 39.95 27 L 39.95 28 L 38.95 28 L 38 28 L 37 28 L 37 27 L 37.75 26.75 L 38 26 L 38 25 L 38.95 25 L 39.95 25 L 39.95 26 L 39.95 27 " stroke-width="1" fill="undefined"/>
<path style="fill:#CDCDCD;fill-opacity:1" d="M 38 24 L 38.95 24 L 38.95 25 L 38 25 L 38 24 M 38.95 29 L 38.95 28 L 39.95 28 L 39.95 29 L 38.95 29 " stroke-width="1" fill="undefined"/>
<path style="fill:#989898;fill-opacity:1" d="M 37 24 L 38 24 L 38 25 L 37 25 L 37 24 " stroke-width="1" fill="undefined"/>
<path style="fill:#D4D4D4;fill-opacity:1" d="M 37 26 L 38 26 L 37.75 26.75 L 37 27 L 37 26 " stroke-width="1" fill="undefined"/>
<path style="fill:#F0F0F0;fill-opacity:1" d="M 37 26 L 37 25 L 38 25 L 38 26 L 37 26 " stroke-width="1" fill="undefined"/>
<path style="fill:#4E2F35;fill-opacity:1" d="M 38.95 29 L 39.95 29 L 39.95 30 L 38.95 30 L 38.95 29 " stroke-width="1" fill="undefined"/>
<path style="fill:#F5F5F5;fill-opacity:1" d="M 38.95 29 L 38 29 L 38 28 L 38.95 28 L 38.95 29 " stroke-width="1" fill="undefined"/>
<path style="fill:#6E4C53;fill-opacity:1" d="M 39.95 29 L 39.95 28 L 40.95 28 L 40.95 29 L 39.95 29 " stroke-width="1" fill="undefined"/>
<path style="fill:#B2B2B2;fill-opacity:1" d="M 39.95 28 L 39.95 27 L 40.95 27 L 40.95 28 L 39.95 28 M 32 28 L 31 28 L 31 27 L 32 27 L 32 28 " stroke-width="1" fill="undefined"/>
<path style="fill:#E6E6E6;fill-opacity:1" d="M 37 29 L 37 28 L 38 28 L 38 29 L 37 29 M 31 29 L 30 29 L 30 28 L 31 28 L 31 29 " stroke-width="1" fill="undefined"/>
<path style="fill:#5E5D5A;fill-opacity:1" d="M 38 29 L 38.95 29 L 38.95 30 L 38 30 L 38 29 " stroke-width="1" fill="undefined"/>
<path style="fill:#83152C;fill-opacity:1" d="M 40.95 28 L 40.95 27 L 41.95 27 L 41.95 28 L 40.95 28 " stroke-width="1" fill="undefined"/>
<path style="fill:#8F001E;fill-opacity:1" d="M 24 19 L 25 19 L 25 20 L 24 20 L 24 19 M 40.95 29 L 40.95 28 L 41.95 28 L 41.95 29 L 40.95 29 " stroke-width="1" fill="undefined"/>
<path style="fill:#A60022;fill-opacity:1" d="M 41.95 31 L 40.95 31 L 39.95 31 L 39.95 30 L 40.7 29.75 L 40.95 29 L 41.95 29 L 41.95 30 L 41.95 31 M 23 6 L 23 5 L 23.75 5.25 L 24 6 L 23 6 " stroke-width="1" fill="undefined"/>
<path style="fill:#78011B;fill-opacity:1" d="M 39.95 29 L 40.95 29 L 40.7 29.75 L 39.95 30 L 39.95 29 " stroke-width="1" fill="undefined"/>
<path style="fill:#D3D3D3;fill-opacity:1" d="M 39.95 26 L 40.95 26 L 40.95 27 L 39.95 27 L 39.95 26 " stroke-width="1" fill="undefined"/>
<path style="fill:#C00128;fill-opacity:1" d="M 40.95 32 L 40.95 31 L 41.95 31 L 41.95 32 L 41.95 33 L 40.95 33 L 40.95 32 " stroke-width="1" fill="undefined"/>
<path style="fill:#D3002C;fill-opacity:1" d="M 42.95 31 L 42.95 32 L 42.95 33 L 41.95 33 L 41.95 32 L 41.95 31 L 42.95 31 " stroke-width="1" fill="undefined"/>
<path style="fill:#8F1E1B;fill-opacity:1" d="M 40.95 34 L 40.95 33 L 41.95 33 L 41.95 34 L 40.95 34 " stroke-width="1" fill="undefined"/>
<path style="fill:#9C4E17;fill-opacity:1" d="M 39.95 33 L 39.95 32 L 40.95 32 L 40.95 33 L 39.95 33 " stroke-width="1" fill="undefined"/>
<path style="fill:#94081E;fill-opacity:1" d="M 40.95 32 L 39.95 32 L 39.95 31 L 40.95 31 L 40.95 32 " stroke-width="1" fill="undefined"/>
<path style="fill:#CA002A;fill-opacity:1" d="M 19 33 L 19 32 L 20 32 L 20 33 L 19 33 M 42.95 31 L 41.95 31 L 41.95 30 L 42.95 30 L 42.95 31 M 14 30 L 13 30 L 13 29 L 14 29 L 14 30 " stroke-width="1" fill="undefined"/>
<path style="fill:#835711;fill-opacity:1" d="M 38.95 32 L 38.95 31 L 39.95 31 L 39.95 32 L 38.95 32 " stroke-width="1" fill="undefined"/>
<path style="fill:#724E0F;fill-opacity:1" d="M 38.95 30 L 38.95 31 L 38 31 L 38 30 L 38.95 30 " stroke-width="1" fill="undefined"/>
<path style="fill:#EBAD1C;fill-opacity:1" d="M 37.25 30.75 Q 37 30.5 37 30 L 38 30 L 38 31 L 37.25 30.75 " stroke-width="1" fill="undefined"/>
<path style="fill:#F4B41D;fill-opacity:1" d="M 39.2 32.75 Q 38.95 32.5 38.95 32 L 39.95 32 L 39.95 33 L 39.2 32.75 M 30 30 L 31 30 L 30.75 30.75 L 30 31 L 30 30 " stroke-width="1" fill="undefined"/>
<path style="fill:#FAB81D;fill-opacity:1" d="M 35 34 L 34 34 L 33 34 L 32 34 L 31.75 33.25 Q 31.5 33 31 33 L 30 33 L 29 33 L 29 32 L 29.75 31.75 L 30 31 L 30.75 30.75 L 31 30 L 31.75 29.75 L 32 29 L 33 29 L 34 29 L 35 29 L 36 29 Q 36 29.5 36.25 29.75 L 37 30 Q 37 30.5 37.25 30.75 L 38 31 L 38.95 31 L 38.95 32 Q 38.95 32.5 39.2 32.75 L 39.95 33 L 39.95 34 L 38.95 34 L 38 34 L 37 34 L 36 34 L 35 34 " stroke-width="1" fill="undefined"/>
<path style="fill:#A66A16;fill-opacity:1" d="M 38.95 34 L 39.95 34 L 39.95 35 L 38.95 35 L 38.95 34 " stroke-width="1" fill="undefined"/>
<path style="fill:#742014;fill-opacity:1" d="M 38.95 35 L 38.95 36 L 38 36 L 38 35 L 38.95 35 " stroke-width="1" fill="undefined"/>
<path style="fill:#B47217;fill-opacity:1" d="M 37 36 L 37 35 L 38 35 L 38 36 L 37 36 " stroke-width="1" fill="undefined"/>
<path style="fill:#A40021;fill-opacity:1" d="M 39.95 35 L 40.95 35 L 40.95 36 L 39.95 36 L 38.95 36 L 38.95 35 L 39.95 35 " stroke-width="1" fill="undefined"/>
<path style="fill:#D6002C;fill-opacity:1" d="M 39.95 37 L 38.95 37 L 38.95 36 L 39.95 36 L 39.95 37 " stroke-width="1" fill="undefined"/>
<path style="fill:#8E6711;fill-opacity:1" d="M 38.95 34 L 38.95 35 L 38 35 L 38 34 L 38.95 34 " stroke-width="1" fill="undefined"/>
<path style="fill:#A07013;fill-opacity:1" d="M 37 35 L 36 35 L 36 34 L 37 34 L 38 34 L 38 35 L 37 35 " stroke-width="1" fill="undefined"/>
<path style="fill:#C30029;fill-opacity:1" d="M 24 31 L 24 32 L 23 32 L 23 31 L 24 31 M 39.95 38 L 38.95 38 L 38.95 37 L 38 37 L 38 36 L 38.95 36 L 38.95 37 L 39.95 37 L 39.95 38 " stroke-width="1" fill="undefined"/>
<path style="fill:#9E6215;fill-opacity:1" d="M 39.95 35 L 39.95 34 L 40.95 34 L 40.95 35 L 39.95 35 " stroke-width="1" fill="undefined"/>
<path style="fill:#4A180C;fill-opacity:1" d="M 40.95 35 L 40.95 34 L 41.95 34 L 41.95 35 L 40.95 35 " stroke-width="1" fill="undefined"/>
<path style="fill:#740018;fill-opacity:1" d="M 40.95 36 L 40.95 35 L 41.95 35 L 41.95 36 L 40.95 36 " stroke-width="1" fill="undefined"/>
<path style="fill:#2C000A;fill-opacity:1" d="M 40.95 37 L 40.95 36 L 41.95 36 L 41.95 37 L 40.95 37 " stroke-width="1" fill="undefined"/>
<path style="fill:#080000;fill-opacity:0.980392" d="M 42.95 36 L 41.95 36 L 41.95 35 L 42.95 35 L 42.95 36 " stroke-width="1" fill="undefined"/>
<path style="fill:#5F0014;fill-opacity:1" d="M 42.95 35 L 41.95 35 L 41.95 34 L 42.95 34 L 42.95 35 " stroke-width="1" fill="undefined"/>
<path style="fill:#D39A19;fill-opacity:1" d="M 39.95 34 L 39.95 33 L 40.95 33 L 40.95 34 L 39.95 34 " stroke-width="1" fill="undefined"/>
<path style="fill:#BD0028;fill-opacity:1" d="M 8 33 L 8 32 Q 8.5 32 8.75 32.25 Q 9 32.5 9 33 L 8 33 M 39.95 37 L 39.95 36 L 40.95 36 L 40.95 37 L 39.95 37 M 13 31 L 13 30 L 14 30 L 14 31 L 13 31 " stroke-width="1" fill="undefined"/>
<path style="fill:#C70029;fill-opacity:1" d="M 42.95 34 L 41.95 34 L 41.95 33 L 42.95 33 L 42.95 34 " stroke-width="1" fill="undefined"/>
<path style="fill:#0F0002;fill-opacity:0.847059" d="M 43.95 31 L 43.95 30 L 44.95 30 L 44.95 31 L 43.95 31 " stroke-width="1" fill="undefined"/>
<path style="fill:#A10021;fill-opacity:1" d="M 42.95 30 L 43.95 30 L 43.95 31 L 42.95 31 L 42.95 30 " stroke-width="1" fill="undefined"/>
<path style="fill:#84001C;fill-opacity:1" d="M 11 16 L 12 16 Q 12 16.5 11.75 16.75 Q 11.5 17 11 17 L 11 16 M 43.95 32 L 42.95 32 L 42.95 31 L 43.95 31 L 43.95 32 M 18 8 L 19 8 L 19 9 L 18 9 L 18 8 " stroke-width="1" fill="undefined"/>
<path style="fill:#000000;fill-opacity:0.403922" d="M 44.95 32 L 44.95 33 L 43.95 33 L 43.95 32 L 44.95 32 " stroke-width="1" fill="undefined"/>
<path style="fill:#520011;fill-opacity:1" d="M 43.95 32 L 43.95 33 L 42.95 33 L 42.95 32 L 43.95 32 M 39.95 38 L 39.95 37 L 40.95 37 L 40.95 38 L 39.95 38 " stroke-width="1" fill="undefined"/>
<path style="fill:#130004;fill-opacity:0.913725" d="M 43.95 34 L 42.95 34 L 42.95 33 L 43.95 33 L 43.95 34 " stroke-width="1" fill="undefined"/>
<path style="fill:#000000;fill-opacity:0.207843" d="M 43.95 34 L 43.95 33 L 44.95 33 L 44.95 34 L 43.95 34 M 13 40 L 13 41 L 12.25 40.75 L 12 40 L 13 40 M 3 26 L 3 25 L 4 25 L 4 26 L 3 26 " stroke-width="1" fill="undefined"/>
<path style="fill:#030000;fill-opacity:0.65098" d="M 43.95 32 L 43.95 31 L 44.95 31 L 44.95 32 L 43.95 32 " stroke-width="1" fill="undefined"/>
<path style="fill:#000000;fill-opacity:0.709804" d="M 43.95 35 L 42.95 35 L 42.95 34 L 43.95 34 L 43.95 35 " stroke-width="1" fill="undefined"/>
<path style="fill:#000000;fill-opacity:0.396078" d="M 43.95 35 L 43.7 35.75 L 42.95 36 L 42.95 35 L 43.95 35 M 37 41 L 38 41 L 38 42 L 37 42 L 37 41 M 21 43 L 21 44 L 20 44 L 20 43 L 21 43 " stroke-width="1" fill="undefined"/>
<path style="fill:#000000;fill-opacity:0.0823529" d="M 44.95 34 L 44.7 34.75 L 43.95 35 L 43.95 34 L 44.95 34 " stroke-width="1" fill="undefined"/>
<path style="fill:#89764A;fill-opacity:1" d="M 37 29 L 38 29 L 38 30 L 37 30 L 37 29 " stroke-width="1" fill="undefined"/>
<path style="fill:#000000;fill-opacity:0.831373" d="M 41.95 37 L 41.95 36 L 42.95 36 L 42.95 37 L 41.95 37 " stroke-width="1" fill="undefined"/>
<path style="fill:#5F5F5F;fill-opacity:1" d="M 36 25 L 36 24 L 37 24 L 37 25 L 36 25 " stroke-width="1" fill="undefined"/>
<path style="fill:#727272;fill-opacity:1" d="M 37 25 L 37 26 L 36 26 L 36 25 L 37 25 " stroke-width="1" fill="undefined"/>
<path style="fill:#0B0B0B;fill-opacity:1" d="M 31 26 L 30 26 L 30 25 L 31 25 L 31 26 M 36 26 L 37 26 L 37 27 L 36 27 L 36 26 " stroke-width="1" fill="undefined"/>
<path style="fill:#8E8E8E;fill-opacity:1" d="M 35 26 L 35 25 L 36 25 L 36 26 L 35 26 " stroke-width="1" fill="undefined"/>
<path style="fill:#070707;fill-opacity:1" d="M 35 25 L 34 25 L 34 24 L 35 24 L 35 25 " stroke-width="1" fill="undefined"/>
<path style="fill:#8A8888;fill-opacity:1" d="M 34 25 L 35 25 L 35 26 L 34 26 L 34 25 " stroke-width="1" fill="undefined"/>
<path style="fill:#242424;fill-opacity:1" d="M 32 25 L 32 24 L 32.75 24.25 L 33 25 L 32 25 " stroke-width="1" fill="undefined"/>
<path style="fill:#7A7A7A;fill-opacity:1" d="M 33 26 L 34 26 L 35 26 L 35 27 L 34 27 L 33 27 L 33 26 " stroke-width="1" fill="undefined"/>
<path style="fill:#757575;fill-opacity:1" d="M 34 26 L 33 26 L 33 25 L 34 25 L 34 26 " stroke-width="1" fill="undefined"/>
<path style="fill:#DBDBDB;fill-opacity:1" d="M 32 26 L 32 25 L 33 25 L 33 26 L 32 26 " stroke-width="1" fill="undefined"/>
<path style="fill:#414141;fill-opacity:1" d="M 34 28 L 34 27 L 35 27 L 35 28 L 34 28 " stroke-width="1" fill="undefined"/>
<path style="fill:#BBBBBB;fill-opacity:1" d="M 35 28 L 35 27 L 36 27 L 36 28 L 35 28 " stroke-width="1" fill="undefined"/>
<path style="fill:#C79317;fill-opacity:1" d="M 34 28 L 35 28 L 35 29 L 34 29 L 34 28 " stroke-width="1" fill="undefined"/>
<path style="fill:#C9C9C9;fill-opacity:1" d="M 32 28 L 32 27 L 32 26 L 33 26 L 33 27 L 33 28 L 32 28 " stroke-width="1" fill="undefined"/>
<path style="fill:#DCA21A;fill-opacity:1" d="M 33 28 L 34 28 L 34 29 L 33 29 L 33 28 " stroke-width="1" fill="undefined"/>
<path style="fill:#80641F;fill-opacity:1" d="M 33 28 L 33 29 L 32 29 L 32 28 L 33 28 " stroke-width="1" fill="undefined"/>
<path style="fill:#72581A;fill-opacity:1" d="M 35 28 L 36 28 L 36 29 L 35 29 L 35 28 " stroke-width="1" fill="undefined"/>
<path style="fill:#D8D8D8;fill-opacity:1" d="M 36 28 L 36 27 L 37 27 L 37 28 L 36 28 " stroke-width="1" fill="undefined"/>
<path style="fill:#BF8E19;fill-opacity:1" d="M 36 29 L 37 29 L 37 30 L 36.25 29.75 Q 36 29.5 36 29 " stroke-width="1" fill="undefined"/>
<path style="fill:#A29B8A;fill-opacity:1" d="M 36 29 L 36 28 L 37 28 L 37 29 L 36 29 " stroke-width="1" fill="undefined"/>
<path style="fill:#363636;fill-opacity:1" d="M 35 27 L 35 26 L 36 26 L 36 27 L 35 27 " stroke-width="1" fill="undefined"/>
<path style="fill:#656565;fill-opacity:1" d="M 32 25 L 31 25 L 31 24 L 32 24 L 32 25 " stroke-width="1" fill="undefined"/>
<path style="fill:#A9A9A9;fill-opacity:1" d="M 31 25 L 30 25 L 30 24 L 31 24 L 31 25 " stroke-width="1" fill="undefined"/>
<path style="fill:#353535;fill-opacity:1" d="M 32 26 L 31 26 L 31 25 L 32 25 L 32 26 " stroke-width="1" fill="undefined"/>
<path style="fill:#1C1C1C;fill-opacity:1" d="M 32 27 L 31 27 L 31 26 L 32 26 L 32 27 " stroke-width="1" fill="undefined"/>
<path style="fill:#DFDFDF;fill-opacity:1" d="M 29 25 L 29 24 L 30 24 L 30 25 L 29 25 " stroke-width="1" fill="undefined"/>
<path style="fill:#C2C2C2;fill-opacity:1" d="M 29 26 L 29 25 L 30 25 L 30 26 L 29 26 " stroke-width="1" fill="undefined"/>
<path style="fill:#EDEDED;fill-opacity:1" d="M 28 25 L 28 24 L 29 24 L 29 25 L 28 25 " stroke-width="1" fill="undefined"/>
<path style="fill:#F6F6F6;fill-opacity:1" d="M 28 24 L 28 25 L 27 25 L 27 24 L 28 24 " stroke-width="1" fill="undefined"/>
<path style="fill:#9B9B9B;fill-opacity:1" d="M 29 26 L 30 26 L 30 27 L 29 27 L 29 26 " stroke-width="1" fill="undefined"/>
<path style="fill:#FFFFFF;fill-opacity:1" d="M 27 28 L 27 27 L 27 26 L 27 25 L 28 25 L 29 25 L 29 26 L 29 27 L 29 28 L 28 28 L 27 28 " stroke-width="1" fill="undefined"/>
<path style="fill:#999999;fill-opacity:1" d="M 31 28 L 30 28 L 30 27 L 31 27 L 31 28 " stroke-width="1" fill="undefined"/>
<path style="fill:#F8F8F8;fill-opacity:1" d="M 30 27 L 30 28 L 30 29 L 29 29 L 29 28 L 29 27 L 30 27 M 26 26 L 26 25 L 27 25 L 27 26 L 26 26 " stroke-width="1" fill="undefined"/>
<path style="fill:#6E6C69;fill-opacity:1" d="M 30 30 L 29 30 L 29 29 L 30 29 L 30 30 " stroke-width="1" fill="undefined"/>
<path style="fill:#F3F3F3;fill-opacity:1" d="M 29 28 L 29 29 L 28 29 L 28 28 L 29 28 " stroke-width="1" fill="undefined"/>
<path style="fill:#D2D2D2;fill-opacity:1" d="M 27 29 L 27 28 L 28 28 L 28 29 L 27 29 " stroke-width="1" fill="undefined"/>
<path style="fill:#5C5C5C;fill-opacity:1" d="M 28 29 L 29 29 L 29 30 L 28 30 L 28 29 " stroke-width="1" fill="undefined"/>
<path style="fill:#A39A86;fill-opacity:1" d="M 31 29 L 31 28 L 32 28 L 32 29 L 31 29 " stroke-width="1" fill="undefined"/>
<path style="fill:#C9951B;fill-opacity:1" d="M 31 29 L 32 29 L 31.75 29.75 L 31 30 L 31 29 " stroke-width="1" fill="undefined"/>
<path style="fill:#99824A;fill-opacity:1" d="M 30 30 L 30 29 L 31 29 L 31 30 L 30 30 " stroke-width="1" fill="undefined"/>
<path style="fill:#875D12;fill-opacity:1" d="M 29 30 L 30 30 L 30 31 L 29 31 L 29 30 " stroke-width="1" fill="undefined"/>
<path style="fill:#EFB01D;fill-opacity:1" d="M 29 31 L 30 31 L 29.75 31.75 L 29 32 L 29 31 " stroke-width="1" fill="undefined"/>
<path style="fill:#530411;fill-opacity:1" d="M 29 30 L 29 31 L 28 31 L 28 30 L 29 30 " stroke-width="1" fill="undefined"/>
<path style="fill:#92001E;fill-opacity:1" d="M 27 31 L 27 30 L 28 30 L 28 31 L 28 32 L 27 32 L 27 31 " stroke-width="1" fill="undefined"/>
<path style="fill:#C49117;fill-opacity:1" d="M 28 33 L 28 32 L 29 32 L 29 33 L 28 33 " stroke-width="1" fill="undefined"/>
<path style="fill:#240108;fill-opacity:1" d="M 27 33 L 27 32 L 28 32 L 28 33 L 27 33 " stroke-width="1" fill="undefined"/>
<path style="fill:#866310;fill-opacity:1" d="M 30 34 L 29 34 L 29 33 L 30 33 L 30 34 " stroke-width="1" fill="undefined"/>
<path style="fill:#7D4B11;fill-opacity:1" d="M 28 31 L 29 31 L 29 32 L 28 32 L 28 31 " stroke-width="1" fill="undefined"/>
<path style="fill:#392907;fill-opacity:1" d="M 28 34 L 28 33 L 29 33 L 29 34 L 28 34 " stroke-width="1" fill="undefined"/>
<path style="fill:#AC6D16;fill-opacity:1" d="M 31 34 L 31 35 L 30 35 L 29 35 L 29 34 L 30 34 L 31 34 " stroke-width="1" fill="undefined"/>
<path style="fill:#BDA48B;fill-opacity:1" d="M 29 35 L 29 36 L 28.25 35.75 Q 28 35.5 28 35 L 29 35 " stroke-width="1" fill="undefined"/>
<path style="fill:#E1C2A6;fill-opacity:1" d="M 23 33 L 24 33 L 25 33 L 26 33 L 27 33 L 27 34 Q 27 34.5 27.25 34.75 L 28 35 Q 28 35.5 28.25 35.75 L 29 36 L 29.25 36.75 L 30 37 Q 30 37.5 30.25 37.75 L 31 38 Q 31 38.5 31.25 38.75 L 32 39 L 32.25 39.75 L 33 40 L 34 40 L 34 41 L 33 41 L 32 41 L 31 41 L 31 42 L 30 42 L 29 42 L 28 42 L 27 42 L 25 42 L 24 42 L 23 42 L 22.75 41.25 Q 22.5 41 22 41 L 21 41 L 20 41 L 19 41 Q 19 40.5 18.75 40.25 Q 18.5 40 18 40 L 17 40 L 16 40 L 15 40 Q 15 39.5 14.75 39.25 Q 14.5 39 14 39 L 14 38 L 14.75 37.75 Q 15 37.5 15 37 L 15.75 36.75 Q 16 36.5 16 36 L 17 36 L 17.75 35.75 Q 18 35.5 18 35 L 19 35 L 19.75 34.75 L 20 34 L 21 34 L 22 34 L 22.75 33.75 L 23 33 " stroke-width="1" fill="undefined"/>
<path style="fill:#E5911C;fill-opacity:1" d="M 31 36 L 30 36 L 30 35 L 31 35 L 31 36 " stroke-width="1" fill="undefined"/>
<path style="fill:#6D4F29;fill-opacity:1" d="M 29 36 L 29 35 L 30 35 L 30 36 L 29 36 " stroke-width="1" fill="undefined"/>
<path style="fill:#AD9781;fill-opacity:1" d="M 29 36 L 30 36 L 30 37 L 29.25 36.75 L 29 36 " stroke-width="1" fill="undefined"/>
<path style="fill:#6F5636;fill-opacity:1" d="M 28 34 L 29 34 L 29 35 L 28 35 L 28 34 " stroke-width="1" fill="undefined"/>
<path style="fill:#DEBFA4;fill-opacity:1" d="M 27.25 34.75 Q 27 34.5 27 34 L 28 34 L 28 35 L 27.25 34.75 " stroke-width="1" fill="undefined"/>
<path style="fill:#F59B1E;fill-opacity:1" d="M 33 35 L 34 35 L 35 35 L 35.25 35.75 L 36 36 L 36 37 L 35 37 L 34 37 L 34 38 L 33 38 L 32.75 37.25 L 32 37 L 31.75 36.25 Q 31.5 36 31 36 L 31 35 L 32 35 L 33 35 " stroke-width="1" fill="undefined"/>
<path style="fill:#965F13;fill-opacity:1" d="M 32 34 L 32 35 L 31 35 L 31 34 L 32 34 " stroke-width="1" fill="undefined"/>
<path style="fill:#8A5A11;fill-opacity:1" d="M 33 35 L 32 35 L 32 34 L 33 34 L 33 35 " stroke-width="1" fill="undefined"/>
<path style="fill:#ECAE1C;fill-opacity:1" d="M 31 33 Q 31.5 33 31.75 33.25 L 32 34 L 31 34 L 31 33 " stroke-width="1" fill="undefined"/>
<path style="fill:#C99418;fill-opacity:1" d="M 31 34 L 30 34 L 30 33 L 31 33 L 31 34 " stroke-width="1" fill="undefined"/>
<path style="fill:#2C1D06;fill-opacity:1" d="M 31 37 L 30 37 L 30 36 L 31 36 L 31 37 " stroke-width="1" fill="undefined"/>
<path style="fill:#2D2721;fill-opacity:1" d="M 27 33 L 28 33 L 28 34 L 27 34 L 27 33 " stroke-width="1" fill="undefined"/>
<path style="fill:#875D11;fill-opacity:1" d="M 35 35 L 35 34 L 36 34 L 36 35 L 35 35 " stroke-width="1" fill="undefined"/>
<path style="fill:#8E6111;fill-opacity:1" d="M 33 34 L 34 34 L 35 34 L 35 35 L 34 35 L 33 35 L 33 34 " stroke-width="1" fill="undefined"/>
<path style="fill:#E28F1C;fill-opacity:1" d="M 36 35 L 37 35 L 37 36 L 36 36 L 36 35 " stroke-width="1" fill="undefined"/>
<path style="fill:#EE961D;fill-opacity:1" d="M 36 35 L 36 36 L 35.25 35.75 L 35 35 L 36 35 " stroke-width="1" fill="undefined"/>
<path style="fill:#CC8018;fill-opacity:1" d="M 37 37 L 36 37 L 36 36 L 37 36 L 37 37 " stroke-width="1" fill="undefined"/>
<path style="fill:#3A3435;fill-opacity:1" d="M 27 29 L 28 29 L 28 30 L 27 30 L 27 29 " stroke-width="1" fill="undefined"/>
<path style="fill:#9C8670;fill-opacity:1" d="M 35 38 L 36 38 L 35.75 38.75 L 35 39 L 35 38 " stroke-width="1" fill="undefined"/>
<path style="fill:#E0C1A6;fill-opacity:1" d="M 37 40 L 36 40 L 35 40 L 35 39 L 35.75 38.75 L 36 38 L 37 38 L 37 39 L 37 40 " stroke-width="1" fill="undefined"/>
<path style="fill:#DF9087;fill-opacity:1" d="M 38 38 L 38 39 L 37 39 L 37 38 L 38 38 " stroke-width="1" fill="undefined"/>
<path style="fill:#CD3F52;fill-opacity:1" d="M 37 38 L 37 37 L 38 37 L 38 38 L 37 38 " stroke-width="1" fill="undefined"/>
<path style="fill:#635144;fill-opacity:1" d="M 37 38 L 36 38 L 36 37 L 37 37 L 37 38 " stroke-width="1" fill="undefined"/>
<path style="fill:#8C5D1D;fill-opacity:1" d="M 35 37 L 36 37 L 36 38 L 35 38 L 35 37 " stroke-width="1" fill="undefined"/>
<path style="fill:#D6871A;fill-opacity:1" d="M 35 38 L 34 38 L 34 37 L 35 37 L 35 38 " stroke-width="1" fill="undefined"/>
<path style="fill:#7D4F0F;fill-opacity:1" d="M 34 39 L 33 39 L 33 38 L 34 38 L 34 39 " stroke-width="1" fill="undefined"/>
<path style="fill:#513A1B;fill-opacity:1" d="M 32 39 L 32 38 L 33 38 L 33 39 L 32 39 " stroke-width="1" fill="undefined"/>
<path style="fill:#5D4424;fill-opacity:1" d="M 34 39 L 34 38 L 35 38 L 35 39 L 34 39 " stroke-width="1" fill="undefined"/>
<path style="fill:#D6B89E;fill-opacity:1" d="M 34 39 L 35 39 L 35 40 L 34 40 L 34 39 " stroke-width="1" fill="undefined"/>
<path style="fill:#D1841A;fill-opacity:1" d="M 32 38 L 32 37 L 32.75 37.25 L 33 38 L 32 38 " stroke-width="1" fill="undefined"/>
<path style="fill:#706152;fill-opacity:1" d="M 33 39 L 34 39 L 34 40 L 33 40 L 33 39 " stroke-width="1" fill="undefined"/>
<path style="fill:#CBAF96;fill-opacity:1" d="M 34 40 L 35 40 L 35 41 L 34 41 L 34 40 " stroke-width="1" fill="undefined"/>
<path style="fill:#5F5247;fill-opacity:1" d="M 34 41 L 34 42 L 33 42 L 33 41 L 34 41 " stroke-width="1" fill="undefined"/>
<path style="fill:#95826F;fill-opacity:1" d="M 32 42 L 32 41 L 33 41 L 33 42 L 32 42 " stroke-width="1" fill="undefined"/>
<path style="fill:#352D28;fill-opacity:1" d="M 34 42 L 34 41 L 35 41 L 35 42 L 34 42 " stroke-width="1" fill="undefined"/>
<path style="fill:#0D0B09;fill-opacity:1" d="M 36 42 L 35 42 L 35 41 L 36 41 L 36 42 " stroke-width="1" fill="undefined"/>
<path style="fill:#000000;fill-opacity:0.764706" d="M 34 42 L 35 42 L 35 43 L 34 43 L 34 42 " stroke-width="1" fill="undefined"/>
<path style="fill:#9F8A76;fill-opacity:1" d="M 36 41 L 35 41 L 35 40 L 36 40 L 36 41 " stroke-width="1" fill="undefined"/>
<path style="fill:#000000;fill-opacity:0.784314" d="M 37 42 L 36 42 L 36 41 L 37 41 L 37 42 " stroke-width="1" fill="undefined"/>
<path style="fill:#50453D;fill-opacity:1" d="M 37 41 L 36 41 L 36 40 L 37 40 L 37 41 " stroke-width="1" fill="undefined"/>
<path style="fill:#040301;fill-opacity:0.964706" d="M 37 41 L 37 40 L 38 40 L 38 41 L 37 41 " stroke-width="1" fill="undefined"/>
<path style="fill:#C0A78E;fill-opacity:1" d="M 33 39 L 33 40 L 32.25 39.75 L 32 39 L 33 39 " stroke-width="1" fill="undefined"/>
<path style="fill:#9E8573;fill-opacity:1" d="M 38 40 L 37 40 L 37 39 L 38 39 L 38 40 " stroke-width="1" fill="undefined"/>
<path style="fill:#000000;fill-opacity:0.258824" d="M 35 42 L 36 42 L 35.75 42.75 L 35 43 L 35 42 " stroke-width="1" fill="undefined"/>
<path style="fill:#E7911C;fill-opacity:1" d="M 31 37 L 31 36 Q 31.5 36 31.75 36.25 L 32 37 L 31 37 " stroke-width="1" fill="undefined"/>
<path style="fill:#978370;fill-opacity:1" d="M 31 38 L 30.25 37.75 Q 30 37.5 30 37 L 31 37 L 31 38 " stroke-width="1" fill="undefined"/>
<path style="fill:#9A8570;fill-opacity:1" d="M 32 38 L 32 39 L 31.25 38.75 Q 31 38.5 31 38 L 32 38 " stroke-width="1" fill="undefined"/>
<path style="fill:#61431B;fill-opacity:1" d="M 32 38 L 31 38 L 31 37 L 32 37 L 32 38 " stroke-width="1" fill="undefined"/>
<path style="fill:#342D28;fill-opacity:1" d="M 30 43 L 29 43 L 29 42 L 30 42 L 30 43 " stroke-width="1" fill="undefined"/>
<path style="fill:#52473D;fill-opacity:1" d="M 28 42 L 29 42 L 29 43 L 28 43 L 28 42 " stroke-width="1" fill="undefined"/>
<path style="fill:#C3A991;fill-opacity:1" d="M 31 42 L 31 41 L 32 41 L 32 42 L 31 42 " stroke-width="1" fill="undefined"/>
<path style="fill:#000000;fill-opacity:0.545098" d="M 32 44 L 31 44 L 31 43 L 32 43 L 32 44 " stroke-width="1" fill="undefined"/>
<path style="fill:#000000;fill-opacity:0.67451" d="M 31 43 L 31 44 L 30 44 L 30 43 L 31 43 " stroke-width="1" fill="undefined"/>
<path style="fill:#000000;fill-opacity:0.364706" d="M 33 44 L 32 44 L 32 43 L 33 43 L 33 44 " stroke-width="1" fill="undefined"/>
<path style="fill:#000000;fill-opacity:0.792157" d="M 29 44 L 24 44 L 24 43 L 25 43 L 27 43 L 28 43 L 29 43 L 30 43 L 30 44 L 29 44 " stroke-width="1" fill="undefined"/>
<path style="fill:#000000;fill-opacity:0.121569" d="M 24 44 L 29 44 L 30 44 L 29.9 44.5 L 24 45 L 24 44 " stroke-width="1" fill="undefined"/>
<path style="fill:#000000;fill-opacity:0.0980392" d="M 33 43 L 34 43 L 33.75 43.75 L 33 44 L 33 43 " stroke-width="1" fill="undefined"/>
<path style="fill:#5A4E43;fill-opacity:1" d="M 25 42 L 27 42 L 28 42 L 28 43 L 27 43 L 25 43 L 25 42 " stroke-width="1" fill="undefined"/>
<path style="fill:#000000;fill-opacity:0.133333" d="M 41.95 37 L 42.95 37 L 42.7 37.75 L 41.95 38 L 41.95 37 M 4 22 L 3 22 L 3 21 L 3 20 L 4 20 L 4 21 L 4 22 " stroke-width="1" fill="undefined"/>
<path style="fill:#010000;fill-opacity:0.862745" d="M 40.95 37 L 41.95 37 L 41.95 38 L 40.95 38 L 40.95 37 " stroke-width="1" fill="undefined"/>
<path style="fill:#000000;fill-opacity:0.298039" d="M 40.95 38 L 41.95 38 L 41.7 38.75 L 40.95 39 L 40.95 38 " stroke-width="1" fill="undefined"/>
<path style="fill:#010000;fill-opacity:0.886275" d="M 39.95 38 L 40.95 38 L 40.95 39 L 39.95 39 L 39.95 38 " stroke-width="1" fill="undefined"/>
<path style="fill:#B71432;fill-opacity:1" d="M 38.95 39 L 38 39 L 38 38 L 38.95 38 L 38.95 39 " stroke-width="1" fill="undefined"/>
<path style="fill:#3E000D;fill-opacity:1" d="M 38.95 39 L 38.95 38 L 39.95 38 L 39.95 39 L 38.95 39 " stroke-width="1" fill="undefined"/>
<path style="fill:#000000;fill-opacity:0.960784" d="M 38.95 39 L 39.95 39 L 39.95 40 L 38.95 40 L 38.95 39 " stroke-width="1" fill="undefined"/>
<path style="fill:#D6002D;fill-opacity:1" d="M 38.95 38 L 38 38 L 38 37 L 38.95 37 L 38.95 38 " stroke-width="1" fill="undefined"/>
<path style="fill:#191110;fill-opacity:1" d="M 38 40 L 38 39 L 38.95 39 L 38.95 40 L 38 40 " stroke-width="1" fill="undefined"/>
<path style="fill:#000000;fill-opacity:0.188235" d="M 38.95 40 L 39.95 40 L 39.7 40.75 L 38.95 41 L 38.95 40 M 7 32 L 7 33 L 6.25 32.75 L 6 32 L 7 32 " stroke-width="1" fill="undefined"/>
<path style="fill:#000000;fill-opacity:0.741176" d="M 38 40 L 38.95 40 L 38.95 41 L 38 41 L 38 40 " stroke-width="1" fill="undefined"/>
<path style="fill:#000000;fill-opacity:0.27451" d="M 39.95 39 L 40.95 39 L 40.7 39.75 L 39.95 40 L 39.95 39 M 22 1 L 21 1 L 21 0 L 22 0 L 22 1 " stroke-width="1" fill="undefined"/>
<path style="fill:#611612;fill-opacity:1" d="M 37 37 L 37 36 L 38 36 L 38 37 L 37 37 " stroke-width="1" fill="undefined"/>
<path style="fill:#5B5B5B;fill-opacity:1" d="M 27 24 L 27 23 L 28 23 L 28 24 L 27 24 " stroke-width="1" fill="undefined"/>
<path style="fill:#000000;fill-opacity:0.0705882" d="M 25 0 L 25.75 0.25 L 26 1 L 25 1 L 25 0 " stroke-width="1" fill="undefined"/>
<path style="fill:#130003;fill-opacity:0.898039" d="M 25 1 L 26 1 L 26 2 L 25 2 L 25 1 " stroke-width="1" fill="undefined"/>
<path style="fill:#BF0028;fill-opacity:1" d="M 23 8 L 24 8 L 23.75 8.75 L 23 9 L 23 8 M 26 3 Q 25.5 3 25.25 2.75 Q 25 2.5 25 2 L 26 2 L 26 3 " stroke-width="1" fill="undefined"/>
<path style="fill:#5B0013;fill-opacity:1" d="M 24 2 L 24 1 L 25 1 L 25 2 L 24 2 " stroke-width="1" fill="undefined"/>
<path style="fill:#000000;fill-opacity:0.388235" d="M 26 2 L 26 1 L 27 1 L 27 2 L 26 2 " stroke-width="1" fill="undefined"/>
<path style="fill:#000000;fill-opacity:0.454902" d="M 20 2 L 20 1 L 21 1 L 21 2 L 20 2 M 24 0 L 25 0 L 25 1 L 24 1 L 24 0 " stroke-width="1" fill="undefined"/>
<path style="fill:#6E0017;fill-opacity:0.992157" d="M 26 3 L 26 2 L 27 2 L 27 3 L 26 3 " stroke-width="1" fill="undefined"/>
<path style="fill:#000000;fill-opacity:0.670588" d="M 12 13 L 13 13 L 13 14 L 12 14 L 12 13 M 22 1 L 22 0 L 23 0 L 24 0 L 24 1 L 23 1 L 22 1 " stroke-width="1" fill="undefined"/>
<path style="fill:#770019;fill-opacity:1" d="M 10 37 L 10 36 Q 10.5 36 10.75 36.25 Q 11 36.5 11 37 L 10 37 M 23 2 L 23 1 L 24 1 L 24 2 L 23 2 " stroke-width="1" fill="undefined"/>
<path style="fill:#4C0010;fill-opacity:1" d="M 27 21 L 26 21 L 26 20 L 27 20 L 27 21 M 23 1 L 23 2 L 22 2 L 22 1 L 23 1 " stroke-width="1" fill="undefined"/>
<path style="fill:#C20029;fill-opacity:1" d="M 22 5 L 22 4 L 22.75 4.25 L 23 5 L 22 5 " stroke-width="1" fill="undefined"/>
<path style="fill:#000000;fill-opacity:0.815686" d="M 21 4 L 20 4 L 20 3 L 20 2 L 21 2 L 21 3 L 21 4 " stroke-width="1" fill="undefined"/>
<path style="fill:#070000;fill-opacity:0.992157" d="M 22 1 L 22 2 L 21 2 L 21 1 L 22 1 " stroke-width="1" fill="undefined"/>
<path style="fill:#790019;fill-opacity:1" d="M 22 3 L 21 3 L 21 2 L 22 2 L 22 3 " stroke-width="1" fill="undefined"/>
<path style="fill:#020000;fill-opacity:0.419608" d="M 19 5 L 19 4 L 20 4 L 20 5 L 19 5 " stroke-width="1" fill="undefined"/>
<path style="fill:#030000;fill-opacity:0.486275" d="M 17 4 L 18 4 L 19 4 L 19 5 L 18 5 L 17 5 L 17 4 " stroke-width="1" fill="undefined"/>
<path style="fill:#030000;fill-opacity:0.678431" d="M 21 4 L 21 5 L 20 5 L 20 4 L 21 4 " stroke-width="1" fill="undefined"/>
<path style="fill:#86001C;fill-opacity:1" d="M 21 6 L 20 6 L 20 5 L 21 5 L 21 6 " stroke-width="1" fill="undefined"/>
<path style="fill:#290009;fill-opacity:1" d="M 22 4 L 22 5 L 21 5 L 21 4 L 22 4 " stroke-width="1" fill="undefined"/>
<path style="fill:#A90023;fill-opacity:1" d="M 21 4 L 21 3 L 22 3 L 22 4 L 21 4 " stroke-width="1" fill="undefined"/>
<path style="fill:#540011;fill-opacity:0.996078" d="M 21 6 L 21 5 L 22 5 L 22 6 L 21 6 " stroke-width="1" fill="undefined"/>
<path style="fill:#A00021;fill-opacity:1" d="M 19 5 L 20 5 L 20 6 L 19 6 L 19 5 " stroke-width="1" fill="undefined"/>
<path style="fill:#9A0020;fill-opacity:1" d="M 22 6 L 23 6 L 23 7 Q 22.5 7 22.25 6.75 L 22 6 " stroke-width="1" fill="undefined"/>
<path style="fill:#D4002B;fill-opacity:1" d="M 20 6 L 21 6 L 22 6 L 22.25 6.75 Q 22.5 7 23 7 L 24 7 L 24 8 L 23 8 L 22 8 L 21 8 L 20 8 L 19 8 L 18 8 L 17 8 L 16 8 Q 16 7.5 15.75 7.25 L 15 7 L 15 6 L 16 6 L 17 6 L 18 6 L 19 6 L 20 6 " stroke-width="1" fill="undefined"/>
<path style="fill:#A50022;fill-opacity:1" d="M 22 9 L 21 9 L 21 8 L 22 8 L 22 9 " stroke-width="1" fill="undefined"/>
<path style="fill:#97001F;fill-opacity:1" d="M 20 9 L 19 9 L 19 8 L 20 8 L 21 8 L 21 9 L 20 9 " stroke-width="1" fill="undefined"/>
<path style="fill:#2C0009;fill-opacity:1" d="M 19 9 L 19 10 L 18 10 L 18 9 L 19 9 " stroke-width="1" fill="undefined"/>
<path style="fill:#030000;fill-opacity:0.968627" d="M 17 9 L 18 9 L 18 10 L 17 10 L 17 9 " stroke-width="1" fill="undefined"/>
<path style="fill:#87001D;fill-opacity:1" d="M 20 10 L 19 10 L 19 9 L 20 9 L 20 10 " stroke-width="1" fill="undefined"/>
<path style="fill:#720019;fill-opacity:1" d="M 17 10 L 18 10 Q 18 10.5 17.75 10.75 Q 17.5 11 17 11 L 17 10 " stroke-width="1" fill="undefined"/>
<path style="fill:#BE0028;fill-opacity:1" d="M 20 9 L 21 9 L 22 9 L 22 10 L 21 10 L 20 10 L 20 9 M 23 22 L 23 23 Q 22.5 23 22.4 22.8 Q 22 22 22 21 L 23 21 L 23 22 " stroke-width="1" fill="undefined"/>
<path style="fill:#AE0024;fill-opacity:1" d="M 22 8 L 23 8 L 23 9 L 22 9 L 22 8 " stroke-width="1" fill="undefined"/>
<path style="fill:#780018;fill-opacity:1" d="M 17 8 L 18 8 L 18 9 L 17 9 L 17 8 " stroke-width="1" fill="undefined"/>
<path style="fill:#37000D;fill-opacity:1" d="M 25 7 L 26 7 L 26 8 L 25 8 L 25 7 " stroke-width="1" fill="undefined"/>
<path style="fill:#A00020;fill-opacity:1" d="M 27 9 Q 26.5 9 26.25 8.75 Q 26 8.5 26 8 L 27 8 L 27 9 " stroke-width="1" fill="undefined"/>
<path style="fill:#43000E;fill-opacity:1" d="M 23 7 L 23 6 L 24 6 L 24 7 L 23 7 " stroke-width="1" fill="undefined"/>
<path style="fill:#47000F;fill-opacity:1" d="M 24 22 L 24 23 L 23 23 L 23 22 L 24 22 M 22 6 L 22 5 L 23 5 L 23 6 L 22 6 " stroke-width="1" fill="undefined"/>
<path style="fill:#000000;fill-opacity:0.137255" d="M 14 6 L 13 6 L 13 5 L 14 5 L 14 6 " stroke-width="1" fill="undefined"/>
<path style="fill:#000000;fill-opacity:0.0509804" d="M 3 27 L 2.25 26.75 L 2 26 L 3 26 L 3 27 M 14 5 L 14 4 L 15 4 L 15 5 L 14 5 " stroke-width="1" fill="undefined"/>
<path style="fill:#000000;fill-opacity:0.172549" d="M 16 5 L 15 5 L 15 4 L 16 4 L 16 5 " stroke-width="1" fill="undefined"/>
<path style="fill:#5A0013;fill-opacity:0.976471" d="M 16 6 L 15 6 L 15 5 L 16 5 L 16 6 " stroke-width="1" fill="undefined"/>
<path style="fill:#020000;fill-opacity:0.411765" d="M 16 4 L 17 4 L 17 5 L 16 5 L 16 4 " stroke-width="1" fill="undefined"/>
<path style="fill:#95001F;fill-opacity:1" d="M 16 5 L 17 5 L 17 6 L 16 6 L 16 5 " stroke-width="1" fill="undefined"/>
<path style="fill:#060001;fill-opacity:0.639216" d="M 14 5 L 15 5 L 15 6 L 14 6 L 14 5 " stroke-width="1" fill="undefined"/>
<path style="fill:#C3002A;fill-opacity:1" d="M 15 8 L 15 7 L 15.75 7.25 Q 16 7.5 16 8 L 15 8 " stroke-width="1" fill="undefined"/>
<path style="fill:#520011;fill-opacity:0.929412" d="M 17 9 L 16 9 L 16 8 L 17 8 L 17 9 " stroke-width="1" fill="undefined"/>
<path style="fill:#610014;fill-opacity:0.992157" d="M 15 8 L 14 8 L 14 7 L 14 6 L 15 6 L 15 7 L 15 8 " stroke-width="1" fill="undefined"/>
<path style="fill:#1E0006;fill-opacity:0.780392" d="M 15 8 L 16 8 L 16 9 L 15 9 L 15 8 " stroke-width="1" fill="undefined"/>
<path style="fill:#000000;fill-opacity:0.623529" d="M 14 6 L 14 7 L 13 7 L 13 6 L 14 6 " stroke-width="1" fill="undefined"/>
<path style="fill:#000000;fill-opacity:0.733333" d="M 13 8 L 13 7 L 14 7 L 14 8 L 13 8 M 23 44 L 23 43 L 24 43 L 24 44 L 23 44 " stroke-width="1" fill="undefined"/>
<path style="fill:#000000;fill-opacity:0.2" d="M 14 9 L 13.25 8.75 L 13 8 L 14 8 L 14 9 " stroke-width="1" fill="undefined"/>
<path style="fill:#000000;fill-opacity:0.0784314" d="M 17 43 L 16.25 42.75 L 16 42 L 17 42 L 17 43 M 14 11 L 14 10 L 15 10 L 15 11 L 14 11 " stroke-width="1" fill="undefined"/>
<path style="fill:#000000;fill-opacity:0.584314" d="M 15 10 L 16 10 L 16 11 L 15 11 L 15 10 " stroke-width="1" fill="undefined"/>
<path style="fill:#34000A;fill-opacity:0.992157" d="M 15 11 L 16 11 L 16 12 L 15 12 L 15 11 " stroke-width="1" fill="undefined"/>
<path style="fill:#160004;fill-opacity:1" d="M 16 10 L 17 10 L 17 11 L 16 11 L 16 10 " stroke-width="1" fill="undefined"/>
<path style="fill:#000000;fill-opacity:0.541176" d="M 16 9 L 17 9 L 17 10 L 16 10 L 16 9 " stroke-width="1" fill="undefined"/>
<path style="fill:#9E0020;fill-opacity:1" d="M 16 11 L 17 11 Q 17 11.5 16.75 11.75 Q 16.5 12 16 12 L 16 11 " stroke-width="1" fill="undefined"/>
<path style="fill:#010000;fill-opacity:0.576471" d="M 15 9 L 14 9 L 14 8 L 15 8 L 15 9 " stroke-width="1" fill="undefined"/>
<path style="fill:#000000;fill-opacity:0.658824" d="M 14 11 L 15 11 L 15 12 L 14 12 L 14 11 " stroke-width="1" fill="undefined"/>
<path style="fill:#3E000D;fill-opacity:0.984314" d="M 14 12 L 15 12 L 15 13 L 14 13 L 14 12 " stroke-width="1" fill="undefined"/>
<path style="fill:#000000;fill-opacity:0.690196" d="M 23 43 L 23 44 L 22 44 L 22 43 L 23 43 M 14 12 L 14 13 L 13 13 L 13 12 L 14 12 M 14 40 L 14 41 L 13 41 L 13 40 L 14 40 " stroke-width="1" fill="undefined"/>
<path style="fill:#B90027;fill-opacity:1" d="M 13 14 L 14 14 Q 14 14.5 13.75 14.75 Q 13.5 15 13 15 L 13 14 M 21 30 L 22 30 Q 22 30.5 21.75 30.75 L 21 31 L 21 30 " stroke-width="1" fill="undefined"/>
<path style="fill:#BA0027;fill-opacity:1" d="M 12 15 L 13 15 Q 13 15.5 12.75 15.75 Q 12.5 16 12 16 L 12 15 M 16.25 30.75 L 16 30 Q 16.5 30 16.75 30.25 Q 17 30.5 17 31 L 16.25 30.75 " stroke-width="1" fill="undefined"/>
<path style="fill:#35000B;fill-opacity:0.984314" d="M 12 14 L 13 14 L 13 15 L 12 15 L 12 14 " stroke-width="1" fill="undefined"/>
<path style="fill:#000000;fill-opacity:0.0666667" d="M 1 21 L 1 20 L 1.75 20.25 L 2 21 L 1 21 M 11 14 L 11 13 L 12 13 L 12 14 L 11 14 " stroke-width="1" fill="undefined"/>
<path style="fill:#000000;fill-opacity:0.533333" d="M 11 14 L 12 14 L 12 15 L 11 15 L 11 14 " stroke-width="1" fill="undefined"/>
<path style="fill:#000000;fill-opacity:0.0431373" d="M 11 15 L 10 15 L 10 14 L 11 14 L 11 15 " stroke-width="1" fill="undefined"/>
<path style="fill:#000000;fill-opacity:0.0627451" d="M 24 44 L 24 45 L 23.25 44.75 L 23 44 L 24 44 M 9 17 L 9 16 L 10 16 L 10 17 L 9 17 " stroke-width="1" fill="undefined"/>
<path style="fill:#1B0005;fill-opacity:0.945098" d="M 11 15 L 12 15 L 12 16 L 11 16 L 11 15 " stroke-width="1" fill="undefined"/>
<path style="fill:#000000;fill-opacity:0.290196" d="M 11 15 L 11 16 L 10 16 L 10 15 L 11 15 " stroke-width="1" fill="undefined"/>
<path style="fill:#080001;fill-opacity:0.827451" d="M 10 16 L 11 16 L 11 17 L 10 17 L 10 16 " stroke-width="1" fill="undefined"/>
<path style="fill:#510011;fill-opacity:1" d="M 10 18 L 10 17 L 11 17 L 11 18 L 10 18 " stroke-width="1" fill="undefined"/>
<path style="fill:#000000;fill-opacity:0.572549" d="M 8 20 L 8 19 L 9 19 L 9 20 L 8 20 M 9 18 L 9 17 L 10 17 L 10 18 L 9 18 " stroke-width="1" fill="undefined"/>
<path style="fill:#090001;fill-opacity:0.92549" d="M 10 18 L 10 19 L 9 19 L 9 18 L 10 18 " stroke-width="1" fill="undefined"/>
<path style="fill:#750018;fill-opacity:0.996078" d="M 9 20 L 9 19 L 10 19 L 10 20 L 9 20 " stroke-width="1" fill="undefined"/>
<path style="fill:#000000;fill-opacity:0.235294" d="M 9 19 L 8 19 L 8 18 L 9 18 L 9 19 " stroke-width="1" fill="undefined"/>
<path style="fill:#160004;fill-opacity:0.835294" d="M 8 20 L 9 20 L 9 21 L 8 21 L 8 20 " stroke-width="1" fill="undefined"/>
<path style="fill:#5E0014;fill-opacity:0.996078" d="M 8 22 L 8 21 L 9 21 L 9 22 L 8 22 " stroke-width="1" fill="undefined"/>
<path style="fill:#92001F;fill-opacity:1" d="M 8 23 L 8 22 L 9 22 L 9 23 L 8 23 " stroke-width="1" fill="undefined"/>
<path style="fill:#020202;fill-opacity:0.572549" d="M 7 22 L 7 21 L 8 21 L 8 22 L 7 22 " stroke-width="1" fill="undefined"/>
<path style="fill:#C00029;fill-opacity:1" d="M 9 20 L 10 20 Q 10 20.5 9.75 20.75 Q 9.5 21 9 21 L 9 20 " stroke-width="1" fill="undefined"/>
<path style="fill:#B80027;fill-opacity:1" d="M 8 23 L 9 23 Q 9 23.5 8.75 23.75 L 8 24 L 8 23 M 22 28 L 22 29 L 21.25 28.75 L 21 28 L 22 28 " stroke-width="1" fill="undefined"/>
<path style="fill:#120307;fill-opacity:0.972549" d="M 7 23 L 7 22 L 8 22 L 8 23 L 7 23 " stroke-width="1" fill="undefined"/>
<path style="fill:#000000;fill-opacity:0.145098" d="M 8 35 L 8 36 L 7.25 35.75 L 7 35 L 8 35 M 7 20 L 8 20 L 8 21 L 7 21 L 7 20 " stroke-width="1" fill="undefined"/>
<path style="fill:#B70027;fill-opacity:1" d="M 25 19 L 25.75 19.25 L 26 20 L 25 20 L 25 19 " stroke-width="1" fill="undefined"/>
<path style="fill:#1E0006;fill-opacity:1" d="M 26 21 Q 25.5 21 25.25 20.75 Q 25 20.5 25 20 L 26 20 L 26 21 " stroke-width="1" fill="undefined"/>
<path style="fill:#A20021;fill-opacity:1" d="M 24 20 L 23 20 L 23 19 L 24 19 L 24 20 " stroke-width="1" fill="undefined"/>
<path style="fill:#4F0011;fill-opacity:1" d="M 23 21 L 23 20 L 24 20 L 24 21 L 23 21 " stroke-width="1" fill="undefined"/>
<path style="fill:#36000B;fill-opacity:1" d="M 24 21 L 24 22 L 23 22 L 23 21 L 24 21 " stroke-width="1" fill="undefined"/>
<path style="fill:#1D0006;fill-opacity:1" d="M 25 23 L 24 23 L 24 22 L 25 22 L 25 23 " stroke-width="1" fill="undefined"/>
<path style="fill:#5C5254;fill-opacity:1" d="M 27 24 L 26 24 L 26 23 L 27 23 L 27 24 " stroke-width="1" fill="undefined"/>
<path style="fill:#71061D;fill-opacity:1" d="M 25 23 L 26 23 L 26 24 L 25 24 L 25 23 " stroke-width="1" fill="undefined"/>
<path style="fill:#B00024;fill-opacity:1" d="M 24 26 L 24 25 L 25 25 L 25 26 L 24 26 M 25 24 L 24.25 23.75 Q 24 23.5 24 23 L 25 23 L 25 24 " stroke-width="1" fill="undefined"/>
<path style="fill:#020202;fill-opacity:0.407843" d="M 0 23 L 0 22 L 1 22 L 1 23 L 0 23 " stroke-width="1" fill="undefined"/>
<path style="fill:#080808;fill-opacity:0.745098" d="M 0 24 L 0 23 L 1 23 L 1 24 L 0 24 " stroke-width="1" fill="undefined"/>
<path style="fill:#090909;fill-opacity:0.784314" d="M 2 21 L 2 22 L 1 22 L 1 21 L 2 21 " stroke-width="1" fill="undefined"/>
<path style="fill:#0F0F0F;fill-opacity:0.996078" d="M 3 22 L 4 22 L 4.25 22.75 L 5 23 L 5 24 L 4 24 L 3 24 L 2 24 L 1 24 L 1 23 L 1 22 L 2 22 L 3 22 M 4 27 L 4 26 L 5 26 L 5 27 L 4 27 " stroke-width="1" fill="undefined"/>
<path style="fill:#060606;fill-opacity:0.627451" d="M 3 22 L 2 22 L 2 21 L 3 21 L 3 22 " stroke-width="1" fill="undefined"/>
<path style="fill:#000000;fill-opacity:0.0901961" d="M 5 27 L 6 27 L 6 28 L 5 28 L 5 27 M 5 19 L 5 18 L 5.75 18.25 Q 6 18.5 6 19 L 5 19 " stroke-width="1" fill="undefined"/>
<path style="fill:#000000;fill-opacity:0.184314" d="M 6 19 L 6.75 19.25 Q 7 19.5 7 20 L 6 20 L 6 19 " stroke-width="1" fill="undefined"/>
<path style="fill:#070707;fill-opacity:0.678431" d="M 6 20 L 7 20 L 7 21 L 6.25 20.75 L 6 20 " stroke-width="1" fill="undefined"/>
<path style="fill:#0C0C0C;fill-opacity:0.870588" d="M 6 20 L 5 20 L 5 19 L 6 19 L 6 20 " stroke-width="1" fill="undefined"/>
<path style="fill:#0F0F0F;fill-opacity:0.992157" d="M 6 22 L 5 22 L 5 21 L 5 20 L 6 20 L 6.25 20.75 L 7 21 L 7 22 L 6 22 " stroke-width="1" fill="undefined"/>
<path style="fill:#020202;fill-opacity:0.392157" d="M 4 20 L 4 19 L 5 19 L 5 20 L 4 20 " stroke-width="1" fill="undefined"/>
<path style="fill:#030303;fill-opacity:0.482353" d="M 4 22 L 4 21 L 5 21 L 5 22 L 4 22 M 5 25 L 5 26 L 4 26 L 4 25 L 5 25 " stroke-width="1" fill="undefined"/>
<path style="fill:#060606;fill-opacity:0.643137" d="M 5 22 L 5 23 L 4.25 22.75 L 4 22 L 5 22 " stroke-width="1" fill="undefined"/>
<path style="fill:#0E0E0E;fill-opacity:0.945098" d="M 6 22 L 7 22 L 7 23 L 6 23 L 6 22 " stroke-width="1" fill="undefined"/>
<path style="fill:#0B0B0B;fill-opacity:0.898039" d="M 6 23 L 7 23 L 7 24 L 6 24 L 6 23 " stroke-width="1" fill="undefined"/>
<path style="fill:#070707;fill-opacity:0.67451" d="M 5 22 L 6 22 L 6 23 L 5 23 L 5 22 " stroke-width="1" fill="undefined"/>
<path style="fill:#0D0D0D;fill-opacity:0.921569" d="M 6 24 L 5 24 L 5 23 L 6 23 L 6 24 " stroke-width="1" fill="undefined"/>
<path style="fill:#0D0D0D;fill-opacity:0.937255" d="M 4 21 L 4 20 L 5 20 L 5 21 L 4 21 " stroke-width="1" fill="undefined"/>
<path style="fill:#3A000C;fill-opacity:1" d="M 7 25 L 7 24 L 8 24 L 8 25 L 7 25 " stroke-width="1" fill="undefined"/>
<path style="fill:#0C0C0C;fill-opacity:1" d="M 6 25 L 6 24 L 7 24 L 7 25 L 6 25 " stroke-width="1" fill="undefined"/>
<path style="fill:#0E0E0E;fill-opacity:0.952941" d="M 6 24 L 6 25 L 5 25 L 5 24 L 6 24 " stroke-width="1" fill="undefined"/>
<path style="fill:#060606;fill-opacity:0.882353" d="M 6 26 L 6 25 L 7 25 L 7 26 L 6 26 " stroke-width="1" fill="undefined"/>
<path style="fill:#0A0A0A;fill-opacity:0.839216" d="M 4 25 L 4 24 L 5 24 L 5 25 L 4 25 M 3 26 L 4 26 L 4 27 L 3 27 L 3 26 " stroke-width="1" fill="undefined"/>
<path style="fill:#020202;fill-opacity:0.8" d="M 6 27 L 6 26 L 7 26 L 7 27 L 6 27 " stroke-width="1" fill="undefined"/>
<path style="fill:#060606;fill-opacity:0.658824" d="M 5 26 L 5 25 L 6 25 L 6 26 L 5 26 " stroke-width="1" fill="undefined"/>
<path style="fill:#090909;fill-opacity:0.772549" d="M 5 27 L 5 26 L 6 26 L 6 27 L 5 27 " stroke-width="1" fill="undefined"/>
<path style="fill:#070707;fill-opacity:0.709804" d="M 4 25 L 3 25 L 3 24 L 4 24 L 4 25 " stroke-width="1" fill="undefined"/>
<path style="fill:#040404;fill-opacity:0.517647" d="M 2 24 L 3 24 L 3 25 L 2 25 L 2 24 " stroke-width="1" fill="undefined"/>
<path style="fill:#050505;fill-opacity:0.584314" d="M 5 27 L 5 28 L 4.1 27.8 L 3 27 L 4 27 L 5 27 " stroke-width="1" fill="undefined"/>
<path style="fill:#000000;fill-opacity:0.752941" d="M 7 30 L 6 30 L 6 29 L 6 28 L 6 27 L 7 27 L 7 28 L 7 29 L 7 30 " stroke-width="1" fill="undefined"/>
<path style="fill:#000000;fill-opacity:0.0862745" d="M 1 24 L 1 25 L 0.25 24.75 L 0 24 L 1 24 " stroke-width="1" fill="undefined"/>
<path style="fill:#000000;fill-opacity:0.25098" d="M 1 24 L 2 24 L 2 25 L 1 25 L 1 24 " stroke-width="1" fill="undefined"/>
<path style="fill:#000000;fill-opacity:0.635294" d="M 7 30 L 7 31 L 6 31 L 6 30 L 7 30 " stroke-width="1" fill="undefined"/>
<path style="fill:#6D0016;fill-opacity:1" d="M 8 30 L 8 31 L 7 31 L 7 30 L 8 30 " stroke-width="1" fill="undefined"/>
<path style="fill:#230008;fill-opacity:1" d="M 8 32 L 8 33 L 7 33 L 7 32 L 8 32 " stroke-width="1" fill="undefined"/>
<path style="fill:#470010;fill-opacity:1" d="M 8 31 L 8 32 L 7 32 L 7 31 L 8 31 " stroke-width="1" fill="undefined"/>
<path style="fill:#000000;fill-opacity:0.443137" d="M 7 35 L 7 34 L 8 34 L 8 35 L 7 35 " stroke-width="1" fill="undefined"/>
<path style="fill:#080000;fill-opacity:0.854902" d="M 8 34 L 7 34 L 7 33 L 8 33 L 8 34 " stroke-width="1" fill="undefined"/>
<path style="fill:#88001D;fill-opacity:1" d="M 7 30 L 7 29 L 8 29 L 8 30 L 7 30 " stroke-width="1" fill="undefined"/>
<path style="fill:#D7D6D6;fill-opacity:1" d="M 26 25 L 26 24 L 27 24 L 27 25 L 26 25 " stroke-width="1" fill="undefined"/>
<path style="fill:#882D40;fill-opacity:1" d="M 25 25 L 25 24 L 26 24 L 26 25 L 25 25 " stroke-width="1" fill="undefined"/>
<path style="fill:#754952;fill-opacity:1" d="M 25 25 L 26 25 L 26 26 L 25 26 L 25 25 " stroke-width="1" fill="undefined"/>
<path style="fill:#67484E;fill-opacity:1" d="M 26 27 L 25 27 L 25 26 L 26 26 L 26 27 " stroke-width="1" fill="undefined"/>
<path style="fill:#F4F4F4;fill-opacity:1" d="M 26 27 L 26 26 L 27 26 L 27 27 L 26 27 " stroke-width="1" fill="undefined"/>
<path style="fill:#C40029;fill-opacity:1" d="M 19 32 L 18.25 31.75 L 18 31 Q 18.5 31 18.75 31.25 Q 19 31.5 19 32 M 19 26 L 19 25 Q 19.5 25 19.75 25.25 Q 20 25.5 20 26 L 19 26 M 24 27 L 23 27 L 23 26 L 24 26 L 24 27 " stroke-width="1" fill="undefined"/>
<path style="fill:#B20024;fill-opacity:1" d="M 24 31 L 23 31 L 23 30 L 23 27 L 24 27 L 24 30 L 24 31 " stroke-width="1" fill="undefined"/>
<path style="fill:#CBCBCB;fill-opacity:1" d="M 26 28 L 26 27 L 27 27 L 27 28 L 26 28 " stroke-width="1" fill="undefined"/>
<path style="fill:#5C2832;fill-opacity:1" d="M 26 28 L 25 28 L 25 27 L 26 27 L 26 28 " stroke-width="1" fill="undefined"/>
<path style="fill:#A70022;fill-opacity:1" d="M 24 32 L 24 31 L 24 30 L 24 27 L 24 26 L 25 26 L 25 27 L 25 28 L 25 29 Q 25 29.5 25.25 29.75 L 26 30 L 27 30 L 27 31 L 27 32 L 26 32 L 25 32 L 24 32 " stroke-width="1" fill="undefined"/>
<path style="fill:#6C0119;fill-opacity:1" d="M 26 29 L 25 29 L 25 28 L 26 28 L 26 29 " stroke-width="1" fill="undefined"/>
<path style="fill:#9B0020;fill-opacity:1" d="M 26 29 L 26 30 L 25.25 29.75 Q 25 29.5 25 29 L 26 29 " stroke-width="1" fill="undefined"/>
<path style="fill:#665F61;fill-opacity:1" d="M 26 29 L 26 28 L 27 28 L 27 29 L 26 29 " stroke-width="1" fill="undefined"/>
<path style="fill:#540114;fill-opacity:1" d="M 27 30 L 26 30 L 26 29 L 27 29 L 27 30 " stroke-width="1" fill="undefined"/>
<path style="fill:#A90022;fill-opacity:1" d="M 19 32 Q 19 31.5 18.75 31.25 Q 18.5 31 18 31 L 18 30 L 18 27 L 18.75 26.75 Q 19 26.5 19 26 L 20 26 Q 20.5 26 20.75 26.25 Q 21 26.5 21 27 L 21 28 L 21.25 28.75 L 22 29 L 22 30 L 21 30 L 21 31 Q 21 31.5 20.75 31.75 L 20 32 L 19 32 " stroke-width="1" fill="undefined"/>
<path style="fill:#C00028;fill-opacity:1" d="M 18.75 26.75 L 18 27 L 18 26 L 19 26 Q 19 26.5 18.75 26.75 " stroke-width="1" fill="undefined"/>
<path style="fill:#DC656C;fill-opacity:1" d="M 20 33 L 21 33 L 21 34 L 20 34 L 20 33 " stroke-width="1" fill="undefined"/>
<path style="fill:#D82142;fill-opacity:1" d="M 23 33 L 22 33 L 22 32 L 23 32 L 23 33 " stroke-width="1" fill="undefined"/>
<path style="fill:#E0AB99;fill-opacity:1" d="M 22 34 L 21 34 L 21 33 L 22 33 L 22 34 " stroke-width="1" fill="undefined"/>
<path style="fill:#DE7D7B;fill-opacity:1" d="M 18 34 L 19 34 L 19 35 L 18 35 L 18 34 " stroke-width="1" fill="undefined"/>
<path style="fill:#D92E4A;fill-opacity:1" d="M 17 34 L 18 34 L 18 35 L 17 35 L 17 34 " stroke-width="1" fill="undefined"/>
<path style="fill:#E1BBA2;fill-opacity:1" d="M 19 34 L 20 34 L 19.75 34.75 L 19 35 L 19 34 " stroke-width="1" fill="undefined"/>
<path style="fill:#E1B09C;fill-opacity:1" d="M 17 35 L 18 35 Q 18 35.5 17.75 35.75 L 17 36 L 17 35 " stroke-width="1" fill="undefined"/>
<path style="fill:#D71539;fill-opacity:1" d="M 20 33 L 20 34 L 19 34 L 19 33 L 20 33 " stroke-width="1" fill="undefined"/>
<path style="fill:#E2BBA2;fill-opacity:1" d="M 22.75 33.75 L 22 34 L 22 33 L 23 33 L 22.75 33.75 " stroke-width="1" fill="undefined"/>
<path style="fill:#C9585F;fill-opacity:1" d="M 26 33 L 25 33 L 25 32 L 26 32 L 27 32 L 27 33 L 26 33 " stroke-width="1" fill="undefined"/>
<path style="fill:#D14557;fill-opacity:1" d="M 24 33 L 24 32 L 25 32 L 25 33 L 24 33 " stroke-width="1" fill="undefined"/>
<path style="fill:#D9354D;fill-opacity:1" d="M 23 33 L 23 32 L 24 32 L 24 33 L 23 33 " stroke-width="1" fill="undefined"/>
<path style="fill:#AC0023;fill-opacity:1" d="M 14.75 32.25 Q 14.5 32 14 32 L 14 31 L 14 30 L 14 29 L 15.8 29.4 Q 16 29.5 16 30 L 16.25 30.75 L 17 31 L 17 32 L 16 32 L 16 33 L 15 33 Q 15 32.5 14.75 32.25 " stroke-width="1" fill="undefined"/>
<path style="fill:#8D001D;fill-opacity:1" d="M 8 33 L 9 33 L 9 34 L 8 34 L 8 33 " stroke-width="1" fill="undefined"/>
<path style="fill:#030000;fill-opacity:0.827451" d="M 9 35 L 9 36 L 8 36 L 8 35 L 9 35 " stroke-width="1" fill="undefined"/>
<path style="fill:#3F000D;fill-opacity:0.992157" d="M 9 34 L 9 35 L 8 35 L 8 34 L 9 34 " stroke-width="1" fill="undefined"/>
<path style="fill:#000000;fill-opacity:0.419608" d="M 9 37 L 8.25 36.75 L 8 36 L 9 36 L 9 37 " stroke-width="1" fill="undefined"/>
<path style="fill:#010000;fill-opacity:0.972549" d="M 9 36 L 10 36 L 10 37 L 9 37 L 9 36 " stroke-width="1" fill="undefined"/>
<path style="fill:#D71438;fill-opacity:1" d="M 16 36 L 15 36 L 15 35 L 16 35 L 16 36 " stroke-width="1" fill="undefined"/>
<path style="fill:#E2B09B;fill-opacity:1" d="M 16 36 Q 16 36.5 15.75 36.75 L 15 37 L 15 36 L 16 36 " stroke-width="1" fill="undefined"/>
<path style="fill:#DE7375;fill-opacity:1" d="M 17 35 L 17 36 L 16 36 L 16 35 L 17 35 " stroke-width="1" fill="undefined"/>
<path style="fill:#D70831;fill-opacity:1" d="M 17 35 L 16 35 L 16 34 L 17 34 L 17 35 " stroke-width="1" fill="undefined"/>
<path style="fill:#D92C49;fill-opacity:1" d="M 15 37 L 14 37 L 14 36 L 15 36 L 15 37 " stroke-width="1" fill="undefined"/>
<path style="fill:#DA364E;fill-opacity:1" d="M 14 38 L 13 38 L 13 37 L 14 37 L 14 38 " stroke-width="1" fill="undefined"/>
<path style="fill:#BA897B;fill-opacity:1" d="M 13 39 L 13 38 L 14 38 L 14 39 L 13 39 " stroke-width="1" fill="undefined"/>
<path style="fill:#480211;fill-opacity:1" d="M 13 39 L 12 39 L 12 38 L 13 38 L 13 39 " stroke-width="1" fill="undefined"/>
<path style="fill:#110E0D;fill-opacity:1" d="M 13 39 L 14 39 L 14 40 L 13 40 L 13 39 " stroke-width="1" fill="undefined"/>
<path style="fill:#E1A695;fill-opacity:1" d="M 15 37 Q 15 37.5 14.75 37.75 L 14 38 L 14 37 L 15 37 " stroke-width="1" fill="undefined"/>
<path style="fill:#000000;fill-opacity:0.294118" d="M 15 41 L 15 42 L 14 42 L 14 41 L 15 41 " stroke-width="1" fill="undefined"/>
<path style="fill:#000000;fill-opacity:0.92549" d="M 14 41 L 14 40 L 15 40 L 15 41 L 14 41 " stroke-width="1" fill="undefined"/>
<path style="fill:#27211D;fill-opacity:1" d="M 16 41 L 15 41 L 15 40 L 16 40 L 16 41 " stroke-width="1" fill="undefined"/>
<path style="fill:#000000;fill-opacity:0.643137" d="M 16 42 L 15 42 L 15 41 L 16 41 L 16 42 " stroke-width="1" fill="undefined"/>
<path style="fill:#000000;fill-opacity:0.937255" d="M 17 41 L 17 42 L 16 42 L 16 41 L 17 41 " stroke-width="1" fill="undefined"/>
<path style="fill:#191613;fill-opacity:1" d="M 17 42 L 17 41 L 18 41 L 18 42 L 17 42 " stroke-width="1" fill="undefined"/>
<path style="fill:#7B6A5B;fill-opacity:1" d="M 17 41 L 16 41 L 16 40 L 17 40 L 17 41 " stroke-width="1" fill="undefined"/>
<path style="fill:#B19983;fill-opacity:1" d="M 18 41 L 17 41 L 17 40 L 18 40 L 18 41 " stroke-width="1" fill="undefined"/>
<path style="fill:#7B6B5C;fill-opacity:1" d="M 14 40 L 14 39 Q 14.5 39 14.75 39.25 Q 15 39.5 15 40 L 14 40 " stroke-width="1" fill="undefined"/>
<path style="fill:#000000;fill-opacity:0.964706" d="M 12 40 L 12 39 L 13 39 L 13 40 L 12 40 " stroke-width="1" fill="undefined"/>
<path style="fill:#0D0001;fill-opacity:0.972549" d="M 10 37 L 11 37 L 11 38 L 10 38 L 10 37 " stroke-width="1" fill="undefined"/>
<path style="fill:#0A0000;fill-opacity:0.960784" d="M 11 39 L 11 38 L 12 38 L 12 39 L 11 39 " stroke-width="1" fill="undefined"/>
<path style="fill:#000000;fill-opacity:0.505882" d="M 11 39 L 10.25 38.75 L 10 38 L 11 38 L 11 39 " stroke-width="1" fill="undefined"/>
<path style="fill:#000000;fill-opacity:0.372549" d="M 12 40 L 11.25 39.75 L 11 39 L 12 39 L 12 40 " stroke-width="1" fill="undefined"/>
<path style="fill:#780019;fill-opacity:1" d="M 11 38 L 11 37 Q 11.5 37 11.75 37.25 Q 12 37.5 12 38 L 11 38 " stroke-width="1" fill="undefined"/>
<path style="fill:#000000;fill-opacity:0.560784" d="M 10 37 L 10 38 L 9.25 37.75 L 9 37 L 10 37 " stroke-width="1" fill="undefined"/>
<path style="fill:#000000;fill-opacity:0.47451" d="M 18 42 L 18 43 L 17 43 L 17 42 L 18 42 " stroke-width="1" fill="undefined"/>
<path style="fill:#241F1C;fill-opacity:1" d="M 24 43 L 23 43 L 23 42 L 24 42 L 24 43 " stroke-width="1" fill="undefined"/>
<path style="fill:#494037;fill-opacity:1" d="M 25 43 L 24 43 L 24 42 L 25 42 L 25 43 " stroke-width="1" fill="undefined"/>
<path style="fill:#DDBFA3;fill-opacity:1" d="M 22 42 L 22 41 Q 22.5 41 22.75 41.25 L 23 42 L 22 42 " stroke-width="1" fill="undefined"/>
<path style="fill:#D3B69C;fill-opacity:1" d="M 18 41 L 18 40 Q 18.5 40 18.75 40.25 Q 19 40.5 19 41 L 18 41 " stroke-width="1" fill="undefined"/>
<path style="fill:#3E352E;fill-opacity:1" d="M 19 41 L 19 42 L 18 42 L 18 41 L 19 41 " stroke-width="1" fill="undefined"/>
<path style="fill:#000000;fill-opacity:0.882353" d="M 19 43 L 18 43 L 18 42 L 19 42 L 19 43 " stroke-width="1" fill="undefined"/>
<path style="fill:#65574B;fill-opacity:1" d="M 19 42 L 19 41 L 20 41 L 20 42 L 19 42 " stroke-width="1" fill="undefined"/>
<path style="fill:#96826F;fill-opacity:1" d="M 20 42 L 20 41 L 21 41 L 21 42 L 20 42 " stroke-width="1" fill="undefined"/>
<path style="fill:#C3A890;fill-opacity:1" d="M 21 41 L 22 41 L 22 42 L 21 42 L 21 41 " stroke-width="1" fill="undefined"/>
<path style="fill:#000000;fill-opacity:0.537255" d="M 22 44 L 21 44 L 21 43 L 22 43 L 22 44 " stroke-width="1" fill="undefined"/>
<path style="fill:#000000;fill-opacity:0.160784" d="M 20 43 L 20 44 L 19.25 43.75 L 19 43 L 20 43 " stroke-width="1" fill="undefined"/>
<path style="fill:#080606;fill-opacity:1" d="M 22 43 L 22 42 L 23 42 L 23 43 L 22 43 " stroke-width="1" fill="undefined"/>
<path style="fill:#210008;fill-opacity:1" d="M 7 23 L 8 23 L 8 24 L 7 24 L 7 23 " stroke-width="1" fill="undefined"/>
</g>
</svg>