<?xml version="1.0" encoding="utf-8"?><svg xmlns="http://www.w3.org/2000/svg" xmlns:xlink="http://www.w3.org/1999/xlink" xmlns:author="http://www.sothink.com" version="1.1" id="Layer_1" width="49" height="47" xml:space="preserve" viewBox="-0.5 -0.5 49 47">
<g id="44">
<path style="fill:#000000;fill-opacity:0.505882" d="M 12 3 L 11 3 L 11 2 L 12 2 L 12 3 " stroke-width="1" fill="undefined"/>
<path style="fill:#000000;fill-opacity:0.372549" d="M 10 3 L 9 3 L 9 2 L 10 2 L 10 3 " stroke-width="1" fill="undefined"/>
<path style="fill:#000000;fill-opacity:0.996078" d="M 25 2 L 25 1 L 25.75 0.75 L 26 0 L 28 0 L 29 0 Q 29 0.5 29.25 0.75 Q 29.5 1 30 1 Q 30 1.5 30.25 1.75 Q 30.5 2 31 2 L 31 3 L 31 4 L 31 5 L 30 5 Q 30 5.5 30.25 5.75 Q 30.5 6 31 6 Q 31 6.5 31.25 6.75 Q 31.5 7 32 7 L 33 7 L 34 7 Q 34 7.5 34.25 7.75 Q 34.5 8 35 8 L 35 9 L 34 9 L 33 9 L 32.75 8.25 L 32 8 L 31 8 L 30 8 L 29.75 7.25 L 29 7 L 29 6 L 29 5 L 29 4 L 29.5 4 Q 29.5 3.5 29 3 L 28.75 2.25 L 28 2 L 27 2 L 26 2 L 25 2 M 11 3 L 12 3 L 13 3 L 13.25 3.75 L 14 4 L 14 5 L 14 6 L 13 6 Q 13 5.5 12.75 5.25 L 12 5 L 11.75 4.25 L 11 4 L 10 4 L 9 4 L 9 3 L 10 3 L 11 3 M 24 6 L 23 6 L 22 6 L 21 6 L 20 6 L 19 6 L 19 7 L 18 7 L 17 7 L 16 7 L 15 7 L 14 7 L 14 6 L 15 6 L 16 6 L 17 6 Q 17.5 6 17.75 5.75 Q 18 5.5 18 5 L 19 5 L 20 5 L 21 5 L 22 5 L 23 5 L 24 5 L 24 6 M 6 16 L 5 16 L 5 17 L 4 17 L 4 16 L 4 15 Q 4.5 15 4.75 14.75 Q 5 14.5 5 14 L 6 14 L 6 15 L 6 16 M 3 17 L 4 17 L 4 18 L 4 19 L 4 20 L 3 20 L 3 21 L 3 22 L 3 23 L 3 24 L 2 24 L 2 25 L 2 26 L 2 28 L 2 29 L 2.25 29.75 L 3 30 L 3 31 L 3 32 L 3 33 L 3 34 L 2 34 L 2 33 L 2 32 Q 2 31.5 1.75 31.25 Q 1.5 31 1 31 L 1 30 L 1 29 L 1 28 L 1 25 L 1 24 L 1 23 L 1.75 22.75 Q 2 22.5 2 22 L 2 21 L 2 20 L 2 19 Q 2.5 19 2.75 18.75 Q 3 18.5 3 18 L 3 17 M 43 17 L 42 17 L 41.75 16.25 L 41 16 L 41 15 L 41 14 L 42 14 Q 42 14.5 42.25 14.75 Q 42.5 15 43 15 L 43 16 L 43 17 M 12 41 L 12.25 41.75 L 13 42 L 14 42 L 14 43 L 13 43 L 12 43 L 11 43 Q 11 42.5 10.75 42.25 Q 10.5 42 10 42 L 10 41 L 11 41 L 12 41 M 46 34 L 46 35 L 45 35 L 45 36 L 44 36 L 44 35 L 44 34 L 44.75 33.75 L 45 33 L 45 32 L 46 32 L 46 33 L 46 34 M 32 44 L 31 44 L 31 43 L 32 43 L 33 43 L 33.75 42.75 L 34 42 L 35 42 L 36 42 L 37 42 L 37 43 L 36 43 L 35 43 L 35 44 L 34 44 L 33 44 L 32 44 " stroke-width="1" fill="undefined"/>
<path style="fill:#000000;fill-opacity:0.835294" d="M 8 4 L 8 3 L 9 3 L 9 4 L 8 4 " stroke-width="1" fill="undefined"/>
<path style="fill:#1D3514;fill-opacity:1" d="M 10 5 L 9 5 L 9 4 L 10 4 L 10 5 " stroke-width="1" fill="undefined"/>
<path style="fill:#000000;fill-opacity:0.117647" d="M 14 45 L 13.25 44.75 L 13 44 L 14 44 L 14 45 M 7 4 L 7 3 L 8 3 L 8 4 L 7 4 " stroke-width="1" fill="undefined"/>
<path style="fill:#69CF44;fill-opacity:1" d="M 10 6 L 9 6 L 9 5 L 10 5 L 10 6 " stroke-width="1" fill="undefined"/>
<path style="fill:#488831;fill-opacity:1" d="M 11 5 L 10 5 L 10 4 L 11 4 L 11 5 " stroke-width="1" fill="undefined"/>
<path style="fill:#000000;fill-opacity:1" d="M 8 4 L 9 4 L 9 5 L 8 5 L 8 4 M 8 7 L 8 8 L 9 8 L 9 9 L 8 9 L 8 8 L 7 8 L 7 7 L 7 6 L 7 5 L 8 5 L 8 6 L 8 7 M 24 2 L 25 2 L 25 3 L 25 4 L 25 5 L 24 5 L 24 4 L 24 3 L 24 2 M 9 9 L 10 9 L 10 10 L 10 11 L 9 11 L 9 12 L 8 12 L 8 13 L 7 13 L 7 14 L 6 14 L 6 13 L 7 13 L 7 12 L 8 12 L 8 11 L 9 11 L 9 10 L 9 9 M 3 34 L 4 34 L 4 35 L 4 36 L 3 36 L 3 35 L 3 34 M 5 37 L 4 37 L 4 36 L 5 36 L 5 37 M 7 40 L 7 39 L 8 39 L 8 40 L 9 40 L 10 40 L 10 41 L 9 41 L 8 41 L 8 40 L 7 40 M 7 38 L 7 39 L 6 39 L 6 38 L 7 38 M 5 38 L 5 37 L 6 37 L 6 38 L 5 38 M 36 9 L 37 9 Q 37 9.5 37.25 9.75 Q 37.5 10 38 10 L 38 11 L 39 11 L 39 12 L 40 12 L 40 13 L 41 13 L 41 14 L 40 14 L 40 13 L 39 13 L 39 12 L 38 12 L 38 11 L 37 11 L 36 11 L 35.75 10.25 L 35 10 L 35 9 L 36 9 M 43 17 L 44 17 L 44 18 L 44 19 L 45 19 L 45 20 L 45 21 L 44 21 L 44 20 L 44 19 L 43 19 L 43 18 L 43 17 M 47 26 L 47 27 L 47 28 L 47 29 L 47 30 L 47 31 L 47 32 L 46 32 L 46 31 L 46 30 L 46 29 L 46 28 L 46 27 L 46 26 L 46 25 L 46 24 L 45 24 L 45 23 L 45 22 L 45 21 L 46 21 L 46 22 L 46 23 L 46 24 L 47 24 L 47 25 L 47 26 M 17 45 L 17 44 L 16 44 L 15 44 L 14 44 L 14 43 L 15 43 L 16 43 L 17 43 L 17 44 L 18 44 L 19 44 L 20 44 L 21 44 L 22 44 L 23 44 L 24 44 L 25 44 L 26 44 L 27 44 L 28 44 L 29 44 L 30 44 L 31 44 L 31 45 L 30 45 L 29 45 L 28 45 L 27 45 L 26 45 L 25 45 L 24 45 L 23 45 L 22 45 L 21 45 L 20 45 L 19 45 L 18 45 L 17 45 M 40 39 L 41 39 L 41 40 L 40 40 L 40 41 L 39 41 L 39 42 L 38 42 L 37 42 L 37 41 L 37.75 40.75 L 38 40 L 39 40 L 40 40 L 40 39 " stroke-width="1" fill="undefined"/>
<path style="fill:#000000;fill-opacity:0.831373" d="M 7 5 L 7 4 L 8 4 L 8 5 L 7 5 M 40 40 L 41 40 L 41 41 L 40 41 L 40 40 " stroke-width="1" fill="undefined"/>
<path style="fill:#1B3412;fill-opacity:1" d="M 8 6 L 8 5 L 9 5 L 9 6 L 8 6 " stroke-width="1" fill="undefined"/>
<path style="fill:#325923;fill-opacity:1" d="M 11 5 L 11 4 L 11.75 4.25 L 12 5 L 11 5 " stroke-width="1" fill="undefined"/>
<path style="fill:#28601A;fill-opacity:1" d="M 11 6 L 11 5 L 12 5 L 12 6 L 11 6 " stroke-width="1" fill="undefined"/>
<path style="fill:#000000;fill-opacity:0.603922" d="M 10 3 L 10 2 L 11 2 L 11 3 L 10 3 " stroke-width="1" fill="undefined"/>
<path style="fill:#45922C;fill-opacity:1" d="M 11 6 L 10 6 L 10 5 L 11 5 L 11 6 " stroke-width="1" fill="undefined"/>
<path style="fill:#000000;fill-opacity:0.168627" d="M 12 3 L 12 2 L 12.75 2.25 Q 13 2.5 13 3 L 12 3 " stroke-width="1" fill="undefined"/>
<path style="fill:#000000;fill-opacity:0.4" d="M 13 3 L 13.75 3.25 Q 14 3.5 14 4 L 13.25 3.75 L 13 3 M 3 35 L 3 36 L 2.25 35.75 L 2 35 L 3 35 " stroke-width="1" fill="undefined"/>
<path style="fill:#000000;fill-opacity:0.290196" d="M 14 5 L 14 4 L 14.75 4.25 L 15 5 L 14 5 M 36 9 L 36 8 L 36.75 8.25 L 37 9 L 36 9 " stroke-width="1" fill="undefined"/>
<path style="fill:#000000;fill-opacity:0.8" d="M 15 5 L 15 6 L 14 6 L 14 5 L 15 5 M 31 6 Q 30.5 6 30.25 5.75 Q 30 5.5 30 5 L 31 5 L 31 6 M 9 10 L 8 10 L 8 9 L 9 9 L 9 10 " stroke-width="1" fill="undefined"/>
<path style="fill:#000000;fill-opacity:0.580392" d="M 16 5 L 17 5 L 17 6 L 16 6 L 16 5 " stroke-width="1" fill="undefined"/>
<path style="fill:#000000;fill-opacity:0.254902" d="M 16 6 L 15 6 L 15 5 L 16 5 L 16 6 M 32 3 L 32 4 L 31 4 L 31 3 L 32 3 M 43 16 L 43 15 L 43.75 15.25 L 44 16 L 43 16 M 38 42 L 39 42 L 38.75 42.75 L 38 43 L 38 42 " stroke-width="1" fill="undefined"/>
<path style="fill:#305E1F;fill-opacity:1" d="M 12 6 L 12 5 L 12.75 5.25 Q 13 5.5 13 6 L 12 6 " stroke-width="1" fill="undefined"/>
<path style="fill:#000000;fill-opacity:0.352941" d="M 20 5 L 20 4 L 21 4 L 21 5 L 20 5 M 2 33 L 2 34 L 1 34 L 1 33 L 2 33 " stroke-width="1" fill="undefined"/>
<path style="fill:#000000;fill-opacity:0.294118" d="M 20 5 L 19 5 L 19 4 L 20 4 L 20 5 " stroke-width="1" fill="undefined"/>
<path style="fill:#000000;fill-opacity:0.164706" d="M 19 5 L 18 5 L 18 4 L 19 4 L 19 5 M 8 10 L 8 11 L 7 11 L 7 10 L 7 9 L 8 9 L 8 10 " stroke-width="1" fill="undefined"/>
<path style="fill:#000000;fill-opacity:0.462745" d="M 21 4 L 22 4 L 22 5 L 21 5 L 21 4 " stroke-width="1" fill="undefined"/>
<path style="fill:#000000;fill-opacity:0.572549" d="M 23 5 L 22 5 L 22 4 L 23 4 L 23 5 M 19 45 L 20 45 L 20 46 L 19 46 L 19 45 " stroke-width="1" fill="undefined"/>
<path style="fill:#63C83F;fill-opacity:1" d="M 27 3 L 26 3 L 26 2 L 27 2 L 27 3 " stroke-width="1" fill="undefined"/>
<path style="fill:#000000;fill-opacity:0.901961" d="M 25 0 L 26 0 L 25.75 0.75 L 25 1 L 25 0 M 35 9 L 35 8 L 36 8 L 36 9 L 35 9 " stroke-width="1" fill="undefined"/>
<path style="fill:#000000;fill-opacity:0.921569" d="M 32 6 L 32 7 Q 31.5 7 31.25 6.75 Q 31 6.5 31 6 L 32 6 M 24 2 L 24 1 L 25 1 L 25 2 L 24 2 M 1 31 Q 1.5 31 1.75 31.25 Q 2 31.5 2 32 L 1 32 L 1 31 " stroke-width="1" fill="undefined"/>
<path style="fill:#000000;fill-opacity:0.105882" d="M 24 2 L 23 2 L 23 1 L 24 1 L 24 2 M 7 9 Q 6.5 9 6.25 8.75 L 6 8 L 7 8 L 7 9 " stroke-width="1" fill="undefined"/>
<path style="fill:#000000;fill-opacity:0.501961" d="M 24 3 L 23 3 L 23 2 L 24 2 L 24 3 " stroke-width="1" fill="undefined"/>
<path style="fill:#000000;fill-opacity:0.196078" d="M 25 1 L 24 1 L 24 0 L 25 0 L 25 1 M 41 40 L 42 40 L 41.75 40.75 L 41 41 L 41 40 " stroke-width="1" fill="undefined"/>
<path style="fill:#3D7828;fill-opacity:1" d="M 25 4 L 25 3 L 26 3 L 26 4 L 25 4 " stroke-width="1" fill="undefined"/>
<path style="fill:#000000;fill-opacity:0.623529" d="M 24 3 L 24 4 L 23 4 L 23 3 L 24 3 M 46 34 L 46 33 L 47 33 L 47 34 L 46 34 " stroke-width="1" fill="undefined"/>
<path style="fill:#000000;fill-opacity:0.847059" d="M 24 5 L 23 5 L 23 4 L 24 4 L 24 5 " stroke-width="1" fill="undefined"/>
<path style="fill:#183110;fill-opacity:1" d="M 24 5 L 25 5 L 25 6 L 24 6 L 24 5 " stroke-width="1" fill="undefined"/>
<path style="fill:#4B9731;fill-opacity:1" d="M 25 5 L 25 4 L 26 4 L 26 5 L 25 5 " stroke-width="1" fill="undefined"/>
<path style="fill:#1C4712;fill-opacity:1" d="M 26.75 3.75 Q 26.5 4 26 4 L 26 3 L 27 3 L 26.75 3.75 " stroke-width="1" fill="undefined"/>
<path style="fill:#0D2D0B;fill-opacity:1" d="M 29 4 L 29 5 L 28 5 L 27 5 L 26 5 L 26 4 Q 26.5 4 26.75 3.75 L 27 3 L 28 3 Q 28 3.5 28.25 3.75 Q 28.5 4 29 4 " stroke-width="1" fill="undefined"/>
<path style="fill:#48942F;fill-opacity:1" d="M 27 6 L 26 6 L 26 5 L 27 5 L 27 6 " stroke-width="1" fill="undefined"/>
<path style="fill:#254819;fill-opacity:1" d="M 25 3 L 25 2 L 26 2 L 26 3 L 25 3 " stroke-width="1" fill="undefined"/>
<path style="fill:#66CF44;fill-opacity:1" d="M 25 6 L 25 5 L 26 5 L 26 6 L 25 6 " stroke-width="1" fill="undefined"/>
<path style="fill:#53AD35;fill-opacity:1" d="M 28 3 L 27 3 L 27 2 L 28 2 L 28 3 " stroke-width="1" fill="undefined"/>
<path style="fill:#000000;fill-opacity:0.85098" d="M 17.75 5.75 Q 17.5 6 17 6 L 17 5 L 18 5 Q 18 5.5 17.75 5.75 " stroke-width="1" fill="undefined"/>
<path style="fill:#000000;fill-opacity:0.145098" d="M 31 3 L 31 2 L 31.75 2.25 L 32 3 L 31 3 " stroke-width="1" fill="undefined"/>
<path style="fill:#000000;fill-opacity:0.568627" d="M 30 1 L 30.75 1.25 L 31 2 Q 30.5 2 30.25 1.75 Q 30 1.5 30 1 " stroke-width="1" fill="undefined"/>
<path style="fill:#000000;fill-opacity:0.666667" d="M 29 0 L 29.75 0.25 L 30 1 Q 29.5 1 29.25 0.75 Q 29 0.5 29 0 M 3 18 Q 3 18.5 2.75 18.75 Q 2.5 19 2 19 L 2 18 L 3 18 " stroke-width="1" fill="undefined"/>
<path style="fill:#4FA331;fill-opacity:1" d="M 28 3 L 28 2 L 28.75 2.25 L 29 3 L 28 3 " stroke-width="1" fill="undefined"/>
<path style="fill:#3C7C28;fill-opacity:1" d="M 28 5 L 29 5 L 29 6 L 28 6 L 28 5 " stroke-width="1" fill="undefined"/>
<path style="fill:#215317;fill-opacity:1" d="M 28.25 3.75 Q 28 3.5 28 3 L 29 3 L 29 4 Q 28.5 4 28.25 3.75 " stroke-width="1" fill="undefined"/>
<path style="fill:#193110;fill-opacity:1" d="M 29 3 Q 29.5 3.5 29.5 4 L 29 4 L 29 3 " stroke-width="1" fill="undefined"/>
<path style="fill:#000000;fill-opacity:0.152941" d="M 32 4 L 32 5 L 31 5 L 31 4 L 32 4 " stroke-width="1" fill="undefined"/>
<path style="fill:#000000;fill-opacity:0.0627451" d="M 31 5 L 32 5 L 32 6 L 31 6 L 31 5 M 40 12 L 40 11 L 40.75 11.25 L 41 12 L 40 12 " stroke-width="1" fill="undefined"/>
<path style="fill:#2D661F;fill-opacity:1" d="M 28 6 L 27 6 L 27 5 L 28 5 L 28 6 " stroke-width="1" fill="undefined"/>
<path style="fill:#000000;fill-opacity:0.0470588" d="M 6 5 L 6 4 L 7 4 L 7 5 L 6 5 " stroke-width="1" fill="undefined"/>
<path style="fill:#000000;fill-opacity:0.368627" d="M 7 6 L 6 6 L 6 5 L 7 5 L 7 6 " stroke-width="1" fill="undefined"/>
<path style="fill:#000000;fill-opacity:0.52549" d="M 44 18 L 44 17 L 45 17 L 45 18 L 44 18 M 28 46 L 27 46 L 27 45 L 28 45 L 28 46 M 6 7 L 6 6 L 7 6 L 7 7 L 6 7 " stroke-width="1" fill="undefined"/>
<path style="fill:#000000;fill-opacity:0.439216" d="M 7 7 L 7 8 L 6 8 L 6 7 L 7 7 " stroke-width="1" fill="undefined"/>
<path style="fill:#000000;fill-opacity:0.160784" d="M 0 24 L 0 23 L 1 23 L 1 24 L 0 24 M 7 12 L 6 12 L 6 11 L 7 11 L 7 12 " stroke-width="1" fill="undefined"/>
<path style="fill:#000000;fill-opacity:0.898039" d="M 8 8 L 8 9 L 7 9 L 7 8 L 8 8 M 43 17 L 43 16 L 44 16 L 44 17 L 43 17 " stroke-width="1" fill="undefined"/>
<path style="fill:#1F4215;fill-opacity:1" d="M 8 13 L 8 14 L 7 14 L 7 13 L 8 13 M 43 18 L 42 18 L 42 17 L 43 17 L 43 18 " stroke-width="1" fill="undefined"/>
<path style="fill:#000000;fill-opacity:0.882353" d="M 7 13 L 6 13 L 6 12 L 7 12 L 7 13 M 4 37 L 5 37 L 5 38 L 4 38 L 4 37 " stroke-width="1" fill="undefined"/>
<path style="fill:#0F1F0A;fill-opacity:1" d="M 7 15 L 6 15 L 6 14 L 7 14 L 7 15 " stroke-width="1" fill="undefined"/>
<path style="fill:#000000;fill-opacity:0.733333" d="M 6 13 L 6 14 L 5 14 L 5 13 L 6 13 " stroke-width="1" fill="undefined"/>
<path style="fill:#000000;fill-opacity:0.0823529" d="M 47 23 Q 47.5 23 47.75 23.25 L 48 24 L 47 24 L 47 23 M 48 32 L 47.75 32.75 L 47 33 L 47 32 L 48 32 M 1 31 L 1 32 L 0.25 31.75 L 0 31 L 1 31 M 5 13 L 5 12 L 6 12 L 6 13 L 5 13 " stroke-width="1" fill="undefined"/>
<path style="fill:#000000;fill-opacity:0.466667" d="M 4.75 14.75 Q 4.5 15 4 15 L 4 14 L 5 14 Q 5 14.5 4.75 14.75 " stroke-width="1" fill="undefined"/>
<path style="fill:#000000;fill-opacity:0.172549" d="M 34 44 L 35 44 L 34.75 44.75 L 34 45 L 34 44 M 10 43 L 9.25 42.75 L 9 42 L 10 42 L 10 43 M 3 16 L 3 15 L 4 15 L 4 16 L 3 16 " stroke-width="1" fill="undefined"/>
<path style="fill:#0D1C09;fill-opacity:1" d="M 5 18 L 4 18 L 4 17 L 5 17 L 5 18 " stroke-width="1" fill="undefined"/>
<path style="fill:#000000;fill-opacity:0.721569" d="M 47 29 L 47 28 L 47 27 L 48 27 L 48 28 L 48 29 L 47 29 M 3 17 L 3 16 L 4 16 L 4 17 L 3 17 " stroke-width="1" fill="undefined"/>
<path style="fill:#2B581D;fill-opacity:1" d="M 6 17 L 5 17 L 5 16 L 6 16 L 6 17 " stroke-width="1" fill="undefined"/>
<path style="fill:#4C9E33;fill-opacity:1" d="M 6.75 15.75 Q 6.5 16 6 16 L 6 15 L 7 15 Q 7 15.5 6.75 15.75 " stroke-width="1" fill="undefined"/>
<path style="fill:#6BE147;fill-opacity:1" d="M 28 6 L 29 6 L 29 7 L 28 7 L 28 8 Q 28 8.5 28.25 8.75 Q 28.5 9 29 9 L 30 9 Q 30 9.5 30.25 9.75 Q 30.5 10 31 10 L 32 10 Q 32 10.5 32.25 10.75 Q 32.5 11 33 11 L 34 11 Q 34 11.5 34.25 11.75 Q 34.5 12 35 12 L 36 12 Q 36 12.5 36.25 12.75 Q 36.5 13 37 13 Q 37 13.5 37.25 13.75 Q 37.5 14 38 14 Q 38 14.5 38.25 14.75 Q 38.5 15 39 15 L 40 15 Q 40 15.5 40.25 15.75 Q 40.5 16 41 16 Q 41 16.5 41.25 16.75 Q 41.5 17 42 17 L 42 18 L 41 18 L 40 18 L 39 18 L 38 18 Q 38 18.5 38.25 18.75 Q 38.5 19 39 19 Q 39 19.5 39.25 19.75 Q 39.5 20 40 20 L 41 20 L 42 20 Q 42 20.5 42.25 20.75 Q 42.5 21 43 21 L 44 21 L 44 22 L 43 22 L 42 22 L 41 22 L 40 22 L 39 22 L 38 22 L 37 22 L 37 23 L 36 23 L 36 24 L 35 24 L 34.75 23.25 L 34 23 L 34 22 L 33.75 21.25 L 33 21 L 32.75 20.25 L 32 20 L 31.75 19.25 L 31 19 L 30.75 18.25 L 30 18 L 29 18 L 28.75 17.25 L 28 17 L 27 17 L 26 17 L 25 17 L 23 17 L 22 17 L 21 17 L 20 17 L 20 18 L 19 18 L 18 18 L 18 19 L 17 19 L 17 20 L 16 20 L 16 21 L 15 21 L 15 22 L 15 23 L 14 23 L 14 24 L 13 24 Q 13 23.5 12.75 23.25 Q 12.5 23 12 23 Q 12 22.5 11.75 22.25 Q 11.5 22 11 22 L 10 22 L 9 22 L 8 22 L 7 22 L 7 23 L 6 23 L 5 23 L 5 24 L 4 24 L 3 24 L 3 23 L 3.75 22.75 Q 4 22.5 4 22 L 4 21 L 4 20 L 5 20 L 5.25 20.75 L 6 21 Q 6.5 21 6.75 20.75 Q 7 20.5 7 20 L 8 20 L 9 20 L 10 20 Q 10.5 20 10.75 19.75 Q 11 19.5 11 19 Q 11 18.5 10.75 18.25 L 10 18 L 9 18 L 8 18 L 7 18 L 6 18 L 6 17 L 6 16 Q 6.5 16 6.75 15.75 Q 7 15.5 7 15 Q 7.5 15 7.75 14.75 Q 8 14.5 8 14 L 8 13 Q 8.5 13 8.75 12.75 Q 9 12.5 9 12 Q 9.5 12 9.75 11.75 Q 10 11.5 10 11 Q 10.5 11 10.75 10.75 Q 11 10.5 11 10 Q 11.5 10 11.75 9.75 Q 12 9.5 12 9 Q 12.5 9 12.75 8.75 Q 13 8.5 13 8 L 14 8 L 15 8 L 16 8 L 17 8 Q 17.5 8 17.75 7.75 Q 18 7.5 18 7 L 19 7 L 20 7 L 21 7 L 22 7 L 23 7 Q 23.5 7 23.75 6.75 Q 24 6.5 24 6 L 25 6 L 26 6 L 27 6 L 28 6 " stroke-width="1" fill="undefined"/>
<path style="fill:#67D845;fill-opacity:1" d="M 6 18 L 5 18 L 5 17 L 6 17 L 6 18 " stroke-width="1" fill="undefined"/>
<path style="fill:#63CE42;fill-opacity:1" d="M 7.75 14.75 Q 7.5 15 7 15 L 7 14 L 8 14 Q 8 14.5 7.75 14.75 " stroke-width="1" fill="undefined"/>
<path style="fill:#000000;fill-opacity:0.239216" d="M 3 18 L 2 18 L 2 17 L 3 17 L 3 18 " stroke-width="1" fill="undefined"/>
<path style="fill:#000000;fill-opacity:0.933333" d="M 8 12 L 7 12 L 7 11 L 8 11 L 8 12 " stroke-width="1" fill="undefined"/>
<path style="fill:#4CA42E;fill-opacity:1" d="M 8 18 L 8 19 L 7 19 L 7 18 L 8 18 " stroke-width="1" fill="undefined"/>
<path style="fill:#64D342;fill-opacity:1" d="M 6 19 L 6 18 L 7 18 L 7 19 L 6 19 " stroke-width="1" fill="undefined"/>
<path style="fill:#6CE248;fill-opacity:1" d="M 6 18 L 6 19 L 5 19 L 5 18 L 6 18 M 9 32 L 10 32 L 11 32 L 11.75 31.75 L 12 31 L 12.75 30.75 Q 13 30.5 13 30 L 14 30 L 15 30 L 15.25 30.75 L 16 31 L 17 31 L 17.25 31.75 L 18 32 L 18.25 32.75 L 19 33 L 19 34 L 19.25 34.75 L 20 35 L 21 35 L 21.25 35.75 L 22 36 L 23 36 L 25 36 L 26 36 L 27 36 L 28 36 L 28.75 35.75 L 29 35 L 29.75 34.75 L 30 34 L 30 33 L 31 33 L 32 33 L 32.75 32.75 L 33 32 L 33.75 31.75 L 34 31 L 34.75 30.75 L 35 30 L 36 30 L 36 31 L 36.25 31.75 L 37 32 L 38 32 L 39 32 L 40 32 L 41 32 L 42 32 L 42.75 31.75 L 43 31 L 43.75 30.75 L 44 30 L 45 30 L 45 31 L 45 32 L 44 32 L 44 33 L 44 34 L 43 34 L 43 35 L 43 36 L 42 36 L 42 37 L 41 37 L 41 38 L 40 38 L 39 38 L 39 39 L 38 39 L 38 40 L 37 40 L 36 40 L 36 41 L 35 41 L 34 41 L 33 41 L 33 42 L 32 42 L 31 42 L 30 42 L 29 42 L 29 43 L 28 43 L 27 43 L 26 43 L 25 43 L 24 43 L 23 43 L 22 43 L 21 43 L 20 43 L 19 43 Q 19 42.5 18.75 42.25 Q 18.5 42 18 42 L 17 42 L 16 42 L 15 42 Q 15 41.5 14.75 41.25 Q 14.5 41 14 41 L 13 41 Q 13 40.5 12.75 40.25 Q 12.5 40 12 40 L 11 40 Q 11 39.5 10.75 39.25 Q 10.5 39 10 39 L 9 39 Q 9 38.5 8.75 38.25 Q 8.5 38 8 38 Q 8 37.5 7.75 37.25 Q 7.5 37 7 37 Q 7 36.5 6.75 36.25 Q 6.5 36 6 36 Q 6 35.5 5.75 35.25 Q 5.5 35 5 35 L 5 34 Q 5 33.5 4.75 33.25 Q 4.5 33 4 33 L 4 32 L 4 31 L 5 31 L 5.25 31.75 L 6 32 L 7 32 L 8 32 L 9 32 " stroke-width="1" fill="undefined"/>
<path style="fill:#5FC93D;fill-opacity:1" d="M 5 19 L 6 19 L 6 20 L 6 21 L 5.25 20.75 L 5 20 L 5 19 " stroke-width="1" fill="undefined"/>
<path style="fill:#54B334;fill-opacity:1" d="M 7 20 Q 7 20.5 6.75 20.75 Q 6.5 21 6 21 L 6 20 L 7 20 " stroke-width="1" fill="undefined"/>
<path style="fill:#2F6E18;fill-opacity:1" d="M 8 20 L 7 20 L 6 20 L 6 19 L 7 19 L 8 19 L 8 20 " stroke-width="1" fill="undefined"/>
<path style="fill:#326A21;fill-opacity:1" d="M 4 18 L 5 18 L 5 19 L 4 19 L 4 18 " stroke-width="1" fill="undefined"/>
<path style="fill:#63CD41;fill-opacity:1" d="M 4 19 L 5 19 L 5 20 L 4 20 L 4 19 " stroke-width="1" fill="undefined"/>
<path style="fill:#224B17;fill-opacity:1" d="M 3 21 L 3 20 L 4 20 L 4 21 L 3 21 " stroke-width="1" fill="undefined"/>
<path style="fill:#418B2C;fill-opacity:1" d="M 3 21 L 4 21 L 4 22 L 3 22 L 3 21 " stroke-width="1" fill="undefined"/>
<path style="fill:#5EC43F;fill-opacity:1" d="M 3 22 L 4 22 Q 4 22.5 3.75 22.75 L 3 23 L 3 22 " stroke-width="1" fill="undefined"/>
<path style="fill:#6EE34A;fill-opacity:1" d="M 4 25 L 4 26 L 4 27 L 4 28 L 4 29 L 4 30 L 3 30 L 3 29 L 3 28 L 3 26 L 3 25 L 3 24 L 4 24 L 4 25 " stroke-width="1" fill="undefined"/>
<path style="fill:#67D944;fill-opacity:1" d="M 5 25 L 4 25 L 4 24 L 5 24 L 5 25 " stroke-width="1" fill="undefined"/>
<path style="fill:#65D542;fill-opacity:1" d="M 5 24 L 5 23 L 6 23 L 6 24 L 5 24 " stroke-width="1" fill="undefined"/>
<path style="fill:#6B8158;fill-opacity:1" d="M 6 23 L 7 23 L 7 24 L 6 24 L 6 23 " stroke-width="1" fill="undefined"/>
<path style="fill:#8C4CA0;fill-opacity:1" d="M 7 26 L 6 26 L 6 25 L 6 24 L 7 24 L 7 25 L 7 26 " stroke-width="1" fill="undefined"/>
<path style="fill:#628E4B;fill-opacity:1" d="M 8 23 L 7 23 L 7 22 L 8 22 L 8 23 " stroke-width="1" fill="undefined"/>
<path style="fill:#9152A6;fill-opacity:1" d="M 9 23 L 10 23 L 11 23 L 12 23 L 12 24 L 11.3 24.25 Q 10.2 25.75 7 25 L 7 24 L 7 23 L 8 23 L 9 23 " stroke-width="1" fill="undefined"/>
<path style="fill:#656E5D;fill-opacity:1" d="M 5 25 L 5 24 L 6 24 L 6 25 L 5 25 " stroke-width="1" fill="undefined"/>
<path style="fill:#000000;fill-opacity:0.384314" d="M 1 21 L 1 20 L 2 20 L 2 21 L 1 21 " stroke-width="1" fill="undefined"/>
<path style="fill:#000000;fill-opacity:0.109804" d="M 7 41 L 6.25 40.75 L 6 40 L 7 40 L 7 41 M 4 37 L 4 38 L 3.25 37.75 L 3 37 L 4 37 M 2 20 L 1 20 L 1 19 L 2 19 L 2 20 " stroke-width="1" fill="undefined"/>
<path style="fill:#000000;fill-opacity:0.662745" d="M 10 42 Q 10.5 42 10.75 42.25 Q 11 42.5 11 43 L 10 43 L 10 42 M 1 22 L 1 21 L 2 21 L 2 22 L 1 22 " stroke-width="1" fill="undefined"/>
<path style="fill:#000000;fill-opacity:0.0431373" d="M 0 23 L 0 22 L 1 22 L 1 23 L 0 23 " stroke-width="1" fill="undefined"/>
<path style="fill:#000000;fill-opacity:0.870588" d="M 2 22 Q 2 22.5 1.75 22.75 L 1 23 L 1 22 L 2 22 " stroke-width="1" fill="undefined"/>
<path style="fill:#000000;fill-opacity:0.278431" d="M 0 25 L 0 24 L 1 24 L 1 25 L 0 25 " stroke-width="1" fill="undefined"/>
<path style="fill:#214A15;fill-opacity:1" d="M 3 25 L 3 26 L 2 26 L 2 25 L 3 25 " stroke-width="1" fill="undefined"/>
<path style="fill:#000000;fill-opacity:0.376471" d="M 0 29 L 0 28 L 0 25 L 1 25 L 1 28 L 1 29 L 0 29 " stroke-width="1" fill="undefined"/>
<path style="fill:#000000;fill-opacity:0.286275" d="M 0 30 L 0 29 L 1 29 L 1 30 L 0 30 " stroke-width="1" fill="undefined"/>
<path style="fill:#18370F;fill-opacity:1" d="M 3 29 L 3 30 L 2.25 29.75 L 2 29 L 3 29 " stroke-width="1" fill="undefined"/>
<path style="fill:#224D16;fill-opacity:1" d="M 3 26 L 3 28 L 3 29 L 2 29 L 2 28 L 2 26 L 3 26 " stroke-width="1" fill="undefined"/>
<path style="fill:#000000;fill-opacity:0.188235" d="M 47 34 L 46.75 34.75 L 46 35 L 46 34 L 47 34 M 0 31 L 0 30 L 1 30 L 1 31 L 0 31 " stroke-width="1" fill="undefined"/>
<path style="fill:#9550AA;fill-opacity:1" d="M 10 26 L 9 26 L 8 26 L 7 26 L 7 25 Q 10.2 25.75 11.3 24.25 L 12 24 L 13 24 L 13 25 L 12 25 L 12 26 L 11 26 L 10 26 " stroke-width="1" fill="undefined"/>
<path style="fill:#7A3F8C;fill-opacity:1" d="M 6 26 L 7 26 L 8 26 L 8 27 L 7 27 L 6 27 L 6 26 " stroke-width="1" fill="undefined"/>
<path style="fill:#5B2D69;fill-opacity:1" d="M 7 28 L 6 28 L 5 28 L 5 27 L 6 27 L 7 27 L 7 28 " stroke-width="1" fill="undefined"/>
<path style="fill:#6E397E;fill-opacity:1" d="M 6 26 L 6 27 L 5 27 L 5 26 L 6 26 " stroke-width="1" fill="undefined"/>
<path style="fill:#7C468C;fill-opacity:1" d="M 6 25 L 6 26 L 5 26 L 5 25 L 6 25 " stroke-width="1" fill="undefined"/>
<path style="fill:#58AB40;fill-opacity:1" d="M 5 26 L 4 26 L 4 25 L 5 25 L 5 26 " stroke-width="1" fill="undefined"/>
<path style="fill:#549642;fill-opacity:1" d="M 4 27 L 4 26 L 5 26 L 5 27 L 4 27 " stroke-width="1" fill="undefined"/>
<path style="fill:#489832;fill-opacity:1" d="M 4 28 L 4 27 L 5 27 L 5 28 L 4 28 " stroke-width="1" fill="undefined"/>
<path style="fill:#47AD2C;fill-opacity:1" d="M 4 29 L 4 28 L 5 28 L 5 29 L 4 29 " stroke-width="1" fill="undefined"/>
<path style="fill:#4E7838;fill-opacity:1" d="M 5 30 L 5 29 L 6 29 L 6 30 L 5 30 " stroke-width="1" fill="undefined"/>
<path style="fill:#4DB72F;fill-opacity:1" d="M 5 29 L 5 30 L 4 30 L 4 29 L 5 29 " stroke-width="1" fill="undefined"/>
<path style="fill:#63D441;fill-opacity:1" d="M 5 31 L 4 31 L 4 30 L 5 30 L 5 31 " stroke-width="1" fill="undefined"/>
<path style="fill:#6B4B6E;fill-opacity:1" d="M 6 29 L 5 29 L 5 28 L 6 28 L 6 29 " stroke-width="1" fill="undefined"/>
<path style="fill:#6BDD48;fill-opacity:1" d="M 4 31 L 3 31 L 3 30 L 4 30 L 4 31 " stroke-width="1" fill="undefined"/>
<path style="fill:#773E89;fill-opacity:1" d="M 7 29 L 6 29 L 6 28 L 7 28 L 7 29 " stroke-width="1" fill="undefined"/>
<path style="fill:#734E7B;fill-opacity:1" d="M 6 30 L 6 29 L 7 29 L 7 30 L 6 30 " stroke-width="1" fill="undefined"/>
<path style="fill:#4B7033;fill-opacity:1" d="M 7 31 L 6 31 L 6 30 L 7 30 L 7 31 " stroke-width="1" fill="undefined"/>
<path style="fill:#814793;fill-opacity:1" d="M 8 29 L 8 30 L 7 30 L 7 29 L 7 28 L 8 28 L 8 29 " stroke-width="1" fill="undefined"/>
<path style="fill:#48AF2B;fill-opacity:1" d="M 5 30 L 6 30 L 6 31 L 5 31 L 5 30 " stroke-width="1" fill="undefined"/>
<path style="fill:#582B66;fill-opacity:1" d="M 9 27 L 10 27 L 10 28 L 9 28 L 8 28 L 7 28 L 7 27 L 8 27 L 9 27 " stroke-width="1" fill="undefined"/>
<path style="fill:#193810;fill-opacity:1" d="M 2 25 L 2 24 L 3 24 L 3 25 L 2 25 " stroke-width="1" fill="undefined"/>
<path style="fill:#478E29;fill-opacity:1" d="M 8 31 L 8 32 L 7 32 L 7 31 L 8 31 " stroke-width="1" fill="undefined"/>
<path style="fill:#49B32B;fill-opacity:1" d="M 6 31 L 7 31 L 7 32 L 6 32 L 6 31 " stroke-width="1" fill="undefined"/>
<path style="fill:#60D13F;fill-opacity:1" d="M 6 31 L 6 32 L 5.25 31.75 L 5 31 L 6 31 " stroke-width="1" fill="undefined"/>
<path style="fill:#33771F;fill-opacity:1" d="M 4 32 L 4 33 L 3 33 L 3 32 L 4 32 " stroke-width="1" fill="undefined"/>
<path style="fill:#69DC45;fill-opacity:1" d="M 4 34 L 4 33 Q 4.5 33 4.75 33.25 Q 5 33.5 5 34 L 4 34 M 18 42 Q 18.5 42 18.75 42.25 Q 19 42.5 19 43 L 18 43 L 18 42 " stroke-width="1" fill="undefined"/>
<path style="fill:#15340C;fill-opacity:1" d="M 3 34 L 3 33 L 4 33 L 4 34 L 3 34 " stroke-width="1" fill="undefined"/>
<path style="fill:#5DC73D;fill-opacity:1" d="M 4 31 L 4 32 L 3 32 L 3 31 L 4 31 " stroke-width="1" fill="undefined"/>
<path style="fill:#357F1F;fill-opacity:1" d="M 4 35 L 4 34 L 5 34 L 5 35 L 4 35 " stroke-width="1" fill="undefined"/>
<path style="fill:#5AC439;fill-opacity:1" d="M 5 36 L 5 35 Q 5.5 35 5.75 35.25 Q 6 35.5 6 36 L 5 36 " stroke-width="1" fill="undefined"/>
<path style="fill:#081504;fill-opacity:1" d="M 4 36 L 4 35 L 5 35 L 5 36 L 4 36 " stroke-width="1" fill="undefined"/>
<path style="fill:#000000;fill-opacity:0.709804" d="M 41 14 L 41 13 L 42 13 L 42 14 L 41 14 M 4 37 L 3 37 L 3 36 L 4 36 L 4 37 " stroke-width="1" fill="undefined"/>
<path style="fill:#000000;fill-opacity:0.87451" d="M 2 34 L 3 34 L 3 35 L 2 35 L 2 34 M 7 40 L 6 40 L 6 39 L 7 39 L 7 40 " stroke-width="1" fill="undefined"/>
<path style="fill:#65D842;fill-opacity:1" d="M 6 37 L 6 36 Q 6.5 36 6.75 36.25 Q 7 36.5 7 37 L 6 37 " stroke-width="1" fill="undefined"/>
<path style="fill:#15360B;fill-opacity:1" d="M 5 36 L 6 36 L 6 37 L 5 37 L 5 36 " stroke-width="1" fill="undefined"/>
<path style="fill:#000000;fill-opacity:0.705882" d="M 33 44 L 33 45 L 32 45 L 32 44 L 33 44 M 2 32 L 2 33 L 1 33 L 1 32 L 2 32 " stroke-width="1" fill="undefined"/>
<path style="fill:#000000;fill-opacity:0.054902" d="M 2 34 L 2 35 L 1.25 34.75 L 1 34 L 2 34 " stroke-width="1" fill="undefined"/>
<path style="fill:#14340A;fill-opacity:1" d="M 7 39 L 7 38 L 8 38 L 8 39 L 7 39 " stroke-width="1" fill="undefined"/>
<path style="fill:#64D641;fill-opacity:1" d="M 7 38 L 7 37 Q 7.5 37 7.75 37.25 Q 8 37.5 8 38 L 7 38 " stroke-width="1" fill="undefined"/>
<path style="fill:#193F0D;fill-opacity:1" d="M 6 37 L 7 37 L 7 38 L 6 38 L 6 37 " stroke-width="1" fill="undefined"/>
<path style="fill:#000000;fill-opacity:0.929412" d="M 5 39 L 5 38 L 6 38 L 6 39 L 5 39 M 45 21 L 45 20 L 46 20 L 46 21 L 45 21 M 31 45 L 31 44 L 32 44 L 32 45 L 31 45 " stroke-width="1" fill="undefined"/>
<path style="fill:#000000;fill-opacity:0.211765" d="M 5 39 L 4.25 38.75 L 4 38 L 5 38 L 5 39 " stroke-width="1" fill="undefined"/>
<path style="fill:#000000;fill-opacity:0.223529" d="M 47 25 L 47 24 L 48 24 L 48 25 L 47 25 M 18 45 L 18 46 L 17 46 L 17 45 L 18 45 M 6 40 L 5.25 39.75 L 5 39 L 6 39 L 6 40 " stroke-width="1" fill="undefined"/>
<path style="fill:#000000;fill-opacity:0.729412" d="M 8 40 L 8 41 L 7 41 L 7 40 L 8 40 " stroke-width="1" fill="undefined"/>
<path style="fill:#635460;fill-opacity:1" d="M 8 31 L 7 31 L 7 30 L 8 30 L 8 31 " stroke-width="1" fill="undefined"/>
<path style="fill:#000000;fill-opacity:0.0509804" d="M 39 10 L 39.75 10.25 L 40 11 L 39 11 L 39 10 M 41 13 L 41 12 L 41.75 12.25 L 42 13 L 41 13 M 17 46 L 16.25 45.75 L 16 45 L 17 45 L 17 46 " stroke-width="1" fill="undefined"/>
<path style="fill:#000000;fill-opacity:0.796078" d="M 39 12 L 39 11 L 40 11 L 40 12 L 39 12 " stroke-width="1" fill="undefined"/>
<path style="fill:#000000;fill-opacity:0.737255" d="M 38 11 L 38 10 L 39 10 L 39 11 L 38 11 " stroke-width="1" fill="undefined"/>
<path style="fill:#000000;fill-opacity:0.792157" d="M 40 13 L 40 12 L 41 12 L 41 13 L 40 13 " stroke-width="1" fill="undefined"/>
<path style="fill:#000000;fill-opacity:0.513725" d="M 42.25 14.75 Q 42 14.5 42 14 L 42.75 14.25 L 43 15 Q 42.5 15 42.25 14.75 " stroke-width="1" fill="undefined"/>
<path style="fill:#1C3015;fill-opacity:1" d="M 38 13 L 38 12 L 39 12 L 39 13 L 38 13 " stroke-width="1" fill="undefined"/>
<path style="fill:#84D567;fill-opacity:1" d="M 37 13 L 37 12 L 38 12 L 38 13 L 37 13 " stroke-width="1" fill="undefined"/>
<path style="fill:#82D665;fill-opacity:1" d="M 38 13 L 39 13 L 39 14 L 38 14 L 38 13 " stroke-width="1" fill="undefined"/>
<path style="fill:#71E44D;fill-opacity:1" d="M 39 15 Q 38.5 15 38.25 14.75 Q 38 14.5 38 14 L 39 14 L 39 15 M 31 10 Q 30.5 10 30.25 9.75 Q 30 9.5 30 9 L 31 9 L 31 10 " stroke-width="1" fill="undefined"/>
<path style="fill:#76E652;fill-opacity:1" d="M 38 13 L 38 14 Q 37.5 14 37.25 13.75 Q 37 13.5 37 13 L 38 13 " stroke-width="1" fill="undefined"/>
<path style="fill:#1A2F13;fill-opacity:1" d="M 39 14 L 39 13 L 40 13 L 40 14 L 39 14 " stroke-width="1" fill="undefined"/>
<path style="fill:#7DD25F;fill-opacity:1" d="M 39 14 L 40 14 L 40 15 L 39 15 L 39 14 " stroke-width="1" fill="undefined"/>
<path style="fill:#5EAD44;fill-opacity:1" d="M 41 15 L 41 16 Q 40.5 16 40.25 15.75 Q 40 15.5 40 15 L 41 15 " stroke-width="1" fill="undefined"/>
<path style="fill:#2C5A1D;fill-opacity:1" d="M 42 17 Q 41.5 17 41.25 16.75 Q 41 16.5 41 16 L 41.75 16.25 L 42 17 " stroke-width="1" fill="undefined"/>
<path style="fill:#0F1C0A;fill-opacity:1" d="M 40 15 L 40 14 L 41 14 L 41 15 L 40 15 " stroke-width="1" fill="undefined"/>
<path style="fill:#000000;fill-opacity:0.0705882" d="M 44 17 L 44 16 L 44.75 16.25 L 45 17 L 44 17 M 45 36 L 46 36 L 45.75 36.75 L 45 37 L 45 36 M 40 41 L 41 41 L 40.75 41.75 L 40 42 L 40 41 " stroke-width="1" fill="undefined"/>
<path style="fill:#13220E;fill-opacity:1" d="M 37 11 L 38 11 L 38 12 L 37 12 L 37 11 " stroke-width="1" fill="undefined"/>
<path style="fill:#000000;fill-opacity:0.0745098" d="M 35 8 L 35 7 L 35.75 7.25 L 36 8 L 35 8 " stroke-width="1" fill="undefined"/>
<path style="fill:#000000;fill-opacity:0.12549" d="M 33 6 L 33.75 6.25 L 34 7 L 33 7 L 33 6 " stroke-width="1" fill="undefined"/>
<path style="fill:#000000;fill-opacity:0.545098" d="M 32 6 L 33 6 L 33 7 L 32 7 L 32 6 M 35 8 Q 34.5 8 34.25 7.75 Q 34 7.5 34 7 L 35 7 L 35 8 " stroke-width="1" fill="undefined"/>
<path style="fill:#2A481F;fill-opacity:1" d="M 34 10 L 34 9 L 35 9 L 35 10 L 34 10 " stroke-width="1" fill="undefined"/>
<path style="fill:#77BD5D;fill-opacity:1" d="M 33 9 L 34 9 L 34 10 L 33 10 L 33 9 " stroke-width="1" fill="undefined"/>
<path style="fill:#83EC61;fill-opacity:1" d="M 34 11 L 33 11 L 33 10 L 34 10 L 34 11 " stroke-width="1" fill="undefined"/>
<path style="fill:#94F373;fill-opacity:1" d="M 33 9 L 33 10 L 32 10 L 32 9 L 33 9 " stroke-width="1" fill="undefined"/>
<path style="fill:#97F476;fill-opacity:1" d="M 35 11 L 34 11 L 34 10 L 35 10 L 35 11 " stroke-width="1" fill="undefined"/>
<path style="fill:#70E44C;fill-opacity:1" d="M 33 10 L 33 11 Q 32.5 11 32.25 10.75 Q 32 10.5 32 10 L 33 10 " stroke-width="1" fill="undefined"/>
<path style="fill:#73E550;fill-opacity:1" d="M 35 12 Q 34.5 12 34.25 11.75 Q 34 11.5 34 11 L 35 11 L 35 12 " stroke-width="1" fill="undefined"/>
<path style="fill:#4E7E3D;fill-opacity:1" d="M 35 11 L 35 10 L 35.75 10.25 L 36 11 L 35 11 " stroke-width="1" fill="undefined"/>
<path style="fill:#7AC260;fill-opacity:1" d="M 37 12 L 36 12 L 36 11 L 37 11 L 37 12 " stroke-width="1" fill="undefined"/>
<path style="fill:#000000;fill-opacity:0.564706" d="M 37.25 9.75 Q 37 9.5 37 9 L 37.75 9.25 L 38 10 Q 37.5 10 37.25 9.75 " stroke-width="1" fill="undefined"/>
<path style="fill:#8CEF6A;fill-opacity:1" d="M 35 11 L 36 11 L 36 12 L 35 12 L 35 11 " stroke-width="1" fill="undefined"/>
<path style="fill:#315525;fill-opacity:1" d="M 32 9 L 32 8 L 32.75 8.25 L 33 9 L 32 9 " stroke-width="1" fill="undefined"/>
<path style="fill:#76BD5C;fill-opacity:1" d="M 32 9 L 31 9 L 31 8 L 32 8 L 32 9 " stroke-width="1" fill="undefined"/>
<path style="fill:#7FEA5D;fill-opacity:1" d="M 28 8 L 28 7 L 29 7 L 29 8 L 28 8 " stroke-width="1" fill="undefined"/>
<path style="fill:#76E653;fill-opacity:1" d="M 29 9 Q 28.5 9 28.25 8.75 Q 28 8.5 28 8 L 29 8 L 29 9 " stroke-width="1" fill="undefined"/>
<path style="fill:#3C622D;fill-opacity:1" d="M 29 8 L 29 7 L 29.75 7.25 L 30 8 L 29 8 " stroke-width="1" fill="undefined"/>
<path style="fill:#88EE66;fill-opacity:1" d="M 29 8 L 30 8 L 30 9 L 29 9 L 29 8 " stroke-width="1" fill="undefined"/>
<path style="fill:#82EB5F;fill-opacity:1" d="M 32 9 L 32 10 L 31 10 L 31 9 L 32 9 " stroke-width="1" fill="undefined"/>
<path style="fill:#95F174;fill-opacity:1" d="M 31 9 L 30 9 L 30 8 L 31 8 L 31 9 " stroke-width="1" fill="undefined"/>
<path style="fill:#61C42F;fill-opacity:1" d="M 28 17 L 28.75 17.25 L 29 18 L 28 18 L 28 17 " stroke-width="1" fill="undefined"/>
<path style="fill:#7FEA5C;fill-opacity:1" d="M 37 12 L 37 13 Q 36.5 13 36.25 12.75 Q 36 12.5 36 12 L 37 12 " stroke-width="1" fill="undefined"/>
<path style="fill:#64CB34;fill-opacity:1" d="M 33 21 L 33.75 21.25 L 34 22 L 33 22 L 33 21 " stroke-width="1" fill="undefined"/>
<path style="fill:#63AB0A;fill-opacity:1" d="M 33 22 L 34 22 L 34 23 L 33 23 L 33 22 " stroke-width="1" fill="undefined"/>
<path style="fill:#63CD37;fill-opacity:1" d="M 34 24 L 34 23 L 34.75 23.25 L 35 24 L 34 24 " stroke-width="1" fill="undefined"/>
<path style="fill:#85CA00;fill-opacity:1" d="M 34 23 L 34 24 L 33 24 L 33 23 L 34 23 " stroke-width="1" fill="undefined"/>
<path style="fill:#A3E800;fill-opacity:1" d="M 23 18 L 24 18 Q 24 19 24.4 19.8 Q 24.5 20 25 20 L 26 20 L 27 20 Q 27 20.5 27.25 20.75 Q 27.5 21 28 21 L 29 21 Q 29 21.5 29.25 21.75 Q 29.5 22 30 22 L 30.25 22.75 L 31 23 Q 31 23.5 31.25 23.75 L 32 24 L 32 25 Q 32.5 25.5 33 25.5 L 33 25 L 33 24 L 34 24 L 34 25 L 34 26 L 34 27 L 34 28 L 34 29 L 33 29 L 33 30 L 32 30 L 31 30 L 31 31 L 30 31 L 29 31 L 28 31 L 24 31 L 23 31 L 22 31 L 21 31 Q 21 30.5 20.75 30.25 Q 20.5 30 20 30 L 19 30 L 18 30 Q 18 29.5 17.75 29.25 Q 17.5 29 17 29 Q 17 28.5 16.75 28.25 Q 16.5 28 16 28 Q 16 27.5 15.75 27.25 Q 15.5 27 15 27 L 15 26 L 15 25 L 15.75 24.75 Q 16 24.5 16 24 L 16 23 L 16 22 Q 16.5 22 16.75 21.75 Q 17 21.5 17 21 Q 17.5 21 17.75 20.75 Q 18 20.5 18 20 L 19 20 Q 19.5 20 19.75 19.75 Q 20 19.5 20 19 L 21 19 Q 21.5 19 21.75 18.75 Q 22 18.5 22 18 L 23 18 M 27 27 Q 29.7 27.7 29.95 26 L 30 25 L 30 24 L 29.75 23.25 Q 29.5 23 29 23 L 28 23 L 27 23 L 27 24 L 26 24 L 26 25 L 26 26 Q 26 26.5 26.25 26.75 L 27 27 M 22 23 L 21 23 L 20 23 L 19 23 L 19 24 L 19 25 L 19 26 L 19 27 L 19 28 L 19.25 28.75 L 20 29 L 21 29 L 21.25 29.75 L 22 30 L 22.75 29.75 Q 23 29.5 23 29 L 23.75 28.75 L 24 28 L 24 27 L 24 26 L 24 25 L 24 24 Q 24 23.5 23.75 23.25 Q 23.5 23 23 23 L 22 23 " stroke-width="1" fill="undefined"/>
<path style="fill:#BDF905;fill-opacity:1" d="M 33 25 L 32 25 L 32 24 L 32 23 L 33 23 L 33 24 L 33 25 " stroke-width="1" fill="undefined"/>
<path style="fill:#A9EC01;fill-opacity:1" d="M 32 23 L 32 22 L 33 22 L 33 23 L 32 23 " stroke-width="1" fill="undefined"/>
<path style="fill:#54AB1E;fill-opacity:1" d="M 34 25 L 34 24 L 35 24 L 35 25 L 34 25 " stroke-width="1" fill="undefined"/>
<path style="fill:#54B432;fill-opacity:1" d="M 37 24 L 36 24 L 36 23 L 37 23 L 37 24 " stroke-width="1" fill="undefined"/>
<path style="fill:#617E4A;fill-opacity:1" d="M 37 25 L 36 25 L 36 24 L 37 24 L 37 25 " stroke-width="1" fill="undefined"/>
<path style="fill:#59B836;fill-opacity:1" d="M 38 23 L 37 23 L 37 22 L 38 22 L 38 23 " stroke-width="1" fill="undefined"/>
<path style="fill:#706667;fill-opacity:1" d="M 38 24 L 37 24 L 37 23 L 38 23 L 38 24 " stroke-width="1" fill="undefined"/>
<path style="fill:#77BA00;fill-opacity:1" d="M 33 21 L 33 22 L 32 22 L 32 21 L 33 21 " stroke-width="1" fill="undefined"/>
<path style="fill:#5AC339;fill-opacity:1" d="M 36 25 L 35 25 L 35 24 L 36 24 L 36 25 " stroke-width="1" fill="undefined"/>
<path style="fill:#63C832;fill-opacity:1" d="M 30 18 L 30.75 18.25 L 31 19 L 30 19 L 30 18 " stroke-width="1" fill="undefined"/>
<path style="fill:#80C400;fill-opacity:1" d="M 32 20 L 32 21 L 31 21 L 31 20 L 32 20 M 28 18 L 29 18 L 29 19 L 28 19 L 28 18 " stroke-width="1" fill="undefined"/>
<path style="fill:#BBF608;fill-opacity:1" d="M 30 21 L 30 20 L 31 20 L 31 21 L 30 21 " stroke-width="1" fill="undefined"/>
<path style="fill:#5DB723;fill-opacity:1" d="M 32 21 L 32 20 L 32.75 20.25 L 33 21 L 32 21 " stroke-width="1" fill="undefined"/>
<path style="fill:#B9F607;fill-opacity:1" d="M 32 22 L 31 22 L 31 21 L 32 21 L 32 22 " stroke-width="1" fill="undefined"/>
<path style="fill:#5CB723;fill-opacity:1" d="M 31 19 L 31.75 19.25 L 32 20 L 31 20 L 31 19 " stroke-width="1" fill="undefined"/>
<path style="fill:#76B800;fill-opacity:1" d="M 30 20 L 30 19 L 31 19 L 31 20 L 30 20 " stroke-width="1" fill="undefined"/>
<path style="fill:#60A90B;fill-opacity:1" d="M 29 18 L 30 18 L 30 19 L 29 19 L 29 18 " stroke-width="1" fill="undefined"/>
<path style="fill:#A0E400;fill-opacity:1" d="M 27 18 L 28 18 L 28 19 L 27 19 L 27 18 " stroke-width="1" fill="undefined"/>
<path style="fill:#C5FA0D;fill-opacity:1" d="M 29 21 L 28 21 L 28 20 L 28 19 L 29 19 L 29 20 L 29 21 " stroke-width="1" fill="undefined"/>
<path style="fill:#D4FF14;fill-opacity:1" d="M 29 21 L 29 20 L 30 20 L 30 21 L 29 21 " stroke-width="1" fill="undefined"/>
<path style="fill:#ACEE01;fill-opacity:1" d="M 27.25 20.75 Q 27 20.5 27 20 L 28 20 L 28 21 Q 27.5 21 27.25 20.75 " stroke-width="1" fill="undefined"/>
<path style="fill:#ABEC02;fill-opacity:1" d="M 29 20 L 29 19 L 30 19 L 30 20 L 29 20 " stroke-width="1" fill="undefined"/>
<path style="fill:#CFFF11;fill-opacity:1" d="M 27 20 L 27 19 L 28 19 L 28 20 L 27 20 " stroke-width="1" fill="undefined"/>
<path style="fill:#B2F204;fill-opacity:1" d="M 29.25 21.75 Q 29 21.5 29 21 L 30 21 L 30 22 Q 29.5 22 29.25 21.75 " stroke-width="1" fill="undefined"/>
<path style="fill:#5C9007;fill-opacity:1" d="M 28 23 L 29 23 L 29 24 L 28 24 L 28 23 " stroke-width="1" fill="undefined"/>
<path style="fill:#14380F;fill-opacity:1" d="M 29.25 24.75 L 30 25 L 29.95 26 Q 29.7 27.7 27 27 L 27 26 L 27 25 L 27.75 24.75 L 28 24 L 29 24 Q 29 24.5 29.25 24.75 " stroke-width="1" fill="undefined"/>
<path style="fill:#8CCC01;fill-opacity:1" d="M 27 24 L 27 23 L 28 23 L 28 24 L 27 24 " stroke-width="1" fill="undefined"/>
<path style="fill:#87C502;fill-opacity:1" d="M 29.75 23.25 L 30 24 L 29 24 L 29 23 Q 29.5 23 29.75 23.25 " stroke-width="1" fill="undefined"/>
<path style="fill:#254E0D;fill-opacity:1" d="M 30 25 L 29.25 24.75 Q 29 24.5 29 24 L 30 24 L 30 25 " stroke-width="1" fill="undefined"/>
<path style="fill:#AFF002;fill-opacity:1" d="M 30.25 22.75 L 30 22 L 31 22 L 31 23 L 30.25 22.75 " stroke-width="1" fill="undefined"/>
<path style="fill:#CFFF10;fill-opacity:1" d="M 31 23 L 31 22 L 32 22 L 32 23 L 31 23 " stroke-width="1" fill="undefined"/>
<path style="fill:#B8F506;fill-opacity:1" d="M 31.25 23.75 Q 31 23.5 31 23 L 32 23 L 32 24 L 31.25 23.75 " stroke-width="1" fill="undefined"/>
<path style="fill:#D3FF14;fill-opacity:1" d="M 30 22 L 30 21 L 31 21 L 31 22 L 30 22 " stroke-width="1" fill="undefined"/>
<path style="fill:#9ADA00;fill-opacity:1" d="M 32 31 L 31 31 L 31 30 L 32 30 L 32 31 " stroke-width="1" fill="undefined"/>
<path style="fill:#602F6F;fill-opacity:1" d="M 38 26 L 39 26 L 40 26 L 39.75 26.75 L 39 27 L 38 27 L 37 27 L 37 26 L 38 26 " stroke-width="1" fill="undefined"/>
<path style="fill:#6A4C70;fill-opacity:1" d="M 36 26 L 37 26 L 37 27 L 36 27 L 36 26 " stroke-width="1" fill="undefined"/>
<path style="fill:#814496;fill-opacity:1" d="M 38 25 L 38 26 L 37 26 L 37 25 L 38 25 " stroke-width="1" fill="undefined"/>
<path style="fill:#8B6C8F;fill-opacity:1" d="M 36 25 L 37 25 L 37 26 L 36 26 L 36 25 " stroke-width="1" fill="undefined"/>
<path style="fill:#7A5A7F;fill-opacity:1" d="M 37 28 L 36 28 L 36 27 L 37 27 L 37 28 " stroke-width="1" fill="undefined"/>
<path style="fill:#449D22;fill-opacity:1" d="M 35 27 L 35 26 L 36 26 L 36 27 L 35 27 " stroke-width="1" fill="undefined"/>
<path style="fill:#47A227;fill-opacity:1" d="M 35 25 L 36 25 L 36 26 L 35 26 L 35 25 " stroke-width="1" fill="undefined"/>
<path style="fill:#4A990C;fill-opacity:1" d="M 34 26 L 34 25 L 35 25 L 35 26 L 34 26 " stroke-width="1" fill="undefined"/>
<path style="fill:#4C9006;fill-opacity:1" d="M 35 28 L 34 28 L 34 27 L 34 26 L 35 26 L 35 27 L 35 28 " stroke-width="1" fill="undefined"/>
<path style="fill:#ACF200;fill-opacity:1" d="M 33 25.5 Q 32.5 25.5 32 25 L 33 25 L 33 25.5 " stroke-width="1" fill="undefined"/>
<path style="fill:#89CA00;fill-opacity:1" d="M 34 30 L 33 30 L 33 29 L 34 29 L 34 30 " stroke-width="1" fill="undefined"/>
<path style="fill:#5EA309;fill-opacity:1" d="M 33 30 L 34 30 L 34 31 L 33 31 L 33 30 " stroke-width="1" fill="undefined"/>
<path style="fill:#5EBB28;fill-opacity:1" d="M 34 30 L 34 29 L 35 29 L 35 30 L 34 30 " stroke-width="1" fill="undefined"/>
<path style="fill:#68DD45;fill-opacity:1" d="M 36 29 L 36 30 L 35 30 L 35 29 L 36 29 " stroke-width="1" fill="undefined"/>
<path style="fill:#539C0D;fill-opacity:1" d="M 35 28 L 35 29 L 34 29 L 34 28 L 35 28 " stroke-width="1" fill="undefined"/>
<path style="fill:#6ADE44;fill-opacity:1" d="M 34 30 L 35 30 L 34.75 30.75 L 34 31 L 34 30 " stroke-width="1" fill="undefined"/>
<path style="fill:#5CCA3A;fill-opacity:1" d="M 35 29 L 35 28 L 36 28 L 36 29 L 35 29 " stroke-width="1" fill="undefined"/>
<path style="fill:#696161;fill-opacity:1" d="M 37 29 L 36 29 L 36 28 L 37 28 L 37 29 " stroke-width="1" fill="undefined"/>
<path style="fill:#49912A;fill-opacity:1" d="M 37 29 L 37 30 L 36 30 L 36 29 L 37 29 " stroke-width="1" fill="undefined"/>
<path style="fill:#48B52B;fill-opacity:1" d="M 37 31 L 36 31 L 36 30 L 37 30 L 37 31 " stroke-width="1" fill="undefined"/>
<path style="fill:#7A3F8D;fill-opacity:1" d="M 38 29 L 37 29 L 37 28 L 38 28 L 38 29 " stroke-width="1" fill="undefined"/>
<path style="fill:#754A7E;fill-opacity:1" d="M 37 30 L 37 29 L 38 29 L 38 30 L 37 30 " stroke-width="1" fill="undefined"/>
<path style="fill:#49AA2A;fill-opacity:1" d="M 35 27 L 36 27 L 36 28 L 35 28 L 35 27 " stroke-width="1" fill="undefined"/>
<path style="fill:#693579;fill-opacity:1" d="M 39 28 L 38 28 L 37 28 L 37 27 L 38 27 L 39 27 L 39 28 " stroke-width="1" fill="undefined"/>
<path style="fill:#8CCA00;fill-opacity:1" d="M 33 31 L 32 31 L 32 30 L 33 30 L 33 31 " stroke-width="1" fill="undefined"/>
<path style="fill:#985CAA;fill-opacity:1" d="M 37 25 L 37 24 L 38 24 L 38 25 L 37 25 " stroke-width="1" fill="undefined"/>
<path style="fill:#000000;fill-opacity:0.101961" d="M 45 19 L 45 18 L 45.75 18.25 L 46 19 L 45 19 " stroke-width="1" fill="undefined"/>
<path style="fill:#000000;fill-opacity:0.529412" d="M 45 20 L 45 19 L 46 19 L 46 20 L 45 20 " stroke-width="1" fill="undefined"/>
<path style="fill:#000000;fill-opacity:0.0666667" d="M 46 20 L 46.75 20.25 L 47 21 L 46 21 L 46 20 " stroke-width="1" fill="undefined"/>
<path style="fill:#000000;fill-opacity:0.360784" d="M 46 22 L 46 21 L 47 21 L 47 22 L 46 22 " stroke-width="1" fill="undefined"/>
<path style="fill:#000000;fill-opacity:0.956863" d="M 44 19 L 44 18 L 45 18 L 45 19 L 44 19 " stroke-width="1" fill="undefined"/>
<path style="fill:#3E8628;fill-opacity:1" d="M 43 20 L 44 20 L 44 21 L 43 21 L 43 20 " stroke-width="1" fill="undefined"/>
<path style="fill:#1F4314;fill-opacity:1" d="M 45 22 L 44 22 L 44 21 L 45 21 L 45 22 " stroke-width="1" fill="undefined"/>
<path style="fill:#152D0C;fill-opacity:1" d="M 43 19 L 44 19 L 44 20 L 43 20 L 43 19 " stroke-width="1" fill="undefined"/>
<path style="fill:#40872B;fill-opacity:1" d="M 45 23 L 44 23 L 44 22 L 45 22 L 45 23 " stroke-width="1" fill="undefined"/>
<path style="fill:#68D944;fill-opacity:1" d="M 43 23 L 43 22 L 44 22 L 44 23 L 43 23 " stroke-width="1" fill="undefined"/>
<path style="fill:#66D244;fill-opacity:1" d="M 45 23 L 45 24 L 44 24 L 44 23 L 45 23 " stroke-width="1" fill="undefined"/>
<path style="fill:#5F7B47;fill-opacity:1" d="M 44 23 L 44 24 L 43 24 L 43 23 L 44 23 " stroke-width="1" fill="undefined"/>
<path style="fill:#65994C;fill-opacity:1" d="M 45 25 L 44 25 L 44 24 L 45 24 L 45 25 " stroke-width="1" fill="undefined"/>
<path style="fill:#000000;fill-opacity:0.94902" d="M 46 24 L 46 23 L 47 23 L 47 24 L 46 24 M 41 39 L 42 39 L 42 40 L 41 40 L 41 39 " stroke-width="1" fill="undefined"/>
<path style="fill:#000000;fill-opacity:0.717647" d="M 46 23 L 46 22 L 47 22 L 47 23 L 46 23 " stroke-width="1" fill="undefined"/>
<path style="fill:#162F0E;fill-opacity:1" d="M 45 25 L 45 24 L 46 24 L 46 25 L 45 25 " stroke-width="1" fill="undefined"/>
<path style="fill:#408C26;fill-opacity:1" d="M 41 19 L 41 18 L 42 18 L 43 18 L 43 19 L 42 19 L 42 20 L 41 20 L 41 19 " stroke-width="1" fill="undefined"/>
<path style="fill:#2C6715;fill-opacity:1" d="M 42 20 L 42 19 L 43 19 L 43 20 L 42 20 " stroke-width="1" fill="undefined"/>
<path style="fill:#2F6D18;fill-opacity:1" d="M 40 19 L 40 18 L 41 18 L 41 19 L 40 19 " stroke-width="1" fill="undefined"/>
<path style="fill:#63D141;fill-opacity:1" d="M 43 20 L 43 21 Q 42.5 21 42.25 20.75 Q 42 20.5 42 20 L 43 20 " stroke-width="1" fill="undefined"/>
<path style="fill:#4FAA30;fill-opacity:1" d="M 40 19 L 41 19 L 41 20 L 40 20 L 40 19 " stroke-width="1" fill="undefined"/>
<path style="fill:#387F1F;fill-opacity:1" d="M 39 19 L 39 18 L 40 18 L 40 19 L 39 19 " stroke-width="1" fill="undefined"/>
<path style="fill:#61CE40;fill-opacity:1" d="M 39 19 Q 38.5 19 38.25 18.75 Q 38 18.5 38 18 L 39 18 L 39 19 " stroke-width="1" fill="undefined"/>
<path style="fill:#5AC03A;fill-opacity:1" d="M 40 20 Q 39.5 20 39.25 19.75 Q 39 19.5 39 19 L 40 19 L 40 20 " stroke-width="1" fill="undefined"/>
<path style="fill:#5C7246;fill-opacity:1" d="M 39 23 L 38 23 L 38 22 L 39 22 L 39 23 " stroke-width="1" fill="undefined"/>
<path style="fill:#9453A9;fill-opacity:1" d="M 41 24 L 38 24 L 38 23 L 39 23 L 40 23 L 41 23 L 42 23 L 42 24 L 41 24 " stroke-width="1" fill="undefined"/>
<path style="fill:#795B7A;fill-opacity:1" d="M 39 23 L 39 22 L 40 22 L 40 23 L 39 23 " stroke-width="1" fill="undefined"/>
<path style="fill:#815788;fill-opacity:1" d="M 41 23 L 40 23 L 40 22 L 41 22 L 41 23 " stroke-width="1" fill="undefined"/>
<path style="fill:#5C8740;fill-opacity:1" d="M 42 22 L 43 22 L 43 23 L 42 23 L 42 22 " stroke-width="1" fill="undefined"/>
<path style="fill:#8F51A1;fill-opacity:1" d="M 42 24 L 42 23 L 43 23 L 43 24 L 42 24 " stroke-width="1" fill="undefined"/>
<path style="fill:#9250A7;fill-opacity:1" d="M 38 24 L 41 24 L 42 24 L 43 24 Q 43 24.5 43.25 24.75 L 44 25 L 44 26 L 43 26 L 42 26 L 41.85 25.45 L 39 25 L 39 26 L 38 26 L 38 25 L 38 24 " stroke-width="1" fill="undefined"/>
<path style="fill:#735D70;fill-opacity:1" d="M 42 23 L 41 23 L 41 22 L 42 22 L 42 23 " stroke-width="1" fill="undefined"/>
<path style="fill:#653275;fill-opacity:1" d="M 45 28 L 44 28 L 40 28 L 39 28 L 39 27 L 39.75 26.75 L 40 26 L 41 26 L 42 26 L 43 26 L 44 26 L 45 26 L 45 27 L 45 28 " stroke-width="1" fill="undefined"/>
<path style="fill:#9752AC;fill-opacity:1" d="M 41 26 L 40 26 L 39 26 L 39 25 L 41.85 25.45 L 42 26 L 41 26 " stroke-width="1" fill="undefined"/>
<path style="fill:#834597;fill-opacity:1" d="M 39 29 L 38 29 L 38 28 L 39 28 L 39 29 " stroke-width="1" fill="undefined"/>
<path style="fill:#773E8A;fill-opacity:1" d="M 39 29 L 39 30 L 38 30 L 38 29 L 39 29 " stroke-width="1" fill="undefined"/>
<path style="fill:#675266;fill-opacity:1" d="M 39 31 L 38 31 L 38 30 L 39 30 L 39 31 " stroke-width="1" fill="undefined"/>
<path style="fill:#7C4190;fill-opacity:1" d="M 39 30 L 39 29 L 40 29 L 40 30 L 39 30 " stroke-width="1" fill="undefined"/>
<path style="fill:#87489B;fill-opacity:1" d="M 41 29 L 41 30 L 40 30 L 40 29 L 41 29 " stroke-width="1" fill="undefined"/>
<path style="fill:#9450A9;fill-opacity:1" d="M 39 29 L 39 28 L 40 28 L 40 29 L 39 29 " stroke-width="1" fill="undefined"/>
<path style="fill:#764286;fill-opacity:1" d="M 39 31 L 39 30 L 40 30 L 40 31 L 39 31 " stroke-width="1" fill="undefined"/>
<path style="fill:#9752AD;fill-opacity:1" d="M 44 28 L 45 28 L 45 29 L 44 29 L 43 29 L 41 29 L 40 29 L 40 28 L 44 28 " stroke-width="1" fill="undefined"/>
<path style="fill:#914EA6;fill-opacity:1" d="M 44 30 L 43 30 L 42 30 L 41 30 L 41 29 L 43 29 L 44 29 L 44 30 " stroke-width="1" fill="undefined"/>
<path style="fill:#793F8D;fill-opacity:1" d="M 42 30 L 42 31 L 41 31 L 40 31 L 40 30 L 41 30 L 42 30 " stroke-width="1" fill="undefined"/>
<path style="fill:#745279;fill-opacity:1" d="M 43 31 L 42 31 L 42 30 L 43 30 L 43 31 " stroke-width="1" fill="undefined"/>
<path style="fill:#000000;fill-opacity:0.443137" d="M 47 26 L 47 25 L 48 25 L 48 26 L 47 26 " stroke-width="1" fill="undefined"/>
<path style="fill:#405539;fill-opacity:1" d="M 45 27 L 45 26 L 46 26 L 46 27 L 45 27 " stroke-width="1" fill="undefined"/>
<path style="fill:#000000;fill-opacity:0.611765" d="M 47 27 L 47 26 L 48 26 L 48 27 L 47 27 " stroke-width="1" fill="undefined"/>
<path style="fill:#315627;fill-opacity:1" d="M 45 26 L 45 25 L 46 25 L 46 26 L 45 26 " stroke-width="1" fill="undefined"/>
<path style="fill:#8F589F;fill-opacity:1" d="M 45 26 L 44 26 L 44 25 L 45 25 L 45 26 " stroke-width="1" fill="undefined"/>
<path style="fill:#975FA8;fill-opacity:1" d="M 43.25 24.75 Q 43 24.5 43 24 L 44 24 L 44 25 L 43.25 24.75 " stroke-width="1" fill="undefined"/>
<path style="fill:#808D7B;fill-opacity:1" d="M 45 30 L 44 30 L 44 29 L 45 29 L 45 30 " stroke-width="1" fill="undefined"/>
<path style="fill:#578449;fill-opacity:1" d="M 46 28 L 46 29 L 45 29 L 45 28 L 46 28 " stroke-width="1" fill="undefined"/>
<path style="fill:#43902C;fill-opacity:1" d="M 46 29 L 46 30 L 45 30 L 45 29 L 46 29 " stroke-width="1" fill="undefined"/>
<path style="fill:#000000;fill-opacity:0.658824" d="M 48 29 L 48 30 L 47 30 L 47 29 L 48 29 " stroke-width="1" fill="undefined"/>
<path style="fill:#000000;fill-opacity:0.541176" d="M 47 31 L 47 30 L 48 30 L 48 31 L 47 31 " stroke-width="1" fill="undefined"/>
<path style="fill:#485E41;fill-opacity:1" d="M 45 28 L 45 27 L 46 27 L 46 28 L 45 28 " stroke-width="1" fill="undefined"/>
<path style="fill:#32731F;fill-opacity:1" d="M 45 31 L 45 30 L 46 30 L 46 31 L 45 31 " stroke-width="1" fill="undefined"/>
<path style="fill:#71AA5C;fill-opacity:1" d="M 43 30 L 44 30 L 43.75 30.75 L 43 31 L 43 30 " stroke-width="1" fill="undefined"/>
<path style="fill:#58AA19;fill-opacity:1" d="M 27 17 L 28 17 L 28 18 L 27 18 L 27 17 " stroke-width="1" fill="undefined"/>
<path style="fill:#498A2A;fill-opacity:1" d="M 37 31 L 37 30 L 38 30 L 38 31 L 37 31 " stroke-width="1" fill="undefined"/>
<path style="fill:#63BB47;fill-opacity:1" d="M 23 6 L 24 6 Q 24 6.5 23.75 6.75 Q 23.5 7 23 7 L 23 6 " stroke-width="1" fill="undefined"/>
<path style="fill:#478433;fill-opacity:1" d="M 23 6 L 23 7 L 22 7 L 22 6 L 23 6 " stroke-width="1" fill="undefined"/>
<path style="fill:#356925;fill-opacity:1" d="M 22 6 L 22 7 L 21 7 L 21 6 L 22 6 " stroke-width="1" fill="undefined"/>
<path style="fill:#274E1A;fill-opacity:1" d="M 21 6 L 21 7 L 20 7 L 20 6 L 21 6 " stroke-width="1" fill="undefined"/>
<path style="fill:#1F4015;fill-opacity:1" d="M 19 6 L 20 6 L 20 7 L 19 7 L 19 6 " stroke-width="1" fill="undefined"/>
<path style="fill:#57B73A;fill-opacity:1" d="M 17 7 L 18 7 Q 18 7.5 17.75 7.75 Q 17.5 8 17 8 L 17 7 " stroke-width="1" fill="undefined"/>
<path style="fill:#65CF37;fill-opacity:1" d="M 21 18 L 20 18 L 20 17 L 21 17 L 21 18 " stroke-width="1" fill="undefined"/>
<path style="fill:#5AB11F;fill-opacity:1" d="M 22 18 L 21 18 L 21 17 L 22 17 L 22 18 " stroke-width="1" fill="undefined"/>
<path style="fill:#4F9305;fill-opacity:1" d="M 23 17 L 25 17 L 26 17 L 26 18 L 25 18 L 24 18 L 23 18 L 23 17 " stroke-width="1" fill="undefined"/>
<path style="fill:#51990B;fill-opacity:1" d="M 26 17 L 27 17 L 27 18 L 26 18 L 26 17 " stroke-width="1" fill="undefined"/>
<path style="fill:#539E0F;fill-opacity:1" d="M 22 17 L 23 17 L 23 18 L 22 18 L 22 17 " stroke-width="1" fill="undefined"/>
<path style="fill:#346E22;fill-opacity:1" d="M 17 8 L 16 8 L 16 7 L 17 7 L 17 8 " stroke-width="1" fill="undefined"/>
<path style="fill:#1B3812;fill-opacity:1" d="M 15 7 L 16 7 L 16 8 L 15 8 L 15 7 " stroke-width="1" fill="undefined"/>
<path style="fill:#336922;fill-opacity:1" d="M 15 8 L 14 8 L 14 7 L 15 7 L 15 8 " stroke-width="1" fill="undefined"/>
<path style="fill:#172C0F;fill-opacity:1" d="M 14 7 L 13 7 L 13 6 L 14 6 L 14 7 M 10 9 L 9 9 L 9 8 L 10 8 L 10 9 " stroke-width="1" fill="undefined"/>
<path style="fill:#275D1A;fill-opacity:1" d="M 12 7 L 12 6 L 13 6 L 13 7 L 12 7 " stroke-width="1" fill="undefined"/>
<path style="fill:#69D145;fill-opacity:1" d="M 13 7 L 14 7 L 14 8 L 13 8 L 13 7 " stroke-width="1" fill="undefined"/>
<path style="fill:#2C661D;fill-opacity:1" d="M 12 7 L 13 7 L 13 8 L 12 8 L 12 7 " stroke-width="1" fill="undefined"/>
<path style="fill:#63C43F;fill-opacity:1" d="M 12 8 L 13 8 Q 13 8.5 12.75 8.75 Q 12.5 9 12 9 L 12 8 " stroke-width="1" fill="undefined"/>
<path style="fill:#0A2608;fill-opacity:1" d="M 11 6 L 12 6 L 12 7 L 12 8 L 11 8 L 11 7 L 11 6 " stroke-width="1" fill="undefined"/>
<path style="fill:#3E8229;fill-opacity:1" d="M 11 8 L 12 8 L 12 9 L 11 9 L 11 8 " stroke-width="1" fill="undefined"/>
<path style="fill:#0F300B;fill-opacity:1" d="M 11 7 L 11 8 L 10 8 L 10 7 L 10 6 L 11 6 L 11 7 " stroke-width="1" fill="undefined"/>
<path style="fill:#57B038;fill-opacity:1" d="M 10 7 L 10 8 L 9 8 L 9 7 L 9 6 L 10 6 L 10 7 " stroke-width="1" fill="undefined"/>
<path style="fill:#3D7428;fill-opacity:1" d="M 8 7 L 8 6 L 9 6 L 9 7 L 8 7 " stroke-width="1" fill="undefined"/>
<path style="fill:#234418;fill-opacity:1" d="M 9 7 L 9 8 L 8 8 L 8 7 L 9 7 " stroke-width="1" fill="undefined"/>
<path style="fill:#44912E;fill-opacity:1" d="M 11 9 L 11 10 L 10 10 L 10 9 L 11 9 " stroke-width="1" fill="undefined"/>
<path style="fill:#204316;fill-opacity:1" d="M 10 11 Q 10 11.5 9.75 11.75 Q 9.5 12 9 12 L 9 11 L 10 11 " stroke-width="1" fill="undefined"/>
<path style="fill:#000000;fill-opacity:0.890196" d="M 23 45 L 24 45 L 24 46 L 23 46 L 23 45 M 9 10 L 9 11 L 8 11 L 8 10 L 9 10 " stroke-width="1" fill="undefined"/>
<path style="fill:#5FCB3F;fill-opacity:1" d="M 11 10 Q 11 10.5 10.75 10.75 Q 10.5 11 10 11 L 10 10 L 11 10 " stroke-width="1" fill="undefined"/>
<path style="fill:#6BE645;fill-opacity:1" d="M 11 9 L 12 9 Q 12 9.5 11.75 9.75 Q 11.5 10 11 10 L 11 9 " stroke-width="1" fill="undefined"/>
<path style="fill:#4FA133;fill-opacity:1" d="M 11 8 L 11 9 L 10 9 L 10 8 L 11 8 " stroke-width="1" fill="undefined"/>
<path style="fill:#254D19;fill-opacity:1" d="M 9 12 Q 9 12.5 8.75 12.75 Q 8.5 13 8 13 L 8 12 L 9 12 " stroke-width="1" fill="undefined"/>
<path style="fill:#5DB825;fill-opacity:1" d="M 16 21 L 16 20 L 17 20 L 17 21 L 16 21 " stroke-width="1" fill="undefined"/>
<path style="fill:#73B500;fill-opacity:1" d="M 16 21 L 17 21 Q 17 21.5 16.75 21.75 Q 16.5 22 16 22 L 16 21 " stroke-width="1" fill="undefined"/>
<path style="fill:#60BF2C;fill-opacity:1" d="M 18 20 L 17 20 L 17 19 L 18 19 L 18 20 " stroke-width="1" fill="undefined"/>
<path style="fill:#7CBF00;fill-opacity:1" d="M 17.75 20.75 Q 17.5 21 17 21 L 17 20 L 18 20 Q 18 20.5 17.75 20.75 " stroke-width="1" fill="undefined"/>
<path style="fill:#5DA206;fill-opacity:1" d="M 16 22 L 16 23 L 15 23 L 15 22 L 16 22 " stroke-width="1" fill="undefined"/>
<path style="fill:#60C32F;fill-opacity:1" d="M 14 24 L 14 23 L 15 23 L 15 24 L 14 24 " stroke-width="1" fill="undefined"/>
<path style="fill:#58AC1F;fill-opacity:1" d="M 15 25 L 14 25 L 14 24 L 15 24 L 15 25 " stroke-width="1" fill="undefined"/>
<path style="fill:#76866B;fill-opacity:1" d="M 14 25 L 13 25 L 13 24 L 14 24 L 14 25 " stroke-width="1" fill="undefined"/>
<path style="fill:#806C81;fill-opacity:1" d="M 12 24 L 12 23 Q 12.5 23 12.75 23.25 Q 13 23.5 13 24 L 12 24 " stroke-width="1" fill="undefined"/>
<path style="fill:#81C300;fill-opacity:1" d="M 16 24 L 15 24 L 15 23 L 16 23 L 16 24 " stroke-width="1" fill="undefined"/>
<path style="fill:#61C32E;fill-opacity:1" d="M 16 22 L 15 22 L 15 21 L 16 21 L 16 22 " stroke-width="1" fill="undefined"/>
<path style="fill:#9BE000;fill-opacity:1" d="M 15 25 L 15 24 L 16 24 Q 16 24.5 15.75 24.75 L 15 25 " stroke-width="1" fill="undefined"/>
<path style="fill:#60CC3F;fill-opacity:1" d="M 10 19 L 11 19 Q 11 19.5 10.75 19.75 Q 10.5 20 10 20 L 10 19 " stroke-width="1" fill="undefined"/>
<path style="fill:#4AA02C;fill-opacity:1" d="M 10 19 L 10 18 L 10.75 18.25 Q 11 18.5 11 19 L 10 19 " stroke-width="1" fill="undefined"/>
<path style="fill:#2E6C17;fill-opacity:1" d="M 9 19 L 9 18 L 10 18 L 10 19 L 9 19 " stroke-width="1" fill="undefined"/>
<path style="fill:#53B234;fill-opacity:1" d="M 9 19 L 10 19 L 10 20 L 9 20 L 9 19 " stroke-width="1" fill="undefined"/>
<path style="fill:#367C1E;fill-opacity:1" d="M 9 18 L 9 19 L 8 19 L 8 18 L 9 18 " stroke-width="1" fill="undefined"/>
<path style="fill:#46992A;fill-opacity:1" d="M 8 19 L 9 19 L 9 20 L 8 20 L 8 19 " stroke-width="1" fill="undefined"/>
<path style="fill:#806982;fill-opacity:1" d="M 10 23 L 9 23 L 8 23 L 8 22 L 9 22 L 10 22 L 10 23 " stroke-width="1" fill="undefined"/>
<path style="fill:#737867;fill-opacity:1" d="M 11 23 L 10 23 L 10 22 L 11 22 L 11 23 " stroke-width="1" fill="undefined"/>
<path style="fill:#66934E;fill-opacity:1" d="M 11 22 Q 11.5 22 11.75 22.25 Q 12 22.5 12 23 L 11 23 L 11 22 " stroke-width="1" fill="undefined"/>
<path style="fill:#4E235A;fill-opacity:1" d="M 12 27 L 12 26 L 13 26 L 13 27 L 12 27 " stroke-width="1" fill="undefined"/>
<path style="fill:#562A65;fill-opacity:1" d="M 12 27 L 11 27 L 11 26 L 12 26 L 12 27 " stroke-width="1" fill="undefined"/>
<path style="fill:#8A4A9E;fill-opacity:1" d="M 13 26 L 12 26 L 12 25 L 13 25 L 13 26 " stroke-width="1" fill="undefined"/>
<path style="fill:#7A408B;fill-opacity:1" d="M 11 27 L 12 27 L 12 28 L 11 28 L 11 27 " stroke-width="1" fill="undefined"/>
<path style="fill:#5F2E6E;fill-opacity:1" d="M 11 26 L 11 27 L 11 28 L 10 28 L 10 27 L 10 26 L 11 26 " stroke-width="1" fill="undefined"/>
<path style="fill:#633172;fill-opacity:1" d="M 9 26 L 10 26 L 10 27 L 9 27 L 9 26 " stroke-width="1" fill="undefined"/>
<path style="fill:#6C377C;fill-opacity:1" d="M 9 26 L 9 27 L 8 27 L 8 26 L 9 26 " stroke-width="1" fill="undefined"/>
<path style="fill:#9450AA;fill-opacity:1" d="M 10 29 L 9 29 L 9 28 L 10 28 L 10 29 " stroke-width="1" fill="undefined"/>
<path style="fill:#8B4E9E;fill-opacity:1" d="M 9 29 L 9 30 L 8 30 L 8 29 L 9 29 " stroke-width="1" fill="undefined"/>
<path style="fill:#9052A5;fill-opacity:1" d="M 9 29 L 10 29 L 10.75 28.75 Q 11 28.5 11 28 L 12 28 L 13 28 L 13 29 L 12 29 L 12 30 L 11 30 L 10 30 L 9 30 L 9 29 " stroke-width="1" fill="undefined"/>
<path style="fill:#78428A;fill-opacity:1" d="M 10 31 L 9 31 L 8 31 L 8 30 L 9 30 L 10 30 L 10 31 " stroke-width="1" fill="undefined"/>
<path style="fill:#9957AF;fill-opacity:1" d="M 11 28 Q 11 28.5 10.75 28.75 L 10 29 L 10 28 L 11 28 " stroke-width="1" fill="undefined"/>
<path style="fill:#904EA5;fill-opacity:1" d="M 8 29 L 8 28 L 9 28 L 9 29 L 8 29 " stroke-width="1" fill="undefined"/>
<path style="fill:#725C73;fill-opacity:1" d="M 11 30 L 12 30 L 12 31 L 11 31 L 11 30 " stroke-width="1" fill="undefined"/>
<path style="fill:#8A758A;fill-opacity:1" d="M 12 30 L 12 29 L 13 29 L 13 30 L 12 30 " stroke-width="1" fill="undefined"/>
<path style="fill:#7B408E;fill-opacity:1" d="M 11 31 L 10 31 L 10 30 L 11 30 L 11 31 " stroke-width="1" fill="undefined"/>
<path style="fill:#965AAA;fill-opacity:1" d="M 13 27 L 13 28 L 12 28 L 12 27 L 13 27 " stroke-width="1" fill="undefined"/>
<path style="fill:#539C0F;fill-opacity:1" d="M 15 28 L 14 28 L 14 27 L 14 26 L 14 25 L 15 25 L 15 26 L 15 27 L 15 28 " stroke-width="1" fill="undefined"/>
<path style="fill:#796579;fill-opacity:1" d="M 13 27 L 13 26 L 14 26 L 14 27 L 13 27 " stroke-width="1" fill="undefined"/>
<path style="fill:#735876;fill-opacity:1" d="M 14 26 L 13 26 L 13 25 L 14 25 L 14 26 " stroke-width="1" fill="undefined"/>
<path style="fill:#919586;fill-opacity:1" d="M 13 27 L 14 27 L 14 28 L 13 28 L 13 27 " stroke-width="1" fill="undefined"/>
<path style="fill:#59B01F;fill-opacity:1" d="M 14 28 L 15 28 L 15 29 L 14 29 L 14 28 " stroke-width="1" fill="undefined"/>
<path style="fill:#5FBE39;fill-opacity:1" d="M 14 29 L 14 30 L 13 30 L 13 29 L 14 29 " stroke-width="1" fill="undefined"/>
<path style="fill:#569A06;fill-opacity:1" d="M 16 29 L 16 30 L 15 30 L 15 29 L 16 29 " stroke-width="1" fill="undefined"/>
<path style="fill:#68D53D;fill-opacity:1" d="M 14 29 L 15 29 L 15 30 L 14 30 L 14 29 " stroke-width="1" fill="undefined"/>
<path style="fill:#67914B;fill-opacity:1" d="M 14 28 L 14 29 L 13 29 L 13 28 L 14 28 " stroke-width="1" fill="undefined"/>
<path style="fill:#75B300;fill-opacity:1" d="M 16 29 L 15 29 L 15 28 L 16 28 L 16 29 " stroke-width="1" fill="undefined"/>
<path style="fill:#9ADB00;fill-opacity:1" d="M 16 29 L 16 28 Q 16.5 28 16.75 28.25 Q 17 28.5 17 29 L 16 29 " stroke-width="1" fill="undefined"/>
<path style="fill:#7EBA00;fill-opacity:1" d="M 16 30 L 16 29 L 17 29 L 17 30 L 16 30 " stroke-width="1" fill="undefined"/>
<path style="fill:#56A413;fill-opacity:1" d="M 16 30 L 17 30 L 17 31 L 16 31 L 16 30 " stroke-width="1" fill="undefined"/>
<path style="fill:#96D400;fill-opacity:1" d="M 17 30 L 17 29 Q 17.5 29 17.75 29.25 Q 18 29.5 18 30 L 17 30 " stroke-width="1" fill="undefined"/>
<path style="fill:#99DA00;fill-opacity:1" d="M 15 28 L 15 27 Q 15.5 27 15.75 27.25 Q 16 27.5 16 28 L 15 28 " stroke-width="1" fill="undefined"/>
<path style="fill:#68D63E;fill-opacity:1" d="M 16 31 L 15.25 30.75 L 15 30 L 16 30 L 16 31 " stroke-width="1" fill="undefined"/>
<path style="fill:#56A830;fill-opacity:1" d="M 12 30 L 13 30 Q 13 30.5 12.75 30.75 L 12 31 L 12 30 " stroke-width="1" fill="undefined"/>
<path style="fill:#B0F002;fill-opacity:1" d="M 24.4 19.8 Q 24 19 24 18 L 25 18 L 26 18 L 27 18 L 27 19 L 26 19 L 25 19 L 25 20 Q 24.5 20 24.4 19.8 " stroke-width="1" fill="undefined"/>
<path style="fill:#C5FB0B;fill-opacity:1" d="M 26 20 L 26 19 L 27 19 L 27 20 L 26 20 " stroke-width="1" fill="undefined"/>
<path style="fill:#B8F507;fill-opacity:1" d="M 25 20 L 25 19 L 26 19 L 26 20 L 25 20 " stroke-width="1" fill="undefined"/>
<path style="fill:#9ADD00;fill-opacity:1" d="M 23 24 L 23 23 Q 23.5 23 23.75 23.25 Q 24 23.5 24 24 L 23 24 " stroke-width="1" fill="undefined"/>
<path style="fill:#689F06;fill-opacity:1" d="M 23 25 L 23 24 L 24 24 L 24 25 L 23 25 " stroke-width="1" fill="undefined"/>
<path style="fill:#2F5B0C;fill-opacity:1" d="M 22.25 23.75 L 22 23 L 23 23 L 23 24 L 22.25 23.75 " stroke-width="1" fill="undefined"/>
<path style="fill:#9CDF00;fill-opacity:1" d="M 27 25 L 26 25 L 26 24 L 27 24 L 27 25 " stroke-width="1" fill="undefined"/>
<path style="fill:#9ADF00;fill-opacity:1" d="M 22 18 Q 22 18.5 21.75 18.75 Q 21.5 19 21 19 L 21 18 L 22 18 " stroke-width="1" fill="undefined"/>
<path style="fill:#7FC100;fill-opacity:1" d="M 20 19 L 20 18 L 21 18 L 21 19 L 20 19 " stroke-width="1" fill="undefined"/>
<path style="fill:#62B114;fill-opacity:1" d="M 20 19 L 19 19 L 19 18 L 20 18 L 20 19 " stroke-width="1" fill="undefined"/>
<path style="fill:#67D33C;fill-opacity:1" d="M 19 19 L 18 19 L 18 18 L 19 18 L 19 19 " stroke-width="1" fill="undefined"/>
<path style="fill:#9FE300;fill-opacity:1" d="M 19.75 19.75 Q 19.5 20 19 20 L 19 19 L 20 19 Q 20 19.5 19.75 19.75 " stroke-width="1" fill="undefined"/>
<path style="fill:#74B701;fill-opacity:1" d="M 19 20 L 18 20 L 18 19 L 19 19 L 19 20 " stroke-width="1" fill="undefined"/>
<path style="fill:#679E06;fill-opacity:1" d="M 19 24 L 19 23 L 20 23 L 20 24 L 19 24 " stroke-width="1" fill="undefined"/>
<path style="fill:#274F0D;fill-opacity:1" d="M 19 25 L 19 24 L 20 24 Q 20 24.5 19.75 24.75 L 19 25 " stroke-width="1" fill="undefined"/>
<path style="fill:#14380E;fill-opacity:1" d="M 23 26 L 23 27 L 22 27 L 20 27 Q 20 26.5 19.75 26.25 Q 19.5 26 19 26 L 19 25 L 19.75 24.75 Q 20 24.5 20 24 L 20 23 L 21 23 L 22 23 L 22.25 23.75 L 23 24 L 23 25 L 23 26 " stroke-width="1" fill="undefined"/>
<path style="fill:#305B0A;fill-opacity:1" d="M 19 27 L 19 26 Q 19.5 26 19.75 26.25 Q 20 26.5 20 27 L 19 27 " stroke-width="1" fill="undefined"/>
<path style="fill:#79B000;fill-opacity:1" d="M 19 28 L 19 27 L 20 27 L 20 28 L 19 28 " stroke-width="1" fill="undefined"/>
<path style="fill:#97D800;fill-opacity:1" d="M 20 28 L 20 29 L 19.25 28.75 L 19 28 L 20 28 " stroke-width="1" fill="undefined"/>
<path style="fill:#87C300;fill-opacity:1" d="M 19 31 L 18 31 L 18 30 L 19 30 L 19 31 " stroke-width="1" fill="undefined"/>
<path style="fill:#96D600;fill-opacity:1" d="M 20 31 L 19 31 L 19 30 L 20 30 L 20 31 " stroke-width="1" fill="undefined"/>
<path style="fill:#7DB600;fill-opacity:1" d="M 20 28 Q 20.5 28 20.75 28.25 Q 21 28.5 21 29 L 20 29 L 20 28 " stroke-width="1" fill="undefined"/>
<path style="fill:#71A600;fill-opacity:1" d="M 23 28 L 23 29 L 22 29 L 21 29 Q 21 28.5 20.75 28.25 Q 20.5 28 20 28 L 20 27 L 22 27 L 23 27 L 23 28 " stroke-width="1" fill="undefined"/>
<path style="fill:#78AF00;fill-opacity:1" d="M 22 30 L 21.25 29.75 L 21 29 L 22 29 L 22 30 " stroke-width="1" fill="undefined"/>
<path style="fill:#7DB500;fill-opacity:1" d="M 22 29 L 23 29 Q 23 29.5 22.75 29.75 L 22 30 L 22 29 " stroke-width="1" fill="undefined"/>
<path style="fill:#9FE100;fill-opacity:1" d="M 20 31 L 20 30 Q 20.5 30 20.75 30.25 Q 21 30.5 21 31 L 20 31 " stroke-width="1" fill="undefined"/>
<path style="fill:#82BF04;fill-opacity:1" d="M 26.25 26.75 Q 26 26.5 26 26 L 27 26 L 27 27 L 26.25 26.75 " stroke-width="1" fill="undefined"/>
<path style="fill:#77B105;fill-opacity:1" d="M 26 25 L 27 25 L 27 26 L 26 26 L 26 25 " stroke-width="1" fill="undefined"/>
<path style="fill:#2D580C;fill-opacity:1" d="M 27 24 L 28 24 L 27.75 24.75 L 27 25 L 27 24 " stroke-width="1" fill="undefined"/>
<path style="fill:#699F04;fill-opacity:1" d="M 24 26 L 24 27 L 23 27 L 23 26 L 24 26 " stroke-width="1" fill="undefined"/>
<path style="fill:#8DCC00;fill-opacity:1" d="M 30 32 L 29 32 L 29 31 L 30 31 L 30 32 M 23 28 L 23 27 L 24 27 L 24 28 L 23 28 " stroke-width="1" fill="undefined"/>
<path style="fill:#467509;fill-opacity:1" d="M 23 26 L 23 25 L 24 25 L 24 26 L 23 26 " stroke-width="1" fill="undefined"/>
<path style="fill:#98D900;fill-opacity:1" d="M 24 28 L 23.75 28.75 L 23 29 L 23 28 L 24 28 " stroke-width="1" fill="undefined"/>
<path style="fill:#6DAB00;fill-opacity:1" d="M 17 31 L 17 30 L 18 30 L 18 31 L 17 31 " stroke-width="1" fill="undefined"/>
<path style="fill:#94D500;fill-opacity:1" d="M 24 31 L 28 31 L 29 31 L 29 32 L 28 32 L 27 32 L 26 32 L 24 32 L 24 31 " stroke-width="1" fill="undefined"/>
<path style="fill:#629F00;fill-opacity:1" d="M 24 32 L 26 32 L 27 32 L 26.85 32.6 Q 23.8 33.75 23 32 L 24 32 " stroke-width="1" fill="undefined"/>
<path style="fill:#6FA500;fill-opacity:1" d="M 23 32 Q 23.8 33.75 26.85 32.6 L 27 32 L 28 32 L 28 33 L 28 34 L 27 34 L 27 35 L 26 35 L 25 35 L 23 35 L 22 35 Q 22 34.5 21.75 34.25 Q 21.5 34 21 34 L 21 33 L 21.75 32.75 Q 22 32.5 22 32 L 23 32 " stroke-width="1" fill="undefined"/>
<path style="fill:#8ECE00;fill-opacity:1" d="M 24 32 L 23 32 L 23 31 L 24 31 L 24 32 " stroke-width="1" fill="undefined"/>
<path style="fill:#88C800;fill-opacity:1" d="M 22 32 L 22 31 L 23 31 L 23 32 L 22 32 " stroke-width="1" fill="undefined"/>
<path style="fill:#4D8D00;fill-opacity:1" d="M 26 36 L 25 36 L 23 36 L 23 35 L 25 35 L 26 35 L 26 36 " stroke-width="1" fill="undefined"/>
<path style="fill:#529A0B;fill-opacity:1" d="M 22 35 L 23 35 L 23 36 L 22 36 L 22 35 " stroke-width="1" fill="undefined"/>
<path style="fill:#51980A;fill-opacity:1" d="M 26 35 L 27 35 L 27 36 L 26 36 L 26 35 " stroke-width="1" fill="undefined"/>
<path style="fill:#639C00;fill-opacity:1" d="M 27 35 L 27 34 L 28 34 L 28 35 L 27 35 M 20 34 L 20 33 L 21 33 L 21 34 L 20 34 " stroke-width="1" fill="undefined"/>
<path style="fill:#5CB622;fill-opacity:1" d="M 28 35 L 28 36 L 27 36 L 27 35 L 28 35 " stroke-width="1" fill="undefined"/>
<path style="fill:#7BB800;fill-opacity:1" d="M 21 31 L 22 31 L 22 32 L 21 32 L 21 31 " stroke-width="1" fill="undefined"/>
<path style="fill:#72AB00;fill-opacity:1" d="M 20 33 L 20 32 L 21 32 L 22 32 Q 22 32.5 21.75 32.75 L 21 33 L 20 33 " stroke-width="1" fill="undefined"/>
<path style="fill:#71AB00;fill-opacity:1" d="M 21 31 L 21 32 L 20 32 L 19 32 L 19 31 L 20 31 L 21 31 " stroke-width="1" fill="undefined"/>
<path style="fill:#60C22D;fill-opacity:1" d="M 19 33 L 18.25 32.75 L 18 32 L 19 32 L 19 33 " stroke-width="1" fill="undefined"/>
<path style="fill:#5A9600;fill-opacity:1" d="M 20 32 L 20 33 L 19 33 L 19 32 L 20 32 " stroke-width="1" fill="undefined"/>
<path style="fill:#56A414;fill-opacity:1" d="M 19 34 L 19 33 L 20 33 L 20 34 L 19 34 " stroke-width="1" fill="undefined"/>
<path style="fill:#539807;fill-opacity:1" d="M 19 32 L 18 32 L 18 31 L 19 31 L 19 32 " stroke-width="1" fill="undefined"/>
<path style="fill:#60C12C;fill-opacity:1" d="M 18 32 L 17.25 31.75 L 17 31 L 18 31 L 18 32 " stroke-width="1" fill="undefined"/>
<path style="fill:#6ADC43;fill-opacity:1" d="M 20 34 L 20 35 L 19.25 34.75 L 19 34 L 20 34 " stroke-width="1" fill="undefined"/>
<path style="fill:#57A717;fill-opacity:1" d="M 20 34 L 21 34 L 21 35 L 20 35 L 20 34 " stroke-width="1" fill="undefined"/>
<path style="fill:#5F9900;fill-opacity:1" d="M 21 35 L 21 34 Q 21.5 34 21.75 34.25 Q 22 34.5 22 35 L 21 35 " stroke-width="1" fill="undefined"/>
<path style="fill:#5FBE2B;fill-opacity:1" d="M 22 36 L 21.25 35.75 L 21 35 L 22 35 L 22 36 " stroke-width="1" fill="undefined"/>
<path style="fill:#5DAE3C;fill-opacity:1" d="M 11 31 L 12 31 L 11.75 31.75 L 11 32 L 11 31 " stroke-width="1" fill="undefined"/>
<path style="fill:#556E40;fill-opacity:1" d="M 11 31 L 11 32 L 10 32 L 10 31 L 11 31 " stroke-width="1" fill="undefined"/>
<path style="fill:#4E6C37;fill-opacity:1" d="M 9 32 L 8 32 L 8 31 L 9 31 L 9 32 " stroke-width="1" fill="undefined"/>
<path style="fill:#566346;fill-opacity:1" d="M 9 31 L 10 31 L 10 32 L 9 32 L 9 31 " stroke-width="1" fill="undefined"/>
<path style="fill:#3A8B22;fill-opacity:1" d="M 10 40 L 9 40 L 9 39 L 10 39 L 10 40 " stroke-width="1" fill="undefined"/>
<path style="fill:#58C137;fill-opacity:1" d="M 8 39 L 8 38 Q 8.5 38 8.75 38.25 Q 9 38.5 9 39 L 8 39 " stroke-width="1" fill="undefined"/>
<path style="fill:#091905;fill-opacity:1" d="M 8 40 L 8 39 L 9 39 L 9 40 L 8 40 " stroke-width="1" fill="undefined"/>
<path style="fill:#000000;fill-opacity:0.952941" d="M 9 42 L 9 41 L 10 41 L 10 42 L 9 42 " stroke-width="1" fill="undefined"/>
<path style="fill:#1A440D;fill-opacity:1" d="M 11 40 L 11 41 L 10 41 L 10 40 L 11 40 " stroke-width="1" fill="undefined"/>
<path style="fill:#000000;fill-opacity:0.47451" d="M 28 45 L 29 45 L 29 46 L 28 46 L 28 45 M 9 42 L 8.25 41.75 L 8 41 L 9 41 L 9 42 " stroke-width="1" fill="undefined"/>
<path style="fill:#50B732;fill-opacity:1" d="M 12 41 L 11 41 L 11 40 L 12 40 L 12 41 " stroke-width="1" fill="undefined"/>
<path style="fill:#6ADD47;fill-opacity:1" d="M 12 41 L 12 40 Q 12.5 40 12.75 40.25 Q 13 40.5 13 41 L 12 41 " stroke-width="1" fill="undefined"/>
<path style="fill:#1D4B10;fill-opacity:1" d="M 13 41 L 13 42 L 12.25 41.75 L 12 41 L 13 41 " stroke-width="1" fill="undefined"/>
<path style="fill:#68DB45;fill-opacity:1" d="M 10 40 L 10 39 Q 10.5 39 10.75 39.25 Q 11 39.5 11 40 L 10 40 " stroke-width="1" fill="undefined"/>
<path style="fill:#4CB12E;fill-opacity:1" d="M 13 41 L 14 41 L 14 42 L 13 42 L 13 41 " stroke-width="1" fill="undefined"/>
<path style="fill:#66D943;fill-opacity:1" d="M 14 42 L 14 41 Q 14.5 41 14.75 41.25 Q 15 41.5 15 42 L 14 42 " stroke-width="1" fill="undefined"/>
<path style="fill:#19400D;fill-opacity:1" d="M 14 43 L 14 42 L 15 42 L 15 43 L 14 43 " stroke-width="1" fill="undefined"/>
<path style="fill:#4FB530;fill-opacity:1" d="M 17 43 L 16 43 L 16 42 L 17 42 L 17 43 " stroke-width="1" fill="undefined"/>
<path style="fill:#2F771A;fill-opacity:1" d="M 16 43 L 15 43 L 15 42 L 16 42 L 16 43 " stroke-width="1" fill="undefined"/>
<path style="fill:#000000;fill-opacity:0.894118" d="M 16 44 L 17 44 L 17 45 L 16 45 L 16 44 " stroke-width="1" fill="undefined"/>
<path style="fill:#000000;fill-opacity:0.682353" d="M 15 44 L 16 44 L 16 45 L 15 45 L 15 44 " stroke-width="1" fill="undefined"/>
<path style="fill:#0F2708;fill-opacity:1" d="M 18 43 L 18 44 L 17 44 L 17 43 L 18 43 " stroke-width="1" fill="undefined"/>
<path style="fill:#000000;fill-opacity:0.380392" d="M 15 45 L 14 45 L 14 44 L 15 44 L 15 45 " stroke-width="1" fill="undefined"/>
<path style="fill:#000000;fill-opacity:0.945098" d="M 13 44 L 13 43 L 14 43 L 14 44 L 13 44 " stroke-width="1" fill="undefined"/>
<path style="fill:#000000;fill-opacity:0.639216" d="M 12 43 L 13 43 L 13 44 L 12 44 L 12 43 " stroke-width="1" fill="undefined"/>
<path style="fill:#000000;fill-opacity:0.219608" d="M 12 44 L 11.25 43.75 L 11 43 L 12 43 L 12 44 " stroke-width="1" fill="undefined"/>
<path style="fill:#000000;fill-opacity:0.741176" d="M 27 46 L 26 46 L 25 46 L 25 45 L 26 45 L 27 45 L 27 46 " stroke-width="1" fill="undefined"/>
<path style="fill:#3D8F23;fill-opacity:1" d="M 26 43 L 27 43 L 27 44 L 26 44 L 26 43 " stroke-width="1" fill="undefined"/>
<path style="fill:#439929;fill-opacity:1" d="M 25 43 L 26 43 L 26 44 L 25 44 L 25 43 " stroke-width="1" fill="undefined"/>
<path style="fill:#2A6418;fill-opacity:1" d="M 28 44 L 27 44 L 27 43 L 28 43 L 28 44 " stroke-width="1" fill="undefined"/>
<path style="fill:#4BAC2E;fill-opacity:1" d="M 24 43 L 25 43 L 25 44 L 24 44 L 24 43 " stroke-width="1" fill="undefined"/>
<path style="fill:#4FB730;fill-opacity:1" d="M 23 43 L 24 43 L 24 44 L 23 44 L 23 43 " stroke-width="1" fill="undefined"/>
<path style="fill:#4AAB2D;fill-opacity:1" d="M 22 43 L 23 43 L 23 44 L 22 44 L 22 43 " stroke-width="1" fill="undefined"/>
<path style="fill:#000000;fill-opacity:0.843137" d="M 24 45 L 25 45 L 25 46 L 24 46 L 24 45 " stroke-width="1" fill="undefined"/>
<path style="fill:#000000;fill-opacity:0.839216" d="M 22 45 L 23 45 L 23 46 L 22 46 L 22 45 " stroke-width="1" fill="undefined"/>
<path style="fill:#429A28;fill-opacity:1" d="M 21 43 L 22 43 L 22 44 L 21 44 L 21 43 " stroke-width="1" fill="undefined"/>
<path style="fill:#3D9022;fill-opacity:1" d="M 20 43 L 21 43 L 21 44 L 20 44 L 20 43 " stroke-width="1" fill="undefined"/>
<path style="fill:#000000;fill-opacity:0.752941" d="M 22 46 L 21 46 L 20 46 L 20 45 L 21 45 L 22 45 L 22 46 " stroke-width="1" fill="undefined"/>
<path style="fill:#2C6D18;fill-opacity:1" d="M 20 44 L 19 44 L 19 43 L 20 43 L 20 44 " stroke-width="1" fill="undefined"/>
<path style="fill:#1E4D10;fill-opacity:1" d="M 19 43 L 19 44 L 18 44 L 18 43 L 19 43 " stroke-width="1" fill="undefined"/>
<path style="fill:#000000;fill-opacity:0.419608" d="M 18 45 L 19 45 L 19 46 L 18 46 L 18 45 " stroke-width="1" fill="undefined"/>
<path style="fill:#63D63F;fill-opacity:1" d="M 17 42 L 18 42 L 18 43 L 17 43 L 17 42 " stroke-width="1" fill="undefined"/>
<path style="fill:#000000;fill-opacity:0.313725" d="M 47 32 L 47 31 L 48 31 L 48 32 L 47 32 " stroke-width="1" fill="undefined"/>
<path style="fill:#000000;fill-opacity:0.937255" d="M 47 33 L 46 33 L 46 32 L 47 32 L 47 33 " stroke-width="1" fill="undefined"/>
<path style="fill:#1A3D0F;fill-opacity:1" d="M 46 31 L 46 32 L 45 32 L 45 31 L 46 31 " stroke-width="1" fill="undefined"/>
<path style="fill:#57BE37;fill-opacity:1" d="M 44 33 L 44 32 L 45 32 L 45 33 L 44 33 " stroke-width="1" fill="undefined"/>
<path style="fill:#205113;fill-opacity:1" d="M 44 34 L 44 33 L 45 33 L 44.75 33.75 L 44 34 " stroke-width="1" fill="undefined"/>
<path style="fill:#000000;fill-opacity:0.866667" d="M 45 37 L 44 37 L 44 36 L 45 36 L 45 37 " stroke-width="1" fill="undefined"/>
<path style="fill:#15340B;fill-opacity:1" d="M 44 35 L 44 36 L 43 36 L 43 35 L 44 35 " stroke-width="1" fill="undefined"/>
<path style="fill:#50B232;fill-opacity:1" d="M 43 35 L 43 34 L 44 34 L 44 35 L 43 35 " stroke-width="1" fill="undefined"/>
<path style="fill:#000000;fill-opacity:0.588235" d="M 45 36 L 45 35 L 46 35 L 46 36 L 45 36 " stroke-width="1" fill="undefined"/>
<path style="fill:#6AD149;fill-opacity:1" d="M 43 31 L 42.75 31.75 L 42 32 L 42 31 L 43 31 " stroke-width="1" fill="undefined"/>
<path style="fill:#5C8449;fill-opacity:1" d="M 41 31 L 42 31 L 42 32 L 41 32 L 41 31 " stroke-width="1" fill="undefined"/>
<path style="fill:#547B3F;fill-opacity:1" d="M 40 31 L 41 31 L 41 32 L 40 32 L 40 31 " stroke-width="1" fill="undefined"/>
<path style="fill:#4B8B2C;fill-opacity:1" d="M 40 32 L 39 32 L 39 31 L 40 31 L 40 32 " stroke-width="1" fill="undefined"/>
<path style="fill:#45A424;fill-opacity:1" d="M 38 31 L 39 31 L 39 32 L 38 32 L 38 31 " stroke-width="1" fill="undefined"/>
<path style="fill:#4DB72E;fill-opacity:1" d="M 38 31 L 38 32 L 37 32 L 37 31 L 38 31 " stroke-width="1" fill="undefined"/>
<path style="fill:#1E4B10;fill-opacity:1" d="M 42.75 36.75 L 42 37 L 42 36 L 43 36 L 42.75 36.75 " stroke-width="1" fill="undefined"/>
<path style="fill:#000000;fill-opacity:0.988235" d="M 41 39 L 41 38 L 41.75 37.75 L 42 37 L 42.75 36.75 L 43 36 L 44 36 L 44 37 L 44 38 L 43 38 L 43 39 L 42 39 L 41 39 " stroke-width="1" fill="undefined"/>
<path style="fill:#1F4F11;fill-opacity:1" d="M 41.75 37.75 L 41 38 L 41 37 L 42 37 L 41.75 37.75 " stroke-width="1" fill="undefined"/>
<path style="fill:#000000;fill-opacity:0.337255" d="M 42 39 L 43 39 L 42.75 39.75 L 42 40 L 42 39 " stroke-width="1" fill="undefined"/>
<path style="fill:#000000;fill-opacity:0.34902" d="M 44 38 L 43.75 38.75 L 43 39 L 43 38 L 44 38 " stroke-width="1" fill="undefined"/>
<path style="fill:#1B450E;fill-opacity:1" d="M 40 39 L 40 38 L 41 38 L 41 39 L 40 39 " stroke-width="1" fill="undefined"/>
<path style="fill:#66DC42;fill-opacity:1" d="M 39 39 L 39 38 L 40 38 L 40 39 L 39 39 " stroke-width="1" fill="undefined"/>
<path style="fill:#112C09;fill-opacity:1" d="M 40 40 L 39 40 L 39 39 L 40 39 L 40 40 " stroke-width="1" fill="undefined"/>
<path style="fill:#4BAD2D;fill-opacity:1" d="M 39 40 L 38 40 L 38 39 L 39 39 L 39 40 " stroke-width="1" fill="undefined"/>
<path style="fill:#000000;fill-opacity:0.596078" d="M 39 41 L 40 41 L 40 42 L 39 42 L 39 41 " stroke-width="1" fill="undefined"/>
<path style="fill:#000000;fill-opacity:0.227451" d="M 44 37 L 45 37 L 44.75 37.75 L 44 38 L 44 37 " stroke-width="1" fill="undefined"/>
<path style="fill:#65D742;fill-opacity:1" d="M 37 32 L 36.25 31.75 L 36 31 L 37 31 L 37 32 " stroke-width="1" fill="undefined"/>
<path style="fill:#66D23A;fill-opacity:1" d="M 33 31 L 34 31 L 33.75 31.75 L 33 32 L 33 31 " stroke-width="1" fill="undefined"/>
<path style="fill:#58A00B;fill-opacity:1" d="M 33 31 L 33 32 L 32 32 L 32 31 L 33 31 " stroke-width="1" fill="undefined"/>
<path style="fill:#6BDE45;fill-opacity:1" d="M 32 32 L 33 32 L 32.75 32.75 L 32 33 L 32 32 M 29 34 L 30 34 L 29.75 34.75 L 29 35 L 29 34 " stroke-width="1" fill="undefined"/>
<path style="fill:#63C932;fill-opacity:1" d="M 32 32 L 32 33 L 31 33 L 31 32 L 32 32 " stroke-width="1" fill="undefined"/>
<path style="fill:#68A600;fill-opacity:1" d="M 31 31 L 32 31 L 32 32 L 31 32 L 31 31 " stroke-width="1" fill="undefined"/>
<path style="fill:#5BB21F;fill-opacity:1" d="M 30 32 L 31 32 L 31 33 L 30 33 L 30 32 " stroke-width="1" fill="undefined"/>
<path style="fill:#79B600;fill-opacity:1" d="M 30 31 L 31 31 L 31 32 L 30 32 L 30 31 " stroke-width="1" fill="undefined"/>
<path style="fill:#76B200;fill-opacity:1" d="M 29 33 L 28 33 L 28 32 L 29 32 L 29 33 " stroke-width="1" fill="undefined"/>
<path style="fill:#689F00;fill-opacity:1" d="M 28 34 L 28 33 L 29 33 L 29 34 L 28 34 " stroke-width="1" fill="undefined"/>
<path style="fill:#609E00;fill-opacity:1" d="M 30 32 L 30 33 L 29 33 L 29 32 L 30 32 " stroke-width="1" fill="undefined"/>
<path style="fill:#5BAF1D;fill-opacity:1" d="M 29 34 L 29 33 L 30 33 L 30 34 L 29 34 " stroke-width="1" fill="undefined"/>
<path style="fill:#57A10F;fill-opacity:1" d="M 28 34 L 29 34 L 29 35 L 28 35 L 28 34 " stroke-width="1" fill="undefined"/>
<path style="fill:#6ADD44;fill-opacity:1" d="M 28 35 L 29 35 L 28.75 35.75 L 28 36 L 28 35 " stroke-width="1" fill="undefined"/>
<path style="fill:#6ADE46;fill-opacity:1" d="M 30 43 L 29 43 L 29 42 L 30 42 L 30 43 " stroke-width="1" fill="undefined"/>
<path style="fill:#65D941;fill-opacity:1" d="M 31 43 L 30 43 L 30 42 L 31 42 L 31 43 " stroke-width="1" fill="undefined"/>
<path style="fill:#55C134;fill-opacity:1" d="M 31 42 L 32 42 L 32 43 L 31 43 L 31 42 " stroke-width="1" fill="undefined"/>
<path style="fill:#69DE45;fill-opacity:1" d="M 34 42 L 33 42 L 33 41 L 34 41 L 34 42 " stroke-width="1" fill="undefined"/>
<path style="fill:#1C490F;fill-opacity:1" d="M 33 42 L 34 42 L 33.75 42.75 L 33 43 L 33 42 " stroke-width="1" fill="undefined"/>
<path style="fill:#58C736;fill-opacity:1" d="M 34 41 L 35 41 L 35 42 L 34 42 L 34 41 " stroke-width="1" fill="undefined"/>
<path style="fill:#2A6B17;fill-opacity:1" d="M 35 42 L 35 41 L 36 41 L 36 42 L 35 42 " stroke-width="1" fill="undefined"/>
<path style="fill:#60D43D;fill-opacity:1" d="M 36 41 L 36 40 L 37 40 L 37 41 L 36 41 " stroke-width="1" fill="undefined"/>
<path style="fill:#0B1E06;fill-opacity:1" d="M 37 41 L 37 42 L 36 42 L 36 41 L 37 41 " stroke-width="1" fill="undefined"/>
<path style="fill:#245E14;fill-opacity:1" d="M 37 40 L 38 40 L 37.75 40.75 L 37 41 L 37 40 " stroke-width="1" fill="undefined"/>
<path style="fill:#35831E;fill-opacity:1" d="M 33 43 L 32 43 L 32 42 L 33 42 L 33 43 " stroke-width="1" fill="undefined"/>
<path style="fill:#000000;fill-opacity:0.317647" d="M 36 43 L 37 43 L 36.75 43.75 L 36 44 L 36 43 " stroke-width="1" fill="undefined"/>
<path style="fill:#000000;fill-opacity:0.713725" d="M 35 43 L 36 43 L 36 44 L 35 44 L 35 43 " stroke-width="1" fill="undefined"/>
<path style="fill:#000000;fill-opacity:0.431373" d="M 33 44 L 34 44 L 34 45 L 33 45 L 33 44 " stroke-width="1" fill="undefined"/>
<path style="fill:#000000;fill-opacity:0.0941176" d="M 31 45 L 32 45 L 31.75 45.75 L 31 46 L 31 45 " stroke-width="1" fill="undefined"/>
<path style="fill:#0D2307;fill-opacity:1" d="M 30 43 L 31 43 L 31 44 L 30 44 L 30 43 " stroke-width="1" fill="undefined"/>
<path style="fill:#173A0C;fill-opacity:1" d="M 30 43 L 30 44 L 29 44 L 29 43 L 30 43 " stroke-width="1" fill="undefined"/>
<path style="fill:#235914;fill-opacity:1" d="M 28 43 L 29 43 L 29 44 L 28 44 L 28 43 " stroke-width="1" fill="undefined"/>
<path style="fill:#000000;fill-opacity:0.321569" d="M 29 45 L 30 45 L 30 46 L 29 46 L 29 45 " stroke-width="1" fill="undefined"/>
<path style="fill:#000000;fill-opacity:0.2" d="M 30 45 L 31 45 L 31 46 L 30 46 L 30 45 " stroke-width="1" fill="undefined"/>
<path style="fill:#000000;fill-opacity:0.756863" d="M 37 42 L 38 42 L 38 43 L 37 43 L 37 42 " stroke-width="1" fill="undefined"/>
</g>
</svg>