<?xml version="1.0" encoding="utf-8"?><svg xmlns="http://www.w3.org/2000/svg" xmlns:xlink="http://www.w3.org/1999/xlink" xmlns:author="http://www.sothink.com" version="1.1" id="Layer_1" width="17.638019561767578" height="29.464229583740234" xml:space="preserve" viewBox="0.011979162693023682 -0.26923078298568726 17.638019561767578 29.464229583740234">
<g id="138">
<path style="fill:#000000;fill-opacity:1" d="M 8.1 6.6 L 3.35 6.6 Q 0.8 6.9 0.75 4.95 Q 0.4 2.9 4 1.5 Q 6.3 0.55 8.5 0.5 Q 11.45 0.4 14.2 1.85 Q 19.65 7.25 12.9 16.7 Q 10.55 19.9 8.5 21.4 L 8.2 21.6 L 17.1 21.6 L 17.1 27.65 L 5.75 28.65 Q 2.95 28.95 1.15 27.25 Q -0.6 25 2.45 20.9 L 8.15 13.95 L 8.5 13.45 L 9.1 12.7 Q 10.15 11.35 10.5 9.8 Q 10.75 6.85 8.5 6.65 L 8.1 6.6 " stroke-width="1" fill="undefined"/>
<path style="fill:none;stroke-width:1;stroke-linecap:round;stroke-linejoin:round;stroke-miterlimit:3;stroke:#000000;stroke-opacity:1" d="M 8.1 6.6 L 3.35 6.6 Q 0.8 6.9 0.75 4.95 Q 0.4 2.9 4 1.5 Q 6.3 0.55 8.5 0.5 Q 11.45 0.4 14.2 1.85 Q 19.65 7.25 12.9 16.7 Q 10.55 19.9 8.5 21.4 L 8.2 21.6 L 17.1 21.6 L 17.1 27.65 L 5.75 28.65 Q 2.95 28.95 1.15 27.25 Q -0.6 25 2.45 20.9 L 8.15 13.95 L 8.5 13.45 L 9.1 12.7 Q 10.15 11.35 10.5 9.8 Q 10.75 6.85 8.5 6.65 L 8.1 6.6 Z " stroke-width="1" fill="undefined"/>
<path style="fill:#FFFEFD;fill-opacity:1" d="M 8.3 6.2 L 3.65 6.2 Q 1.15 6.5 1.1 4.6 Q 0.75 2.6 4.3 1.2 Q 9.6 -0.9 14.3 1.55 Q 19.65 6.85 13 16.1 Q 10.5 19.5 8.4 20.95 L 17.15 20.95 L 17.15 26.85 L 6 27.85 Q 3.25 28.15 1.5 26.45 Q -0.2 24.25 2.75 20.25 L 8.35 13.45 L 9.3 12.2 Q 10.3 10.9 10.65 9.35 Q 10.9 6.2 8.3 6.2 " stroke-width="1" fill="undefined"/>
<path style="fill:none;stroke-width:0.5;stroke-linecap:round;stroke-linejoin:round;stroke-miterlimit:3;stroke:#000000;stroke-opacity:1" d="M 10.65 9.35 Q 10.3 10.9 9.3 12.2 L 8.35 13.45 L 2.75 20.25 Q -0.2 24.25 1.5 26.45 Q 3.25 28.15 6 27.85 L 17.15 26.85 L 17.15 20.95 L 8.4 20.95 Q 10.5 19.5 13 16.1 Q 19.65 6.85 14.3 1.55 Q 9.6 -0.9 4.3 1.2 Q 0.75 2.6 1.1 4.6 Q 1.15 6.5 3.65 6.2 L 8.3 6.2 Q 10.9 6.2 10.65 9.35 Z " stroke-width="1" fill="undefined"/>
</g>
</svg>