<?xml version="1.0" encoding="utf-8"?><svg xmlns="http://www.w3.org/2000/svg" xmlns:xlink="http://www.w3.org/1999/xlink" xmlns:author="http://www.sothink.com" version="1.1" id="Layer_1" width="47" height="46" xml:space="preserve" viewBox="-0.5 -0.5 47 46">
<g id="7">
<path style="fill:#000000;fill-opacity:0.380392" d="M 42 18 L 42 17 L 42.75 17.25 L 43 18 L 42 18 M 44 35 L 44 36 L 43 36 L 43 35 L 44 35 M 24 0 L 25 0 L 25 1 L 24 1 L 24 0 M 38 13 L 38 12 L 38.75 12.25 L 39 13 L 38 13 " stroke-width="1" fill="undefined"/>
<path style="fill:#040000;fill-opacity:0.682353" d="M 42 16 L 42 17 L 41 17 L 41 16 L 42 16 " stroke-width="1" fill="undefined"/>
<path style="fill:#470010;fill-opacity:1" d="M 41 18 L 41 17 L 42 17 L 42 18 L 41 18 " stroke-width="1" fill="undefined"/>
<path style="fill:#82001C;fill-opacity:1" d="M 40.25 16.75 Q 40 16.5 40 16 L 41 16 L 41 17 Q 40.5 17 40.25 16.75 M 7 27 L 7 26 L 8 26 L 8 27 L 7 27 " stroke-width="1" fill="undefined"/>
<path style="fill:#000000;fill-opacity:0.184314" d="M 7 32 L 7 33 L 6.25 32.75 L 6 32 L 7 32 M 41 15 L 41.75 15.25 L 42 16 L 41 16 L 41 15 " stroke-width="1" fill="undefined"/>
<path style="fill:#120004;fill-opacity:0.831373" d="M 40 15 L 41 15 L 41 16 L 40 16 L 40 15 " stroke-width="1" fill="undefined"/>
<path style="fill:#000000;fill-opacity:0.156863" d="M 3 20 L 4 20 L 4 21 L 3 21 L 3 20 M 31 6 L 31 5 L 31.75 5.25 L 32 6 L 31 6 " stroke-width="1" fill="undefined"/>
<path style="fill:#000000;fill-opacity:0.188235" d="M 30 5 L 30 4 L 30.75 4.25 L 31 5 L 30 5 " stroke-width="1" fill="undefined"/>
<path style="fill:#190006;fill-opacity:0.870588" d="M 26 1 L 26 2 L 25 2 L 25 1 L 26 1 " stroke-width="1" fill="undefined"/>
<path style="fill:#6E0017;fill-opacity:0.964706" d="M 24 2 L 24 1 L 25 1 L 25 2 L 24 2 " stroke-width="1" fill="undefined"/>
<path style="fill:#000000;fill-opacity:0.141176" d="M 14 12 L 13 12 L 13 11 L 14 11 L 14 12 M 25 0 L 25.75 0.25 L 26 1 L 25 1 L 25 0 M 28 3 L 28 2 L 28.75 2.25 L 29 3 L 28 3 " stroke-width="1" fill="undefined"/>
<path style="fill:#D5002B;fill-opacity:1" d="M 31 8 Q 31 8.5 31.25 8.75 Q 31.5 9 32 9 Q 32 9.5 32.25 9.75 Q 32.5 10 33 10 Q 33 10.5 33.25 10.75 Q 33.5 11 34 11 Q 34 11.5 34.25 11.75 Q 34.5 12 35 12 L 36 12 Q 36 12.5 36.25 12.75 Q 36.5 13 37 13 Q 37 13.5 37.25 13.75 Q 37.5 14 38 14 Q 38 14.5 38.25 14.75 Q 38.5 15 39 15 Q 39 15.5 39.25 15.75 Q 39.5 16 40 16 Q 40 16.5 40.25 16.75 Q 40.5 17 41 17 L 41 18 Q 41 18.5 41.25 18.75 Q 41.5 19 42 19 L 42 20 L 41 20 L 40 20 L 39 20 L 39 21 L 38 21 L 37 21 L 37 22 L 36 22 L 35 22 L 35 23 L 34 23 L 33 23 L 32.75 22.25 L 32 22 L 31 22 L 30.75 21.25 L 30 21 L 29.75 20.25 L 29 20 L 28 20 L 27 20 L 26.75 19.25 L 26 19 L 25 19 L 24.75 18.25 L 24 18 L 23 18 L 23 19 L 23 20 L 23 21 L 22 21 L 22.25 21.75 L 23 22 Q 23 22.5 23.25 22.75 L 24 23 L 25 23 L 25 24 L 25 25 L 24 25 L 24 26 L 23 26 L 23 27 L 23 28 L 23 29 Q 22.4 31.1 23.9 31.45 L 24 32 L 23 32 L 22 32 L 21 32 L 21 33 L 20 33 L 19 33 L 19 34 L 18 34 L 17 34 L 17 35 L 16 35 L 15 35 L 15 36 L 14 36 L 14 37 L 13 37 L 13 38 L 12 38 Q 12 37.5 11.75 37.25 Q 11.5 37 11 37 Q 11 36.5 10.75 36.25 Q 10.5 36 10 36 Q 10 35.5 9.75 35.25 Q 9.5 35 9 35 L 9 34 L 9 33 Q 9 32.5 8.75 32.25 Q 8.5 32 8 32 L 8 31 L 8 30 L 8 29 L 8 28 L 8 27 L 8 26 L 8 25 L 8 24 L 8.75 23.75 Q 9 23.5 9 23 L 9 22 L 9 21 Q 9.5 21 9.75 20.75 Q 10 20.5 10 20 L 10 19 Q 10.5 19 10.75 18.75 Q 11 18.5 11 18 L 11 17 Q 11.5 17 11.75 16.75 Q 12 16.5 12 16 Q 12.5 16 12.75 15.75 Q 13 15.5 13 15 Q 13.5 15 13.75 14.75 Q 14 14.5 14 14 Q 14.5 14 14.75 13.75 Q 15 13.5 15 13 Q 15.5 13 15.75 12.75 Q 16 12.5 16 12 Q 16.5 12 16.75 11.75 Q 17 11.5 17 11 Q 17.5 11 17.75 10.75 Q 18 10.5 18 10 L 19 10 L 20 10 L 21 10 L 22 10 L 22.5 10 Q 22.5 9.5 22 9 L 21.75 8.25 L 21 8 L 20 8 L 19 8 L 18 8 L 17 8 L 16 8 L 15 8 L 15 7 L 15 6 L 16 6 Q 16.5 6 16.75 5.75 Q 17 5.5 17 5 L 18 5 L 19 5 L 19.25 5.75 Q 19.5 6 20 6 L 21 6 L 22 6 L 22.25 6.75 Q 22.5 7 23 7 Q 23 7.5 23.25 7.75 Q 23.5 8 24 8 L 25 8 L 26 8 Q 26 8.5 26.25 8.75 Q 26.5 9 27 9 L 28 9 L 28.5 9 Q 28.5 8.5 28 8 L 27.75 7.25 L 27 7 L 26 7 L 25.75 6.25 L 25 6 L 24 6 L 23.75 5.25 L 23 5 L 22.75 4.25 L 22 4 L 22 3 L 22 2 L 23 2 L 24 2 L 25 2 L 26 2 Q 26 2.5 26.25 2.75 Q 26.5 3 27 3 Q 27 3.5 27.25 3.75 Q 27.5 4 28 4 Q 28 4.5 28.25 4.75 Q 28.5 5 29 5 Q 29 5.5 29.25 5.75 Q 29.5 6 30 6 Q 30 6.5 30.25 6.75 Q 30.5 7 31 7 L 31 8 M 18 26 L 18 27 Q 17.05 32 20.95 31.5 L 21 31 L 21.75 30.75 L 22 30 L 22 29 L 22 28 Q 22 27.5 21.75 27.25 Q 21.5 27 21 27 Q 21 26.5 20.8 26.4 Q 20 26 19 26 L 18 26 M 14 32 L 14.25 32.75 L 15 33 L 15.75 32.75 L 16 32 Q 16.5 32 16.65 31.8 Q 17.65 29.85 16 30 L 15.8 29.4 L 14 29 L 13 29 Q 13 30 13.4 30.8 Q 13.5 31 14 31 L 14 32 " stroke-width="1" fill="undefined"/>
<path style="fill:#90001E;fill-opacity:0.996078" d="M 23 2 L 23 1 L 24 1 L 24 2 L 23 2 " stroke-width="1" fill="undefined"/>
<path style="fill:#000000;fill-opacity:0.478431" d="M 22 0 L 23 0 L 24 0 L 24 1 L 23 1 L 22 1 L 22 0 " stroke-width="1" fill="undefined"/>
<path style="fill:#030000;fill-opacity:0.929412" d="M 22 1 L 22 2 L 21 2 L 21 1 L 22 1 M 11 39 L 11 38 L 12 38 L 12 39 L 11 39 " stroke-width="1" fill="undefined"/>
<path style="fill:#000000;fill-opacity:0.466667" d="M 6 32 L 6 31 L 7 31 L 7 32 L 6 32 M 20 2 L 20 1 L 21 1 L 21 2 L 20 2 " stroke-width="1" fill="undefined"/>
<path style="fill:#690016;fill-opacity:0.988235" d="M 22 2 L 22 1 L 23 1 L 23 2 L 22 2 " stroke-width="1" fill="undefined"/>
<path style="fill:#000000;fill-opacity:0.278431" d="M 22 1 L 21 1 L 21 0 L 22 0 L 22 1 " stroke-width="1" fill="undefined"/>
<path style="fill:#89001D;fill-opacity:1" d="M 22 3 L 21 3 L 21 2 L 22 2 L 22 3 " stroke-width="1" fill="undefined"/>
<path style="fill:#200006;fill-opacity:0.996078" d="M 22 4 L 22 5 L 21 5 L 21 4 L 22 4 " stroke-width="1" fill="undefined"/>
<path style="fill:#000000;fill-opacity:0.72549" d="M 20 5 L 20 4 L 21 4 L 21 5 L 20 5 " stroke-width="1" fill="undefined"/>
<path style="fill:#C3002A;fill-opacity:1" d="M 22.75 4.25 L 23 5 L 22 5 L 22 4 L 22.75 4.25 " stroke-width="1" fill="undefined"/>
<path style="fill:#42000E;fill-opacity:1" d="M 23 6 L 22 6 L 21 6 L 21 5 L 22 5 L 23 5 L 23 6 M 26 7 L 26 8 L 25 8 L 25 7 L 26 7 " stroke-width="1" fill="undefined"/>
<path style="fill:#A30021;fill-opacity:1" d="M 22 3 L 22 4 L 21 4 L 21 3 L 22 3 " stroke-width="1" fill="undefined"/>
<path style="fill:#000000;fill-opacity:0.819608" d="M 20 4 L 20 3 L 20 2 L 21 2 L 21 3 L 21 4 L 20 4 " stroke-width="1" fill="undefined"/>
<path style="fill:#A30022;fill-opacity:1" d="M 23 5 L 23.75 5.25 L 24 6 L 23 6 L 23 5 M 19 8 L 20 8 L 20 9 L 19 9 L 19 8 " stroke-width="1" fill="undefined"/>
<path style="fill:#000000;fill-opacity:0.45098" d="M 26 2 L 26 1 L 26.75 1.25 L 27 2 L 26 2 " stroke-width="1" fill="undefined"/>
<path style="fill:#760019;fill-opacity:1" d="M 26 2 L 27 2 L 27 3 Q 26.5 3 26.25 2.75 Q 26 2.5 26 2 " stroke-width="1" fill="undefined"/>
<path style="fill:#0A0002;fill-opacity:0.682353" d="M 28 3 L 27 3 L 27 2 L 28 2 L 28 3 " stroke-width="1" fill="undefined"/>
<path style="fill:#290009;fill-opacity:0.827451" d="M 29 3 L 29 4 L 28 4 L 28 3 L 29 3 " stroke-width="1" fill="undefined"/>
<path style="fill:#AA0023;fill-opacity:1" d="M 27 3 L 28 3 L 28 4 Q 27.5 4 27.25 3.75 Q 27 3.5 27 3 " stroke-width="1" fill="undefined"/>
<path style="fill:#BB0028;fill-opacity:1" d="M 28 4 L 29 4 L 29 5 Q 28.5 5 28.25 4.75 Q 28 4.5 28 4 " stroke-width="1" fill="undefined"/>
<path style="fill:#000000;fill-opacity:0.294118" d="M 29 4 L 29 3 L 29.75 3.25 L 30 4 L 29 4 M 32 7 L 33 7 L 33 8 L 32 8 L 32 7 " stroke-width="1" fill="undefined"/>
<path style="fill:#2F0009;fill-opacity:0.913725" d="M 29 5 L 29 4 L 30 4 L 30 5 L 29 5 " stroke-width="1" fill="undefined"/>
<path style="fill:#BB0027;fill-opacity:1" d="M 10 18 L 11 18 Q 11 18.5 10.75 18.75 Q 10.5 19 10 19 L 10 18 M 30 6 Q 29.5 6 29.25 5.75 Q 29 5.5 29 5 L 30 5 L 30 6 M 32 8 L 32 9 Q 31.5 9 31.25 8.75 Q 31 8.5 31 8 L 32 8 " stroke-width="1" fill="undefined"/>
<path style="fill:#AE0024;fill-opacity:1" d="M 22 9 L 22 10 L 21 10 L 21 9 L 22 9 M 24 23 L 23.25 22.75 Q 23 22.5 23 22 L 24 22 L 24 23 M 31 6 L 31 7 Q 30.5 7 30.25 6.75 Q 30 6.5 30 6 L 31 6 " stroke-width="1" fill="undefined"/>
<path style="fill:#C8002A;fill-opacity:1" d="M 27 7 L 27.75 7.25 L 28 8 L 27 8 L 27 7 M 24 7 L 24 8 Q 23.5 8 23.25 7.75 Q 23 7.5 23 7 L 24 7 M 14 13 L 15 13 Q 15 13.5 14.75 13.75 Q 14.5 14 14 14 L 14 13 M 15 32 L 15 33 L 14.25 32.75 L 14 32 L 15 32 " stroke-width="1" fill="undefined"/>
<path style="fill:#640015;fill-opacity:1" d="M 27 8 L 26 8 L 26 7 L 27 7 L 27 8 " stroke-width="1" fill="undefined"/>
<path style="fill:#C10029;fill-opacity:1" d="M 27 9 Q 26.5 9 26.25 8.75 Q 26 8.5 26 8 L 27 8 L 27 9 M 21 8 L 21.75 8.25 L 22 9 L 21 9 L 21 8 M 35 12 Q 34.5 12 34.25 11.75 Q 34 11.5 34 11 L 35 11 L 35 12 M 38 35 L 38 36 L 37 36 L 37 35 L 38 35 " stroke-width="1" fill="undefined"/>
<path style="fill:#B60025;fill-opacity:1" d="M 25 7 L 25 6 L 25.75 6.25 L 26 7 L 25 7 M 21.25 28.75 L 21 28 L 22 28 L 22 29 L 21.25 28.75 M 44 24 L 44 25 L 43 25 L 43 24 L 44 24 " stroke-width="1" fill="undefined"/>
<path style="fill:#720018;fill-opacity:1" d="M 27 8 L 28 8 L 28 9 L 27 9 L 27 8 " stroke-width="1" fill="undefined"/>
<path style="fill:#91001F;fill-opacity:1" d="M 28 8 Q 28.5 8.5 28.5 9 L 28 9 L 28 8 " stroke-width="1" fill="undefined"/>
<path style="fill:#84001C;fill-opacity:1" d="M 25 7 L 25 8 L 24 8 L 24 7 L 25 7 M 41 21 L 40 21 L 40 20 L 41 20 L 41 21 M 39 30 L 40 30 L 40 31 L 39 31 L 39 30 M 44 31 L 44 32 L 43 32 L 43 31 L 44 31 " stroke-width="1" fill="undefined"/>
<path style="fill:#5F0014;fill-opacity:1" d="M 24 6 L 25 6 L 25 7 L 24 7 L 24 6 " stroke-width="1" fill="undefined"/>
<path style="fill:#4B0010;fill-opacity:1" d="M 24 6 L 24 7 L 23 7 L 23 6 L 24 6 " stroke-width="1" fill="undefined"/>
<path style="fill:#93001F;fill-opacity:1" d="M 23 6 L 23 7 Q 22.5 7 22.25 6.75 L 22 6 L 23 6 M 24 18 L 24.75 18.25 L 25 19 L 24 19 L 24 18 M 26 28 L 26 29 L 25.25 28.75 L 25 28 L 26 28 " stroke-width="1" fill="undefined"/>
<path style="fill:#90001F;fill-opacity:1" d="M 20 9 L 21 9 L 21 10 L 20 10 L 20 9 " stroke-width="1" fill="undefined"/>
<path style="fill:#C20029;fill-opacity:1" d="M 22 9 Q 22.5 9.5 22.5 10 L 22 10 L 22 9 " stroke-width="1" fill="undefined"/>
<path style="fill:#B30025;fill-opacity:1" d="M 20 8 L 21 8 L 21 9 L 20 9 L 20 8 M 24 27 L 23.8 27.9 L 23 29 L 23 28 L 23 27 L 24 27 " stroke-width="1" fill="undefined"/>
<path style="fill:#000000;fill-opacity:0.239216" d="M 37 12 L 37 11 L 37.75 11.25 L 38 12 L 37 12 " stroke-width="1" fill="undefined"/>
<path style="fill:#000000;fill-opacity:0.0470588" d="M 3 21 L 2 21 L 2 20 L 3 20 L 3 21 M 36 10 L 36.75 10.25 L 37 11 L 36 11 L 36 10 " stroke-width="1" fill="undefined"/>
<path style="fill:#060000;fill-opacity:0.866667" d="M 36 12 L 36 11 L 37 11 L 37 12 L 36 12 " stroke-width="1" fill="undefined"/>
<path style="fill:#000000;fill-opacity:0.729412" d="M 35 11 L 35 10 L 36 10 L 36 11 L 35 11 M 6 27 L 7 27 L 7 28 L 6 28 L 6 27 " stroke-width="1" fill="undefined"/>
<path style="fill:#000000;fill-opacity:0.0705882" d="M 32 7 L 32 6 L 32.75 6.25 L 33 7 L 32 7 " stroke-width="1" fill="undefined"/>
<path style="fill:#6F0017;fill-opacity:0.94902" d="M 31 8 L 31 7 L 32 7 L 32 8 L 31 8 " stroke-width="1" fill="undefined"/>
<path style="fill:#130004;fill-opacity:0.662745" d="M 32 9 L 32 8 L 33 8 L 33 9 L 32 9 " stroke-width="1" fill="undefined"/>
<path style="fill:#0C0002;fill-opacity:0.658824" d="M 31 7 L 31 6 L 32 6 L 32 7 L 31 7 " stroke-width="1" fill="undefined"/>
<path style="fill:#730018;fill-opacity:0.992157" d="M 33 10 Q 32.5 10 32.25 9.75 Q 32 9.5 32 9 L 33 9 L 33 10 " stroke-width="1" fill="undefined"/>
<path style="fill:#000000;fill-opacity:0.741176" d="M 33 10 L 33 9 L 34 9 L 34 10 L 33 10 M 43 36 L 43 37 L 42 37 L 42 36 L 43 36 " stroke-width="1" fill="undefined"/>
<path style="fill:#8D001E;fill-opacity:1" d="M 34 11 Q 33.5 11 33.25 10.75 Q 33 10.5 33 10 L 34 10 L 34 11 " stroke-width="1" fill="undefined"/>
<path style="fill:#000000;fill-opacity:0.376471" d="M 35 10 L 34 10 L 34 9 L 35 9 L 35 10 " stroke-width="1" fill="undefined"/>
<path style="fill:#180004;fill-opacity:0.968627" d="M 35 11 L 34 11 L 34 10 L 35 10 L 35 11 " stroke-width="1" fill="undefined"/>
<path style="fill:#000000;fill-opacity:0.0588235" d="M 38 41 L 39 41 L 38.75 41.75 L 38 42 L 38 41 M 12 14 L 11 14 L 11 13 L 12 13 L 12 14 M 35 10 L 35 9 L 35.75 9.25 L 36 10 L 35 10 " stroke-width="1" fill="undefined"/>
<path style="fill:#000000;fill-opacity:0.0941176" d="M 45 27 L 45 26 Q 45.5 26 45.75 26.25 L 46 27 L 45 27 M 13 41 L 12.25 40.75 L 12 40 L 13 40 L 13 41 M 3 27 L 2.25 26.75 L 2 26 L 3 26 L 3 27 M 33 9 L 33 8 L 33.75 8.25 L 34 9 L 33 9 " stroke-width="1" fill="undefined"/>
<path style="fill:#000000;fill-opacity:0.321569" d="M 40 15 L 40 14 L 40.75 14.25 L 41 15 L 40 15 " stroke-width="1" fill="undefined"/>
<path style="fill:#000000;fill-opacity:0.34902" d="M 39 14 L 39 13 L 39.75 13.25 L 40 14 L 39 14 " stroke-width="1" fill="undefined"/>
<path style="fill:#190005;fill-opacity:0.968627" d="M 39 15 L 39 14 L 40 14 L 40 15 L 39 15 " stroke-width="1" fill="undefined"/>
<path style="fill:#1D0006;fill-opacity:0.968627" d="M 38 14 L 38 13 L 39 13 L 39 14 L 38 14 " stroke-width="1" fill="undefined"/>
<path style="fill:#140004;fill-opacity:0.87451" d="M 37 13 L 37 12 L 38 12 L 38 13 L 37 13 " stroke-width="1" fill="undefined"/>
<path style="fill:#83001C;fill-opacity:1" d="M 36 12 L 37 12 L 37 13 Q 36.5 13 36.25 12.75 Q 36 12.5 36 12 " stroke-width="1" fill="undefined"/>
<path style="fill:#A80023;fill-opacity:1" d="M 37 13 L 38 13 L 38 14 Q 37.5 14 37.25 13.75 Q 37 13.5 37 13 " stroke-width="1" fill="undefined"/>
<path style="fill:#A50022;fill-opacity:1" d="M 39 15 L 40 15 L 40 16 Q 39.5 16 39.25 15.75 Q 39 15.5 39 15 " stroke-width="1" fill="undefined"/>
<path style="fill:#A60022;fill-opacity:1" d="M 38 14 L 39 14 L 39 15 Q 38.5 15 38.25 14.75 Q 38 14.5 38 14 " stroke-width="1" fill="undefined"/>
<path style="fill:#550012;fill-opacity:1" d="M 35 11 L 36 11 L 36 12 L 35 12 L 35 11 " stroke-width="1" fill="undefined"/>
<path style="fill:#98001F;fill-opacity:1" d="M 20 5 L 21 5 L 21 6 L 20 6 L 20 5 M 27 29 L 27 30 L 26.25 29.75 Q 26 29.5 26 29 L 27 29 " stroke-width="1" fill="undefined"/>
<path style="fill:#1A0005;fill-opacity:0.92549" d="M 30 6 L 30 5 L 31 5 L 31 6 L 30 6 " stroke-width="1" fill="undefined"/>
<path style="fill:#B80027;fill-opacity:1" d="M 40 21 L 39 21 L 39 20 L 40 20 L 40 21 " stroke-width="1" fill="undefined"/>
<path style="fill:#40000E;fill-opacity:1" d="M 36.75 22.75 L 36 23 L 36 22 L 37 22 L 36.75 22.75 " stroke-width="1" fill="undefined"/>
<path style="fill:#BA0027;fill-opacity:1" d="M 12 15 L 13 15 Q 13 15.5 12.75 15.75 Q 12.5 16 12 16 L 12 15 M 35 23 L 35 22 L 36 22 L 36 23 L 35 23 " stroke-width="1" fill="undefined"/>
<path style="fill:#010000;fill-opacity:1" d="M 38 24 L 37 24 L 36 24 L 36 23 L 36.75 22.75 L 37 22 L 38 22 L 39 22 L 39.75 21.75 L 40 21 L 41 21 L 42 21 L 43 21 L 43 22 L 43 23 L 42 23 L 41 23 L 40 23 L 39 23 L 39 24 L 38 24 M 31 22 L 31.25 22.75 L 32 23 L 33 23 L 33 24 L 33 25 L 32 25 L 31.75 24.25 L 31 24 L 30 24 L 29.75 23.25 L 29 23 L 28 23 L 27 23 L 26 23 L 25 23 L 24.75 22.25 Q 24.5 22 24 22 L 24 21 L 24 20 L 24 19 L 25 19 Q 25 19.5 25.25 19.75 Q 25.5 20 26 20 L 27 20 Q 27 20.5 27.25 20.75 Q 27.5 21 28 21 L 29 21 Q 29 21.5 29.25 21.75 L 30 22 L 31 22 " stroke-width="1" fill="undefined"/>
<path style="fill:#B00025;fill-opacity:1" d="M 37 22 L 37 21 L 38 21 L 38 22 L 37 22 " stroke-width="1" fill="undefined"/>
<path style="fill:#610015;fill-opacity:1" d="M 39 22 L 38 22 L 38 21 L 39 21 L 39 22 " stroke-width="1" fill="undefined"/>
<path style="fill:#2A0009;fill-opacity:1" d="M 39 22 L 39 21 L 40 21 L 39.75 21.75 L 39 22 " stroke-width="1" fill="undefined"/>
<path style="fill:#151515;fill-opacity:1" d="M 40 24 L 39 24 L 39 23 L 40 23 L 40 24 " stroke-width="1" fill="undefined"/>
<path style="fill:#160105;fill-opacity:1" d="M 32 23 L 31.25 22.75 L 31 22 L 32 22 L 32 23 " stroke-width="1" fill="undefined"/>
<path style="fill:#86001C;fill-opacity:1" d="M 30 22 L 30 21 L 30.75 21.25 L 31 22 L 30 22 " stroke-width="1" fill="undefined"/>
<path style="fill:#89001E;fill-opacity:1" d="M 32 23 L 32 22 L 32.75 22.25 L 33 23 L 32 23 " stroke-width="1" fill="undefined"/>
<path style="fill:#550013;fill-opacity:1" d="M 35 24 L 34 24 L 34 23 L 35 23 L 35 24 " stroke-width="1" fill="undefined"/>
<path style="fill:#3A000C;fill-opacity:1" d="M 34 24 L 33 24 L 33 23 L 34 23 L 34 24 " stroke-width="1" fill="undefined"/>
<path style="fill:#000000;fill-opacity:1" d="M 35 24 L 36 24 L 36 25 L 35 25 L 34 25 L 34 24 L 35 24 " stroke-width="1" fill="undefined"/>
<path style="fill:#0B0B0B;fill-opacity:1" d="M 33 24 L 34 24 L 34 25 L 33 25 L 33 24 " stroke-width="1" fill="undefined"/>
<path style="fill:#6D6D6D;fill-opacity:1" d="M 35 26 L 35 27 L 34 27 L 34 26 L 35 26 " stroke-width="1" fill="undefined"/>
<path style="fill:#595959;fill-opacity:1" d="M 33 27 L 33 26 L 34 26 L 34 27 L 33 27 " stroke-width="1" fill="undefined"/>
<path style="fill:#3D3D3D;fill-opacity:1" d="M 36 27 L 35 27 L 35 26 L 36 26 L 36 27 " stroke-width="1" fill="undefined"/>
<path style="fill:#282828;fill-opacity:1" d="M 36 26 L 35 26 L 35 25 L 36 25 L 36 26 " stroke-width="1" fill="undefined"/>
<path style="fill:#2D2D2D;fill-opacity:1" d="M 35 26 L 34 26 L 34 25 L 35 25 L 35 26 " stroke-width="1" fill="undefined"/>
<path style="fill:#3D3830;fill-opacity:1" d="M 35 28 L 34 28 L 34 27 L 35 27 L 35 28 " stroke-width="1" fill="undefined"/>
<path style="fill:#4F4F4F;fill-opacity:1" d="M 33 26 L 33 25 L 34 25 L 34 26 L 33 26 " stroke-width="1" fill="undefined"/>
<path style="fill:#747474;fill-opacity:1" d="M 32 26 L 32 25 L 33 25 L 33 26 L 32 26 " stroke-width="1" fill="undefined"/>
<path style="fill:#0F0F0F;fill-opacity:1" d="M 31 24 L 31.75 24.25 L 32 25 L 31 25 L 31 24 " stroke-width="1" fill="undefined"/>
<path style="fill:#454545;fill-opacity:1" d="M 30 24 L 31 24 L 31 25 L 30 25 L 30 24 " stroke-width="1" fill="undefined"/>
<path style="fill:#202020;fill-opacity:1" d="M 32 27 L 31 27 L 31 26 L 31 25 L 32 25 L 32 26 L 32 27 " stroke-width="1" fill="undefined"/>
<path style="fill:#060606;fill-opacity:1" d="M 30 27 L 30 26 L 31 26 L 31 27 L 30 27 " stroke-width="1" fill="undefined"/>
<path style="fill:#C3C3C3;fill-opacity:1" d="M 32 27 L 32 26 L 33 26 L 33 27 L 32 27 " stroke-width="1" fill="undefined"/>
<path style="fill:#838383;fill-opacity:1" d="M 32 27 L 33 27 L 33 28 L 32 28 L 32 27 " stroke-width="1" fill="undefined"/>
<path style="fill:#020202;fill-opacity:1" d="M 30 26 L 30 25 L 31 25 L 31 26 L 30 26 " stroke-width="1" fill="undefined"/>
<path style="fill:#A6A6A6;fill-opacity:1" d="M 30 27 L 31 27 L 32 27 L 32 28 L 31 28 L 30 28 L 30 27 " stroke-width="1" fill="undefined"/>
<path style="fill:#8B6612;fill-opacity:1" d="M 32 28 L 33 28 L 32.75 28.75 L 32 29 L 32 28 " stroke-width="1" fill="undefined"/>
<path style="fill:#CF9819;fill-opacity:1" d="M 32 29 L 31.75 29.75 L 31 30 L 31 29 L 32 29 " stroke-width="1" fill="undefined"/>
<path style="fill:#553D0A;fill-opacity:1" d="M 30 29 L 31 29 L 31 30 L 30 30 L 30 29 " stroke-width="1" fill="undefined"/>
<path style="fill:#FAB81D;fill-opacity:1" d="M 36 29 Q 36 29.5 36.25 29.75 L 37 30 L 37.25 30.75 L 38 31 L 39 31 Q 39 31.5 39.25 31.75 L 40 32 L 40 33 L 40 34 L 39 34 L 38 34 L 37 34 L 36 34 L 35 34 L 34 34 L 33 34 L 32.75 33.25 L 32 33 L 31 33 L 30 33 L 29 33 L 29 32 L 29 31 L 29.75 30.75 L 30 30 L 31 30 L 31.75 29.75 L 32 29 L 32.75 28.75 L 33 28 L 34 28 L 34.25 28.75 L 35 29 L 36 29 " stroke-width="1" fill="undefined"/>
<path style="fill:#4E493D;fill-opacity:1" d="M 32 28 L 32 29 L 31 29 L 31 28 L 32 28 " stroke-width="1" fill="undefined"/>
<path style="fill:#B4B4B4;fill-opacity:1" d="M 30 29 L 30 28 L 31 28 L 31 29 L 30 29 " stroke-width="1" fill="undefined"/>
<path style="fill:#E9AC1C;fill-opacity:1" d="M 35 29 L 34.25 28.75 L 34 28 L 35 28 L 35 29 M 32 34 L 32 33 L 32.75 33.25 L 33 34 L 32 34 " stroke-width="1" fill="undefined"/>
<path style="fill:#7F5E10;fill-opacity:1" d="M 36 29 L 35 29 L 35 28 L 36 28 L 36 29 " stroke-width="1" fill="undefined"/>
<path style="fill:#20190D;fill-opacity:1" d="M 33 28 L 33 27 L 34 27 L 34 28 L 33 28 " stroke-width="1" fill="undefined"/>
<path style="fill:#808080;fill-opacity:1" d="M 36 28 L 35 28 L 35 27 L 36 27 L 36 28 " stroke-width="1" fill="undefined"/>
<path style="fill:#C8C8C8;fill-opacity:1" d="M 41 26 L 41 27 L 40 27 L 40 26 L 41 26 " stroke-width="1" fill="undefined"/>
<path style="fill:#FEFEFE;fill-opacity:1" d="M 38 28 L 38 27 L 38 26 L 38 25 L 39 25 L 40 25 L 40 26 L 40 27 L 39 27 L 39 28 L 38 28 " stroke-width="1" fill="undefined"/>
<path style="fill:#D1D1D1;fill-opacity:1" d="M 41 25 L 41 26 L 40 26 L 40 25 L 41 25 " stroke-width="1" fill="undefined"/>
<path style="fill:#A08B8F;fill-opacity:1" d="M 41 24 L 41 25 L 40 25 L 40 24 L 41 24 " stroke-width="1" fill="undefined"/>
<path style="fill:#BBBBBB;fill-opacity:1" d="M 40 24 L 40 25 L 39 25 L 39 24 L 40 24 " stroke-width="1" fill="undefined"/>
<path style="fill:#F0F0F0;fill-opacity:1" d="M 40 28 L 39 28 L 39 27 L 40 27 L 40 28 M 28 28 L 27 28 L 27 27 L 28 27 L 28 28 " stroke-width="1" fill="undefined"/>
<path style="fill:#848484;fill-opacity:1" d="M 39 24 L 39 25 L 38 25 L 38 24 L 39 24 " stroke-width="1" fill="undefined"/>
<path style="fill:#404040;fill-opacity:1" d="M 38 24 L 38 25 L 37 25 L 37 24 L 38 24 " stroke-width="1" fill="undefined"/>
<path style="fill:#040404;fill-opacity:1" d="M 37 24 L 37 25 L 36 25 L 36 24 L 37 24 " stroke-width="1" fill="undefined"/>
<path style="fill:#323232;fill-opacity:1" d="M 37 26 L 36 26 L 36 25 L 37 25 L 37 26 " stroke-width="1" fill="undefined"/>
<path style="fill:#CFCFCF;fill-opacity:1" d="M 37 27 L 37 26 L 38 26 L 38 27 L 37 27 " stroke-width="1" fill="undefined"/>
<path style="fill:#161616;fill-opacity:1" d="M 37 27 L 36 27 L 36 26 L 37 26 L 37 27 " stroke-width="1" fill="undefined"/>
<path style="fill:#B9B9B9;fill-opacity:1" d="M 37 28 L 36 28 L 36 27 L 37 27 L 37 28 " stroke-width="1" fill="undefined"/>
<path style="fill:#EDEDED;fill-opacity:1" d="M 38 26 L 37 26 L 37 25 L 38 25 L 38 26 " stroke-width="1" fill="undefined"/>
<path style="fill:#F9F9F9;fill-opacity:1" d="M 37 28 L 37 27 L 38 27 L 38 28 L 37 28 " stroke-width="1" fill="undefined"/>
<path style="fill:#414141;fill-opacity:1" d="M 36 28 L 37 28 L 37 29 L 36 29 L 36 28 " stroke-width="1" fill="undefined"/>
<path style="fill:#CE9719;fill-opacity:1" d="M 37 30 L 36.25 29.75 Q 36 29.5 36 29 L 37 29 L 37 30 " stroke-width="1" fill="undefined"/>
<path style="fill:#473409;fill-opacity:1" d="M 37 30 L 37 29 L 38 29 L 38 30 L 37 30 " stroke-width="1" fill="undefined"/>
<path style="fill:#30060A;fill-opacity:1" d="M 39 30 L 38 30 L 38 29 L 39 29 L 39 30 " stroke-width="1" fill="undefined"/>
<path style="fill:#CCCCCC;fill-opacity:1" d="M 37 29 L 37 28 L 38 28 L 38 29 L 37 29 " stroke-width="1" fill="undefined"/>
<path style="fill:#E4A71B;fill-opacity:1" d="M 38 31 L 37.25 30.75 L 37 30 L 38 30 L 38 31 " stroke-width="1" fill="undefined"/>
<path style="fill:#B3B3B3;fill-opacity:1" d="M 39 29 L 38 29 L 38 28 L 39 28 L 39 29 " stroke-width="1" fill="undefined"/>
<path style="fill:#525051;fill-opacity:1" d="M 40 29 L 39 29 L 39 28 L 40 28 L 40 29 " stroke-width="1" fill="undefined"/>
<path style="fill:#750019;fill-opacity:1" d="M 39 30 L 39 29 L 40 29 L 40 30 L 39 30 " stroke-width="1" fill="undefined"/>
<path style="fill:#4C0011;fill-opacity:1" d="M 40 29 L 40 28 L 41 28 L 40.75 28.75 L 40 29 " stroke-width="1" fill="undefined"/>
<path style="fill:#A50021;fill-opacity:1" d="M 42 28 L 43 28 L 43 29 L 42 29 L 42 30 L 41 30 L 41 31 L 41 32 L 40 32 L 40 31 L 40 30 L 40 29 L 40.75 28.75 L 41 28 L 42 28 " stroke-width="1" fill="undefined"/>
<path style="fill:#985B15;fill-opacity:1" d="M 39 31 L 38 31 L 38 30 L 39 30 L 39 31 " stroke-width="1" fill="undefined"/>
<path style="fill:#86787B;fill-opacity:1" d="M 41 28 L 40 28 L 40 27 L 41 27 L 41 28 " stroke-width="1" fill="undefined"/>
<path style="fill:#0B0002;fill-opacity:1" d="M 35 23 L 36 23 L 36 24 L 35 24 L 35 23 " stroke-width="1" fill="undefined"/>
<path style="fill:#231316;fill-opacity:1" d="M 41 24 L 40 24 L 40 23 L 41 23 L 41 24 " stroke-width="1" fill="undefined"/>
<path style="fill:#C30029;fill-opacity:1" d="M 29 20 L 29.75 20.25 L 30 21 L 29 21 L 29 20 M 14 30 L 14 31 Q 13.5 31 13.4 30.8 Q 13 30 13 29 L 14 29 L 14 30 " stroke-width="1" fill="undefined"/>
<path style="fill:#3C000D;fill-opacity:1" d="M 28 21 Q 27.5 21 27.25 20.75 Q 27 20.5 27 20 L 28 20 L 28 21 " stroke-width="1" fill="undefined"/>
<path style="fill:#A00021;fill-opacity:1" d="M 16 11 L 17 11 Q 17 11.5 16.75 11.75 Q 16.5 12 16 12 L 16 11 M 26 20 L 26 19 L 26.75 19.25 L 27 20 L 26 20 " stroke-width="1" fill="undefined"/>
<path style="fill:#2D000A;fill-opacity:1" d="M 25.25 19.75 Q 25 19.5 25 19 L 26 19 L 26 20 Q 25.5 20 25.25 19.75 " stroke-width="1" fill="undefined"/>
<path style="fill:#444444;fill-opacity:1" d="M 28 24 L 27 24 L 27 23 L 28 23 L 28 24 " stroke-width="1" fill="undefined"/>
<path style="fill:#655054;fill-opacity:1" d="M 27 24 L 26 24 L 26 23 L 27 23 L 27 24 " stroke-width="1" fill="undefined"/>
<path style="fill:#38000C;fill-opacity:1" d="M 30 22 L 29.25 21.75 Q 29 21.5 29 21 L 30 21 L 30 22 " stroke-width="1" fill="undefined"/>
<path style="fill:#050505;fill-opacity:1" d="M 29 23 L 29.75 23.25 L 30 24 L 29 24 L 29 23 " stroke-width="1" fill="undefined"/>
<path style="fill:#92001F;fill-opacity:1" d="M 11 16 L 12 16 Q 12 16.5 11.75 16.75 Q 11.5 17 11 17 L 11 16 M 28 21 L 28 20 L 29 20 L 29 21 L 28 21 " stroke-width="1" fill="undefined"/>
<path style="fill:#1F1F1F;fill-opacity:1" d="M 29 24 L 28 24 L 28 23 L 29 23 L 29 24 " stroke-width="1" fill="undefined"/>
<path style="fill:#85001C;fill-opacity:1" d="M 18 9 L 18 8 L 19 8 L 19 9 L 18 9 M 23 20 L 23 19 L 24 19 L 24 20 L 23 20 " stroke-width="1" fill="undefined"/>
<path style="fill:#C7002A;fill-opacity:1" d="M 23 19 L 23 18 L 24 18 L 24 19 L 23 19 M 21 27 Q 21.5 27 21.75 27.25 Q 22 27.5 22 28 L 21 28 L 21 27 " stroke-width="1" fill="undefined"/>
<path style="fill:#BC0028;fill-opacity:1" d="M 23 22 L 22.25 21.75 L 22 21 L 23 21 L 23 22 " stroke-width="1" fill="undefined"/>
<path style="fill:#2F000A;fill-opacity:1" d="M 24 21 L 24 22 L 23 22 L 23 21 L 24 21 " stroke-width="1" fill="undefined"/>
<path style="fill:#4F0010;fill-opacity:1" d="M 24 22 Q 24.5 22 24.75 22.25 L 25 23 L 24 23 L 24 22 " stroke-width="1" fill="undefined"/>
<path style="fill:#4D0010;fill-opacity:1" d="M 24 20 L 24 21 L 23 21 L 23 20 L 24 20 " stroke-width="1" fill="undefined"/>
<path style="fill:#5F3941;fill-opacity:1" d="M 26 27 L 25 27 L 25 26 L 26 26 L 26 27 " stroke-width="1" fill="undefined"/>
<path style="fill:#AA0022;fill-opacity:1" d="M 24 32 L 23.9 31.45 Q 22.4 31.1 23 29 L 23.8 27.9 L 24 27 L 24 26 L 24 25 L 25 25 L 25 26 L 25 27 L 25 28 L 25.25 28.75 L 26 29 Q 26 29.5 26.25 29.75 L 27 30 L 28 30 L 28 31 L 27 31 L 27 32 L 26 32 L 25 32 L 24 32 " stroke-width="1" fill="undefined"/>
<path style="fill:#6E4E55;fill-opacity:1" d="M 26 25 L 26 26 L 25 26 L 25 25 L 26 25 " stroke-width="1" fill="undefined"/>
<path style="fill:#863647;fill-opacity:1" d="M 26 24 L 26 25 L 25 25 L 25 24 L 26 24 " stroke-width="1" fill="undefined"/>
<path style="fill:#C70029;fill-opacity:1" d="M 23 27 L 23 26 L 24 26 L 24 27 L 23 27 " stroke-width="1" fill="undefined"/>
<path style="fill:#AB0022;fill-opacity:1" d="M 21 28 L 21.25 28.75 L 22 29 L 22 30 L 21 30 L 21 31 L 20.95 31.5 Q 17.05 32 18 27 L 18.75 26.75 L 19 26 Q 20 26 20.8 26.4 Q 21 26.5 21 27 L 21 28 " stroke-width="1" fill="undefined"/>
<path style="fill:#BE0028;fill-opacity:1" d="M 22 30 L 21.75 30.75 L 21 31 L 21 30 L 22 30 M 15 32 L 16 32 L 15.75 32.75 L 15 33 L 15 32 " stroke-width="1" fill="undefined"/>
<path style="fill:#620F1F;fill-opacity:1" d="M 26 28 L 25 28 L 25 27 L 26 27 L 26 28 " stroke-width="1" fill="undefined"/>
<path style="fill:#999999;fill-opacity:1" d="M 30 24 L 30 25 L 29 25 L 29 24 L 30 24 " stroke-width="1" fill="undefined"/>
<path style="fill:#C9C9C9;fill-opacity:1" d="M 29 24 L 29 25 L 28 25 L 28 24 L 29 24 " stroke-width="1" fill="undefined"/>
<path style="fill:#9D9D9D;fill-opacity:1" d="M 29 27 L 29 26 L 30 26 L 30 27 L 29 27 " stroke-width="1" fill="undefined"/>
<path style="fill:#FFFFFF;fill-opacity:1" d="M 27 26 L 27 25 L 28 25 L 29 25 L 29 26 L 29 27 L 28 27 L 27 27 L 27 26 " stroke-width="1" fill="undefined"/>
<path style="fill:#B5B5B5;fill-opacity:1" d="M 29 26 L 29 25 L 30 25 L 30 26 L 29 26 " stroke-width="1" fill="undefined"/>
<path style="fill:#ECECEC;fill-opacity:1" d="M 29 27 L 30 27 L 30 28 L 29 28 L 29 27 " stroke-width="1" fill="undefined"/>
<path style="fill:#F5F5F5;fill-opacity:1" d="M 28 25 L 27 25 L 27 24 L 28 24 L 28 25 " stroke-width="1" fill="undefined"/>
<path style="fill:#E4E3E3;fill-opacity:1" d="M 27 25 L 26 25 L 26 24 L 27 24 L 27 25 " stroke-width="1" fill="undefined"/>
<path style="fill:#E4E4E4;fill-opacity:1" d="M 26 27 L 26 26 L 27 26 L 27 27 L 26 27 " stroke-width="1" fill="undefined"/>
<path style="fill:#FAFAFA;fill-opacity:1" d="M 27 25 L 27 26 L 26 26 L 26 25 L 27 25 " stroke-width="1" fill="undefined"/>
<path style="fill:#8F8F8F;fill-opacity:1" d="M 26 27 L 27 27 L 27 28 L 26 28 L 26 27 " stroke-width="1" fill="undefined"/>
<path style="fill:#5A5A5A;fill-opacity:1" d="M 27 28 L 28 28 L 28 29 L 27 29 L 27 28 " stroke-width="1" fill="undefined"/>
<path style="fill:#3F000D;fill-opacity:1" d="M 28 29 L 29 29 L 29 30 L 28 30 L 28 29 " stroke-width="1" fill="undefined"/>
<path style="fill:#5A0013;fill-opacity:1" d="M 28 29 L 28 30 L 27 30 L 27 29 L 28 29 " stroke-width="1" fill="undefined"/>
<path style="fill:#270009;fill-opacity:1" d="M 27 29 L 26 29 L 26 28 L 27 28 L 27 29 " stroke-width="1" fill="undefined"/>
<path style="fill:#A9A9A9;fill-opacity:1" d="M 28 29 L 28 28 L 29 28 L 29 29 L 28 29 " stroke-width="1" fill="undefined"/>
<path style="fill:#D3D3D3;fill-opacity:1" d="M 29 29 L 29 28 L 30 28 L 30 29 L 29 29 " stroke-width="1" fill="undefined"/>
<path style="fill:#1F0806;fill-opacity:1" d="M 29 29 L 30 29 L 30 30 L 29 30 L 29 29 " stroke-width="1" fill="undefined"/>
<path style="fill:#985F14;fill-opacity:1" d="M 29 30 L 30 30 L 29.75 30.75 L 29 31 L 29 30 " stroke-width="1" fill="undefined"/>
<path style="fill:#FBFBFB;fill-opacity:1" d="M 28 27 L 29 27 L 29 28 L 28 28 L 28 27 " stroke-width="1" fill="undefined"/>
<path style="fill:#86091B;fill-opacity:1" d="M 28 30 L 29 30 L 29 31 L 28 31 L 28 30 " stroke-width="1" fill="undefined"/>
<path style="fill:#A40B2B;fill-opacity:1" d="M 25 24 L 25 23 L 26 23 L 26 24 L 25 24 " stroke-width="1" fill="undefined"/>
<path style="fill:#77500F;fill-opacity:1" d="M 28 32 L 28 31 L 29 31 L 29 32 L 28 32 " stroke-width="1" fill="undefined"/>
<path style="fill:#BD8C17;fill-opacity:1" d="M 28 33 L 28 32 L 29 32 L 29 33 L 28 33 " stroke-width="1" fill="undefined"/>
<path style="fill:#7A590F;fill-opacity:1" d="M 30 34 L 29 34 L 29 33 L 30 33 L 30 34 " stroke-width="1" fill="undefined"/>
<path style="fill:#97001F;fill-opacity:1" d="M 27 32 L 27 31 L 28 31 L 28 32 L 27 32 " stroke-width="1" fill="undefined"/>
<path style="fill:#D65964;fill-opacity:1" d="M 27 32 L 27 33 L 26 33 L 26 32 L 27 32 " stroke-width="1" fill="undefined"/>
<path style="fill:#D94A5A;fill-opacity:1" d="M 25 33 L 25 32 L 26 32 L 26 33 L 25 33 " stroke-width="1" fill="undefined"/>
<path style="fill:#29070D;fill-opacity:1" d="M 27 33 L 27 32 L 28 32 L 28 33 L 27 33 " stroke-width="1" fill="undefined"/>
<path style="fill:#191006;fill-opacity:1" d="M 27 34 L 27 33 L 28 33 L 28 34 L 27 34 " stroke-width="1" fill="undefined"/>
<path style="fill:#B29A84;fill-opacity:1" d="M 27 34 L 26 34 L 26 33 L 27 33 L 27 34 M 21 42 L 21 41 L 22 41 L 22 42 L 21 42 " stroke-width="1" fill="undefined"/>
<path style="fill:#8D5813;fill-opacity:1" d="M 27 35 L 27 34 L 28 34 L 28 35 L 27 35 " stroke-width="1" fill="undefined"/>
<path style="fill:#A8917D;fill-opacity:1" d="M 27 35 L 26.25 34.75 Q 26 34.5 26 34 L 27 34 L 27 35 " stroke-width="1" fill="undefined"/>
<path style="fill:#E1C2A6;fill-opacity:1" d="M 28 38 L 28 39 L 28.25 39.75 L 29 40 L 29 41 L 29 42 L 28 42 L 27 42 L 26 42 L 25 42 L 24 42 L 23.75 41.25 L 23 41 L 22 41 L 21 41 L 20 41 L 19 41 L 18 41 Q 18 40.5 17.75 40.25 Q 17.5 40 17 40 L 16 40 Q 16 39.5 15.75 39.25 Q 15.5 39 15 39 L 14 39 L 14 38 L 14.75 37.75 Q 15 37.5 15 37 L 15.75 36.75 L 16 36 L 17 36 L 17.75 35.75 Q 18 35.5 18 35 L 18.75 34.75 L 19 34 L 20 34 L 21 34 L 22 34 L 23 34 L 23.75 33.75 L 24 33 L 25 33 L 26 33 L 26 34 Q 26 34.5 26.25 34.75 L 27 35 L 27 36 Q 27 36.5 27.25 36.75 L 28 37 L 28 38 " stroke-width="1" fill="undefined"/>
<path style="fill:#C5791B;fill-opacity:1" d="M 28 36 L 28 35 L 29 35 L 29 36 L 28 36 " stroke-width="1" fill="undefined"/>
<path style="fill:#4A3822;fill-opacity:1" d="M 27 35 L 28 35 L 28 36 L 27 36 L 27 35 " stroke-width="1" fill="undefined"/>
<path style="fill:#9E8975;fill-opacity:1" d="M 28 37 L 27.25 36.75 Q 27 36.5 27 36 L 28 36 L 28 37 " stroke-width="1" fill="undefined"/>
<path style="fill:#511F18;fill-opacity:1" d="M 28 35 L 28 34 L 29 34 L 29 35 L 28 35 " stroke-width="1" fill="undefined"/>
<path style="fill:#451617;fill-opacity:1" d="M 30 35 L 29 35 L 29 34 L 30 34 L 30 35 M 33 35 L 34 35 L 35 35 L 36 35 L 36 36 L 36 37 L 35 37 L 34.75 36.25 L 34 36 L 33 36 L 32 36 L 31 36 L 31 35 L 32 35 L 33 35 " stroke-width="1" fill="undefined"/>
<path style="fill:#8A4A1A;fill-opacity:1" d="M 30 36 L 29 36 L 29 35 L 30 35 L 30 36 " stroke-width="1" fill="undefined"/>
<path style="fill:#EF971E;fill-opacity:1" d="M 30 37 L 29 37 L 29 36 L 30 36 L 30 37 " stroke-width="1" fill="undefined"/>
<path style="fill:#3E1415;fill-opacity:1" d="M 31 35 L 30 35 L 30 34 L 31 34 L 31 35 " stroke-width="1" fill="undefined"/>
<path style="fill:#622C18;fill-opacity:1" d="M 31 36 L 30 36 L 30 35 L 31 35 L 31 36 " stroke-width="1" fill="undefined"/>
<path style="fill:#442E0A;fill-opacity:1" d="M 28 34 L 28 33 L 29 33 L 29 34 L 28 34 " stroke-width="1" fill="undefined"/>
<path style="fill:#915C13;fill-opacity:1" d="M 28 37 L 28 36 L 29 36 L 29 37 L 28 37 " stroke-width="1" fill="undefined"/>
<path style="fill:#A77B14;fill-opacity:1" d="M 31 34 L 30 34 L 30 33 L 31 33 L 31 34 " stroke-width="1" fill="undefined"/>
<path style="fill:#DA3E54;fill-opacity:1" d="M 24 32 L 25 32 L 25 33 L 24 33 L 24 32 " stroke-width="1" fill="undefined"/>
<path style="fill:#D9334D;fill-opacity:1" d="M 23 33 L 23 32 L 24 32 L 24 33 L 23 33 " stroke-width="1" fill="undefined"/>
<path style="fill:#D71338;fill-opacity:1" d="M 21 33 L 21 32 L 22 32 L 22 33 L 21 33 " stroke-width="1" fill="undefined"/>
<path style="fill:#D82845;fill-opacity:1" d="M 23 33 L 22 33 L 22 32 L 23 32 L 23 33 " stroke-width="1" fill="undefined"/>
<path style="fill:#E0A997;fill-opacity:1" d="M 23 34 L 22 34 L 22 33 L 23 33 L 23 34 " stroke-width="1" fill="undefined"/>
<path style="fill:#DF968B;fill-opacity:1" d="M 21 33 L 22 33 L 22 34 L 21 34 L 21 33 " stroke-width="1" fill="undefined"/>
<path style="fill:#DD7174;fill-opacity:1" d="M 17 36 L 16 36 L 16 35 L 17 35 L 17 36 M 20 33 L 21 33 L 21 34 L 20 34 L 20 33 " stroke-width="1" fill="undefined"/>
<path style="fill:#E1B49E;fill-opacity:1" d="M 23 33 L 24 33 L 23.75 33.75 L 23 34 L 23 33 " stroke-width="1" fill="undefined"/>
<path style="fill:#998471;fill-opacity:1" d="M 20 42 L 20 41 L 21 41 L 21 42 L 20 42 " stroke-width="1" fill="undefined"/>
<path style="fill:#1C1915;fill-opacity:1" d="M 21 43 L 21 42 L 22 42 L 22 43 L 21 43 " stroke-width="1" fill="undefined"/>
<path style="fill:#C3A991;fill-opacity:1" d="M 22 42 L 22 41 L 23 41 L 23 42 L 22 42 " stroke-width="1" fill="undefined"/>
<path style="fill:#28221E;fill-opacity:1" d="M 23 43 L 22 43 L 22 42 L 23 42 L 23 43 " stroke-width="1" fill="undefined"/>
<path style="fill:#D9BBA0;fill-opacity:1" d="M 23 42 L 23 41 L 23.75 41.25 L 24 42 L 23 42 M 37 40 L 36 40 L 36 39 L 37 39 L 37 40 " stroke-width="1" fill="undefined"/>
<path style="fill:#3C332C;fill-opacity:1" d="M 25 43 L 24 43 L 24 42 L 25 42 L 25 43 M 29 43 L 28 43 L 28 42 L 29 42 L 29 43 " stroke-width="1" fill="undefined"/>
<path style="fill:#352E28;fill-opacity:1" d="M 23 43 L 23 42 L 24 42 L 24 43 L 23 43 " stroke-width="1" fill="undefined"/>
<path style="fill:#F59B1E;fill-opacity:1" d="M 32 37 L 33 37 L 34 37 L 35 37 L 35 38 L 34 38 L 34 39 L 33 39 L 33 40 L 32 40 L 31 40 L 30.75 39.25 Q 30.5 39 30 39 L 30 38 L 30 37 L 31 37 L 32 37 " stroke-width="1" fill="undefined"/>
<path style="fill:#925F19;fill-opacity:1" d="M 30 39 L 29 39 L 29 38 L 30 38 L 30 39 " stroke-width="1" fill="undefined"/>
<path style="fill:#D9891B;fill-opacity:1" d="M 30 38 L 29 38 L 29 37 L 30 37 L 30 38 " stroke-width="1" fill="undefined"/>
<path style="fill:#5A4833;fill-opacity:1" d="M 30 40 L 29 40 L 29 39 L 30 39 L 30 40 " stroke-width="1" fill="undefined"/>
<path style="fill:#9B856E;fill-opacity:1" d="M 29 38 L 29 39 L 28 39 L 28 38 L 29 38 " stroke-width="1" fill="undefined"/>
<path style="fill:#6B512E;fill-opacity:1" d="M 28 38 L 28 37 L 29 37 L 29 38 L 28 38 " stroke-width="1" fill="undefined"/>
<path style="fill:#4A4037;fill-opacity:1" d="M 27 42 L 28 42 L 28 43 L 27 43 L 27 42 " stroke-width="1" fill="undefined"/>
<path style="fill:#584D42;fill-opacity:1" d="M 26 42 L 27 42 L 27 43 L 26 43 L 26 42 " stroke-width="1" fill="undefined"/>
<path style="fill:#D2B49B;fill-opacity:1" d="M 29 39 L 29 40 L 28.25 39.75 L 28 39 L 29 39 " stroke-width="1" fill="undefined"/>
<path style="fill:#AE9780;fill-opacity:1" d="M 30 40 L 30 41 L 29 41 L 29 40 L 30 40 " stroke-width="1" fill="undefined"/>
<path style="fill:#DABCA1;fill-opacity:1" d="M 29 42 L 29 41 L 30 41 L 30 42 L 29 42 " stroke-width="1" fill="undefined"/>
<path style="fill:#362F29;fill-opacity:1" d="M 29 42 L 30 42 L 30 43 L 29 43 L 29 42 " stroke-width="1" fill="undefined"/>
<path style="fill:#2B1D08;fill-opacity:1" d="M 31 40 L 31 41 L 30 41 L 30 40 L 31 40 " stroke-width="1" fill="undefined"/>
<path style="fill:#706053;fill-opacity:1" d="M 31 41 L 31 42 L 30 42 L 30 41 L 31 41 " stroke-width="1" fill="undefined"/>
<path style="fill:#D4861A;fill-opacity:1" d="M 30 40 L 30 39 Q 30.5 39 30.75 39.25 L 31 40 L 30 40 " stroke-width="1" fill="undefined"/>
<path style="fill:#423A32;fill-opacity:1" d="M 26 43 L 25 43 L 25 42 L 26 42 L 26 43 " stroke-width="1" fill="undefined"/>
<path style="fill:#D8851D;fill-opacity:1" d="M 31 37 L 30 37 L 30 36 L 31 36 L 31 37 " stroke-width="1" fill="undefined"/>
<path style="fill:#9A6C13;fill-opacity:1" d="M 40 31 L 40 32 L 39.25 31.75 Q 39 31.5 39 31 L 40 31 " stroke-width="1" fill="undefined"/>
<path style="fill:#A05118;fill-opacity:1" d="M 41 33 L 40 33 L 40 32 L 41 32 L 41 33 " stroke-width="1" fill="undefined"/>
<path style="fill:#392608;fill-opacity:1" d="M 35 34 L 36 34 L 37 34 L 37 35 L 36 35 L 35 35 L 35 34 " stroke-width="1" fill="undefined"/>
<path style="fill:#21090B;fill-opacity:1" d="M 37 37 L 36 37 L 36 36 L 36 35 L 37 35 L 37 36 L 37 37 " stroke-width="1" fill="undefined"/>
<path style="fill:#D3002B;fill-opacity:1" d="M 40 38 L 39 38 L 38.75 37.25 L 38 37 L 38 36 L 38 35 L 39 35 L 39.8 36.1 L 40 37 L 40 38 " stroke-width="1" fill="undefined"/>
<path style="fill:#50380B;fill-opacity:1" d="M 38 35 L 37 35 L 37 34 L 38 34 L 38 35 " stroke-width="1" fill="undefined"/>
<path style="fill:#66470D;fill-opacity:1" d="M 40 35 L 39 35 L 38 35 L 38 34 L 39 34 L 40 34 L 40 35 " stroke-width="1" fill="undefined"/>
<path style="fill:#A60123;fill-opacity:1" d="M 38 37 L 37 37 L 37 36 L 38 36 L 38 37 " stroke-width="1" fill="undefined"/>
<path style="fill:#B60026;fill-opacity:1" d="M 41 35 L 41 36 L 41 37 L 40 37 L 39.8 36.1 L 39 35 L 40 35 L 41 35 " stroke-width="1" fill="undefined"/>
<path style="fill:#73520E;fill-opacity:1" d="M 41 35 L 40 35 L 40 34 L 41 34 L 41 35 " stroke-width="1" fill="undefined"/>
<path style="fill:#D49A1A;fill-opacity:1" d="M 41 33 L 41 34 L 40 34 L 40 33 L 41 33 " stroke-width="1" fill="undefined"/>
<path style="fill:#CB9618;fill-opacity:1" d="M 32 34 L 31 34 L 31 33 L 32 33 L 32 34 " stroke-width="1" fill="undefined"/>
<path style="fill:#2A0D0E;fill-opacity:1" d="M 32 35 L 32 34 L 33 34 L 33 35 L 32 35 " stroke-width="1" fill="undefined"/>
<path style="fill:#9A561B;fill-opacity:1" d="M 32 36 L 33 36 L 33 37 L 32 37 L 32 36 " stroke-width="1" fill="undefined"/>
<path style="fill:#331111;fill-opacity:1" d="M 32 35 L 31 35 L 31 34 L 32 34 L 32 35 " stroke-width="1" fill="undefined"/>
<path style="fill:#1D0909;fill-opacity:1" d="M 34 35 L 33 35 L 33 34 L 34 34 L 34 35 " stroke-width="1" fill="undefined"/>
<path style="fill:#BD701C;fill-opacity:1" d="M 32 37 L 31 37 L 31 36 L 32 36 L 32 37 " stroke-width="1" fill="undefined"/>
<path style="fill:#281309;fill-opacity:1" d="M 35 35 L 34 35 L 34 34 L 35 34 L 35 35 " stroke-width="1" fill="undefined"/>
<path style="fill:#562218;fill-opacity:1" d="M 34 36 L 34.75 36.25 L 35 37 L 34 37 L 34 36 " stroke-width="1" fill="undefined"/>
<path style="fill:#783D19;fill-opacity:1" d="M 33 36 L 34 36 L 34 37 L 33 37 L 33 36 " stroke-width="1" fill="undefined"/>
<path style="fill:#A56C1E;fill-opacity:1" d="M 36 39 L 35 39 L 35 38 L 36 38 L 36 39 " stroke-width="1" fill="undefined"/>
<path style="fill:#E5901C;fill-opacity:1" d="M 35 39 L 34 39 L 34 38 L 35 38 L 35 39 " stroke-width="1" fill="undefined"/>
<path style="fill:#EE961E;fill-opacity:1" d="M 36 38 L 35 38 L 35 37 L 36 37 L 36 38 " stroke-width="1" fill="undefined"/>
<path style="fill:#704E21;fill-opacity:1" d="M 35 40 L 34 40 L 34 39 L 35 39 L 35 40 " stroke-width="1" fill="undefined"/>
<path style="fill:#835513;fill-opacity:1" d="M 32 40 L 33 40 L 33 41 L 32 41 L 32 40 " stroke-width="1" fill="undefined"/>
<path style="fill:#30251C;fill-opacity:1" d="M 32 41 L 32 42 L 31 42 L 31 41 L 32 41 " stroke-width="1" fill="undefined"/>
<path style="fill:#6E6051;fill-opacity:1" d="M 34 41 L 34 42 L 33 42 L 33 41 L 34 41 " stroke-width="1" fill="undefined"/>
<path style="fill:#473D33;fill-opacity:1" d="M 32 41 L 33 41 L 33 42 L 32 42 L 32 41 " stroke-width="1" fill="undefined"/>
<path style="fill:#0B0908;fill-opacity:1" d="M 32 42 L 33 42 L 33 43 L 32 43 L 32 42 " stroke-width="1" fill="undefined"/>
<path style="fill:#D7881A;fill-opacity:1" d="M 31 41 L 31 40 L 32 40 L 32 41 L 31 41 " stroke-width="1" fill="undefined"/>
<path style="fill:#151210;fill-opacity:1" d="M 31 42 L 32 42 L 32 43 L 31 43 L 31 42 " stroke-width="1" fill="undefined"/>
<path style="fill:#36302A;fill-opacity:1" d="M 34 41 L 33 41 L 33 40 L 34 40 L 34 41 " stroke-width="1" fill="undefined"/>
<path style="fill:#C1A88F;fill-opacity:1" d="M 35 41 L 34 41 L 34 40 L 35 40 L 35 41 " stroke-width="1" fill="undefined"/>
<path style="fill:#342C27;fill-opacity:1" d="M 34 42 L 34 41 L 35 41 L 35 42 L 34 42 " stroke-width="1" fill="undefined"/>
<path style="fill:#000000;fill-opacity:0.603922" d="M 34 42 L 35 42 L 35 43 L 34 43 L 34 42 " stroke-width="1" fill="undefined"/>
<path style="fill:#B09A83;fill-opacity:1" d="M 36 41 L 35 41 L 35 40 L 36 40 L 36 41 " stroke-width="1" fill="undefined"/>
<path style="fill:#060404;fill-opacity:0.952941" d="M 36 41 L 36 42 L 35 42 L 35 41 L 36 41 " stroke-width="1" fill="undefined"/>
<path style="fill:#D2851A;fill-opacity:1" d="M 34 40 L 33 40 L 33 39 L 34 39 L 34 40 " stroke-width="1" fill="undefined"/>
<path style="fill:#000000;fill-opacity:0.901961" d="M 34 43 L 33 43 L 33 42 L 34 42 L 34 43 M 13 40 L 12 40 L 12 39 L 13 39 L 13 40 " stroke-width="1" fill="undefined"/>
<path style="fill:#A1886F;fill-opacity:1" d="M 36 40 L 35 40 L 35 39 L 36 39 L 36 40 " stroke-width="1" fill="undefined"/>
<path style="fill:#000000;fill-opacity:0.866667" d="M 41 39 L 40 39 L 40 38 L 41 38 L 41 39 M 16 42 L 16 41 L 17 41 L 17 42 L 16 42 " stroke-width="1" fill="undefined"/>
<path style="fill:#41000E;fill-opacity:1" d="M 19 9 L 19 10 L 18 10 L 18 9 L 19 9 M 40 39 L 39 39 L 39 38 L 40 38 L 40 39 " stroke-width="1" fill="undefined"/>
<path style="fill:#500011;fill-opacity:1" d="M 41 38 L 40 38 L 40 37 L 41 37 L 41 38 " stroke-width="1" fill="undefined"/>
<path style="fill:#000000;fill-opacity:0.890196" d="M 40 40 L 39 40 L 39 39 L 40 39 L 40 40 " stroke-width="1" fill="undefined"/>
<path style="fill:#B0122F;fill-opacity:1" d="M 39 38 L 39 39 L 38 39 L 38 38 L 39 38 " stroke-width="1" fill="undefined"/>
<path style="fill:#BD0028;fill-opacity:1" d="M 8 32 Q 8.5 32 8.75 32.25 Q 9 32.5 9 33 L 8 33 L 8 32 M 38 38 L 38 37 L 38.75 37.25 L 39 38 L 38 38 " stroke-width="1" fill="undefined"/>
<path style="fill:#BC731B;fill-opacity:1" d="M 37 38 L 36 38 L 36 37 L 37 37 L 37 38 " stroke-width="1" fill="undefined"/>
<path style="fill:#6E5A44;fill-opacity:1" d="M 37 39 L 36 39 L 36 38 L 37 38 L 37 39 " stroke-width="1" fill="undefined"/>
<path style="fill:#C37B74;fill-opacity:1" d="M 37 39 L 37 38 L 38 38 L 38 39 L 37 39 " stroke-width="1" fill="undefined"/>
<path style="fill:#4D1311;fill-opacity:1" d="M 38 38 L 37 38 L 37 37 L 38 37 L 38 38 " stroke-width="1" fill="undefined"/>
<path style="fill:#886D60;fill-opacity:1" d="M 37 40 L 37 39 L 38 39 L 38 40 L 37 40 " stroke-width="1" fill="undefined"/>
<path style="fill:#322B25;fill-opacity:1" d="M 36 40 L 37 40 L 37 41 L 36 41 L 36 40 " stroke-width="1" fill="undefined"/>
<path style="fill:#000000;fill-opacity:0.752941" d="M 36 42 L 36 41 L 37 41 L 37 42 L 36 42 " stroke-width="1" fill="undefined"/>
<path style="fill:#000000;fill-opacity:0.101961" d="M 36 42 L 37 42 L 36.75 42.75 L 36 43 L 36 42 M 1 21 L 1 20 L 2 20 L 2 21 L 1 21 " stroke-width="1" fill="undefined"/>
<path style="fill:#000000;fill-opacity:0.407843" d="M 37 41 L 38 41 L 38 42 L 37 42 L 37 41 " stroke-width="1" fill="undefined"/>
<path style="fill:#000000;fill-opacity:0.984314" d="M 37 41 L 37 40 L 38 40 L 38 41 L 37 41 " stroke-width="1" fill="undefined"/>
<path style="fill:#000000;fill-opacity:0.74902" d="M 38 40 L 39 40 L 39 41 L 38 41 L 38 40 " stroke-width="1" fill="undefined"/>
<path style="fill:#000000;fill-opacity:0.0901961" d="M 39 40 L 40 40 L 39.75 40.75 L 39 41 L 39 40 " stroke-width="1" fill="undefined"/>
<path style="fill:#000000;fill-opacity:0.270588" d="M 42 38 L 41.75 38.75 L 41 39 L 40.75 39.75 L 40 40 L 40 39 L 41 39 L 41 38 L 42 38 " stroke-width="1" fill="undefined"/>
<path style="fill:#250D10;fill-opacity:1" d="M 38 40 L 38 39 L 39 39 L 39 40 L 38 40 " stroke-width="1" fill="undefined"/>
<path style="fill:#000000;fill-opacity:0.286275" d="M 35 42 L 36 42 L 36 43 L 35 43 L 35 42 " stroke-width="1" fill="undefined"/>
<path style="fill:#2B241F;fill-opacity:1" d="M 31 43 L 30 43 L 30 42 L 31 42 L 31 43 " stroke-width="1" fill="undefined"/>
<path style="fill:#000000;fill-opacity:0.0980392" d="M 44 21 L 44 20 L 44.75 20.25 L 45 21 L 44 21 M 13 13 L 12 13 L 12 12 L 13 12 L 13 13 " stroke-width="1" fill="undefined"/>
<path style="fill:#000000;fill-opacity:0.482353" d="M 43 20 L 43 19 L 44 19 L 44 20 L 43 20 " stroke-width="1" fill="undefined"/>
<path style="fill:#000000;fill-opacity:0.129412" d="M 43 19 L 43 18 L 43.75 18.25 L 44 19 L 43 19 M 45 27 L 46 27 L 45.8 27.9 L 45 29 L 45 28 L 45 27 " stroke-width="1" fill="undefined"/>
<path style="fill:#060000;fill-opacity:0.878431" d="M 42 19 L 42 18 L 43 18 L 43 19 L 42 19 " stroke-width="1" fill="undefined"/>
<path style="fill:#AF0024;fill-opacity:1" d="M 41 18 L 42 18 L 42 19 Q 41.5 19 41.25 18.75 Q 41 18.5 41 18 " stroke-width="1" fill="undefined"/>
<path style="fill:#30000A;fill-opacity:1" d="M 41 20 L 42 20 L 42 21 L 41 21 L 41 20 " stroke-width="1" fill="undefined"/>
<path style="fill:#5F0014;fill-opacity:0.992157" d="M 42 20 L 42 19 L 43 19 L 43 20 L 42 20 M 8 22 L 8 21 L 9 21 L 9 22 L 8 22 " stroke-width="1" fill="undefined"/>
<path style="fill:#1E0007;fill-opacity:1" d="M 42 20 L 43 20 L 43 21 L 42 21 L 42 20 " stroke-width="1" fill="undefined"/>
<path style="fill:#5C0013;fill-opacity:1" d="M 42 24 L 41 24 L 41 23 L 42 23 L 42 24 " stroke-width="1" fill="undefined"/>
<path style="fill:#AB0023;fill-opacity:1" d="M 42 23 L 43 23 L 43 24 L 42 24 L 42 23 " stroke-width="1" fill="undefined"/>
<path style="fill:#110003;fill-opacity:0.933333" d="M 43 22 L 43 21 L 44 21 L 44 22 L 43 22 " stroke-width="1" fill="undefined"/>
<path style="fill:#0E0002;fill-opacity:1" d="M 44 22 L 44 23 L 43 23 L 43 22 L 44 22 " stroke-width="1" fill="undefined"/>
<path style="fill:#000000;fill-opacity:0.223529" d="M 44 22 L 44 21 L 45 21 L 45 22 L 44 22 " stroke-width="1" fill="undefined"/>
<path style="fill:#000000;fill-opacity:0.427451" d="M 44 22 L 45 22 L 45 23 L 44 23 L 44 22 " stroke-width="1" fill="undefined"/>
<path style="fill:#0A0002;fill-opacity:0.701961" d="M 44 24 L 44 23 L 45 23 L 45 24 L 44 24 " stroke-width="1" fill="undefined"/>
<path style="fill:#070000;fill-opacity:0.745098" d="M 43 21 L 43 20 L 44 20 L 44 21 L 43 21 " stroke-width="1" fill="undefined"/>
<path style="fill:#9E0020;fill-opacity:1" d="M 43 31 L 43 30 L 44 30 L 44 31 L 43 31 M 43 24 L 43 23 L 44 23 L 44 24 L 43 24 " stroke-width="1" fill="undefined"/>
<path style="fill:#2D0009;fill-opacity:1" d="M 45 28 L 45 29 L 44 29 L 44 28 L 44 25 L 45 25 L 45 26 L 45 27 L 45 28 " stroke-width="1" fill="undefined"/>
<path style="fill:#1A0005;fill-opacity:0.886275" d="M 44 24 L 45 24 L 45 25 L 44 25 L 44 24 " stroke-width="1" fill="undefined"/>
<path style="fill:#D6002C;fill-opacity:1" d="M 42 25 L 42 24 L 43 24 L 43 25 L 42.75 25.75 L 42 26 L 42 25 " stroke-width="1" fill="undefined"/>
<path style="fill:#B30C2F;fill-opacity:1" d="M 42 24 L 42 25 L 41 25 L 41 24 L 42 24 " stroke-width="1" fill="undefined"/>
<path style="fill:#93273D;fill-opacity:1" d="M 42 26 L 41 26 L 41 25 L 42 25 L 42 26 " stroke-width="1" fill="undefined"/>
<path style="fill:#C60029;fill-opacity:1" d="M 43 29 L 43 28 L 42.75 27.25 Q 42.5 27 42 27 L 42 26 L 42.75 25.75 L 43 25 L 44 25 L 44 28 L 44 29 L 43 29 " stroke-width="1" fill="undefined"/>
<path style="fill:#842035;fill-opacity:1" d="M 42 26 L 42 27 L 41 27 L 41 26 L 42 26 " stroke-width="1" fill="undefined"/>
<path style="fill:#870721;fill-opacity:1" d="M 42 28 L 41 28 L 41 27 L 42 27 L 42 28 " stroke-width="1" fill="undefined"/>
<path style="fill:#AE0023;fill-opacity:1" d="M 41 31 L 41 30 L 42 30 L 41.75 30.75 L 41 31 " stroke-width="1" fill="undefined"/>
<path style="fill:#B10024;fill-opacity:1" d="M 20 6 Q 19.5 6 19.25 5.75 L 19 5 L 20 5 L 20 6 M 42 27 Q 42.5 27 42.75 27.25 L 43 28 L 42 28 L 42 27 " stroke-width="1" fill="undefined"/>
<path style="fill:#B40026;fill-opacity:1" d="M 43 30 L 42 30 L 42 29 L 43 29 L 44 29 L 44 30 L 43 30 " stroke-width="1" fill="undefined"/>
<path style="fill:#D1002B;fill-opacity:1" d="M 41.75 30.75 L 42 30 L 43 30 L 43 31 L 43 32 L 43 33 L 42 33 L 41.75 32.25 L 41 32 L 41 31 L 41.75 30.75 " stroke-width="1" fill="undefined"/>
<path style="fill:#1E0006;fill-opacity:0.968627" d="M 44 29 L 45 29 L 45 30 L 44 30 L 44 29 " stroke-width="1" fill="undefined"/>
<path style="fill:#0F0003;fill-opacity:0.847059" d="M 44 31 L 44 30 L 45 30 L 45 31 L 44 31 " stroke-width="1" fill="undefined"/>
<path style="fill:#010000;fill-opacity:0.635294" d="M 44 31 L 45 31 L 45 32 L 44 32 L 44 31 " stroke-width="1" fill="undefined"/>
<path style="fill:#000000;fill-opacity:0.396078" d="M 45 32 L 45 33 L 44 33 L 44 32 L 45 32 M 9 37 L 8.25 36.75 L 8 36 L 9 36 L 9 37 " stroke-width="1" fill="undefined"/>
<path style="fill:#4F0010;fill-opacity:0.996078" d="M 43 33 L 43 32 L 44 32 L 44 33 L 43 33 " stroke-width="1" fill="undefined"/>
<path style="fill:#000000;fill-opacity:0.203922" d="M 44 34 L 44 33 L 45 33 L 45 34 L 44 34 " stroke-width="1" fill="undefined"/>
<path style="fill:#BF0428;fill-opacity:1" d="M 42 33 L 41 33 L 41 32 L 41.75 32.25 L 42 33 " stroke-width="1" fill="undefined"/>
<path style="fill:#8B1E1A;fill-opacity:1" d="M 42 33 L 42 34 L 41 34 L 41 33 L 42 33 " stroke-width="1" fill="undefined"/>
<path style="fill:#BF0028;fill-opacity:1" d="M 43 34 L 42 34 L 42 33 L 43 33 L 43 34 " stroke-width="1" fill="undefined"/>
<path style="fill:#2C1307;fill-opacity:1" d="M 42 35 L 41 35 L 41 34 L 42 34 L 42 35 " stroke-width="1" fill="undefined"/>
<path style="fill:#740018;fill-opacity:1" d="M 11 38 L 11 37 Q 11.5 37 11.75 37.25 Q 12 37.5 12 38 L 11 38 M 42 35 L 42 36 L 41 36 L 41 35 L 42 35 " stroke-width="1" fill="undefined"/>
<path style="fill:#31000A;fill-opacity:1" d="M 42 36 L 42 37 L 41 37 L 41 36 L 42 36 " stroke-width="1" fill="undefined"/>
<path style="fill:#050000;fill-opacity:0.976471" d="M 43 35 L 43 36 L 42 36 L 42 35 L 43 35 " stroke-width="1" fill="undefined"/>
<path style="fill:#5B0014;fill-opacity:1" d="M 42 34 L 43 34 L 43 35 L 42 35 L 42 34 " stroke-width="1" fill="undefined"/>
<path style="fill:#000000;fill-opacity:0.701961" d="M 43 35 L 43 34 L 44 34 L 44 35 L 43 35 " stroke-width="1" fill="undefined"/>
<path style="fill:#000000;fill-opacity:0.0745098" d="M 44 34 L 45 34 L 44.75 34.75 L 44 35 L 44 34 M 27 44 L 28 44 L 27.75 44.75 L 27 45 L 27 44 " stroke-width="1" fill="undefined"/>
<path style="fill:#110003;fill-opacity:0.898039" d="M 44 33 L 44 34 L 43 34 L 43 33 L 44 33 " stroke-width="1" fill="undefined"/>
<path style="fill:#000000;fill-opacity:0.054902" d="M 44 36 L 43.75 36.75 L 43 37 L 42.75 37.75 L 42 38 L 42 37 L 43 37 L 43 36 L 44 36 M 26 44 L 26 45 L 25.25 44.75 L 25 44 L 26 44 " stroke-width="1" fill="undefined"/>
<path style="fill:#000000;fill-opacity:0.882353" d="M 42 38 L 41 38 L 41 37 L 42 37 L 42 38 " stroke-width="1" fill="undefined"/>
<path style="fill:#000000;fill-opacity:0.14902" d="M 14 8 L 14 9 Q 13.5 9 13.25 8.75 L 13 8 L 14 8 M 14 6 L 13 6 L 13 5 L 14 5 L 14 6 M 19 4 L 19 3 L 19 2 L 20 2 L 20 3 L 20 4 L 19 4 " stroke-width="1" fill="undefined"/>
<path style="fill:#060000;fill-opacity:0.701961" d="M 14 5 L 15 5 L 15 6 L 14 6 L 14 5 " stroke-width="1" fill="undefined"/>
<path style="fill:#000000;fill-opacity:0.243137" d="M 15 5 L 15 4 L 16 4 L 16 5 L 15 5 " stroke-width="1" fill="undefined"/>
<path style="fill:#000000;fill-opacity:0.517647" d="M 16 4 L 17 4 L 17 5 L 16 5 L 16 4 " stroke-width="1" fill="undefined"/>
<path style="fill:#A80022;fill-opacity:1" d="M 16 5 L 17 5 Q 17 5.5 16.75 5.75 Q 16.5 6 16 6 L 16 5 M 14 32 L 14 31 L 14 30 L 14 29 L 15.8 29.4 L 16 30 L 16 31 L 16 32 L 15 32 L 14 32 " stroke-width="1" fill="undefined"/>
<path style="fill:#000000;fill-opacity:0.67451" d="M 19 5 L 18 5 L 17 5 L 17 4 L 18 4 L 19 4 L 19 5 " stroke-width="1" fill="undefined"/>
<path style="fill:#000000;fill-opacity:0.529412" d="M 10 39 L 10 38 L 11 38 L 11 39 L 10 39 M 19 5 L 19 4 L 20 4 L 20 5 L 19 5 " stroke-width="1" fill="undefined"/>
<path style="fill:#550012;fill-opacity:0.996078" d="M 15 5 L 16 5 L 16 6 L 15 6 L 15 5 " stroke-width="1" fill="undefined"/>
<path style="fill:#0B0002;fill-opacity:0.862745" d="M 10 17 L 10 16 L 11 16 L 11 17 L 10 17 " stroke-width="1" fill="undefined"/>
<path style="fill:#000000;fill-opacity:0.0431373" d="M 16 43 L 15.25 42.75 L 15 42 L 16 42 L 16 43 M 11 39 L 11 40 L 10.25 39.75 L 10 39 L 11 39 M 10 17 L 9 17 L 9 16 L 10 16 L 10 17 M 11 15 L 10 15 L 10 14 L 11 14 L 11 15 " stroke-width="1" fill="undefined"/>
<path style="fill:#000000;fill-opacity:0.313725" d="M 11 15 L 11 16 L 10 16 L 10 15 L 11 15 " stroke-width="1" fill="undefined"/>
<path style="fill:#000000;fill-opacity:0.584314" d="M 9 18 L 9 17 L 10 17 L 10 18 L 9 18 " stroke-width="1" fill="undefined"/>
<path style="fill:#740019;fill-opacity:0.972549" d="M 17 8 L 18 8 L 18 9 L 17 9 L 17 8 " stroke-width="1" fill="undefined"/>
<path style="fill:#4B0011;fill-opacity:0.909804" d="M 16 8 L 17 8 L 17 9 L 16 9 L 16 8 " stroke-width="1" fill="undefined"/>
<path style="fill:#040000;fill-opacity:0.937255" d="M 17 9 L 18 9 L 18 10 L 17 10 L 17 9 " stroke-width="1" fill="undefined"/>
<path style="fill:#000000;fill-opacity:0.647059" d="M 17 9 L 17 10 L 16 10 L 16 9 L 17 9 " stroke-width="1" fill="undefined"/>
<path style="fill:#790019;fill-opacity:1" d="M 17 10 L 18 10 Q 18 10.5 17.75 10.75 Q 17.5 11 17 11 L 17 10 " stroke-width="1" fill="undefined"/>
<path style="fill:#000000;fill-opacity:0.133333" d="M 8 35 L 8 36 L 7.25 35.75 L 7 35 L 8 35 M 16 9 L 16 10 L 15 10 L 15 9 L 16 9 " stroke-width="1" fill="undefined"/>
<path style="fill:#0C0001;fill-opacity:0.972549" d="M 16 10 L 17 10 L 17 11 L 16 11 L 16 10 " stroke-width="1" fill="undefined"/>
<path style="fill:#000000;fill-opacity:0.682353" d="M 31 43 L 31 44 L 30 44 L 30 43 L 31 43 M 16 10 L 16 11 L 15 11 L 15 10 L 16 10 " stroke-width="1" fill="undefined"/>
<path style="fill:#78001A;fill-opacity:1" d="M 20 9 L 20 10 L 19 10 L 19 9 L 20 9 " stroke-width="1" fill="undefined"/>
<path style="fill:#130003;fill-opacity:0.835294" d="M 16 9 L 15 9 L 15 8 L 16 8 L 16 9 " stroke-width="1" fill="undefined"/>
<path style="fill:#5C0014;fill-opacity:1" d="M 15 7 L 15 8 L 14 8 L 14 7 L 15 7 " stroke-width="1" fill="undefined"/>
<path style="fill:#650016;fill-opacity:1" d="M 15 6 L 15 7 L 14 7 L 14 6 L 15 6 " stroke-width="1" fill="undefined"/>
<path style="fill:#000000;fill-opacity:0.623529" d="M 14 8 L 15 8 L 15 9 L 14 9 L 14 8 " stroke-width="1" fill="undefined"/>
<path style="fill:#000000;fill-opacity:0.764706" d="M 14 7 L 14 8 L 13 8 L 13 7 L 14 7 " stroke-width="1" fill="undefined"/>
<path style="fill:#000000;fill-opacity:0.654902" d="M 14 6 L 14 7 L 13 7 L 13 6 L 14 6 " stroke-width="1" fill="undefined"/>
<path style="fill:#000000;fill-opacity:0.0666667" d="M 15 11 L 14 11 L 14 10 L 15 10 L 15 11 " stroke-width="1" fill="undefined"/>
<path style="fill:#020000;fill-opacity:0.705882" d="M 15 11 L 15 12 L 14 12 L 14 11 L 15 11 " stroke-width="1" fill="undefined"/>
<path style="fill:#C00029;fill-opacity:1" d="M 15 12 L 16 12 Q 16 12.5 15.75 12.75 Q 15.5 13 15 13 L 15 12 " stroke-width="1" fill="undefined"/>
<path style="fill:#4B000F;fill-opacity:0.992157" d="M 14 12 L 15 12 L 15 13 L 14 13 L 14 12 " stroke-width="1" fill="undefined"/>
<path style="fill:#41000D;fill-opacity:1" d="M 13 13 L 14 13 L 14 14 L 13 14 L 13 13 " stroke-width="1" fill="undefined"/>
<path style="fill:#020000;fill-opacity:0.729412" d="M 14 12 L 14 13 L 13 13 L 13 12 L 14 12 " stroke-width="1" fill="undefined"/>
<path style="fill:#000000;fill-opacity:0.768627" d="M 13 13 L 13 14 L 12 14 L 12 13 L 13 13 " stroke-width="1" fill="undefined"/>
<path style="fill:#34000B;fill-opacity:0.988235" d="M 12 14 L 13 14 L 13 15 L 12 15 L 12 14 " stroke-width="1" fill="undefined"/>
<path style="fill:#000000;fill-opacity:0.552941" d="M 12 14 L 12 15 L 11 15 L 11 14 L 12 14 " stroke-width="1" fill="undefined"/>
<path style="fill:#260008;fill-opacity:0.929412" d="M 12 15 L 12 16 L 11 16 L 11 15 L 12 15 " stroke-width="1" fill="undefined"/>
<path style="fill:#C9002A;fill-opacity:1" d="M 13 14 L 14 14 Q 14 14.5 13.75 14.75 Q 13.5 15 13 15 L 13 14 " stroke-width="1" fill="undefined"/>
<path style="fill:#2C0009;fill-opacity:0.996078" d="M 15 11 L 16 11 L 16 12 L 15 12 L 15 11 " stroke-width="1" fill="undefined"/>
<path style="fill:#540012;fill-opacity:1" d="M 10 18 L 10 17 L 11 17 L 11 18 L 10 18 " stroke-width="1" fill="undefined"/>
<path style="fill:#070707;fill-opacity:0.709804" d="M 1 23 L 1 24 L 0 24 L 0 23 L 1 23 " stroke-width="1" fill="undefined"/>
<path style="fill:#000000;fill-opacity:0.219608" d="M 1 24 L 1 25 L 0.25 24.75 L 0 24 L 1 24 " stroke-width="1" fill="undefined"/>
<path style="fill:#020202;fill-opacity:0.423529" d="M 0 23 L 0 22 L 1 22 L 1 23 L 0 23 " stroke-width="1" fill="undefined"/>
<path style="fill:#C20028;fill-opacity:1" d="M 18 27 L 18 26 L 19 26 L 18.75 26.75 L 18 27 " stroke-width="1" fill="undefined"/>
<path style="fill:#120003;fill-opacity:0.92549" d="M 10 18 L 10 19 L 9 19 L 9 18 L 10 18 " stroke-width="1" fill="undefined"/>
<path style="fill:#000000;fill-opacity:0.235294" d="M 9 19 L 8 19 L 8 18 L 9 18 L 9 19 " stroke-width="1" fill="undefined"/>
<path style="fill:#000000;fill-opacity:0.576471" d="M 8 20 L 8 19 L 9 19 L 9 20 L 8 20 " stroke-width="1" fill="undefined"/>
<path style="fill:#170004;fill-opacity:0.839216" d="M 8 20 L 9 20 L 9 21 L 8 21 L 8 20 " stroke-width="1" fill="undefined"/>
<path style="fill:#C4002A;fill-opacity:1" d="M 9 20 L 10 20 Q 10 20.5 9.75 20.75 Q 9.5 21 9 21 L 9 20 " stroke-width="1" fill="undefined"/>
<path style="fill:#7C001A;fill-opacity:0.996078" d="M 9 20 L 9 19 L 10 19 L 10 20 L 9 20 " stroke-width="1" fill="undefined"/>
<path style="fill:#000000;fill-opacity:0.164706" d="M 5 19 L 5 18 L 5.75 18.25 Q 6 18.5 6 19 L 6.75 19.25 L 7 20 L 6 20 L 6 19 L 5 19 " stroke-width="1" fill="undefined"/>
<path style="fill:#070707;fill-opacity:0.678431" d="M 6 20 L 7 20 L 7 21 L 6 21 L 6 20 " stroke-width="1" fill="undefined"/>
<path style="fill:#0D0D0D;fill-opacity:0.917647" d="M 5 20 L 5 19 L 6 19 L 6 20 L 5 20 " stroke-width="1" fill="undefined"/>
<path style="fill:#0E0E0E;fill-opacity:0.976471" d="M 7 23 L 6 23 L 6 22 L 6 21 L 7 21 L 7 22 L 7 23 " stroke-width="1" fill="undefined"/>
<path style="fill:#060606;fill-opacity:0.619608" d="M 5 22 L 6 22 L 6 23 L 5 23 L 5 22 " stroke-width="1" fill="undefined"/>
<path style="fill:#0E0E0E;fill-opacity:0.945098" d="M 5 22 L 5 21 L 6 21 L 6 22 L 5 22 " stroke-width="1" fill="undefined"/>
<path style="fill:#0A0A0A;fill-opacity:0.847059" d="M 7 24 L 6 24 L 6 23 L 7 23 L 7 24 " stroke-width="1" fill="undefined"/>
<path style="fill:#030202;fill-opacity:0.568627" d="M 7 22 L 7 21 L 8 21 L 8 22 L 7 22 " stroke-width="1" fill="undefined"/>
<path style="fill:#140407;fill-opacity:0.988235" d="M 7 23 L 7 22 L 8 22 L 8 23 L 7 23 " stroke-width="1" fill="undefined"/>
<path style="fill:#95001F;fill-opacity:1" d="M 8 23 L 8 22 L 9 22 L 9 23 L 8 23 " stroke-width="1" fill="undefined"/>
<path style="fill:#BA0028;fill-opacity:1" d="M 8 23 L 9 23 Q 9 23.5 8.75 23.75 L 8 24 L 8 23 " stroke-width="1" fill="undefined"/>
<path style="fill:#101010;fill-opacity:1" d="M 5 20 L 6 20 L 6 21 L 5 21 L 5 20 " stroke-width="1" fill="undefined"/>
<path style="fill:#000000;fill-opacity:0.160784" d="M 8 21 L 7 21 L 7 20 L 8 20 L 8 21 " stroke-width="1" fill="undefined"/>
<path style="fill:#210007;fill-opacity:1" d="M 7 23 L 8 23 L 8 24 L 7 24 L 7 23 " stroke-width="1" fill="undefined"/>
<path style="fill:#020202;fill-opacity:0.419608" d="M 4 20 L 4 19 L 5 19 L 5 20 L 4 20 " stroke-width="1" fill="undefined"/>
<path style="fill:#0E0E0E;fill-opacity:0.94902" d="M 5 21 L 4 21 L 4 20 L 5 20 L 5 21 " stroke-width="1" fill="undefined"/>
<path style="fill:#080808;fill-opacity:0.729412" d="M 1 22 L 1 21 L 2 21 L 2 22 L 1 22 " stroke-width="1" fill="undefined"/>
<path style="fill:#0F0F0F;fill-opacity:0.992157" d="M 4 22 L 4.25 22.75 L 5 23 L 6 23 L 6 24 L 5 24 L 4 24 L 3 24 L 2 24 L 1 24 L 1 23 L 1 22 L 2 22 L 3 22 L 4 22 " stroke-width="1" fill="undefined"/>
<path style="fill:#060606;fill-opacity:0.643137" d="M 3 21 L 3 22 L 2 22 L 2 21 L 3 21 " stroke-width="1" fill="undefined"/>
<path style="fill:#030303;fill-opacity:0.486275" d="M 5 21 L 5 22 L 4 22 L 4 21 L 5 21 " stroke-width="1" fill="undefined"/>
<path style="fill:#010101;fill-opacity:0.313725" d="M 4 22 L 3 22 L 3 21 L 4 21 L 4 22 " stroke-width="1" fill="undefined"/>
<path style="fill:#0A0A0A;fill-opacity:0.8" d="M 5 23 L 4.25 22.75 L 4 22 L 5 22 L 5 23 " stroke-width="1" fill="undefined"/>
<path style="fill:#090909;fill-opacity:0.768627" d="M 6 25 L 5 25 L 5 24 L 6 24 L 6 25 " stroke-width="1" fill="undefined"/>
<path style="fill:#070707;fill-opacity:0.67451" d="M 4 25 L 4 24 L 5 24 L 5 25 L 4 25 " stroke-width="1" fill="undefined"/>
<path style="fill:#060606;fill-opacity:0.607843" d="M 4 25 L 3 25 L 3 24 L 4 24 L 4 25 " stroke-width="1" fill="undefined"/>
<path style="fill:#000000;fill-opacity:0.180392" d="M 16 42 L 17 42 L 17 43 L 16 43 L 16 42 M 4 26 L 3 26 L 3 25 L 4 25 L 4 26 " stroke-width="1" fill="undefined"/>
<path style="fill:#030303;fill-opacity:0.482353" d="M 2 24 L 3 24 L 3 25 L 2 25 L 2 24 " stroke-width="1" fill="undefined"/>
<path style="fill:#0C0C0C;fill-opacity:0.866667" d="M 6 26 L 5 26 L 5 25 L 6 25 L 6 26 M 4 26 L 4 27 L 3 27 L 3 26 L 4 26 " stroke-width="1" fill="undefined"/>
<path style="fill:#040404;fill-opacity:0.509804" d="M 5 28 L 4.1 27.8 L 3 27 L 4 27 L 5 27 L 5 28 " stroke-width="1" fill="undefined"/>
<path style="fill:#0F0F0F;fill-opacity:0.984314" d="M 4 27 L 4 26 L 5 26 L 5 27 L 4 27 " stroke-width="1" fill="undefined"/>
<path style="fill:#080808;fill-opacity:0.745098" d="M 6 27 L 5 27 L 5 26 L 6 26 L 6 27 " stroke-width="1" fill="undefined"/>
<path style="fill:#050505;fill-opacity:0.580392" d="M 5 26 L 4 26 L 4 25 L 5 25 L 5 26 " stroke-width="1" fill="undefined"/>
<path style="fill:#020202;fill-opacity:0.352941" d="M 2 25 L 1 25 L 1 24 L 2 24 L 2 25 " stroke-width="1" fill="undefined"/>
<path style="fill:#000000;fill-opacity:0.121569" d="M 6 28 L 5 28 L 5 27 L 6 27 L 6 28 " stroke-width="1" fill="undefined"/>
<path style="fill:#640016;fill-opacity:1" d="M 7 26 L 7 25 L 8 25 L 8 26 L 7 26 " stroke-width="1" fill="undefined"/>
<path style="fill:#3D000D;fill-opacity:1" d="M 7 25 L 7 24 L 8 24 L 8 25 L 7 25 " stroke-width="1" fill="undefined"/>
<path style="fill:#090909;fill-opacity:0.909804" d="M 6 25 L 6 24 L 7 24 L 7 25 L 6 25 " stroke-width="1" fill="undefined"/>
<path style="fill:#010101;fill-opacity:0.768627" d="M 6 27 L 6 26 L 7 26 L 7 27 L 6 27 " stroke-width="1" fill="undefined"/>
<path style="fill:#070707;fill-opacity:0.992157" d="M 6 26 L 6 25 L 7 25 L 7 26 L 6 26 " stroke-width="1" fill="undefined"/>
<path style="fill:#000000;fill-opacity:0.776471" d="M 7 28 L 7 29 L 6 29 L 6 28 L 7 28 " stroke-width="1" fill="undefined"/>
<path style="fill:#000000;fill-opacity:0.733333" d="M 6 30 L 6 29 L 7 29 L 7 30 L 6 30 " stroke-width="1" fill="undefined"/>
<path style="fill:#000000;fill-opacity:0.643137" d="M 7 31 L 6 31 L 6 30 L 7 30 L 7 31 " stroke-width="1" fill="undefined"/>
<path style="fill:#94001F;fill-opacity:1" d="M 7 29 L 7 28 L 7 27 L 8 27 L 8 28 L 8 29 L 7 29 " stroke-width="1" fill="undefined"/>
<path style="fill:#87001C;fill-opacity:1" d="M 7 30 L 7 29 L 8 29 L 8 30 L 7 30 " stroke-width="1" fill="undefined"/>
<path style="fill:#6C0017;fill-opacity:1" d="M 7 31 L 7 30 L 8 30 L 8 31 L 7 31 " stroke-width="1" fill="undefined"/>
<path style="fill:#44000F;fill-opacity:1" d="M 8 31 L 8 32 L 7 32 L 7 31 L 8 31 " stroke-width="1" fill="undefined"/>
<path style="fill:#210007;fill-opacity:0.996078" d="M 8 32 L 8 33 L 7 33 L 7 32 L 8 32 " stroke-width="1" fill="undefined"/>
<path style="fill:#8B001E;fill-opacity:1" d="M 8 34 L 8 33 L 9 33 L 9 34 L 8 34 " stroke-width="1" fill="undefined"/>
<path style="fill:#000000;fill-opacity:0.419608" d="M 8 34 L 8 35 L 7 35 L 7 34 L 8 34 " stroke-width="1" fill="undefined"/>
<path style="fill:#40000D;fill-opacity:1" d="M 8 34 L 9 34 L 9 35 L 8 35 L 8 34 " stroke-width="1" fill="undefined"/>
<path style="fill:#020000;fill-opacity:0.815686" d="M 8 36 L 8 35 L 9 35 L 9 36 L 8 36 " stroke-width="1" fill="undefined"/>
<path style="fill:#710018;fill-opacity:1" d="M 9 36 L 9 35 Q 9.5 35 9.75 35.25 Q 10 35.5 10 36 L 9 36 " stroke-width="1" fill="undefined"/>
<path style="fill:#080000;fill-opacity:0.968627" d="M 9 37 L 9 36 L 10 36 L 10 37 L 9 37 " stroke-width="1" fill="undefined"/>
<path style="fill:#070000;fill-opacity:0.827451" d="M 7 34 L 7 33 L 8 33 L 8 34 L 7 34 " stroke-width="1" fill="undefined"/>
<path style="fill:#000000;fill-opacity:0.6" d="M 10 38 L 9.25 37.75 L 9 37 L 10 37 L 10 38 " stroke-width="1" fill="undefined"/>
<path style="fill:#070000;fill-opacity:0.996078" d="M 10 38 L 10 37 L 11 37 L 11 38 L 10 38 " stroke-width="1" fill="undefined"/>
<path style="fill:#6D0017;fill-opacity:1" d="M 10 37 L 10 36 Q 10.5 36 10.75 36.25 Q 11 36.5 11 37 L 10 37 " stroke-width="1" fill="undefined"/>
<path style="fill:#D9314C;fill-opacity:1" d="M 20 34 L 19 34 L 19 33 L 20 33 L 20 34 " stroke-width="1" fill="undefined"/>
<path style="fill:#B80026;fill-opacity:1" d="M 16 31 L 16 30 Q 17.65 29.85 16.65 31.8 Q 16.5 32 16 32 L 16 31 " stroke-width="1" fill="undefined"/>
<path style="fill:#D82A47;fill-opacity:1" d="M 18 35 L 17 35 L 17 34 L 18 34 L 18 35 " stroke-width="1" fill="undefined"/>
<path style="fill:#D81F40;fill-opacity:1" d="M 16 36 L 15 36 L 15 35 L 16 35 L 16 36 " stroke-width="1" fill="undefined"/>
<path style="fill:#E1B8A1;fill-opacity:1" d="M 18 35 Q 18 35.5 17.75 35.75 L 17 36 L 17 35 L 18 35 " stroke-width="1" fill="undefined"/>
<path style="fill:#E0A092;fill-opacity:1" d="M 18 34 L 19 34 L 18.75 34.75 L 18 35 L 18 34 " stroke-width="1" fill="undefined"/>
<path style="fill:#DA3A51;fill-opacity:1" d="M 15 37 L 14 37 L 14 36 L 15 36 L 15 37 " stroke-width="1" fill="undefined"/>
<path style="fill:#685A4D;fill-opacity:1" d="M 15 40 L 14 40 L 14 39 L 15 39 L 15 40 M 17 41 L 16 41 L 16 40 L 17 40 L 17 41 " stroke-width="1" fill="undefined"/>
<path style="fill:#B48A7A;fill-opacity:1" d="M 13 39 L 13 38 L 14 38 L 14 39 L 13 39 " stroke-width="1" fill="undefined"/>
<path style="fill:#E1B29C;fill-opacity:1" d="M 15 37 Q 15 37.5 14.75 37.75 L 14 38 L 14 37 L 15 37 " stroke-width="1" fill="undefined"/>
<path style="fill:#D9354E;fill-opacity:1" d="M 14 38 L 13 38 L 13 37 L 14 37 L 14 38 " stroke-width="1" fill="undefined"/>
<path style="fill:#4D0212;fill-opacity:1" d="M 13 39 L 12 39 L 12 38 L 13 38 L 13 39 " stroke-width="1" fill="undefined"/>
<path style="fill:#000000;fill-opacity:0.352941" d="M 11 39 L 12 39 L 12 40 L 11 40 L 11 39 " stroke-width="1" fill="undefined"/>
<path style="fill:#000000;fill-opacity:0.678431" d="M 14 40 L 14 41 L 13 41 L 13 40 L 14 40 " stroke-width="1" fill="undefined"/>
<path style="fill:#000000;fill-opacity:0.976471" d="M 14 40 L 15 40 L 15 41 L 14 41 L 14 40 " stroke-width="1" fill="undefined"/>
<path style="fill:#000000;fill-opacity:0.290196" d="M 15 41 L 15 42 L 14.25 41.75 L 14 41 L 15 41 " stroke-width="1" fill="undefined"/>
<path style="fill:#090807;fill-opacity:1" d="M 16 41 L 15 41 L 15 40 L 16 40 L 16 41 " stroke-width="1" fill="undefined"/>
<path style="fill:#000000;fill-opacity:0.65098" d="M 16 41 L 16 42 L 15 42 L 15 41 L 16 41 " stroke-width="1" fill="undefined"/>
<path style="fill:#201C19;fill-opacity:1" d="M 13 40 L 13 39 L 14 39 L 14 40 L 13 40 " stroke-width="1" fill="undefined"/>
<path style="fill:#CFB299;fill-opacity:1" d="M 15 40 L 15 39 Q 15.5 39 15.75 39.25 Q 16 39.5 16 40 L 15 40 " stroke-width="1" fill="undefined"/>
<path style="fill:#C3A891;fill-opacity:1" d="M 17 41 L 17 40 Q 17.5 40 17.75 40.25 Q 18 40.5 18 41 L 17 41 " stroke-width="1" fill="undefined"/>
<path style="fill:#0C0A09;fill-opacity:0.992157" d="M 18 41 L 18 42 L 17 42 L 17 41 L 18 41 " stroke-width="1" fill="undefined"/>
<path style="fill:#000000;fill-opacity:0.403922" d="M 17 42 L 18 42 L 18 43 L 17 43 L 17 42 " stroke-width="1" fill="undefined"/>
<path style="fill:#40372F;fill-opacity:1" d="M 19 42 L 18 42 L 18 41 L 19 41 L 19 42 " stroke-width="1" fill="undefined"/>
<path style="fill:#706253;fill-opacity:1" d="M 19 42 L 19 41 L 20 41 L 20 42 L 19 42 " stroke-width="1" fill="undefined"/>
<path style="fill:#000000;fill-opacity:0.933333" d="M 19 42 L 20 42 L 20 43 L 19 43 L 19 42 " stroke-width="1" fill="undefined"/>
<path style="fill:#000000;fill-opacity:0.698039" d="M 19 43 L 18 43 L 18 42 L 19 42 L 19 43 " stroke-width="1" fill="undefined"/>
<path style="fill:#E0A091;fill-opacity:1" d="M 16 36 L 15.75 36.75 L 15 37 L 15 36 L 16 36 " stroke-width="1" fill="undefined"/>
<path style="fill:#000000;fill-opacity:0.254902" d="M 21 43 L 21 44 L 20.25 43.75 L 20 43 L 21 43 " stroke-width="1" fill="undefined"/>
<path style="fill:#000000;fill-opacity:0.2" d="M 32 43 L 33 43 L 32.75 43.75 L 32 44 L 32 43 " stroke-width="1" fill="undefined"/>
<path style="fill:#000000;fill-opacity:0.486275" d="M 31 43 L 32 43 L 32 44 L 31 44 L 31 43 " stroke-width="1" fill="undefined"/>
<path style="fill:#000000;fill-opacity:0.854902" d="M 30 43 L 30 44 L 29 44 L 29 43 L 30 43 " stroke-width="1" fill="undefined"/>
<path style="fill:#000000;fill-opacity:0.937255" d="M 26 43 L 27 43 L 28 43 L 29 43 L 29 44 L 28 44 L 27 44 L 26 44 L 25 44 L 24 44 L 24 43 L 25 43 L 26 43 " stroke-width="1" fill="undefined"/>
<path style="fill:#000000;fill-opacity:0.192157" d="M 27 44 L 27 45 L 26 45 L 26 44 L 27 44 " stroke-width="1" fill="undefined"/>
<path style="fill:#000000;fill-opacity:0.870588" d="M 24 43 L 24 44 L 23 44 L 23 43 L 24 43 " stroke-width="1" fill="undefined"/>
<path style="fill:#000000;fill-opacity:0.509804" d="M 21 43 L 22 43 L 22 44 L 21 44 L 21 43 " stroke-width="1" fill="undefined"/>
<path style="fill:#000000;fill-opacity:0.713725" d="M 23 44 L 22 44 L 22 43 L 23 43 L 23 44 " stroke-width="1" fill="undefined"/>
<path style="fill:#0C0A09;fill-opacity:1" d="M 20 42 L 21 42 L 21 43 L 20 43 L 20 42 " stroke-width="1" fill="undefined"/>
</g>
</svg>