<svg xmlns="http://www.w3.org/2000/svg" xmlns:xlink="http://www.w3.org/1999/xlink" version="1.1" width="48" height="46" viewBox="-0.5 -0.5 48 46">
  <!-- Exported by Scratch - http://scratch.mit.edu/ -->
  <g id="9">
    <path id="ID0.19130567787215114" fill="#000000" d="M 42 16 L 42 15 L 42.75 15.25 L 43 16 L 42 16 M 46 29 L 47 29 L 46.75 29.75 L 46 30 L 46 29 " stroke-width="1"/>
    <path id="ID0.848393355961889" fill="#000000" d="M 7 31 L 7 32 L 6.25 31.75 L 6 31 L 7 31 M 38 11 L 38.75 11.25 L 39 12 L 38 12 L 38 11 " stroke-width="1"/>
    <path id="ID0.4505664515309036" fill="#090000" d="M 39 12 L 39 13 L 38 13 L 38 12 L 39 12 " stroke-width="1"/>
    <path id="ID0.7024889686144888" fill="#99001F" d="M 37.25 12.75 C 37.083 12.583 37 12.333 37 12 L 38 12 L 38 13 C 37.667 13 37.417 12.917 37.25 12.75 M 24 7 C 23.667 7 23.417 6.917 23.25 6.75 L 23 6 L 24 6 L 24 7 " stroke-width="1"/>
    <path id="ID0.8499216604977846" fill="#000000" d="M 16 5 L 15 5 L 15 4 L 16 4 L 16 5 M 21 3 L 21 4 L 20 4 L 20 3 L 21 3 M 39 13 L 39 12 L 39.75 12.25 L 40 13 L 39 13 " stroke-width="1"/>
    <path id="ID0.9005307671613991" fill="#110003" d="M 39 14 L 39 13 L 40 13 L 40 14 L 39 14 " stroke-width="1"/>
    <path id="ID0.8474354878999293" fill="#000000" d="M 43 37 L 43 36 L 44 36 L 44 37 L 43 37 M 14 40 L 14 41 L 13 41 L 13 40 L 14 40 M 35 10 L 34 10 L 34 9 L 35 9 L 35 10 M 37 12 L 37 11 L 38 11 L 38 12 L 37 12 " stroke-width="1"/>
    <path id="ID0.07798796333372593" fill="#AF0024" d="M 39 14 C 38.667 14 38.417 13.917 38.25 13.75 C 38.083 13.583 38 13.333 38 13 L 39 13 L 39 14 M 34 23 L 33 23 L 33 22 L 34 22 L 34 23 " stroke-width="1"/>
    <path id="ID0.5652252719737589" fill="#D5002B" d="M 25 33 L 24 33 L 23 33 L 22 33 L 21 33 L 21 32 C 22.133 31.467 22.5 30.133 22.1 28 L 22 27 C 22 26.667 21.917 26.417 21.75 26.25 C 21.583 26.083 21.333 26 21 26 L 20 26 L 19 26 L 19 27 L 19 28 L 18 28 C 18 28.667 18.133 29.267 18.4 29.8 L 19 30 C 19 30.667 19.133 31.267 19.4 31.8 L 20 32 L 20 33 L 20 34 L 19 34 L 18 34 L 18 35 L 17 35 L 16 35 L 16 36 L 15 36 L 15 37 L 14 37 L 14 38 L 13 38 L 12 38 C 12 37.667 11.917 37.417 11.75 37.25 C 11.583 37.083 11.333 37 11 37 C 11 36.667 10.917 36.417 10.75 36.25 C 10.583 36.083 10.333 36 10 36 C 10 35.667 9.917 35.417 9.75 35.25 C 9.583 35.083 9.333 35 9 35 L 9 34 L 9 33 C 9 32.667 8.917 32.417 8.75 32.25 C 8.583 32.083 8.333 32 8 32 L 8 31 L 8 30 L 8 29 L 8 28 L 8 27 L 8 26 L 8 25 L 8 24 C 8.333 24 8.583 23.917 8.75 23.75 C 8.917 23.583 9 23.333 9 23 L 9 22 L 9 21 C 9.333 21 9.583 20.917 9.75 20.75 C 9.917 20.583 10 20.333 10 20 L 10 19 C 10.333 19 10.583 18.917 10.75 18.75 C 10.917 18.583 11 18.333 11 18 L 11 17 C 11.333 17 11.583 16.917 11.75 16.75 C 11.917 16.583 12 16.333 12 16 C 12.333 16 12.583 15.917 12.75 15.75 C 12.917 15.583 13 15.333 13 15 C 13.333 15 13.583 14.917 13.75 14.75 C 13.917 14.583 14 14.333 14 14 C 14.333 14 14.583 13.917 14.75 13.75 C 14.917 13.583 15 13.333 15 13 C 15.333 13 15.583 12.917 15.75 12.75 C 15.917 12.583 16 12.333 16 12 C 16.333 12 16.583 11.917 16.75 11.75 C 16.917 11.583 17 11.333 17 11 C 17.333 11 17.583 10.917 17.75 10.75 C 17.917 10.583 18 10.333 18 10 L 19 10 L 20 10 C 20.333 10 20.583 9.917 20.75 9.75 C 20.917 9.583 21 9.333 21 9 L 22 9 L 23 9 L 24 9 C 24.333 9 24.583 8.917 24.75 8.75 C 24.917 8.583 25 8.333 25 8 L 26 8 L 27 8 L 28 8 L 28.25 8.75 L 29 9 L 30 9 L 30.5 9 L 30 8 L 29 8 L 28.75 7.25 L 28 7 L 27 7 L 26 7 L 25.75 6.25 L 25 6 C 25 5.667 24.917 5.417 24.75 5.25 L 24 5 L 23 5 L 22.75 4.25 L 22 4 L 22 3 L 22 2 L 23 2 C 23.333 2 23.583 1.917 23.75 1.75 C 23.917 1.583 24 1.333 24 1 L 25 1 L 25.25 1.75 L 26 2 L 27 2 L 27.25 2.75 L 28 3 L 28.25 3.75 L 29 4 L 30 4 L 30 5 C 30 5.333 30.083 5.583 30.25 5.75 C 30.417 5.917 30.667 6 31 6 C 31 6.333 31.083 6.583 31.25 6.75 C 31.417 6.917 31.667 7 32 7 C 32 7.333 32.083 7.583 32.25 7.75 C 32.417 7.917 32.667 8 33 8 L 33 9 C 33 9.333 33.083 9.583 33.25 9.75 C 33.417 9.917 33.667 10 34 10 C 34 10.333 34.083 10.583 34.25 10.75 C 34.417 10.917 34.667 11 35 11 L 36 11 C 36 11.333 36.083 11.583 36.25 11.75 C 36.417 11.917 36.667 12 37 12 C 37 12.333 37.083 12.583 37.25 12.75 C 37.417 12.917 37.667 13 38 13 C 38 13.333 38.083 13.583 38.25 13.75 C 38.417 13.917 38.667 14 39 14 C 39 14.333 39.083 14.583 39.25 14.75 C 39.417 14.917 39.667 15 40 15 C 40 15.333 40.083 15.583 40.25 15.75 C 40.417 15.917 40.667 16 41 16 C 41 16.333 41.083 16.583 41.25 16.75 C 41.417 16.917 41.667 17 42 17 L 42 18 C 42 18.333 42.083 18.583 42.25 18.75 C 42.417 18.917 42.667 19 43 19 L 43 20 L 43 21 L 42 21 L 37 21 L 36 21 L 35 21 L 35 22 L 34 22 L 33 22 L 32 22 L 31.75 21.25 L 31 21 L 30 21 L 29 21 L 28.75 20.25 L 28 20 L 27 20 C 27 19.667 26.917 19.417 26.75 19.25 L 26 19 L 25 19 L 24 19 L 24 20 L 24 21 L 24 22 L 24.25 22.75 L 25 23 L 26 23 L 26 24 L 25 24 L 25 25 L 25 26 L 24 26 L 24 27 L 24 28 L 23 28 C 23 29 23.15 29.95 23.45 30.85 L 24 31 L 24.25 31.75 L 25 32 L 25 33 M 14 31 L 14 32 L 14.25 32.75 L 15 33 L 15.8 32.75 C 17.567 31.25 17.3 30 15 29 L 14 29 L 14 30 L 14 31 " stroke-width="1"/>
    <path id="ID0.28728236304596066" fill="#AA0023" d="M 40 15 C 39.667 15 39.417 14.917 39.25 14.75 C 39.083 14.583 39 14.333 39 14 L 40 14 L 40 15 M 37 21 L 42 21 L 43 21 L 44 21 L 44 22 L 43 22 L 37 22 L 37 21 " stroke-width="1"/>
    <path id="ID0.4930270928889513" fill="#0B0001" d="M 40 15 L 40 14 L 41 14 L 41 15 L 40 15 " stroke-width="1"/>
    <path id="ID0.02861232263967395" fill="#9E0020" d="M 41 15 L 41 16 C 40.667 16 40.417 15.917 40.25 15.75 C 40.083 15.583 40 15.333 40 15 L 41 15 " stroke-width="1"/>
    <path id="ID0.2658276264555752" fill="#000000" d="M 45 22 L 45 21 L 45.75 21.25 L 46 22 L 45 22 M 21 2 L 20 2 L 20 1 L 21 1 L 21 2 M 30 4 L 30 3 L 30.75 3.25 L 31 4 L 30 4 M 41 15 L 41 14 L 41.75 14.25 L 42 15 L 41 15 " stroke-width="1"/>
    <path id="ID0.5991341257467866" fill="#040000" d="M 41 16 L 41 15 L 42 15 L 42 16 L 41 16 " stroke-width="1"/>
    <path id="ID0.7732259887270629" fill="#82001C" d="M 41.25 16.75 C 41.083 16.583 41 16.333 41 16 L 42 16 L 42 17 C 41.667 17 41.417 16.917 41.25 16.75 M 10 18 L 11 18 C 11 18.333 10.917 18.583 10.75 18.75 C 10.583 18.917 10.333 19 10 19 L 10 18 " stroke-width="1"/>
    <path id="ID0.28635043278336525" fill="#000000" d="M 37 42 L 38 42 L 37.75 42.75 L 37 43 L 37 42 M 11 15 L 11 14 L 12 14 L 12 15 L 11 15 M 40 14 L 40 13 L 40.75 13.25 L 41 14 L 40 14 " stroke-width="1"/>
    <path id="ID0.04313710751011968" fill="#3E000D" d="M 42 18 L 42 17 L 43 17 L 43 18 L 42 18 " stroke-width="1"/>
    <path id="ID0.6874650744721293" fill="#B70027" d="M 42.25 18.75 C 42.083 18.583 42 18.333 42 18 L 43 18 L 43 19 C 42.667 19 42.417 18.917 42.25 18.75 M 43 21 L 43 20 L 44 20 L 44 21 L 43 21 M 39 36 L 40 36 L 39.75 36.75 L 39 37 L 39 36 M 28 7 L 28.75 7.25 L 29 8 L 28 8 L 28 7 M 14.75 29.75 L 14 30 L 14 29 L 15 29 C 15 29.333 14.917 29.583 14.75 29.75 " stroke-width="1"/>
    <path id="ID0.7165068280883133" fill="#000000" d="M 44 20 L 44 19 L 44.75 19.25 L 45 20 L 44 20 " stroke-width="1"/>
    <path id="ID0.5502454582601786" fill="#040000" d="M 43 19 L 43 18 L 44 18 L 44 19 L 43 19 " stroke-width="1"/>
    <path id="ID0.0034827603958547115" fill="#000000" d="M 43 18 L 43 17 L 43.75 17.25 L 44 18 L 43 18 M 8 34 L 8 35 L 7.25 34.75 L 7 34 L 8 34 M 35 10 L 35 9 L 35.75 9.25 L 36 10 L 35 10 " stroke-width="1"/>
    <path id="ID0.9015210522338748" fill="#5C0014" d="M 43 20 L 43 19 L 44 19 L 44 20 L 43 20 M 13 39 L 12 39 L 12 38 L 13 38 L 13 39 " stroke-width="1"/>
    <path id="ID0.6207113820128143" fill="#010000" d="M 44 21 L 44 20 L 45 20 L 45 21 L 44 21 " stroke-width="1"/>
    <path id="ID0.6353873992338777" fill="#30000A" d="M 44 22 L 44 21 L 45 21 L 45 22 L 44 22 " stroke-width="1"/>
    <path id="ID0.9136411109939218" fill="#120003" d="M 45 24 L 45 25 L 44 25 L 44 24 L 44 22 L 45 22 L 45 23 L 45 24 " stroke-width="1"/>
    <path id="ID0.19013476371765137" fill="#000000" d="M 23 43 L 24 43 L 25 43 L 26 43 L 27 43 L 28 43 L 29 43 L 30 43 L 31 43 L 32 43 L 32 44 L 31 44 L 30 44 L 29 44 L 25 44 L 24 44 L 23 44 L 22 44 L 22 43 L 23 43 M 37 24 L 36 24 L 35 24 L 35 23 L 35 22 L 36 22 L 37 22 L 43 22 L 44 22 L 44 24 L 44 25 L 43 25 L 42.75 24.25 L 42 24 L 41 24 L 40 24 L 39 24 L 38 24 L 37 24 M 40 39 L 41 39 L 41 38 L 42 38 L 42 39 L 41 39 L 41 40 L 40 40 L 40 39 M 37 41 L 38 41 L 38 42 L 37 42 L 37 41 M 36 42 L 36 43 L 35 43 L 34 43 L 34 42 L 35 42 L 36 42 M 29 21 C 29 21.333 29.083 21.583 29.25 21.75 C 29.417 21.917 29.667 22 30 22 L 31 22 L 32 22 C 32 22.333 32.083 22.583 32.25 22.75 C 32.417 22.917 32.667 23 33 23 L 34 23 C 34 23.333 34.083 23.583 34.25 23.75 C 34.417 23.917 34.667 24 35 24 L 35 25 L 34 25 L 33 25 L 33 26 L 32 26 L 31.8 25.1 L 31 24 L 30 24 L 29 24 L 28.75 23.25 L 28 23 L 27 23 L 26 23 L 25.75 22.25 L 25 22 L 25 21 L 25 20 L 26 20 L 27 20 L 27.25 20.75 L 28 21 L 29 21 M 9 37 L 9 36 L 10 36 L 10 37 L 9 37 M 11 39 L 11 38 L 12 38 L 12 39 L 11 39 M 15 40 L 15 41 L 14 41 L 14 40 L 15 40 M 16 42 L 16 41 L 17 41 L 17 42 L 16 42 M 20 42 L 20 43 L 19 43 L 18 43 L 18 42 L 19 42 L 20 42 " stroke-width="1"/>
    <path id="ID0.8563517136499286" fill="#000000" d="M 45 23 L 45 22 L 46 22 L 46 23 L 45 23 M 13 13 L 13 12 L 14 12 L 14 13 L 13 13 " stroke-width="1"/>
    <path id="ID0.4993694736622274" fill="#000000" d="M 42 17 L 42 16 L 43 16 L 43 17 L 42 17 M 9 20 L 9 21 L 8 21 L 8 20 L 9 20 " stroke-width="1"/>
    <path id="ID0.9266656041145325" fill="#000000" d="M 5 19 L 5 18 L 5.75 18.25 C 5.917 18.417 6 18.667 6 19 L 5 19 M 37 10 L 37.75 10.25 L 38 11 L 37 11 L 37 10 " stroke-width="1"/>
    <path id="ID0.46340977726504207" fill="#000000" d="M 46 26 L 46 25 L 46.75 25.25 L 47 26 L 46 26 M 31 44 L 32 44 L 31.75 44.75 L 31 45 L 31 44 M 10 16 L 10 15 L 11 15 L 11 16 L 10 16 " stroke-width="1"/>
    <path id="ID0.27479231636971235" fill="#060000" d="M 46 24 L 46 25 L 45 25 L 45 24 L 46 24 " stroke-width="1"/>
    <path id="ID0.856278398539871" fill="#000000" d="M 45 24 L 45 23 L 46 23 L 46 24 L 45 24 " stroke-width="1"/>
    <path id="ID0.1692199045792222" fill="#1D0006" d="M 42 25 L 42 24 L 42.75 24.25 L 43 25 L 42 25 " stroke-width="1"/>
    <path id="ID0.7993864538148046" fill="#D5002C" d="M 43 25 L 44 25 L 44 26 L 43 26 L 43 25 M 16 8 C 16 7.667 15.917 7.417 15.75 7.25 L 15 7 L 15 6 L 16 6 C 16.333 6 16.583 5.917 16.75 5.75 C 16.917 5.583 17 5.333 17 5 L 18 5 L 19 5 L 20 5 L 21 5 L 21.25 5.75 L 22 6 L 23 6 L 23.25 6.75 C 23.417 6.917 23.667 7 24 7 L 25 7 L 25 8 L 24 8 L 23 8 L 22 8 L 21 8 L 20 8 L 19 8 L 18 8 L 17 8 L 16 8 " stroke-width="1"/>
    <path id="ID0.0939566264860332" fill="#B90027" d="M 45 26 L 44 26 L 44 25 L 45 25 L 45 26 " stroke-width="1"/>
    <path id="ID0.8429704364389181" fill="#A30035" d="M 44 27 L 44 29 L 44 30 L 43 30 L 43 29 L 43 28 L 43 27 L 44 27 " stroke-width="1"/>
    <path id="ID0.47039181645959616" fill="#530021" d="M 42 28 L 42 27 L 42 26 L 43 26 L 43 27 L 43 28 L 42 28 " stroke-width="1"/>
    <path id="ID0.11170459445565939" fill="#BF002F" d="M 44 27 L 43 27 L 43 26 L 44 26 L 44 27 " stroke-width="1"/>
    <path id="ID0.5159753188490868" fill="#D6002C" d="M 45 30 L 44 30 L 44 29 L 44 27 L 44 26 L 45 26 L 45 28 L 45 29 L 45 30 M 39 38 L 39 37 L 39.75 36.75 L 40 36 L 41 36 L 42 36 L 42 37 L 41 37 L 41 38 L 40 38 L 40 39 L 39 39 L 39 38 " stroke-width="1"/>
    <path id="ID0.5951326382346451" fill="#2E000A" d="M 46 26 L 46 28 L 46 29 L 45 29 L 45 28 L 45 26 L 46 26 " stroke-width="1"/>
    <path id="ID0.7159860883839428" fill="#000000" d="M 46 29 L 46 28 L 46 26 L 47 26 L 47 28 L 47 29 L 46 29 " stroke-width="1"/>
    <path id="ID0.8559081293642521" fill="#730028" d="M 42 25 L 43 25 L 43 26 L 42 26 L 42 25 " stroke-width="1"/>
    <path id="ID0.8203653581440449" fill="#200007" d="M 45 26 L 45 25 L 46 25 L 46 26 L 45 26 M 8 31 L 8 32 L 7 32 L 7 31 L 8 31 " stroke-width="1"/>
    <path id="ID0.7370831198059022" fill="#151213" d="M 42 24 L 42 25 L 41 25 L 41 24 L 42 24 " stroke-width="1"/>
    <path id="ID0.6224009934812784" fill="#D8D8D8" d="M 41 25 L 42 25 L 42 26 L 41 26 L 41 25 " stroke-width="1"/>
    <path id="ID0.812265392858535" fill="#656565" d="M 40 25 L 40 24 L 41 24 L 41 25 L 40 25 " stroke-width="1"/>
    <path id="ID0.6557117528282106" fill="#9B9B9B" d="M 38 24 L 39 24 L 39 25 L 38 25 L 38 24 " stroke-width="1"/>
    <path id="ID0.42328372318297625" fill="#CCCCCC" d="M 37 24 L 38 24 L 38 25 L 37 25 L 37 24 " stroke-width="1"/>
    <path id="ID0.04063060786575079" fill="#838383" d="M 39 24 L 40 24 L 40 25 L 39 25 L 39 24 " stroke-width="1"/>
    <path id="ID0.5988825215026736" fill="#FEFEFE" d="M 41 25 L 41 26 L 41 27 L 41 28 L 40 28 L 40 29 L 39 29 L 38.75 28.25 L 38 28 L 38 27 L 37.75 26.25 C 37.583 26.083 37.333 26 37 26 L 36 26 L 36 25 L 37 25 L 38 25 L 39 25 L 40 25 L 41 25 " stroke-width="1"/>
    <path id="ID0.5089320256374776" fill="#F6F6F6" d="M 41 27 L 41 26 L 42 26 L 42 27 L 41 27 M 38 28 L 38.75 28.25 L 39 29 L 38 29 L 38 28 " stroke-width="1"/>
    <path id="ID0.23613581713289022" fill="#4D4D4D" d="M 37 28 L 37 27 L 38 27 L 38 28 L 37 28 " stroke-width="1"/>
    <path id="ID0.6464761020615697" fill="#565656" d="M 37 27 L 37 26 C 37.333 26 37.583 26.083 37.75 26.25 L 38 27 L 37 27 " stroke-width="1"/>
    <path id="ID0.9350603511556983" fill="#CBCBCB" d="M 41 28 L 41 27 L 42 27 L 42 28 L 41 28 " stroke-width="1"/>
    <path id="ID0.46624099975451827" fill="#494748" d="M 41 28 L 42 28 L 42 29 L 41 29 L 41 28 " stroke-width="1"/>
    <path id="ID0.0702912793494761" fill="#ECECEC" d="M 41 29 L 40 29 L 40 28 L 41 28 L 41 29 " stroke-width="1"/>
    <path id="ID0.5737496581859887" fill="#AF0033" d="M 43 32 L 42 32 L 42 31 L 43 31 L 43 32 " stroke-width="1"/>
    <path id="ID0.49863949231803417" fill="#8E0038" d="M 42 29 L 43 29 L 43 30 L 43 31 L 42 31 L 42 32 L 41 32 L 41 31 L 41 30 L 41.75 29.75 L 42 29 " stroke-width="1"/>
    <path id="ID0.792757788207382" fill="#58360C" d="M 41 33 L 41 32 L 42 32 L 42 33 L 41 33 " stroke-width="1"/>
    <path id="ID0.1103826379403472" fill="#66002A" d="M 40 32 L 40 31 L 41 31 L 41 32 L 40 32 M 26 27 L 25 27 L 25 26 L 26 26 L 26 27 " stroke-width="1"/>
    <path id="ID0.3315855022519827" fill="#790030" d="M 40 30 L 41 30 L 41 31 L 40 31 L 40 30 " stroke-width="1"/>
    <path id="ID0.8849730603396893" fill="#5C0025" d="M 41 29 L 42 29 L 41.75 29.75 L 41 30 L 41 29 " stroke-width="1"/>
    <path id="ID0.45665021147578955" fill="#393537" d="M 41 29 L 41 30 L 40 30 L 40 29 L 41 29 " stroke-width="1"/>
    <path id="ID0.26794995088130236" fill="#8B8B8B" d="M 39 29 L 40 29 L 40 30 L 39 30 L 39 29 " stroke-width="1"/>
    <path id="ID0.46724898973479867" fill="#49021D" d="M 39 32 L 39 31 L 39 30 L 40 30 L 40 31 L 40 32 L 39 32 " stroke-width="1"/>
    <path id="ID0.7583986856043339" fill="#606060" d="M 39 29 L 39 30 L 38 30 L 38 29 L 39 29 " stroke-width="1"/>
    <path id="ID0.11808304954320192" fill="#A77C14" d="M 38 29 L 38 30 L 37.25 29.75 C 37.083 29.583 37 29.333 37 29 L 38 29 " stroke-width="1"/>
    <path id="ID0.9088976890780032" fill="#A57A14" d="M 38.25 31.75 L 38 31 L 39 31 L 39 32 L 38.25 31.75 " stroke-width="1"/>
    <path id="ID0.8051607143133879" fill="#FBB91E" d="M 40 33 L 41 33 L 41 34 L 40 34 L 39 34 L 37 34 L 36 34 L 35 34 L 34 34 L 33 34 L 32 34 L 31 34 L 30 34 L 29.75 33.25 L 29 33 L 29 32 L 29.75 31.75 L 30 31 L 30.75 30.75 L 31 30 L 32 30 L 32.75 29.75 L 33 29 L 34 29 L 35 29 L 36 29 L 37 29 C 37 29.333 37.083 29.583 37.25 29.75 L 38 30 L 38 31 L 38.25 31.75 L 39 32 C 39 32.333 39.083 32.583 39.25 32.75 L 40 33 " stroke-width="1"/>
    <path id="ID0.7501604594290257" fill="#ECAE1C" d="M 39.25 32.75 C 39.083 32.583 39 32.333 39 32 L 40 32 L 40 33 L 39.25 32.75 " stroke-width="1"/>
    <path id="ID0.21430615754798055" fill="#341F0A" d="M 38 31 L 38 30 L 39 30 L 39 31 L 38 31 " stroke-width="1"/>
    <path id="ID0.8892596904188395" fill="#966F12" d="M 37 35 L 37 34 L 39 34 L 40 34 L 40 35 L 39 35 L 38 35 L 37 35 " stroke-width="1"/>
    <path id="ID0.257521721534431" fill="#D9891B" d="M 38 35 L 39 35 L 39 36 L 38 36 L 38 35 " stroke-width="1"/>
    <path id="ID0.5876211281865835" fill="#412409" d="M 39 35 L 40 35 L 40 36 L 39 36 L 39 35 " stroke-width="1"/>
    <path id="ID0.8769675507210195" fill="#C79318" d="M 41 35 L 40 35 L 40 34 L 41 34 L 42 34 L 42 35 L 41 35 " stroke-width="1"/>
    <path id="ID0.8821479552425444" fill="#8A001D" d="M 40 35 L 41 35 L 42 35 L 42 36 L 41 36 L 40 36 L 40 35 " stroke-width="1"/>
    <path id="ID0.2701747100800276" fill="#E9AC1C" d="M 41 34 L 41 33 L 42 33 L 42 34 L 41 34 " stroke-width="1"/>
    <path id="ID0.9906500363722444" fill="#5E0413" d="M 43 34 L 42 34 L 42 33 L 43 33 L 43 34 " stroke-width="1"/>
    <path id="ID0.415910760872066" fill="#251605" d="M 43 35 L 42 35 L 42 34 L 43 34 L 43 35 " stroke-width="1"/>
    <path id="ID0.48583597131073475" fill="#B98916" d="M 40 33 L 40 32 L 41 32 L 41 33 L 40 33 " stroke-width="1"/>
    <path id="ID0.2384927342645824" fill="#CC002B" d="M 43 33 L 42 33 L 42 32 L 43 32 L 43 33 " stroke-width="1"/>
    <path id="ID0.051736907567828894" fill="#000000" d="M 45 32 L 45 31 L 46 31 L 46 32 L 45 32 M 18 43 L 17 43 L 17 42 L 18 42 L 18 43 M 10 18 L 10 19 L 9 19 L 9 18 L 10 18 " stroke-width="1"/>
    <path id="ID0.9615869047120214" fill="#000000" d="M 45 31 L 45 30 L 46 30 L 46 31 L 45 31 " stroke-width="1"/>
    <path id="ID0.8390418300405145" fill="#0F0002" d="M 45 29 L 46 29 L 46 30 L 45 30 L 45 29 M 45 33 L 45 34 L 44 34 L 44 33 L 45 33 M 21 4 L 21 3 L 22 3 L 22 4 L 21 4 M 14 12 L 15 12 L 15 11 L 16 11 L 16 12 L 15 12 L 15 13 L 14 13 L 14 12 " stroke-width="1"/>
    <path id="ID0.8540508560836315" fill="#C30029" d="M 44 30 L 45 30 L 45 31 L 44 31 L 44 30 M 30.25 5.75 C 30.083 5.583 30 5.333 30 5 L 31 5 L 31 6 C 30.667 6 30.417 5.917 30.25 5.75 M 21.25 26.75 L 21 26 C 21.333 26 21.583 26.083 21.75 26.25 C 21.917 26.417 22 26.667 22 27 L 21.25 26.75 M 21.25 5.75 L 21 5 L 22 5 L 22 6 L 21.25 5.75 " stroke-width="1"/>
    <path id="ID0.29736242769286036" fill="#D4002C" d="M 44 31 L 44 32 L 44 33 L 44 34 L 43 34 L 43 33 L 43 32 L 43 31 L 44 31 " stroke-width="1"/>
    <path id="ID0.7964796884916723" fill="#94001F" d="M 45 31 L 45 32 L 44 32 L 44 31 L 45 31 M 15 8 L 15 7 L 15.75 7.25 C 15.917 7.417 16 7.667 16 8 L 15 8 " stroke-width="1"/>
    <path id="ID0.018401163164526224" fill="#570013" d="M 45 33 L 44 33 L 44 32 L 45 32 L 45 33 M 9 36 L 9 35 C 9.333 35 9.583 35.083 9.75 35.25 C 9.917 35.417 10 35.667 10 36 L 9 36 " stroke-width="1"/>
    <path id="ID0.3197668343782425" fill="#BC0031" d="M 44 31 L 43 31 L 43 30 L 44 30 L 44 31 " stroke-width="1"/>
    <path id="ID0.24805058585479856" fill="#79001A" d="M 44 35 L 43 35 L 43 36 L 42 36 L 42 35 L 43 35 L 43 34 L 44 34 L 44 35 " stroke-width="1"/>
    <path id="ID0.20691164629533887" fill="#000000" d="M 44 35 L 44 34 L 45 34 L 45 35 L 44 35 M 22 44 L 21 44 L 21 43 L 22 43 L 22 44 " stroke-width="1"/>
    <path id="ID0.98203758103773" fill="#000000" d="M 44 35 L 45 35 L 44.75 35.75 L 44 36 L 44 35 M 12 14 L 12 13 L 13 13 L 13 14 L 12 14 M 15 11 L 15 10 L 16 10 L 16 11 L 15 11 M 13 7 L 13 6 L 14 6 L 14 7 L 13 7 " stroke-width="1"/>
    <path id="ID0.5734591009095311" fill="#000000" d="M 46 33 L 45.75 33.75 L 45 34 L 45 33 L 46 33 M 9 18 L 9 17 L 10 17 L 10 18 L 9 18 M 16 10 L 16 9 L 17 9 L 17 10 L 16 10 M 15 9 C 14.667 9 14.417 8.917 14.25 8.75 L 14 8 L 15 8 L 15 9 " stroke-width="1"/>
    <path id="ID0.8882112530991435" fill="#140004" d="M 44 36 L 43 36 L 43 35 L 44 35 L 44 36 " stroke-width="1"/>
    <path id="ID0.9511863999068737" fill="#000000" d="M 45 32 L 46 32 L 46 33 L 45 33 L 45 32 M 41 39 L 42 39 L 41.75 39.75 L 41 40 L 41 39 " stroke-width="1"/>
    <path id="ID0.349325199611485" fill="#706F6D" d="M 38 28 L 38 29 L 37 29 L 37 28 L 38 28 " stroke-width="1"/>
    <path id="ID0.8138010147958994" fill="#810034" d="M 42 29 L 42 28 L 43 28 L 43 29 L 42 29 " stroke-width="1"/>
    <path id="ID0.06474374700337648" fill="#000000" d="M 43 37 L 44 37 L 43.75 37.75 L 43 38 L 43 37 M 9 20 L 8 20 L 8 19 L 9 19 L 9 20 " stroke-width="1"/>
    <path id="ID0.6466511348262429" fill="#000000" d="M 42 37 L 43 37 L 43 38 L 42 38 L 42 37 M 12 40 L 12 39 L 13 39 L 13 40 L 12 40 " stroke-width="1"/>
    <path id="ID0.3402165099978447" fill="#500011" d="M 42 37 L 42 36 L 43 36 L 43 37 L 42 37 " stroke-width="1"/>
    <path id="ID0.03279112745076418" fill="#000000" d="M 42 38 L 43 38 L 42.75 38.75 L 42 39 L 42 38 M 12 40 L 11.25 39.75 L 11 39 L 12 39 L 12 40 M 14 12 L 14 11 L 15 11 L 15 12 L 14 12 M 21 3 L 20 3 L 20 2 L 21 2 L 21 3 " stroke-width="1"/>
    <path id="ID0.7489233501255512" fill="#780019" d="M 41 37 L 42 37 L 42 38 L 41 38 L 41 37 M 25 23 L 24.25 22.75 L 24 22 L 25 22 L 25 23 " stroke-width="1"/>
    <path id="ID0.2604508367367089" fill="#C3062C" d="M 39 37 L 39 38 L 38 38 L 38 37 L 39 37 " stroke-width="1"/>
    <path id="ID0.8707209397107363" fill="#3F2E23" d="M 37 37 L 38 37 L 38 38 L 37 38 L 37 37 " stroke-width="1"/>
    <path id="ID0.675876572728157" fill="#DC676D" d="M 39 39 L 38 39 L 38 38 L 39 38 L 39 39 " stroke-width="1"/>
    <path id="ID0.4073351891711354" fill="#431C0A" d="M 39 36 L 39 37 L 38 37 L 38 36 L 39 36 " stroke-width="1"/>
    <path id="ID0.9556405786424875" fill="#D8891A" d="M 37 37 L 37 36 L 38 36 L 38 37 L 37 37 " stroke-width="1"/>
    <path id="ID0.6236989079043269" fill="#4D0212" d="M 39 39 L 40 39 L 40 40 L 39 40 L 39 39 " stroke-width="1"/>
    <path id="ID0.7305244603194296" fill="#13100E" d="M 39 40 L 39 41 L 38 41 L 38 40 L 39 40 " stroke-width="1"/>
    <path id="ID0.5619165818206966" fill="#8C7968" d="M 38 40 L 38 41 L 37 41 L 37 40 L 38 40 M 23 42 L 24 42 L 24 43 L 23 43 L 23 42 " stroke-width="1"/>
    <path id="ID0.378661809489131" fill="#000000" d="M 40 40 L 41 40 L 40.75 40.75 L 40 41 L 40 40 M 35 43 L 35 44 L 34 44 L 34 43 L 35 43 " stroke-width="1"/>
    <path id="ID0.05116447759792209" fill="#000000" d="M 39 40 L 40 40 L 40 41 L 39 41 L 39 40 M 16 10 L 17 10 L 17 11 L 16 11 L 16 10 " stroke-width="1"/>
    <path id="ID0.5938617521896958" fill="#000000" d="M 39 41 L 40 41 L 39.75 41.75 L 39 42 L 39 41 " stroke-width="1"/>
    <path id="ID0.6240712888538837" fill="#D4AC97" d="M 39 39 L 39 40 L 38 40 L 38 39 L 39 39 " stroke-width="1"/>
    <path id="ID0.23179412260651588" fill="#E1C2A6" d="M 37 40 L 37 41 L 36 41 L 35 41 L 34 41 L 34 42 L 33 42 L 32 42 L 31 42 L 30 42 L 29 42 L 28 42 L 27 42 L 26 42 L 25 42 L 24 42 L 23 42 L 22 42 L 21 42 C 21 41.667 20.917 41.417 20.75 41.25 C 20.583 41.083 20.333 41 20 41 L 19 41 L 18 41 L 17 41 C 17 40.667 16.917 40.417 16.75 40.25 C 16.583 40.083 16.333 40 16 40 L 15 40 C 15 39.667 14.917 39.417 14.75 39.25 C 14.583 39.083 14.333 39 14 39 L 14 38 L 14.75 37.75 C 14.917 37.583 15 37.333 15 37 L 16 37 L 16.75 36.75 L 17 36 L 17.75 35.75 C 17.917 35.583 18 35.333 18 35 L 19 35 L 20 35 L 20.75 34.75 C 20.917 34.583 21 34.333 21 34 L 22 34 L 23 34 L 23.75 33.75 C 23.917 33.583 24 33.333 24 33 L 25 33 L 26 33 L 27 33 L 27.25 33.75 L 28 34 L 28 35 L 28.25 35.75 L 29 36 L 29.25 36.75 L 30 37 C 30 37.333 30.083 37.583 30.25 37.75 L 31 38 C 31 38.333 31.083 38.583 31.25 38.75 L 32 39 L 32.25 39.75 L 33 40 L 34 40 L 35 40 L 35.75 39.75 L 36 39 L 36.75 38.75 L 37 38 L 38 38 L 38 39 L 38 40 L 37 40 " stroke-width="1"/>
    <path id="ID0.4238851689733565" fill="#000000" d="M 38 41 L 39 41 L 39 42 L 38 42 L 38 41 " stroke-width="1"/>
    <path id="ID0.8517689881846309" fill="#700018" d="M 41 38 L 41 39 L 40 39 L 40 38 L 41 38 " stroke-width="1"/>
    <path id="ID0.959697334561497" fill="#F59B1E" d="M 38 35 L 38 36 L 37 36 L 37 37 L 36 37 L 36 38 L 35 38 L 34 38 L 33 38 L 32.75 37.25 L 32 37 L 31.75 36.25 C 31.583 36.083 31.333 36 31 36 L 31 35 L 32 35 L 33 35 L 34 35 L 35 35 L 36 35 L 37 35 L 38 35 " stroke-width="1"/>
    <path id="ID0.1681551937945187" fill="#000000" d="M 19 43 L 19 44 L 18.25 43.75 L 18 43 L 19 43 M 29 3 L 29 2 L 29.75 2.25 L 30 3 L 29 3 " stroke-width="1"/>
    <path id="ID0.5045157251879573" fill="#000000" d="M 27 1 L 27.75 1.25 C 27.917 1.417 28 1.667 28 2 L 27 2 L 27 1 " stroke-width="1"/>
    <path id="ID0.0033881482668220997" fill="#BC0028" d="M 29 3 L 29 4 L 28.25 3.75 L 28 3 L 29 3 M 8 32 C 8.333 32 8.583 32.083 8.75 32.25 C 8.917 32.417 9 32.667 9 33 L 8 33 L 8 32 M 15 33 L 14.25 32.75 L 14 32 C 14.333 32 14.583 32.083 14.75 32.25 C 14.917 32.417 15 32.667 15 33 " stroke-width="1"/>
    <path id="ID0.4176291264593601" fill="#230007" d="M 29 4 L 29 3 L 30 3 L 30 4 L 29 4 " stroke-width="1"/>
    <path id="ID0.009883560240268707" fill="#0F0003" d="M 29 3 L 28 3 L 28 2 L 29 2 L 29 3 " stroke-width="1"/>
    <path id="ID0.6658672825433314" fill="#91001F" d="M 27.25 2.75 L 27 2 L 28 2 L 28 3 L 27.25 2.75 M 16 11 L 17 11 C 17 11.333 16.917 11.583 16.75 11.75 C 16.583 11.917 16.333 12 16 12 L 16 11 " stroke-width="1"/>
    <path id="ID0.9535227124579251" fill="#210007" d="M 30 5 L 30 4 L 31 4 L 31 5 L 30 5 " stroke-width="1"/>
    <path id="ID0.4583943015895784" fill="#000000" d="M 35 43 L 36 43 L 35.75 43.75 L 35 44 L 35 43 M 1 25 L 0.25 24.75 L 0 24 L 1 24 L 1 25 M 31 5 L 31 4 L 31.75 4.25 L 32 5 L 31 5 " stroke-width="1"/>
    <path id="ID0.3778462205082178" fill="#A30021" d="M 31.25 6.75 C 31.083 6.583 31 6.333 31 6 L 32 6 L 32 7 C 31.667 7 31.417 6.917 31.25 6.75 M 24 8 L 25 8 C 25 8.333 24.917 8.583 24.75 8.75 C 24.583 8.917 24.333 9 24 9 L 24 8 " stroke-width="1"/>
    <path id="ID0.23789224168285728" fill="#010000" d="M 32 7 L 32 6 L 33 6 L 33 7 L 32 7 " stroke-width="1"/>
    <path id="ID0.7379567995667458" fill="#130004" d="M 31 6 L 31 5 L 32 5 L 32 6 L 31 6 " stroke-width="1"/>
    <path id="ID0.8194198049604893" fill="#000000" d="M 16 43 L 15.25 42.75 L 15 42 L 16 42 L 16 43 M 5 28 L 5 28.5 C 4.667 28.5 4.333 28.333 4 28 L 5 28 M 32 6 L 32 5 L 32.75 5.25 L 33 6 L 32 6 " stroke-width="1"/>
    <path id="ID0.9873615186661482" fill="#7E001B" d="M 30 9 L 29 9 L 29 8 L 30 8 L 30 9 " stroke-width="1"/>
    <path id="ID0.4947873651981354" fill="#A10021" d="M 29 8 L 29 9 L 28.25 8.75 L 28 8 L 29 8 " stroke-width="1"/>
    <path id="ID0.7613183152861893" fill="#B40025" d="M 30 8 L 30.5 9 L 30 9 L 30 8 " stroke-width="1"/>
    <path id="ID0.3356131217442453" fill="#5E0014" d="M 27 7 L 28 7 L 28 8 L 27 8 L 27 7 " stroke-width="1"/>
    <path id="ID0.5816054665483534" fill="#550012" d="M 32.25 7.75 C 32.083 7.583 32 7.333 32 7 L 33 7 L 33 8 C 32.667 8 32.417 7.917 32.25 7.75 " stroke-width="1"/>
    <path id="ID0.8086557486094534" fill="#000000" d="M 1 23 L 0 23 L 0 22 L 1 22 L 1 23 M 26 0 L 26.75 0.25 C 26.917 0.417 27 0.667 27 1 L 26 1 L 26 0 M 33 8 L 33 7 L 33.75 7.25 L 34 8 L 33 8 " stroke-width="1"/>
    <path id="ID0.5053833904676139" fill="#650015" d="M 33.25 9.75 C 33.083 9.583 33 9.333 33 9 L 34 9 L 34 10 C 33.667 10 33.417 9.917 33.25 9.75 " stroke-width="1"/>
    <path id="ID0.9048697194084525" fill="#84001C" d="M 35 11 C 34.667 11 34.417 10.917 34.25 10.75 C 34.083 10.583 34 10.333 34 10 L 35 10 L 35 11 M 10 20 C 10 20.333 9.917 20.583 9.75 20.75 C 9.583 20.917 9.333 21 9 21 L 9 20 L 10 20 M 11 38 L 11 37 C 11.333 37 11.583 37.083 11.75 37.25 C 11.917 37.417 12 37.667 12 38 L 11 38 " stroke-width="1"/>
    <path id="ID0.07332371780648828" fill="#050000" d="M 33 9 L 33 8 L 34 8 L 34 9 L 33 9 " stroke-width="1"/>
    <path id="ID0.9710234995000064" fill="#000000" d="M 37 11 L 36 11 L 36 10 L 37 10 L 37 11 " stroke-width="1"/>
    <path id="ID0.8561395364813507" fill="#190005" d="M 10 18 L 10 17 L 11 17 L 11 18 L 10 18 M 9 34 L 9 35 L 8 35 L 8 34 L 9 34 M 35 11 L 35 10 L 36 10 L 36 11 L 35 11 M 14 7 L 14 6 L 15 6 L 15 7 L 14 7 " stroke-width="1"/>
    <path id="ID0.8958061076700687" fill="#000000" d="M 25 0 L 26 0 L 26 1 L 25 1 L 25 0 " stroke-width="1"/>
    <path id="ID0.16352799674496055" fill="#000000" d="M 23 0 L 24 0 L 25 0 L 25 1 L 24 1 L 23 1 L 23 0 " stroke-width="1"/>
    <path id="ID0.33090913062915206" fill="#96001F" d="M 26 1 L 26 2 L 25.25 1.75 L 25 1 L 26 1 " stroke-width="1"/>
    <path id="ID0.683362259529531" fill="#36000B" d="M 26 1 L 27 1 L 27 2 L 26 2 L 26 1 " stroke-width="1"/>
    <path id="ID0.13056060671806335" fill="#BE0028" d="M 23 1 L 24 1 C 24 1.333 23.917 1.583 23.75 1.75 C 23.583 1.917 23.333 2 23 2 L 23 1 M 24 6 L 24 5 L 24.75 5.25 C 24.917 5.417 25 5.667 25 6 L 24 6 " stroke-width="1"/>
    <path id="ID0.5495646023191512" fill="#000000" d="M 17 5 L 16 5 L 16 4 L 17 4 L 17 5 M 22 1 L 22 0 L 23 0 L 23 1 L 22 1 " stroke-width="1"/>
    <path id="ID0.8698194064199924" fill="#5A0013" d="M 7 28 L 7 27 L 8 27 L 8 28 L 7 28 M 7 30 L 7 29 L 8 29 L 8 30 L 7 30 M 23 1 L 23 2 L 22 2 L 22 1 L 23 1 " stroke-width="1"/>
    <path id="ID0.5784174655564129" fill="#000000" d="M 24 45 L 23.25 44.75 L 23 44 L 24 44 L 24 45 M 22 1 L 21 1 L 21 0 L 22 0 L 22 1 " stroke-width="1"/>
    <path id="ID0.7606273363344371" fill="#000000" d="M 8 32 L 8 33 L 7 33 L 7 32 L 8 32 M 22 2 L 21 2 L 21 1 L 22 1 L 22 2 " stroke-width="1"/>
    <path id="ID0.7437086184509099" fill="#230007" d="M 18 4 L 19 4 L 20 4 L 20 5 L 19 5 L 18 5 L 18 4 " stroke-width="1"/>
    <path id="ID0.5685064001008868" fill="#0B0002" d="M 20 4 L 21 4 L 21 5 L 20 5 L 20 4 " stroke-width="1"/>
    <path id="ID0.26301236264407635" fill="#280008" d="M 7 26 L 7 25 L 8 25 L 8 26 L 7 26 M 22 2 L 22 3 L 21 3 L 21 2 L 22 2 " stroke-width="1"/>
    <path id="ID0.6196516240015626" fill="#000000" d="M 21 4 L 22 4 L 22 5 L 21 5 L 21 4 " stroke-width="1"/>
    <path id="ID0.6372401430271566" fill="#40000E" d="M 22 6 L 22 5 L 23 5 L 23 6 L 22 6 " stroke-width="1"/>
    <path id="ID0.7369195744395256" fill="#550012" d="M 19 8 L 20 8 L 20 9 L 19 9 L 18 9 L 18 8 L 19 8 " stroke-width="1"/>
    <path id="ID0.2398692537099123" fill="#3C000D" d="M 17 9 L 17 8 L 18 8 L 18 9 L 17 9 " stroke-width="1"/>
    <path id="ID0.06569563085213304" fill="#130004" d="M 19 10 L 18 10 L 18 9 L 19 9 L 19 10 " stroke-width="1"/>
    <path id="ID0.43872859235852957" fill="#000000" d="M 8 36 L 8 35 L 9 35 L 9 36 L 8 36 M 17 9 L 18 9 L 18 10 L 17 10 L 17 9 " stroke-width="1"/>
    <path id="ID0.9904219708405435" fill="#600014" d="M 20 10 L 19 10 L 19 9 L 20 9 L 20 10 " stroke-width="1"/>
    <path id="ID0.022868024185299873" fill="#730018" d="M 9 33 L 9 34 L 8 34 L 8 33 L 9 33 M 21 9 L 20 9 L 20 8 L 21 8 L 21 9 " stroke-width="1"/>
    <path id="ID0.7769798212684691" fill="#B30025" d="M 20 9 L 21 9 C 21 9.333 20.917 9.583 20.75 9.75 C 20.583 9.917 20.333 10 20 10 L 20 9 " stroke-width="1"/>
    <path id="ID0.7574019655585289" fill="#81001B" d="M 22 9 L 21 9 L 21 8 L 22 8 L 22 9 " stroke-width="1"/>
    <path id="ID0.28564498480409384" fill="#90001E" d="M 24 9 L 23 9 L 22 9 L 22 8 L 23 8 L 24 8 L 24 9 " stroke-width="1"/>
    <path id="ID0.1618604431860149" fill="#42000E" d="M 27 8 L 26 8 L 26 7 L 27 7 L 27 8 " stroke-width="1"/>
    <path id="ID0.9541061474010348" fill="#6E0017" d="M 25 7 L 25 6 L 25.75 6.25 L 26 7 L 25 7 " stroke-width="1"/>
    <path id="ID0.5318464660085738" fill="#7F001B" d="M 25 7 L 26 7 L 26 8 L 25 8 L 25 7 " stroke-width="1"/>
    <path id="ID0.7975427312776446" fill="#2A0009" d="M 24 7 L 24 6 L 25 6 L 25 7 L 24 7 " stroke-width="1"/>
    <path id="ID0.9370774985291064" fill="#4B0010" d="M 17 10 L 18 10 C 18 10.333 17.917 10.583 17.75 10.75 C 17.583 10.917 17.333 11 17 11 L 17 10 M 7 27 L 7 26 L 8 26 L 8 27 L 7 27 M 22 5 L 22 4 L 22.75 4.25 L 23 5 L 22 5 " stroke-width="1"/>
    <path id="ID0.8832132159732282" fill="#36000C" d="M 24 6 L 23 6 L 23 5 L 24 5 L 24 6 M 25 22 L 25.75 22.25 L 26 23 L 25 23 L 25 22 " stroke-width="1"/>
    <path id="ID0.5179758998565376" fill="#0F0003" d="M 17 4 L 18 4 L 18 5 L 17 5 L 17 4 " stroke-width="1"/>
    <path id="ID0.24317094450816512" fill="#2F000A" d="M 25 20 L 25 19 L 26 19 L 26 20 L 25 20 " stroke-width="1"/>
    <path id="ID0.5933682578615844" fill="#8C001E" d="M 26 20 L 26 19 L 26.75 19.25 C 26.917 19.417 27 19.667 27 20 L 26 20 " stroke-width="1"/>
    <path id="ID0.07043012417852879" fill="#640015" d="M 36.25 11.75 C 36.083 11.583 36 11.333 36 11 L 37 11 L 37 12 C 36.667 12 36.417 11.917 36.25 11.75 M 7 29 L 7 28 L 8 28 L 8 29 L 7 29 M 25 20 L 25 21 L 24 21 L 24 20 L 25 20 " stroke-width="1"/>
    <path id="ID0.8615634143352509" fill="#250008" d="M 25 22 L 24 22 L 24 21 L 25 21 L 25 22 " stroke-width="1"/>
    <path id="ID0.438684041146189" fill="#1C0006" d="M 28 21 L 27.25 20.75 L 27 20 L 28 20 L 28 21 " stroke-width="1"/>
    <path id="ID0.26812775572761893" fill="#B20025" d="M 24 20 L 24 19 L 25 19 L 25 20 L 24 20 " stroke-width="1"/>
    <path id="ID0.819811271969229" fill="#7A001A" d="M 28 21 L 28 20 L 28.75 20.25 L 29 21 L 28 21 " stroke-width="1"/>
    <path id="ID0.7325111175887287" fill="#0D0002" d="M 30 22 C 29.667 22 29.417 21.917 29.25 21.75 C 29.083 21.583 29 21.333 29 21 L 30 21 L 30 22 " stroke-width="1"/>
    <path id="ID0.7042368473485112" fill="#C10029" d="M 19 30 L 18.4 29.8 C 18.133 29.267 18 28.667 18 28 L 19 28 L 19 29 L 19 30 M 31 21 L 31.75 21.25 L 32 22 L 31 22 L 31 21 " stroke-width="1"/>
    <path id="ID0.12320447945967317" fill="#610015" d="M 31 22 L 30 22 L 30 21 L 31 21 L 31 22 " stroke-width="1"/>
    <path id="ID0.88023930368945" fill="#2F050E" d="M 33 23 C 32.667 23 32.417 22.917 32.25 22.75 C 32.083 22.583 32 22.333 32 22 L 33 22 L 33 23 " stroke-width="1"/>
    <path id="ID0.8907942636869848" fill="#9B0020" d="M 34 22 L 35 22 L 35 23 L 34 23 L 34 22 " stroke-width="1"/>
    <path id="ID0.43323015747591853" fill="#83001C" d="M 35 22 L 35 21 L 36 21 L 37 21 L 37 22 L 36 22 L 35 22 " stroke-width="1"/>
    <path id="ID0.24337452044710517" fill="#C7002A" d="M 16 5 L 17 5 C 17 5.333 16.917 5.583 16.75 5.75 C 16.583 5.917 16.333 6 16 6 L 16 5 " stroke-width="1"/>
    <path id="ID0.02550729550421238" fill="#520011" d="M 15 5 L 16 5 L 16 6 L 15 6 L 15 5 " stroke-width="1"/>
    <path id="ID0.19654490891844034" fill="#000000" d="M 7 34 L 7 33 L 8 33 L 8 34 L 7 34 M 14 6 L 14 5 L 15 5 L 15 6 L 14 6 " stroke-width="1"/>
    <path id="ID0.9636583430692554" fill="#000000" d="M 25 45 L 24 45 L 24 44 L 25 44 L 25 45 M 14 8 L 13.25 7.75 L 13 7 L 14 7 L 14 8 " stroke-width="1"/>
    <path id="ID0.8184561943635345" fill="#000000" d="M 15 8 L 16 8 L 16 9 L 15 9 L 15 8 " stroke-width="1"/>
    <path id="ID0.5049864226020873" fill="#110003" d="M 16 9 L 16 8 L 17 8 L 17 9 L 16 9 " stroke-width="1"/>
    <path id="ID0.20383261376991868" fill="#080001" d="M 14 8 L 14 7 L 15 7 L 15 8 L 14 8 " stroke-width="1"/>
    <path id="ID0.9375175177119672" fill="#050505" d="M 3 22 L 2 22 L 1 22 L 1 21 L 2 21 L 3 21 L 3 22 " stroke-width="1"/>
    <path id="ID0.5312756123021245" fill="#0F0F0F" d="M 1 22 L 2 22 L 3 22 L 4 22 L 4.25 22.75 L 5 23 L 6 23 L 6.25 23.75 L 7 24 L 7 25 L 6 25 L 5 25 L 4.75 24.25 L 4 24 L 3 24 L 2 24 L 1 24 L 1 23 L 1 22 M 5 22 L 5 21 L 5 20 L 6 20 L 6.25 20.75 L 7 21 L 7 22 L 6 22 L 5 22 M 5 27 L 4 27 L 4 26 L 5 26 L 6 26 L 6 27 L 5 27 " stroke-width="1"/>
    <path id="ID0.40677129616960883" fill="#0B0B0B" d="M 5 19 L 6 19 L 6 20 L 5 20 L 5 19 " stroke-width="1"/>
    <path id="ID0.501220662612468" fill="#020202" d="M 2 25 L 1 25 L 1 24 L 2 24 L 2 25 M 6 20 L 6 19 L 6.75 19.25 C 6.917 19.417 7 19.667 7 20 L 6 20 " stroke-width="1"/>
    <path id="ID0.20186401810497046" fill="#000000" d="M 4 22 L 3 22 L 3 21 L 4 21 L 4 22 " stroke-width="1"/>
    <path id="ID0.7927523078396916" fill="#070707" d="M 5 22 L 5 23 L 4.25 22.75 L 4 22 L 5 22 " stroke-width="1"/>
    <path id="ID0.4648327585309744" fill="#020202" d="M 4 28 L 3.25 27.75 L 3 27 L 4 27 L 4 28 M 5 22 L 4 22 L 4 21 L 5 21 L 5 22 " stroke-width="1"/>
    <path id="ID0.7943707634694874" fill="#0C0C0C" d="M 5 20 L 5 21 L 4 21 L 4 20 L 5 20 " stroke-width="1"/>
    <path id="ID0.29607629030942917" fill="#0C0C0C" d="M 6.25 20.75 L 6 20 L 7 20 L 7 21 L 6.25 20.75 " stroke-width="1"/>
    <path id="ID0.18076291400939226" fill="#0E0E0E" d="M 6 23 L 6 22 L 7 22 L 7 23 L 6 23 " stroke-width="1"/>
    <path id="ID0.38263783091679215" fill="#030303" d="M 5 23 L 5 22 L 6 22 L 6 23 L 5 23 " stroke-width="1"/>
    <path id="ID0.08566407579928637" fill="#030303" d="M 8 22 L 7 22 L 7 21 L 8 21 L 8 22 " stroke-width="1"/>
    <path id="ID0.4268593308515847" fill="#000000" d="M 5 20 L 4 20 L 4 19 L 5 19 L 5 20 " stroke-width="1"/>
    <path id="ID0.5241794516332448" fill="#AD0024" d="M 13 14 L 14 14 L 14 13 L 15 13 L 15 12 L 16 12 C 16 12.333 15.917 12.583 15.75 12.75 C 15.583 12.917 15.333 13 15 13 C 15 13.333 14.917 13.583 14.75 13.75 C 14.583 13.917 14.333 14 14 14 C 14 14.333 13.917 14.583 13.75 14.75 C 13.583 14.917 13.333 15 13 15 L 13 14 " stroke-width="1"/>
    <path id="ID0.7720459662377834" fill="#120004" d="M 13 13 L 14 13 L 14 14 L 13 14 L 13 13 " stroke-width="1"/>
    <path id="ID0.1689975163899362" fill="#090000" d="M 12 14 L 13 14 L 13 15 L 12 15 L 12 14 " stroke-width="1"/>
    <path id="ID0.07463928032666445" fill="#87001D" d="M 12 15 L 13 15 C 13 15.333 12.917 15.583 12.75 15.75 C 12.583 15.917 12.333 16 12 16 L 12 15 M 10 37 L 10 36 C 10.333 36 10.583 36.083 10.75 36.25 C 10.917 36.417 11 36.667 11 37 L 10 37 " stroke-width="1"/>
    <path id="ID0.7607666617259383" fill="#000000" d="M 11 15 L 12 15 L 12 16 L 11 16 L 11 15 " stroke-width="1"/>
    <path id="ID0.7478535738773644" fill="#48000F" d="M 11 16 L 12 16 C 12 16.333 11.917 16.583 11.75 16.75 C 11.583 16.917 11.333 17 11 17 L 11 16 " stroke-width="1"/>
    <path id="ID0.03430261602625251" fill="#000000" d="M 11 16 L 11 17 L 10 17 L 10 16 L 11 16 " stroke-width="1"/>
    <path id="ID0.5560517814010382" fill="#130003" d="M 8 22 L 8 21 L 9 21 L 9 22 L 8 22 " stroke-width="1"/>
    <path id="ID0.3916966705583036" fill="#5F0014" d="M 8 23 L 8 22 L 9 22 L 9 23 L 8 23 " stroke-width="1"/>
    <path id="ID0.9923879695124924" fill="#1E0006" d="M 9 20 L 9 19 L 10 19 L 10 20 L 9 20 " stroke-width="1"/>
    <path id="ID0.40388050954788923" fill="#080808" d="M 8 23 L 7 23 L 7 22 L 8 22 L 8 23 " stroke-width="1"/>
    <path id="ID0.8794665010645986" fill="#090002" d="M 7 25 L 7 24 L 8 24 L 8 25 L 7 25 " stroke-width="1"/>
    <path id="ID0.7327467207796872" fill="#A00021" d="M 9 23 C 9 23.333 8.917 23.583 8.75 23.75 C 8.583 23.917 8.333 24 8 24 L 8 23 L 9 23 " stroke-width="1"/>
    <path id="ID0.012016711756587029" fill="#030303" d="M 8 24 L 7 24 L 7 23 L 8 23 L 8 24 " stroke-width="1"/>
    <path id="ID0.18269719276577234" fill="#43000E" d="M 7 31 L 7 30 L 8 30 L 8 31 L 7 31 " stroke-width="1"/>
    <path id="ID0.26673771953210235" fill="#A80022" d="M 19 29 L 19 28 L 19 27 L 19 26 L 20 26 L 21 26 L 21.25 26.75 L 22 27 L 22.1 28 C 22.5 30.133 22.133 31.467 21 32 L 20 32 L 19.4 31.8 C 19.133 31.267 19 30.667 19 30 L 19 29 M 14.75 32.25 C 14.583 32.083 14.333 32 14 32 L 14 31 L 14 30 L 14.75 29.75 C 14.917 29.583 15 29.333 15 29 C 17.3 30 17.567 31.25 15.8 32.75 L 15 33 C 15 32.667 14.917 32.417 14.75 32.25 " stroke-width="1"/>
    <path id="ID0.6467502396553755" fill="#D70E35" d="M 17 36 L 16 36 L 16 35 L 17 35 L 17 36 " stroke-width="1"/>
    <path id="ID0.946979972999543" fill="#0A0A0A" d="M 6.25 23.75 L 6 23 L 7 23 L 7 24 L 6.25 23.75 " stroke-width="1"/>
    <path id="ID0.1770193395204842" fill="#070707" d="M 6 26 L 6 25 L 7 25 L 7 26 L 6 26 " stroke-width="1"/>
    <path id="ID0.6262393067590892" fill="#0D0D0D" d="M 4 25 L 4 24 L 4.75 24.25 L 5 25 L 4 25 " stroke-width="1"/>
    <path id="ID0.6358598885126412" fill="#050505" d="M 5 26 L 5 25 L 6 25 L 6 26 L 5 26 " stroke-width="1"/>
    <path id="ID0.49931463319808245" fill="#0A0A0A" d="M 4 25 L 3 25 L 3 24 L 4 24 L 4 25 " stroke-width="1"/>
    <path id="ID0.030215946026146412" fill="#060606" d="M 2 24 L 3 24 L 3 25 L 2 25 L 2 24 " stroke-width="1"/>
    <path id="ID0.07586104236543179" fill="#070707" d="M 4 27 L 3 27 L 3 26 L 4 26 L 4 27 " stroke-width="1"/>
    <path id="ID0.39244840759783983" fill="#0B0B0B" d="M 5 27 L 5 28 L 4 28 L 4 27 L 5 27 " stroke-width="1"/>
    <path id="ID0.010524845216423273" fill="#030303" d="M 6 27 L 6 26 L 7 26 L 7 27 L 6 27 " stroke-width="1"/>
    <path id="ID0.24033754458650947" fill="#000000" d="M 16 42 L 17 42 L 17 43 L 16 43 L 16 42 M 6 27 L 7 27 L 7 28 L 6 28 L 6 27 " stroke-width="1"/>
    <path id="ID0.7564561548642814" fill="#000000" d="M 7 30 L 6 30 L 6 29 L 6 28 L 7 28 L 7 29 L 7 30 " stroke-width="1"/>
    <path id="ID0.03716088458895683" fill="#000000" d="M 31 45 L 30 45 L 30 44 L 31 44 L 31 45 M 6 27 L 6 28 L 5 28 L 5 27 L 6 27 " stroke-width="1"/>
    <path id="ID0.3218558211810887" fill="#010101" d="M 4 26 L 4 25 L 5 25 L 5 26 L 4 26 " stroke-width="1"/>
    <path id="ID0.09270071005448699" fill="#030303" d="M 1 23 L 1 24 L 0 24 L 0 23 L 1 23 " stroke-width="1"/>
    <path id="ID0.5854675592854619" fill="#000000" d="M 7 31 L 6 31 L 6 30 L 7 30 L 7 31 " stroke-width="1"/>
    <path id="ID0.2778808153234422" fill="#D9344D" d="M 16 37 L 15 37 L 15 36 L 16 36 L 16 37 " stroke-width="1"/>
    <path id="ID0.37282659905031323" fill="#E1AE9A" d="M 17 36 L 16.75 36.75 L 16 37 L 16 36 L 17 36 " stroke-width="1"/>
    <path id="ID0.8957757367752492" fill="#D34859" d="M 13 39 L 13 38 L 14 38 L 14 39 L 13 39 " stroke-width="1"/>
    <path id="ID0.9892030339688063" fill="#DB495A" d="M 15 37 C 15 37.333 14.917 37.583 14.75 37.75 L 14 38 L 14 37 L 15 37 " stroke-width="1"/>
    <path id="ID0.35556111857295036" fill="#A7907C" d="M 14 39 C 14.333 39 14.583 39.083 14.75 39.25 C 14.917 39.417 15 39.667 15 40 L 14 40 L 14 39 " stroke-width="1"/>
    <path id="ID0.43532706750556827" fill="#000000" d="M 13 40 L 13 41 L 12.25 40.75 L 12 40 L 13 40 " stroke-width="1"/>
    <path id="ID0.36667873803526163" fill="#241F1B" d="M 13 40 L 13 39 L 14 39 L 14 40 L 13 40 " stroke-width="1"/>
    <path id="ID0.1065249633975327" fill="#39322B" d="M 16 41 L 15 41 L 15 40 L 16 40 L 16 41 " stroke-width="1"/>
    <path id="ID0.15907749347388744" fill="#000000" d="M 33 44 L 32 44 L 32 43 L 33 43 L 33 44 M 15 41 L 16 41 L 16 42 L 15 42 L 15 41 " stroke-width="1"/>
    <path id="ID0.6739330934360623" fill="#A18C78" d="M 16 41 L 16 40 C 16.333 40 16.583 40.083 16.75 40.25 C 16.917 40.417 17 40.667 17 41 L 16 41 " stroke-width="1"/>
    <path id="ID0.25935475528240204" fill="#000000" d="M 15 42 L 14.25 41.75 L 14 41 L 15 41 L 15 42 " stroke-width="1"/>
    <path id="ID0.22423453582450747" fill="#020000" d="M 10 38 L 10 37 L 11 37 L 11 38 L 10 38 " stroke-width="1"/>
    <path id="ID0.5082818055525422" fill="#000000" d="M 10 37 L 10 38 L 9.25 37.75 L 9 37 L 10 37 " stroke-width="1"/>
    <path id="ID0.32040437031537294" fill="#000000" d="M 11 39 L 10.25 38.75 L 10 38 L 11 38 L 11 39 " stroke-width="1"/>
    <path id="ID0.5635908986441791" fill="#000000" d="M 9 37 L 8.25 36.75 L 8 36 L 9 36 L 9 37 " stroke-width="1"/>
    <path id="ID0.6265927706845105" fill="#100E0C" d="M 18 42 L 17 42 L 17 41 L 18 41 L 18 42 " stroke-width="1"/>
    <path id="ID0.08046408230438828" fill="#DD7777" d="M 17 35 L 18 35 C 18 35.333 17.917 35.583 17.75 35.75 L 17 36 L 17 35 " stroke-width="1"/>
    <path id="ID0.9789958903566003" fill="#E4E4E4" d="M 36 24 L 37 24 L 37 25 L 36 25 L 36 24 " stroke-width="1"/>
    <path id="ID0.9813730116002262" fill="#887C7F" d="M 35 25 L 35 24 L 36 24 L 36 25 L 35 25 " stroke-width="1"/>
    <path id="ID0.1505868174135685" fill="#210008" d="M 35 23 L 35 24 C 34.667 24 34.417 23.917 34.25 23.75 C 34.083 23.583 34 23.333 34 23 L 35 23 " stroke-width="1"/>
    <path id="ID0.5781034957617521" fill="#272022" d="M 34 25 L 35 25 L 35 26 L 34 26 L 34 25 " stroke-width="1"/>
    <path id="ID0.535012795124203" fill="#1D1D1D" d="M 34 26 L 33 26 L 33 25 L 34 25 L 34 26 " stroke-width="1"/>
    <path id="ID0.29731765761971474" fill="#D5D5D5" d="M 35 27 L 35 26 L 36 26 L 36 27 L 35 27 " stroke-width="1"/>
    <path id="ID0.5169701715931296" fill="#4B4749" d="M 34 27 L 34 26 L 35 26 L 35 27 L 34 27 " stroke-width="1"/>
    <path id="ID0.7904686140827835" fill="#AAAAAA" d="M 34 26 L 34 27 L 33 27 L 33 26 L 34 26 " stroke-width="1"/>
    <path id="ID0.021637775469571352" fill="#120B0E" d="M 34 27 L 35 27 L 35 28 L 34 28 L 34 27 " stroke-width="1"/>
    <path id="ID0.00486078392714262" fill="#414141" d="M 32 27 L 32 26 L 33 26 L 33 27 L 32 27 " stroke-width="1"/>
    <path id="ID0.2526446362026036" fill="#BF8D17" d="M 34 28 L 35 28 L 35 29 L 34 29 L 34 28 " stroke-width="1"/>
    <path id="ID0.1797443744726479" fill="#E0E0E0" d="M 33 27 L 34 27 L 34 28 L 33 28 L 33 27 " stroke-width="1"/>
    <path id="ID0.8229172732681036" fill="#FEFEFF" d="M 33 27 L 33 28 L 32 28 L 31 28 L 31 29 L 30 29 L 29.75 28.25 L 29 28 L 28 28 L 28 27 L 28 26 L 28 25 L 28 24 L 29 24 C 29 24.333 29.083 24.583 29.25 24.75 C 29.417 24.917 29.667 25 30 25 L 31 25 L 31 26 C 31 26.333 31.083 26.583 31.25 26.75 L 32 27 L 33 27 " stroke-width="1"/>
    <path id="ID0.6699039898812771" fill="#644B0F" d="M 33 28 L 34 28 L 34 29 L 33 29 L 33 28 " stroke-width="1"/>
    <path id="ID0.16865172935649753" fill="#676767" d="M 35 27 L 36 27 L 36 28 L 35 28 L 35 27 " stroke-width="1"/>
    <path id="ID0.195645981002599" fill="#121212" d="M 37 27 L 36 27 L 36 26 L 37 26 L 37 27 " stroke-width="1"/>
    <path id="ID0.8483903636224568" fill="#0B0B0B" d="M 37 28 L 36 28 L 36 27 L 37 27 L 37 28 " stroke-width="1"/>
    <path id="ID0.8929403801448643" fill="#5E460E" d="M 36 28 L 37 28 L 37 29 L 36 29 L 36 28 " stroke-width="1"/>
    <path id="ID0.35576663352549076" fill="#E7E7E7" d="M 35 26 L 35 25 L 36 25 L 36 26 L 35 26 " stroke-width="1"/>
    <path id="ID0.3267066599801183" fill="#B08215" d="M 35 28 L 36 28 L 36 29 L 35 29 L 35 28 " stroke-width="1"/>
    <path id="ID0.19328049942851067" fill="#333333" d="M 31 25 L 31 24 L 31.8 25.1 L 32 26 L 31 26 L 31 25 " stroke-width="1"/>
    <path id="ID0.40978958550840616" fill="#A4A4A4" d="M 31 25 L 30 25 L 30 24 L 31 24 L 31 25 " stroke-width="1"/>
    <path id="ID0.8695486704818904" fill="#F0F0F0" d="M 29.25 24.75 C 29.083 24.583 29 24.333 29 24 L 30 24 L 30 25 C 29.667 25 29.417 24.917 29.25 24.75 " stroke-width="1"/>
    <path id="ID0.8492631460539997" fill="#D4DFFE" d="M 27 25 L 27 24 L 28 24 L 28 25 L 27 25 " stroke-width="1"/>
    <path id="ID0.22235250566154718" fill="#4A4A4A" d="M 28 23 L 28.75 23.25 L 29 24 L 28 24 L 28 23 " stroke-width="1"/>
    <path id="ID0.7423498639836907" fill="#4E4E54" d="M 27 24 L 27 23 L 28 23 L 28 24 L 27 24 " stroke-width="1"/>
    <path id="ID0.2791665242984891" fill="#E0E8FE" d="M 27 27 L 27 26 L 28 26 L 28 27 L 27 27 " stroke-width="1"/>
    <path id="ID0.564192165620625" fill="#BDCFFC" d="M 27 28 L 27 27 L 28 27 L 28 28 L 27 28 " stroke-width="1"/>
    <path id="ID0.29412291990593076" fill="#C4D3FA" d="M 28 28 L 29 28 L 29 29 L 28 29 L 28 28 " stroke-width="1"/>
    <path id="ID0.589787065051496" fill="#F8F9FC" d="M 29 29 L 29 28 L 29.75 28.25 L 30 29 L 29 29 " stroke-width="1"/>
    <path id="ID0.822339569684118" fill="#ADADAD" d="M 32 26 L 32 27 L 31.25 26.75 C 31.083 26.583 31 26.333 31 26 L 32 26 " stroke-width="1"/>
    <path id="ID0.5847895774058998" fill="#F8F8F8" d="M 32 28 L 32 29 L 31 29 L 31 28 L 32 28 " stroke-width="1"/>
    <path id="ID0.6806449666619301" fill="#E7EEFE" d="M 27 26 L 27 25 L 28 25 L 28 26 L 27 26 " stroke-width="1"/>
    <path id="ID0.8540097656659782" fill="#DBA11A" d="M 32 29 L 33 29 L 32.75 29.75 L 32 30 L 32 29 " stroke-width="1"/>
    <path id="ID0.6803896999917924" fill="#4D3D18" d="M 31 29 L 32 29 L 32 30 L 31 30 L 31 29 " stroke-width="1"/>
    <path id="ID0.5232191239483654" fill="#7A808F" d="M 30 29 L 31 29 L 31 30 L 30 30 L 30 29 " stroke-width="1"/>
    <path id="ID0.8709840355440974" fill="#876410" d="M 30 30 L 31 30 L 30.75 30.75 L 30 31 L 30 30 " stroke-width="1"/>
    <path id="ID0.9080168576911092" fill="#7E8BAD" d="M 30 29 L 30 30 L 29 30 L 29 29 L 30 29 " stroke-width="1"/>
    <path id="ID0.7312307064421475" fill="#1E010B" d="M 29 30 L 30 30 L 30 31 L 29 31 L 29 30 " stroke-width="1"/>
    <path id="ID0.7015989758074284" fill="#565F79" d="M 29 29 L 29 30 L 28 30 L 28 29 L 29 29 " stroke-width="1"/>
    <path id="ID0.6852595862001181" fill="#170710" d="M 28 29 L 28 30 L 27 30 L 27 29 L 28 29 " stroke-width="1"/>
    <path id="ID0.10283277463167906" fill="#450919" d="M 28 31 L 29 31 L 29 32 L 28 32 L 28 31 " stroke-width="1"/>
    <path id="ID0.7708758166991174" fill="#8F0038" d="M 26 32 L 25 32 C 25 31.667 24.917 31.417 24.75 31.25 C 24.583 31.083 24.333 31 24 31 L 24 30 L 24 28 L 24 27 L 25 27 L 25.25 27.75 L 26 28 L 26 29 L 26.25 29.75 L 27 30 L 27.25 30.75 L 28 31 L 28 32 L 27 32 L 26 32 " stroke-width="1"/>
    <path id="ID0.6814938555471599" fill="#B38416" d="M 29 31 L 30 31 L 29.75 31.75 L 29 32 L 29 31 " stroke-width="1"/>
    <path id="ID0.9619827782735229" fill="#48001D" d="M 28 30 L 29 30 L 29 31 L 28 31 L 28 30 " stroke-width="1"/>
    <path id="ID0.05563495494425297" fill="#C59218" d="M 28 33 L 28 32 L 29 32 L 29 33 L 28 33 " stroke-width="1"/>
    <path id="ID0.2020270572975278" fill="#870036" d="M 28 30 L 28 31 L 27.25 30.75 L 27 30 L 28 30 " stroke-width="1"/>
    <path id="ID0.3244520709849894" fill="#8A6511" d="M 28 34 L 28 33 L 29 33 L 29 34 L 28 34 " stroke-width="1"/>
    <path id="ID0.09410656988620758" fill="#4D4131" d="M 28 34 L 27.25 33.75 L 27 33 L 28 33 L 28 34 " stroke-width="1"/>
    <path id="ID0.033341074362397194" fill="#3E3529" d="M 28 35 L 28 34 L 29 34 L 29 35 L 28 35 " stroke-width="1"/>
    <path id="ID0.5725342654623091" fill="#D5B79D" d="M 29 36 L 28.25 35.75 L 28 35 L 29 35 L 29 36 " stroke-width="1"/>
    <path id="ID0.5762643874622881" fill="#D59D19" d="M 29 34 L 29 33 L 29.75 33.25 L 30 34 L 29 34 " stroke-width="1"/>
    <path id="ID0.960865322034806" fill="#7C4F10" d="M 29 35 L 29 34 L 30 34 L 30 35 L 29 35 " stroke-width="1"/>
    <path id="ID0.8592177196405828" fill="#6F470E" d="M 31 35 L 30 35 L 30 34 L 31 34 L 31 35 " stroke-width="1"/>
    <path id="ID0.4174291854724288" fill="#CA7F19" d="M 31 36 L 30 36 L 30 35 L 31 35 L 31 36 " stroke-width="1"/>
    <path id="ID0.6308212545700371" fill="#54370A" d="M 32 35 L 31 35 L 31 34 L 32 34 L 32 35 " stroke-width="1"/>
    <path id="ID0.0771728940308094" fill="#593F0B" d="M 34 35 L 33 35 L 32 35 L 32 34 L 33 34 L 34 34 L 34 35 " stroke-width="1"/>
    <path id="ID0.3609333671629429" fill="#380A13" d="M 27 33 L 27 32 L 28 32 L 28 33 L 27 33 " stroke-width="1"/>
    <path id="ID0.1483240039087832" fill="#352C1E" d="M 29 36 L 29 35 L 30 35 L 30 36 L 29 36 " stroke-width="1"/>
    <path id="ID0.6119135250337422" fill="#63490C" d="M 34 34 L 35 34 L 36 34 L 36 35 L 35 35 L 34 35 L 34 34 " stroke-width="1"/>
    <path id="ID0.23643132159486413" fill="#75570E" d="M 37 35 L 36 35 L 36 34 L 37 34 L 37 35 " stroke-width="1"/>
    <path id="ID0.12094917381182313" fill="#93A4D0" d="M 28 28 L 28 29 L 27 29 L 27 28 L 28 28 " stroke-width="1"/>
    <path id="ID0.5784416226670146" fill="#8B8985" d="M 32 28 L 33 28 L 33 29 L 32 29 L 32 28 " stroke-width="1"/>
    <path id="ID0.7025176584720612" fill="#840024" d="M 26 24 L 26 23 L 27 23 L 27 24 L 26 24 " stroke-width="1"/>
    <path id="ID0.5556777692399919" fill="#B70032" d="M 26 25 L 25 25 L 25 24 L 26 24 L 26 25 " stroke-width="1"/>
    <path id="ID0.30104263685643673" fill="#79002F" d="M 25 25 L 26 25 L 26 26 L 25 26 L 25 25 " stroke-width="1"/>
    <path id="ID0.1731798853725195" fill="#483A52" d="M 26 25 L 26 24 L 27 24 L 27 25 L 26 25 " stroke-width="1"/>
    <path id="ID0.8280831547454" fill="#7885A9" d="M 26 26 L 26 25 L 27 25 L 27 26 L 26 26 " stroke-width="1"/>
    <path id="ID0.31993738329038024" fill="#A90034" d="M 24 26 L 25 26 L 25 27 L 24 27 L 24 26 " stroke-width="1"/>
    <path id="ID0.39385913545265794" fill="#BD0030" d="M 24 28 L 24 30 L 24 31 L 23.45 30.85 C 23.15 29.95 23 29 23 28 L 24 28 " stroke-width="1"/>
    <path id="ID0.5441467268392444" fill="#7E8CB2" d="M 26 27 L 26 26 L 27 26 L 27 27 L 26 27 " stroke-width="1"/>
    <path id="ID0.7331865439191461" fill="#77002F" d="M 27 29 L 27 30 L 26.25 29.75 L 26 29 L 27 29 M 26 27 L 26 28 L 25.25 27.75 L 25 27 L 26 27 " stroke-width="1"/>
    <path id="ID0.4517889483831823" fill="#545D76" d="M 27 27 L 27 28 L 26 28 L 26 27 L 27 27 " stroke-width="1"/>
    <path id="ID0.9586053579114377" fill="#240514" d="M 27 28 L 27 29 L 26 29 L 26 28 L 27 28 " stroke-width="1"/>
    <path id="ID0.2747170003131032" fill="#BF0028" d="M 20 33 L 20 32 L 21 32 L 21 33 L 20 33 " stroke-width="1"/>
    <path id="ID0.9460968906059861" fill="#D81F40" d="M 19 35 L 18 35 L 18 34 L 19 34 L 19 35 " stroke-width="1"/>
    <path id="ID0.40349230915308" fill="#DD7979" d="M 20 35 L 19 35 L 19 34 L 20 34 L 20 35 " stroke-width="1"/>
    <path id="ID0.4594746585935354" fill="#D70C33" d="M 20 34 L 20 33 L 21 33 L 21 34 L 20 34 " stroke-width="1"/>
    <path id="ID0.8335974649526179" fill="#E2BCA3" d="M 20 34 L 21 34 C 21 34.333 20.917 34.583 20.75 34.75 L 20 35 L 20 34 " stroke-width="1"/>
    <path id="ID0.947163175791502" fill="#DA4256" d="M 22 34 L 21 34 L 21 33 L 22 33 L 22 34 " stroke-width="1"/>
    <path id="ID0.6949845664203167" fill="#DE7E7C" d="M 23 34 L 22 34 L 22 33 L 23 33 L 23 34 " stroke-width="1"/>
    <path id="ID0.05996916629374027" fill="#AC103E" d="M 26 32 L 27 32 L 27 33 L 26 33 L 26 32 " stroke-width="1"/>
    <path id="ID0.301745577249676" fill="#B60132" d="M 25 32 L 26 32 L 26 33 L 25 33 L 25 32 " stroke-width="1"/>
    <path id="ID0.764364056289196" fill="#9B0037" d="M 24 31 C 24.333 31 24.583 31.083 24.75 31.25 C 24.917 31.417 25 31.667 25 32 L 24.25 31.75 L 24 31 " stroke-width="1"/>
    <path id="ID0.1190148894675076" fill="#E09C8E" d="M 23 33 L 24 33 C 24 33.333 23.917 33.583 23.75 33.75 L 23 34 L 23 33 " stroke-width="1"/>
    <path id="ID0.39762413408607244" fill="#DABCA1" d="M 20 41 C 20.333 41 20.583 41.083 20.75 41.25 C 20.917 41.417 21 41.667 21 42 L 20 42 L 20 41 " stroke-width="1"/>
    <path id="ID0.1280170171521604" fill="#4F443A" d="M 19 42 L 18 42 L 18 41 L 19 41 L 19 42 " stroke-width="1"/>
    <path id="ID0.12426343187689781" fill="#9C8774" d="M 20 42 L 19 42 L 19 41 L 20 41 L 20 42 " stroke-width="1"/>
    <path id="ID0.23040155414491892" fill="#080706" d="M 20 42 L 21 42 L 21 43 L 20 43 L 20 42 " stroke-width="1"/>
    <path id="ID0.7274393159896135" fill="#000000" d="M 20 43 L 21 43 L 21 44 L 20 44 L 20 43 " stroke-width="1"/>
    <path id="ID0.6300728600472212" fill="#000000" d="M 30 45 L 29 45 L 25 45 L 25 44 L 29 44 L 30 44 L 30 45 M 19 43 L 20 43 L 20 44 L 19 44 L 19 43 " stroke-width="1"/>
    <path id="ID0.38770819595083594" fill="#443C32" d="M 22 43 L 21 43 L 21 42 L 22 42 L 22 43 " stroke-width="1"/>
    <path id="ID0.6559279169887304" fill="#6C5E50" d="M 22 43 L 22 42 L 23 42 L 23 43 L 22 43 " stroke-width="1"/>
    <path id="ID0.4765424714423716" fill="#D2B59B" d="M 28 43 L 27 43 L 27 42 L 28 42 L 28 43 " stroke-width="1"/>
    <path id="ID0.7552978079766035" fill="#C1A78F" d="M 31 38 L 30.25 37.75 C 30.083 37.583 30 37.333 30 37 L 31 37 L 31 38 M 27 43 L 26 43 L 26 42 L 27 42 L 27 43 " stroke-width="1"/>
    <path id="ID0.7576945438049734" fill="#B49C85" d="M 24 42 L 25 42 L 26 42 L 26 43 L 25 43 L 24 43 L 24 42 M 28 42 L 29 42 L 29 43 L 28 43 L 28 42 " stroke-width="1"/>
    <path id="ID0.8732771188952029" fill="#925D12" d="M 36 38 L 36 37 L 37 37 L 37 38 L 36 38 " stroke-width="1"/>
    <path id="ID0.9917757650837302" fill="#6F6052" d="M 36 38 L 37 38 L 36.75 38.75 L 36 39 L 36 38 " stroke-width="1"/>
    <path id="ID0.4466634150594473" fill="#CD8119" d="M 31 37 L 31 36 C 31.333 36 31.583 36.083 31.75 36.25 L 32 37 L 31 37 M 35 39 L 34 39 L 34 38 L 35 38 L 35 39 " stroke-width="1"/>
    <path id="ID0.23909519566223025" fill="#9E6413" d="M 33 38 L 34 38 L 34 39 L 33 39 L 33 38 " stroke-width="1"/>
    <path id="ID0.529545365832746" fill="#C07A18" d="M 32 38 L 32 37 L 32.75 37.25 L 33 38 L 32 38 " stroke-width="1"/>
    <path id="ID0.3406086736358702" fill="#2B241F" d="M 35 39 L 35 40 L 34 40 L 34 39 L 35 39 " stroke-width="1"/>
    <path id="ID0.114833849016577" fill="#494036" d="M 34 40 L 33 40 L 33 39 L 34 39 L 34 40 " stroke-width="1"/>
    <path id="ID0.2778804418630898" fill="#CFB399" d="M 33 39 L 33 40 L 32.25 39.75 L 32 39 L 33 39 " stroke-width="1"/>
    <path id="ID0.7925821598619223" fill="#C4AA91" d="M 35 42 L 34 42 L 34 41 L 35 41 L 35 42 " stroke-width="1"/>
    <path id="ID0.8120941785164177" fill="#AC957F" d="M 35 39 L 36 39 L 35.75 39.75 L 35 40 L 35 39 " stroke-width="1"/>
    <path id="ID0.33084450382739305" fill="#151210" d="M 36 41 L 37 41 L 37 42 L 36 42 L 36 41 " stroke-width="1"/>
    <path id="ID0.45779517060145736" fill="#2C231A" d="M 33 38 L 33 39 L 32 39 L 32 38 L 33 38 " stroke-width="1"/>
    <path id="ID0.7160679176449776" fill="#392407" d="M 35 38 L 36 38 L 36 39 L 35 39 L 35 38 " stroke-width="1"/>
    <path id="ID0.02685387758538127" fill="#746456" d="M 31 42 L 32 42 L 32 43 L 31 43 L 31 42 M 36 42 L 35 42 L 35 41 L 36 41 L 36 42 " stroke-width="1"/>
    <path id="ID0.20885171880945563" fill="#312718" d="M 31 37 L 30 37 L 30 36 L 31 36 L 31 37 " stroke-width="1"/>
    <path id="ID0.791732715908438" fill="#2A1F15" d="M 32 38 L 31 38 L 31 37 L 32 37 L 32 38 " stroke-width="1"/>
    <path id="ID0.5899466257542372" fill="#CAAE95" d="M 30 37 L 29.25 36.75 L 29 36 L 30 36 L 30 37 " stroke-width="1"/>
    <path id="ID0.5098191145807505" fill="#C7AC93" d="M 32 38 L 32 39 L 31.25 38.75 C 31.083 38.583 31 38.333 31 38 L 32 38 " stroke-width="1"/>
    <path id="ID0.7847936837933958" fill="#877564" d="M 31 43 L 30 43 L 30 42 L 31 42 L 31 43 " stroke-width="1"/>
    <path id="ID0.8465486173518002" fill="#574B40" d="M 33 43 L 32 43 L 32 42 L 33 42 L 33 43 " stroke-width="1"/>
    <path id="ID0.8307997109368443" fill="#A48E7A" d="M 29 42 L 30 42 L 30 43 L 29 43 L 29 42 " stroke-width="1"/>
    <path id="ID0.7657673819921911" fill="#000000" d="M 36 42 L 37 42 L 37 43 L 36 43 L 36 42 M 34 43 L 34 44 L 33 44 L 33 43 L 34 43 " stroke-width="1"/>
    <path id="ID0.5961470296606421" fill="#1D1916" d="M 34 43 L 33 43 L 33 42 L 34 42 L 34 43 " stroke-width="1"/>
  </g>
</svg>