<?xml version="1.0" encoding="utf-8"?><svg xmlns="http://www.w3.org/2000/svg" xmlns:xlink="http://www.w3.org/1999/xlink" xmlns:author="http://www.sothink.com" version="1.1" id="Layer_1" width="17.473970413208008" height="31.040367126464844" xml:space="preserve" viewBox="-0.002499997615814209 -0.24036693572998047 17.473970413208008 31.040367126464844">
<g id="142">
<path style="fill:#000000;fill-opacity:1" d="M 13.35 6.95 Q 10 8.6 8.3 11.15 Q 6.95 13.3 10.95 13.35 Q 18.25 13.95 16.7 24.05 Q 16.5 29.9 9.05 30.3 Q 1.9 30.2 0.5 20.6 Q 0.35 8.2 9.2 2 Q 13 -0.9 15 1.75 Q 18.2 4.05 13.35 6.95 M 6.5 18.95 Q 5.95 19.6 5.95 20.75 Q 5.95 21.85 7.3 23.35 Q 8.65 24.8 10.1 24.7 Q 11.55 24.6 12.1 23.85 Q 12.6 23 12.6 21.75 Q 12.6 20.3 11.05 19.1 Q 9.7 17.95 8.5 17.95 L 7.25 18.05 L 6.5 18.95 " stroke-width="1" fill="undefined"/>
<path style="fill:none;stroke-width:1;stroke-linecap:round;stroke-linejoin:round;stroke-miterlimit:3;stroke:#000000;stroke-opacity:1" d="M 13.35 6.95 Q 10 8.6 8.3 11.15 Q 6.95 13.3 10.95 13.35 Q 18.25 13.95 16.7 24.05 Q 16.5 29.9 9.05 30.3 Q 1.9 30.2 0.5 20.6 Q 0.35 8.2 9.2 2 Q 13 -0.9 15 1.75 Q 18.2 4.05 13.35 6.95 M 6.5 18.95 Q 5.95 19.6 5.95 20.75 Q 5.95 21.85 7.3 23.35 Q 8.65 24.8 10.1 24.7 Q 11.55 24.6 12.1 23.85 Q 12.6 23 12.6 21.75 Q 12.6 20.3 11.05 19.1 Q 9.7 17.95 8.5 17.95 L 7.25 18.05 L 6.5 18.95 " stroke-width="1" fill="undefined"/>
<path style="fill:#FFFEFD;fill-opacity:1" d="M 13.4 6.6 Q 10.1 8.2 8.45 10.7 Q 7.1 12.8 11.05 12.85 Q 18.2 13.45 16.65 23.35 Q 16.45 29.1 9.15 29.5 Q 2.15 29.4 0.8 20 Q 0.65 7.8 9.3 1.75 Q 13.05 -1.1 15 1.5 Q 18.15 3.75 13.4 6.6 M 8.65 17.4 L 7.4 17.5 L 6.65 18.35 Q 6.15 19 6.15 20.1 Q 6.15 21.2 7.45 22.65 Q 8.75 24.1 10.2 24 Q 11.6 23.9 12.15 23.15 Q 12.65 22.35 12.65 21.1 Q 12.65 19.7 11.15 18.5 Q 9.8 17.4 8.65 17.4 " stroke-width="1" fill="undefined"/>
<path style="fill:none;stroke-width:0.5;stroke-linecap:round;stroke-linejoin:round;stroke-miterlimit:3;stroke:#000000;stroke-opacity:1" d="M 13.4 6.6 Q 10.1 8.2 8.45 10.7 Q 7.1 12.8 11.05 12.85 Q 18.2 13.45 16.65 23.35 Q 16.45 29.1 9.15 29.5 Q 2.15 29.4 0.8 20 Q 0.65 7.8 9.3 1.75 Q 13.05 -1.1 15 1.5 Q 18.15 3.75 13.4 6.6 M 8.65 17.4 L 7.4 17.5 L 6.65 18.35 Q 6.15 19 6.15 20.1 Q 6.15 21.2 7.45 22.65 Q 8.75 24.1 10.2 24 Q 11.6 23.9 12.15 23.15 Q 12.65 22.35 12.65 21.1 Q 12.65 19.7 11.15 18.5 Q 9.8 17.4 8.65 17.4 " stroke-width="1" fill="undefined"/>
</g>
</svg>