<?xml version="1.0" encoding="utf-8"?><svg xmlns="http://www.w3.org/2000/svg" xmlns:xlink="http://www.w3.org/1999/xlink" xmlns:author="http://www.sothink.com" version="1.1" id="Layer_1" width="19.99386978149414" height="30.722124099731445" xml:space="preserve" viewBox="0.017241239547729492 -0.2221238613128662 19.99386978149414 30.722124099731445">
<g id="145">
<path style="fill:#000000;fill-opacity:1" d="M 19.5 7.8 Q 19.6 16.25 18.8 20.65 Q 17.25 29.65 10.2 30 L 3.75 29.8 Q 0 29.15 0.6 26 Q 1.5 22.8 5.55 24 L 7.2 24.1 L 7.35 24.1 Q 12.85 24.8 13.6 19.25 Q 14.35 13.65 11.05 14.75 Q 3.05 17.5 1.9 8.9 Q 1.6 2.35 8.4 0.9 Q 15.3 -0.6 18.35 3.7 L 19.25 5.9 L 19.5 7.8 M 11 10.05 Q 12.45 10.05 13.25 9.55 Q 14.15 9 14.15 8.1 Q 14.15 6.75 13.3 6.05 Q 12.5 5.3 10.6 5.55 Q 8.65 5.75 7.95 6.3 Q 7.25 6.85 7.25 8.1 Q 7.25 9.1 8.65 9.65 L 11 10.05 " stroke-width="1" fill="undefined"/>
<path style="fill:none;stroke-width:1;stroke-linecap:round;stroke-linejoin:round;stroke-miterlimit:3;stroke:#000000;stroke-opacity:1" d="M 19.5 7.8 Q 19.6 16.25 18.8 20.65 Q 17.25 29.65 10.2 30 L 3.75 29.8 Q 0 29.15 0.6 26 Q 1.5 22.8 5.55 24 L 7.2 24.1 L 7.35 24.1 Q 12.85 24.8 13.6 19.25 Q 14.35 13.65 11.05 14.75 Q 3.05 17.5 1.9 8.9 Q 1.6 2.35 8.4 0.9 Q 15.3 -0.6 18.35 3.7 L 19.25 5.9 L 19.5 7.8 M 11 10.05 Q 12.45 10.05 13.25 9.55 Q 14.15 9 14.15 8.1 Q 14.15 6.75 13.3 6.05 Q 12.5 5.3 10.6 5.55 Q 8.65 5.75 7.95 6.3 Q 7.25 6.85 7.25 8.1 Q 7.25 9.1 8.65 9.65 L 11 10.05 " stroke-width="1" fill="undefined"/>
<path style="fill:#FFFEFD;fill-opacity:1" d="M 18.95 5.55 L 19.2 7.4 Q 19.3 15.7 18.55 20 Q 17 28.85 10.1 29.2 L 3.8 29 Q 0.1 28.35 0.7 25.25 Q 1.55 22.15 5.55 23.3 L 7.15 23.4 L 7.3 23.4 Q 12.7 24.1 13.45 18.65 Q 14.15 13.15 10.95 14.25 Q 3.1 16.95 1.95 8.5 Q 1.65 2.1 8.35 0.65 Q 15.1 -0.8 18.1 3.4 Q 18.8 4.45 18.95 5.55 M 10.9 9.65 Q 12.3 9.65 13.1 9.15 Q 13.95 8.6 13.95 7.7 Q 13.95 6.4 13.15 5.7 Q 12.35 4.95 10.5 5.2 Q 8.6 5.4 7.9 5.95 Q 7.2 6.5 7.2 7.7 Q 7.2 8.7 8.6 9.25 L 10.9 9.65 " stroke-width="1" fill="undefined"/>
<path style="fill:none;stroke-width:0.5;stroke-linecap:round;stroke-linejoin:round;stroke-miterlimit:3;stroke:#000000;stroke-opacity:1" d="M 18.95 5.55 L 19.2 7.4 Q 19.3 15.7 18.55 20 Q 17 28.85 10.1 29.2 L 3.8 29 Q 0.1 28.35 0.7 25.25 Q 1.55 22.15 5.55 23.3 L 7.15 23.4 L 7.3 23.4 Q 12.7 24.1 13.45 18.65 Q 14.15 13.15 10.95 14.25 Q 3.1 16.95 1.95 8.5 Q 1.65 2.1 8.35 0.65 Q 15.1 -0.8 18.1 3.4 Q 18.8 4.45 18.95 5.55 M 10.9 9.65 Q 12.3 9.65 13.1 9.15 Q 13.95 8.6 13.95 7.7 Q 13.95 6.4 13.15 5.7 Q 12.35 4.95 10.5 5.2 Q 8.6 5.4 7.9 5.95 Q 7.2 6.5 7.2 7.7 Q 7.2 8.7 8.6 9.25 L 10.9 9.65 " stroke-width="1" fill="undefined"/>
</g>
</svg>