<?xml version="1.0" encoding="utf-8"?><svg xmlns="http://www.w3.org/2000/svg" xmlns:xlink="http://www.w3.org/1999/xlink" xmlns:author="http://www.sothink.com" version="1.1" id="Layer_1" width="49" height="46" xml:space="preserve" viewBox="-0.5 -0.5 49 46">
<g id="45">
<path style="fill:#000000;fill-opacity:0.211765" d="M 7 4 L 6 4 L 6 3 L 7 3 L 7 4 " stroke-width="1" fill="undefined"/>
<path style="fill:#000000;fill-opacity:0.588235" d="M 7 4 L 7 5 L 6 5 L 6 4 L 7 4 M 22 44 L 23 44 L 23 45 L 22 45 L 22 44 " stroke-width="1" fill="undefined"/>
<path style="fill:#000000;fill-opacity:0.662745" d="M 6 6 L 6 5 L 7 5 L 7 6 L 6 6 " stroke-width="1" fill="undefined"/>
<path style="fill:#000000;fill-opacity:0.482353" d="M 6 7 L 6 6 L 7 6 L 7 7 L 6 7 " stroke-width="1" fill="undefined"/>
<path style="fill:#000000;fill-opacity:0.556863" d="M 13.25 2.75 L 13 2 L 13.75 2.25 L 14 3 L 13.25 2.75 " stroke-width="1" fill="undefined"/>
<path style="fill:#000000;fill-opacity:0.996078" d="M 7 3 Q 7.5 3 7.75 2.75 Q 8 2.5 8 2 L 9 2 L 10 2 L 11 2 L 12 2 L 13 2 L 13.25 2.75 L 14 3 L 14 4 L 14 5 L 13 5 Q 13 4.5 12.75 4.25 L 12 4 Q 12 3.5 11.75 3.25 L 11 3 L 10 3 L 9 3 L 9 4 L 8 4 L 8 5 L 8 6 L 8 7 L 7 7 L 7 6 L 7 5 L 7 4 L 7 3 M 1 21 Q 1.5 21 1.75 20.75 Q 2 20.5 2 20 L 2 19 L 2 18 L 3 18 L 3 19 L 3 20 L 3 21 L 3 22 L 2 22 L 2 23 L 2 24 L 2 26 L 2 27 L 2 28 L 2 29 L 2.25 29.75 L 3 30 L 3 31 L 3 32 L 3 33 L 2 33 L 2 32 Q 2 31.5 1.75 31.25 Q 1.5 31 1 31 L 1 30 L 1 29 L 1 28 L 1.05 27 L 1 24 L 1 23 L 1 22 L 1 21 M 12 42 L 12 41 L 13 41 L 14 41 L 15 41 L 15.25 41.75 L 16 42 L 17 42 L 18 42 L 19 42 L 19.25 42.75 L 20 43 L 21 43 L 22 43 L 23 43 L 24 43 L 25 43 L 26 43 L 27 43 L 28 43 L 29 43 L 29 44 L 28 44 L 27 44 L 26 44 L 25 44 L 24 44 L 23 44 L 22 44 L 21 44 L 20 44 L 19 44 L 18 44 Q 18 43.5 17.75 43.25 Q 17.5 43 17 43 L 16 43 L 15 43 L 14 43 Q 14 42.5 13.75 42.25 Q 13.5 42 13 42 L 12 42 M 29 1 L 29 2 L 28 2 L 27 2 L 26 2 L 25 2 L 25 3 L 25 4 L 24 4 L 24 5 L 23 5 L 22 5 L 21 5 L 20 5 L 19 5 L 18 5 L 17 5 L 17 4 L 18 4 L 19 4 L 20 4 L 21 4 L 22 4 Q 22.5 4 22.75 3.75 Q 23 3.5 23 3 Q 23.5 3 23.75 2.75 Q 24 2.5 24 2 L 24 1 L 25 1 L 26 1 L 27 1 L 28 1 L 29 1 M 36 7 Q 36 7.5 36.25 7.75 Q 36.5 8 37 8 L 37 9 L 36 9 L 35 9 L 34.75 8.25 L 34 8 L 34 7 L 35 7 L 36 7 M 46 22 Q 46 22.5 46.25 22.75 L 47 23 L 47 24 L 47 25 L 47 26 L 47 27 L 47 28 L 47 29 L 47 30 L 47 31 L 46 31 L 46 32 L 46 33 L 45 33 L 45 32 L 45 31 L 45 30 L 45.75 29.75 L 46 29 L 46 28 L 46 27 L 46 26 L 46 25 L 45.75 24.25 L 45 24 L 45 23 L 45 22 L 45 21 L 45 20 L 46 20 L 46 21 L 46 22 M 31 42 L 32 42 L 32.75 41.75 L 33 41 L 34 41 L 35 41 L 36 41 L 36 42 L 35 42 L 34 42 L 34 43 L 33 43 L 32 43 L 31 43 L 30 43 L 29 43 L 29 42 L 30 42 L 31 42 M 38 40 L 38 39 L 38.75 38.75 L 39 38 L 40 38 L 41 38 L 41 39 L 40 39 L 40 40 L 39 40 L 38 40 " stroke-width="1" fill="undefined"/>
<path style="fill:#000000;fill-opacity:0.352941" d="M 12 2 L 12 1 L 12.75 1.25 Q 13 1.5 13 2 L 12 2 " stroke-width="1" fill="undefined"/>
<path style="fill:#000000;fill-opacity:0.803922" d="M 11 2 L 11 1 L 12 1 L 12 2 L 11 2 " stroke-width="1" fill="undefined"/>
<path style="fill:#000000;fill-opacity:0.32549" d="M 14 4 L 14 3 L 14.75 3.25 Q 15 3.5 15 4 L 14 4 " stroke-width="1" fill="undefined"/>
<path style="fill:#000000;fill-opacity:0.407843" d="M 7.75 2.75 Q 7.5 3 7 3 L 7 2 L 8 2 Q 8 2.5 7.75 2.75 " stroke-width="1" fill="undefined"/>
<path style="fill:#000000;fill-opacity:0.27451" d="M 9 2 L 8 2 L 8 1 L 9 1 L 9 2 " stroke-width="1" fill="undefined"/>
<path style="fill:#000000;fill-opacity:0.905882" d="M 10 1 L 11 1 L 11 2 L 10 2 L 10 1 " stroke-width="1" fill="undefined"/>
<path style="fill:#5FBF3D;fill-opacity:1" d="M 11 4 L 10 4 L 10 3 L 11 3 L 11 4 " stroke-width="1" fill="undefined"/>
<path style="fill:#000000;fill-opacity:0.760784" d="M 10 2 L 9 2 L 9 1 L 10 1 L 10 2 M 38 9 L 37 9 L 37 8 L 38 8 L 38 9 " stroke-width="1" fill="undefined"/>
<path style="fill:#2E5A1F;fill-opacity:1" d="M 9 4 L 9 3 L 10 3 L 10 4 L 9 4 " stroke-width="1" fill="undefined"/>
<path style="fill:#275C1A;fill-opacity:1" d="M 11 5 L 10 5 L 10 4 L 11 4 L 11 5 " stroke-width="1" fill="undefined"/>
<path style="fill:#46922E;fill-opacity:1" d="M 10 5 L 10 6 L 9 6 L 9 5 L 10 5 " stroke-width="1" fill="undefined"/>
<path style="fill:#4D9532;fill-opacity:1" d="M 8 6 L 8 5 L 9 5 L 9 6 L 8 6 " stroke-width="1" fill="undefined"/>
<path style="fill:#0C2B0A;fill-opacity:1" d="M 11 5 L 12 5 L 12 6 L 12 7 L 11 7 L 10.75 6.25 L 10 6 L 10 5 L 11 5 " stroke-width="1" fill="undefined"/>
<path style="fill:#153A0F;fill-opacity:1" d="M 10 7 L 10 6 L 10.75 6.25 L 11 7 L 10 7 " stroke-width="1" fill="undefined"/>
<path style="fill:#66CB41;fill-opacity:1" d="M 10 4 L 10 5 L 9 5 L 9 4 L 10 4 " stroke-width="1" fill="undefined"/>
<path style="fill:#4D9D33;fill-opacity:1" d="M 10 7 L 9 7 L 9 6 L 10 6 L 10 7 " stroke-width="1" fill="undefined"/>
<path style="fill:#2D591E;fill-opacity:1" d="M 8 5 L 8 4 L 9 4 L 9 5 L 8 5 " stroke-width="1" fill="undefined"/>
<path style="fill:#163F0F;fill-opacity:1" d="M 12 4 L 12 5 L 11 5 L 11 4 L 12 4 " stroke-width="1" fill="undefined"/>
<path style="fill:#000000;fill-opacity:0.0666667" d="M 7 9 L 7 8 L 8 8 L 8 9 L 7 9 " stroke-width="1" fill="undefined"/>
<path style="fill:#000000;fill-opacity:0.513725" d="M 7 10 L 7 9 L 8 9 Q 8 9.5 7.75 9.75 Q 7.5 10 7 10 " stroke-width="1" fill="undefined"/>
<path style="fill:#000000;fill-opacity:0.815686" d="M 14 5 L 14 4 L 15 4 L 15 5 L 14 5 M 7 8 L 7 7 L 8 7 L 8 8 L 7 8 " stroke-width="1" fill="undefined"/>
<path style="fill:#000000;fill-opacity:0.0784314" d="M 7 7 L 7 8 L 6.25 7.75 L 6 7 L 7 7 " stroke-width="1" fill="undefined"/>
<path style="fill:#000000;fill-opacity:1" d="M 15 5 L 16 5 L 17 5 L 17 6 L 16 6 L 15 6 L 14 6 L 14 5 L 15 5 M 9 7 L 9 8 L 8 8 L 8 7 L 9 7 M 5 15 L 5 16 L 4 16 L 4 17 L 4 18 L 3 18 L 3 17 L 3 16 L 4 16 L 4 15 L 4 14 L 5 14 L 5 15 M 9 24 L 9 25 L 8 25 L 8 24 L 9 24 M 6 38 L 6 37 L 5 37 L 5 36 L 4 36 L 4 35 L 3 35 L 3 34 L 3 33 L 4 33 L 4 34 L 4 35 L 5 35 L 5 36 L 6 36 L 6 37 L 7 37 L 7 38 L 8 38 L 9 38 L 9.25 38.75 L 10 39 L 10 40 L 9 40 L 8 40 Q 8 39.5 7.75 39.25 Q 7.5 39 7 39 L 7 38 L 6 38 M 10 40 L 11 40 L 12 40 L 12 41 L 11 41 L 10 41 L 10 40 M 33 6 L 34 6 L 34 7 L 33 7 L 32 7 L 32 6 L 31 6 L 30 6 L 30 5 L 29 5 L 29 4 L 29 3 L 29 2 L 30 2 L 30 3 L 30 4 L 30 5 L 31 5 M 31 5 L 32 5 L 32 6 L 33 6 M 39 11 L 38 11 L 38 10 L 37 10 L 37 9 L 38 9 L 38 10 L 39 10 M 39 10 L 39 11 L 40 11 L 40 12 L 41 12 L 41 13 L 40 13 L 40 12 L 39 12 L 39 11 M 45 35 L 44 35 L 44 36 L 43 36 L 43 37 L 42 37 L 42 36 L 43 36 L 43 35 L 43 34 L 43.75 33.75 L 44 33 L 45 33 L 45 34 L 45 35 M 38 40 L 38 41 L 37 41 L 36 41 L 36 40 L 37 40 L 38 40 M 41 37 L 42 37 L 42 38 L 41 38 L 41 37 " stroke-width="1" fill="undefined"/>
<path style="fill:#000000;fill-opacity:0.819608" d="M 8.75 8.75 Q 8.5 9 8 9 L 8 8 L 9 8 Q 9 8.5 8.75 8.75 " stroke-width="1" fill="undefined"/>
<path style="fill:#5CB73D;fill-opacity:1" d="M 11.75 7.75 Q 11.5 8 11 8 L 11 7 L 12 7 Q 12 7.5 11.75 7.75 " stroke-width="1" fill="undefined"/>
<path style="fill:#61C03F;fill-opacity:1" d="M 10 8 L 10 7 L 11 7 L 11 8 L 10 8 " stroke-width="1" fill="undefined"/>
<path style="fill:#172D0F;fill-opacity:1" d="M 13 6 L 13 5 L 14 5 L 14 6 L 13 6 M 10 8 L 9 8 L 9 7 L 10 7 L 10 8 " stroke-width="1" fill="undefined"/>
<path style="fill:#54B338;fill-opacity:1" d="M 10 9 L 10 8 L 11 8 Q 11 8.5 10.75 8.75 Q 10.5 9 10 9 " stroke-width="1" fill="undefined"/>
<path style="fill:#6BE147;fill-opacity:1" d="M 6 15 L 6 14 Q 6.5 14 6.75 13.75 Q 7 13.5 7 13 Q 7.5 13 7.75 12.75 Q 8 12.5 8 12 Q 8.5 12 8.75 11.75 Q 9 11.5 9 11 Q 9.5 11 9.75 10.75 Q 10 10.5 10 10 L 10 9 Q 10.5 9 10.75 8.75 Q 11 8.5 11 8 Q 11.5 8 11.75 7.75 Q 12 7.5 12 7 Q 12.5 7 12.75 6.75 Q 13 6.5 13 6 L 14 6 L 14.25 6.75 Q 14.5 7 15 7 L 16 7 Q 16.5 7 16.75 6.75 Q 17 6.5 17 6 L 18 6 L 19 6 L 20 6 L 21 6 L 22 6 L 23 6 Q 23.5 6 23.75 5.75 Q 24 5.5 24 5 L 24.75 4.75 L 25 4 L 26 4 Q 26 4.5 26.25 4.75 Q 26.5 5 27 5 L 28 5 L 28 6 L 28 7 Q 28 7.5 28.25 7.75 Q 28.5 8 29 8 L 30 8 L 31 8 Q 31 8.5 31.25 8.75 Q 31.5 9 32 9 L 33 9 Q 33 9.5 33.25 9.75 Q 33.5 10 34 10 L 35 10 Q 35 10.5 35.25 10.75 Q 35.5 11 36 11 Q 36 11.5 36.25 11.75 Q 36.5 12 37 12 Q 37 12.5 37.25 12.75 Q 37.5 13 38 13 L 39 13 L 39 14 L 38 14 L 38 15 Q 38 15.5 38.25 15.75 Q 38.5 16 39 16 L 40 16 Q 40 16.5 40.25 16.75 Q 40.5 17 41 17 L 42 17 Q 42 17.5 42.25 17.75 Q 42.5 18 43 18 L 43 19 L 43 20 L 42 20 L 41 20 L 40 20 L 39 20 L 38 20 L 38 21 L 37 21 L 37 22 L 36 22 L 36 23 L 35 23 L 35 24 L 34 24 L 34 23 L 33.75 22.25 L 33 22 L 32.75 21.25 L 32 21 L 31.75 20.25 L 31 20 L 30.75 19.25 L 30 19 L 29 19 L 28.75 18.25 L 28 18 L 27 18 L 26 18 L 25 18 L 23 18 L 22 18 L 21 18 L 20 18 L 20 19 L 19 19 L 18 19 L 18 20 L 17 20 L 17 21 L 16 21 L 16 22 L 15 22 L 15 23 L 15 24 L 14 24 Q 14 23.5 13.75 23.25 Q 13.5 23 13 23 L 13 22 Q 13 21.5 12.75 21.25 L 12 21 L 11 21 L 10.75 20.25 L 10 20 L 9 20 L 8 20 L 8 21 L 7 21 L 6 21 L 6 22 L 5 22 L 5 23 L 4 23 Q 4 22.5 3.75 22.25 L 3 22 L 3 21 Q 3.5 21 3.75 20.75 Q 4 20.5 4 20 L 4 19 L 4 18 Q 4.5 18 4.75 17.75 Q 5 17.5 5 17 L 5 16 L 6 16 L 6.25 16.75 L 7 17 L 8 17 L 9 17 L 10 17 Q 10.5 17 10.75 16.75 Q 11 16.5 11 16 L 10.75 15.25 L 10 15 Q 10 14.5 9.8 14.4 L 8 14 L 8 15 L 7 15 L 6 15 " stroke-width="1" fill="undefined"/>
<path style="fill:#000000;fill-opacity:0.992157" d="M 10 9 L 10 10 L 9 10 L 9 11 L 8 11 L 8 12 L 7 12 L 7 13 L 6 13 L 6 14 L 5 14 L 5 13 L 5 12 Q 5.5 12 5.75 11.75 Q 6 11.5 6 11 Q 6.5 11 6.75 10.75 Q 7 10.5 7 10 Q 7.5 10 7.75 9.75 Q 8 9.5 8 9 Q 8.5 9 8.75 8.75 Q 9 8.5 9 8 L 10 8 L 10 9 M 43 17 L 43 16 L 44 16 Q 44 16.5 44.25 16.75 Q 44.5 17 45 17 L 45 18 L 45 19 L 45 20 L 44 20 L 44 19 L 43.75 18.25 L 43 18 L 43 17 " stroke-width="1" fill="undefined"/>
<path style="fill:#1A3211;fill-opacity:1" d="M 8 6 L 9 6 L 9 7 L 8 7 L 8 6 " stroke-width="1" fill="undefined"/>
<path style="fill:#000000;fill-opacity:0.572549" d="M 16 5 L 15 5 L 15 4 L 16 4 L 16 5 " stroke-width="1" fill="undefined"/>
<path style="fill:#3D8029;fill-opacity:1" d="M 16 7 L 15 7 L 15 6 L 16 6 L 16 7 " stroke-width="1" fill="undefined"/>
<path style="fill:#57B73A;fill-opacity:1" d="M 15 7 Q 14.5 7 14.25 6.75 L 14 6 L 15 6 L 15 7 " stroke-width="1" fill="undefined"/>
<path style="fill:#000000;fill-opacity:0.894118" d="M 17 5 L 16 5 L 16 4 L 17 4 L 17 5 M 2 18 L 2 17 L 3 17 L 3 18 L 2 18 M 40 12 L 40 11 L 41 11 L 41 12 L 40 12 " stroke-width="1" fill="undefined"/>
<path style="fill:#2D6A1E;fill-opacity:1" d="M 13 6 L 12 6 L 12 5 L 13 5 L 13 6 " stroke-width="1" fill="undefined"/>
<path style="fill:#45902C;fill-opacity:1" d="M 13 6 Q 13 6.5 12.75 6.75 Q 12.5 7 12 7 L 12 6 L 13 6 " stroke-width="1" fill="undefined"/>
<path style="fill:#2D5D1E;fill-opacity:1" d="M 12 5 L 12 4 L 12.75 4.25 Q 13 4.5 13 5 L 12 5 " stroke-width="1" fill="undefined"/>
<path style="fill:#57B53A;fill-opacity:1" d="M 16 7 L 16 6 L 17 6 Q 17 6.5 16.75 6.75 Q 16.5 7 16 7 " stroke-width="1" fill="undefined"/>
<path style="fill:#3E7729;fill-opacity:1" d="M 11 4 L 11 3 L 11.75 3.25 Q 12 3.5 12 4 L 11 4 " stroke-width="1" fill="undefined"/>
<path style="fill:#4DA034;fill-opacity:1" d="M 8.75 11.75 Q 8.5 12 8 12 L 8 11 L 9 11 Q 9 11.5 8.75 11.75 " stroke-width="1" fill="undefined"/>
<path style="fill:#2C5A1E;fill-opacity:1" d="M 9.75 10.75 Q 9.5 11 9 11 L 9 10 L 10 10 Q 10 10.5 9.75 10.75 " stroke-width="1" fill="undefined"/>
<path style="fill:#000000;fill-opacity:0.478431" d="M 1 24 L 1.05 27 L 1 28 L 0 28 L 0.05 27 L 0 24 L 1 24 M 6 11 L 6 10 L 7 10 Q 7 10.5 6.75 10.75 Q 6.5 11 6 11 " stroke-width="1" fill="undefined"/>
<path style="fill:#3D802A;fill-opacity:1" d="M 7.75 12.75 Q 7.5 13 7 13 L 7 12 L 8 12 Q 8 12.5 7.75 12.75 " stroke-width="1" fill="undefined"/>
<path style="fill:#29551C;fill-opacity:1" d="M 6.75 13.75 Q 6.5 14 6 14 L 6 13 L 7 13 Q 7 13.5 6.75 13.75 " stroke-width="1" fill="undefined"/>
<path style="fill:#3C8620;fill-opacity:1" d="M 7 15 L 8 15 L 8 16 L 8 17 L 7 17 L 7 16 L 7 15 " stroke-width="1" fill="undefined"/>
<path style="fill:#5FCB3E;fill-opacity:1" d="M 9 15 L 8 15 L 8 14 L 9.8 14.4 Q 10 14.5 10 15 L 9 15 M 7 15 L 7 16 L 6 16 L 6 15 L 7 15 " stroke-width="1" fill="undefined"/>
<path style="fill:#2F7017;fill-opacity:1" d="M 9 15 L 10 15 L 10 16 L 9 16 L 9 15 " stroke-width="1" fill="undefined"/>
<path style="fill:#4CA62E;fill-opacity:1" d="M 10 16 L 10 15 L 10.75 15.25 L 11 16 L 10 16 " stroke-width="1" fill="undefined"/>
<path style="fill:#286211;fill-opacity:1" d="M 8 15 L 9 15 L 9 16 L 8 16 L 8 15 " stroke-width="1" fill="undefined"/>
<path style="fill:#67D944;fill-opacity:1" d="M 10 16 L 11 16 Q 11 16.5 10.75 16.75 Q 10.5 17 10 17 L 10 16 " stroke-width="1" fill="undefined"/>
<path style="fill:#63D241;fill-opacity:1" d="M 10 16 L 10 17 L 9 17 L 9 16 L 10 16 " stroke-width="1" fill="undefined"/>
<path style="fill:#58BB37;fill-opacity:1" d="M 9 16 L 9 17 L 8 17 L 8 16 L 9 16 " stroke-width="1" fill="undefined"/>
<path style="fill:#38801E;fill-opacity:1" d="M 7 16 L 7 17 L 6.25 16.75 L 6 16 L 7 16 " stroke-width="1" fill="undefined"/>
<path style="fill:#60C23C;fill-opacity:1" d="M 8 21 L 8 20 L 9 20 L 9 21 L 8 21 " stroke-width="1" fill="undefined"/>
<path style="fill:#5D7645;fill-opacity:1" d="M 8 22 L 7 22 L 7 21 L 8 21 L 8 22 " stroke-width="1" fill="undefined"/>
<path style="fill:#5CB636;fill-opacity:1" d="M 9 20 L 10 20 L 10 21 L 9 21 L 9 20 " stroke-width="1" fill="undefined"/>
<path style="fill:#825689;fill-opacity:1" d="M 9 22 L 9 21 L 10 21 L 10 22 L 9 22 " stroke-width="1" fill="undefined"/>
<path style="fill:#62C73D;fill-opacity:1" d="M 10 20 L 10.75 20.25 L 11 21 L 10 21 L 10 20 " stroke-width="1" fill="undefined"/>
<path style="fill:#755C72;fill-opacity:1" d="M 10 22 L 10 21 L 11 21 L 11 22 L 10 22 " stroke-width="1" fill="undefined"/>
<path style="fill:#795B79;fill-opacity:1" d="M 8 22 L 8 21 L 9 21 L 9 22 L 8 22 " stroke-width="1" fill="undefined"/>
<path style="fill:#68D743;fill-opacity:1" d="M 12 22 L 12 21 L 12.75 21.25 Q 13 21.5 13 22 L 12 22 " stroke-width="1" fill="undefined"/>
<path style="fill:#5D8441;fill-opacity:1" d="M 12 22 L 11 22 L 11 21 L 12 21 L 12 22 " stroke-width="1" fill="undefined"/>
<path style="fill:#000000;fill-opacity:0.164706" d="M 4 13 L 4 12 L 5 12 L 5 13 L 4 13 " stroke-width="1" fill="undefined"/>
<path style="fill:#000000;fill-opacity:0.333333" d="M 5 12 L 5 11 L 6 11 Q 6 11.5 5.75 11.75 Q 5.5 12 5 12 " stroke-width="1" fill="undefined"/>
<path style="fill:#000000;fill-opacity:0.447059" d="M 20 44 L 21 44 L 21 45 L 20 45 L 20 44 M 3 15 L 3 14 L 4 14 L 4 15 L 3 15 " stroke-width="1" fill="undefined"/>
<path style="fill:#000000;fill-opacity:0.0980392" d="M 3 16 L 2 16 L 2 15 L 3 15 L 3 16 " stroke-width="1" fill="undefined"/>
<path style="fill:#000000;fill-opacity:0.807843" d="M 4 14 L 4 13 L 5 13 L 5 14 L 4 14 " stroke-width="1" fill="undefined"/>
<path style="fill:#17300F;fill-opacity:1" d="M 5 14 L 6 14 L 6 15 L 5 15 L 5 14 " stroke-width="1" fill="undefined"/>
<path style="fill:#4A9A31;fill-opacity:1" d="M 5 15 L 6 15 L 6 16 L 5 16 L 5 15 " stroke-width="1" fill="undefined"/>
<path style="fill:#000000;fill-opacity:0.94902" d="M 3 15 L 4 15 L 4 16 L 3 16 L 3 15 " stroke-width="1" fill="undefined"/>
<path style="fill:#224917;fill-opacity:1" d="M 4 17 L 4 16 L 5 16 L 5 17 L 4 17 " stroke-width="1" fill="undefined"/>
<path style="fill:#50A735;fill-opacity:1" d="M 4 17 L 5 17 Q 5 17.5 4.75 17.75 Q 4.5 18 4 18 L 4 17 " stroke-width="1" fill="undefined"/>
<path style="fill:#000000;fill-opacity:0.501961" d="M 3 16 L 3 17 L 2 17 L 2 16 L 3 16 " stroke-width="1" fill="undefined"/>
<path style="fill:#000000;fill-opacity:0.0470588" d="M 10 41 L 10 42 L 9.25 41.75 L 9 41 L 10 41 M 2 34 L 1.25 33.75 L 1 33 L 2 33 L 2 34 M 2 18 L 1 18 L 1 17 L 2 17 L 2 18 " stroke-width="1" fill="undefined"/>
<path style="fill:#000000;fill-opacity:0.298039" d="M 2 19 L 1 19 L 1 18 L 2 18 L 2 19 " stroke-width="1" fill="undefined"/>
<path style="fill:#387725;fill-opacity:1" d="M 3 20 L 3 19 L 4 19 L 4 20 L 3 20 " stroke-width="1" fill="undefined"/>
<path style="fill:#000000;fill-opacity:0.603922" d="M 27 0 L 28 0 L 28 1 L 27 1 L 27 0 M 2 19 L 2 20 L 1 20 L 1 19 L 2 19 " stroke-width="1" fill="undefined"/>
<path style="fill:#000000;fill-opacity:0.854902" d="M 1.75 20.75 Q 1.5 21 1 21 L 1 20 L 2 20 Q 2 20.5 1.75 20.75 " stroke-width="1" fill="undefined"/>
<path style="fill:#5BBD3D;fill-opacity:1" d="M 3 20 L 4 20 Q 4 20.5 3.75 20.75 Q 3.5 21 3 21 L 3 20 " stroke-width="1" fill="undefined"/>
<path style="fill:#1C3D12;fill-opacity:1" d="M 3 19 L 3 18 L 4 18 L 4 19 L 3 19 " stroke-width="1" fill="undefined"/>
<path style="fill:#000000;fill-opacity:0.145098" d="M 1 22 L 0 22 L 0 21 L 1 21 L 1 22 " stroke-width="1" fill="undefined"/>
<path style="fill:#646656;fill-opacity:1" d="M 7 23 L 6 23 L 6 22 L 7 22 L 7 23 " stroke-width="1" fill="undefined"/>
<path style="fill:#55B532;fill-opacity:1" d="M 5 23 L 5 22 L 6 22 L 6 23 L 5 23 " stroke-width="1" fill="undefined"/>
<path style="fill:#597A3F;fill-opacity:1" d="M 6 24 L 5 24 L 5 23 L 6 23 L 6 24 " stroke-width="1" fill="undefined"/>
<path style="fill:#6DE349;fill-opacity:1" d="M 4.05 27 L 4 28 L 4 29 L 4 30 L 3 30 L 3 29 L 3 28 L 3 27 L 3 26 L 3 24 L 3 23 L 3 22 L 3.75 22.25 Q 4 22.5 4 23 L 4 24 L 4.05 27 M 43 21 L 43 20 L 44 20 L 44 21 L 43 21 " stroke-width="1" fill="undefined"/>
<path style="fill:#F0F0F0;fill-opacity:1" d="M 7 24 L 7 25 L 6 25 L 6 24 L 7 24 " stroke-width="1" fill="undefined"/>
<path style="fill:#A7BB95;fill-opacity:1" d="M 6 24 L 6 25 L 5 25 L 5 24 L 6 24 " stroke-width="1" fill="undefined"/>
<path style="fill:#BBCDAC;fill-opacity:1" d="M 5 25 L 6 25 L 6 26 L 5 26 L 5 25 " stroke-width="1" fill="undefined"/>
<path style="fill:#45B228;fill-opacity:1" d="M 5 26 L 5 27 L 5 28 L 4 28 L 4.05 27 L 4 24 L 5 24 L 5 25 L 5 26 " stroke-width="1" fill="undefined"/>
<path style="fill:#5BC83C;fill-opacity:1" d="M 4 24 L 4 23 L 5 23 L 5 24 L 4 24 " stroke-width="1" fill="undefined"/>
<path style="fill:#C5A8CE;fill-opacity:1" d="M 7 24 L 6 24 L 6 23 L 7 23 L 7 24 " stroke-width="1" fill="undefined"/>
<path style="fill:#1B3911;fill-opacity:1" d="M 2 23 L 2 22 L 3 22 L 3 23 L 2 23 " stroke-width="1" fill="undefined"/>
<path style="fill:#000000;fill-opacity:0.282353" d="M 45 34 L 46 34 L 45.75 34.75 L 45 35 L 45 34 M 1 22 L 1 23 L 0 23 L 0 22 L 1 22 " stroke-width="1" fill="undefined"/>
<path style="fill:#285719;fill-opacity:1" d="M 2 24 L 2 23 L 3 23 L 3 24 L 2 24 " stroke-width="1" fill="undefined"/>
<path style="fill:#2E661E;fill-opacity:1" d="M 2 27 L 2 26 L 2 24 L 3 24 L 3 26 L 3 27 L 2 27 " stroke-width="1" fill="undefined"/>
<path style="fill:#000000;fill-opacity:0.411765" d="M 12 42 L 13 42 L 13 43 L 12 43 L 12 42 M 1 23 L 1 24 L 0 24 L 0 23 L 1 23 " stroke-width="1" fill="undefined"/>
<path style="fill:#2B5D1B;fill-opacity:1" d="M 3 27 L 3 28 L 2 28 L 2 27 L 3 27 " stroke-width="1" fill="undefined"/>
<path style="fill:#1F4513;fill-opacity:1" d="M 2 29 L 2 28 L 3 28 L 3 29 L 2 29 " stroke-width="1" fill="undefined"/>
<path style="fill:#889079;fill-opacity:1" d="M 5 26 L 6 26 L 6 27 L 5 27 L 5 26 " stroke-width="1" fill="undefined"/>
<path style="fill:#507131;fill-opacity:1" d="M 6 28 L 5 28 L 5 27 L 6 27 L 6 28 " stroke-width="1" fill="undefined"/>
<path style="fill:#459A21;fill-opacity:1" d="M 6 29 L 5 29 L 5 28 L 6 28 L 6 29 " stroke-width="1" fill="undefined"/>
<path style="fill:#8A5399;fill-opacity:1" d="M 7 28 L 6 28 L 6 27 L 7 27 L 7 28 " stroke-width="1" fill="undefined"/>
<path style="fill:#4EB730;fill-opacity:1" d="M 4 29 L 4 28 L 5 28 L 5 29 L 4 29 " stroke-width="1" fill="undefined"/>
<path style="fill:#D1B3DA;fill-opacity:1" d="M 7 27 L 6 27 L 6 26 L 7 26 L 7 27 " stroke-width="1" fill="undefined"/>
<path style="fill:#FCFCFC;fill-opacity:1" d="M 7 26 L 6 26 L 6 25 L 7 25 L 7 26 " stroke-width="1" fill="undefined"/>
<path style="fill:#000000;fill-opacity:0.243137" d="M 1 29 L 1 30 L 0 30 L 0 29 L 1 29 " stroke-width="1" fill="undefined"/>
<path style="fill:#000000;fill-opacity:0.109804" d="M 41 12 L 41 11 L 41.75 11.25 L 42 12 L 41 12 M 1 30 L 1 31 L 0.25 30.75 L 0 30 L 1 30 " stroke-width="1" fill="undefined"/>
<path style="fill:#49B62B;fill-opacity:1" d="M 5 29 L 6 29 L 6 30 L 5 30 L 5 29 " stroke-width="1" fill="undefined"/>
<path style="fill:#6CE248;fill-opacity:1" d="M 5 30 L 5.25 30.75 L 6 31 L 7 31 L 9 31 L 10 31 L 10.75 30.75 L 11 30 L 12 30 L 12.75 29.75 Q 13 29.5 13 29 L 14 29 L 14.25 29.75 L 15 30 L 15.25 30.75 L 16 31 L 16.25 31.75 L 17 32 L 17.25 32.75 L 18 33 L 18 34 L 18.25 34.75 L 19 35 L 19.25 35.75 L 20 36 L 20.25 36.75 L 21 37 L 22 37 L 23 37 L 24 37 L 25 37 L 26 37 L 27 37 L 27.75 36.75 L 28 36 L 28.75 35.75 L 29 35 L 30 35 L 31 35 L 31.75 34.75 L 32 34 L 33 34 L 33.75 33.75 L 34 33 L 34 32 L 34.75 31.75 L 35 31 L 35 30 L 36 30 Q 36 30.5 36.25 30.75 L 37 31 L 38 31 L 39 31 L 40 31 L 41 31 L 41.75 30.75 L 42 30 L 42.75 29.75 L 43 29 L 43.75 28.75 L 44 28 L 45 28 L 45 29 L 45 30 L 44 30 L 44 31 L 44 32 L 44 33 L 43 33 L 43 34 L 42 34 L 42 35 L 41 35 L 41 36 L 40 36 L 40 37 L 39 37 L 39 38 L 38 38 L 37 38 L 37 39 L 36 39 L 35 39 L 35 40 L 34 40 L 33 40 L 32 40 L 32 41 L 31 41 L 30 41 L 29 41 L 28 41 L 27 41 L 26 41 L 26 42 L 25 42 L 24 42 L 23 42 L 22 42 L 21 42 Q 21 41.5 20.8 41.4 L 19 41 L 18 41 L 17 41 L 16 41 Q 16 40.5 15.75 40.25 Q 15.5 40 15 40 L 14 40 L 13 40 Q 13 39.5 12.75 39.25 Q 12.5 39 12 39 L 11 39 Q 11 38.5 10.75 38.25 Q 10.5 38 10 38 L 9 38 Q 9 37.5 8.75 37.25 Q 8.5 37 8 37 Q 8 36.5 7.75 36.25 Q 7.5 36 7 36 Q 7 35.5 6.75 35.25 Q 6.5 35 6 35 Q 6 34.5 5.75 34.25 Q 5.5 34 5 34 L 5 33 Q 5 32.5 4.75 32.25 Q 4.5 32 4 32 L 4 31 L 4 30 L 5 30 " stroke-width="1" fill="undefined"/>
<path style="fill:#63D240;fill-opacity:1" d="M 3 31 L 3 30 L 4 30 L 4 31 L 3 31 " stroke-width="1" fill="undefined"/>
<path style="fill:#66D943;fill-opacity:1" d="M 42 30 L 41.75 30.75 L 41 31 L 41 30 L 42 30 M 6 30 L 6 31 L 5.25 30.75 L 5 30 L 6 30 " stroke-width="1" fill="undefined"/>
<path style="fill:#4EB82F;fill-opacity:1" d="M 7 30 L 7 31 L 6 31 L 6 30 L 7 30 " stroke-width="1" fill="undefined"/>
<path style="fill:#66D843;fill-opacity:1" d="M 5 30 L 4 30 L 4 29 L 5 29 L 5 30 " stroke-width="1" fill="undefined"/>
<path style="fill:#44941F;fill-opacity:1" d="M 6 30 L 6 29 L 7 29 L 7 30 L 6 30 " stroke-width="1" fill="undefined"/>
<path style="fill:#142D0C;fill-opacity:1" d="M 3 29 L 3 30 L 2.25 29.75 L 2 29 L 3 29 " stroke-width="1" fill="undefined"/>
<path style="fill:#000000;fill-opacity:0.72549" d="M 1 32 L 1 31 Q 1.5 31 1.75 31.25 Q 2 31.5 2 32 L 1 32 " stroke-width="1" fill="undefined"/>
<path style="fill:#000000;fill-opacity:0.376471" d="M 35 42 L 36 42 L 36 43 L 35 43 L 35 42 M 1 33 L 1 32 L 2 32 L 2 33 L 1 33 " stroke-width="1" fill="undefined"/>
<path style="fill:#000000;fill-opacity:0.870588" d="M 3 34 L 2 34 L 2 33 L 3 33 L 3 34 M 38 10 L 38 9 L 39 9 L 39 10 L 38 10 " stroke-width="1" fill="undefined"/>
<path style="fill:#000000;fill-opacity:0.34902" d="M 23 2 L 23 1 L 24 1 L 24 2 L 23 2 M 3 35 L 2.25 34.75 L 2 34 L 3 34 L 3 35 M 1 28 L 1 29 L 0 29 L 0 28 L 1 28 " stroke-width="1" fill="undefined"/>
<path style="fill:#15330B;fill-opacity:1" d="M 4 32 L 4 33 L 3 33 L 3 32 L 4 32 " stroke-width="1" fill="undefined"/>
<path style="fill:#68DC45;fill-opacity:1" d="M 4 33 L 4 32 Q 4.5 32 4.75 32.25 Q 5 32.5 5 33 L 4 33 M 36 30 L 35 30 L 35 29 L 36 29 L 36 30 " stroke-width="1" fill="undefined"/>
<path style="fill:#30731C;fill-opacity:1" d="M 5 33 L 5 34 L 4 34 L 4 33 L 5 33 " stroke-width="1" fill="undefined"/>
<path style="fill:#040901;fill-opacity:1" d="M 4 35 L 4 34 L 5 34 L 5 35 L 4 35 " stroke-width="1" fill="undefined"/>
<path style="fill:#50B533;fill-opacity:1" d="M 5 35 L 5 34 Q 5.5 34 5.75 34.25 Q 6 34.5 6 35 L 5 35 " stroke-width="1" fill="undefined"/>
<path style="fill:#357C20;fill-opacity:1" d="M 4 31 L 4 32 L 3 32 L 3 31 L 4 31 " stroke-width="1" fill="undefined"/>
<path style="fill:#5A6B42;fill-opacity:1" d="M 7 29 L 6 29 L 6 28 L 7 28 L 7 29 " stroke-width="1" fill="undefined"/>
<path style="fill:#6DB104;fill-opacity:1" d="M 17 23 L 16 23 L 16 22 L 17 22 L 17 23 " stroke-width="1" fill="undefined"/>
<path style="fill:#63C831;fill-opacity:1" d="M 16 23 L 15 23 L 15 22 L 16 22 L 16 23 " stroke-width="1" fill="undefined"/>
<path style="fill:#5CA40C;fill-opacity:1" d="M 16 23 L 16 24 L 15 24 L 15 23 L 16 23 " stroke-width="1" fill="undefined"/>
<path style="fill:#5FBD29;fill-opacity:1" d="M 15 25 L 14 25 L 14 24 L 15 24 L 15 25 " stroke-width="1" fill="undefined"/>
<path style="fill:#5D7744;fill-opacity:1" d="M 13 25 L 13 24 L 14 24 L 14 25 L 13 25 " stroke-width="1" fill="undefined"/>
<path style="fill:#A3E800;fill-opacity:1" d="M 16 25 L 16 24 L 16.75 23.75 L 17 23 L 17 22 Q 17.5 22 17.75 21.75 Q 18 21.5 18 21 L 19 21 Q 19.5 21 19.75 20.75 Q 20 20.5 20 20 L 21 20 Q 21.5 20 21.75 19.75 Q 22 19.5 22 19 L 23 19 L 24 19 L 25 19 Q 25 20 25.4 20.8 Q 25.5 21 26 21 L 27 21 Q 27 21.5 27.25 21.75 Q 27.5 22 28 22 L 29 22 L 29.25 22.75 L 30 23 Q 30 23.5 30.25 23.75 L 31 24 Q 31 24.5 31.25 24.75 L 32 25 L 32 26 L 32 27 Q 32.5 27.5 33.1 27.8 L 34 28 L 34 29 L 34 30 L 34 31 L 33 31 L 33 32 L 32 32 L 31 32 L 30 32 L 30 33 L 29 33 L 28 33 L 27 33 L 26 33 L 25 33 L 24.75 32.25 L 24 32 L 23 32 L 22 32 L 22 31 L 22.75 30.75 L 23 30 L 23.75 29.75 Q 24 29.5 24 29 L 24 28 L 24 27 L 24.65 26.8 Q 25.65 24.85 24 25 L 24 24 Q 24 23.5 23.75 23.25 Q 23.5 23 23 23 L 22 23 L 21 23 L 20 23 L 20 24 L 19 24 L 19 25 L 19 26 L 19 27 L 19 28 L 19 29 L 19 30 L 18 30 Q 18 29.5 17.75 29.25 Q 17.5 29 17 29 Q 17 28.5 16.75 28.25 Q 16.5 28 16 28 L 16 27 L 16 26 L 16 25 M 27 29 L 27 30 Q 27 30.5 27.25 30.75 L 28 31 L 29.8 30.6 Q 30 30.5 30 30 L 30.75 29.75 L 31 29 L 31 28 L 31 27 L 31 26 L 30.75 25.25 L 30 25 L 29 25 L 28 25 L 27 25 L 27 26 L 26 26 L 26 27 L 26.25 27.75 L 27 28 L 27 29 " stroke-width="1" fill="undefined"/>
<path style="fill:#7BBF02;fill-opacity:1" d="M 16 25 L 15 25 L 15 24 L 16 24 L 16 25 " stroke-width="1" fill="undefined"/>
<path style="fill:#96DB00;fill-opacity:1" d="M 15 26 L 15 25 L 16 25 L 16 26 L 16 27 L 15 27 L 15 26 " stroke-width="1" fill="undefined"/>
<path style="fill:#56A414;fill-opacity:1" d="M 15 26 L 14 26 L 14 25 L 15 25 L 15 26 " stroke-width="1" fill="undefined"/>
<path style="fill:#5AA536;fill-opacity:1" d="M 13 24 L 13 23 Q 13.5 23 13.75 23.25 Q 14 23.5 14 24 L 13 24 " stroke-width="1" fill="undefined"/>
<path style="fill:#9CE100;fill-opacity:1" d="M 17 23 L 16.75 23.75 L 16 24 L 16 23 L 17 23 " stroke-width="1" fill="undefined"/>
<path style="fill:#688F4D;fill-opacity:1" d="M 12 23 L 12 22 L 13 22 L 13 23 L 12 23 " stroke-width="1" fill="undefined"/>
<path style="fill:#C2AFC8;fill-opacity:1" d="M 12 23 L 11 23 L 11 22 L 12 22 L 12 23 " stroke-width="1" fill="undefined"/>
<path style="fill:#AE7CBD;fill-opacity:1" d="M 12 25 L 12 24 L 13 24 L 13 25 L 12 25 " stroke-width="1" fill="undefined"/>
<path style="fill:#E8D9EC;fill-opacity:1" d="M 12 25 L 11 25 L 11 24 L 12 24 L 12 25 " stroke-width="1" fill="undefined"/>
<path style="fill:#DCDFD7;fill-opacity:1" d="M 12 24 L 12 23 L 13 23 L 13 24 L 12 24 " stroke-width="1" fill="undefined"/>
<path style="fill:#924FA7;fill-opacity:1" d="M 10 26 L 10.75 25.75 L 11 25 L 12 25 L 13 25 L 13 26 L 13 27 L 12 27 L 12 28 L 11 28 L 11 29 L 10 29 L 9 29 L 8 29 Q 8 28.5 7.75 28.25 Q 7.5 28 7 28 L 7 27 L 8 27 L 8.75 26.75 Q 9 26.5 9 26 L 10 26 M 39 28 L 40 28 L 41 28 L 41 29 L 40 29 L 39 29 L 39 28 " stroke-width="1" fill="undefined"/>
<path style="fill:#FFFFFF;fill-opacity:1" d="M 12 24 L 11 24 L 11 25 L 10 25 L 10 24 L 10 23 L 11 23 L 12 23 L 12 24 M 41 26 L 41 27 L 40 27 L 39 27 L 38 27 L 37 27 L 37 26 L 37 25 L 37 24 L 38 24 L 39 24 L 40 24 L 41 24 L 41 25 L 41 26 " stroke-width="1" fill="undefined"/>
<path style="fill:#815788;fill-opacity:1" d="M 13 28 L 12 28 L 12 27 L 13 27 L 13 28 " stroke-width="1" fill="undefined"/>
<path style="fill:#547736;fill-opacity:1" d="M 13 29 L 12 29 L 12 28 L 13 28 L 13 29 " stroke-width="1" fill="undefined"/>
<path style="fill:#59783E;fill-opacity:1" d="M 14 26 L 14 27 L 13 27 L 13 26 L 14 26 " stroke-width="1" fill="undefined"/>
<path style="fill:#56A331;fill-opacity:1" d="M 13 28 L 13 27 L 14 27 L 14 28 L 13 28 " stroke-width="1" fill="undefined"/>
<path style="fill:#549F10;fill-opacity:1" d="M 14 28 L 14 27 L 14 26 L 15 26 L 15 27 L 15 28 L 14 28 " stroke-width="1" fill="undefined"/>
<path style="fill:#8CCC00;fill-opacity:1" d="M 15 28 L 15 27 L 16 27 L 16 28 L 15 28 " stroke-width="1" fill="undefined"/>
<path style="fill:#73B202;fill-opacity:1" d="M 15 29 L 15 28 L 16 28 L 16 29 L 15 29 " stroke-width="1" fill="undefined"/>
<path style="fill:#5DB723;fill-opacity:1" d="M 14 29 L 14 28 L 15 28 L 15 29 L 14 29 " stroke-width="1" fill="undefined"/>
<path style="fill:#606F4C;fill-opacity:1" d="M 13 26 L 13 25 L 14 25 L 14 26 L 13 26 " stroke-width="1" fill="undefined"/>
<path style="fill:#68D844;fill-opacity:1" d="M 13 28 L 14 28 L 14 29 L 13 29 L 13 28 " stroke-width="1" fill="undefined"/>
<path style="fill:#D0B4D9;fill-opacity:1" d="M 10 23 L 10 22 L 11 22 L 11 23 L 10 23 " stroke-width="1" fill="undefined"/>
<path style="fill:#C5A2D1;fill-opacity:1" d="M 9 23 L 9 22 L 10 22 L 10 23 L 9 23 " stroke-width="1" fill="undefined"/>
<path style="fill:#AD7BBD;fill-opacity:1" d="M 8 23 L 8 22 L 9 22 L 9 23 L 8 23 " stroke-width="1" fill="undefined"/>
<path style="fill:#B6B6B6;fill-opacity:1" d="M 9 25 L 9 24 L 10 24 L 10 25 L 9 25 " stroke-width="1" fill="undefined"/>
<path style="fill:#B98DC7;fill-opacity:1" d="M 10.75 25.75 L 10 26 L 10 25 L 11 25 L 10.75 25.75 " stroke-width="1" fill="undefined"/>
<path style="fill:#DBCCE0;fill-opacity:1" d="M 9 26 L 9 25 L 10 25 L 10 26 L 9 26 " stroke-width="1" fill="undefined"/>
<path style="fill:#F3F3F3;fill-opacity:1" d="M 9 24 L 9 23 L 10 23 L 10 24 L 9 24 " stroke-width="1" fill="undefined"/>
<path style="fill:#717171;fill-opacity:1" d="M 9 24 L 8 24 L 8 23 L 9 23 L 9 24 " stroke-width="1" fill="undefined"/>
<path style="fill:#9350A8;fill-opacity:1" d="M 8 23 L 7 23 L 7 22 L 8 22 L 8 23 " stroke-width="1" fill="undefined"/>
<path style="fill:#080808;fill-opacity:1" d="M 8 24 L 8 25 L 7 25 L 7 24 L 8 24 " stroke-width="1" fill="undefined"/>
<path style="fill:#8C828F;fill-opacity:1" d="M 8 24 L 7 24 L 7 23 L 8 23 L 8 24 " stroke-width="1" fill="undefined"/>
<path style="fill:#8E8E8E;fill-opacity:1" d="M 8 26 L 7 26 L 7 25 L 8 25 L 8 26 " stroke-width="1" fill="undefined"/>
<path style="fill:#C4A1D1;fill-opacity:1" d="M 8 27 L 7 27 L 7 26 L 8 26 L 8 27 " stroke-width="1" fill="undefined"/>
<path style="fill:#AB78BB;fill-opacity:1" d="M 8.75 26.75 L 8 27 L 8 26 L 9 26 Q 9 26.5 8.75 26.75 " stroke-width="1" fill="undefined"/>
<path style="fill:#6F6F6F;fill-opacity:1" d="M 9 26 L 8 26 L 8 25 L 9 25 L 9 26 " stroke-width="1" fill="undefined"/>
<path style="fill:#68625B;fill-opacity:1" d="M 10 29 L 11 29 L 11 30 L 10 30 L 10 29 " stroke-width="1" fill="undefined"/>
<path style="fill:#59C739;fill-opacity:1" d="M 10 30 L 11 30 L 10.75 30.75 L 10 31 L 10 30 " stroke-width="1" fill="undefined"/>
<path style="fill:#47B429;fill-opacity:1" d="M 9 30 L 10 30 L 10 31 L 9 31 L 7 31 L 7 30 L 8 30 L 9 30 " stroke-width="1" fill="undefined"/>
<path style="fill:#755C73;fill-opacity:1" d="M 10 30 L 9 30 L 9 29 L 10 29 L 10 30 " stroke-width="1" fill="undefined"/>
<path style="fill:#6C6162;fill-opacity:1" d="M 8 30 L 8 29 L 9 29 L 9 30 L 8 30 " stroke-width="1" fill="undefined"/>
<path style="fill:#4D7A2C;fill-opacity:1" d="M 12 30 L 11 30 L 11 29 L 12 29 L 12 30 " stroke-width="1" fill="undefined"/>
<path style="fill:#4F6E2F;fill-opacity:1" d="M 7 29 L 8 29 L 8 30 L 7 30 L 7 29 " stroke-width="1" fill="undefined"/>
<path style="fill:#8C529C;fill-opacity:1" d="M 7 29 L 7 28 Q 7.5 28 7.75 28.25 Q 8 28.5 8 29 L 7 29 M 39 21 L 40 21 L 39.75 21.75 L 39 22 L 39 21 " stroke-width="1" fill="undefined"/>
<path style="fill:#5AA20C;fill-opacity:1" d="M 15 30 L 15 29 L 16 29 L 16 30 L 15 30 " stroke-width="1" fill="undefined"/>
<path style="fill:#67D43D;fill-opacity:1" d="M 16 31 L 15.25 30.75 L 15 30 L 16 30 L 16 31 " stroke-width="1" fill="undefined"/>
<path style="fill:#5BA30C;fill-opacity:1" d="M 16 31 L 16 30 L 17 30 L 17 31 L 16 31 " stroke-width="1" fill="undefined"/>
<path style="fill:#84C000;fill-opacity:1" d="M 16 30 L 16 29 L 17 29 L 17 30 L 16 30 " stroke-width="1" fill="undefined"/>
<path style="fill:#68D840;fill-opacity:1" d="M 17 32 L 16.25 31.75 L 16 31 L 17 31 L 17 32 M 15 30 L 14.25 29.75 L 14 29 L 15 29 L 15 30 " stroke-width="1" fill="undefined"/>
<path style="fill:#65CF40;fill-opacity:1" d="M 12 29 L 13 29 Q 13 29.5 12.75 29.75 L 12 30 L 12 29 M 43 21 L 44 21 L 44 22 L 43 22 L 43 21 " stroke-width="1" fill="undefined"/>
<path style="fill:#875493;fill-opacity:1" d="M 12 29 L 11 29 L 11 28 L 12 28 L 12 29 " stroke-width="1" fill="undefined"/>
<path style="fill:#9ADB00;fill-opacity:1" d="M 16 29 L 16 28 Q 16.5 28 16.75 28.25 Q 17 28.5 17 29 L 16 29 " stroke-width="1" fill="undefined"/>
<path style="fill:#5DBE38;fill-opacity:1" d="M 7 22 L 6 22 L 6 21 L 7 21 L 7 22 " stroke-width="1" fill="undefined"/>
<path style="fill:#5FBD2A;fill-opacity:1" d="M 17 22 L 16 22 L 16 21 L 17 21 L 17 22 " stroke-width="1" fill="undefined"/>
<path style="fill:#64D641;fill-opacity:1" d="M 12 39 Q 12.5 39 12.75 39.25 Q 13 39.5 13 40 L 12 40 L 12 39 " stroke-width="1" fill="undefined"/>
<path style="fill:#378720;fill-opacity:1" d="M 11 40 L 11 39 L 12 39 L 12 40 L 11 40 " stroke-width="1" fill="undefined"/>
<path style="fill:#13340A;fill-opacity:1" d="M 12 41 L 12 40 L 13 40 L 13 41 L 12 41 " stroke-width="1" fill="undefined"/>
<path style="fill:#327E1C;fill-opacity:1" d="M 14 41 L 13 41 L 13 40 L 14 40 L 14 41 " stroke-width="1" fill="undefined"/>
<path style="fill:#5CCC3A;fill-opacity:1" d="M 15 41 L 14 41 L 14 40 L 15 40 L 15 41 " stroke-width="1" fill="undefined"/>
<path style="fill:#68DB45;fill-opacity:1" d="M 15 40 Q 15.5 40 15.75 40.25 Q 16 40.5 16 41 L 15 41 L 15 40 " stroke-width="1" fill="undefined"/>
<path style="fill:#58C338;fill-opacity:1" d="M 7 37 L 7 36 Q 7.5 36 7.75 36.25 Q 8 36.5 8 37 L 7 37 " stroke-width="1" fill="undefined"/>
<path style="fill:#0A1B05;fill-opacity:1" d="M 7 38 L 7 37 L 8 37 L 8 38 L 7 38 " stroke-width="1" fill="undefined"/>
<path style="fill:#122F09;fill-opacity:1" d="M 6 37 L 6 36 L 7 36 L 7 37 L 6 37 " stroke-width="1" fill="undefined"/>
<path style="fill:#5CC83C;fill-opacity:1" d="M 6 36 L 6 35 Q 6.5 35 6.75 35.25 Q 7 35.5 7 36 L 6 36 " stroke-width="1" fill="undefined"/>
<path style="fill:#000000;fill-opacity:0.564706" d="M 24 44 L 25 44 L 25 45 L 24 45 L 24 44 M 8 40 L 7.25 39.75 L 7 39 Q 7.5 39 7.75 39.25 Q 8 39.5 8 40 " stroke-width="1" fill="undefined"/>
<path style="fill:#000000;fill-opacity:0.741176" d="M 6 38 L 7 38 L 7 39 L 6 39 L 6 38 " stroke-width="1" fill="undefined"/>
<path style="fill:#62D53F;fill-opacity:1" d="M 10 39 L 10 38 Q 10.5 38 10.75 38.25 Q 11 38.5 11 39 L 10 39 " stroke-width="1" fill="undefined"/>
<path style="fill:#276315;fill-opacity:1" d="M 10 39 L 9.25 38.75 L 9 38 L 10 38 L 10 39 " stroke-width="1" fill="undefined"/>
<path style="fill:#102B08;fill-opacity:1" d="M 10 40 L 10 39 L 11 39 L 11 40 L 10 40 " stroke-width="1" fill="undefined"/>
<path style="fill:#000000;fill-opacity:0.823529" d="M 21 3 L 22 3 L 22 4 L 21 4 L 21 3 M 30 4 L 30 3 L 31 3 L 31 4 L 30 4 M 9 40 L 10 40 L 10 41 L 9 41 L 9 40 " stroke-width="1" fill="undefined"/>
<path style="fill:#45A12A;fill-opacity:1" d="M 8 38 L 8 37 Q 8.5 37 8.75 37.25 Q 9 37.5 9 38 L 8 38 " stroke-width="1" fill="undefined"/>
<path style="fill:#000000;fill-opacity:0.286275" d="M 9 41 L 8.25 40.75 L 8 40 L 9 40 L 9 41 " stroke-width="1" fill="undefined"/>
<path style="fill:#000000;fill-opacity:0.454902" d="M 10 41 L 11 41 L 11 42 L 10 42 L 10 41 " stroke-width="1" fill="undefined"/>
<path style="fill:#000000;fill-opacity:0.87451" d="M 12 41 L 12 42 L 11 42 L 11 41 L 12 41 " stroke-width="1" fill="undefined"/>
<path style="fill:#337F1D;fill-opacity:1" d="M 17 42 L 16 42 L 16 41 L 17 41 L 17 42 " stroke-width="1" fill="undefined"/>
<path style="fill:#1C490F;fill-opacity:1" d="M 15 41 L 16 41 L 16 42 L 15.25 41.75 L 15 41 " stroke-width="1" fill="undefined"/>
<path style="fill:#000000;fill-opacity:0.423529" d="M 16 44 L 15 44 L 15 43 L 16 43 L 16 44 " stroke-width="1" fill="undefined"/>
<path style="fill:#000000;fill-opacity:0.160784" d="M 15 44 L 14.25 43.75 L 14 43 L 15 43 L 15 44 " stroke-width="1" fill="undefined"/>
<path style="fill:#000000;fill-opacity:0.772549" d="M 24 2 Q 24 2.5 23.75 2.75 Q 23.5 3 23 3 L 23 2 L 24 2 M 13 42 Q 13.5 42 13.75 42.25 Q 14 42.5 14 43 L 13 43 L 13 42 " stroke-width="1" fill="undefined"/>
<path style="fill:#000000;fill-opacity:0.0627451" d="M 12 43 L 11.25 42.75 L 11 42 L 12 42 L 12 43 M 4 36 L 4 37 L 3.25 36.75 L 3 36 L 4 36 " stroke-width="1" fill="undefined"/>
<path style="fill:#000000;fill-opacity:0.666667" d="M 17 44 L 16 44 L 16 43 L 17 43 L 17 44 " stroke-width="1" fill="undefined"/>
<path style="fill:#0F2908;fill-opacity:1" d="M 5 36 L 5 35 L 6 35 L 6 36 L 5 36 " stroke-width="1" fill="undefined"/>
<path style="fill:#000000;fill-opacity:0.811765" d="M 41 13 L 41 12 L 42 12 L 42 13 L 41 13 M 5 36 L 5 37 L 4 37 L 4 36 L 5 36 " stroke-width="1" fill="undefined"/>
<path style="fill:#000000;fill-opacity:0.85098" d="M 5 37 L 6 37 L 6 38 L 5 38 L 5 37 " stroke-width="1" fill="undefined"/>
<path style="fill:#000000;fill-opacity:0.12549" d="M 5 38 L 4.25 37.75 L 4 37 L 5 37 L 5 38 " stroke-width="1" fill="undefined"/>
<path style="fill:#000000;fill-opacity:0.643137" d="M 3 36 L 3 35 L 4 35 L 4 36 L 3 36 " stroke-width="1" fill="undefined"/>
<path style="fill:#000000;fill-opacity:0.113725" d="M 45 18 L 45 17 L 45.75 17.25 L 46 18 L 45 18 M 6 38 L 6 39 L 5.25 38.75 L 5 38 L 6 38 " stroke-width="1" fill="undefined"/>
<path style="fill:#000000;fill-opacity:0.188235" d="M 25 1 L 24 1 L 24 0 L 25 0 L 25 1 " stroke-width="1" fill="undefined"/>
<path style="fill:#000000;fill-opacity:0.494118" d="M 26 1 L 25 1 L 25 0 L 26 0 L 26 1 " stroke-width="1" fill="undefined"/>
<path style="fill:#000000;fill-opacity:0.901961" d="M 22 3 L 23 3 Q 23 3.5 22.75 3.75 Q 22.5 4 22 4 L 22 3 M 39 11 L 39 10 L 40 10 L 40 11 L 39 11 " stroke-width="1" fill="undefined"/>
<path style="fill:#2B511C;fill-opacity:1" d="M 25 3 L 25 2 L 26 2 L 26 3 L 25 3 " stroke-width="1" fill="undefined"/>
<path style="fill:#51A634;fill-opacity:1" d="M 26 4 L 25 4 L 25 3 L 26 3 L 26 4 " stroke-width="1" fill="undefined"/>
<path style="fill:#3D7928;fill-opacity:1" d="M 27 2 L 27 3 L 26 3 L 26 2 L 27 2 " stroke-width="1" fill="undefined"/>
<path style="fill:#000000;fill-opacity:0.654902" d="M 27 1 L 26 1 L 26 0 L 27 0 L 27 1 " stroke-width="1" fill="undefined"/>
<path style="fill:#000000;fill-opacity:0.462745" d="M 18 3 L 19 3 L 19 4 L 18 4 L 18 3 M 25 44 L 26 44 L 26 45 L 25 45 L 25 44 " stroke-width="1" fill="undefined"/>
<path style="fill:#000000;fill-opacity:0.215686" d="M 18 4 L 17 4 L 17 3 L 18 3 L 18 4 " stroke-width="1" fill="undefined"/>
<path style="fill:#000000;fill-opacity:0.635294" d="M 19 3 L 20 3 L 20 4 L 19 4 L 19 3 " stroke-width="1" fill="undefined"/>
<path style="fill:#000000;fill-opacity:0.713725" d="M 20 3 L 21 3 L 21 4 L 20 4 L 20 3 " stroke-width="1" fill="undefined"/>
<path style="fill:#448D2D;fill-opacity:1" d="M 20 6 L 19 6 L 19 5 L 20 5 L 20 6 " stroke-width="1" fill="undefined"/>
<path style="fill:#30651F;fill-opacity:1" d="M 18 5 L 19 5 L 19 6 L 18 6 L 18 5 " stroke-width="1" fill="undefined"/>
<path style="fill:#5DBA40;fill-opacity:1" d="M 22 6 L 21 6 L 21 5 L 22 5 L 22 6 " stroke-width="1" fill="undefined"/>
<path style="fill:#4D9F34;fill-opacity:1" d="M 21 6 L 20 6 L 20 5 L 21 5 L 21 6 " stroke-width="1" fill="undefined"/>
<path style="fill:#172F0F;fill-opacity:1" d="M 18 6 L 17 6 L 17 5 L 18 5 L 18 6 " stroke-width="1" fill="undefined"/>
<path style="fill:#58B33A;fill-opacity:1" d="M 27 5 Q 26.5 5 26.25 4.75 Q 26 4.5 26 4 L 27 4 L 27 5 " stroke-width="1" fill="undefined"/>
<path style="fill:#2A551C;fill-opacity:1" d="M 25 4 L 24.75 4.75 L 24 5 L 24 4 L 25 4 " stroke-width="1" fill="undefined"/>
<path style="fill:#74E052;fill-opacity:1" d="M 23 5 L 24 5 Q 24 5.5 23.75 5.75 Q 23.5 6 23 6 L 23 5 " stroke-width="1" fill="undefined"/>
<path style="fill:#6ED04F;fill-opacity:1" d="M 23 6 L 22 6 L 22 5 L 23 5 L 23 6 " stroke-width="1" fill="undefined"/>
<path style="fill:#0E2F0A;fill-opacity:1" d="M 27 4 L 26 4 L 26 3 L 27 3 L 27 4 " stroke-width="1" fill="undefined"/>
<path style="fill:#000000;fill-opacity:0.129412" d="M 29 0 L 29.75 0.25 L 30 1 L 29 1 L 29 0 M 39 10 L 39 9 L 39.75 9.25 L 40 10 L 39 10 M 48 30 L 47.75 30.75 L 47 31 L 47 30 L 48 30 " stroke-width="1" fill="undefined"/>
<path style="fill:#336921;fill-opacity:1" d="M 28 2 L 28 3 L 27 3 L 27 2 L 28 2 " stroke-width="1" fill="undefined"/>
<path style="fill:#0A2808;fill-opacity:1" d="M 28 4 L 27 4 L 27 3 L 28 3 L 28 4 " stroke-width="1" fill="undefined"/>
<path style="fill:#28481C;fill-opacity:1" d="M 28 3 L 28 2 L 29 2 L 29 3 L 28 3 " stroke-width="1" fill="undefined"/>
<path style="fill:#000000;fill-opacity:0.945098" d="M 29 1 L 30 1 L 30 2 L 29 2 L 29 1 " stroke-width="1" fill="undefined"/>
<path style="fill:#000000;fill-opacity:0.898039" d="M 47 22 L 47 23 L 46.25 22.75 Q 46 22.5 46 22 L 47 22 M 30 2 L 31 2 L 31 3 L 30 3 L 30 2 " stroke-width="1" fill="undefined"/>
<path style="fill:#000000;fill-opacity:0.0588235" d="M 31 2 Q 31.5 2.5 31.5 3 L 31 3 L 31 2 M 46 20 L 46 19 L 46.75 19.25 L 47 20 L 46 20 M 37 42 L 36.75 42.75 L 36 43 L 36 42 L 37 42 " stroke-width="1" fill="undefined"/>
<path style="fill:#000000;fill-opacity:0.305882" d="M 30 2 L 30 1 L 30.75 1.25 L 31 2 L 30 2 " stroke-width="1" fill="undefined"/>
<path style="fill:#000000;fill-opacity:0.443137" d="M 29 1 L 28 1 L 28 0 L 29 0 L 29 1 " stroke-width="1" fill="undefined"/>
<path style="fill:#183F0F;fill-opacity:1" d="M 28 4 L 28 3 L 29 3 L 29 4 L 28 4 " stroke-width="1" fill="undefined"/>
<path style="fill:#162A0F;fill-opacity:1" d="M 30 6 L 29 6 L 29 5 L 30 5 L 30 6 " stroke-width="1" fill="undefined"/>
<path style="fill:#98F578;fill-opacity:1" d="M 29 6 L 30 6 L 30 7 L 29 7 L 29 6 " stroke-width="1" fill="undefined"/>
<path style="fill:#72E74E;fill-opacity:1" d="M 28 6 L 28 5 L 29 5 L 29 6 L 28 6 " stroke-width="1" fill="undefined"/>
<path style="fill:#3F6C30;fill-opacity:1" d="M 30 6 L 31 6 L 31 7 L 30 7 L 30 6 " stroke-width="1" fill="undefined"/>
<path style="fill:#000000;fill-opacity:0.776471" d="M 30 5 L 30 4 L 31 4 L 31 5 L 30 5 " stroke-width="1" fill="undefined"/>
<path style="fill:#40832C;fill-opacity:1" d="M 29 4 L 29 5 L 28 5 L 28 4 L 29 4 " stroke-width="1" fill="undefined"/>
<path style="fill:#000000;fill-opacity:0.219608" d="M 31 5 L 31 4 L 31.75 4.25 L 32 5 L 31 5 " stroke-width="1" fill="undefined"/>
<path style="fill:#4A9D33;fill-opacity:1" d="M 28 5 L 27 5 L 27 4 L 28 4 L 28 5 " stroke-width="1" fill="undefined"/>
<path style="fill:#70E44D;fill-opacity:1" d="M 29 7 L 29 8 Q 28.5 8 28.25 7.75 Q 28 7.5 28 7 L 29 7 " stroke-width="1" fill="undefined"/>
<path style="fill:#7DE95A;fill-opacity:1" d="M 30 7 L 30 8 L 29 8 L 29 7 L 30 7 " stroke-width="1" fill="undefined"/>
<path style="fill:#8EF06D;fill-opacity:1" d="M 31 7 L 31 8 L 30 8 L 30 7 L 31 7 " stroke-width="1" fill="undefined"/>
<path style="fill:#99F579;fill-opacity:1" d="M 32 7 L 32 8 L 31 8 L 31 7 L 32 7 " stroke-width="1" fill="undefined"/>
<path style="fill:#78E755;fill-opacity:1" d="M 32 9 Q 31.5 9 31.25 8.75 Q 31 8.5 31 8 L 32 8 L 32 9 " stroke-width="1" fill="undefined"/>
<path style="fill:#87ED65;fill-opacity:1" d="M 28 7 L 28 6 L 29 6 L 29 7 L 28 7 " stroke-width="1" fill="undefined"/>
<path style="fill:#192D12;fill-opacity:1" d="M 31 6 L 32 6 L 32 7 L 31 7 L 31 6 " stroke-width="1" fill="undefined"/>
<path style="fill:#000000;fill-opacity:0.203922" d="M 35 7 L 35 6 L 35.75 6.25 L 36 7 L 35 7 M 29 45 L 28 45 L 27 45 L 27 44 L 28 44 L 29 44 L 29 45 " stroke-width="1" fill="undefined"/>
<path style="fill:#000000;fill-opacity:0.768627" d="M 35 7 L 34 7 L 34 6 L 35 6 L 35 7 " stroke-width="1" fill="undefined"/>
<path style="fill:#000000;fill-opacity:0.301961" d="M 33 6 L 33 5 L 33.75 5.25 L 34 6 L 33 6 " stroke-width="1" fill="undefined"/>
<path style="fill:#000000;fill-opacity:0.788235" d="M 33 6 L 32 6 L 32 5 L 33 5 L 33 6 M 39 40 L 39 41 L 38 41 L 38 40 L 39 40 " stroke-width="1" fill="undefined"/>
<path style="fill:#8DF06B;fill-opacity:1" d="M 32 8 L 33 8 L 33 9 L 32 9 L 32 8 " stroke-width="1" fill="undefined"/>
<path style="fill:#4E813D;fill-opacity:1" d="M 32 8 L 32 7 L 33 7 L 33 8 L 32 8 " stroke-width="1" fill="undefined"/>
<path style="fill:#172A11;fill-opacity:1" d="M 34 8 L 33 8 L 33 7 L 34 7 L 34 8 " stroke-width="1" fill="undefined"/>
<path style="fill:#9AF579;fill-opacity:1" d="M 34 8 L 34 9 L 33 9 L 33 8 L 34 8 " stroke-width="1" fill="undefined"/>
<path style="fill:#000000;fill-opacity:0.47451" d="M 36.25 7.75 Q 36 7.5 36 7 L 36.75 7.25 L 37 8 Q 36.5 8 36.25 7.75 " stroke-width="1" fill="undefined"/>
<path style="fill:#385E2C;fill-opacity:1" d="M 34 9 L 34 8 L 34.75 8.25 L 35 9 L 34 9 " stroke-width="1" fill="undefined"/>
<path style="fill:#91F16F;fill-opacity:1" d="M 34 9 L 35 9 L 35 10 L 34 10 L 34 9 " stroke-width="1" fill="undefined"/>
<path style="fill:#6CAC54;fill-opacity:1" d="M 36 10 L 35 10 L 35 9 L 36 9 L 36 10 " stroke-width="1" fill="undefined"/>
<path style="fill:#7AE857;fill-opacity:1" d="M 34 10 Q 33.5 10 33.25 9.75 Q 33 9.5 33 9 L 34 9 L 34 10 " stroke-width="1" fill="undefined"/>
<path style="fill:#000000;fill-opacity:0.0862745" d="M 38 9 L 38 8 L 38.75 8.25 L 39 9 L 38 9 " stroke-width="1" fill="undefined"/>
<path style="fill:#162810;fill-opacity:1" d="M 36 10 L 36 9 L 37 9 L 37 10 L 36 10 " stroke-width="1" fill="undefined"/>
<path style="fill:#000000;fill-opacity:0.337255" d="M 47 20 L 47 21 L 46 21 L 46 20 L 47 20 " stroke-width="1" fill="undefined"/>
<path style="fill:#000000;fill-opacity:0.329412" d="M 43 15 L 43 14 L 43.75 14.25 L 44 15 L 43 15 " stroke-width="1" fill="undefined"/>
<path style="fill:#000100;fill-opacity:1" d="M 43 16 L 42 16 L 41.75 15.25 L 41 15 L 41 14 L 41 13 L 42 13 Q 42 13.5 42.25 13.75 Q 42.5 14 43 14 L 43 15 L 43 16 " stroke-width="1" fill="undefined"/>
<path style="fill:#000000;fill-opacity:0.607843" d="M 42.25 13.75 Q 42 13.5 42 13 L 42.75 13.25 L 43 14 Q 42.5 14 42.25 13.75 " stroke-width="1" fill="undefined"/>
<path style="fill:#000000;fill-opacity:0.0901961" d="M 44 16 L 44 15 L 44.75 15.25 L 45 16 L 44 16 M 43 37 L 44 37 L 43.75 37.75 L 43 38 L 43 37 " stroke-width="1" fill="undefined"/>
<path style="fill:#000000;fill-opacity:0.933333" d="M 43 16 L 43 15 L 44 15 L 44 16 L 43 16 " stroke-width="1" fill="undefined"/>
<path style="fill:#000000;fill-opacity:0.141176" d="M 40 11 L 40 10 L 40.75 10.25 L 41 11 L 40 11 M 33 43 L 34 43 L 33.75 43.75 L 33 44 L 33 43 " stroke-width="1" fill="undefined"/>
<path style="fill:#29471F;fill-opacity:1" d="M 39 13 L 39 12 L 40 12 L 40 13 L 39 13 " stroke-width="1" fill="undefined"/>
<path style="fill:#2C4A20;fill-opacity:1" d="M 38 12 L 38 11 L 39 11 L 39 12 L 38 12 " stroke-width="1" fill="undefined"/>
<path style="fill:#27421D;fill-opacity:1" d="M 38 11 L 37 11 L 37 10 L 38 10 L 38 11 " stroke-width="1" fill="undefined"/>
<path style="fill:#8DE76D;fill-opacity:1" d="M 37 11 L 38 11 L 38 12 L 37 12 L 37 11 " stroke-width="1" fill="undefined"/>
<path style="fill:#71E44C;fill-opacity:1" d="M 38 13 Q 37.5 13 37.25 12.75 Q 37 12.5 37 12 L 38 12 L 38 13 " stroke-width="1" fill="undefined"/>
<path style="fill:#77E654;fill-opacity:1" d="M 37 11 L 37 12 Q 36.5 12 36.25 11.75 Q 36 11.5 36 11 L 37 11 " stroke-width="1" fill="undefined"/>
<path style="fill:#8ADE6D;fill-opacity:1" d="M 37 10 L 37 11 L 36 11 L 36 10 L 37 10 " stroke-width="1" fill="undefined"/>
<path style="fill:#63D441;fill-opacity:1" d="M 38 15 L 38 14 L 39 14 L 39 15 L 38 15 " stroke-width="1" fill="undefined"/>
<path style="fill:#1C3314;fill-opacity:1" d="M 40 14 L 40 13 L 41 13 L 41 14 L 40 14 " stroke-width="1" fill="undefined"/>
<path style="fill:#81DE61;fill-opacity:1" d="M 39 14 L 39 13 L 40 13 L 40 14 L 39 14 " stroke-width="1" fill="undefined"/>
<path style="fill:#51AE32;fill-opacity:1" d="M 39 14 L 40 14 L 40 15 L 39 15 L 39 14 " stroke-width="1" fill="undefined"/>
<path style="fill:#33781B;fill-opacity:1" d="M 39 15 L 40 15 L 40 16 L 39 16 L 39 15 " stroke-width="1" fill="undefined"/>
<path style="fill:#5CA841;fill-opacity:1" d="M 40 15 L 40 14 L 41 14 L 41 15 L 40 15 " stroke-width="1" fill="undefined"/>
<path style="fill:#286011;fill-opacity:1" d="M 40 16 L 40 15 L 41 15 L 41 16 L 40 16 " stroke-width="1" fill="undefined"/>
<path style="fill:#89E869;fill-opacity:1" d="M 38 12 L 39 12 L 39 13 L 38 13 L 38 12 " stroke-width="1" fill="undefined"/>
<path style="fill:#5FCA3E;fill-opacity:1" d="M 39 15 L 39 16 Q 38.5 16 38.25 15.75 Q 38 15.5 38 15 L 39 15 " stroke-width="1" fill="undefined"/>
<path style="fill:#39821F;fill-opacity:1" d="M 41 16 L 42 16 L 42 17 L 41 17 L 41 16 " stroke-width="1" fill="undefined"/>
<path style="fill:#5AC139;fill-opacity:1" d="M 41 17 Q 40.5 17 40.25 16.75 Q 40 16.5 40 16 L 41 16 L 41 17 " stroke-width="1" fill="undefined"/>
<path style="fill:#518F31;fill-opacity:1" d="M 38 22 L 37 22 L 37 21 L 38 21 L 38 22 " stroke-width="1" fill="undefined"/>
<path style="fill:#61C33C;fill-opacity:1" d="M 38 21 L 38 20 L 39 20 L 39 21 L 38 21 " stroke-width="1" fill="undefined"/>
<path style="fill:#54A02C;fill-opacity:1" d="M 39 20 L 40 20 L 40 21 L 39 21 L 39 20 " stroke-width="1" fill="undefined"/>
<path style="fill:#914FA6;fill-opacity:1" d="M 43 22 L 43 23 L 43 24 L 42 24 L 41.75 23.25 L 41 23 L 40 23 L 39 23 L 38 23 L 38 22 L 39 22 L 39.75 21.75 L 40 21 L 41 21 Q 41 21.5 41.25 21.75 Q 41.5 22 42 22 L 43 22 " stroke-width="1" fill="undefined"/>
<path style="fill:#84558E;fill-opacity:1" d="M 42 21 L 42 22 Q 41.5 22 41.25 21.75 Q 41 21.5 41 21 L 42 21 " stroke-width="1" fill="undefined"/>
<path style="fill:#519729;fill-opacity:1" d="M 41 21 L 40 21 L 40 20 L 41 20 L 41 21 " stroke-width="1" fill="undefined"/>
<path style="fill:#59AF32;fill-opacity:1" d="M 42 21 L 41 21 L 41 20 L 42 20 L 42 21 " stroke-width="1" fill="undefined"/>
<path style="fill:#745D72;fill-opacity:1" d="M 38 21 L 39 21 L 39 22 L 38 22 L 38 21 " stroke-width="1" fill="undefined"/>
<path style="fill:#000000;fill-opacity:0.537255" d="M 45 19 L 45 18 L 46 18 L 46 19 L 45 19 " stroke-width="1" fill="undefined"/>
<path style="fill:#000000;fill-opacity:0.552941" d="M 44.25 16.75 Q 44 16.5 44 16 L 45 16 L 45 17 Q 44.5 17 44.25 16.75 " stroke-width="1" fill="undefined"/>
<path style="fill:#55B139;fill-opacity:1" d="M 43 18 Q 42.5 18 42.25 17.75 Q 42 17.5 42 17 L 43 17 L 43 18 " stroke-width="1" fill="undefined"/>
<path style="fill:#18330E;fill-opacity:1" d="M 43 17 L 42 17 L 42 16 L 43 16 L 43 17 " stroke-width="1" fill="undefined"/>
<path style="fill:#244E19;fill-opacity:1" d="M 43 19 L 43 18 L 43.75 18.25 L 44 19 L 43 19 " stroke-width="1" fill="undefined"/>
<path style="fill:#69D944;fill-opacity:1" d="M 43 21 L 42 21 L 42 20 L 43 20 L 43 21 " stroke-width="1" fill="undefined"/>
<path style="fill:#637150;fill-opacity:1" d="M 43 22 L 42 22 L 42 21 L 43 21 L 43 22 " stroke-width="1" fill="undefined"/>
<path style="fill:#54AE38;fill-opacity:1" d="M 44 19 L 44 20 L 43 20 L 43 19 L 44 19 " stroke-width="1" fill="undefined"/>
<path style="fill:#000000;fill-opacity:0.917647" d="M 46 19 L 46 20 L 45 20 L 45 19 L 46 19 " stroke-width="1" fill="undefined"/>
<path style="fill:#1E4113;fill-opacity:1" d="M 45 21 L 44 21 L 44 20 L 45 20 L 45 21 " stroke-width="1" fill="undefined"/>
<path style="fill:#3D812A;fill-opacity:1" d="M 45 22 L 44 22 L 44 21 L 45 21 L 45 22 " stroke-width="1" fill="undefined"/>
<path style="fill:#224B15;fill-opacity:1" d="M 41 16 L 41 15 L 41.75 15.25 L 42 16 L 41 16 " stroke-width="1" fill="undefined"/>
<path style="fill:#60C33E;fill-opacity:1" d="M 44 22 L 45 22 L 45 23 L 44 23 L 44 22 " stroke-width="1" fill="undefined"/>
<path style="fill:#61724D;fill-opacity:1" d="M 43 23 L 43 22 L 44 22 L 44 23 L 43 23 " stroke-width="1" fill="undefined"/>
<path style="fill:#58A931;fill-opacity:1" d="M 45 24 L 44 24 L 44 23 L 45 23 L 45 24 " stroke-width="1" fill="undefined"/>
<path style="fill:#255119;fill-opacity:1" d="M 45 25 L 45 24 L 45.75 24.25 L 46 25 L 45 25 " stroke-width="1" fill="undefined"/>
<path style="fill:#4D8E24;fill-opacity:1" d="M 45 25 L 45 26 L 44 26 L 44 25 L 44 24 L 45 24 L 45 25 " stroke-width="1" fill="undefined"/>
<path style="fill:#B182BF;fill-opacity:1" d="M 43 25 L 43 24 L 44 24 L 44 25 L 43 25 " stroke-width="1" fill="undefined"/>
<path style="fill:#865591;fill-opacity:1" d="M 44 23 L 44 24 L 43 24 L 43 23 L 44 23 " stroke-width="1" fill="undefined"/>
<path style="fill:#357322;fill-opacity:1" d="M 45 26 L 45 25 L 46 25 L 46 26 L 45 26 " stroke-width="1" fill="undefined"/>
<path style="fill:#C9ADD2;fill-opacity:1" d="M 42 24 L 43 24 L 43 25 L 42 25 L 42 24 " stroke-width="1" fill="undefined"/>
<path style="fill:#191919;fill-opacity:1" d="M 43 26 L 42 26 L 42 25 L 43 25 L 43 26 " stroke-width="1" fill="undefined"/>
<path style="fill:#EFE5F2;fill-opacity:1" d="M 42 24 L 42 25 L 41 25 L 41 24 L 42 24 " stroke-width="1" fill="undefined"/>
<path style="fill:#9656AA;fill-opacity:1" d="M 41 24 L 41 23 L 41.75 23.25 L 42 24 L 41 24 " stroke-width="1" fill="undefined"/>
<path style="fill:#050505;fill-opacity:1" d="M 43 27 L 42 27 L 42 26 L 43 26 L 43 27 " stroke-width="1" fill="undefined"/>
<path style="fill:#B592C0;fill-opacity:1" d="M 43 27 L 43 28 L 42 28 L 42 27 L 43 27 " stroke-width="1" fill="undefined"/>
<path style="fill:#9D9D9D;fill-opacity:1" d="M 41 27 L 41 26 L 42 26 L 42 27 L 41 27 " stroke-width="1" fill="undefined"/>
<path style="fill:#BB91C9;fill-opacity:1" d="M 40 27 L 41 27 L 42 27 L 42 28 L 41 28 L 40 28 L 40 27 " stroke-width="1" fill="undefined"/>
<path style="fill:#6E6066;fill-opacity:1" d="M 43 29 L 42 29 L 42 28 L 43 28 L 43 29 " stroke-width="1" fill="undefined"/>
<path style="fill:#575B53;fill-opacity:1" d="M 43 27 L 43 26 L 44 26 L 44 27 L 43 27 " stroke-width="1" fill="undefined"/>
<path style="fill:#727E5F;fill-opacity:1" d="M 43 28 L 43 27 L 44 27 L 44 28 L 43 28 " stroke-width="1" fill="undefined"/>
<path style="fill:#51992B;fill-opacity:1" d="M 45 27 L 44 27 L 44 26 L 45 26 L 45 27 " stroke-width="1" fill="undefined"/>
<path style="fill:#62C43D;fill-opacity:1" d="M 45 28 L 44 28 L 44 27 L 45 27 L 45 28 " stroke-width="1" fill="undefined"/>
<path style="fill:#3C8125;fill-opacity:1" d="M 46 27 L 46 28 L 45 28 L 45 27 L 46 27 " stroke-width="1" fill="undefined"/>
<path style="fill:#3E8728;fill-opacity:1" d="M 45 27 L 45 26 L 46 26 L 46 27 L 45 27 " stroke-width="1" fill="undefined"/>
<path style="fill:#2F6B1E;fill-opacity:1" d="M 45 29 L 45 28 L 46 28 L 46 29 L 45 29 " stroke-width="1" fill="undefined"/>
<path style="fill:#B5B5B5;fill-opacity:1" d="M 41 25 L 42 25 L 42 26 L 41 26 L 41 25 " stroke-width="1" fill="undefined"/>
<path style="fill:#828282;fill-opacity:1" d="M 43 26 L 43 25 L 44 25 L 44 26 L 43 26 " stroke-width="1" fill="undefined"/>
<path style="fill:#54A02D;fill-opacity:1" d="M 43 28 L 44 28 L 43.75 28.75 L 43 29 L 43 28 " stroke-width="1" fill="undefined"/>
<path style="fill:#A873B9;fill-opacity:1" d="M 40 23 L 41 23 L 41 24 L 40 24 L 40 23 " stroke-width="1" fill="undefined"/>
<path style="fill:#B587C3;fill-opacity:1" d="M 39 23 L 40 23 L 40 24 L 39 24 L 39 23 " stroke-width="1" fill="undefined"/>
<path style="fill:#BC92C9;fill-opacity:1" d="M 38 23 L 39 23 L 39 24 L 38 24 L 38 23 " stroke-width="1" fill="undefined"/>
<path style="fill:#7F5885;fill-opacity:1" d="M 38 22 L 38 23 L 37 23 L 37 22 L 38 22 " stroke-width="1" fill="undefined"/>
<path style="fill:#4A9229;fill-opacity:1" d="M 36 23 L 36 22 L 37 22 L 37 23 L 36 23 " stroke-width="1" fill="undefined"/>
<path style="fill:#BF98CD;fill-opacity:1" d="M 38 23 L 38 24 L 37 24 L 37 23 L 38 23 " stroke-width="1" fill="undefined"/>
<path style="fill:#6C7C57;fill-opacity:1" d="M 37 23 L 37 24 L 36 24 L 36 23 L 37 23 " stroke-width="1" fill="undefined"/>
<path style="fill:#B8CBA9;fill-opacity:1" d="M 36 25 L 36 24 L 37 24 L 37 25 L 36 25 " stroke-width="1" fill="undefined"/>
<path style="fill:#92AC7A;fill-opacity:1" d="M 37 26 L 37 27 L 36 27 L 36 26 L 37 26 " stroke-width="1" fill="undefined"/>
<path style="fill:#B5A3B7;fill-opacity:1" d="M 37 27 L 38 27 L 38 28 L 37 28 L 37 27 " stroke-width="1" fill="undefined"/>
<path style="fill:#4B7A28;fill-opacity:1" d="M 36 28 L 36 27 L 37 27 L 37 28 L 36 28 " stroke-width="1" fill="undefined"/>
<path style="fill:#536C36;fill-opacity:1" d="M 38 29 L 37 29 L 37 28 L 38 28 L 38 29 " stroke-width="1" fill="undefined"/>
<path style="fill:#C9A7D4;fill-opacity:1" d="M 39 28 L 38 28 L 38 27 L 39 27 L 39 28 " stroke-width="1" fill="undefined"/>
<path style="fill:#C19ACE;fill-opacity:1" d="M 39 28 L 39 27 L 40 27 L 40 28 L 39 28 " stroke-width="1" fill="undefined"/>
<path style="fill:#BDCEAE;fill-opacity:1" d="M 36 26 L 36 25 L 37 25 L 37 26 L 36 26 " stroke-width="1" fill="undefined"/>
<path style="fill:#83568C;fill-opacity:1" d="M 39 29 L 38 29 L 38 28 L 39 28 L 39 29 " stroke-width="1" fill="undefined"/>
<path style="fill:#596940;fill-opacity:1" d="M 39 29 L 40 29 L 40 30 L 39 30 L 39 29 " stroke-width="1" fill="undefined"/>
<path style="fill:#53BD33;fill-opacity:1" d="M 41 30 L 41 31 L 40 31 L 40 30 L 41 30 " stroke-width="1" fill="undefined"/>
<path style="fill:#4EBC2E;fill-opacity:1" d="M 38 30 L 39 30 L 40 30 L 40 31 L 39 31 L 38 31 L 38 30 " stroke-width="1" fill="undefined"/>
<path style="fill:#5E6749;fill-opacity:1" d="M 40 30 L 40 29 L 41 29 L 41 30 L 40 30 " stroke-width="1" fill="undefined"/>
<path style="fill:#467820;fill-opacity:1" d="M 39 29 L 39 30 L 38 30 L 38 29 L 39 29 " stroke-width="1" fill="undefined"/>
<path style="fill:#507032;fill-opacity:1" d="M 41 30 L 41 29 L 42 29 L 42 30 L 41 30 " stroke-width="1" fill="undefined"/>
<path style="fill:#55C036;fill-opacity:1" d="M 37 30 L 38 30 L 38 31 L 37 31 L 37 30 " stroke-width="1" fill="undefined"/>
<path style="fill:#449C21;fill-opacity:1" d="M 37 29 L 38 29 L 38 30 L 37 30 L 37 29 " stroke-width="1" fill="undefined"/>
<path style="fill:#69DE46;fill-opacity:1" d="M 37 30 L 37 31 L 36.25 30.75 Q 36 30.5 36 30 L 37 30 " stroke-width="1" fill="undefined"/>
<path style="fill:#4CB82D;fill-opacity:1" d="M 37 29 L 37 30 L 36 30 L 36 29 L 37 29 " stroke-width="1" fill="undefined"/>
<path style="fill:#66DA42;fill-opacity:1" d="M 44 31 L 44 30 L 45 30 L 45 31 L 44 31 " stroke-width="1" fill="undefined"/>
<path style="fill:#1E4812;fill-opacity:1" d="M 46 29 L 45.75 29.75 L 45 30 L 45 29 L 46 29 " stroke-width="1" fill="undefined"/>
<path style="fill:#367F20;fill-opacity:1" d="M 44 32 L 44 31 L 45 31 L 45 32 L 44 32 " stroke-width="1" fill="undefined"/>
<path style="fill:#53A12D;fill-opacity:1" d="M 42 29 L 43 29 L 42.75 29.75 L 42 30 L 42 29 " stroke-width="1" fill="undefined"/>
<path style="fill:#2C6A19;fill-opacity:1" d="M 43.75 33.75 L 43 34 L 43 33 L 44 33 L 43.75 33.75 " stroke-width="1" fill="undefined"/>
<path style="fill:#4CAE2F;fill-opacity:1" d="M 43 35 L 42 35 L 42 34 L 43 34 L 43 35 " stroke-width="1" fill="undefined"/>
<path style="fill:#122E0A;fill-opacity:1" d="M 45 32 L 45 33 L 44 33 L 44 32 L 45 32 " stroke-width="1" fill="undefined"/>
<path style="fill:#000000;fill-opacity:0.835294" d="M 45 34 L 45 33 L 46 33 L 46 34 L 45 34 " stroke-width="1" fill="undefined"/>
<path style="fill:#000000;fill-opacity:0.360784" d="M 47 32 L 46.75 32.75 L 46 33 L 46 32 L 47 32 " stroke-width="1" fill="undefined"/>
<path style="fill:#000000;fill-opacity:0.756863" d="M 46 32 L 46 31 L 47 31 L 47 32 L 46 32 " stroke-width="1" fill="undefined"/>
<path style="fill:#459D21;fill-opacity:1" d="M 36 29 L 36 28 L 37 28 L 37 29 L 36 29 " stroke-width="1" fill="undefined"/>
<path style="fill:#8F51A1;fill-opacity:1" d="M 41 29 L 41 28 L 42 28 L 42 29 L 41 29 " stroke-width="1" fill="undefined"/>
<path style="fill:#000000;fill-opacity:0.172549" d="M 47 24 L 47 23 L 47.75 23.25 L 48 24 L 47 24 " stroke-width="1" fill="undefined"/>
<path style="fill:#000000;fill-opacity:0.372549" d="M 47 25 L 47 24 L 48 24 L 48 25 L 47 25 " stroke-width="1" fill="undefined"/>
<path style="fill:#000000;fill-opacity:0.517647" d="M 47 26 L 47 25 L 48 25 L 48 26 L 47 26 " stroke-width="1" fill="undefined"/>
<path style="fill:#000000;fill-opacity:0.596078" d="M 48 26 L 48 27 L 48 28 L 47 28 L 47 27 L 47 26 L 48 26 " stroke-width="1" fill="undefined"/>
<path style="fill:#000000;fill-opacity:0.498039" d="M 47 29 L 47 28 L 48 28 L 48 29 L 47 29 M 22 45 L 21 45 L 21 44 L 22 44 L 22 45 " stroke-width="1" fill="undefined"/>
<path style="fill:#000000;fill-opacity:0.356863" d="M 47 30 L 47 29 L 48 29 L 48 30 L 47 30 " stroke-width="1" fill="undefined"/>
<path style="fill:#000000;fill-opacity:0.686275" d="M 46 21 L 47 21 L 47 22 L 46 22 L 46 21 " stroke-width="1" fill="undefined"/>
<path style="fill:#83EB60;fill-opacity:1" d="M 36 11 Q 35.5 11 35.25 10.75 Q 35 10.5 35 10 L 36 10 L 36 11 " stroke-width="1" fill="undefined"/>
<path style="fill:#65CE37;fill-opacity:1" d="M 28 19 L 28 18 L 28.75 18.25 L 29 19 L 28 19 " stroke-width="1" fill="undefined"/>
<path style="fill:#5FB721;fill-opacity:1" d="M 27 18 L 28 18 L 28 19 L 27 19 L 27 18 " stroke-width="1" fill="undefined"/>
<path style="fill:#95DB00;fill-opacity:1" d="M 28 20 L 27 20 L 27 19 L 28 19 L 28 20 " stroke-width="1" fill="undefined"/>
<path style="fill:#C8FA0D;fill-opacity:1" d="M 28 20 L 28 21 L 27 21 L 27 20 L 28 20 " stroke-width="1" fill="undefined"/>
<path style="fill:#ACEE00;fill-opacity:1" d="M 26 21 Q 25.5 21 25.4 20.8 Q 25 20 25 19 L 26 19 L 27 19 L 27 20 L 26 20 L 26 21 " stroke-width="1" fill="undefined"/>
<path style="fill:#BEF70A;fill-opacity:1" d="M 32 24 L 32 25 L 31.25 24.75 Q 31 24.5 31 24 L 32 24 M 28 21 L 28 20 L 29 20 L 29 21 L 28 21 " stroke-width="1" fill="undefined"/>
<path style="fill:#7ABF02;fill-opacity:1" d="M 29 19 L 29 20 L 28 20 L 28 19 L 29 19 " stroke-width="1" fill="undefined"/>
<path style="fill:#ACEE02;fill-opacity:1" d="M 28 22 Q 27.5 22 27.25 21.75 Q 27 21.5 27 21 L 28 21 L 28 22 " stroke-width="1" fill="undefined"/>
<path style="fill:#BEF709;fill-opacity:1" d="M 26 20 L 27 20 L 27 21 L 26 21 L 26 20 " stroke-width="1" fill="undefined"/>
<path style="fill:#65D038;fill-opacity:1" d="M 30 20 L 30 19 L 30.75 19.25 L 31 20 L 30 20 " stroke-width="1" fill="undefined"/>
<path style="fill:#5FAE14;fill-opacity:1" d="M 30 20 L 29 20 L 29 19 L 30 19 L 30 20 " stroke-width="1" fill="undefined"/>
<path style="fill:#A1E500;fill-opacity:1" d="M 29 20 L 30 20 L 30 21 L 29 21 L 29 20 " stroke-width="1" fill="undefined"/>
<path style="fill:#D3FF13;fill-opacity:1" d="M 30 22 L 29 22 L 29 21 L 30 21 L 30 22 " stroke-width="1" fill="undefined"/>
<path style="fill:#70B505;fill-opacity:1" d="M 30 21 L 30 20 L 31 20 L 31 21 L 30 21 " stroke-width="1" fill="undefined"/>
<path style="fill:#B6F406;fill-opacity:1" d="M 30 22 L 30 21 L 31 21 L 31 22 L 30 22 " stroke-width="1" fill="undefined"/>
<path style="fill:#60BF2C;fill-opacity:1" d="M 31 21 L 31 20 L 31.75 20.25 L 32 21 L 31 21 " stroke-width="1" fill="undefined"/>
<path style="fill:#64B314;fill-opacity:1" d="M 26 18 L 27 18 L 27 19 L 26 19 L 26 18 " stroke-width="1" fill="undefined"/>
<path style="fill:#C5FB0D;fill-opacity:1" d="M 28 21 L 29 21 L 29 22 L 28 22 L 28 21 " stroke-width="1" fill="undefined"/>
<path style="fill:#5FBE2A;fill-opacity:1" d="M 32 22 L 32 21 L 32.75 21.25 L 33 22 L 32 22 " stroke-width="1" fill="undefined"/>
<path style="fill:#7CC102;fill-opacity:1" d="M 31 22 L 31 21 L 32 21 L 32 22 L 31 22 " stroke-width="1" fill="undefined"/>
<path style="fill:#68D73F;fill-opacity:1" d="M 21 19 L 20 19 L 20 18 L 21 18 L 21 19 " stroke-width="1" fill="undefined"/>
<path style="fill:#61C22D;fill-opacity:1" d="M 18 21 L 17 21 L 17 20 L 18 20 L 18 21 M 27 36 L 28 36 L 27.75 36.75 L 27 37 L 27 36 " stroke-width="1" fill="undefined"/>
<path style="fill:#76BA02;fill-opacity:1" d="M 17 22 L 17 21 L 18 21 Q 18 21.5 17.75 21.75 Q 17.5 22 17 22 " stroke-width="1" fill="undefined"/>
<path style="fill:#68D63E;fill-opacity:1" d="M 19 20 L 18 20 L 18 19 L 19 19 L 19 20 " stroke-width="1" fill="undefined"/>
<path style="fill:#6DB307;fill-opacity:1" d="M 19 21 L 18 21 L 18 20 L 19 20 L 19 21 " stroke-width="1" fill="undefined"/>
<path style="fill:#94D900;fill-opacity:1" d="M 22 19 Q 22 19.5 21.75 19.75 Q 21.5 20 21 20 L 21 19 L 22 19 " stroke-width="1" fill="undefined"/>
<path style="fill:#7ABF05;fill-opacity:1" d="M 20 19 L 21 19 L 21 20 L 20 20 L 20 19 " stroke-width="1" fill="undefined"/>
<path style="fill:#62B71D;fill-opacity:1" d="M 19 20 L 19 19 L 20 19 L 20 20 L 19 20 " stroke-width="1" fill="undefined"/>
<path style="fill:#9ADF00;fill-opacity:1" d="M 19 20 L 20 20 Q 20 20.5 19.75 20.75 Q 19.5 21 19 21 L 19 20 " stroke-width="1" fill="undefined"/>
<path style="fill:#61C02A;fill-opacity:1" d="M 21 19 L 21 18 L 22 18 L 22 19 L 21 19 " stroke-width="1" fill="undefined"/>
<path style="fill:#6DB50B;fill-opacity:1" d="M 26 19 L 25 19 L 24 19 L 23 19 L 23 18 L 25 18 L 26 18 L 26 19 " stroke-width="1" fill="undefined"/>
<path style="fill:#65B616;fill-opacity:1" d="M 23 19 L 22 19 L 22 18 L 23 18 L 23 19 " stroke-width="1" fill="undefined"/>
<path style="fill:#9ADD00;fill-opacity:1" d="M 23 24 L 23 23 Q 23.5 23 23.75 23.25 Q 24 23.5 24 24 L 23 24 " stroke-width="1" fill="undefined"/>
<path style="fill:#4E8009;fill-opacity:1" d="M 24 24 L 24 25 L 23 25 L 23 24 L 24 24 " stroke-width="1" fill="undefined"/>
<path style="fill:#4B7C09;fill-opacity:1" d="M 23 24 L 22 24 L 22 23 L 23 23 L 23 24 " stroke-width="1" fill="undefined"/>
<path style="fill:#14380F;fill-opacity:1" d="M 21 27 L 20 27 L 20 26 L 20 25 L 20 24 L 21 24 L 22 24 L 23 24 L 23 25 L 23 26 L 23 27 L 22 27 L 21 27 M 27.75 26.75 L 28 26 L 29 26 L 30 26 L 30 27 L 30 28 L 29 28 L 29 29 L 28 29 L 27.75 28.25 L 27 28 L 27 27 L 27.75 26.75 " stroke-width="1" fill="undefined"/>
<path style="fill:#35610B;fill-opacity:1" d="M 21 24 L 21 23 L 22 23 L 22 24 L 21 24 " stroke-width="1" fill="undefined"/>
<path style="fill:#2B530B;fill-opacity:1" d="M 22 28 L 22 27 L 23 27 L 23 28 L 22 28 " stroke-width="1" fill="undefined"/>
<path style="fill:#72A800;fill-opacity:1" d="M 22 30 L 22 31 L 22 32 L 22 33 Q 22 33.5 21.8 33.6 L 20 34 Q 20 33.5 19.75 33.25 Q 19.5 33 19 33 L 19 32 L 19.75 31.75 L 20 31 L 20 30 L 20 29 L 20 28 L 21 28 Q 21.5 28.5 22 28.5 L 22 28 L 23 28 L 24 28 L 24 29 L 23 29 L 23 30 L 22 30 " stroke-width="1" fill="undefined"/>
<path style="fill:#234B0D;fill-opacity:1" d="M 23 26 L 23 25 L 24 25 L 24 26 L 24 27 L 23 27 L 23 26 M 21 28 L 21 27 L 22 27 L 22 28 L 21 28 " stroke-width="1" fill="undefined"/>
<path style="fill:#629502;fill-opacity:1" d="M 23 28 L 23 27 L 24 27 L 24 28 L 23 28 " stroke-width="1" fill="undefined"/>
<path style="fill:#9FE300;fill-opacity:1" d="M 24 26 L 24 25 Q 25.65 24.85 24.65 26.8 L 24 27 L 24 26 " stroke-width="1" fill="undefined"/>
<path style="fill:#9BDD00;fill-opacity:1" d="M 27 27 L 26 27 L 26 26 L 27 26 L 27 27 " stroke-width="1" fill="undefined"/>
<path style="fill:#8DCE01;fill-opacity:1" d="M 27 27 L 27 28 L 26.25 27.75 L 26 27 L 27 27 " stroke-width="1" fill="undefined"/>
<path style="fill:#70A905;fill-opacity:1" d="M 20 24 L 20 23 L 21 23 L 21 24 L 20 24 " stroke-width="1" fill="undefined"/>
<path style="fill:#7CB704;fill-opacity:1" d="M 19 25 L 19 24 L 20 24 L 20 25 L 19 25 " stroke-width="1" fill="undefined"/>
<path style="fill:#4D7E09;fill-opacity:1" d="M 19 26 L 19 25 L 20 25 L 20 26 L 19 26 " stroke-width="1" fill="undefined"/>
<path style="fill:#77AF00;fill-opacity:1" d="M 20 27 L 20 28 L 19 28 L 19 27 L 20 27 " stroke-width="1" fill="undefined"/>
<path style="fill:#3F6D09;fill-opacity:1" d="M 20 27 L 21 27 L 21 28 L 20 28 L 20 27 " stroke-width="1" fill="undefined"/>
<path style="fill:#487708;fill-opacity:1" d="M 20 26 L 20 27 L 19 27 L 19 26 L 20 26 " stroke-width="1" fill="undefined"/>
<path style="fill:#83BE00;fill-opacity:1" d="M 19 29 L 19 28 L 20 28 L 20 29 L 19 29 M 24 29 Q 24 29.5 23.75 29.75 L 23 30 L 23 29 L 24 29 " stroke-width="1" fill="undefined"/>
<path style="fill:#94D300;fill-opacity:1" d="M 20 30 L 20 31 L 19 31 L 18 31 L 18 30 L 19 30 L 20 30 " stroke-width="1" fill="undefined"/>
<path style="fill:#89C700;fill-opacity:1" d="M 20 29 L 20 30 L 19 30 L 19 29 L 20 29 " stroke-width="1" fill="undefined"/>
<path style="fill:#80BB00;fill-opacity:1" d="M 19.75 31.75 L 19 32 L 19 31 L 20 31 L 19.75 31.75 " stroke-width="1" fill="undefined"/>
<path style="fill:#99DA00;fill-opacity:1" d="M 17 30 L 17 29 Q 17.5 29 17.75 29.25 Q 18 29.5 18 30 L 17 30 " stroke-width="1" fill="undefined"/>
<path style="fill:#7EBC01;fill-opacity:1" d="M 17 31 L 17 30 L 18 30 L 18 31 L 17 31 " stroke-width="1" fill="undefined"/>
<path style="fill:#57A918;fill-opacity:1" d="M 17 32 L 17 31 L 18 31 L 18 32 L 17 32 " stroke-width="1" fill="undefined"/>
<path style="fill:#69DA41;fill-opacity:1" d="M 18 33 L 17.25 32.75 L 17 32 L 18 32 L 18 33 " stroke-width="1" fill="undefined"/>
<path style="fill:#559907;fill-opacity:1" d="M 19 33 L 18 33 L 18 32 L 19 32 L 19 33 " stroke-width="1" fill="undefined"/>
<path style="fill:#59AD1C;fill-opacity:1" d="M 21 36 L 22 36 L 22 37 L 21 37 L 21 36 M 18 34 L 18 33 L 19 33 L 19 34 L 18 34 " stroke-width="1" fill="undefined"/>
<path style="fill:#68A101;fill-opacity:1" d="M 19 33 Q 19.5 33 19.75 33.25 Q 20 33.5 20 34 L 19 34 L 19 33 " stroke-width="1" fill="undefined"/>
<path style="fill:#569C0A;fill-opacity:1" d="M 20 35 L 19 35 L 19 34 L 20 34 L 20 35 " stroke-width="1" fill="undefined"/>
<path style="fill:#6BAA02;fill-opacity:1" d="M 19 32 L 18 32 L 18 31 L 19 31 L 19 32 " stroke-width="1" fill="undefined"/>
<path style="fill:#68D73E;fill-opacity:1" d="M 19 34 L 19 35 L 18.25 34.75 L 18 34 L 19 34 " stroke-width="1" fill="undefined"/>
<path style="fill:#8FCE00;fill-opacity:1" d="M 23 30 L 22.75 30.75 L 22 31 L 22 30 L 23 30 " stroke-width="1" fill="undefined"/>
<path style="fill:#91D300;fill-opacity:1" d="M 23 33 L 23 32 L 24 32 L 24 33 L 23 33 " stroke-width="1" fill="undefined"/>
<path style="fill:#7FBE01;fill-opacity:1" d="M 23 33 L 22 33 L 22 32 L 23 32 L 23 33 " stroke-width="1" fill="undefined"/>
<path style="fill:#6DA400;fill-opacity:1" d="M 27 35 L 27 36 L 26 36 L 25 36 L 24 36 L 23 36 L 22 36 L 21 36 Q 21 35.5 20.75 35.25 Q 20.5 35 20 35 L 20 34 L 21.8 33.6 Q 22 33.5 22 33 L 23 33 Q 23.5 33.5 24 33.5 L 24 33 L 25 33 L 26 33 L 26.25 33.75 L 27 34 L 27 35 " stroke-width="1" fill="undefined"/>
<path style="fill:#63A104;fill-opacity:1" d="M 24 33 L 24 33.5 Q 23.5 33.5 23 33 L 24 33 " stroke-width="1" fill="undefined"/>
<path style="fill:#9EE000;fill-opacity:1" d="M 24 32 L 24.75 32.25 L 25 33 L 24 33 L 24 32 " stroke-width="1" fill="undefined"/>
<path style="fill:#70AF02;fill-opacity:1" d="M 27 34 L 26.25 33.75 L 26 33 L 27 33 L 27 34 " stroke-width="1" fill="undefined"/>
<path style="fill:#6EA300;fill-opacity:1" d="M 21 28 L 22 28 L 22 28.5 Q 21.5 28.5 21 28 " stroke-width="1" fill="undefined"/>
<path style="fill:#5CBD2D;fill-opacity:1" d="M 35 25 L 34 25 L 34 24 L 35 24 L 35 25 " stroke-width="1" fill="undefined"/>
<path style="fill:#86CB01;fill-opacity:1" d="M 33 25 L 33 24 L 34 24 L 34 25 L 33 25 " stroke-width="1" fill="undefined"/>
<path style="fill:#5DAF15;fill-opacity:1" d="M 35 26 L 34 26 L 34 25 L 35 25 L 35 26 " stroke-width="1" fill="undefined"/>
<path style="fill:#449520;fill-opacity:1" d="M 36 26 L 36 27 L 35 27 L 35 26 L 35 25 L 35 24 L 36 24 L 36 25 L 36 26 " stroke-width="1" fill="undefined"/>
<path style="fill:#4CAC2C;fill-opacity:1" d="M 36 24 L 35 24 L 35 23 L 36 23 L 36 24 " stroke-width="1" fill="undefined"/>
<path style="fill:#63AF0F;fill-opacity:1" d="M 33 24 L 33 23 L 34 23 L 34 24 L 33 24 " stroke-width="1" fill="undefined"/>
<path style="fill:#65CD36;fill-opacity:1" d="M 33 23 L 33 22 L 33.75 22.25 L 34 23 L 33 23 " stroke-width="1" fill="undefined"/>
<path style="fill:#74B904;fill-opacity:1" d="M 32 23 L 32 22 L 33 22 L 33 23 L 32 23 " stroke-width="1" fill="undefined"/>
<path style="fill:#B8F507;fill-opacity:1" d="M 31 23 L 31 22 L 32 22 L 32 23 L 31 23 " stroke-width="1" fill="undefined"/>
<path style="fill:#C6FC0C;fill-opacity:1" d="M 33 26 L 32 26 L 32 25 L 32 24 L 33 24 L 33 25 L 33 26 " stroke-width="1" fill="undefined"/>
<path style="fill:#AAEB01;fill-opacity:1" d="M 32 24 L 32 23 L 33 23 L 33 24 L 32 24 " stroke-width="1" fill="undefined"/>
<path style="fill:#D4FF15;fill-opacity:1" d="M 31 24 L 31 23 L 32 23 L 32 24 L 31 24 " stroke-width="1" fill="undefined"/>
<path style="fill:#BAF705;fill-opacity:1" d="M 33 26 L 32.75 26.75 L 32 27 L 32 26 L 33 26 " stroke-width="1" fill="undefined"/>
<path style="fill:#ACEF00;fill-opacity:1" d="M 34 26 L 34 27 L 34 28 L 33.1 27.8 Q 32.5 27.5 32 27 L 32.75 26.75 L 33 26 L 34 26 " stroke-width="1" fill="undefined"/>
<path style="fill:#6CB409;fill-opacity:1" d="M 34 26 L 35 26 L 35 27 L 34 27 L 34 26 " stroke-width="1" fill="undefined"/>
<path style="fill:#77BC05;fill-opacity:1" d="M 35 29 L 35 30 L 34 30 L 34 29 L 34 28 L 34 27 L 35 27 L 35 28 L 35 29 " stroke-width="1" fill="undefined"/>
<path style="fill:#45AC25;fill-opacity:1" d="M 36 27 L 36 28 L 35 28 L 35 27 L 36 27 " stroke-width="1" fill="undefined"/>
<path style="fill:#4FB830;fill-opacity:1" d="M 36 29 L 35 29 L 35 28 L 36 28 L 36 29 " stroke-width="1" fill="undefined"/>
<path style="fill:#A4E800;fill-opacity:1" d="M 33 25 L 34 25 L 34 26 L 33 26 L 33 25 " stroke-width="1" fill="undefined"/>
<path style="fill:#D5FF15;fill-opacity:1" d="M 31 22 L 31 23 L 30 23 L 30 22 L 31 22 " stroke-width="1" fill="undefined"/>
<path style="fill:#B7F406;fill-opacity:1" d="M 30 23 L 29.25 22.75 L 29 22 L 30 22 L 30 23 " stroke-width="1" fill="undefined"/>
<path style="fill:#3D6B0B;fill-opacity:1" d="M 30 26 L 29 26 L 29 25 L 30 25 L 30 26 " stroke-width="1" fill="undefined"/>
<path style="fill:#B4F305;fill-opacity:1" d="M 31 24 L 30.25 23.75 Q 30 23.5 30 23 L 31 23 L 31 24 " stroke-width="1" fill="undefined"/>
<path style="fill:#89C802;fill-opacity:1" d="M 28 26 L 27 26 L 27 25 L 28 25 L 28 26 " stroke-width="1" fill="undefined"/>
<path style="fill:#2D570C;fill-opacity:1" d="M 28 26 L 27.75 26.75 L 27 27 L 27 26 L 28 26 " stroke-width="1" fill="undefined"/>
<path style="fill:#98DB00;fill-opacity:1" d="M 30 25 L 30.75 25.25 L 31 26 L 30 26 L 30 25 " stroke-width="1" fill="undefined"/>
<path style="fill:#1E440D;fill-opacity:1" d="M 30 29 L 29 29 L 29 28 L 30 28 L 30 29 " stroke-width="1" fill="undefined"/>
<path style="fill:#427109;fill-opacity:1" d="M 30 28 L 30 27 L 31 27 L 31 28 L 30 28 " stroke-width="1" fill="undefined"/>
<path style="fill:#5E9207;fill-opacity:1" d="M 31 26 L 31 27 L 30 27 L 30 26 L 31 26 " stroke-width="1" fill="undefined"/>
<path style="fill:#71A904;fill-opacity:1" d="M 30 28 L 31 28 L 31 29 L 30 29 L 30 28 " stroke-width="1" fill="undefined"/>
<path style="fill:#34600C;fill-opacity:1" d="M 29 26 L 28 26 L 28 25 L 29 25 L 29 26 " stroke-width="1" fill="undefined"/>
<path style="fill:#95D500;fill-opacity:1" d="M 30 29 L 31 29 L 30.75 29.75 L 30 30 L 30 29 " stroke-width="1" fill="undefined"/>
<path style="fill:#71A600;fill-opacity:1" d="M 28 29 L 29 29 L 30 29 L 30 30 L 29 30 L 28 30 L 28 29 " stroke-width="1" fill="undefined"/>
<path style="fill:#8BC900;fill-opacity:1" d="M 28 30 L 29 30 L 30 30 Q 30 30.5 29.8 30.6 L 28 31 L 28 30 " stroke-width="1" fill="undefined"/>
<path style="fill:#9FE200;fill-opacity:1" d="M 28 30 L 28 31 L 27.25 30.75 Q 27 30.5 27 30 L 28 30 " stroke-width="1" fill="undefined"/>
<path style="fill:#7FB900;fill-opacity:1" d="M 27 30 L 27 29 L 28 29 L 28 30 L 27 30 " stroke-width="1" fill="undefined"/>
<path style="fill:#406D08;fill-opacity:1" d="M 27 29 L 27 28 L 27.75 28.25 L 28 29 L 27 29 " stroke-width="1" fill="undefined"/>
<path style="fill:#7BBB01;fill-opacity:1" d="M 27 34 L 27 33 L 28 33 L 28 34 L 27 34 " stroke-width="1" fill="undefined"/>
<path style="fill:#73A900;fill-opacity:1" d="M 27 34 L 28 34 L 28 35 L 27 35 L 27 34 " stroke-width="1" fill="undefined"/>
<path style="fill:#85C400;fill-opacity:1" d="M 29 34 L 28 34 L 28 33 L 29 33 L 29 34 " stroke-width="1" fill="undefined"/>
<path style="fill:#76B601;fill-opacity:1" d="M 30 34 L 29 34 L 29 33 L 30 33 L 30 34 " stroke-width="1" fill="undefined"/>
<path style="fill:#5DB824;fill-opacity:1" d="M 30 35 L 29 35 L 29 34 L 30 34 L 30 35 " stroke-width="1" fill="undefined"/>
<path style="fill:#71B002;fill-opacity:1" d="M 30 34 L 30 33 L 31 33 L 31 34 L 30 34 " stroke-width="1" fill="undefined"/>
<path style="fill:#67A704;fill-opacity:1" d="M 32 34 L 31 34 L 31 33 L 32 33 L 32 34 " stroke-width="1" fill="undefined"/>
<path style="fill:#9BDC00;fill-opacity:1" d="M 32 33 L 31 33 L 30 33 L 30 32 L 31 32 L 32 32 L 32 33 " stroke-width="1" fill="undefined"/>
<path style="fill:#62C42F;fill-opacity:1" d="M 30 34 L 31 34 L 31 35 L 30 35 L 30 34 " stroke-width="1" fill="undefined"/>
<path style="fill:#63A202;fill-opacity:1" d="M 28 34 L 29 34 L 29 35 L 28 35 L 28 34 " stroke-width="1" fill="undefined"/>
<path style="fill:#69B40E;fill-opacity:1" d="M 35 30 L 35 31 L 34 31 L 34 30 L 35 30 " stroke-width="1" fill="undefined"/>
<path style="fill:#62C32C;fill-opacity:1" d="M 35 31 L 34.75 31.75 L 34 32 L 34 31 L 35 31 " stroke-width="1" fill="undefined"/>
<path style="fill:#5EAF17;fill-opacity:1" d="M 33 33 L 33 32 L 34 32 L 34 33 L 33 33 " stroke-width="1" fill="undefined"/>
<path style="fill:#87C400;fill-opacity:1" d="M 33 33 L 32 33 L 32 32 L 33 32 L 33 33 " stroke-width="1" fill="undefined"/>
<path style="fill:#5CAD18;fill-opacity:1" d="M 33 34 L 32 34 L 32 33 L 33 33 L 33 34 " stroke-width="1" fill="undefined"/>
<path style="fill:#6ADD44;fill-opacity:1" d="M 34 33 L 33.75 33.75 L 33 34 L 33 33 L 34 33 " stroke-width="1" fill="undefined"/>
<path style="fill:#88CC01;fill-opacity:1" d="M 34 32 L 33 32 L 33 31 L 34 31 L 34 32 " stroke-width="1" fill="undefined"/>
<path style="fill:#66D139;fill-opacity:1" d="M 31 34 L 32 34 L 31.75 34.75 L 31 35 L 31 34 " stroke-width="1" fill="undefined"/>
<path style="fill:#68DD45;fill-opacity:1" d="M 33 41 L 32 41 L 32 40 L 33 40 L 33 41 " stroke-width="1" fill="undefined"/>
<path style="fill:#5BCC38;fill-opacity:1" d="M 34 41 L 33 41 L 33 40 L 34 40 L 34 41 " stroke-width="1" fill="undefined"/>
<path style="fill:#30781B;fill-opacity:1" d="M 34 40 L 35 40 L 35 41 L 34 41 L 34 40 " stroke-width="1" fill="undefined"/>
<path style="fill:#65DA41;fill-opacity:1" d="M 35 40 L 35 39 L 36 39 L 36 40 L 35 40 " stroke-width="1" fill="undefined"/>
<path style="fill:#13320A;fill-opacity:1" d="M 35 40 L 36 40 L 36 41 L 35 41 L 35 40 " stroke-width="1" fill="undefined"/>
<path style="fill:#35821E;fill-opacity:1" d="M 37 40 L 36 40 L 36 39 L 37 39 L 37 40 " stroke-width="1" fill="undefined"/>
<path style="fill:#629D02;fill-opacity:1" d="M 27 36 L 27 35 L 28 35 L 28 36 L 27 36 " stroke-width="1" fill="undefined"/>
<path style="fill:#5FBC28;fill-opacity:1" d="M 29 35 L 28.75 35.75 L 28 36 L 28 35 L 29 35 " stroke-width="1" fill="undefined"/>
<path style="fill:#58A10F;fill-opacity:1" d="M 27 36 L 27 37 L 26 37 L 26 36 L 27 36 " stroke-width="1" fill="undefined"/>
<path style="fill:#30791C;fill-opacity:1" d="M 32 42 L 31 42 L 31 41 L 32 41 L 32 42 " stroke-width="1" fill="undefined"/>
<path style="fill:#4AAB2C;fill-opacity:1" d="M 30 42 L 30 41 L 31 41 L 31 42 L 30 42 " stroke-width="1" fill="undefined"/>
<path style="fill:#58BF37;fill-opacity:1" d="M 30 42 L 29 42 L 29 41 L 30 41 L 30 42 " stroke-width="1" fill="undefined"/>
<path style="fill:#65D841;fill-opacity:1" d="M 28 42 L 28 41 L 29 41 L 29 42 L 28 42 " stroke-width="1" fill="undefined"/>
<path style="fill:#000000;fill-opacity:0.913725" d="M 30 44 L 29 44 L 29 43 L 30 43 L 30 44 " stroke-width="1" fill="undefined"/>
<path style="fill:#000000;fill-opacity:0.839216" d="M 31 44 L 30 44 L 30 43 L 31 43 L 31 44 " stroke-width="1" fill="undefined"/>
<path style="fill:#0C2006;fill-opacity:1" d="M 29 42 L 29 43 L 28 43 L 28 42 L 29 42 " stroke-width="1" fill="undefined"/>
<path style="fill:#0F2808;fill-opacity:1" d="M 28 42 L 28 43 L 27 43 L 27 42 L 28 42 " stroke-width="1" fill="undefined"/>
<path style="fill:#69DD46;fill-opacity:1" d="M 26 42 L 26 41 L 27 41 L 28 41 L 28 42 L 27 42 L 26 42 " stroke-width="1" fill="undefined"/>
<path style="fill:#1F4C10;fill-opacity:1" d="M 27 42 L 27 43 L 26 43 L 26 42 L 27 42 " stroke-width="1" fill="undefined"/>
<path style="fill:#000000;fill-opacity:0.415686" d="M 37 41 L 38 41 L 37.75 41.75 L 37 42 L 37 41 M 26 44 L 27 44 L 27 45 L 26 45 L 26 44 " stroke-width="1" fill="undefined"/>
<path style="fill:#000000;fill-opacity:0.0705882" d="M 30 44 L 29.75 44.75 L 29 45 L 29 44 L 30 44 " stroke-width="1" fill="undefined"/>
<path style="fill:#000000;fill-opacity:0.67451" d="M 32 44 L 31 44 L 31 43 L 32 43 L 32 44 " stroke-width="1" fill="undefined"/>
<path style="fill:#000000;fill-opacity:0.866667" d="M 36 42 L 36 41 L 37 41 L 37 42 L 36 42 " stroke-width="1" fill="undefined"/>
<path style="fill:#000000;fill-opacity:0.752941" d="M 35 43 L 34 43 L 34 42 L 35 42 L 35 43 " stroke-width="1" fill="undefined"/>
<path style="fill:#000000;fill-opacity:0.384314" d="M 32 43 L 33 43 L 33 44 L 32 44 L 32 43 " stroke-width="1" fill="undefined"/>
<path style="fill:#1B450E;fill-opacity:1" d="M 32 42 L 32 41 L 33 41 L 32.75 41.75 L 32 42 " stroke-width="1" fill="undefined"/>
<path style="fill:#5D9B03;fill-opacity:1" d="M 24 36 L 25 36 L 26 36 L 26 37 L 25 37 L 24 37 L 24 36 " stroke-width="1" fill="undefined"/>
<path style="fill:#5A9A05;fill-opacity:1" d="M 22 36 L 23 36 L 24 36 L 24 37 L 23 37 L 22 37 L 22 36 " stroke-width="1" fill="undefined"/>
<path style="fill:#579D0B;fill-opacity:1" d="M 20 35 Q 20.5 35 20.75 35.25 Q 21 35.5 21 36 L 20 36 L 20 35 " stroke-width="1" fill="undefined"/>
<path style="fill:#66D039;fill-opacity:1" d="M 20 36 L 19.25 35.75 L 19 35 L 20 35 L 20 36 " stroke-width="1" fill="undefined"/>
<path style="fill:#68D63D;fill-opacity:1" d="M 21 36 L 21 37 L 20.25 36.75 L 20 36 L 21 36 " stroke-width="1" fill="undefined"/>
<path style="fill:#68DC44;fill-opacity:1" d="M 19 42 L 19 41 L 20.8 41.4 Q 21 41.5 21 42 L 20 42 L 19 42 " stroke-width="1" fill="undefined"/>
<path style="fill:#205212;fill-opacity:1" d="M 20 42 L 21 42 L 21 43 L 20 43 L 20 42 " stroke-width="1" fill="undefined"/>
<path style="fill:#60D23D;fill-opacity:1" d="M 18 41 L 19 41 L 19 42 L 18 42 L 18 41 " stroke-width="1" fill="undefined"/>
<path style="fill:#16380B;fill-opacity:1" d="M 20 43 L 19.25 42.75 L 19 42 L 20 42 L 20 43 " stroke-width="1" fill="undefined"/>
<path style="fill:#255E15;fill-opacity:1" d="M 22 43 L 21 43 L 21 42 L 22 42 L 22 43 " stroke-width="1" fill="undefined"/>
<path style="fill:#000000;fill-opacity:0.882353" d="M 17 43 Q 17.5 43 17.75 43.25 Q 18 43.5 18 44 L 17 44 L 17 43 " stroke-width="1" fill="undefined"/>
<path style="fill:#4EB22E;fill-opacity:1" d="M 18 42 L 17 42 L 17 41 L 18 41 L 18 42 " stroke-width="1" fill="undefined"/>
<path style="fill:#000000;fill-opacity:0.0431373" d="M 18 44 L 18 45 L 17.25 44.75 L 17 44 L 18 44 " stroke-width="1" fill="undefined"/>
<path style="fill:#000000;fill-opacity:0.168627" d="M 19 45 L 18 45 L 18 44 L 19 44 L 19 45 " stroke-width="1" fill="undefined"/>
<path style="fill:#000000;fill-opacity:0.313725" d="M 19 44 L 20 44 L 20 45 L 19 45 L 19 44 " stroke-width="1" fill="undefined"/>
<path style="fill:#235814;fill-opacity:1" d="M 25 42 L 26 42 L 26 43 L 25 43 L 25 42 " stroke-width="1" fill="undefined"/>
<path style="fill:#2C6C19;fill-opacity:1" d="M 24 42 L 25 42 L 25 43 L 24 43 L 24 42 " stroke-width="1" fill="undefined"/>
<path style="fill:#327E1D;fill-opacity:1" d="M 23 42 L 24 42 L 24 43 L 23 43 L 23 42 " stroke-width="1" fill="undefined"/>
<path style="fill:#2D711A;fill-opacity:1" d="M 23 43 L 22 43 L 22 42 L 23 42 L 23 43 " stroke-width="1" fill="undefined"/>
<path style="fill:#000000;fill-opacity:0.65098" d="M 24 45 L 23 45 L 23 44 L 24 44 L 24 45 " stroke-width="1" fill="undefined"/>
<path style="fill:#000000;fill-opacity:0.74902" d="M 43 37 L 43 36 L 44 36 L 44 37 L 43 37 " stroke-width="1" fill="undefined"/>
<path style="fill:#000000;fill-opacity:0.580392" d="M 44 35 L 45 35 L 44.75 35.75 L 44 36 L 44 35 " stroke-width="1" fill="undefined"/>
<path style="fill:#0B1D06;fill-opacity:1" d="M 42 35 L 43 35 L 43 36 L 42 36 L 42 35 " stroke-width="1" fill="undefined"/>
<path style="fill:#0D2207;fill-opacity:1" d="M 41 37 L 41 36 L 42 36 L 42 37 L 41 37 " stroke-width="1" fill="undefined"/>
<path style="fill:#000000;fill-opacity:0.780392" d="M 42 37 L 43 37 L 43 38 L 42 38 L 42 37 " stroke-width="1" fill="undefined"/>
<path style="fill:#59C839;fill-opacity:1" d="M 41 36 L 41 35 L 42 35 L 42 36 L 41 36 " stroke-width="1" fill="undefined"/>
<path style="fill:#000000;fill-opacity:0.0745098" d="M 42 38 L 43 38 L 42.75 38.75 L 42 39 L 42 38 " stroke-width="1" fill="undefined"/>
<path style="fill:#000000;fill-opacity:0.690196" d="M 41 38 L 42 38 L 42 39 L 41 39 L 41 38 " stroke-width="1" fill="undefined"/>
<path style="fill:#56C036;fill-opacity:1" d="M 40 37 L 40 36 L 41 36 L 41 37 L 40 37 " stroke-width="1" fill="undefined"/>
<path style="fill:#071204;fill-opacity:1" d="M 40 37 L 41 37 L 41 38 L 40 38 L 40 37 " stroke-width="1" fill="undefined"/>
<path style="fill:#419827;fill-opacity:1" d="M 40 38 L 39 38 L 39 37 L 40 37 L 40 38 " stroke-width="1" fill="undefined"/>
<path style="fill:#0E2307;fill-opacity:1" d="M 38 40 L 37 40 L 37 39 L 38 39 L 38 40 " stroke-width="1" fill="undefined"/>
<path style="fill:#1F4E10;fill-opacity:1" d="M 38 39 L 38 38 L 39 38 L 38.75 38.75 L 38 39 " stroke-width="1" fill="undefined"/>
<path style="fill:#63D93F;fill-opacity:1" d="M 38 39 L 37 39 L 37 38 L 38 38 L 38 39 " stroke-width="1" fill="undefined"/>
<path style="fill:#000000;fill-opacity:0.254902" d="M 39 40 L 40 40 L 39.75 40.75 L 39 41 L 39 40 " stroke-width="1" fill="undefined"/>
<path style="fill:#000000;fill-opacity:0.505882" d="M 40 39 L 41 39 L 40.75 39.75 L 40 40 L 40 39 " stroke-width="1" fill="undefined"/>
</g>
</svg>