<?xml version="1.0" encoding="utf-8"?><svg xmlns="http://www.w3.org/2000/svg" xmlns:xlink="http://www.w3.org/1999/xlink" xmlns:author="http://www.sothink.com" version="1.1" id="Layer_1" width="51" height="42.95000076293945" xml:space="preserve" viewBox="-0.5 -0.5 51 42.95000076293945">
<g id="8">
<path style="fill:#000000;fill-opacity:0.168627" d="M 15 6 L 14 6 L 14 5 L 15 5 L 15 6 M 49 26.95 L 49 25.95 L 49 25 L 50 25 L 50 25.95 L 50 26.95 L 49 26.95 M 45 36.95 L 44.75 37.7 L 44 37.95 L 44 36.95 L 45 36.95 M 41 38.95 L 42 38.95 L 41.75 39.7 L 41 39.95 L 41 38.95 M 5 19 L 4 19 L 4 18 L 5 18 L 5 19 " stroke-width="1" fill="undefined"/>
<path style="fill:#000000;fill-opacity:0.843137" d="M 15 6 L 15 6.5 L 15 7 L 15 8 L 14.4 7.8 L 14.05 6.5 L 14 6 L 15 6 " stroke-width="1" fill="undefined"/>
<path style="fill:#000000;fill-opacity:0.0745098" d="M 48 21 L 48 20 L 48.75 20.25 L 49 21 L 48 21 M 49 25 L 49 24 L 49.75 24.25 L 50 25 L 49 25 M 40 39.95 L 39.75 40.7 L 39 40.95 L 39 39.95 L 40 39.95 M 1 21 L 0 21 L 0 20 L 1 20 L 1 21 " stroke-width="1" fill="undefined"/>
<path style="fill:#070707;fill-opacity:0.721569" d="M 2 21 L 1 21 L 1 20 L 2 20 L 2 21 " stroke-width="1" fill="undefined"/>
<path style="fill:#020202;fill-opacity:0.380392" d="M 2 20 L 3 20 L 3 21 L 2 21 L 2 20 " stroke-width="1" fill="undefined"/>
<path style="fill:#000000;fill-opacity:0.156863" d="M 26 0 L 26.75 0.25 L 27 1 L 26 1 L 26 0 M 18 39.95 L 18 40.95 L 17.25 40.7 L 17 39.95 L 18 39.95 M 3 20 L 3 19 L 4 19 L 4 20 L 3 20 M 16 11 L 15 11 L 15 10 L 16 10 L 16 11 " stroke-width="1" fill="undefined"/>
<path style="fill:#000000;fill-opacity:0.0509804" d="M 43 37.95 L 44 37.95 L 43.75 38.7 L 43 38.95 L 43 37.95 M 9 19 L 8 19 L 8 18 L 9 18 L 9 19 M 4 21 L 3 21 L 3 20 L 4 20 L 4 21 " stroke-width="1" fill="undefined"/>
<path style="fill:#0E0E0E;fill-opacity:0.945098" d="M 5 20 L 4 20 L 4 19 L 5 19 L 5 20 M 4 22 Q 3.5 22 3.25 21.75 L 3 21 L 4 21 L 4 22 " stroke-width="1" fill="undefined"/>
<path style="fill:#000000;fill-opacity:0.356863" d="M 47 32.95 L 48 32.95 L 47.75 33.7 L 47 33.95 L 47 32.95 M 10 18 L 9 18 L 9 17 L 10 17 L 10 18 M 12 14 L 12 13 L 13 13 L 13 14 L 12 14 M 16 9 Q 15.5 9 15.25 8.75 L 15 8 L 16 8 L 16 9 " stroke-width="1" fill="undefined"/>
<path style="fill:#000000;fill-opacity:0.203922" d="M 44 15 L 44 14 L 43 14 L 43 13 L 42 13 L 42 12 L 42.75 12.25 L 43 13 L 43.75 13.25 L 44 14 L 44.75 14.25 L 45 15 L 44 15 M 12 15 L 11 15 L 11 14 L 12 14 L 12 15 " stroke-width="1" fill="undefined"/>
<path style="fill:#090000;fill-opacity:0.992157" d="M 13 14 L 13 13 L 14 13 L 14 14 L 13 14 " stroke-width="1" fill="undefined"/>
<path style="fill:#A80022;fill-opacity:1" d="M 13.75 14.75 Q 13.5 15 13 15 L 13 14 L 14 14 Q 14 14.5 13.75 14.75 M 39 24 L 38 24 L 38 23 L 39 23 L 39 24 M 24 2 Q 24 2.5 23.75 2.75 Q 23.5 3 23 3 L 23 2 L 24 2 " stroke-width="1" fill="undefined"/>
<path style="fill:#000000;fill-opacity:0.333333" d="M 39 39.95 L 39 40.95 L 38 40.95 L 38 39.95 L 39 39.95 M 13 13 L 13 12 L 14 12 L 14 13 L 13 13 " stroke-width="1" fill="undefined"/>
<path style="fill:#000000;fill-opacity:0.239216" d="M 46 35.95 L 45.75 36.7 L 45 36.95 L 45 35.95 L 46 35.95 M 15 12 L 14 12 L 14 11 L 15 11 L 15 12 " stroke-width="1" fill="undefined"/>
<path style="fill:#010000;fill-opacity:0.968627" d="M 15 12 L 15 13 L 14 13 L 14 12 L 15 12 " stroke-width="1" fill="undefined"/>
<path style="fill:#99001F;fill-opacity:1" d="M 14.75 13.75 Q 14.5 14 14 14 L 14 13 L 15 13 Q 15 13.5 14.75 13.75 " stroke-width="1" fill="undefined"/>
<path style="fill:#070000;fill-opacity:0.980392" d="M 12 14 L 13 14 L 13 15 L 12 15 L 12 14 " stroke-width="1" fill="undefined"/>
<path style="fill:#000000;fill-opacity:0.215686" d="M 9 33.95 L 9 34.95 L 8.25 34.7 L 8 33.95 L 9 33.95 M 6 19 L 6 18 L 6.75 18.25 Q 7 18.5 7 19 L 6 19 " stroke-width="1" fill="undefined"/>
<path style="fill:#101010;fill-opacity:1" d="M 5 20 L 5 19 L 6 19 L 6.25 19.75 Q 6.5 20 7 20 L 7 21 L 6 21 L 5 21 L 5 20 M 6 23 L 5 23 L 4 23 L 3 23 L 2 23 L 1 23 L 1 22 L 1 21 L 2 21 L 3 21 L 3.25 21.75 Q 3.5 22 4 22 L 5 22 L 6 22 L 6 23 L 7 23 L 7 24 L 6 24 L 6 23 M 5 25 L 5 25.95 L 4 25.95 L 4 25 L 5 25 " stroke-width="1" fill="undefined"/>
<path style="fill:#0A0A0A;fill-opacity:0.815686" d="M 7 20 Q 6.5 20 6.25 19.75 L 6 19 L 5 19 L 5 18 L 6 18 L 6 19 L 7 19 M 7 19 L 7 20 " stroke-width="1" fill="undefined"/>
<path style="fill:#000000;fill-opacity:0.498039" d="M 19 39.95 L 19 40.95 L 18 40.95 L 18 39.95 L 19 39.95 M 9 19 L 9 20 L 8 20 L 8 19 L 9 19 " stroke-width="1" fill="undefined"/>
<path style="fill:#010000;fill-opacity:0.945098" d="M 9 21 L 8 21 L 8 20 L 9 20 L 9 21 " stroke-width="1" fill="undefined"/>
<path style="fill:#010000;fill-opacity:0.898039" d="M 9 19 L 9 18 L 10 18 L 10 19 L 9 19 M 11 15 L 12 15 L 12 16 L 11 16 L 11 15 " stroke-width="1" fill="undefined"/>
<path style="fill:#550012;fill-opacity:1" d="M 9 20 L 9 19 L 10 19 L 10 20 L 9 20 M 32 22 L 33 22 L 33 23 Q 32.5 23 32.25 22.75 Q 32 22.5 32 22 M 29 25.95 L 28 25.95 L 28 25 L 29 25 L 30 25 L 30 25.95 L 29 25.95 M 42 25.95 L 42 25 L 43 25 L 43 25.95 L 42 25.95 " stroke-width="1" fill="undefined"/>
<path style="fill:#030303;fill-opacity:0.482353" d="M 8 21 L 7 21 L 7 20 L 8 20 L 8 21 " stroke-width="1" fill="undefined"/>
<path style="fill:#D5002B;fill-opacity:1" d="M 17 12 Q 17.5 12 17.75 11.75 Q 18 11.5 18 11 Q 18.5 11 18.75 10.75 Q 19 10.5 19 10 L 20 10 L 21 10 Q 21.5 10 21.75 9.75 Q 22 9.5 22 9 L 23 9 L 24 9 L 25 9 L 26 9 Q 26.5 9 26.75 8.75 Q 27 8.5 27 8 L 28 8 L 29 8 L 29.5 8 Q 29.5 7.5 29 7 L 28 7 L 27.95 6.5 L 27.75 6.25 L 27 6 L 26 6 Q 26 5.5 25.75 5.25 L 25 5 L 24 5 L 23.75 4.25 L 23 4 L 23 3 Q 23.5 3 23.75 2.75 Q 24 2.5 24 2 L 25 2 L 26 2 L 27 2 L 28 2 L 28.25 2.75 L 29 3 L 29.25 3.75 L 30 4 L 31 4 L 31.25 4.75 L 32 5 Q 32 5.5 32.25 5.75 Q 32.5 6 33 6 L 33.1 6.5 L 33.25 6.75 Q 33.5 7 34 7 L 34 8 Q 34 8.5 34.25 8.75 Q 34.5 9 35 9 Q 35 9.5 35.25 9.75 Q 35.5 10 36 10 Q 36 10.5 36.25 10.75 Q 36.5 11 37 11 L 38 11 Q 38 11.5 38.25 11.75 Q 38.5 12 39 12 L 40 12 Q 40 12.5 40.25 12.75 Q 40.5 13 41 13 Q 41 13.5 41.25 13.75 Q 41.5 14 42 14 Q 42 14.5 42.25 14.75 Q 42.5 15 43 15 Q 43 15.5 43.25 15.75 Q 43.5 16 44 16 Q 44 16.5 44.25 16.75 Q 44.5 17 45 17 L 45 18 Q 45 18.5 45.25 18.75 Q 45.5 19 46 19 L 46 20 L 45 20 L 45 21 L 44 21 L 43 21 L 42 21 L 42 22 L 41 22 L 40 22 L 40 23 L 39 23 L 38 23 L 38 24 L 37 24 L 36 24 L 35.75 23.25 Q 35.5 23 35 23 L 34 23 L 33.75 22.25 L 33 22 L 32 22 L 31.75 21.25 L 31 21 L 30 21 L 29.75 20.25 L 29 20 L 28 20 Q 28 19.5 27.75 19.25 L 27 19 L 26 19 L 26 20 L 25 20 L 25 21 L 25 22 L 25.25 22.75 L 26 23 L 27 23 L 27 24 L 26 24 L 26 25 L 25 25 L 25 25.95 Q 24.3 29.2 25.75 30.3 Q 26 30.45 26 30.95 L 25 30.95 L 24 30.95 L 23 30.95 L 23 31.95 L 22 31.95 L 21 31.95 L 20 31.95 L 19 31.95 L 19 32.95 L 18 32.95 L 17 32.95 L 17 33.95 L 16 33.95 L 16 34.95 L 15 34.95 L 14 34.95 L 14 35.95 L 13 35.95 L 12 35.95 Q 12 35.45 11.75 35.2 Q 11.5 34.95 11 34.95 Q 11 34.45 10.75 34.2 Q 10.5 33.95 10 33.95 Q 10 33.45 9.75 33.2 Q 9.5 32.95 9 32.95 L 9 31.95 L 9 30.95 Q 9 30.45 8.75 30.2 Q 8.5 29.95 8 29.95 L 8 28.95 L 8 27.95 L 8 26.95 L 8 25.95 L 8 25 L 8 24 L 8.75 23.75 L 9 23 L 9 22 L 9 21 Q 9.5 21 9.75 20.75 Q 10 20.5 10 20 L 10 19 Q 10.5 19 10.75 18.75 Q 11 18.5 11 18 L 11 17 Q 11.5 17 11.75 16.75 Q 12 16.5 12 16 Q 12.5 16 12.75 15.75 Q 13 15.5 13 15 Q 13.5 15 13.75 14.75 Q 14 14.5 14 14 Q 14.5 14 14.75 13.75 Q 15 13.5 15 13 Q 15.5 13 15.75 12.75 Q 16 12.5 16 12 L 17 12 M 15.25 31.7 L 16 31.95 L 16.75 31.7 Q 17 31.45 17 30.95 L 17.8 29.85 L 18 28.95 Q 18 28.45 17.75 28.2 Q 17.5 27.95 17 27.95 Q 17 27.45 16.8 27.35 L 15 26.95 L 15 27.95 L 14 27.95 L 14 28.95 L 14 29.95 L 14.25 30.7 L 15 30.95 L 15.25 31.7 M 32 8 L 31 8 L 30 8 L 30.25 8.75 Q 30.5 9 31 9 L 32 9 L 32.5 9 L 32 8 M 20 24 L 20 25 L 20 25.95 L 19 25.95 Q 19 27.95 19.5 29.85 L 20 29.95 L 20.25 30.7 L 21 30.95 L 22 30.95 L 22.75 30.7 Q 23 30.45 23 29.95 L 23.6 29.8 Q 24.7 27.3 23 26.95 L 23 25.95 Q 23 25.45 22.75 25.2 L 22 25 Q 22 24.5 21.75 24.25 Q 21.5 24 21 24 L 20 24 " stroke-width="1" fill="undefined"/>
<path style="fill:#96001F;fill-opacity:1" d="M 12 15 L 13 15 Q 13 15.5 12.75 15.75 Q 12.5 16 12 16 L 12 15 M 33 27.95 L 33 26.95 L 34 26.95 L 34 27.95 L 33 27.95 " stroke-width="1" fill="undefined"/>
<path style="fill:#000000;fill-opacity:0.768627" d="M 47 33.95 L 47 34.95 L 46 34.95 L 46 33.95 L 47 33.95 M 11 16 L 11 17 L 10 17 L 10 16 L 11 16 " stroke-width="1" fill="undefined"/>
<path style="fill:#6B0017;fill-opacity:1" d="M 12 16 Q 12 16.5 11.75 16.75 Q 11.5 17 11 17 L 11 16 L 12 16 M 30 25 L 31 25 Q 31 25.45 30.75 25.75 L 30 25.95 L 30 25 " stroke-width="1" fill="undefined"/>
<path style="fill:#000000;fill-opacity:0.0862745" d="M 11 16 L 10 16 L 10 15 L 11 15 L 11 16 " stroke-width="1" fill="undefined"/>
<path style="fill:#31000B;fill-opacity:1" d="M 10 18 L 10 17 L 11 17 L 11 18 L 10 18 M 37 24 L 38 24 L 37.75 24.75 L 37 25 L 37 24 M 20 9 L 20 10 L 19 10 L 19 9 L 18 9 L 18 8 L 19 8 L 19 9 L 20 9 " stroke-width="1" fill="undefined"/>
<path style="fill:#B20025;fill-opacity:1" d="M 11 18 Q 11 18.5 10.75 18.75 Q 10.5 19 10 19 L 10 18 L 11 18 M 26 21 L 25 21 L 25 20 L 26 20 L 26 21 M 21.25 5.75 L 21 5 L 22 5 L 22 6 Q 21.5 6 21.25 5.75 " stroke-width="1" fill="undefined"/>
<path style="fill:#BC0028;fill-opacity:1" d="M 9 20 L 10 20 Q 10 20.5 9.75 20.75 Q 9.5 21 9 21 L 9 20 M 31 21 L 31.75 21.25 L 32 22 L 31 22 L 31 21 " stroke-width="1" fill="undefined"/>
<path style="fill:#040404;fill-opacity:0.545098" d="M 5 21 L 4 21 L 4 20 L 5 20 L 5 21 " stroke-width="1" fill="undefined"/>
<path style="fill:#89001D;fill-opacity:1" d="M 9 22 L 9 23 L 8 23 L 8 22 L 9 22 M 29 7 Q 29.5 7.5 29.5 8 L 29 8 L 29 7 " stroke-width="1" fill="undefined"/>
<path style="fill:#43000E;fill-opacity:1" d="M 9 21 L 9 22 L 8 22 L 8 21 L 9 21 M 47 21 L 47 22 Q 46.5 22 46.25 21.75 Q 46 21.5 46 21 L 47 21 " stroke-width="1" fill="undefined"/>
<path style="fill:#C9002A;fill-opacity:1" d="M 8 23 L 9 23 L 8.75 23.75 L 8 24 L 8 23 M 15 29.95 L 15 30.95 L 14.25 30.7 L 14 29.95 L 15 29.95 M 45 33.95 L 45 34.95 L 44 34.95 L 44 33.95 L 45 33.95 " stroke-width="1" fill="undefined"/>
<path style="fill:#030303;fill-opacity:0.937255" d="M 7 23 L 7 22 L 8 22 L 8 23 L 7 23 " stroke-width="1" fill="undefined"/>
<path style="fill:#090909;fill-opacity:0.976471" d="M 7 22 L 7 21 L 8 21 L 8 22 L 7 22 " stroke-width="1" fill="undefined"/>
<path style="fill:#0E0E0E;fill-opacity:0.968627" d="M 6 21 L 7 21 L 7 22 L 6 22 L 6 21 " stroke-width="1" fill="undefined"/>
<path style="fill:#090909;fill-opacity:0.780392" d="M 6 23 L 6 22 L 7 22 L 7 23 L 6 23 " stroke-width="1" fill="undefined"/>
<path style="fill:#0A0A0A;fill-opacity:0.803922" d="M 4 24 L 4 23 L 5 23 L 6 23 L 6 24 L 5 24 L 4 24 " stroke-width="1" fill="undefined"/>
<path style="fill:#040404;fill-opacity:0.513725" d="M 5 21 L 6 21 L 6 22 L 5 22 L 5 21 " stroke-width="1" fill="undefined"/>
<path style="fill:#050505;fill-opacity:0.592157" d="M 5 21 L 5 22 L 4 22 L 4 21 L 5 21 " stroke-width="1" fill="undefined"/>
<path style="fill:#0B0B0B;fill-opacity:0.929412" d="M 6 25 L 6 24 L 7 24 L 7 25 L 6 25 " stroke-width="1" fill="undefined"/>
<path style="fill:#0A0A0A;fill-opacity:0.839216" d="M 5 25 L 6 25 L 6 25.95 L 5 25.95 L 5 25 " stroke-width="1" fill="undefined"/>
<path style="fill:#48000F;fill-opacity:1" d="M 7 25.95 L 7 25 L 8 25 L 8 25.95 L 7 25.95 " stroke-width="1" fill="undefined"/>
<path style="fill:#010101;fill-opacity:0.533333" d="M 6 25.95 L 6 25 L 7 25 L 7 25.95 L 6 25.95 " stroke-width="1" fill="undefined"/>
<path style="fill:#000000;fill-opacity:0.447059" d="M 7 28.95 L 6 28.95 L 6 27.95 L 6 25.95 L 7 25.95 L 7 26.95 L 7 27.95 L 7 28.95 " stroke-width="1" fill="undefined"/>
<path style="fill:#090909;fill-opacity:0.756863" d="M 5 25 L 5 24 L 6 24 L 6 25 L 5 25 " stroke-width="1" fill="undefined"/>
<path style="fill:#040404;fill-opacity:0.556863" d="M 2 23 L 3 23 L 3 24 L 2 24 L 2 23 M 5 24 L 5 25 L 4 25 L 4 24 L 5 24 " stroke-width="1" fill="undefined"/>
<path style="fill:#250008;fill-opacity:1" d="M 7 25 L 7 24 L 8 24 L 8 25 L 7 25 M 39 11 L 40 11 L 40 12 L 39 12 L 39 11 M 31 24 Q 31.5 24 31.75 24.25 L 32 25 L 31 25 L 31 24 M 44 36.95 L 43 36.95 L 43 35.95 L 44 35.95 L 44 36.95 " stroke-width="1" fill="undefined"/>
<path style="fill:#040001;fill-opacity:1" d="M 7 23 L 8 23 L 8 24 L 7 24 L 7 23 " stroke-width="1" fill="undefined"/>
<path style="fill:#580013;fill-opacity:1" d="M 7 27.95 L 7 26.95 L 7 25.95 L 8 25.95 L 8 26.95 L 8 27.95 L 7 27.95 " stroke-width="1" fill="undefined"/>
<path style="fill:#4B0010;fill-opacity:1" d="M 7 28.95 L 7 27.95 L 8 27.95 L 8 28.95 L 7 28.95 M 11 35.95 L 11 34.95 Q 11.5 34.95 11.75 35.2 Q 12 35.45 12 35.95 L 11 35.95 M 26 1 L 27 1 L 27 2 L 26 2 L 26 1 M 27 6.5 L 27 7 L 26 7 L 26 6.5 L 26 6 L 27 6 L 27 6.5 " stroke-width="1" fill="undefined"/>
<path style="fill:#000000;fill-opacity:0.298039" d="M 24 1 L 24 0 L 25 0 L 26 0 L 26 1 L 25 1 L 24 1 M 7 29.95 L 6 29.95 L 6 28.95 L 7 28.95 L 7 29.95 " stroke-width="1" fill="undefined"/>
<path style="fill:#000000;fill-opacity:0.792157" d="M 20 39.95 L 20 40.95 L 19 40.95 L 19 39.95 L 20 39.95 M 13 37.95 L 12 37.95 L 12 36.95 L 13 36.95 L 13 37.95 M 7 31.95 L 7 30.95 L 8 30.95 L 8 31.95 L 7 31.95 M 17 11 L 16 11 L 16 10 L 17 10 L 17 11 " stroke-width="1" fill="undefined"/>
<path style="fill:#000000;fill-opacity:0.109804" d="M 7 30.95 L 6.25 30.7 L 6 29.95 L 7 29.95 L 7 30.95 " stroke-width="1" fill="undefined"/>
<path style="fill:#020000;fill-opacity:1" d="M 7 30.95 L 7 29.95 L 8 29.95 L 8 30.95 L 7 30.95 M 23 2 L 23 3 L 22 3 L 22 2 L 23 2 " stroke-width="1" fill="undefined"/>
<path style="fill:#C7002A;fill-opacity:1" d="M 8 29.95 Q 8.5 29.95 8.75 30.2 Q 9 30.45 9 30.95 L 8 30.95 L 8 29.95 M 43 22 L 42 22 L 42 21 L 43 21 L 43 22 M 29 24 L 30 24 L 30 25 L 29 25 L 29 24 " stroke-width="1" fill="undefined"/>
<path style="fill:#750019;fill-opacity:1" d="M 8 30.95 L 9 30.95 L 9 31.95 L 8 31.95 L 8 30.95 " stroke-width="1" fill="undefined"/>
<path style="fill:#190005;fill-opacity:1" d="M 8 32.95 L 8 31.95 L 9 31.95 L 9 32.95 L 8 32.95 " stroke-width="1" fill="undefined"/>
<path style="fill:#280008;fill-opacity:1" d="M 7 29.95 L 7 28.95 L 8 28.95 L 8 29.95 L 7 29.95 " stroke-width="1" fill="undefined"/>
<path style="fill:#000000;fill-opacity:0.403922" d="M 48 22 L 48 21 L 49 21 L 49 22 L 48 22 M 16 39.95 L 15.25 39.7 L 15 38.95 L 16 38.95 L 16 39.95 M 8 31.95 L 8 32.95 L 7.25 32.7 L 7 31.95 L 8 31.95 M 18 9 L 18 10 L 17 10 L 17 9 L 18 9 " stroke-width="1" fill="undefined"/>
<path style="fill:#BB0027;fill-opacity:1" d="M 15 29.95 L 14 29.95 L 14 28.95 L 14 27.95 L 15 27.95 L 15 28.95 L 15 29.95 " stroke-width="1" fill="undefined"/>
<path style="fill:#020202;fill-opacity:0.431373" d="M 4 25.95 L 5 25.95 L 4.8 26.6 Q 2.9 27.6 3 25.95 L 4 25.95 " stroke-width="1" fill="undefined"/>
<path style="fill:#070707;fill-opacity:0.662745" d="M 4 24 L 3 24 L 3 23 L 4 23 L 4 24 " stroke-width="1" fill="undefined"/>
<path style="fill:#050505;fill-opacity:0.568627" d="M 0 22 L 0 21 L 1 21 L 1 22 L 0 22 " stroke-width="1" fill="undefined"/>
<path style="fill:#0D0D0D;fill-opacity:0.921569" d="M 4 25 L 4 25.95 L 3 25.95 L 3 25 L 4 25 M 0 23 L 0 22 L 1 22 L 1 23 L 0 23 " stroke-width="1" fill="undefined"/>
<path style="fill:#000000;fill-opacity:0.180392" d="M 12 37.95 L 11.25 37.7 L 11 36.95 L 12 36.95 L 12 37.95 M 1 24 L 0.25 23.75 L 0 23 L 1 23 L 1 24 " stroke-width="1" fill="undefined"/>
<path style="fill:#010101;fill-opacity:0.286275" d="M 3 25 L 3 24 L 4 24 L 4 25 L 3 25 " stroke-width="1" fill="undefined"/>
<path style="fill:#020202;fill-opacity:0.368627" d="M 2 24 L 1 24 L 1 23 L 2 23 L 2 24 " stroke-width="1" fill="undefined"/>
<path style="fill:#690016;fill-opacity:1" d="M 10 34.95 L 10 33.95 Q 10.5 33.95 10.75 34.2 Q 11 34.45 11 34.95 L 10 34.95 M 26 22 L 26 23 L 25.25 22.75 L 25 22 L 26 22 M 44 22 L 43 22 L 43 21 L 44 21 L 44 22 " stroke-width="1" fill="undefined"/>
<path style="fill:#000000;fill-opacity:0.992157" d="M 10 34.95 L 11 34.95 L 11 35.95 L 10 35.95 L 10 34.95 M 41 37.95 L 42 37.95 L 42 38.95 L 41 38.95 L 41 37.95 " stroke-width="1" fill="undefined"/>
<path style="fill:#000000;fill-opacity:0.980392" d="M 48 28.95 L 48 27.95 L 49 27.95 L 49 28.95 L 48 28.95 M 9 34.95 L 9 33.95 L 10 33.95 L 10 34.95 L 9 34.95 M 37 9 L 37 10 L 36 10 L 36 9 L 37 9 " stroke-width="1" fill="undefined"/>
<path style="fill:#45000F;fill-opacity:1" d="M 9 33.95 L 9 32.95 Q 9.5 32.95 9.75 33.2 Q 10 33.45 10 33.95 L 9 33.95 M 39 23 L 40 23 L 39.75 23.75 L 39 24 L 39 23 " stroke-width="1" fill="undefined"/>
<path style="fill:#000000;fill-opacity:0.968627" d="M 11 36.95 L 11 35.95 L 12 35.95 L 12 36.95 L 11 36.95 " stroke-width="1" fill="undefined"/>
<path style="fill:#000000;fill-opacity:0.321569" d="M 11 35.95 L 11 36.95 L 10.25 36.7 L 10 35.95 L 11 35.95 " stroke-width="1" fill="undefined"/>
<path style="fill:#200007;fill-opacity:1" d="M 13 36.95 L 12 36.95 L 12 35.95 L 13 35.95 L 13 36.95 M 28 27.95 L 28 26.95 L 29 26.95 L 29 27.95 L 28 27.95 " stroke-width="1" fill="undefined"/>
<path style="fill:#9E0D2A;fill-opacity:1" d="M 14 36.95 L 13 36.95 L 13 35.95 L 14 35.95 L 14 36.95 " stroke-width="1" fill="undefined"/>
<path style="fill:#000000;fill-opacity:1" d="M 31 41.95 L 30 41.95 L 27 41.95 L 27 40.95 L 30 40.95 L 31 40.95 L 31 41.95 M 22 40.95 L 21 40.95 L 20 40.95 L 20 39.95 L 21 39.95 L 22 39.95 L 23 39.95 L 23 40.95 L 22 40.95 M 13 37.95 L 13 36.95 L 14 36.95 L 14 37.95 L 13 37.95 M 37.75 24.75 L 38 24 L 39 24 L 39.75 23.75 L 40 23 L 41 23 Q 41.5 23 41.75 22.75 L 42 22 L 43 22 L 44 22 Q 44.5 22 44.75 21.75 L 45 21 L 46 21 Q 46 21.5 46.25 21.75 Q 46.5 22 47 22 L 47 23 L 46 23 L 45 23 L 45 24 L 44 24 L 43 24 L 42 24 L 42 25 L 41 25 L 40 25 L 39 25 L 39 25.95 L 38 25.95 L 37 25.95 L 37 25 L 37.75 24.75 M 15 37.95 L 16 37.95 L 16 38.95 L 15 38.95 L 15 37.95 M 17 39.95 L 17 38.95 L 18 38.95 L 19 38.95 L 19 39.95 L 18 39.95 L 17 39.95 M 36 40.95 L 35 40.95 L 35 39.95 L 36 39.95 L 36 40.95 M 39 39.95 L 39 38.95 L 40 38.95 L 40 39.95 L 39 39.95 " stroke-width="1" fill="undefined"/>
<path style="fill:#000000;fill-opacity:0.427451" d="M 14 38.95 L 13.25 38.7 L 13 37.95 L 14 37.95 L 14 38.95 " stroke-width="1" fill="undefined"/>
<path style="fill:#E0A594;fill-opacity:1" d="M 15 36.95 L 14 36.95 L 14 35.95 L 15 35.95 L 15 36.95 " stroke-width="1" fill="undefined"/>
<path style="fill:#4C4238;fill-opacity:1" d="M 15 36.95 L 15 37.95 L 14 37.95 L 14 36.95 L 15 36.95 " stroke-width="1" fill="undefined"/>
<path style="fill:#000000;fill-opacity:0.380392" d="M 10 34.95 L 10 35.95 L 9.25 35.7 L 9 34.95 L 10 34.95 " stroke-width="1" fill="undefined"/>
<path style="fill:#D70C33;fill-opacity:1" d="M 15 35.95 L 14 35.95 L 14 34.95 L 15 34.95 L 15 35.95 M 20 32.95 L 19 32.95 L 19 31.95 L 20 31.95 L 20 32.95 " stroke-width="1" fill="undefined"/>
<path style="fill:#000000;fill-opacity:0.87451" d="M 31 40.95 L 32 40.95 L 32 41.95 L 31 41.95 L 31 40.95 M 8 33.95 L 8 32.95 L 9 32.95 L 9 33.95 L 8 33.95 " stroke-width="1" fill="undefined"/>
<path style="fill:#000000;fill-opacity:0.909804" d="M 15 38.95 L 14 38.95 L 14 37.95 L 15 37.95 L 15 38.95 " stroke-width="1" fill="undefined"/>
<path style="fill:#000000;fill-opacity:0.133333" d="M 35 7 L 35.75 7.25 L 36 8 L 35 8 L 35 7 " stroke-width="1" fill="undefined"/>
<path style="fill:#000000;fill-opacity:0.462745" d="M 34 7 L 34 6.5 L 34 6 L 34.75 6.25 L 34.95 6.5 L 35 7 L 34 7 " stroke-width="1" fill="undefined"/>
<path style="fill:#000000;fill-opacity:0.0980392" d="M 36 9 L 36 8 L 36.75 8.25 L 37 9 L 36 9 M 38 9 L 38.75 9.25 L 39 10 L 38 10 L 38 9 M 41 12 L 41 11 L 41.75 11.25 L 42 12 L 41 12 " stroke-width="1" fill="undefined"/>
<path style="fill:#000000;fill-opacity:0.745098" d="M 40 11 L 41 11 L 41 12 L 40 12 L 40 11 M 25 41.95 L 24 41.95 L 24 40.95 L 25 40.95 L 25 41.95 " stroke-width="1" fill="undefined"/>
<path style="fill:#660016;fill-opacity:1" d="M 16 7 L 15 7 L 15 6.5 L 15 6 L 16 6 L 16 6.5 L 16 7 M 41 13 Q 40.5 13 40.25 12.75 Q 40 12.5 40 12 L 41 12 L 41 13 " stroke-width="1" fill="undefined"/>
<path style="fill:#060000;fill-opacity:0.937255" d="M 43 13 L 43 14 L 42 14 L 42 13 L 43 13 " stroke-width="1" fill="undefined"/>
<path style="fill:#9B0020;fill-opacity:1" d="M 42 13 L 42 14 Q 41.5 14 41.25 13.75 Q 41 13.5 41 13 L 42 13 M 25 8 L 26 8 L 26 9 L 25 9 L 25 8 M 27 8 L 26 8 L 26 7 L 27 7 L 27 8 M 25 6 L 25 6.5 L 25 7 Q 24.5 7 24.25 6.75 L 24.1 6.5 L 24 6 L 25 6 M 42 26.95 L 41 26.95 L 41 25.95 L 42 25.95 L 42 26.95 " stroke-width="1" fill="undefined"/>
<path style="fill:#010000;fill-opacity:0.909804" d="M 41 13 L 41 12 L 42 12 L 42 13 L 41 13 " stroke-width="1" fill="undefined"/>
<path style="fill:#090000;fill-opacity:0.937255" d="M 43 14 L 44 14 L 44 15 L 43 15 L 43 14 " stroke-width="1" fill="undefined"/>
<path style="fill:#A30021;fill-opacity:1" d="M 43 15 Q 42.5 15 42.25 14.75 Q 42 14.5 42 14 L 43 14 L 43 15 " stroke-width="1" fill="undefined"/>
<path style="fill:#000000;fill-opacity:0.439216" d="M 28 1 L 28.75 1.25 Q 29 1.5 29 2 L 28 2 L 28 1 M 39 11 L 39 10 L 39.75 10.25 L 40 11 L 39 11 " stroke-width="1" fill="undefined"/>
<path style="fill:#010000;fill-opacity:0.956863" d="M 38 11 L 38 10 L 39 10 L 39 11 L 38 11 " stroke-width="1" fill="undefined"/>
<path style="fill:#000000;fill-opacity:0.592157" d="M 37 10 L 37 9 L 38 9 L 38 10 L 37 10 " stroke-width="1" fill="undefined"/>
<path style="fill:#050000;fill-opacity:0.72549" d="M 35 8 L 36 8 L 36 9 L 35 9 L 35 8 " stroke-width="1" fill="undefined"/>
<path style="fill:#C10029;fill-opacity:1" d="M 35 8 L 35 9 Q 34.5 9 34.25 8.75 Q 34 8.5 34 8 L 35 8 M 46 20 L 47 20 L 47 21 L 46 21 L 46 20 M 32.5 9 L 32 9 L 32 8 L 32.5 9 " stroke-width="1" fill="undefined"/>
<path style="fill:#7C001A;fill-opacity:1" d="M 36 10 Q 35.5 10 35.25 9.75 Q 35 9.5 35 9 L 36 9 L 36 10 " stroke-width="1" fill="undefined"/>
<path style="fill:#AF0024;fill-opacity:1" d="M 39 12 Q 38.5 12 38.25 11.75 Q 38 11.5 38 11 L 39 11 L 39 12 M 37 11 Q 36.5 11 36.25 10.75 Q 36 10.5 36 10 L 37 10 L 37 11 M 41 26.95 L 41 27.95 L 40 27.95 L 40 26.95 L 41 26.95 " stroke-width="1" fill="undefined"/>
<path style="fill:#500011;fill-opacity:1" d="M 37 25 L 36 25 L 36 24 L 37 24 L 37 25 M 37 10 L 38 10 L 38 11 L 37 11 L 37 10 M 24 1 L 25 1 L 25 2 L 24 2 L 24 1 " stroke-width="1" fill="undefined"/>
<path style="fill:#A50022;fill-opacity:1" d="M 44 15 L 44 16 Q 43.5 16 43.25 15.75 Q 43 15.5 43 15 L 44 15 " stroke-width="1" fill="undefined"/>
<path style="fill:#0B0001;fill-opacity:0.94902" d="M 44 16 L 44 15 L 45 15 L 45 16 L 44 16 " stroke-width="1" fill="undefined"/>
<path style="fill:#94001F;fill-opacity:1" d="M 45 17 Q 44.5 17 44.25 16.75 Q 44 16.5 44 16 L 45 16 L 45 17 " stroke-width="1" fill="undefined"/>
<path style="fill:#000000;fill-opacity:0.145098" d="M 45 16 L 45 15 L 45.75 15.25 L 46 16 L 45 16 M 47 19 L 47 18 L 47.75 18.25 L 48 19 L 47 19 M 47 34.95 L 46.75 35.7 L 46 35.95 L 46 34.95 L 47 34.95 " stroke-width="1" fill="undefined"/>
<path style="fill:#000000;fill-opacity:0.815686" d="M 45 17 L 45 16 L 46 16 L 46 17 L 45 17 M 48 28.95 L 49 28.95 L 49 29.95 L 48 29.95 L 48 28.95 " stroke-width="1" fill="undefined"/>
<path style="fill:#5C0014;fill-opacity:1" d="M 45 18 L 45 17 L 46 17 L 46 18 L 45 18 M 17 12 L 16 12 L 16 11 L 17 11 L 17 12 " stroke-width="1" fill="undefined"/>
<path style="fill:#000000;fill-opacity:0.533333" d="M 31 4 L 31 3 L 31.75 3.25 L 32 4 L 31 4 M 46 18 L 46 17 L 46.75 17.25 L 47 18 L 46 18 " stroke-width="1" fill="undefined"/>
<path style="fill:#CC002B;fill-opacity:1" d="M 46 19 Q 45.5 19 45.25 18.75 Q 45 18.5 45 18 L 46 18 L 46 19 M 21 9 L 22 9 Q 22 9.5 21.75 9.75 Q 21.5 10 21 10 L 21 9 M 18 11 Q 18 11.5 17.75 11.75 Q 17.5 12 17 12 L 17 11 L 18 11 M 47 31.95 L 46 31.95 L 46 30.95 L 47 30.95 L 47 31.95 " stroke-width="1" fill="undefined"/>
<path style="fill:#7D001A;fill-opacity:1" d="M 46 21 L 45 21 L 45 20 L 46 20 L 46 19 L 47 19 L 47 20 L 46 20 L 46 21 M 34 7 Q 33.5 7 33.25 6.75 L 33.1 6.5 L 33 6 L 34 6 L 34 6.5 L 34 7 M 32 5 L 31.25 4.75 L 31 4 L 32 4 L 32 5 M 29 2 L 29 3 L 28.25 2.75 L 28 2 L 29 2 M 25 9 L 24 9 L 24 8 L 25 8 L 25 9 " stroke-width="1" fill="undefined"/>
<path style="fill:#000000;fill-opacity:0.603922" d="M 21 5 L 20 5 L 19 5 L 18 5 L 18 4 L 20 4 L 21 4 L 21 5 M 47 20 L 47 19 L 48 19 L 48 20 L 47 20 M 43 38.95 L 42 38.95 L 42 37.95 L 43 37.95 L 43 38.95 M 24 41.95 L 23 41.95 L 23 40.95 L 24 40.95 L 24 41.95 " stroke-width="1" fill="undefined"/>
<path style="fill:#160004;fill-opacity:0.984314" d="M 46 19 L 46 18 L 47 18 L 47 19 L 46 19 " stroke-width="1" fill="undefined"/>
<path style="fill:#110003;fill-opacity:0.980392" d="M 47 21 L 47 20 L 48 20 L 48 21 L 47 21 " stroke-width="1" fill="undefined"/>
<path style="fill:#41000D;fill-opacity:0.988235" d="M 35 7 L 35 8 L 34 8 L 34 7 L 35 7 " stroke-width="1" fill="undefined"/>
<path style="fill:#0D0003;fill-opacity:0.882353" d="M 28 2 L 27 2 L 27 1 L 28 1 L 28 2 " stroke-width="1" fill="undefined"/>
<path style="fill:#640015;fill-opacity:1" d="M 25 1 L 26 1 L 26 2 L 25 2 L 25 1 M 46 32.95 L 46 31.95 L 47 31.95 L 47 32.95 L 46 32.95 " stroke-width="1" fill="undefined"/>
<path style="fill:#BE0028;fill-opacity:1" d="M 33 22 L 33.75 22.25 L 34 23 L 33 23 L 33 22 M 35 24 L 35 23 Q 35.5 23 35.75 23.25 L 36 24 L 35 24 M 30 4 L 29.25 3.75 L 29 3 L 30 3 L 30 4 M 16 30.95 L 17 30.95 Q 17 31.45 16.75 31.7 L 16 31.95 L 16 30.95 M 21 25 L 21 24 Q 21.5 24 21.75 24.25 Q 22 24.5 22 25 L 21 25 " stroke-width="1" fill="undefined"/>
<path style="fill:#090000;fill-opacity:0.890196" d="M 30 3 L 29 3 L 29 2 L 30 2 L 30 3 " stroke-width="1" fill="undefined"/>
<path style="fill:#AD0024;fill-opacity:1" d="M 25 6 L 25 5 L 25.75 5.25 Q 26 5.5 26 6 L 25 6 " stroke-width="1" fill="undefined"/>
<path style="fill:#32000A;fill-opacity:1" d="M 24 6 L 23 6 L 23 5 L 24 5 L 25 5 L 25 6 L 24 6 " stroke-width="1" fill="undefined"/>
<path style="fill:#2C0009;fill-opacity:1" d="M 25 7 L 25 6.5 L 25 6 L 26 6 L 26 6.5 L 26 7 L 25 7 M 46 24 L 45 24 L 45 23 L 46 23 L 46 24 " stroke-width="1" fill="undefined"/>
<path style="fill:#B90027;fill-opacity:1" d="M 17 8 L 16 8 L 16 7 L 16.75 7.25 Q 17 7.5 17 8 M 27 20 L 27 19 L 27.75 19.25 Q 28 19.5 28 20 L 27 20 M 29 21 L 29 20 L 29.75 20.25 L 30 21 L 29 21 M 27 7 L 27 6.5 L 27 6 L 27.75 6.25 L 27.95 6.5 L 28 7 L 27 7 M 26 8 L 27 8 Q 27 8.5 26.75 8.75 Q 26.5 9 26 9 L 26 8 " stroke-width="1" fill="undefined"/>
<path style="fill:#D6002C;fill-opacity:1" d="M 24 6 L 24.1 6.5 L 24.25 6.75 Q 24.5 7 25 7 L 26 7 L 26 8 L 25 8 L 24 8 L 23 8 L 22 8 L 21 8 L 19 8 L 18 8 L 17 8 Q 17 7.5 16.75 7.25 L 16 7 L 16 6.5 L 16 6 L 17 6 L 18 6 Q 18.5 6 18.75 5.75 Q 19 5.5 19 5 L 20 5 L 21 5 L 21.25 5.75 Q 21.5 6 22 6 L 23 6 L 24 6 M 33 27.95 L 32 27.95 L 31 27.95 L 30 27.95 L 30 26.95 L 32 26.95 L 33 26.95 L 33 27.95 M 28 24 L 29 24 L 29 25 L 28 25 L 28 24 " stroke-width="1" fill="undefined"/>
<path style="fill:#4C0010;fill-opacity:1" d="M 28 25 L 27 25 L 27 24 L 27 23 L 28 23 L 28 24 L 28 25 M 29 8 L 28 8 L 27 8 L 27 7 L 28 7 L 29 7 L 29 8 " stroke-width="1" fill="undefined"/>
<path style="fill:#000000;fill-opacity:0.286275" d="M 30 3 L 30 2 L 30.75 2.25 Q 31 2.5 31 3 L 30 3 " stroke-width="1" fill="undefined"/>
<path style="fill:#40000E;fill-opacity:1" d="M 30 3 L 31 3 L 31 4 L 30 4 L 30 3 " stroke-width="1" fill="undefined"/>
<path style="fill:#8F001E;fill-opacity:1" d="M 27 20 L 26 20 L 26 19 L 27 19 L 27 20 M 33 6 Q 32.5 6 32.25 5.75 Q 32 5.5 32 5 L 33 5 L 33 6 M 29 28.95 L 28.25 28.7 L 28 27.95 L 29 27.95 L 29 28.95 M 31 28.95 L 31 29.95 L 30 29.95 L 30 28.95 L 31 28.95 M 46 25 L 46 25.95 L 45 25.95 L 45 25 L 46 25 " stroke-width="1" fill="undefined"/>
<path style="fill:#010000;fill-opacity:0.584314" d="M 33 6 L 33 5 L 33.75 5.25 L 34 6 L 33 6 " stroke-width="1" fill="undefined"/>
<path style="fill:#010000;fill-opacity:0.596078" d="M 32 5 L 32 4 L 32.75 4.25 L 33 5 L 32 5 " stroke-width="1" fill="undefined"/>
<path style="fill:#000000;fill-opacity:0.121569" d="M 23 1 L 23 0 L 24 0 L 24 1 L 23 1 M 50 26.95 L 49.75 27.7 L 49 27.95 L 49 26.95 L 50 26.95 " stroke-width="1" fill="undefined"/>
<path style="fill:#080001;fill-opacity:1" d="M 23 1 L 24 1 L 24 2 L 23 2 L 23 1 " stroke-width="1" fill="undefined"/>
<path style="fill:#000000;fill-opacity:0.556863" d="M 23 2 L 22 2 L 22 1 L 23 1 L 23 2 " stroke-width="1" fill="undefined"/>
<path style="fill:#000000;fill-opacity:0.25098" d="M 17 5 L 16 5 L 16 4 L 17 4 L 17 5 " stroke-width="1" fill="undefined"/>
<path style="fill:#610015;fill-opacity:1" d="M 17 6 L 16 6 L 16 5 L 17 5 L 17 6 " stroke-width="1" fill="undefined"/>
<path style="fill:#AA0023;fill-opacity:1" d="M 18 5 L 18 6 L 17 6 L 17 5 L 18 5 M 29 25.95 L 30 25.95 L 30 26.95 L 29 26.95 L 29 25.95 M 42 26.95 L 42 25.95 L 43 25.95 L 43 26.95 L 42 26.95 " stroke-width="1" fill="undefined"/>
<path style="fill:#010000;fill-opacity:0.819608" d="M 15 6 L 15 5 L 16 5 L 16 6 L 15 6 " stroke-width="1" fill="undefined"/>
<path style="fill:#36000C;fill-opacity:1" d="M 16 7 L 16 8 L 15 8 L 15 7 L 16 7 " stroke-width="1" fill="undefined"/>
<path style="fill:#C30029;fill-opacity:1" d="M 18 5 L 19 5 Q 19 5.5 18.75 5.75 Q 18.5 6 18 6 L 18 5 " stroke-width="1" fill="undefined"/>
<path style="fill:#000000;fill-opacity:0.486275" d="M 17 5 L 17 4 L 18 4 L 18 5 L 17 5 " stroke-width="1" fill="undefined"/>
<path style="fill:#520011;fill-opacity:1" d="M 29 21 L 28.25 20.75 L 28 20 L 29 20 L 29 21 M 23 5 L 23 4 L 23.75 4.25 L 24 5 L 23 5 M 48 29.95 L 48 30.95 L 47 30.95 L 47 29.95 L 48 29.95 " stroke-width="1" fill="undefined"/>
<path style="fill:#0F0002;fill-opacity:1" d="M 44 21 L 45 21 L 44.75 21.75 Q 44.5 22 44 22 L 44 21 M 22 4 L 22 3 L 23 3 L 23 4 L 22 4 M 34 25.95 L 34 25 L 34.75 25.2 L 35 25.95 L 34 25.95 M 49 26.95 L 49 27.95 L 48 27.95 L 48 26.95 L 49 26.95 " stroke-width="1" fill="undefined"/>
<path style="fill:#000000;fill-opacity:0.423529" d="M 22 5 L 21 5 L 21 4 L 21 3 L 21 2 L 22 2 L 22 3 L 22 4 L 22 5 " stroke-width="1" fill="undefined"/>
<path style="fill:#9A001F;fill-opacity:1" d="M 23 5 L 23 6 L 22 6 L 22 5 L 23 5 " stroke-width="1" fill="undefined"/>
<path style="fill:#000000;fill-opacity:0.85098" d="M 22 4 L 23 4 L 23 5 L 22 5 L 22 4 M 44 37.95 L 43 37.95 L 43 36.95 L 44 36.95 L 44 37.95 " stroke-width="1" fill="undefined"/>
<path style="fill:#8C001E;fill-opacity:1" d="M 23 8 L 24 8 L 24 9 L 23 9 L 23 8 M 18 10 L 19 10 Q 19 10.5 18.75 10.75 Q 18.5 11 18 11 L 18 10 M 48 29.95 L 47 29.95 L 47 28.95 L 48 28.95 L 48 29.95 " stroke-width="1" fill="undefined"/>
<path style="fill:#82001C;fill-opacity:1" d="M 16 12 Q 16 12.5 15.75 12.75 Q 15.5 13 15 13 L 15 12 L 16 12 M 22 8 L 23 8 L 23 9 L 22 9 L 22 8 M 32 8 L 32 9 L 31 9 L 31 8 L 32 8 " stroke-width="1" fill="undefined"/>
<path style="fill:#570012;fill-opacity:1" d="M 19 9 L 19 8 L 21 8 L 22 8 L 22 9 L 21 9 L 20 9 L 19 9 " stroke-width="1" fill="undefined"/>
<path style="fill:#84001C;fill-opacity:1" d="M 21 9 L 21 10 L 20 10 L 20 9 L 21 9 " stroke-width="1" fill="undefined"/>
<path style="fill:#000000;fill-opacity:0.945098" d="M 19 9 L 19 10 L 18 10 L 18 9 L 19 9 M 46 35.95 L 45 35.95 L 45 34.95 L 46 34.95 L 46 35.95 " stroke-width="1" fill="undefined"/>
<path style="fill:#180005;fill-opacity:0.862745" d="M 18 9 L 17 9 L 17 8 L 18 8 L 18 9 " stroke-width="1" fill="undefined"/>
<path style="fill:#000000;fill-opacity:0.65098" d="M 16 8 L 17 8 L 17 9 L 16 9 L 16 8 " stroke-width="1" fill="undefined"/>
<path style="fill:#000000;fill-opacity:0.933333" d="M 37 40.95 L 36 40.95 L 36 39.95 L 37 39.95 L 37 40.95 M 16 12 L 15 12 L 15 11 L 16 11 L 16 12 " stroke-width="1" fill="undefined"/>
<path style="fill:#170005;fill-opacity:1" d="M 17 11 L 17 10 L 18 10 L 18 11 L 17 11 " stroke-width="1" fill="undefined"/>
<path style="fill:#8E001E;fill-opacity:1" d="M 30.25 8.75 L 30 8 L 31 8 L 31 9 Q 30.5 9 30.25 8.75 " stroke-width="1" fill="undefined"/>
<path style="fill:#010000;fill-opacity:1" d="M 26 20 L 27 20 L 28 20 L 28.25 20.75 L 29 21 L 30 21 L 30.25 21.75 Q 30.5 22 31 22 L 32 22 Q 32 22.5 32.25 22.75 Q 32.5 23 33 23 L 34 23 Q 34 23.5 34.25 23.75 L 35 24 L 36 24 L 36 25 L 36 25.95 L 35 25.95 L 34.75 25.2 L 34 25 L 33 25 L 32 25 L 31.75 24.25 Q 31.5 24 31 24 L 30 24 L 29 24 Q 29 23.5 28.75 23.25 Q 28.5 23 28 23 L 27 23 L 26.75 22.25 L 26 22 L 26 21 L 26 20 " stroke-width="1" fill="undefined"/>
<path style="fill:#540012;fill-opacity:1" d="M 31 22 Q 30.5 22 30.25 21.75 L 30 21 L 31 21 L 31 22 " stroke-width="1" fill="undefined"/>
<path style="fill:#780019;fill-opacity:1" d="M 30 24 L 31 24 L 31 25 L 30 25 L 30 24 M 46 23 L 47 23 L 47 24 L 46 24 L 46 23 " stroke-width="1" fill="undefined"/>
<path style="fill:#80001B;fill-opacity:1" d="M 32 25 Q 32 25.45 32.25 25.7 L 33 25.95 L 33 26.95 L 32 26.95 L 30 26.95 L 30 25.95 L 30.75 25.75 Q 31 25.45 31 25 L 32 25 " stroke-width="1" fill="undefined"/>
<path style="fill:#6C0017;fill-opacity:1" d="M 33 25.95 L 32.25 25.7 Q 32 25.45 32 25 L 33 25 L 33 25.95 " stroke-width="1" fill="undefined"/>
<path style="fill:#47000F;fill-opacity:1" d="M 33 25 L 34 25 L 34 25.95 L 33 25.95 L 33 25 M 41 25.95 L 40 25.95 L 40 25 L 41 25 L 41 25.95 " stroke-width="1" fill="undefined"/>
<path style="fill:#530012;fill-opacity:1" d="M 34 26.95 L 33 26.95 L 33 25.95 L 34 25.95 L 35 25.95 L 35 26.95 L 34 26.95 " stroke-width="1" fill="undefined"/>
<path style="fill:#5A0013;fill-opacity:1" d="M 35 24 L 34.25 23.75 Q 34 23.5 34 23 L 35 23 L 35 24 M 47 23 L 47 22 L 47 21 L 48 21 L 48 22 L 48 23 L 47 23 " stroke-width="1" fill="undefined"/>
<path style="fill:#3D000D;fill-opacity:1" d="M 28 24 L 28 23 Q 28.5 23 28.75 23.25 Q 29 23.5 29 24 L 28 24 " stroke-width="1" fill="undefined"/>
<path style="fill:#140004;fill-opacity:1" d="M 26 22 L 26.75 22.25 L 27 23 L 26 23 L 26 22 M 39 25.95 L 39 25 L 40 25 L 40 25.95 L 39 25.95 " stroke-width="1" fill="undefined"/>
<path style="fill:#4D0010;fill-opacity:1" d="M 26 22 L 25 22 L 25 21 L 26 21 L 26 22 " stroke-width="1" fill="undefined"/>
<path style="fill:#C00029;fill-opacity:1" d="M 25.75 25.75 L 25 25.95 L 25 25 L 26 25 Q 26 25.45 25.75 25.75 " stroke-width="1" fill="undefined"/>
<path style="fill:#A90022;fill-opacity:1" d="M 30 28.95 L 30 29.95 L 29 29.95 L 29 30.95 L 28 30.95 L 27 30.95 L 26 30.95 Q 26 30.45 25.75 30.3 Q 24.3 29.2 25 25.95 L 25.75 25.75 Q 26 25.45 26 25 L 26 24 L 27 24 L 27 25 L 27 25.95 L 27 26.95 L 27.25 27.7 L 28 27.95 L 28.25 28.7 L 29 28.95 L 30 28.95 " stroke-width="1" fill="undefined"/>
<path style="fill:#30000A;fill-opacity:1" d="M 28 25 L 28 25.95 L 28 26.95 L 27 26.95 L 27 25.95 L 27 25 L 28 25 M 30 28.95 L 29 28.95 L 29 27.95 L 30 27.95 L 30 28.95 M 39 26.95 L 38 26.95 L 38 25.95 L 39 25.95 L 39 26.95 " stroke-width="1" fill="undefined"/>
<path style="fill:#86001D;fill-opacity:1" d="M 29 26.95 L 28 26.95 L 28 25.95 L 29 25.95 L 29 26.95 " stroke-width="1" fill="undefined"/>
<path style="fill:#9E0020;fill-opacity:1" d="M 30 26.95 L 30 27.95 L 29 27.95 L 29 26.95 L 30 26.95 " stroke-width="1" fill="undefined"/>
<path style="fill:#8B001D;fill-opacity:1" d="M 27.25 27.7 L 27 26.95 L 28 26.95 L 28 27.95 L 27.25 27.7 " stroke-width="1" fill="undefined"/>
<path style="fill:#DE807D;fill-opacity:1" d="M 26 31.95 L 26 30.95 L 27 30.95 L 27 31.95 L 26 31.95 " stroke-width="1" fill="undefined"/>
<path style="fill:#E2C3A7;fill-opacity:1" d="M 29.25 32.7 L 30 32.95 L 30.25 33.7 L 31 33.95 L 31.25 34.7 L 32 34.95 Q 32 35.45 32.25 35.7 L 33 35.95 L 33.25 36.7 L 34 36.95 Q 34 37.45 34.25 37.7 L 35 37.95 L 36 37.95 L 37 37.95 L 38 37.95 L 38 38.95 L 37 38.95 L 36 38.95 L 35 38.95 L 35 39.95 L 34 39.95 L 33 39.95 L 32 39.95 L 31 39.95 L 30 39.95 L 27 39.95 L 26 39.95 L 25 39.95 L 24 39.95 L 23 39.95 Q 23 39.45 22.75 39.2 Q 22.5 38.95 22 38.95 L 21 38.95 L 20 38.95 L 19 38.95 Q 19 38.45 18.75 38.2 Q 18.5 37.95 18 37.95 L 17 37.95 L 16 37.95 Q 16 37.45 15.75 37.2 Q 15.5 36.95 15 36.95 L 15 35.95 L 15.75 35.7 Q 16 35.45 16 34.95 L 17 34.95 L 17.75 34.7 L 18 33.95 L 19 33.95 L 19.75 33.7 Q 20 33.45 20 32.95 L 21 32.95 L 22 32.95 L 22.75 32.7 Q 23 32.45 23 31.95 L 24 31.95 L 25 31.95 L 26 31.95 L 27 31.95 L 28 31.95 L 29 31.95 L 29.25 32.7 " stroke-width="1" fill="undefined"/>
<path style="fill:#DD7576;fill-opacity:1" d="M 26 31.95 L 25 31.95 L 25 30.95 L 26 30.95 L 26 31.95 " stroke-width="1" fill="undefined"/>
<path style="fill:#DC5E67;fill-opacity:1" d="M 24 31.95 L 24 30.95 L 25 30.95 L 25 31.95 L 24 31.95 " stroke-width="1" fill="undefined"/>
<path style="fill:#E09C8E;fill-opacity:1" d="M 29 31.95 L 28 31.95 L 27 31.95 L 27 30.95 L 28 30.95 L 29 30.95 L 29 31.95 " stroke-width="1" fill="undefined"/>
<path style="fill:#97001F;fill-opacity:1" d="M 30 30.95 L 29 30.95 L 29 29.95 L 30 29.95 L 30 30.95 " stroke-width="1" fill="undefined"/>
<path style="fill:#49322C;fill-opacity:1" d="M 29 31.95 L 29 30.95 L 30 30.95 L 30 31.95 L 29 31.95 " stroke-width="1" fill="undefined"/>
<path style="fill:#5A380C;fill-opacity:1" d="M 34 27.95 L 34 26.95 L 35 26.95 L 35 27.95 L 34 27.95 " stroke-width="1" fill="undefined"/>
<path style="fill:#B08215;fill-opacity:1" d="M 33 27.95 L 34 27.95 L 33.75 28.7 L 33 28.95 L 33 27.95 " stroke-width="1" fill="undefined"/>
<path style="fill:#FAB81E;fill-opacity:1" d="M 37.25 27.7 L 38 27.95 L 39 27.95 L 40 27.95 Q 40 28.45 40.25 28.7 L 41 28.95 Q 41 29.45 41.25 29.7 L 42 29.95 L 42.25 30.7 L 43 30.95 L 44 30.95 L 44 31.95 L 43 31.95 L 42 31.95 L 41 31.95 L 40 31.95 L 39 31.95 L 38 31.95 L 37.75 31.2 L 37 30.95 L 36 30.95 L 35 30.95 L 34 30.95 L 33 30.95 L 32 30.95 L 32 29.95 L 32.75 29.7 L 33 28.95 L 33.75 28.7 L 34 27.95 L 35 27.95 L 35.75 27.7 L 36 26.95 L 37 26.95 Q 37 27.45 37.25 27.7 " stroke-width="1" fill="undefined"/>
<path style="fill:#2A1206;fill-opacity:1" d="M 32 28.95 L 32 27.95 L 33 27.95 L 33 28.95 L 32 28.95 " stroke-width="1" fill="undefined"/>
<path style="fill:#1C0006;fill-opacity:1" d="M 37 25 L 37 25.95 L 36 25.95 L 36 25 L 37 25 M 31 28.95 L 30 28.95 L 30 27.95 L 31 27.95 L 31 28.95 " stroke-width="1" fill="undefined"/>
<path style="fill:#35000B;fill-opacity:1" d="M 32 28.95 L 31 28.95 L 31 27.95 L 32 27.95 L 32 28.95 " stroke-width="1" fill="undefined"/>
<path style="fill:#3C2009;fill-opacity:1" d="M 32 29.95 L 31 29.95 L 31 28.95 L 32 28.95 L 32 29.95 " stroke-width="1" fill="undefined"/>
<path style="fill:#EFB01D;fill-opacity:1" d="M 31 30.95 L 31 29.95 L 32 29.95 L 32 30.95 L 31 30.95 " stroke-width="1" fill="undefined"/>
<path style="fill:#352107;fill-opacity:1" d="M 31 30.95 L 30 30.95 L 30 29.95 L 31 29.95 L 31 30.95 " stroke-width="1" fill="undefined"/>
<path style="fill:#402D08;fill-opacity:1" d="M 30 30.95 L 31 30.95 L 32 30.95 L 32 31.95 L 31 31.95 L 30 31.95 L 30 30.95 " stroke-width="1" fill="undefined"/>
<path style="fill:#3C2C19;fill-opacity:1" d="M 31 32.95 L 30 32.95 L 30 31.95 L 31 31.95 L 31 32.95 " stroke-width="1" fill="undefined"/>
<path style="fill:#312406;fill-opacity:1" d="M 32 31.95 L 32 30.95 L 33 30.95 L 33 31.95 L 32 31.95 " stroke-width="1" fill="undefined"/>
<path style="fill:#DB8A1B;fill-opacity:1" d="M 33 32.95 L 33 33.95 L 32 33.95 L 32 32.95 L 31 32.95 L 31 31.95 L 32 31.95 L 32 32.95 L 33 32.95 " stroke-width="1" fill="undefined"/>
<path style="fill:#553E0A;fill-opacity:1" d="M 33 30.95 L 34 30.95 L 34 31.95 L 33 31.95 L 33 30.95 " stroke-width="1" fill="undefined"/>
<path style="fill:#D5871A;fill-opacity:1" d="M 34 32.95 L 33 32.95 L 33 31.95 L 34 31.95 L 34 32.95 " stroke-width="1" fill="undefined"/>
<path style="fill:#63490C;fill-opacity:1" d="M 35 31.95 L 34 31.95 L 34 30.95 L 35 30.95 L 35 31.95 " stroke-width="1" fill="undefined"/>
<path style="fill:#DDA31A;fill-opacity:1" d="M 33 28.95 L 32.75 29.7 L 32 29.95 L 32 28.95 L 33 28.95 " stroke-width="1" fill="undefined"/>
<path style="fill:#F59B1E;fill-opacity:1" d="M 32 32.95 L 32 31.95 L 33 31.95 L 33 32.95 L 34 32.95 L 35 32.95 L 36 32.95 L 37 32.95 L 38 32.95 L 39 32.95 L 40 32.95 L 41 32.95 L 41 33.95 L 40 33.95 L 40 34.95 L 39 34.95 L 38 34.95 L 38 35.95 L 37 35.95 L 36 35.95 L 35 35.95 L 34.75 35.2 L 34 34.95 L 33.75 34.2 L 33 33.95 L 33 32.95 L 32 32.95 " stroke-width="1" fill="undefined"/>
<path style="fill:#CFB399;fill-opacity:1" d="M 29 31.95 L 30 31.95 L 30 32.95 L 29.25 32.7 L 29 31.95 " stroke-width="1" fill="undefined"/>
<path style="fill:#A70022;fill-opacity:1" d="M 15 28.95 L 15 27.95 L 16 27.95 L 17 27.95 L 17 28.95 L 17 29.95 L 17 30.95 L 16 30.95 L 15 30.95 L 15 29.95 L 15 28.95 M 20 28.95 L 20 25.95 L 20 25 L 21 25 L 22 25 L 22.25 25.75 L 23 25.95 L 23 26.95 L 23 28.95 L 23 29.95 L 22 29.95 L 22 30.95 L 21 30.95 Q 21 30.45 20.75 30.2 Q 20.5 29.95 20 29.95 L 20 28.95 " stroke-width="1" fill="undefined"/>
<path style="fill:#C8002A;fill-opacity:1" d="M 15 27.95 L 15 26.95 L 16.8 27.35 Q 17 27.45 17 27.95 L 16 27.95 L 15 27.95 M 20 25 L 20 24 L 21 24 L 21 25 L 20 25 " stroke-width="1" fill="undefined"/>
<path style="fill:#B70027;fill-opacity:1" d="M 41 23 L 40 23 L 40 22 L 41 22 L 41 23 M 22.25 25.75 L 22 25 L 22.75 25.2 Q 23 25.45 23 25.95 L 22.25 25.75 " stroke-width="1" fill="undefined"/>
<path style="fill:#C20029;fill-opacity:1" d="M 17 28.95 L 17 27.95 Q 17.5 27.95 17.75 28.2 Q 18 28.45 18 28.95 L 17 28.95 " stroke-width="1" fill="undefined"/>
<path style="fill:#B00024;fill-opacity:1" d="M 18 28.95 L 17.8 29.85 L 17 30.95 L 17 29.95 L 17 28.95 L 18 28.95 " stroke-width="1" fill="undefined"/>
<path style="fill:#CA002A;fill-opacity:1" d="M 16 31.95 L 15.25 31.7 L 15 30.95 L 16 30.95 L 16 31.95 " stroke-width="1" fill="undefined"/>
<path style="fill:#C60029;fill-opacity:1" d="M 23 28.95 L 23 26.95 Q 24.7 27.3 23.6 29.8 L 23 29.95 L 23 28.95 " stroke-width="1" fill="undefined"/>
<path style="fill:#C00028;fill-opacity:1" d="M 22 29.95 L 23 29.95 Q 23 30.45 22.75 30.7 L 22 30.95 L 22 29.95 " stroke-width="1" fill="undefined"/>
<path style="fill:#BA0027;fill-opacity:1" d="M 21 30.95 L 20.25 30.7 L 20 29.95 Q 20.5 29.95 20.75 30.2 Q 21 30.45 21 30.95 " stroke-width="1" fill="undefined"/>
<path style="fill:#DB495A;fill-opacity:1" d="M 20 31.95 L 21 31.95 L 21 32.95 L 20 32.95 L 20 31.95 " stroke-width="1" fill="undefined"/>
<path style="fill:#DE8580;fill-opacity:1" d="M 21 31.95 L 22 31.95 L 22 32.95 L 21 32.95 L 21 31.95 " stroke-width="1" fill="undefined"/>
<path style="fill:#D9344D;fill-opacity:1" d="M 23 31.95 L 23 30.95 L 24 30.95 L 24 31.95 L 23 31.95 " stroke-width="1" fill="undefined"/>
<path style="fill:#BF0028;fill-opacity:1" d="M 20 29.95 L 19.5 29.85 Q 19 27.95 19 25.95 L 20 25.95 L 20 28.95 L 20 29.95 M 48 28.95 L 47 28.95 L 46 28.95 L 46 27.95 L 46 25.95 Q 47.65 25.85 47.5 27.95 L 48 27.95 L 48 28.95 " stroke-width="1" fill="undefined"/>
<path style="fill:#E1B7A0;fill-opacity:1" d="M 22 31.95 L 23 31.95 Q 23 32.45 22.75 32.7 L 22 32.95 L 22 31.95 " stroke-width="1" fill="undefined"/>
<path style="fill:#E1B59E;fill-opacity:1" d="M 19 32.95 L 20 32.95 Q 20 33.45 19.75 33.7 L 19 33.95 L 19 32.95 " stroke-width="1" fill="undefined"/>
<path style="fill:#E1AC99;fill-opacity:1" d="M 17 33.95 L 18 33.95 L 17.75 34.7 L 17 34.95 L 17 33.95 M 40 35.95 L 41 35.95 L 41 36.95 L 40 36.95 L 40 35.95 " stroke-width="1" fill="undefined"/>
<path style="fill:#DB5763;fill-opacity:1" d="M 18 32.95 L 19 32.95 L 19 33.95 L 18 33.95 L 18 32.95 " stroke-width="1" fill="undefined"/>
<path style="fill:#D60730;fill-opacity:1" d="M 17 33.95 L 17 32.95 L 18 32.95 L 18 33.95 L 17 33.95 " stroke-width="1" fill="undefined"/>
<path style="fill:#DB4B5C;fill-opacity:1" d="M 17 34.95 L 16 34.95 L 16 33.95 L 17 33.95 L 17 34.95 " stroke-width="1" fill="undefined"/>
<path style="fill:#DF8C84;fill-opacity:1" d="M 15 35.95 L 15 34.95 L 16 34.95 Q 16 35.45 15.75 35.7 L 15 35.95 " stroke-width="1" fill="undefined"/>
<path style="fill:#B49C85;fill-opacity:1" d="M 15 37.95 L 15 36.95 Q 15.5 36.95 15.75 37.2 Q 16 37.45 16 37.95 L 15 37.95 " stroke-width="1" fill="undefined"/>
<path style="fill:#372F2A;fill-opacity:1" d="M 17 38.95 L 16 38.95 L 16 37.95 L 17 37.95 L 17 38.95 " stroke-width="1" fill="undefined"/>
<path style="fill:#C7AC93;fill-opacity:1" d="M 18 37.95 Q 18.5 37.95 18.75 38.2 Q 19 38.45 19 38.95 L 18 38.95 L 18 37.95 " stroke-width="1" fill="undefined"/>
<path style="fill:#897766;fill-opacity:1" d="M 18 38.95 L 17 38.95 L 17 37.95 L 18 37.95 L 18 38.95 " stroke-width="1" fill="undefined"/>
<path style="fill:#1F1C18;fill-opacity:1" d="M 19 39.95 L 19 38.95 L 20 38.95 L 20 39.95 L 19 39.95 " stroke-width="1" fill="undefined"/>
<path style="fill:#000000;fill-opacity:0.827451" d="M 16 38.95 L 17 38.95 L 17 39.95 L 16 39.95 L 16 38.95 " stroke-width="1" fill="undefined"/>
<path style="fill:#3F362E;fill-opacity:1" d="M 25 40.95 L 24 40.95 L 24 39.95 L 25 39.95 L 25 40.95 " stroke-width="1" fill="undefined"/>
<path style="fill:#28221E;fill-opacity:1" d="M 23 39.95 L 24 39.95 L 24 40.95 L 23 40.95 L 23 39.95 " stroke-width="1" fill="undefined"/>
<path style="fill:#DABCA1;fill-opacity:1" d="M 22 39.95 L 22 38.95 Q 22.5 38.95 22.75 39.2 Q 23 39.45 23 39.95 L 22 39.95 " stroke-width="1" fill="undefined"/>
<path style="fill:#9F8976;fill-opacity:1" d="M 21 38.95 L 22 38.95 L 22 39.95 L 21 39.95 L 21 38.95 " stroke-width="1" fill="undefined"/>
<path style="fill:#67594C;fill-opacity:1" d="M 20 38.95 L 21 38.95 L 21 39.95 L 20 39.95 L 20 38.95 " stroke-width="1" fill="undefined"/>
<path style="fill:#000000;fill-opacity:0.262745" d="M 49 30.95 L 48.75 31.7 L 48 31.95 L 48 30.95 L 49 30.95 M 22 41.95 L 21.25 41.7 L 21 40.95 L 22 40.95 L 22 41.95 " stroke-width="1" fill="undefined"/>
<path style="fill:#000000;fill-opacity:0.45098" d="M 22 40.95 L 23 40.95 L 23 41.95 L 22 41.95 L 22 40.95 " stroke-width="1" fill="undefined"/>
<path style="fill:#D8891A;fill-opacity:1" d="M 33 33.95 L 33.75 34.2 L 34 34.95 L 33 34.95 L 33 33.95 " stroke-width="1" fill="undefined"/>
<path style="fill:#342412;fill-opacity:1" d="M 32 34.95 L 32 33.95 L 33 33.95 L 33 34.95 L 32 34.95 " stroke-width="1" fill="undefined"/>
<path style="fill:#2F2315;fill-opacity:1" d="M 33 35.95 L 33 34.95 L 34 34.95 L 34 35.95 L 33 35.95 " stroke-width="1" fill="undefined"/>
<path style="fill:#C07A18;fill-opacity:1" d="M 34 35.95 L 34 34.95 L 34.75 35.2 L 35 35.95 L 34 35.95 " stroke-width="1" fill="undefined"/>
<path style="fill:#322310;fill-opacity:1" d="M 32 32.95 L 32 33.95 L 31 33.95 L 31 32.95 L 32 32.95 " stroke-width="1" fill="undefined"/>
<path style="fill:#C1A78F;fill-opacity:1" d="M 31 33.95 L 30.25 33.7 L 30 32.95 L 31 32.95 L 31 33.95 " stroke-width="1" fill="undefined"/>
<path style="fill:#BEA58D;fill-opacity:1" d="M 33 34.95 L 33 35.95 L 32.25 35.7 Q 32 35.45 32 34.95 L 33 34.95 " stroke-width="1" fill="undefined"/>
<path style="fill:#BCA38B;fill-opacity:1" d="M 32 34.95 L 31.25 34.7 L 31 33.95 L 32 33.95 L 32 34.95 " stroke-width="1" fill="undefined"/>
<path style="fill:#CDB197;fill-opacity:1" d="M 34 36.95 L 33.25 36.7 L 33 35.95 L 34 35.95 L 34 36.95 " stroke-width="1" fill="undefined"/>
<path style="fill:#362D23;fill-opacity:1" d="M 34 36.95 L 34 35.95 L 35 35.95 L 35 36.95 L 34 36.95 " stroke-width="1" fill="undefined"/>
<path style="fill:#D7BA9F;fill-opacity:1" d="M 35 37.95 L 34.25 37.7 Q 34 37.45 34 36.95 L 35 36.95 L 35 37.95 " stroke-width="1" fill="undefined"/>
<path style="fill:#877564;fill-opacity:1" d="M 31 40.95 L 30 40.95 L 27 40.95 L 27 39.95 L 30 39.95 L 31 39.95 L 31 40.95 " stroke-width="1" fill="undefined"/>
<path style="fill:#64574A;fill-opacity:1" d="M 26 39.95 L 27 39.95 L 27 40.95 L 26 40.95 L 26 39.95 M 36 37.95 L 35 37.95 L 35 36.95 L 36 36.95 L 36 37.95 " stroke-width="1" fill="undefined"/>
<path style="fill:#000000;fill-opacity:0.921569" d="M 48 24 L 48 23 L 49 23 L 49 24 L 48 24 M 26 40.95 L 27 40.95 L 27 41.95 L 26 41.95 L 26 40.95 " stroke-width="1" fill="undefined"/>
<path style="fill:#594D42;fill-opacity:1" d="M 25 40.95 L 25 39.95 L 26 39.95 L 26 40.95 L 25 40.95 M 32 40.95 L 31 40.95 L 31 39.95 L 32 39.95 L 33 39.95 L 33 40.95 L 32 40.95 " stroke-width="1" fill="undefined"/>
<path style="fill:#000000;fill-opacity:0.803922" d="M 32 40.95 L 33 40.95 L 33 41.95 L 32 41.95 L 32 40.95 M 25 40.95 L 26 40.95 L 26 41.95 L 25 41.95 L 25 40.95 " stroke-width="1" fill="undefined"/>
<path style="fill:#181512;fill-opacity:1" d="M 35 40.95 L 34 40.95 L 34 39.95 L 35 39.95 L 35 40.95 " stroke-width="1" fill="undefined"/>
<path style="fill:#2C2721;fill-opacity:1" d="M 33 39.95 L 34 39.95 L 34 40.95 L 33 40.95 L 33 39.95 " stroke-width="1" fill="undefined"/>
<path style="fill:#000000;fill-opacity:0.627451" d="M 34 41.95 L 33 41.95 L 33 40.95 L 34 40.95 L 34 41.95 " stroke-width="1" fill="undefined"/>
<path style="fill:#000000;fill-opacity:0.521569" d="M 35 41.95 L 34 41.95 L 34 40.95 L 35 40.95 L 35 41.95 " stroke-width="1" fill="undefined"/>
<path style="fill:#C37C18;fill-opacity:1" d="M 35 32.95 L 34 32.95 L 34 31.95 L 35 31.95 L 35 32.95 M 39 35.95 L 38 35.95 L 38 34.95 L 39 34.95 L 39 35.95 " stroke-width="1" fill="undefined"/>
<path style="fill:#000000;fill-opacity:0.709804" d="M 48 22 L 49 22 L 49 23 L 48 23 L 48 22 " stroke-width="1" fill="undefined"/>
<path style="fill:#AB0023;fill-opacity:1" d="M 46 24 L 46 25 L 45 25 L 45 24 L 46 24 " stroke-width="1" fill="undefined"/>
<path style="fill:#6A0016;fill-opacity:1" d="M 43 24 L 44 24 L 45 24 L 45 25 L 44 25 L 43 25 L 43 24 " stroke-width="1" fill="undefined"/>
<path style="fill:#2F000A;fill-opacity:1" d="M 44 25.95 L 43 25.95 L 43 25 L 44 25 L 45 25 L 45 25.95 L 44 25.95 " stroke-width="1" fill="undefined"/>
<path style="fill:#A50021;fill-opacity:1" d="M 45 28.95 L 45 29.95 L 44 29.95 L 43 29.95 L 43 28.95 L 43.75 28.7 L 44 27.95 L 44.8 26.85 L 45 25.95 L 46 25.95 L 46 27.95 L 46 28.95 L 45 28.95 " stroke-width="1" fill="undefined"/>
<path style="fill:#D4002B;fill-opacity:1" d="M 48 24 L 48 25 L 48 25.95 L 48 26.95 L 48 27.95 L 47.5 27.95 Q 47.65 25.85 46 25.95 L 46 25 L 46 24 L 47 24 L 48 24 " stroke-width="1" fill="undefined"/>
<path style="fill:#1E0006;fill-opacity:1" d="M 49 25 L 49 25.95 L 49 26.95 L 48 26.95 L 48 25.95 L 48 25 L 49 25 " stroke-width="1" fill="undefined"/>
<path style="fill:#120004;fill-opacity:1" d="M 48 25 L 48 24 L 49 24 L 49 25 L 48 25 " stroke-width="1" fill="undefined"/>
<path style="fill:#B10024;fill-opacity:1" d="M 48 23 L 48 24 L 47 24 L 47 23 L 48 23 " stroke-width="1" fill="undefined"/>
<path style="fill:#B30025;fill-opacity:1" d="M 45 29.95 L 45 28.95 L 46 28.95 L 45.75 29.7 L 45 29.95 " stroke-width="1" fill="undefined"/>
<path style="fill:#D5002C;fill-opacity:1" d="M 47 29.95 L 47 30.95 L 46 30.95 L 46 31.95 L 45 31.95 L 45 30.95 L 45 29.95 L 45.75 29.7 L 46 28.95 L 47 28.95 L 47 29.95 " stroke-width="1" fill="undefined"/>
<path style="fill:#BE0029;fill-opacity:1" d="M 44 30.95 L 44 29.95 L 45 29.95 L 45 30.95 L 44 30.95 " stroke-width="1" fill="undefined"/>
<path style="fill:#6D0017;fill-opacity:1" d="M 43 26.95 L 44 26.95 L 44 27.95 L 43.75 28.7 L 43 28.95 L 43 27.95 L 43 26.95 M 46 32.95 L 46 33.95 L 45 33.95 L 44 33.95 L 44 32.95 L 44.75 32.7 L 45 31.95 L 46 31.95 L 46 32.95 " stroke-width="1" fill="undefined"/>
<path style="fill:#672F10;fill-opacity:1" d="M 44 31.95 L 44 30.95 L 45 30.95 L 45 31.95 L 44 31.95 " stroke-width="1" fill="undefined"/>
<path style="fill:#0A0001;fill-opacity:1" d="M 47 31.95 L 47 30.95 L 48 30.95 L 48 31.95 L 47 31.95 M 43 37.95 L 42 37.95 L 42 36.95 L 43 36.95 L 43 37.95 " stroke-width="1" fill="undefined"/>
<path style="fill:#000000;fill-opacity:0.568627" d="M 49 29.95 L 49 30.95 L 48 30.95 L 48 29.95 L 49 29.95 " stroke-width="1" fill="undefined"/>
<path style="fill:#000000;fill-opacity:0.862745" d="M 47 32.95 L 47 31.95 L 48 31.95 L 48 32.95 L 47 32.95 " stroke-width="1" fill="undefined"/>
<path style="fill:#570013;fill-opacity:1" d="M 41 22 L 42 22 L 41.75 22.75 Q 41.5 23 41 23 L 41 22 " stroke-width="1" fill="undefined"/>
<path style="fill:#7F001B;fill-opacity:1" d="M 41 26.95 L 40 26.95 L 39 26.95 L 39 25.95 L 40 25.95 L 41 25.95 L 41 26.95 " stroke-width="1" fill="undefined"/>
<path style="fill:#610014;fill-opacity:1" d="M 41 25 L 42 25 L 42 25.95 L 41 25.95 L 41 25 " stroke-width="1" fill="undefined"/>
<path style="fill:#220007;fill-opacity:1" d="M 43 25 L 42 25 L 42 24 L 43 24 L 43 25 " stroke-width="1" fill="undefined"/>
<path style="fill:#B40025;fill-opacity:1" d="M 44 26.95 L 43 26.95 L 43 25.95 L 44 25.95 L 44 26.95 M 43 36.95 L 42 36.95 L 42 35.95 L 43 35.95 L 43 36.95 " stroke-width="1" fill="undefined"/>
<path style="fill:#280009;fill-opacity:1" d="M 36 26.95 L 35 26.95 L 35 25.95 L 36 25.95 L 36 26.95 " stroke-width="1" fill="undefined"/>
<path style="fill:#271A05;fill-opacity:1" d="M 37 26.95 L 36 26.95 L 36 25.95 L 37 25.95 L 37 26.95 " stroke-width="1" fill="undefined"/>
<path style="fill:#100102;fill-opacity:1" d="M 38 26.95 L 37 26.95 L 37 25.95 L 38 25.95 L 38 26.95 " stroke-width="1" fill="undefined"/>
<path style="fill:#572C0D;fill-opacity:1" d="M 40 26.95 L 40 27.95 L 39 27.95 L 39 26.95 L 40 26.95 " stroke-width="1" fill="undefined"/>
<path style="fill:#A17713;fill-opacity:1" d="M 43 32.95 L 42 32.95 L 42 31.95 L 43 31.95 L 43 32.95 M 39 26.95 L 39 27.95 L 38 27.95 L 38 26.95 L 39 26.95 " stroke-width="1" fill="undefined"/>
<path style="fill:#ECAE1C;fill-opacity:1" d="M 38 27.95 L 37.25 27.7 Q 37 27.45 37 26.95 L 38 26.95 L 38 27.95 " stroke-width="1" fill="undefined"/>
<path style="fill:#BF8D17;fill-opacity:1" d="M 35.75 27.7 L 35 27.95 L 35 26.95 L 36 26.95 L 35.75 27.7 M 44 31.95 L 45 31.95 L 44.75 32.7 L 44 32.95 L 44 31.95 " stroke-width="1" fill="undefined"/>
<path style="fill:#B68716;fill-opacity:1" d="M 36 30.95 L 37 30.95 L 37 31.95 L 36 31.95 L 36 30.95 " stroke-width="1" fill="undefined"/>
<path style="fill:#936C12;fill-opacity:1" d="M 35 31.95 L 35 30.95 L 36 30.95 L 36 31.95 L 35 31.95 " stroke-width="1" fill="undefined"/>
<path style="fill:#A06614;fill-opacity:1" d="M 35 31.95 L 36 31.95 L 36 32.95 L 35 32.95 L 35 31.95 " stroke-width="1" fill="undefined"/>
<path style="fill:#925D12;fill-opacity:1" d="M 37 32.95 L 36 32.95 L 36 31.95 L 37 31.95 L 37 32.95 " stroke-width="1" fill="undefined"/>
<path style="fill:#DBA11A;fill-opacity:1" d="M 37 31.95 L 37 30.95 L 37.75 31.2 L 38 31.95 L 37 31.95 " stroke-width="1" fill="undefined"/>
<path style="fill:#573A0B;fill-opacity:1" d="M 40 32.95 L 39 32.95 L 38 32.95 L 38 31.95 L 39 31.95 L 40 31.95 L 40 32.95 " stroke-width="1" fill="undefined"/>
<path style="fill:#6A430D;fill-opacity:1" d="M 37 31.95 L 38 31.95 L 38 32.95 L 37 32.95 L 37 31.95 " stroke-width="1" fill="undefined"/>
<path style="fill:#560012;fill-opacity:1" d="M 44 26.95 L 44 25.95 L 45 25.95 L 44.8 26.85 L 44 27.95 L 44 26.95 " stroke-width="1" fill="undefined"/>
<path style="fill:#290009;fill-opacity:1" d="M 42 27.95 L 43 27.95 L 43 28.95 L 42 28.95 L 42 27.95 " stroke-width="1" fill="undefined"/>
<path style="fill:#D3002C;fill-opacity:1" d="M 43 26.95 L 43 27.95 L 42 27.95 L 41 27.95 L 41 26.95 L 42 26.95 L 43 26.95 " stroke-width="1" fill="undefined"/>
<path style="fill:#AB7E14;fill-opacity:1" d="M 41 27.95 L 41 28.95 L 40.25 28.7 Q 40 28.45 40 27.95 L 41 27.95 " stroke-width="1" fill="undefined"/>
<path style="fill:#321409;fill-opacity:1" d="M 42 27.95 L 42 28.95 L 41 28.95 L 41 27.95 L 42 27.95 " stroke-width="1" fill="undefined"/>
<path style="fill:#E9AC1C;fill-opacity:1" d="M 42 28.95 L 42 29.95 L 41.25 29.7 Q 41 29.45 41 28.95 L 42 28.95 " stroke-width="1" fill="undefined"/>
<path style="fill:#62470C;fill-opacity:1" d="M 40 31.95 L 41 31.95 L 41 32.95 L 40 32.95 L 40 31.95 " stroke-width="1" fill="undefined"/>
<path style="fill:#7E5D0F;fill-opacity:1" d="M 41 31.95 L 42 31.95 L 42 32.95 L 41 32.95 L 41 31.95 " stroke-width="1" fill="undefined"/>
<path style="fill:#F2B21D;fill-opacity:1" d="M 43 30.95 L 42.25 30.7 L 42 29.95 L 43 29.95 L 43 30.95 " stroke-width="1" fill="undefined"/>
<path style="fill:#703A10;fill-opacity:1" d="M 44 30.95 L 43 30.95 L 43 29.95 L 44 29.95 L 44 30.95 " stroke-width="1" fill="undefined"/>
<path style="fill:#C99418;fill-opacity:1" d="M 43 31.95 L 44 31.95 L 44 32.95 L 43 32.95 L 43 31.95 " stroke-width="1" fill="undefined"/>
<path style="fill:#5E2C0F;fill-opacity:1" d="M 42 29.95 L 42 28.95 L 43 28.95 L 43 29.95 L 42 29.95 " stroke-width="1" fill="undefined"/>
<path style="fill:#7E001B;fill-opacity:1" d="M 43 33.95 L 43 32.95 L 44 32.95 L 44 33.95 L 43 33.95 " stroke-width="1" fill="undefined"/>
<path style="fill:#4A1A0C;fill-opacity:1" d="M 43 32.95 L 43 33.95 L 42 33.95 L 42 32.95 L 43 32.95 " stroke-width="1" fill="undefined"/>
<path style="fill:#D3002B;fill-opacity:1" d="M 44 35.95 L 43 35.95 L 42 35.95 L 41 35.95 L 41 34.95 L 41.75 34.7 L 42 33.95 L 43 33.95 L 44 33.95 L 44 34.95 L 44 35.95 " stroke-width="1" fill="undefined"/>
<path style="fill:#CC8019;fill-opacity:1" d="M 42 32.95 L 42 33.95 L 41 33.95 L 41 32.95 L 42 32.95 " stroke-width="1" fill="undefined"/>
<path style="fill:#9E6413;fill-opacity:1" d="M 41 34.95 L 40 34.95 L 40 33.95 L 41 33.95 L 41 34.95 " stroke-width="1" fill="undefined"/>
<path style="fill:#961F32;fill-opacity:1" d="M 40 34.95 L 41 34.95 L 41 35.95 L 40 35.95 L 40 34.95 " stroke-width="1" fill="undefined"/>
<path style="fill:#680915;fill-opacity:1" d="M 41 34.95 L 41 33.95 L 42 33.95 L 41.75 34.7 L 41 34.95 " stroke-width="1" fill="undefined"/>
<path style="fill:#D70932;fill-opacity:1" d="M 41 36.95 L 41 35.95 L 42 35.95 L 42 36.95 L 41 36.95 " stroke-width="1" fill="undefined"/>
<path style="fill:#E1C2A6;fill-opacity:1" d="M 41 37.95 L 40 37.95 L 39 37.95 L 38 37.95 L 38 36.95 L 39 36.95 L 40 36.95 L 41 36.95 L 41 37.95 " stroke-width="1" fill="undefined"/>
<path style="fill:#D2B59B;fill-opacity:1" d="M 39 35.95 L 40 35.95 L 40 36.95 L 39 36.95 L 39 35.95 " stroke-width="1" fill="undefined"/>
<path style="fill:#221E1A;fill-opacity:1" d="M 40 37.95 L 41 37.95 L 41 38.95 L 40 38.95 L 40 37.95 " stroke-width="1" fill="undefined"/>
<path style="fill:#7D3038;fill-opacity:1" d="M 41 37.95 L 41 36.95 L 42 36.95 L 42 37.95 L 41 37.95 " stroke-width="1" fill="undefined"/>
<path style="fill:#000000;fill-opacity:0.956863" d="M 45 36.95 L 44 36.95 L 44 35.95 L 45 35.95 L 45 36.95 " stroke-width="1" fill="undefined"/>
<path style="fill:#4F3512;fill-opacity:1" d="M 39 34.95 L 40 34.95 L 40 35.95 L 39 35.95 L 39 34.95 " stroke-width="1" fill="undefined"/>
<path style="fill:#34000B;fill-opacity:1" d="M 45 35.95 L 44 35.95 L 44 34.95 L 45 34.95 L 45 35.95 " stroke-width="1" fill="undefined"/>
<path style="fill:#4A2F09;fill-opacity:1" d="M 38 36.95 L 37 36.95 L 37 35.95 L 38 35.95 L 38 36.95 " stroke-width="1" fill="undefined"/>
<path style="fill:#C77E18;fill-opacity:1" d="M 36 36.95 L 36 35.95 L 37 35.95 L 37 36.95 L 36 36.95 " stroke-width="1" fill="undefined"/>
<path style="fill:#865511;fill-opacity:1" d="M 36 36.95 L 35 36.95 L 35 35.95 L 36 35.95 L 36 36.95 " stroke-width="1" fill="undefined"/>
<path style="fill:#3D342C;fill-opacity:1" d="M 37 36.95 L 37 37.95 L 36 37.95 L 36 36.95 L 37 36.95 " stroke-width="1" fill="undefined"/>
<path style="fill:#AC957F;fill-opacity:1" d="M 37 36.95 L 38 36.95 L 38 37.95 L 37 37.95 L 37 36.95 " stroke-width="1" fill="undefined"/>
<path style="fill:#4F443A;fill-opacity:1" d="M 39 35.95 L 39 36.95 L 38 36.95 L 38 35.95 L 39 35.95 " stroke-width="1" fill="undefined"/>
<path style="fill:#D5B79D;fill-opacity:1" d="M 39 38.95 L 38 38.95 L 38 37.95 L 39 37.95 L 39 38.95 " stroke-width="1" fill="undefined"/>
<path style="fill:#050504;fill-opacity:1" d="M 39 38.95 L 39 39.95 L 38 39.95 L 38 38.95 L 39 38.95 " stroke-width="1" fill="undefined"/>
<path style="fill:#000000;fill-opacity:0.67451" d="M 37 39.95 L 38 39.95 L 38 40.95 L 37 40.95 L 37 39.95 " stroke-width="1" fill="undefined"/>
<path style="fill:#473D34;fill-opacity:1" d="M 37 39.95 L 37 38.95 L 38 38.95 L 38 39.95 L 37 39.95 " stroke-width="1" fill="undefined"/>
<path style="fill:#8F7C6A;fill-opacity:1" d="M 36 39.95 L 36 38.95 L 37 38.95 L 37 39.95 L 36 39.95 " stroke-width="1" fill="undefined"/>
<path style="fill:#C4AA91;fill-opacity:1" d="M 36 39.95 L 35 39.95 L 35 38.95 L 36 38.95 L 36 39.95 " stroke-width="1" fill="undefined"/>
<path style="fill:#000000;fill-opacity:0.27451" d="M 35 40.95 L 36 40.95 L 35.75 41.7 L 35 41.95 L 35 40.95 " stroke-width="1" fill="undefined"/>
<path style="fill:#000000;fill-opacity:0.662745" d="M 41 38.95 L 41 39.95 L 40 39.95 L 40 38.95 L 41 38.95 " stroke-width="1" fill="undefined"/>
<path style="fill:#847262;fill-opacity:1" d="M 40 38.95 L 39 38.95 L 39 37.95 L 40 37.95 L 40 38.95 " stroke-width="1" fill="undefined"/>
<path style="fill:#050000;fill-opacity:1" d="M 47 32.95 L 47 33.95 L 46 33.95 L 46 32.95 L 47 32.95 " stroke-width="1" fill="undefined"/>
<path style="fill:#2B0009;fill-opacity:1" d="M 46 33.95 L 46 34.95 L 45 34.95 L 45 33.95 L 46 33.95 " stroke-width="1" fill="undefined"/>
</g>
</svg>