<?xml version="1.0" encoding="utf-8"?><svg xmlns="http://www.w3.org/2000/svg" xmlns:xlink="http://www.w3.org/1999/xlink" xmlns:author="http://www.sothink.com" version="1.1" id="Layer_1" width="18.484445571899414" height="29.738182067871094" xml:space="preserve" viewBox="0 -0.03062504529953003 18.484445571899414 29.738182067871094">
<g id="143">
<path style="fill:#000000;fill-opacity:1" d="M 0.85 6.45 L 0.85 0.85 Q 16.85 -0.3 17.7 2.6 Q 18.5 5.45 17.05 8.4 L 6.6 26.9 Q 4.85 30.05 2.9 28.9 L 1.5 27.65 Q -0.5 26.35 1.5 23.05 L 10.55 9.1 Q 11.95 6.5 10.55 6.45 L 0.85 6.45 " stroke-width="1" fill="undefined"/>
<path style="fill:none;stroke-width:1;stroke-linecap:round;stroke-linejoin:round;stroke-miterlimit:3;stroke:#000000;stroke-opacity:1" d="M 10.55 6.45 Q 11.95 6.5 10.55 9.1 L 1.5 23.05 Q -0.5 26.35 1.5 27.65 L 2.9 28.9 Q 4.85 30.05 6.6 26.9 L 17.05 8.4 Q 18.5 5.45 17.7 2.6 Q 16.85 -0.3 0.85 0.85 L 0.85 6.45 L 10.55 6.45 Z " stroke-width="1" fill="undefined"/>
<path style="fill:#FFFEFD;fill-opacity:1" d="M 1 0.8 Q 16.65 -0.35 17.5 2.5 Q 18.3 5.3 16.85 8.2 L 6.6 26.35 Q 4.9 29.4 3 28.3 L 1.6 27.05 Q -0.35 25.8 1.6 22.55 L 10.5 8.9 Q 11.85 6.35 10.5 6.3 L 1 6.3 L 1 0.8 " stroke-width="1" fill="undefined"/>
<path style="fill:none;stroke-width:0.5;stroke-linecap:round;stroke-linejoin:round;stroke-miterlimit:3;stroke:#000000;stroke-opacity:1" d="M 1 6.3 L 10.5 6.3 Q 11.85 6.35 10.5 8.9 L 1.6 22.55 Q -0.35 25.8 1.6 27.05 L 3 28.3 Q 4.9 29.4 6.6 26.35 L 16.85 8.2 Q 18.3 5.3 17.5 2.5 Q 16.65 -0.35 1 0.8 L 1 6.3 Z " stroke-width="1" fill="undefined"/>
</g>
</svg>