<svg xmlns="http://www.w3.org/2000/svg" xmlns:xlink="http://www.w3.org/1999/xlink" version="1.1" width="4.5" height="2.5" viewBox="-0.5 -0.5 4.5 2.5"><g><g data-paper-data="{&quot;isPaintingLayer&quot;:true}" fill-rule="nonzero" stroke="none" stroke-linecap="butt" stroke-linejoin="miter" stroke-miterlimit="10" stroke-dasharray="" stroke-dashoffset="0" font-family="none" font-weight="none" font-size="none" text-anchor="none" style="mix-blend-mode: normal"><path d="M 0 1.25 C 0 1.1119 0.1119 1 0.25 1 C 0.3881 1 0.5 1.1119 0.5 1.25 C 0.5 1.3881 0.3881 1.5 0.25 1.5 C 0.1119 1.5 0 1.3881 0 1.25 Z " stroke-width="0.5" fill="#ffffff"/><path d="M 3 1.25 C 3 1.1119 3.1119 1 3.25 1 C 3.3881 1 3.5 1.1119 3.5 1.25 C 3.5 1.3881 3.3881 1.5 3.25 1.5 C 3.1119 1.5 3 1.3881 3 1.25 Z " stroke-width="0.5" fill="#ffffff"/><path d="M 1 0.25 C 1 0.1119 1.1119 0 1.25 0 C 1.3881 0 1.5 0.1119 1.5 0.25 C 1.5 0.3881 1.3881 0.5 1.25 0.5 C 1.1119 0.5 1 0.3881 1 0.25 Z " stroke-width="0.5" fill="#ffffff"/></g></g></svg>