<?xml version="1.0" encoding="utf-8"?><svg xmlns="http://www.w3.org/2000/svg" xmlns:xlink="http://www.w3.org/1999/xlink" xmlns:author="http://www.sothink.com" version="1.1" id="Layer_1" width="19.225341796875" height="30.467655181884766" xml:space="preserve" viewBox="0.024657726287841797 -0.26543210446834564 19.225341796875 30.467655181884766">
<g id="146">
<path style="fill:#000000;fill-opacity:1" d="M 9.7 8.1 Q 8 8.2 7.15 9.5 Q 6.25 10.85 5.9 14.15 Q 5.55 17.45 6.75 19.5 Q 7.95 21.5 9.65 21.55 Q 11.3 21.6 12.45 19.55 Q 13.55 17.5 13.55 14.5 Q 13.55 11.5 12.5 9.75 Q 11.35 8 9.7 8.1 M 16.2 4.1 Q 18.75 7.9 18.75 14.4 Q 18.75 20.95 16.1 25.4 Q 13.45 29.8 9.5 29.7 Q 5.55 29.55 2.75 25.3 Q -0.1 20.85 0.7 13.65 Q 1.55 6.45 3.6 3.55 Q 5.65 0.7 9.65 0.5 Q 13.55 0.25 16.2 4.1 " stroke-width="1" fill="undefined"/>
<path style="fill:none;stroke-width:1;stroke-linecap:round;stroke-linejoin:round;stroke-miterlimit:3;stroke:#000000;stroke-opacity:1" d="M 12.5 9.75 Q 13.55 11.5 13.55 14.5 Q 13.55 17.5 12.45 19.55 Q 11.3 21.6 9.65 21.55 Q 7.95 21.5 6.75 19.5 Q 5.55 17.45 5.9 14.15 Q 6.25 10.85 7.15 9.5 Q 8 8.2 9.7 8.1 Q 11.35 8 12.5 9.75 M 16.2 4.1 Q 18.75 7.9 18.75 14.4 Q 18.75 20.95 16.1 25.4 Q 13.45 29.8 9.5 29.7 Q 5.55 29.55 2.75 25.3 Q -0.1 20.85 0.7 13.65 Q 1.55 6.45 3.6 3.55 Q 5.65 0.7 9.65 0.5 Q 13.55 0.25 16.2 4.1 " stroke-width="1" fill="undefined"/>
<path style="fill:#FFFEFD;fill-opacity:1" d="M 16.05 3.8 Q 18.55 7.5 18.55 13.9 Q 18.55 20.3 15.95 24.65 Q 13.35 29 9.45 28.9 Q 5.6 28.75 2.85 24.55 Q 0.05 20.2 0.85 13.15 Q 1.7 6.1 3.7 3.25 Q 5.7 0.45 9.6 0.25 Q 13.45 0 16.05 3.8 M 9.65 7.7 Q 8 7.8 7.15 9.1 Q 6.3 10.4 5.95 13.65 Q 5.6 16.9 6.8 18.9 Q 7.95 20.85 9.6 20.9 Q 11.25 20.95 12.35 18.95 Q 13.45 16.95 13.45 14 Q 13.45 11.05 12.4 9.35 Q 11.3 7.6 9.65 7.7 " stroke-width="1" fill="undefined"/>
<path style="fill:none;stroke-width:0.5;stroke-linecap:round;stroke-linejoin:round;stroke-miterlimit:3;stroke:#000000;stroke-opacity:1" d="M 16.05 3.8 Q 18.55 7.5 18.55 13.9 Q 18.55 20.3 15.95 24.65 Q 13.35 29 9.45 28.9 Q 5.6 28.75 2.85 24.55 Q 0.05 20.2 0.85 13.15 Q 1.7 6.1 3.7 3.25 Q 5.7 0.45 9.6 0.25 Q 13.45 0 16.05 3.8 M 12.4 9.35 Q 13.45 11.05 13.45 14 Q 13.45 16.95 12.35 18.95 Q 11.25 20.95 9.6 20.9 Q 7.95 20.85 6.8 18.9 Q 5.6 16.9 5.95 13.65 Q 6.3 10.4 7.15 9.1 Q 8 7.8 9.65 7.7 Q 11.3 7.6 12.4 9.35 " stroke-width="1" fill="undefined"/>
</g>
</svg>