<?xml version="1.0" encoding="utf-8"?><svg xmlns="http://www.w3.org/2000/svg" xmlns:xlink="http://www.w3.org/1999/xlink" xmlns:author="http://www.sothink.com" version="1.1" id="Layer_1" width="19.669477462768555" height="31.170833587646484" xml:space="preserve" viewBox="-0.0032607316970825195 -0.25 19.669477462768555 31.170833587646484">
<g id="140">
<path style="fill:#000000;fill-opacity:1" d="M 6.4 10 Q 5.9 12 7.9 11.55 L 11.65 11.55 Q 13.25 11.65 12.95 9.25 L 12.95 2 Q 12.6 0.5 14.85 0.5 L 17.95 0.5 Q 19.45 0.8 19.1 2.95 L 17.95 27.9 Q 18.4 30.65 16.85 30.4 L 12.95 30.4 Q 11.4 30.6 11.65 28.35 L 11.65 18.05 L 2.15 18.05 Q 0.2 18 0.55 16.05 L 0.55 3.55 Q 0.35 1.5 1.55 1.5 L 4.95 1.5 Q 6.65 1.6 6.4 3.7 L 6.4 10 " stroke-width="1" fill="undefined"/>
<path style="fill:none;stroke-width:1;stroke-linecap:round;stroke-linejoin:round;stroke-miterlimit:3;stroke:#000000;stroke-opacity:1" d="M 6.4 10 Q 5.9 12 7.9 11.55 L 11.65 11.55 Q 13.25 11.65 12.95 9.25 L 12.95 2 Q 12.6 0.5 14.85 0.5 L 17.95 0.5 Q 19.45 0.8 19.1 2.95 L 17.95 27.9 Q 18.4 30.65 16.85 30.4 L 12.95 30.4 Q 11.4 30.6 11.65 28.35 L 11.65 18.05 L 2.15 18.05 Q 0.2 18 0.55 16.05 L 0.55 3.55 Q 0.35 1.5 1.55 1.5 L 4.95 1.5 Q 6.65 1.6 6.4 3.7 L 6.4 10 Z " stroke-width="1" fill="undefined"/>
<path style="fill:#FFFEFD;fill-opacity:1" d="M 12.85 1.75 Q 12.55 0.25 14.75 0.25 L 17.75 0.25 Q 19.25 0.55 18.9 2.65 L 17.75 27.15 Q 18.2 29.85 16.7 29.6 L 12.85 29.6 Q 11.35 29.8 11.6 27.6 L 11.6 17.5 L 2.3 17.5 Q 0.35 17.45 0.7 15.5 L 0.7 3.25 Q 0.5 1.25 1.7 1.25 L 5.05 1.25 Q 6.7 1.35 6.45 3.4 L 6.45 9.6 Q 5.95 11.55 7.9 11.1 L 11.6 11.1 Q 13.15 11.2 12.85 8.85 L 12.85 1.75 " stroke-width="1" fill="undefined"/>
<path style="fill:none;stroke-width:0.5;stroke-linecap:round;stroke-linejoin:round;stroke-miterlimit:3;stroke:#000000;stroke-opacity:1" d="M 12.85 1.75 Q 12.55 0.25 14.75 0.25 L 17.75 0.25 Q 19.25 0.55 18.9 2.65 L 17.75 27.15 Q 18.2 29.85 16.7 29.6 L 12.85 29.6 Q 11.35 29.8 11.6 27.6 L 11.6 17.5 L 2.3 17.5 Q 0.35 17.45 0.7 15.5 L 0.7 3.25 Q 0.5 1.25 1.7 1.25 L 5.05 1.25 Q 6.7 1.35 6.45 3.4 L 6.45 9.6 Q 5.95 11.55 7.9 11.1 L 11.6 11.1 Q 13.15 11.2 12.85 8.85 L 12.85 1.75 Z " stroke-width="1" fill="undefined"/>
</g>
</svg>