<?xml version="1.0" encoding="utf-8"?><svg xmlns="http://www.w3.org/2000/svg" xmlns:xlink="http://www.w3.org/1999/xlink" xmlns:author="http://www.sothink.com" version="1.1" id="Layer_1" width="18.671009063720703" height="29.799999237060547" xml:space="preserve" viewBox="0 -0.25 18.671009063720703 29.799999237060547">
<g id="141">
<path style="fill:#000000;fill-opacity:1" d="M 16.95 6.9 L 7 6.9 L 7 9.95 Q 18.6 10.95 18.1 20.5 Q 17.65 28.5 9.8 29.05 L 0.5 29.05 L 0.5 22.95 Q 11.85 24.15 11.85 20.4 Q 13.05 16.45 1.65 15.95 L 2.65 0.5 L 18.1 0.5 L 16.95 6.9 " stroke-width="1" fill="undefined"/>
<path style="fill:none;stroke-width:1;stroke-linecap:round;stroke-linejoin:round;stroke-miterlimit:3;stroke:#000000;stroke-opacity:1" d="M 16.95 6.9 L 7 6.9 L 7 9.95 Q 18.6 10.95 18.1 20.5 Q 17.65 28.5 9.8 29.05 L 0.5 29.05 L 0.5 22.95 Q 11.85 24.15 11.85 20.4 Q 13.05 16.45 1.65 15.95 L 2.65 0.5 L 18.1 0.5 L 16.95 6.9 Z " stroke-width="1" fill="undefined"/>
<path style="fill:#FFFEFD;fill-opacity:1" d="M 17 6.5 L 7.25 6.5 L 7.25 9.5 Q 18.65 10.5 18.15 19.85 Q 17.7 27.7 10 28.25 L 0.9 28.25 L 0.9 22.25 Q 12 23.45 12 19.75 Q 13.2 15.9 2 15.4 L 3 0.25 L 18.15 0.25 L 17 6.5 " stroke-width="1" fill="undefined"/>
<path style="fill:none;stroke-width:0.5;stroke-linecap:round;stroke-linejoin:round;stroke-miterlimit:3;stroke:#000000;stroke-opacity:1" d="M 17 6.5 L 7.25 6.5 L 7.25 9.5 Q 18.65 10.5 18.15 19.85 Q 17.7 27.7 10 28.25 L 0.9 28.25 L 0.9 22.25 Q 12 23.45 12 19.75 Q 13.2 15.9 2 15.4 L 3 0.25 L 18.15 0.25 L 17 6.5 Z " stroke-width="1" fill="undefined"/>
</g>
</svg>