<?xml version="1.0" encoding="utf-8"?><svg xmlns="http://www.w3.org/2000/svg" xmlns:xlink="http://www.w3.org/1999/xlink" xmlns:author="http://www.sothink.com" version="1.1" id="Layer_1" width="20.93350601196289" height="31.238006591796875" xml:space="preserve" viewBox="-0.004245281219482422 -0.25817012786865234 20.93350601196289 31.238006591796875">
<g id="144">
<path style="fill:#000000;fill-opacity:1" d="M 15.05 7.35 Q 15.05 6.3 13.8 5.55 Q 12.5 4.8 10.7 4.8 Q 8.85 4.8 7.55 5.55 Q 6.3 6.3 6.3 7.35 Q 6.3 8.4 7.55 9.15 Q 8.85 9.9 10.7 9.9 Q 12.5 9.9 13.8 9.15 Q 15.05 8.4 15.05 7.35 M 13.8 18.05 Q 12.5 17.05 10.7 17.05 Q 8.85 17.05 7.55 18.05 Q 6.3 19.15 6.3 20.6 Q 6.3 22.05 7.55 23.1 Q 8.85 24.2 10.7 24.2 Q 12.5 24.2 13.8 23.1 Q 15.05 22.05 15.05 20.6 Q 15.05 19.15 13.8 18.05 M 20.25 23.05 Q 19.2 31.25 10 30.4 Q 0.7 30.65 0.5 21.5 Q 0.35 15.45 5.5 13.6 Q 0.85 12.15 1.4 7.75 Q 1.8 0.2 9.95 0.5 Q 19.55 0.75 19.5 7.2 Q 19.45 12.2 15.7 13.25 Q 21.35 14.9 20.25 23.05 " stroke-width="1" fill="undefined"/>
<path style="fill:none;stroke-width:1;stroke-linecap:round;stroke-linejoin:round;stroke-miterlimit:3;stroke:#000000;stroke-opacity:1" d="M 13.8 9.15 Q 12.5 9.9 10.7 9.9 Q 8.85 9.9 7.55 9.15 Q 6.3 8.4 6.3 7.35 Q 6.3 6.3 7.55 5.55 Q 8.85 4.8 10.7 4.8 Q 12.5 4.8 13.8 5.55 Q 15.05 6.3 15.05 7.35 Q 15.05 8.4 13.8 9.15 M 15.05 20.6 Q 15.05 22.05 13.8 23.1 Q 12.5 24.2 10.7 24.2 Q 8.85 24.2 7.55 23.1 Q 6.3 22.05 6.3 20.6 Q 6.3 19.15 7.55 18.05 Q 8.85 17.05 10.7 17.05 Q 12.5 17.05 13.8 18.05 Q 15.05 19.15 15.05 20.6 M 20.25 23.05 Q 19.2 31.25 10 30.4 Q 0.7 30.65 0.5 21.5 Q 0.35 15.45 5.5 13.6 Q 0.85 12.15 1.4 7.75 Q 1.8 0.2 9.95 0.5 Q 19.55 0.75 19.5 7.2 Q 19.45 12.2 15.7 13.25 Q 21.35 14.9 20.25 23.05 " stroke-width="1" fill="undefined"/>
<path style="fill:#FFFEFD;fill-opacity:1" d="M 13.6 5.2 Q 12.35 4.5 10.55 4.5 Q 8.75 4.5 7.5 5.2 Q 6.25 5.95 6.25 7 Q 6.25 8 7.5 8.75 Q 8.75 9.5 10.55 9.5 Q 12.35 9.5 13.6 8.75 Q 14.85 8 14.85 7 Q 14.85 5.95 13.6 5.2 M 14.85 20 Q 14.85 18.55 13.6 17.5 Q 12.35 16.5 10.55 16.5 Q 8.75 16.5 7.5 17.5 Q 6.25 18.55 6.25 20 Q 6.25 21.4 7.5 22.45 Q 8.75 23.5 10.55 23.5 Q 12.35 23.5 13.6 22.45 Q 14.85 21.4 14.85 20 M 15.45 12.75 Q 21 14.4 19.95 22.4 Q 18.9 30.4 9.9 29.6 Q 0.75 29.85 0.55 20.85 Q 0.4 14.95 5.45 13.1 Q 0.9 11.7 1.45 7.4 Q 1.85 0 9.85 0.25 Q 19.25 0.5 19.2 6.85 Q 19.15 11.75 15.45 12.75 " stroke-width="1" fill="undefined"/>
<path style="fill:none;stroke-width:0.5;stroke-linecap:round;stroke-linejoin:round;stroke-miterlimit:3;stroke:#000000;stroke-opacity:1" d="M 14.85 7 Q 14.85 8 13.6 8.75 Q 12.35 9.5 10.55 9.5 Q 8.75 9.5 7.5 8.75 Q 6.25 8 6.25 7 Q 6.25 5.95 7.5 5.2 Q 8.75 4.5 10.55 4.5 Q 12.35 4.5 13.6 5.2 Q 14.85 5.95 14.85 7 M 13.6 22.45 Q 12.35 23.5 10.55 23.5 Q 8.75 23.5 7.5 22.45 Q 6.25 21.4 6.25 20 Q 6.25 18.55 7.5 17.5 Q 8.75 16.5 10.55 16.5 Q 12.35 16.5 13.6 17.5 Q 14.85 18.55 14.85 20 Q 14.85 21.4 13.6 22.45 M 15.45 12.75 Q 21 14.4 19.95 22.4 Q 18.9 30.4 9.9 29.6 Q 0.75 29.85 0.55 20.85 Q 0.4 14.95 5.45 13.1 Q 0.9 11.7 1.45 7.4 Q 1.85 0 9.85 0.25 Q 19.25 0.5 19.2 6.85 Q 19.15 11.75 15.45 12.75 " stroke-width="1" fill="undefined"/>
</g>
</svg>