<?xml version="1.0" encoding="utf-8"?><svg xmlns="http://www.w3.org/2000/svg" xmlns:xlink="http://www.w3.org/1999/xlink" xmlns:author="http://www.sothink.com" version="1.1" id="Layer_1" width="481" height="199.25" xml:space="preserve" viewBox="-0.5 -0.5 481 199.25">
<g id="183">
<path style="fill:#BACBF1;fill-opacity:1" d="M 241.95 36 L 242 37 Q 240.3 57.8 229.25 69.25 L 229 70 Q 231 71.5 232.75 73.25 Q 233 73.5 233 74 Q 239.8 77 246 76 Q 247.75 71.25 247.05 64 L 247 63 Q 269.95 55.75 296 60 Q 296.2 64.2 296 73 L 296 74 Q 300.05 77.75 307 75 Q 303.6 65.9 304.95 57 L 305 56 Q 306.2 55.35 309 55 Q 316 42.55 326 38 Q 326.8 46.8 324.1 57.05 L 324 58 Q 321.7 59.05 330 60 Q 327.35 65.85 324.2 71.15 L 324 72 Q 320.5 73.5 318 76 L 313 76 Q 312.7 77.7 311.2 78.4 Q 311 78.5 311 79 Q 302.15 81.3 295 78 Q 292.75 105.75 292 135 L 292 136 Q 303.45 140.6 315 136 Q 315.3 134.3 316.8 133.6 L 317 133 Q 306.8 125.2 304.1 110 L 304 109 Q 306.75 108.15 312 110 Q 315 92.5 329 86 Q 333.35 98.45 333.5 110 L 333 110 Q 339.4 110.65 345 106 Q 345.3 112.8 344.1 118 L 344 119 Q 339.65 128.15 332 134 Q 328.2 134.7 325 136 Q 323.25 139.25 320 141 Q 304.9 145.5 292 140 L 292 157 L 292 158 Q 298.05 160.95 305 163 Q 309.55 166.45 313 171 Q 342.65 167.2 374 169 Q 376.3 172.2 377.85 176.05 L 378 177 Q 386.7 182 395 175 Q 395.5 163 393.5 148.05 L 393 148 Q 394.55 145.55 394.05 141 L 394 140 Q 403.55 140.45 409 145 Q 411.75 150.75 416 145 Q 418.25 144.5 416.2 143.6 Q 416 143.5 416 143 Q 413.25 141.25 413.05 137 L 413 136 Q 416.6 126.6 422 119 Q 422 123 422.5 126.95 L 423 127 Q 421.45 129.95 422.5 134.9 L 423 135 Q 424.5 131.25 427 133 Q 425 135 424.5 138.95 L 424 139 L 427 142 Q 424.1 147.1 418 145 Q 417.9 147.4 416 148 Q 412.45 148.45 410 150 Q 410 163 410.95 175 L 411 176 Q 444.2 169.6 475 175 L 478.35 179.75 Q 478.5 180 479 180 Q 479.8 184.5 480 189.65 L 480 196 L 480 197 L 480 198 Q 240 198.5 0 198 L 0 186 L 0 185.5 L 108.7 166.4 L 107.9 159.55 L 106.7 160.3 Q 106.35 159.5 106.65 158.95 L 107.7 158.25 L 107.7 158.15 L 108 158 Q 107.1 146.4 106.05 134.85 L 106.05 134.6 L 106 134.25 L 106 134.15 L 105 120.35 L 104.65 120.4 L 104.5 119.05 L 104 119 Q 104.5 117.95 104.75 116.7 L 104.75 116.65 Q 105.25 113.85 104.5 110.1 L 104.25 110 L 104 110 L 104.2 109.15 L 104.2 109.1 Q 104.95 106.85 108 107 L 132 110 Q 133.75 111.75 133.1 116 L 133 117 Q 132.15 121.85 139 119 Q 141.35 116.85 144 115 Q 138.35 106.65 137.05 94 L 137 93 Q 140.2 94.85 141 94 Q 142.8 91.3 143 87 L 143 86 Q 147.2 77.2 152.75 69.8 Q 153 69.5 153 69 Q 156.9 81.3 154.1 96 L 154 97 Q 157.75 93.75 162 91 Q 161.3 99.3 158.2 105.1 L 158 106 Q 159 107.25 165 109 L 157 115 Q 152.5 116.3 147 115 Q 146.75 118.2 144.2 119.4 L 144 120 L 133 122 Q 132.25 130.75 133.9 137.05 L 134 138 Q 133.85 147.65 134.95 161 L 135 162 Q 153.25 161.75 166 167 Q 167.05 169.45 167 173 L 167 174 Q 203.3 170.4 242 164 Q 244.7 138.2 245 110 L 245 109 Q 236.6 107.1 227 107 Q 222.9 104.1 220 100 Q 221.4 97.4 225 97 Q 223.25 93.25 223.95 87 L 224 86 Q 229.25 88.75 233 93 Q 235.5 94.8 238 93 Q 238.4 98.9 237.15 103.05 L 237 104 Q 237.95 106.2 246 104 L 246 84 L 246 83 Q 237.3 80.7 228 79 Q 224.45 76.55 222 73 Q 212.2 73.2 202 71 Q 195.85 66.15 190 61 Q 196.35 58.35 204 57 Q 198.8 46.7 195.15 34.95 L 195 34 Q 197.35 32.5 201 35 Q 204.7 38.3 210 40 Q 205.3 19.65 210.85 0.95 L 211 0 Q 226.55 11.45 233.45 36.85 L 234 37 Q 237.45 41.15 240 36 Q 241.7 34.35 241.95 36 " stroke-width="1" fill="undefined"/>
</g>
</svg>