<?xml version="1.0" encoding="utf-8"?><svg xmlns="http://www.w3.org/2000/svg" xmlns:xlink="http://www.w3.org/1999/xlink" xmlns:author="http://www.sothink.com" version="1.1" id="Layer_1" width="30.450000762939453" height="30" xml:space="preserve" viewBox="-0.5 -0.5 30.450000762939453 30">
<g id="32">
<path style="fill:#000000;fill-opacity:0.0745098" d="M 6 11 L 5 11 L 5 10 L 6 10 L 6 11 M 27.95 16 L 27.95 15 L 28.7 15.25 L 28.95 16 L 27.95 16 M 17 28 L 18 28 L 17.75 28.75 L 17 29 L 17 28 M 2 20 L 1 20 L 1 19 L 2 19 L 2 20 " stroke-width="1" fill="undefined"/>
<path style="fill:#010101;fill-opacity:0.298039" d="M 1 17 L 1 18 L 0.25 17.75 L 0 17.1 L 0 17 L 1 17 " stroke-width="1" fill="undefined"/>
<path style="fill:#000000;fill-opacity:0.0509804" d="M 0 16 L 0 15 L 1 15 L 1 16 L 0 16 " stroke-width="1" fill="undefined"/>
<path style="fill:#010101;fill-opacity:0.345098" d="M 0 17 L 0 16 L 1 16 L 1 17 L 0 17 " stroke-width="1" fill="undefined"/>
<path style="fill:#000000;fill-opacity:0.109804" d="M 4 14 L 4 13 L 5 13 L 5 14 L 4 14 " stroke-width="1" fill="undefined"/>
<path style="fill:#000000;fill-opacity:0.286275" d="M 6 21 L 6 22 L 5.25 21.75 L 5 21 L 6 21 M 5 15 L 4 15 L 4 14 L 5 14 L 5 15 " stroke-width="1" fill="undefined"/>
<path style="fill:#000000;fill-opacity:0.792157" d="M 6 12 L 6 13 L 5 13 L 5 12 L 6 12 " stroke-width="1" fill="undefined"/>
<path style="fill:#0C1417;fill-opacity:1" d="M 6 14 L 5 14 L 5 13 L 6 13 L 6 14 M 7 22 L 6 22 L 6 21 L 7 21 L 7 22 " stroke-width="1" fill="undefined"/>
<path style="fill:#010101;fill-opacity:0.27451" d="M 2 16 L 2 15 L 2.75 15.25 Q 3 15.5 3 16 L 2 16 " stroke-width="1" fill="undefined"/>
<path style="fill:#040404;fill-opacity:0.545098" d="M 1 16 L 1 15 L 2 15 L 2 16 L 1 16 " stroke-width="1" fill="undefined"/>
<path style="fill:#101010;fill-opacity:1" d="M 1 16 L 2 16 L 3 16 L 3 17 L 2 17 L 1 17 L 1 16 M 4 19 L 4 20 L 3 20 L 3 19 L 4 19 M 18 10 L 18 11 L 17 11 L 17 10 L 18 10 " stroke-width="1" fill="undefined"/>
<path style="fill:#050505;fill-opacity:0.603922" d="M 2 18 L 1 18 L 1 17 L 2 17 L 2 18 " stroke-width="1" fill="undefined"/>
<path style="fill:#0A0A0A;fill-opacity:0.819608" d="M 4 17 L 4 18 L 3 18 L 3 17 L 3 16 L 4 16 L 4 17 " stroke-width="1" fill="undefined"/>
<path style="fill:#060606;fill-opacity:0.65098" d="M 2 17 L 3 17 L 3 18 L 2 18 L 2 17 " stroke-width="1" fill="undefined"/>
<path style="fill:#000000;fill-opacity:0.368627" d="M 5 15 L 5 16 L 4 16 L 4 15 L 5 15 " stroke-width="1" fill="undefined"/>
<path style="fill:#000000;fill-opacity:0.490196" d="M 4 17 L 4 16 L 5 16 L 5 17 L 4 17 " stroke-width="1" fill="undefined"/>
<path style="fill:#080808;fill-opacity:0.94902" d="M 5 18 L 4 18 L 4 17 L 5 17 L 5 18 " stroke-width="1" fill="undefined"/>
<path style="fill:#2B4955;fill-opacity:1" d="M 7 12 L 6 12 L 6 11 L 7 11 L 7 12 M 6 15 L 6 16 L 6 17 L 5 17 L 5 16 L 5 15 L 6 15 M 22 7 L 22 6 L 22.95 6 L 22.95 7 L 22 7 " stroke-width="1" fill="undefined"/>
<path style="fill:#213942;fill-opacity:1" d="M 6 15 L 5 15 L 5 14 L 6 14 L 6 15 M 7 10 L 7 9 L 8 9 L 8 10 L 7 10 " stroke-width="1" fill="undefined"/>
<path style="fill:#000000;fill-opacity:0.47451" d="M 6 12 L 5 12 L 5 11 L 6 11 L 6 12 M 12 2 L 12 1 L 13 1 L 13 2 L 12 2 M 26.95 14 L 26.95 13 L 27.95 13 L 27.95 14 L 26.95 14 " stroke-width="1" fill="undefined"/>
<path style="fill:#030303;fill-opacity:0.498039" d="M 3 20 L 4 20 Q 4 20.5 3.75 20.75 L 3 21 L 3 20 " stroke-width="1" fill="undefined"/>
<path style="fill:#0B0B0B;fill-opacity:0.937255" d="M 5 19 L 4 19 L 4 18 L 5 18 L 5 19 " stroke-width="1" fill="undefined"/>
<path style="fill:#030303;fill-opacity:0.486275" d="M 3 19 L 3 18 L 4 18 L 4 19 L 3 19 " stroke-width="1" fill="undefined"/>
<path style="fill:#010101;fill-opacity:0.333333" d="M 5 19 L 5 20 L 4 20 L 4 19 L 5 19 " stroke-width="1" fill="undefined"/>
<path style="fill:#15232A;fill-opacity:1" d="M 6 19 L 5 19 L 5 18 L 6 18 L 6 19 " stroke-width="1" fill="undefined"/>
<path style="fill:#000000;fill-opacity:0.968627" d="M 5 20 L 5 19 L 6 19 L 6 20 L 5 20 M 7 23 L 8 23 L 8 24 L 7 24 L 7 23 M 9 26 L 9 25 L 10 25 L 10 26 L 9 26 " stroke-width="1" fill="undefined"/>
<path style="fill:#020202;fill-opacity:0.415686" d="M 2 20 L 2 21 L 1.25 20.75 L 1 20 L 2 20 " stroke-width="1" fill="undefined"/>
<path style="fill:#090909;fill-opacity:0.756863" d="M 2 19 L 3 19 L 3 20 L 2 20 L 2 19 " stroke-width="1" fill="undefined"/>
<path style="fill:#0E0E0E;fill-opacity:0.945098" d="M 3 20 L 3 21 L 2 21 L 2 20 L 3 20 " stroke-width="1" fill="undefined"/>
<path style="fill:#000000;fill-opacity:0.0627451" d="M 19 0 L 19.75 0.25 L 20 1 L 19 1 L 19 0 M 3 21 L 3 21.5 Q 2.5 21.5 2 21 L 3 21 " stroke-width="1" fill="undefined"/>
<path style="fill:#000000;fill-opacity:0.709804" d="M 6 20 L 6 21 L 5 21 L 5 20 L 6 20 " stroke-width="1" fill="undefined"/>
<path style="fill:#203740;fill-opacity:1" d="M 6 18 L 5 18 L 5 17 L 6 17 L 6 18 " stroke-width="1" fill="undefined"/>
<path style="fill:#000000;fill-opacity:0.498039" d="M 12 4 L 12 5 L 11 5 L 11 4 L 12 4 " stroke-width="1" fill="undefined"/>
<path style="fill:#000000;fill-opacity:0.113725" d="M 11 4 L 11 3 L 11 2 L 12 2 L 12 3 L 12 4 L 11 4 " stroke-width="1" fill="undefined"/>
<path style="fill:#000000;fill-opacity:0.827451" d="M 11 6 L 10 6 L 10 5 L 11 5 L 11 6 " stroke-width="1" fill="undefined"/>
<path style="fill:#000000;fill-opacity:0.121569" d="M 10 6 L 9 6 L 9 5 L 10 5 L 10 6 " stroke-width="1" fill="undefined"/>
<path style="fill:#000000;fill-opacity:0.756863" d="M 16 2 L 15 2 L 15 1 L 16 1 L 16 2 " stroke-width="1" fill="undefined"/>
<path style="fill:#000000;fill-opacity:0.87451" d="M 13 2 L 13 1 L 14 1 L 15 1 L 15 2 L 14 2 L 13 2 " stroke-width="1" fill="undefined"/>
<path style="fill:#325765;fill-opacity:1" d="M 16 3 L 15 3 L 15 2 L 16 2 L 16 3 " stroke-width="1" fill="undefined"/>
<path style="fill:#000000;fill-opacity:0.686275" d="M 17 1 L 16 1 L 16 0 L 17 0 L 17 1 " stroke-width="1" fill="undefined"/>
<path style="fill:#0C1619;fill-opacity:1" d="M 17 2 L 17 3 L 16 3 L 16 2 L 16 1 L 17 1 L 17 2 " stroke-width="1" fill="undefined"/>
<path style="fill:#487D91;fill-opacity:1" d="M 14 3 L 14 2 L 15 2 L 15 3 L 14 3 " stroke-width="1" fill="undefined"/>
<path style="fill:#080E10;fill-opacity:1" d="M 12 2 L 13 2 L 13 3 L 12 3 L 12 2 " stroke-width="1" fill="undefined"/>
<path style="fill:#000000;fill-opacity:0.964706" d="M 12 4 L 13 4 L 13 5 L 12 5 L 12 4 " stroke-width="1" fill="undefined"/>
<path style="fill:#4F899F;fill-opacity:1" d="M 7 12 Q 7 12.5 6.75 12.75 Q 6.5 13 6 13 L 6 12 L 7 12 M 12 6 L 12 5 L 13 5 L 13 6 L 12 6 " stroke-width="1" fill="undefined"/>
<path style="fill:#010506;fill-opacity:0.972549" d="M 12 4 L 12 3 L 13 3 L 13 4 L 12 4 " stroke-width="1" fill="undefined"/>
<path style="fill:#4B8196;fill-opacity:1" d="M 14 3 L 14 4 L 13 4 L 13 3 L 14 3 " stroke-width="1" fill="undefined"/>
<path style="fill:#0A1114;fill-opacity:1" d="M 14 5 L 13 5 L 13 4 L 14 4 L 14 5 " stroke-width="1" fill="undefined"/>
<path style="fill:#62A9C4;fill-opacity:1" d="M 16 4 L 15 4 L 14 4 L 14 3 L 15 3 L 16 3 L 16 4 M 15 5 L 16 5 L 17 5 L 18 5 L 19 5 L 20.1 5.8 L 21 6 L 21 7 L 20 7 L 20 8 L 19 8 L 18.75 7.25 L 18 7 L 17.75 6.25 L 17 6 L 16 6 L 15 6 L 14 6 L 13 6 L 13 5 L 14 5 L 15 5 M 20 5 L 20 4 L 21 4 L 21 5 L 20 5 M 24.95 19 L 24.95 18 L 25.95 18 L 25.95 19 L 24.95 19 M 22.95 24 L 22 24 L 22 23 L 22.95 23 L 22.95 24 " stroke-width="1" fill="undefined"/>
<path style="fill:#223C44;fill-opacity:1" d="M 15 5 L 14 5 L 14 4 L 15 4 L 15 5 " stroke-width="1" fill="undefined"/>
<path style="fill:#518BA1;fill-opacity:1" d="M 17 4 L 17 5 L 16 5 L 16 4 L 17 4 M 16 23 L 15.25 22.75 L 15 22 L 16 22 L 16 23 M 11 26 L 11 25 Q 11.5 25 11.75 25.25 Q 12 25.5 12 26 L 11 26 M 16 27 L 16 26 L 17 26 L 17 27 L 16 27 " stroke-width="1" fill="undefined"/>
<path style="fill:#365D6C;fill-opacity:1" d="M 15 4 L 16 4 L 16 5 L 15 5 L 15 4 M 21 25 L 22 25 L 22 26 L 21 26 L 21 25 " stroke-width="1" fill="undefined"/>
<path style="fill:#5897AF;fill-opacity:1" d="M 8 10 Q 8 10.5 7.75 10.75 Q 7.5 11 7 11 L 7 10 L 8 10 M 16 4 L 16 3 L 17 3 L 17 4 L 16 4 " stroke-width="1" fill="undefined"/>
<path style="fill:#46798C;fill-opacity:1" d="M 13 2 L 14 2 L 14 3 L 13 3 L 13 2 " stroke-width="1" fill="undefined"/>
<path style="fill:#16252C;fill-opacity:1" d="M 11 5 L 12 5 L 12 6 L 11 6 L 11 5 " stroke-width="1" fill="undefined"/>
<path style="fill:#121F24;fill-opacity:0.858824" d="M 20 1 L 20 2 L 19 2 L 19 1 L 20 1 " stroke-width="1" fill="undefined"/>
<path style="fill:#5695AD;fill-opacity:1" d="M 18 2 L 18 1 L 19 1 L 19 2 L 18 2 " stroke-width="1" fill="undefined"/>
<path style="fill:#000000;fill-opacity:0.0980392" d="M 20 2 L 20 1 L 20.75 1.25 L 21 2 L 20 2 " stroke-width="1" fill="undefined"/>
<path style="fill:#0B1114;fill-opacity:0.752941" d="M 20 3 L 20 2 L 21 2 L 21 3 L 20 3 " stroke-width="1" fill="undefined"/>
<path style="fill:#5C9FB8;fill-opacity:1" d="M 20 3 Q 19.5 3 19.25 2.75 Q 19 2.5 19 2 L 20 2 L 20 3 M 12.25 17.75 L 12 17 L 13 17 L 13 18 L 12.25 17.75 M 22.95 23 L 23.95 23 L 23.95 24 L 22.95 24 L 22.95 23 " stroke-width="1" fill="undefined"/>
<path style="fill:#000000;fill-opacity:0.545098" d="M 18 1 L 18 0 L 19 0 L 19 1 L 18 1 " stroke-width="1" fill="undefined"/>
<path style="fill:#000000;fill-opacity:0.862745" d="M 18 1 L 17 1 L 17 0 L 18 0 L 18 1 M 21 26 L 22 26 L 22 27 L 21 27 L 21 26 " stroke-width="1" fill="undefined"/>
<path style="fill:#538FA6;fill-opacity:1" d="M 17 2 L 17 1 L 18 1 L 18 2 L 17 2 " stroke-width="1" fill="undefined"/>
<path style="fill:#60A5BF;fill-opacity:1" d="M 18 3 L 17 3 L 17 2 L 18 2 L 18 3 M 12 6 L 13 6 L 13 7 L 12 7 L 12 6 M 7 22 L 7 21 Q 7.5 21 7.75 21.25 Q 8 21.5 8 22 L 7 22 " stroke-width="1" fill="undefined"/>
<path style="fill:#28444F;fill-opacity:1" d="M 18 4 L 17 4 L 17 3 L 18 3 L 18 4 " stroke-width="1" fill="undefined"/>
<path style="fill:#5DA1BB;fill-opacity:1" d="M 17 4 L 18 4 L 18 5 L 17 5 L 17 4 M 19 5 L 19 4 L 20 4 L 20 5 L 19 5 M 20 26 L 20 25 L 21 25 L 21 26 L 20 26 " stroke-width="1" fill="undefined"/>
<path style="fill:#61A8C3;fill-opacity:1" d="M 7 20 Q 7 19.5 6.75 19.25 Q 6.5 19 6 19 L 6 18 L 6 17 L 6 16 L 6 15 L 6 14 L 6 13 Q 6.5 13 6.75 12.75 Q 7 12.5 7 12 L 7 11 Q 7.5 11 7.75 10.75 Q 8 10.5 8 10 L 8 9 Q 8.5 9 8.75 8.75 Q 9 8.5 9 8 Q 9.5 8 9.75 7.75 Q 10 7.5 10 7 Q 10.5 7 10.75 6.75 Q 11 6.5 11 6 L 12 6 L 12 7 L 12 8 L 11 8 L 11 9 L 11 10 L 11 11 L 11 12 L 11 13 L 11 14 L 11.25 14.75 Q 11.5 15 12 15 L 12 16 L 12 17 L 12.25 17.75 L 13 18 L 13 19 L 13 20 L 13.25 20.75 L 14 21 L 14.25 21.75 L 15 22 L 15.25 22.75 L 16 23 L 16.25 23.75 L 17 24 L 18 24 Q 18.5 24.5 19 24.5 L 19 24 L 20 24 L 21 24 L 22 24 L 22 25 L 21 25 L 20 25 L 20 26 L 19 26 L 18 26 L 17 26 L 16 26 L 15 26 L 14 26 L 13 26 L 12 26 Q 12 25.5 11.75 25.25 Q 11.5 25 11 25 L 10 25 Q 10 24.5 9.75 24.25 Q 9.5 24 9 24 Q 9 23.5 8.75 23.25 Q 8.5 23 8 23 L 8 22 Q 8 21.5 7.75 21.25 Q 7.5 21 7 21 L 7 20 M 19 4 L 18 4 L 18 3 L 18 2 L 19 2 Q 19 2.5 19.25 2.75 Q 19.5 3 20 3 L 20 4 L 19 4 " stroke-width="1" fill="undefined"/>
<path style="fill:#375F6F;fill-opacity:1" d="M 19 4 L 19 5 L 18 5 L 18 4 L 19 4 " stroke-width="1" fill="undefined"/>
<path style="fill:#417183;fill-opacity:1" d="M 20 3 L 21 3 L 21 4 L 20 4 L 20 3 M 10 7 Q 10 7.5 9.75 7.75 Q 9.5 8 9 8 L 9 7 L 10 7 M 18 27 L 18 26 L 19 26 L 19 27 L 18 27 " stroke-width="1" fill="undefined"/>
<path style="fill:#0B1316;fill-opacity:0.968627" d="M 21 5 L 21 4 L 22 4 L 22 5 L 21 5 " stroke-width="1" fill="undefined"/>
<path style="fill:#5A9BB4;fill-opacity:1" d="M 20 5 L 21 5 L 21 6 L 20.1 5.8 L 19 5 L 20 5 " stroke-width="1" fill="undefined"/>
<path style="fill:#000000;fill-opacity:0.309804" d="M 22 5 L 22 4 L 21 4 L 21 3 L 21.75 3.25 L 22 4 L 22.7 4.25 L 22.95 5 L 22 5 " stroke-width="1" fill="undefined"/>
<path style="fill:#010405;fill-opacity:1" d="M 22.95 7 L 22.95 6 L 22 6 L 22 5 L 22.95 5 L 22.95 6 L 23.95 6 L 23.95 7 L 22.95 7 M 8 25 L 8 24 L 9 24 L 9 25 L 8 25 " stroke-width="1" fill="undefined"/>
<path style="fill:#000000;fill-opacity:0.45098" d="M 22.95 6 L 22.95 5 L 23.7 5.25 L 23.95 6 L 22.95 6 " stroke-width="1" fill="undefined"/>
<path style="fill:#294550;fill-opacity:1" d="M 21 6 L 21 5 L 22 5 L 22 6 L 21 6 M 12 8 L 12 7 L 13 7 L 13 8 L 12 8 " stroke-width="1" fill="undefined"/>
<path style="fill:#000000;fill-opacity:0.423529" d="M 23.95 7 L 23.95 6 L 24.7 6.25 L 24.95 7 L 23.95 7 " stroke-width="1" fill="undefined"/>
<path style="fill:#000000;fill-opacity:0.239216" d="M 24.95 8 L 24.95 7 L 25.7 7.25 L 25.95 8 L 24.95 8 " stroke-width="1" fill="undefined"/>
<path style="fill:#050505;fill-opacity:1" d="M 23.95 8 L 23.95 7 L 24.95 7 L 24.95 8 L 23.95 8 " stroke-width="1" fill="undefined"/>
<path style="fill:#B3B3B3;fill-opacity:1" d="M 24.2 8.75 Q 23.95 8.5 23.95 8 L 24.95 8 L 24.95 9 Q 24.45 9 24.2 8.75 M 13 10 L 13 11 L 12 11 L 12 10 L 13 10 " stroke-width="1" fill="undefined"/>
<path style="fill:#656565;fill-opacity:1" d="M 22.95 8 L 22.95 7 L 23.95 7 L 23.95 8 L 22.95 8 " stroke-width="1" fill="undefined"/>
<path style="fill:#000000;fill-opacity:0.917647" d="M 24.95 9 L 24.95 8 L 25.95 8 L 25.95 9 L 24.95 9 " stroke-width="1" fill="undefined"/>
<path style="fill:#8C8C8C;fill-opacity:1" d="M 22 7 L 22.95 7 L 22.95 8 L 22 8 L 22 7 " stroke-width="1" fill="undefined"/>
<path style="fill:#FEFEFE;fill-opacity:1" d="M 23.95 10 L 22.95 10 L 22.95 11 L 22 11 L 21 11 L 21 10 L 21 9 L 21 8 L 22 8 L 22.95 8 L 23.95 8 Q 23.95 8.5 24.2 8.75 Q 24.45 9 24.95 9 L 24.95 10 L 23.95 10 M 16 11 L 16 12 L 15 12 L 14 12 L 13 12 L 13 11 L 13 10 L 13 9 L 13 8 Q 13.5 8 13.75 7.75 Q 14 7.5 14 7 L 15 7 L 16 7 L 16.25 7.75 Q 16.5 8 17 8 L 18 8 L 18 9 L 17 9 L 16 9 L 16 10 L 16 11 " stroke-width="1" fill="undefined"/>
<path style="fill:#414141;fill-opacity:1" d="M 22 7 L 22 8 L 21 8 L 21 7 L 22 7 " stroke-width="1" fill="undefined"/>
<path style="fill:#4F8AA0;fill-opacity:1" d="M 21 7 L 21 6 L 22 6 L 22 7 L 21 7 " stroke-width="1" fill="undefined"/>
<path style="fill:#C7C7C7;fill-opacity:1" d="M 22.95 12 L 22 12 L 22 11 L 22.95 11 L 22.95 12 " stroke-width="1" fill="undefined"/>
<path style="fill:#5B5B5B;fill-opacity:1" d="M 22.95 11 L 22.95 10 L 23.95 10 L 23.95 11 L 22.95 11 " stroke-width="1" fill="undefined"/>
<path style="fill:#474747;fill-opacity:1" d="M 23.95 11 L 23.95 10 L 24.95 10 L 24.95 11 L 23.95 11 " stroke-width="1" fill="undefined"/>
<path style="fill:#B5B5B5;fill-opacity:1" d="M 23.95 12 L 23.95 11 L 24.95 11 L 24.95 12 L 23.95 12 " stroke-width="1" fill="undefined"/>
<path style="fill:#717171;fill-opacity:1" d="M 24.95 11 L 24.95 10 L 25.95 10 L 25.95 11 L 24.95 11 " stroke-width="1" fill="undefined"/>
<path style="fill:#000000;fill-opacity:0.74902" d="M 25.95 11 L 25.95 10 L 26.95 10 L 26.95 11 L 25.95 11 " stroke-width="1" fill="undefined"/>
<path style="fill:#000000;fill-opacity:0.321569" d="M 25.95 10 L 25.95 9 L 26.7 9.25 L 26.95 10 L 25.95 10 M 22 26 L 22.95 26 L 22.7 26.75 L 22 27 L 22 26 " stroke-width="1" fill="undefined"/>
<path style="fill:#3C3D3D;fill-opacity:1" d="M 24.95 10 L 24.95 9 L 25.95 9 L 25.95 10 L 24.95 10 " stroke-width="1" fill="undefined"/>
<path style="fill:#595959;fill-opacity:1" d="M 24.95 12 L 24.95 11 L 25.95 11 L 25.95 12 L 24.95 12 M 16 12 L 17 12 L 17 13 L 16 13 L 16 12 " stroke-width="1" fill="undefined"/>
<path style="fill:#A1A1A1;fill-opacity:1" d="M 22.95 12 L 22.95 11 L 23.95 11 L 23.95 12 L 22.95 12 " stroke-width="1" fill="undefined"/>
<path style="fill:#2F515E;fill-opacity:1" d="M 20 8 L 20 7 L 21 7 L 21 8 L 20 8 " stroke-width="1" fill="undefined"/>
<path style="fill:#4B4B4B;fill-opacity:1" d="M 20 9 L 20 8 L 21 8 L 21 9 L 20 9 " stroke-width="1" fill="undefined"/>
<path style="fill:#4E879D;fill-opacity:1" d="M 19 9 L 19 8 L 20 8 L 20 9 L 19 9 M 14 26 L 15 26 L 16 26 L 16 27 L 15 27 L 14 27 L 14 26 M 17 26 L 18 26 L 18 27 L 17 27 L 17 26 " stroke-width="1" fill="undefined"/>
<path style="fill:#3E6B7C;fill-opacity:1" d="M 18 8 L 18 7 L 18.75 7.25 L 19 8 L 18 8 M 11 9 L 12 9 L 12 10 L 11 10 L 11 9 M 24.95 19 L 25.95 19 L 25.95 20 L 24.95 20 L 24.95 19 " stroke-width="1" fill="undefined"/>
<path style="fill:#626262;fill-opacity:1" d="M 17 8 L 17 7 L 18 7 L 18 8 L 17 8 " stroke-width="1" fill="undefined"/>
<path style="fill:#F6F6F6;fill-opacity:1" d="M 16.25 7.75 L 16 7 L 17 7 L 17 8 Q 16.5 8 16.25 7.75 " stroke-width="1" fill="undefined"/>
<path style="fill:#45778A;fill-opacity:1" d="M 17 6 L 17.75 6.25 L 18 7 L 17 7 L 17 6 " stroke-width="1" fill="undefined"/>
<path style="fill:#1F2D33;fill-opacity:1" d="M 16 6 L 17 6 L 17 7 L 16 7 L 16 6 " stroke-width="1" fill="undefined"/>
<path style="fill:#A7A7A7;fill-opacity:1" d="M 18 10 L 17 10 L 17 9 L 18 9 L 18 10 " stroke-width="1" fill="undefined"/>
<path style="fill:#F7F7F7;fill-opacity:1" d="M 16 10 L 16 9 L 17 9 L 17 10 L 16 10 M 17 11 L 17 12 L 16 12 L 16 11 L 17 11 " stroke-width="1" fill="undefined"/>
<path style="fill:#AFAFAF;fill-opacity:1" d="M 16 11 L 16 10 L 17 10 L 17 11 L 16 11 " stroke-width="1" fill="undefined"/>
<path style="fill:#8B8B8B;fill-opacity:1" d="M 17 11 L 18 11 L 18 12 L 17 12 L 17 11 " stroke-width="1" fill="undefined"/>
<path style="fill:#7E7E7E;fill-opacity:1" d="M 19 9 L 19 10 L 18 10 L 18 9 L 19 9 " stroke-width="1" fill="undefined"/>
<path style="fill:#4D4D4D;fill-opacity:1" d="M 18 11 L 18 10 L 19 10 L 19 11 L 18 11 " stroke-width="1" fill="undefined"/>
<path style="fill:#C2C2C2;fill-opacity:1" d="M 20 10 L 20 9 L 21 9 L 21 10 L 20 10 " stroke-width="1" fill="undefined"/>
<path style="fill:#192C32;fill-opacity:1" d="M 19 11 L 19 10 L 20 10 L 20 11 L 19 11 " stroke-width="1" fill="undefined"/>
<path style="fill:#EAEAEA;fill-opacity:1" d="M 20 10 L 21 10 L 21 11 L 20 11 L 20 10 " stroke-width="1" fill="undefined"/>
<path style="fill:#515151;fill-opacity:1" d="M 20 12 L 20 11 L 21 11 L 21 12 L 20 12 " stroke-width="1" fill="undefined"/>
<path style="fill:#25404A;fill-opacity:1" d="M 19 9 L 20 9 L 20 10 L 19 10 L 19 9 " stroke-width="1" fill="undefined"/>
<path style="fill:#0D110F;fill-opacity:1" d="M 19 12 L 19 11 L 20 11 L 20 12 L 19 12 " stroke-width="1" fill="undefined"/>
<path style="fill:#33393D;fill-opacity:1" d="M 18 9 L 18 8 L 19 8 L 19 9 L 18 9 " stroke-width="1" fill="undefined"/>
<path style="fill:#3A3A3A;fill-opacity:1" d="M 18 11 L 19 11 L 19 12 L 18 12 L 18 11 " stroke-width="1" fill="undefined"/>
<path style="fill:#895D00;fill-opacity:1" d="M 22 13 L 21 13 L 21 12 L 22 12 L 22 13 " stroke-width="1" fill="undefined"/>
<path style="fill:#D59000;fill-opacity:1" d="M 20.25 12.75 Q 20 12.5 20 12 L 21 12 L 21 13 Q 20.5 13 20.25 12.75 M 23.95 21 L 23.95 20 L 24.95 20 L 24.95 21 L 23.95 21 " stroke-width="1" fill="undefined"/>
<path style="fill:#FEAC00;fill-opacity:1" d="M 22.95 13 Q 22.95 13.5 23.2 13.75 Q 23.45 14 23.95 14 Q 23.95 14.5 24.2 14.75 Q 24.45 15 24.95 15 L 25.95 15 L 25.95 16 L 24.95 16 L 23.95 16 L 22.95 16 L 22 16 L 21 16 L 19 16 L 18 16 L 15 16 L 15 15 Q 15.5 15 15.75 14.75 Q 16 14.5 16 14 Q 16.5 14 16.75 13.75 L 17 13 L 18 13 L 18.75 12.75 L 19 12 L 20 12 Q 20 12.5 20.25 12.75 Q 20.5 13 21 13 L 22 13 L 22.95 13 " stroke-width="1" fill="undefined"/>
<path style="fill:#AD7600;fill-opacity:1" d="M 18 12 L 19 12 L 18.75 12.75 L 18 13 L 18 12 M 25.95 16 L 25.95 15 L 26.95 15 L 26.95 16 L 25.95 16 " stroke-width="1" fill="undefined"/>
<path style="fill:#7A5300;fill-opacity:1" d="M 16 13 L 17 13 L 16.75 13.75 Q 16.5 14 16 14 L 16 13 " stroke-width="1" fill="undefined"/>
<path style="fill:#342707;fill-opacity:1" d="M 17 12 L 18 12 L 18 13 L 17 13 L 17 12 " stroke-width="1" fill="undefined"/>
<path style="fill:#362300;fill-opacity:1" d="M 19 16 L 21 16 L 22 16 L 22 17 L 21 17 L 19 17 L 19 16 " stroke-width="1" fill="undefined"/>
<path style="fill:#0E0304;fill-opacity:1" d="M 14 16 L 15 16 L 18 16 L 19 16 L 19 17 L 18 17 L 14 17 L 14 16 " stroke-width="1" fill="undefined"/>
<path style="fill:#451617;fill-opacity:1" d="M 22.95 17 L 22.95 18 L 22.95 19 L 22 19 L 21 19 L 20.75 18.25 L 20 18 L 19 18 L 18 18 L 17 18 L 16 18 L 15 18 L 14 18 L 14 17 L 18 17 L 19 17 L 21 17 L 22 17 L 22.95 17 " stroke-width="1" fill="undefined"/>
<path style="fill:#0B0D0D;fill-opacity:1" d="M 25.95 13 L 25.95 12 L 26.95 12 L 26.95 13 L 25.95 13 " stroke-width="1" fill="undefined"/>
<path style="fill:#451C0D;fill-opacity:1" d="M 24.95 13 L 24.95 12 L 25.95 12 L 25.95 13 L 24.95 13 " stroke-width="1" fill="undefined"/>
<path style="fill:#54210E;fill-opacity:1" d="M 23.95 12 L 24.95 12 L 24.95 13 L 23.95 13 L 23.95 12 " stroke-width="1" fill="undefined"/>
<path style="fill:#321D04;fill-opacity:1" d="M 23.95 14 L 23.95 13 L 24.95 13 L 24.95 14 L 23.95 14 " stroke-width="1" fill="undefined"/>
<path style="fill:#441B0C;fill-opacity:1" d="M 22.95 13 L 22.95 12 L 23.95 12 L 23.95 13 L 22.95 13 " stroke-width="1" fill="undefined"/>
<path style="fill:#F6A700;fill-opacity:1" d="M 24.95 15 Q 24.45 15 24.2 14.75 Q 23.95 14.5 23.95 14 L 24.95 14 L 24.95 15 M 20 23 L 19 23 L 19 22 L 20 22 L 20 23 " stroke-width="1" fill="undefined"/>
<path style="fill:#8D3719;fill-opacity:1" d="M 24.95 14 L 24.95 13 L 25.95 13 L 25.95 14 L 24.95 14 " stroke-width="1" fill="undefined"/>
<path style="fill:#9B6900;fill-opacity:1" d="M 23.95 13 L 23.95 14 Q 23.45 14 23.2 13.75 Q 22.95 13.5 22.95 13 L 23.95 13 " stroke-width="1" fill="undefined"/>
<path style="fill:#6B4900;fill-opacity:1" d="M 24.95 14 L 25.95 14 L 25.95 15 L 24.95 15 L 24.95 14 " stroke-width="1" fill="undefined"/>
<path style="fill:#2C160E;fill-opacity:1" d="M 25.95 14 L 25.95 13 L 26.95 13 L 26.95 14 L 25.95 14 " stroke-width="1" fill="undefined"/>
<path style="fill:#362201;fill-opacity:1" d="M 22.95 13 L 22 13 L 22 12 L 22.95 12 L 22.95 13 " stroke-width="1" fill="undefined"/>
<path style="fill:#654500;fill-opacity:1" d="M 22.95 17 L 22 17 L 22 16 L 22.95 16 L 22.95 17 " stroke-width="1" fill="undefined"/>
<path style="fill:#835900;fill-opacity:1" d="M 22.95 17 L 22.95 16 L 23.95 16 L 23.95 17 L 22.95 17 " stroke-width="1" fill="undefined"/>
<path style="fill:#9E6B00;fill-opacity:1" d="M 23.95 16 L 24.95 16 L 24.95 17 L 23.95 17 L 23.95 16 " stroke-width="1" fill="undefined"/>
<path style="fill:#294551;fill-opacity:1" d="M 24.95 18 L 23.95 18 L 23.95 17 L 24.95 17 L 24.95 18 " stroke-width="1" fill="undefined"/>
<path style="fill:#CC8A00;fill-opacity:1" d="M 25.95 17 L 24.95 17 L 24.95 16 L 25.95 16 L 25.95 17 M 26.95 17 L 26.95 16 L 27.95 16 L 27.95 17 L 26.95 17 M 15 19 L 16 19 L 17 19 L 17 20 L 16 20 L 15 20 L 15 19 " stroke-width="1" fill="undefined"/>
<path style="fill:#3A6575;fill-opacity:1" d="M 23.95 18 L 24.95 18 L 24.95 17 L 25.95 17 L 25.95 18 L 26.95 18 L 26.95 19 L 25.95 19 L 25.95 18 L 24.95 18 L 24.95 19 L 23.95 19 L 23.95 18 " stroke-width="1" fill="undefined"/>
<path style="fill:#EDA100;fill-opacity:1" d="M 25.95 17 L 25.95 16 L 26.95 16 L 26.95 17 L 25.95 17 " stroke-width="1" fill="undefined"/>
<path style="fill:#1D0909;fill-opacity:1" d="M 22.95 19 L 22.95 18 L 22.95 17 L 23.95 17 L 23.95 18 L 23.95 19 L 22.95 19 " stroke-width="1" fill="undefined"/>
<path style="fill:#121C20;fill-opacity:1" d="M 25.95 15 L 25.95 14 L 26.95 14 L 26.95 15 L 25.95 15 " stroke-width="1" fill="undefined"/>
<path style="fill:#A4A4A4;fill-opacity:1" d="M 22 12 L 21 12 L 21 11 L 22 11 L 22 12 " stroke-width="1" fill="undefined"/>
<path style="fill:#000000;fill-opacity:0.984314" d="M 25.95 12 L 25.95 11 L 26.95 11 L 26.95 12 L 25.95 12 " stroke-width="1" fill="undefined"/>
<path style="fill:#959595;fill-opacity:1" d="M 13 7 L 14 7 Q 14 7.5 13.75 7.75 Q 13.5 8 13 8 L 13 7 " stroke-width="1" fill="undefined"/>
<path style="fill:#293033;fill-opacity:1" d="M 15 7 L 14 7 L 14 6 L 15 6 L 15 7 " stroke-width="1" fill="undefined"/>
<path style="fill:#315563;fill-opacity:1" d="M 14 7 L 13 7 L 13 6 L 14 6 L 14 7 " stroke-width="1" fill="undefined"/>
<path style="fill:#323232;fill-opacity:1" d="M 15 7 L 15 6 L 16 6 L 16 7 L 15 7 " stroke-width="1" fill="undefined"/>
<path style="fill:#575757;fill-opacity:1" d="M 12 8 L 13 8 L 13 9 L 12 9 L 12 8 " stroke-width="1" fill="undefined"/>
<path style="fill:#AAAAAA;fill-opacity:1" d="M 13 9 L 13 10 L 12 10 L 12 9 L 13 9 " stroke-width="1" fill="undefined"/>
<path style="fill:#396373;fill-opacity:1" d="M 11 11 L 11 10 L 12 10 L 12 11 L 11 11 M 9 25 L 9 24 Q 9.5 24 9.75 24.25 Q 10 24.5 10 25 L 9 25 " stroke-width="1" fill="undefined"/>
<path style="fill:#5A5A5A;fill-opacity:1" d="M 12 12 L 12 11 L 13 11 L 13 12 L 12 12 " stroke-width="1" fill="undefined"/>
<path style="fill:#5593AB;fill-opacity:1" d="M 11 9 L 11 8 L 12 8 L 12 9 L 11 9 M 23.95 23 L 23.95 22 L 24.95 22 L 24.95 23 L 23.95 23 " stroke-width="1" fill="undefined"/>
<path style="fill:#335967;fill-opacity:1" d="M 10 6 L 11 6 Q 11 6.5 10.75 6.75 Q 10.5 7 10 7 L 10 6 " stroke-width="1" fill="undefined"/>
<path style="fill:#000000;fill-opacity:0.921569" d="M 14 27 L 14 28 L 13 28 L 13 27 L 14 27 M 9 7 L 9 8 L 8 8 L 8 7 L 9 7 " stroke-width="1" fill="undefined"/>
<path style="fill:#000000;fill-opacity:0.909804" d="M 9 6 L 10 6 L 10 7 L 9 7 L 9 6 " stroke-width="1" fill="undefined"/>
<path style="fill:#000000;fill-opacity:0.215686" d="M 8 7 L 8 6 L 9 6 L 9 7 L 8 7 " stroke-width="1" fill="undefined"/>
<path style="fill:#000000;fill-opacity:0.133333" d="M 7 8 L 7 7 L 8 7 L 8 8 L 7 8 " stroke-width="1" fill="undefined"/>
<path style="fill:#000000;fill-opacity:0.815686" d="M 8 8 L 8 9 L 7 9 L 7 8 L 8 8 " stroke-width="1" fill="undefined"/>
<path style="fill:#000000;fill-opacity:0.486275" d="M 7 10 L 6 10 L 6 9 L 7 9 L 7 10 M 26.95 19 L 26.95 18 L 27.95 18 L 27.95 19 L 26.95 19 " stroke-width="1" fill="undefined"/>
<path style="fill:#040809;fill-opacity:0.960784" d="M 7 10 L 7 11 L 6 11 L 6 10 L 7 10 M 24.95 22 L 25.95 22 L 25.95 23 L 24.95 23 L 24.95 22 " stroke-width="1" fill="undefined"/>
<path style="fill:#375F6E;fill-opacity:1" d="M 8 8 L 9 8 Q 9 8.5 8.75 8.75 Q 8.5 9 8 9 L 8 8 " stroke-width="1" fill="undefined"/>
<path style="fill:#5F3729;fill-opacity:1" d="M 12 13 L 12 14 L 11 14 L 11 13 L 12 13 " stroke-width="1" fill="undefined"/>
<path style="fill:#522312;fill-opacity:1" d="M 12 12 L 12 13 L 11 13 L 11 12 L 12 12 " stroke-width="1" fill="undefined"/>
<path style="fill:#898989;fill-opacity:1" d="M 15 12 L 16 12 L 16 13 L 15 13 L 15 12 " stroke-width="1" fill="undefined"/>
<path style="fill:#682B12;fill-opacity:1" d="M 15 13 L 16 13 L 16 14 L 15 14 L 15 13 " stroke-width="1" fill="undefined"/>
<path style="fill:#745F58;fill-opacity:1" d="M 14 13 L 14 12 L 15 12 L 15 13 L 14 13 " stroke-width="1" fill="undefined"/>
<path style="fill:#4C2A1D;fill-opacity:1" d="M 14 13 L 13 13 L 13 12 L 14 12 L 14 13 " stroke-width="1" fill="undefined"/>
<path style="fill:#B97E00;fill-opacity:1" d="M 15 14 L 16 14 Q 16 14.5 15.75 14.75 Q 15.5 15 15 15 L 15 14 " stroke-width="1" fill="undefined"/>
<path style="fill:#CE5022;fill-opacity:1" d="M 12.75 14.25 L 12 14 L 12 13 L 13 13 L 14 13 L 15 13 L 15 14 L 14 14 L 14 15 L 13 15 Q 13 14.5 12.75 14.25 " stroke-width="1" fill="undefined"/>
<path style="fill:#4C230A;fill-opacity:1" d="M 14 14 L 15 14 L 15 15 L 14 15 L 14 14 " stroke-width="1" fill="undefined"/>
<path style="fill:#993D1B;fill-opacity:1" d="M 12 14 L 12.75 14.25 Q 13 14.5 13 15 L 12 15 L 12 14 " stroke-width="1" fill="undefined"/>
<path style="fill:#883518;fill-opacity:1" d="M 12 12 L 13 12 L 13 13 L 12 13 L 12 12 " stroke-width="1" fill="undefined"/>
<path style="fill:#223C45;fill-opacity:1" d="M 12 16 L 12 15 L 13 15 L 13 16 L 12 16 " stroke-width="1" fill="undefined"/>
<path style="fill:#3E6573;fill-opacity:1" d="M 12 15 Q 11.5 15 11.25 14.75 L 11 14 L 12 14 L 12 15 " stroke-width="1" fill="undefined"/>
<path style="fill:#5FA3BD;fill-opacity:1" d="M 12 17 L 12 16 L 13 16 L 13 17 L 12 17 M 18 24 L 19 24 L 19 24.5 Q 18.5 24.5 18 24 " stroke-width="1" fill="undefined"/>
<path style="fill:#1F0E05;fill-opacity:1" d="M 13 16 L 13 15 L 14 15 L 14 16 L 13 16 " stroke-width="1" fill="undefined"/>
<path style="fill:#010000;fill-opacity:1" d="M 14 19 L 13 19 L 13 18 L 13 17 L 13 16 L 14 16 L 14 17 L 14 18 L 14 19 " stroke-width="1" fill="undefined"/>
<path style="fill:#CF8C00;fill-opacity:1" d="M 14 16 L 14 15 L 15 15 L 15 16 L 14 16 " stroke-width="1" fill="undefined"/>
<path style="fill:#121E22;fill-opacity:1" d="M 11 12 L 11 11 L 12 11 L 12 12 L 11 12 " stroke-width="1" fill="undefined"/>
<path style="fill:#2A0D0E;fill-opacity:1" d="M 18 19 L 17 19 L 16 19 L 16 18 L 17 18 L 18 18 L 18 19 " stroke-width="1" fill="undefined"/>
<path style="fill:#1C0909;fill-opacity:1" d="M 14 19 L 14 18 L 15 18 L 16 18 L 16 19 L 15 19 L 14 19 " stroke-width="1" fill="undefined"/>
<path style="fill:#F0A300;fill-opacity:1" d="M 16 22 L 16 21 L 15 21 L 15 20 L 16 20 L 16 21 Q 16.5 21 16.75 21.25 L 17 22 L 16 22 " stroke-width="1" fill="undefined"/>
<path style="fill:#B37A00;fill-opacity:1" d="M 14 20 L 14 19 L 15 19 L 15 20 L 14 20 M 20 23 L 20 22 L 21 22 L 21 23 L 20 23 " stroke-width="1" fill="undefined"/>
<path style="fill:#040708;fill-opacity:1" d="M 13 20 L 13 19 L 14 19 L 14 20 L 13 20 " stroke-width="1" fill="undefined"/>
<path style="fill:#2A1D00;fill-opacity:1" d="M 14 21 L 14 20 L 15 20 L 15 21 L 14 21 " stroke-width="1" fill="undefined"/>
<path style="fill:#2B4A56;fill-opacity:1" d="M 13.25 20.75 L 13 20 L 14 20 L 14 21 L 13.25 20.75 " stroke-width="1" fill="undefined"/>
<path style="fill:#3A2C09;fill-opacity:1" d="M 16 22 L 15 22 L 15 21 L 16 21 L 16 22 " stroke-width="1" fill="undefined"/>
<path style="fill:#477B8F;fill-opacity:1" d="M 14.25 21.75 L 14 21 L 15 21 L 15 22 L 14.25 21.75 " stroke-width="1" fill="undefined"/>
<path style="fill:#362E13;fill-opacity:1" d="M 16 23 L 16 22 L 17 22 L 17 23 L 16 23 " stroke-width="1" fill="undefined"/>
<path style="fill:#FFAD00;fill-opacity:1" d="M 18 20 L 19 20 L 20 20 L 21 20 L 22 20 L 22.95 20 L 23.95 20 L 23.95 21 L 22.95 21 L 22.95 22 L 22 22 L 21 22 L 20 22 L 19 22 L 19 23 L 18 23 L 17.75 22.25 L 17 22 L 16.75 21.25 Q 16.5 21 16 21 L 16 20 L 17 20 L 18 20 " stroke-width="1" fill="undefined"/>
<path style="fill:#5B9DB6;fill-opacity:1" d="M 6.75 19.25 Q 7 19.5 7 20 L 6 20 L 6 19 Q 6.5 19 6.75 19.25 M 17 24 L 16.25 23.75 L 16 23 L 17 23 L 17 24 " stroke-width="1" fill="undefined"/>
<path style="fill:#3D6778;fill-opacity:1" d="M 6 20 L 7 20 L 7 21 L 6 21 L 6 20 " stroke-width="1" fill="undefined"/>
<path style="fill:#000000;fill-opacity:0.768627" d="M 7 23 L 6 23 L 6 22 L 7 22 L 7 23 " stroke-width="1" fill="undefined"/>
<path style="fill:#000000;fill-opacity:0.180392" d="M 10 27 L 9.25 26.75 L 9 26 L 10 26 L 10 27 M 7 24 L 6.25 23.75 L 6 23 L 7 23 L 7 24 " stroke-width="1" fill="undefined"/>
<path style="fill:#305360;fill-opacity:1" d="M 7 23 L 7 22 L 8 22 L 8 23 L 7 23 " stroke-width="1" fill="undefined"/>
<path style="fill:#437385;fill-opacity:1" d="M 8 24 L 8 23 Q 8.5 23 8.75 23.25 Q 9 23.5 9 24 L 8 24 " stroke-width="1" fill="undefined"/>
<path style="fill:#1E333C;fill-opacity:1" d="M 11 26 L 10 26 L 10 25 L 11 25 L 11 26 " stroke-width="1" fill="undefined"/>
<path style="fill:#000000;fill-opacity:0.745098" d="M 11 27 L 10 27 L 10 26 L 11 26 L 11 27 " stroke-width="1" fill="undefined"/>
<path style="fill:#000000;fill-opacity:0.333333" d="M 9 25 L 9 26 L 8.25 25.75 L 8 25 L 7.25 24.75 L 7 24 L 8 24 L 8 25 L 9 25 " stroke-width="1" fill="undefined"/>
<path style="fill:#000000;fill-opacity:1" d="M 12 26 L 12 27 L 11 27 L 11 26 L 12 26 " stroke-width="1" fill="undefined"/>
<path style="fill:#1B2D34;fill-opacity:1" d="M 13 27 L 12 27 L 12 26 L 13 26 L 13 27 " stroke-width="1" fill="undefined"/>
<path style="fill:#000000;fill-opacity:0.67451" d="M 12 27 L 13 27 L 13 28 L 12 28 L 12 27 " stroke-width="1" fill="undefined"/>
<path style="fill:#000000;fill-opacity:0.262745" d="M 12 28 L 11.25 27.75 L 11 27 L 12 27 L 12 28 " stroke-width="1" fill="undefined"/>
<path style="fill:#000000;fill-opacity:0.992157" d="M 17 27 L 18 27 L 19 27 L 19 28 L 18 28 L 17 28 L 16 28 L 15 28 L 14 28 L 14 27 L 15 27 L 16 27 L 17 27 " stroke-width="1" fill="undefined"/>
<path style="fill:#000000;fill-opacity:0.203922" d="M 17 29 L 16.1 28.8 L 15 28 L 16 28 L 17 28 L 17 29 " stroke-width="1" fill="undefined"/>
<path style="fill:#355B6A;fill-opacity:1" d="M 13 27 L 13 26 L 14 26 L 14 27 L 13 27 " stroke-width="1" fill="undefined"/>
<path style="fill:#213943;fill-opacity:1" d="M 25.95 18 L 25.95 17 L 26.95 17 L 26.95 18 L 25.95 18 M 24.95 20 L 23.95 20 L 23.95 19 L 24.95 19 L 24.95 20 " stroke-width="1" fill="undefined"/>
<path style="fill:#291B00;fill-opacity:1" d="M 23.95 19 L 23.95 20 L 22.95 20 L 22.95 19 L 23.95 19 " stroke-width="1" fill="undefined"/>
<path style="fill:#473000;fill-opacity:1" d="M 24.95 21 L 24.95 20 L 25.95 20 L 25.95 21 L 24.95 21 " stroke-width="1" fill="undefined"/>
<path style="fill:#1D3138;fill-opacity:1" d="M 25.95 19 L 26.95 19 L 26.95 20 L 25.95 20 L 25.95 19 " stroke-width="1" fill="undefined"/>
<path style="fill:#462F00;fill-opacity:1" d="M 22 19 L 22.95 19 L 22.95 20 L 22 20 L 22 19 " stroke-width="1" fill="undefined"/>
<path style="fill:#684700;fill-opacity:1" d="M 20 19 L 21 19 L 22 19 L 22 20 L 21 20 L 20 20 L 20 19 " stroke-width="1" fill="undefined"/>
<path style="fill:#2F372C;fill-opacity:1" d="M 22 22 L 22.95 22 L 22.95 23 L 22 23 L 22 22 " stroke-width="1" fill="undefined"/>
<path style="fill:#744F00;fill-opacity:1" d="M 21 23 L 21 22 L 22 22 L 22 23 L 21 23 " stroke-width="1" fill="undefined"/>
<path style="fill:#BC8000;fill-opacity:1" d="M 23.95 22 L 22.95 22 L 22.95 21 L 23.95 21 L 23.95 22 " stroke-width="1" fill="undefined"/>
<path style="fill:#406F81;fill-opacity:1" d="M 23.95 23 L 22.95 23 L 22.95 22 L 23.95 22 L 23.95 23 " stroke-width="1" fill="undefined"/>
<path style="fill:#000000;fill-opacity:0.580392" d="M 25.95 22 L 25.95 21 L 26.95 21 L 26.95 22 L 25.95 22 " stroke-width="1" fill="undefined"/>
<path style="fill:#1D323A;fill-opacity:1" d="M 24.95 22 L 24.95 21 L 25.95 21 L 25.95 22 L 24.95 22 " stroke-width="1" fill="undefined"/>
<path style="fill:#5C450D;fill-opacity:1" d="M 23.95 22 L 23.95 21 L 24.95 21 L 24.95 22 L 23.95 22 " stroke-width="1" fill="undefined"/>
<path style="fill:#111E22;fill-opacity:1" d="M 23.95 23 L 24.95 23 L 24.95 24 L 23.95 24 L 23.95 23 " stroke-width="1" fill="undefined"/>
<path style="fill:#000000;fill-opacity:0.415686" d="M 24.95 23 L 25.95 23 L 25.7 23.75 L 24.95 24 L 24.95 23 " stroke-width="1" fill="undefined"/>
<path style="fill:#000000;fill-opacity:0.0862745" d="M 25.95 22 L 26.95 22 L 26.7 22.75 L 25.95 23 L 25.95 22 " stroke-width="1" fill="undefined"/>
<path style="fill:#000001;fill-opacity:0.984314" d="M 25.95 21 L 25.95 20 L 26.95 20 L 26.95 21 L 25.95 21 " stroke-width="1" fill="undefined"/>
<path style="fill:#3D1314;fill-opacity:1" d="M 20 19 L 20 18 L 20.75 18.25 L 21 19 L 20 19 " stroke-width="1" fill="undefined"/>
<path style="fill:#351111;fill-opacity:1" d="M 19 19 L 18 19 L 18 18 L 19 18 L 20 18 L 20 19 L 19 19 " stroke-width="1" fill="undefined"/>
<path style="fill:#986700;fill-opacity:1" d="M 18 19 L 19 19 L 20 19 L 20 20 L 19 20 L 18 20 L 18 19 " stroke-width="1" fill="undefined"/>
<path style="fill:#AA7400;fill-opacity:1" d="M 18 20 L 17 20 L 17 19 L 18 19 L 18 20 " stroke-width="1" fill="undefined"/>
<path style="fill:#E19900;fill-opacity:1" d="M 17 23 L 17 22 L 17.75 22.25 L 18 23 L 17 23 " stroke-width="1" fill="undefined"/>
<path style="fill:#2C3D3A;fill-opacity:1" d="M 17 23 L 18 23 L 18 24 L 17 24 L 17 23 " stroke-width="1" fill="undefined"/>
<path style="fill:#1D2D31;fill-opacity:1" d="M 20 24 L 19 24 L 19 23 L 20 23 L 20 24 " stroke-width="1" fill="undefined"/>
<path style="fill:#386171;fill-opacity:1" d="M 20 23 L 21 23 L 21 24 L 20 24 L 20 23 " stroke-width="1" fill="undefined"/>
<path style="fill:#412C00;fill-opacity:1" d="M 19 24 L 18 24 L 18 23 L 19 23 L 19 24 " stroke-width="1" fill="undefined"/>
<path style="fill:#070C0E;fill-opacity:1" d="M 20 26 L 21 26 L 21 27 L 20 27 L 20 26 " stroke-width="1" fill="undefined"/>
<path style="fill:#28434E;fill-opacity:1" d="M 19 26 L 20 26 L 20 27 L 19 27 L 19 26 " stroke-width="1" fill="undefined"/>
<path style="fill:#000000;fill-opacity:0.733333" d="M 20 27 L 20 28 L 19 28 L 19 27 L 20 27 " stroke-width="1" fill="undefined"/>
<path style="fill:#000000;fill-opacity:0.380392" d="M 20 27 L 21 27 L 20.75 27.75 L 20 28 L 20 27 " stroke-width="1" fill="undefined"/>
<path style="fill:#000000;fill-opacity:0.615686" d="M 23.95 24 L 24.95 24 L 24.7 24.75 L 23.95 25 L 23.95 24 " stroke-width="1" fill="undefined"/>
<path style="fill:#131F24;fill-opacity:1" d="M 22.95 24 L 23.95 24 L 23.95 25 L 22.95 25 L 22.95 24 " stroke-width="1" fill="undefined"/>
<path style="fill:#5491A8;fill-opacity:1" d="M 22.95 24 L 22.95 25 L 22 25 L 22 24 L 22.95 24 " stroke-width="1" fill="undefined"/>
<path style="fill:#000000;fill-opacity:0.533333" d="M 22.95 25 L 23.95 25 L 23.7 25.75 L 22.95 26 L 22.95 25 " stroke-width="1" fill="undefined"/>
<path style="fill:#050809;fill-opacity:1" d="M 22 25 L 22.95 25 L 22.95 26 L 22 26 L 22 25 " stroke-width="1" fill="undefined"/>
<path style="fill:#5999B1;fill-opacity:1" d="M 21 23 L 22 23 L 22 24 L 21 24 L 21 23 " stroke-width="1" fill="undefined"/>
<path style="fill:#000000;fill-opacity:0.572549" d="M 26.95 15 L 26.95 14 L 27.95 14 L 27.95 15 L 26.95 15 " stroke-width="1" fill="undefined"/>
<path style="fill:#000000;fill-opacity:0.25098" d="M 26.95 13 L 26.95 12 L 27.7 12.25 L 27.95 13 L 26.95 13 " stroke-width="1" fill="undefined"/>
<path style="fill:#0D0900;fill-opacity:0.913725" d="M 26.95 16 L 26.95 15 L 27.95 15 L 27.95 16 L 26.95 16 " stroke-width="1" fill="undefined"/>
<path style="fill:#080500;fill-opacity:0.905882" d="M 26.95 17 L 27.95 17 L 27.95 18 L 26.95 18 L 26.95 17 " stroke-width="1" fill="undefined"/>
<path style="fill:#0B0700;fill-opacity:0.74902" d="M 27.95 17 L 27.95 16 L 28.95 16 L 28.95 17 L 27.95 17 " stroke-width="1" fill="undefined"/>
<path style="fill:#130D00;fill-opacity:0.937255" d="M 27.95 17 L 28.95 17 L 28.95 18 L 27.95 18 L 27.95 17 " stroke-width="1" fill="undefined"/>
<path style="fill:#000000;fill-opacity:0.227451" d="M 28.95 17 Q 29.45 17.5 29.45 18 L 28.95 18 L 28.95 17 " stroke-width="1" fill="undefined"/>
<path style="fill:#000000;fill-opacity:0.27451" d="M 26.95 19 L 27.95 19 L 27.7 19.75 L 26.95 20 L 26.95 19 " stroke-width="1" fill="undefined"/>
</g>
</svg>