<?xml version="1.0" encoding="utf-8"?><svg xmlns="http://www.w3.org/2000/svg" xmlns:xlink="http://www.w3.org/1999/xlink" xmlns:author="http://www.sothink.com" version="1.1" id="Layer_1" width="58.95000076293945" height="55" xml:space="preserve" viewBox="-0.5 -0.5 58.95000076293945 55">
<g id="37">
<path style="fill:#000000;fill-opacity:0.27451" d="M 16 2 L 15 2 L 15 1 L 16 1 L 16 2 " stroke-width="1" fill="undefined"/>
<path style="fill:#000000;fill-opacity:0.164706" d="M 16 2 L 16 3 L 15.25 2.75 L 15 2 L 16 2 " stroke-width="1" fill="undefined"/>
<path style="fill:#000000;fill-opacity:0.231373" d="M 20 1 L 19 1 L 19 0 L 20 0 L 20 1 M 21 13 Q 20.5 13 20.25 12.75 L 20 12 L 21 12 L 21 13 " stroke-width="1" fill="undefined"/>
<path style="fill:#000000;fill-opacity:0.172549" d="M 18 1 L 18 0 L 19 0 L 19 1 L 18 1 " stroke-width="1" fill="undefined"/>
<path style="fill:#000000;fill-opacity:0.996078" d="M 21.25 1.75 L 22 2 L 23 2 L 24 2 L 25 2 L 25.25 2.75 L 26 3 L 27 3 L 27.25 3.75 L 28 4 L 29 4 Q 29 4.5 29.25 4.75 Q 29.5 5 30 5 L 30.75 4.75 L 31 4 L 31 3 L 32 3 L 32 4 L 32 5 L 32 6 Q 32 6.5 32.25 6.75 Q 32.5 7 33 7 L 33 8 L 32 8 L 32 9 L 32 10 L 32 11 L 32 12 L 31 12 L 30.75 11.25 L 30 11 L 29 11 L 28 11 L 27 11 L 27 12 L 26 12 L 25 12 Q 25 11.5 24.75 11.25 L 24 11 L 23 11 L 22 11 L 22 10 L 22.5 10 Q 22.5 9.5 22 9 Q 22 8.5 21.75 8.25 L 21 8 L 20 8 L 19 8 L 18 8 L 18 7 L 19 7 L 20 7 L 21 7 L 22 7 L 23 7 L 24 7 L 24.5 7 Q 24.5 6.5 24 6 Q 24 5.5 23.75 5.25 L 23 5 L 22.75 4.25 L 22 4 Q 22 3.5 21.75 3.25 L 21 3 L 20 3 L 19.75 2.25 L 19 2 L 18 2 L 18 1 L 19 1 L 20 1 L 21 1 L 21.25 1.75 M 1 28 L 2 28 L 2 29 L 2 30 L 2.25 30.75 L 3 31 L 3.25 31.75 L 4 32 L 4.25 32.75 L 5 33 L 5.25 33.75 L 6 34 Q 6.5 34.5 7 34.5 L 7 34 L 7 33 L 7 32 L 7 31 L 7.75 30.75 L 8 30 L 8 29 L 9 29 L 9 30 L 9 31 L 9 32 L 9.25 32.75 L 10 33 L 10.25 33.75 L 11 34 L 11 35 L 11 36 L 10 36 L 10 37 L 10 38 L 9 38 L 9 39 L 9 40 L 8 40 L 7.8 39.4 Q 7 39 6 39 L 6 40 L 5 40 L 4 40 L 3 40 L 3 39 L 3.75 38.75 Q 4 38.5 4 38 L 4.75 37.75 L 5 37 Q 5 36.5 4.75 36.25 Q 4.5 36 4 36 L 3 36 Q 3 35.5 2.75 35.25 Q 2.5 35 2 35 L 2 34 Q 2 33.5 1.75 33.25 Q 1.5 33 1 33 L 1 32 L 1 31 L 1 30 L 1 29 L 1 28 M 13 32 L 12 32 L 12 31 L 13 31 L 13 32 M 41.95 52 L 42.95 52 L 43.95 52 L 44.95 52 L 44.95 53 L 43.95 53 L 42.95 53 L 41.95 53 L 40.95 53 L 40.95 52 L 41.95 52 " stroke-width="1" fill="undefined"/>
<path style="fill:#000000;fill-opacity:0.94902" d="M 19 2 L 19.75 2.25 L 20 3 L 19 3 L 19 2 M 31 4 L 30.75 4.75 L 30 5 L 30 4 L 31 4 " stroke-width="1" fill="undefined"/>
<path style="fill:#000000;fill-opacity:0.188235" d="M 20 1 L 20 0 L 21 0 L 21 1 L 20 1 " stroke-width="1" fill="undefined"/>
<path style="fill:#000000;fill-opacity:0.105882" d="M 21 1 L 21 0 L 21.75 0.25 Q 22 0.5 22 1 L 21 1 M 19 19 L 19 18 L 20 18 L 20 19 L 19 19 " stroke-width="1" fill="undefined"/>
<path style="fill:#000000;fill-opacity:0.945098" d="M 26 13 L 25 13 L 25 12 L 26 12 L 26 13 M 18 1 L 18 2 L 17 2 L 17 1 L 18 1 M 51.95 52 L 50.95 52 L 50.95 51 L 51.95 51 L 51.95 52 " stroke-width="1" fill="undefined"/>
<path style="fill:#000000;fill-opacity:0.737255" d="M 16 2 L 16 1 L 17 1 L 17 2 L 16 2 M 54.95 43 L 54.95 42 L 55.95 42 L 55.95 43 L 54.95 43 " stroke-width="1" fill="undefined"/>
<path style="fill:#000000;fill-opacity:0.282353" d="M 17 3 L 16 3 L 16 2 L 17 2 L 17 3 " stroke-width="1" fill="undefined"/>
<path style="fill:#000000;fill-opacity:0.0588235" d="M 18 1 L 17 1 L 17 0 L 18 0 L 18 1 M 42.95 23 L 42.95 22 L 43.7 22.25 L 43.95 23 L 42.95 23 M 52.95 32 L 51.95 32 L 51.95 31 L 52.95 31 L 52.95 32 M 16 25 L 15 25 L 15 24 L 16 24 L 16 25 " stroke-width="1" fill="undefined"/>
<path style="fill:#000000;fill-opacity:0.380392" d="M 18 3 L 17 3 L 17 2 L 18 2 L 18 3 " stroke-width="1" fill="undefined"/>
<path style="fill:#000000;fill-opacity:0.133333" d="M 20 4 L 19.25 3.75 L 19 3 L 20 3 L 20 4 " stroke-width="1" fill="undefined"/>
<path style="fill:#000000;fill-opacity:0.498039" d="M 11 52 L 12 52 L 12 53 L 11 53 L 11 52 M 21 4 L 20 4 L 20 3 L 21 3 L 21 4 " stroke-width="1" fill="undefined"/>
<path style="fill:#000000;fill-opacity:0.870588" d="M 2 39 L 3 39 L 3 40 L 2 40 L 2 39 M 21 4 L 21 3 L 21.75 3.25 Q 22 3.5 22 4 L 21 4 M 4 36 Q 4.5 36 4.75 36.25 Q 5 36.5 5 37 L 4 37 L 4 36 " stroke-width="1" fill="undefined"/>
<path style="fill:#000000;fill-opacity:0.639216" d="M 20 53 L 21 53 L 21 54 L 20 54 L 20 53 M 19 2 L 19 3 L 18 3 L 18 2 L 19 2 " stroke-width="1" fill="undefined"/>
<path style="fill:#000000;fill-opacity:0.588235" d="M 21 7 L 20 7 L 20 6 L 21 6 L 21 7 " stroke-width="1" fill="undefined"/>
<path style="fill:#000000;fill-opacity:0.352941" d="M 6 51 L 5.25 50.75 L 5 50 L 6 50 L 6 51 M 19 6 L 20 6 L 20 7 L 19 7 L 19 6 " stroke-width="1" fill="undefined"/>
<path style="fill:#000000;fill-opacity:0.721569" d="M 47.95 31 L 47.95 30 L 48.95 30 L 48.95 31 L 47.95 31 M 8 30 L 7.75 30.75 L 7 31 L 7 30 L 8 30 M 23 7 L 22 7 L 21 7 L 21 6 L 22 6 L 23 6 L 23 7 " stroke-width="1" fill="undefined"/>
<path style="fill:#000000;fill-opacity:0.152941" d="M 52.95 37 L 53.7 37.25 L 53.95 38 L 52.95 38 L 52.95 37 M 43.95 53 L 44.95 53 L 44.95 54 L 43.95 54 L 43.95 53 M 19 7 L 18 7 L 18 6 L 19 6 L 19 7 " stroke-width="1" fill="undefined"/>
<path style="fill:#000000;fill-opacity:0.847059" d="M 14 52 L 15 52 L 15 53 L 14 53 L 14 52 M 21 9 L 20 9 L 20 8 L 21 8 L 21 9 M 24 15 L 23 15 L 23 14 L 24 14 L 24 15 M 36.95 17 L 36.95 16 L 37.95 16 L 37.95 17 L 36.95 17 " stroke-width="1" fill="undefined"/>
<path style="fill:#000000;fill-opacity:0.698039" d="M 20 9 L 19 9 L 19 8 L 20 8 L 20 9 " stroke-width="1" fill="undefined"/>
<path style="fill:#000000;fill-opacity:0.0901961" d="M 2 28 L 2 27 L 2 26 L 2.8 27.1 L 3 28 L 2 28 M 23 15 L 22 15 L 22 14 L 23 14 L 23 15 M 17 8 L 16 8 L 16 7 L 17 7 L 17 8 " stroke-width="1" fill="undefined"/>
<path style="fill:#000000;fill-opacity:0.517647" d="M 17 9 L 16.25 8.75 L 16 8 L 17 8 L 17 9 " stroke-width="1" fill="undefined"/>
<path style="fill:#000000;fill-opacity:0.592157" d="M 16 25 L 16 26 L 15 26 L 15 25 L 16 25 M 17 8 L 17 7 L 18 7 L 18 8 L 17 8 " stroke-width="1" fill="undefined"/>
<path style="fill:#000000;fill-opacity:0.666667" d="M 38.95 53 L 39.95 53 L 39.95 54 L 38.95 54 L 37.95 54 L 37.95 53 L 38.95 53 M 17 8 L 18 8 L 18 9 L 17 9 L 17 8 " stroke-width="1" fill="undefined"/>
<path style="fill:#000000;fill-opacity:0.564706" d="M 21 12 L 20 12 L 20 11 L 21 11 L 21 12 M 24 6 L 24 7 L 23 7 L 23 6 L 24 6 " stroke-width="1" fill="undefined"/>
<path style="fill:#000000;fill-opacity:0.0705882" d="M 12 30 L 12 29 L 13 29 L 13 30 L 12 30 M 21 10 L 21 9 L 22 9 L 22 10 L 21 10 " stroke-width="1" fill="undefined"/>
<path style="fill:#000000;fill-opacity:0.631373" d="M 45.95 28 L 45.95 27 L 46.95 27 L 46.95 28 L 45.95 28 M 19 20 L 19 19 L 20 19 L 20 20 L 19 20 M 22 10 L 22 11 L 21 11 L 21 10 L 22 10 " stroke-width="1" fill="undefined"/>
<path style="fill:#000000;fill-opacity:0.623529" d="M 19 9 L 18 9 L 18 8 L 19 8 L 19 9 " stroke-width="1" fill="undefined"/>
<path style="fill:#000000;fill-opacity:0.917647" d="M 21 9 L 21 8 L 21.75 8.25 Q 22 8.5 22 9 L 21 9 M 33 9 L 32 9 L 32 8 L 33 8 L 33 9 M 7 34 L 7 34.5 Q 6.5 34.5 6 34 L 7 34 M 19 21 L 19 22 L 18 22 L 18 21 L 19 21 M 17 25 L 16 25 L 16 24 L 17 24 L 17 25 M 34.95 15 L 34.95 14 L 35.95 14 L 35.95 15 L 34.95 15 " stroke-width="1" fill="undefined"/>
<path style="fill:#000000;fill-opacity:0.290196" d="M 20 18 L 20 17 L 21 17 L 21 18 L 20 18 " stroke-width="1" fill="undefined"/>
<path style="fill:#000000;fill-opacity:0.0784314" d="M 56.95 46 L 56.95 45 Q 57.45 45 57.7 45.25 L 57.95 46 L 56.95 46 M 21 12 L 22 12 Q 22 12.5 21.75 12.75 Q 21.5 13 21 13 L 21 12 " stroke-width="1" fill="undefined"/>
<path style="fill:#000000;fill-opacity:0.466667" d="M 22 17 L 21 17 L 21 16 L 22 16 L 22 17 M 22 9 Q 22.5 9.5 22.5 10 L 22 10 L 22 9 " stroke-width="1" fill="undefined"/>
<path style="fill:#000000;fill-opacity:0.956863" d="M 21 1 L 22 1 L 22 2 L 21.25 1.75 L 21 1 M 21 12 L 21 11 L 22 11 L 22 12 L 21 12 " stroke-width="1" fill="undefined"/>
<path style="fill:#000000;fill-opacity:0.243137" d="M 2 27 L 1 27 L 1 26 L 2 26 L 2 27 " stroke-width="1" fill="undefined"/>
<path style="fill:#000000;fill-opacity:0.670588" d="M 53.95 38 L 53.95 39 L 52.95 39 L 52.95 38 L 53.95 38 M 2 28 L 1 28 L 1 27 L 2 27 L 2 28 M 10 32 L 10 33 L 9.25 32.75 L 9 32 L 10 32 " stroke-width="1" fill="undefined"/>
<path style="fill:#000000;fill-opacity:0.392157" d="M 0 30 L 0 29 L 1 29 L 1 30 L 0 30 M 9 30 L 9 29 L 10 29 L 10 30 L 9 30 " stroke-width="1" fill="undefined"/>
<path style="fill:#000000;fill-opacity:0.494118" d="M 1 39 L 2 39 L 2 40 L 1 40 L 1 39 M 2 30 L 2 29 L 3 29 L 3 30 L 2 30 " stroke-width="1" fill="undefined"/>
<path style="fill:#000000;fill-opacity:0.184314" d="M 2 29 L 2 28 L 3 28 L 3 29 L 2 29 " stroke-width="1" fill="undefined"/>
<path style="fill:#000000;fill-opacity:0.862745" d="M 3 31 L 2.25 30.75 L 2 30 L 3 30 L 3 31 " stroke-width="1" fill="undefined"/>
<path style="fill:#000000;fill-opacity:0.196078" d="M 4 47 L 4 46 L 5 46 L 5 47 L 4 47 M 0 29 L 0 28 L 1 28 L 1 29 L 0 29 " stroke-width="1" fill="undefined"/>
<path style="fill:#000000;fill-opacity:0.137255" d="M 33 12 L 33 11 L 33.75 11.25 L 34 12 L 33 12 M 7 30 L 7 29 L 8 29 L 8 30 L 7 30 " stroke-width="1" fill="undefined"/>
<path style="fill:#000000;fill-opacity:0.345098" d="M 55.95 50 L 56.95 50 L 56.7 50.75 L 55.95 51 L 55.95 50 M 9 29 L 8 29 L 8 28 L 9 28 L 9 29 " stroke-width="1" fill="undefined"/>
<path style="fill:#000000;fill-opacity:0.435294" d="M 19 54 L 18 54 L 18 53 L 19 53 L 19 54 M 9 29 L 9 28 L 10 28 L 10 29 L 9 29 " stroke-width="1" fill="undefined"/>
<path style="fill:#000000;fill-opacity:0.0666667" d="M 9 28 L 9 27 Q 9.5 27 9.75 27.25 Q 10 27.5 10 28 L 9 28 " stroke-width="1" fill="undefined"/>
<path style="fill:#000000;fill-opacity:0.309804" d="M 54.95 42 L 54.95 41 L 55.7 41.25 L 55.95 42 L 54.95 42 M 4 40 L 5 40 L 5 41 L 4 41 L 4 40 M 9 31 L 9 30 L 10 30 L 10 31 L 9 31 " stroke-width="1" fill="undefined"/>
<path style="fill:#423D09;fill-opacity:1" d="M 22 18 L 22 19 L 21 19 L 21 18 L 22 18 " stroke-width="1" fill="undefined"/>
<path style="fill:#000000;fill-opacity:0.87451" d="M 20 19 L 20 18 L 21 18 L 21 19 L 20 19 " stroke-width="1" fill="undefined"/>
<path style="fill:#181602;fill-opacity:1" d="M 20 19 L 21 19 L 21 20 L 20 20 L 20 19 " stroke-width="1" fill="undefined"/>
<path style="fill:#9F9115;fill-opacity:1" d="M 20 21 L 20 20 L 21 20 L 21 21 L 20 21 " stroke-width="1" fill="undefined"/>
<path style="fill:#010100;fill-opacity:1" d="M 19 20 L 20 20 L 20 21 L 19 21 L 19 20 M 17 52 L 18 52 L 19 52 L 20 52 L 20 53 L 19 53 L 18 53 L 17 53 L 16 53 L 16 52 L 17 52 " stroke-width="1" fill="undefined"/>
<path style="fill:#DBC71D;fill-opacity:1" d="M 22 20 L 21 20 L 21 19 L 22 19 L 22 20 " stroke-width="1" fill="undefined"/>
<path style="fill:#000000;fill-opacity:0.0980392" d="M 17 22 L 17 21 L 18 21 L 18 22 L 17 22 " stroke-width="1" fill="undefined"/>
<path style="fill:#000000;fill-opacity:1" d="M 22 18 L 21 18 L 21 17 L 22 17 L 22 18 M 17 24 L 17 23 L 18 23 L 18 24 L 17 24 M 15 29 L 14 29 L 14 28 L 15 28 L 15 29 M 7 42 L 7 41 L 8 41 L 8 42 L 7 42 M 7 43 L 7 44 L 7 45 L 6 45 L 6 44 L 6 43 L 7 43 M 9 50 L 9 51 L 8 51 L 7 51 L 7 50 L 6 50 L 5 50 L 5 49 L 5 48 L 5 47 L 5 46 L 6 46 L 6 47 L 6 48 L 6.25 48.75 L 7 49 L 7 50 L 8 50 L 9 50 M 12 51 L 12 52 L 11 52 L 10 52 L 10 51 L 11 51 L 12 51 M 39.95 21 L 39.95 20 L 40.95 20 L 40.95 21 L 39.95 21 M 54.95 44 L 54.95 43 L 55.95 43 L 55.95 44 L 54.95 44 M 56.95 48 L 56.95 49 L 56.95 50 L 55.95 50 L 54.95 50 L 54.95 49 L 55.7 48.75 L 55.95 48 L 55.95 47 L 55.95 46 L 56.95 46 L 56.95 47 L 56.95 48 M 49.95 52 L 48.95 52 L 48.95 51 L 49.95 51 L 50.95 51 L 50.95 52 L 49.95 52 M 54.95 50 L 54.95 51 L 53.95 51 L 52.95 51 L 52.95 50 L 53.95 50 L 54.95 50 " stroke-width="1" fill="undefined"/>
<path style="fill:#000000;fill-opacity:0.360784" d="M 17 24 L 16 24 L 16 23 L 17 23 L 17 24 " stroke-width="1" fill="undefined"/>
<path style="fill:#AA9A17;fill-opacity:1" d="M 19 24 L 18 24 L 18 23 L 19 23 L 19 24 " stroke-width="1" fill="undefined"/>
<path style="fill:#000000;fill-opacity:0.654902" d="M 18 22 L 18 23 L 17 23 L 17 22 L 18 22 " stroke-width="1" fill="undefined"/>
<path style="fill:#5D550D;fill-opacity:1" d="M 18 25 L 17 25 L 17 24 L 18 24 L 18 25 " stroke-width="1" fill="undefined"/>
<path style="fill:#1F1E04;fill-opacity:1" d="M 19 23 L 18 23 L 18 22 L 19 22 L 19 23 " stroke-width="1" fill="undefined"/>
<path style="fill:#F0DA1E;fill-opacity:1" d="M 23.75 17.75 Q 24 17.5 24 17 Q 24.5 17 24.75 16.75 Q 25 16.5 25 16 Q 25.5 16 25.75 15.75 Q 26 15.5 26 15 Q 26.5 15 26.75 14.75 Q 27 14.5 27 14 Q 27.5 14 27.75 13.75 Q 28 13.5 28 13 L 29 13 L 30 13 L 30 14 Q 30 14.5 30.25 14.75 Q 30.5 15 31 15 L 31 16 Q 31 16.5 31.25 16.75 Q 31.5 17 32 17 Q 32 17.5 32.25 17.75 Q 32.5 18 33 18 Q 33 18.5 33.25 18.75 Q 33.5 19 34 19 Q 34 19.5 34.25 19.75 Q 34.45 20 34.95 20 Q 34.95 20.5 35.2 20.75 Q 35.45 21 35.95 21 Q 35.95 21.5 36.2 21.75 Q 36.45 22 36.95 22 Q 36.95 22.5 37.2 22.75 Q 37.45 23 37.95 23 L 38.95 23 L 39.95 23 Q 39.95 23.5 40.2 23.75 Q 40.45 24 40.95 24 Q 40.95 24.5 41.2 24.75 Q 41.45 25 41.95 25 Q 41.95 25.5 42.2 25.75 L 42.95 26 L 42.95 27 L 43.2 27.75 L 43.95 28 Q 43.95 28.5 44.2 28.75 L 44.95 29 Q 44.95 29.5 45.2 29.75 L 45.95 30 L 46.95 30 L 46.95 31 L 45.95 31 L 46.2 31.75 L 46.95 32 Q 46.95 32.5 47.2 32.75 L 47.95 33 L 48.95 33 L 48.95 34 L 47.95 34 L 46.95 34 L 46.95 35 L 45.95 35 L 44.95 35 L 44.95 36 L 43.95 36 L 42.95 36 L 42.95 37 L 41.95 37 L 40.95 37 L 39.95 37 L 38.95 37 L 37.95 37 L 37.7 36.25 L 36.95 36 L 35.95 36 L 35.7 35.25 L 34.95 35 L 34 35 L 33.75 34.25 L 33 34 L 32 34 L 31.75 33.25 Q 31.5 33 31 33 L 30 33 L 29.75 32.25 L 29 32 L 28 32 Q 28 31.5 27.75 31.25 Q 27.5 31 27 31 L 26 31 Q 26 30.5 25.75 30.25 Q 25.5 30 25 30 L 24 30 L 23 30 L 23 31 L 22 31 L 22 32 L 21 32 L 21 33 L 21.25 33.75 L 22 34 L 23 34 L 23.25 34.75 L 24 35 L 25 35 L 25.25 35.75 L 26 36 L 26 37 L 26 38 L 26 39 L 26.25 39.75 L 27 40 L 27.25 40.75 L 28 41 Q 28 41.5 28.25 41.75 L 29 42 L 30 42 Q 30 42.5 30.25 42.75 L 31 43 L 31.75 42.75 L 32 42 L 33 42 L 34 42 L 34 43 L 33 43 Q 33 43.5 33.25 43.75 L 34 44 Q 34 44.5 34.25 44.75 L 34.95 45 L 34.95 46 L 34 46 L 33 46 L 33 47 L 32 47 L 31 47 L 30 47 L 29 47 L 29 48 L 28 48 Q 28 47.5 27.75 47.25 Q 27.5 47 27 47 L 27 48 L 26 48 L 25 48 L 24 48 L 24 49 L 23 49 L 22 49 L 22 50 L 21 50 Q 21 49.5 20.75 49.25 Q 20.5 49 20 49 L 20 50 L 19 50 L 18 50 Q 18 49.5 17.75 49.25 Q 17.5 49 17 49 L 16 49 L 15 49 L 14 49 L 13 49 Q 13 48.5 12.75 48.25 Q 12.5 48 12 48 Q 12 47.5 11.75 47.25 Q 11.5 47 11 47 L 11 48 L 10 48 Q 10 47.5 9.75 47.25 Q 9.5 47 9 47 L 9 46 Q 10.65 45.65 10.1 42.95 L 10 42 L 10 41 L 10.75 40.75 L 11 40 L 11 39 L 11 38 L 11.8 36.9 L 12 36 L 12.8 34.9 L 13 34 L 13.5 34 Q 13.5 33.5 13 33 L 13 32 L 14 32 L 14.75 31.75 Q 15 31.5 15 31 L 15.75 30.75 Q 16 30.5 16 30 L 16 29 L 16.75 28.75 L 17 28 L 17 27 L 17.75 26.75 Q 18 26.5 18 26 L 18.8 24.9 L 19 24 Q 19.5 24 19.75 23.75 Q 20 23.5 20 23 Q 20.5 23 20.75 22.75 Q 21 22.5 21 22 L 21 21 Q 21.5 21 21.75 20.75 Q 22 20.5 22 20 L 22.8 18.9 L 23 18 Q 23.5 18 23.75 17.75 M 53.95 44 L 54.95 44 L 54.95 45 L 53.95 45 L 53.95 46 L 53.95 47 L 53.95 48 L 52.95 48 L 52.7 47.25 L 51.95 47 L 51.95 48 L 50.95 48 L 50.7 47.25 L 49.95 47 L 48.95 47 L 47.95 47 L 46.95 47 L 46.95 46 L 46.95 45 L 47.7 44.75 L 47.95 44 L 49.95 44 L 50.95 44 L 51.95 44 L 52.95 44 L 53.95 44 " stroke-width="1" fill="undefined"/>
<path style="fill:#FFE921;fill-opacity:1" d="M 21.75 20.75 Q 21.5 21 21 21 L 21 20 L 22 20 Q 22 20.5 21.75 20.75 M 20 22 L 20 21 L 21 21 L 21 22 L 20 22 M 20 23 Q 20 23.5 19.75 23.75 Q 19.5 24 19 24 L 19 23 L 20 23 M 25 16 Q 25 16.5 24.75 16.75 Q 24.5 17 24 17 L 24 16 L 25 16 " stroke-width="1" fill="undefined"/>
<path style="fill:#F7E020;fill-opacity:1" d="M 21 22 Q 21 22.5 20.75 22.75 Q 20.5 23 20 23 L 20 22 L 21 22 M 15 30 L 16 30 Q 16 30.5 15.75 30.75 L 15 31 L 15 30 " stroke-width="1" fill="undefined"/>
<path style="fill:#5B530C;fill-opacity:1" d="M 20 21 L 20 22 L 19 22 L 19 21 L 20 21 " stroke-width="1" fill="undefined"/>
<path style="fill:#DECA1E;fill-opacity:1" d="M 20 23 L 19 23 L 19 22 L 20 22 L 20 23 " stroke-width="1" fill="undefined"/>
<path style="fill:#000000;fill-opacity:0.4" d="M 19 21 L 18 21 L 18 20 L 19 20 L 19 21 " stroke-width="1" fill="undefined"/>
<path style="fill:#FAE420;fill-opacity:1" d="M 18 24 L 19 24 L 18.8 24.9 L 18 26 L 18 25 L 18 24 " stroke-width="1" fill="undefined"/>
<path style="fill:#000000;fill-opacity:0.988235" d="M 16 27 L 15 27 L 15 26 L 16 26 L 16 27 " stroke-width="1" fill="undefined"/>
<path style="fill:#000000;fill-opacity:0.211765" d="M 35.95 15 L 35.95 14 L 36.7 14.25 L 36.95 15 L 35.95 15 M 44.95 26 L 44.95 25 L 45.7 25.25 L 45.95 26 L 44.95 26 M 17 54 L 16 54 L 16 53 L 17 53 L 17 54 M 15 27 L 14 27 L 14 26 L 15 26 L 15 27 " stroke-width="1" fill="undefined"/>
<path style="fill:#000000;fill-opacity:0.807843" d="M 15 28 L 14 28 L 14 27 L 15 27 L 15 28 " stroke-width="1" fill="undefined"/>
<path style="fill:#000000;fill-opacity:0.529412" d="M 13 31 L 12 31 L 12 30 L 13 30 L 13 31 " stroke-width="1" fill="undefined"/>
<path style="fill:#000000;fill-opacity:0.92549" d="M 14 30 L 13 30 L 13 29 L 14 29 L 14 30 " stroke-width="1" fill="undefined"/>
<path style="fill:#000000;fill-opacity:0.388235" d="M 14 29 L 13 29 L 13 28 L 14 28 L 14 29 " stroke-width="1" fill="undefined"/>
<path style="fill:#5A520C;fill-opacity:1" d="M 14 30 L 14 29 L 15 29 L 15 30 L 14 30 " stroke-width="1" fill="undefined"/>
<path style="fill:#E5D01F;fill-opacity:1" d="M 14 30 L 15 30 L 15 31 L 14 31 L 14 30 " stroke-width="1" fill="undefined"/>
<path style="fill:#C1B01A;fill-opacity:1" d="M 16 29 L 15 29 L 15 28 L 16 28 L 16 29 " stroke-width="1" fill="undefined"/>
<path style="fill:#FDE621;fill-opacity:1" d="M 15 30 L 15 29 L 16 29 L 16 30 L 15 30 M 13 33 Q 13.5 33.5 13.5 34 L 13 34 L 13 33 " stroke-width="1" fill="undefined"/>
<path style="fill:#151302;fill-opacity:1" d="M 14 31 L 13 31 L 13 30 L 14 30 L 14 31 " stroke-width="1" fill="undefined"/>
<path style="fill:#353007;fill-opacity:1" d="M 16 28 L 15 28 L 15 27 L 16 27 L 16 28 " stroke-width="1" fill="undefined"/>
<path style="fill:#110F01;fill-opacity:1" d="M 17 25 L 17 26 L 16 26 L 16 25 L 17 25 " stroke-width="1" fill="undefined"/>
<path style="fill:#FFE821;fill-opacity:1" d="M 18 26 Q 18 26.5 17.75 26.75 L 17 27 L 17 26 L 18 26 M 14 31 L 15 31 Q 15 31.5 14.75 31.75 L 14 32 L 14 31 M 9 42 L 9 41 L 10 41 L 10 42 L 9 42 " stroke-width="1" fill="undefined"/>
<path style="fill:#9A8C15;fill-opacity:1" d="M 17 27 L 16 27 L 16 26 L 17 26 L 17 27 " stroke-width="1" fill="undefined"/>
<path style="fill:#F4DE20;fill-opacity:1" d="M 16 28 L 16 27 L 17 27 L 17 28 L 16 28 M 20 50 L 20 49 Q 20.5 49 20.75 49.25 Q 21 49.5 21 50 L 20 50 M 23 50 L 23 49 L 24 49 L 24 50 L 23 50 " stroke-width="1" fill="undefined"/>
<path style="fill:#D6C21D;fill-opacity:1" d="M 18 25 L 18 26 L 17 26 L 17 25 L 18 25 " stroke-width="1" fill="undefined"/>
<path style="fill:#FCE520;fill-opacity:1" d="M 17 28 L 16.75 28.75 L 16 29 L 16 28 L 17 28 M 12 35 L 12 34 L 13 34 L 12.8 34.9 L 12 36 L 12 35 " stroke-width="1" fill="undefined"/>
<path style="fill:#000000;fill-opacity:0.364706" d="M 40.95 21 L 40.95 20 L 41.7 20.25 L 41.95 21 L 40.95 21 M 57.95 49 L 57.7 49.75 L 56.95 50 L 56.95 49 L 57.95 49 M 0 32 L 0 31 L 1 31 L 1 32 L 0 32 " stroke-width="1" fill="undefined"/>
<path style="fill:#000000;fill-opacity:0.141176" d="M 1 32 L 1 33 L 0.25 32.75 L 0 32 L 1 32 " stroke-width="1" fill="undefined"/>
<path style="fill:#000000;fill-opacity:0.054902" d="M 1 40 L 0.4 39.8 Q 0 39 0 38 L 1 38 L 1 39 L 1 40 M 3 31 L 3 30 Q 3.5 30 3.75 30.25 Q 4 30.5 4 31 L 3 31 M 7 41 L 6 41 L 6 40 L 7 40 L 7 41 " stroke-width="1" fill="undefined"/>
<path style="fill:#ECCD1D;fill-opacity:1" d="M 21 33 L 21 32 L 22 32 L 22 33 L 21 33 M 31 34 L 31 33 Q 31.5 33 31.75 33.25 L 32 34 L 31 34 M 33 35 L 33 34 L 33.75 34.25 L 34 35 L 33 35 " stroke-width="1" fill="undefined"/>
<path style="fill:#867A12;fill-opacity:1" d="M 14 31 L 14 32 L 13 32 L 13 31 L 14 31 " stroke-width="1" fill="undefined"/>
<path style="fill:#000000;fill-opacity:0.2" d="M 30 0 L 30.75 0.25 L 31 1 L 30 1 L 30 0 M 1 38 L 2 38 L 2 39 L 1 39 L 1 38 M 12 32 L 11 32 L 11 31 L 12 31 L 12 32 " stroke-width="1" fill="undefined"/>
<path style="fill:#000000;fill-opacity:0.658824" d="M 55.95 45 L 55.95 44 L 56.95 44 L 56.95 45 L 55.95 45 M 4 31 L 4 32 L 3.25 31.75 L 3 31 L 4 31 M 12 33 L 11 33 L 11 32 L 12 32 L 12 33 " stroke-width="1" fill="undefined"/>
<path style="fill:#000000;fill-opacity:0.992157" d="M 11 33 L 12 33 L 12 34 L 11 34 L 11 33 " stroke-width="1" fill="undefined"/>
<path style="fill:#211F05;fill-opacity:1" d="M 12 33 L 12 32 L 13 32 L 13 33 L 12 33 " stroke-width="1" fill="undefined"/>
<path style="fill:#9C8D15;fill-opacity:1" d="M 12 33 L 13 33 L 13 34 L 12 34 L 12 33 " stroke-width="1" fill="undefined"/>
<path style="fill:#3D3708;fill-opacity:1" d="M 11 35 L 11 34 L 12 34 L 12 35 L 11 35 M 26 38 L 26 37 L 27 37 L 27 38 L 26 38 " stroke-width="1" fill="undefined"/>
<path style="fill:#AA9B17;fill-opacity:1" d="M 12 35 L 12 36 L 11 36 L 11 35 L 12 35 " stroke-width="1" fill="undefined"/>
<path style="fill:#FCE521;fill-opacity:1" d="M 10 40 L 10 39 L 10 38 L 11 38 L 11 37 L 11 36 L 12 36 L 11.8 36.9 L 11 38 L 11 39 L 11 40 L 10 40 M 46.95 32 L 46.2 31.75 L 45.95 31 L 46.95 31 L 46.95 32 " stroke-width="1" fill="undefined"/>
<path style="fill:#000000;fill-opacity:0.694118" d="M 24 2 L 23 2 L 23 1 L 24 1 L 24 2 M 23 54 L 22 54 L 21 54 L 21 53 L 22 53 L 23 53 L 23 54 M 11 34 L 10.25 33.75 L 10 33 L 11 33 L 11 34 " stroke-width="1" fill="undefined"/>
<path style="fill:#BAA819;fill-opacity:1" d="M 11 37 L 11 38 L 10 38 L 10 37 L 11 37 " stroke-width="1" fill="undefined"/>
<path style="fill:#524A0B;fill-opacity:1" d="M 10 37 L 10 36 L 11 36 L 11 37 L 10 37 " stroke-width="1" fill="undefined"/>
<path style="fill:#000000;fill-opacity:0.372549" d="M 32 4 L 32 3 L 32.75 3.25 L 33 4 L 32 4 M 56.95 47 L 56.95 46 L 57.95 46 L 57.95 47 L 56.95 47 M 42.95 54 L 41.95 54 L 41.95 53 L 42.95 53 L 42.95 54 M 9 32 L 9 31 L 10 31 L 10 32 L 9 32 " stroke-width="1" fill="undefined"/>
<path style="fill:#000000;fill-opacity:0.298039" d="M 2 39 L 2 38 L 3 38 L 3 39 L 2 39 M 7 32 L 7 33 L 6 33 L 6 32 L 7 32 " stroke-width="1" fill="undefined"/>
<path style="fill:#000000;fill-opacity:0.356863" d="M 6 33 L 7 33 L 7 34 L 6 34 L 6 33 " stroke-width="1" fill="undefined"/>
<path style="fill:#000000;fill-opacity:0.117647" d="M 25 2 L 25 1 L 25.75 1.25 L 26 2 L 25 2 M 37.95 17 L 37.95 16 L 38.7 16.25 L 38.95 17 L 37.95 17 M 6 32 L 6 31 L 7 31 L 7 32 L 6 32 " stroke-width="1" fill="undefined"/>
<path style="fill:#000000;fill-opacity:0.611765" d="M 6 34 L 5.25 33.75 L 5 33 L 6 33 L 6 34 M 23 11 L 24 11 L 24 12 L 23 12 L 23 11 " stroke-width="1" fill="undefined"/>
<path style="fill:#000000;fill-opacity:0.596078" d="M 3 38 L 4 38 Q 4 38.5 3.75 38.75 L 3 39 L 3 38 M 4 32 Q 4.5 32 4.75 32.25 Q 5 32.5 5 33 L 4.25 32.75 L 4 32 " stroke-width="1" fill="undefined"/>
<path style="fill:#000000;fill-opacity:0.690196" d="M 42.95 24 L 42.95 23 L 43.95 23 L 43.95 24 L 42.95 24 M 1 34 L 1 33 Q 1.5 33 1.75 33.25 Q 2 33.5 2 34 L 1 34 " stroke-width="1" fill="undefined"/>
<path style="fill:#000000;fill-opacity:0.254902" d="M 31 2 L 31 1 L 31.75 1.25 L 32 2 L 31 2 M 7 42 L 6 42 L 6 41 L 7 41 L 7 42 M 2 34 L 2 35 L 1.25 34.75 L 1 34 L 2 34 " stroke-width="1" fill="undefined"/>
<path style="fill:#000000;fill-opacity:0.462745" d="M 3 36 L 2.25 35.75 L 2 35 Q 2.5 35 2.75 35.25 Q 3 35.5 3 36 " stroke-width="1" fill="undefined"/>
<path style="fill:#000000;fill-opacity:0.415686" d="M 4 37 L 3.25 36.75 L 3 36 L 4 36 L 4 37 " stroke-width="1" fill="undefined"/>
<path style="fill:#000000;fill-opacity:0.552941" d="M 5 37 L 4.75 37.75 L 4 38 L 4 37 L 5 37 " stroke-width="1" fill="undefined"/>
<path style="fill:#000000;fill-opacity:0.219608" d="M 34 13 L 34 12 L 34.75 12.25 L 34.95 13 L 34 13 M 4 41 L 3.25 40.75 L 3 40 L 4 40 L 4 41 " stroke-width="1" fill="undefined"/>
<path style="fill:#000000;fill-opacity:0.239216" d="M 6 41 L 5 41 L 5 40 L 6 40 L 6 41 " stroke-width="1" fill="undefined"/>
<path style="fill:#49420A;fill-opacity:1" d="M 9 39 L 9 38 L 10 38 L 10 39 L 9 39 M 34.95 43 L 34 43 L 34 42 L 34.95 42 L 34.95 43 " stroke-width="1" fill="undefined"/>
<path style="fill:#B1A018;fill-opacity:1" d="M 9 40 L 9 39 L 10 39 L 10 40 L 9 40 " stroke-width="1" fill="undefined"/>
<path style="fill:#000000;fill-opacity:0.890196" d="M 7 40 L 6 40 L 6 39 Q 7 39 7.8 39.4 L 8 40 L 7 40 M 35.95 16 L 35.95 15 L 36.95 15 L 36.95 16 L 35.95 16 " stroke-width="1" fill="undefined"/>
<path style="fill:#393408;fill-opacity:1" d="M 9 41 L 8 41 L 8 40 L 9 40 L 9 41 " stroke-width="1" fill="undefined"/>
<path style="fill:#000000;fill-opacity:0.776471" d="M 33 4 L 33 5 L 32 5 L 32 4 L 33 4 M 14 52 L 14 53 L 13 53 L 13 52 L 14 52 M 7 41 L 7 40 L 8 40 L 8 41 L 7 41 " stroke-width="1" fill="undefined"/>
<path style="fill:#000000;fill-opacity:0.784314" d="M 7 43 L 6 43 L 6 42 L 7 42 L 7 43 " stroke-width="1" fill="undefined"/>
<path style="fill:#171502;fill-opacity:1" d="M 7 42 L 8 42 L 8 43 L 7 43 L 7 42 " stroke-width="1" fill="undefined"/>
<path style="fill:#A09216;fill-opacity:1" d="M 9 42 L 8 42 L 8 41 L 9 41 L 9 42 " stroke-width="1" fill="undefined"/>
<path style="fill:#F4DE1F;fill-opacity:1" d="M 9 41 L 9 40 L 10 40 L 11 40 L 10.75 40.75 L 10 41 L 9 41 " stroke-width="1" fill="undefined"/>
<path style="fill:#F5DE1F;fill-opacity:1" d="M 9 45 L 9 44 L 9 43 L 9 42 L 10 42 L 10.1 42.95 Q 10.65 45.65 9 46 L 9 45 M 11 48 L 11 47 Q 11.5 47 11.75 47.25 Q 12 47.5 12 48 L 11 48 " stroke-width="1" fill="undefined"/>
<path style="fill:#D5C01C;fill-opacity:1" d="M 9 43 L 8 43 L 8 42 L 9 42 L 9 43 " stroke-width="1" fill="undefined"/>
<path style="fill:#E9D41F;fill-opacity:1" d="M 8 44 L 8 43 L 9 43 L 9 44 L 8 44 M 54.95 49 L 53.95 49 L 53.95 48 L 54.95 48 L 54.95 49 " stroke-width="1" fill="undefined"/>
<path style="fill:#E4CF1E;fill-opacity:1" d="M 8 45 L 8 44 L 9 44 L 9 45 L 8 45 " stroke-width="1" fill="undefined"/>
<path style="fill:#685F0E;fill-opacity:1" d="M 8 43 L 8 44 L 7 44 L 7 43 L 8 43 " stroke-width="1" fill="undefined"/>
<path style="fill:#000000;fill-opacity:0.156863" d="M 5 44 L 5 43 L 6 43 L 6 44 L 5 44 " stroke-width="1" fill="undefined"/>
<path style="fill:#282305;fill-opacity:1" d="M 7 46 L 6 46 L 6 45 L 7 45 L 7 46 " stroke-width="1" fill="undefined"/>
<path style="fill:#000000;fill-opacity:0.556863" d="M 6 44 L 6 45 L 5 45 L 5 44 L 6 44 " stroke-width="1" fill="undefined"/>
<path style="fill:#9B8D15;fill-opacity:1" d="M 7 45 L 7 44 L 8 44 L 8 45 L 7 45 M 50.95 42 L 50.95 41 Q 51.45 41 51.7 41.25 L 51.95 42 L 50.95 42 M 52.95 44 L 52.95 43 L 53.95 43 L 53.95 44 L 52.95 44 " stroke-width="1" fill="undefined"/>
<path style="fill:#BAAA19;fill-opacity:1" d="M 8 46 L 7 46 L 7 45 L 8 45 L 8 46 " stroke-width="1" fill="undefined"/>
<path style="fill:#61580D;fill-opacity:1" d="M 6 46 L 7 46 L 7 47 L 6 47 L 6 46 " stroke-width="1" fill="undefined"/>
<path style="fill:#847812;fill-opacity:1" d="M 6 48 L 6 47 L 7 47 L 7 48 L 6 48 " stroke-width="1" fill="undefined"/>
<path style="fill:#C5B31A;fill-opacity:1" d="M 8 47 L 8 48 L 7 48 L 7 47 L 7 46 L 8 46 L 9 46 L 9 47 L 8 47 " stroke-width="1" fill="undefined"/>
<path style="fill:#322E07;fill-opacity:1" d="M 6.25 48.75 L 6 48 L 7 48 L 7 49 L 6.25 48.75 " stroke-width="1" fill="undefined"/>
<path style="fill:#B8A719;fill-opacity:1" d="M 8 48 L 8 47 L 9 47 L 9 48 L 8 48 " stroke-width="1" fill="undefined"/>
<path style="fill:#B8A818;fill-opacity:1" d="M 8 49 L 7 49 L 7 48 L 8 48 L 8 49 " stroke-width="1" fill="undefined"/>
<path style="fill:#CDBA1B;fill-opacity:1" d="M 9 48 L 9 47 Q 9.5 47 9.75 47.25 Q 10 47.5 10 48 L 9 48 " stroke-width="1" fill="undefined"/>
<path style="fill:#BAA919;fill-opacity:1" d="M 9 50 L 9 49 L 9 48 L 10 48 L 10 49 L 10 50 L 9 50 " stroke-width="1" fill="undefined"/>
<path style="fill:#000000;fill-opacity:0.909804" d="M 6 45 L 6 46 L 5 46 L 5 45 L 6 45 " stroke-width="1" fill="undefined"/>
<path style="fill:#D8C31D;fill-opacity:1" d="M 15 50 L 15 49 L 16 49 L 16 50 L 15 50 M 8 45 L 9 45 L 9 46 L 8 46 L 8 45 " stroke-width="1" fill="undefined"/>
<path style="fill:#C9B51B;fill-opacity:1" d="M 8 49 L 8 48 L 9 48 L 9 49 L 8 49 " stroke-width="1" fill="undefined"/>
<path style="fill:#000000;fill-opacity:0.0470588" d="M 10 53 L 9.25 52.75 L 9 52 L 10 52 L 10 53 M 5 46 L 4 46 L 4 45 L 5 45 L 5 46 " stroke-width="1" fill="undefined"/>
<path style="fill:#000000;fill-opacity:0.478431" d="M 5 47 L 5 48 L 4 48 L 4 47 L 5 47 " stroke-width="1" fill="undefined"/>
<path style="fill:#000000;fill-opacity:0.686275" d="M 4 49 L 4 48 L 5 48 L 5 49 L 4 49 " stroke-width="1" fill="undefined"/>
<path style="fill:#000000;fill-opacity:0.368627" d="M 5 49 L 5 50 L 4.25 49.75 L 4 49 L 5 49 " stroke-width="1" fill="undefined"/>
<path style="fill:#59510C;fill-opacity:1" d="M 11 51 L 10 51 L 10 50 L 11 50 L 11 51 M 43.95 26 L 44.95 26 L 44.95 27 L 43.95 27 L 43.95 26 " stroke-width="1" fill="undefined"/>
<path style="fill:#211F04;fill-opacity:1" d="M 9 51 L 9 50 L 10 50 L 10 51 L 9 51 " stroke-width="1" fill="undefined"/>
<path style="fill:#C2B01A;fill-opacity:1" d="M 13 49 L 14 49 L 14 50 L 13 50 L 12 50 L 11 50 L 10 50 L 10 49 L 10 48 L 11 48 L 11.25 48.75 L 12 49 L 13 49 M 28 13 L 27 13 L 27 12 L 28 12 L 28 13 " stroke-width="1" fill="undefined"/>
<path style="fill:#000000;fill-opacity:0.878431" d="M 9 51 L 10 51 L 10 52 L 9 52 L 9 51 " stroke-width="1" fill="undefined"/>
<path style="fill:#817511;fill-opacity:1" d="M 8 50 L 8 49 L 9 49 L 9 50 L 8 50 " stroke-width="1" fill="undefined"/>
<path style="fill:#2C2806;fill-opacity:1" d="M 8 50 L 7 50 L 7 49 L 8 49 L 8 50 " stroke-width="1" fill="undefined"/>
<path style="fill:#000000;fill-opacity:0.815686" d="M 6 50 L 7 50 L 7 51 L 6 51 L 6 50 " stroke-width="1" fill="undefined"/>
<path style="fill:#000000;fill-opacity:0.384314" d="M 8 52 L 7.25 51.75 L 7 51 L 8 51 L 8 52 " stroke-width="1" fill="undefined"/>
<path style="fill:#000000;fill-opacity:0.25098" d="M 32 11 L 32 10 L 33 10 L 33 11 L 32 11 M 11 53 L 10 53 L 10 52 L 11 52 L 11 53 " stroke-width="1" fill="undefined"/>
<path style="fill:#000000;fill-opacity:0.717647" d="M 8 51 L 9 51 L 9 52 L 8 52 L 8 51 " stroke-width="1" fill="undefined"/>
<path style="fill:#E3CF1E;fill-opacity:1" d="M 12 49 L 12 48 Q 12.5 48 12.75 48.25 Q 13 48.5 13 49 L 12 49 " stroke-width="1" fill="undefined"/>
<path style="fill:#D3BF1C;fill-opacity:1" d="M 12 48 L 12 49 L 11.25 48.75 L 11 48 L 12 48 " stroke-width="1" fill="undefined"/>
<path style="fill:#C3B11A;fill-opacity:1" d="M 16 50 L 17 50 L 18 50 L 19 50 L 19 51 L 18 51 L 17 51 L 16 51 L 15 51 L 14 51 L 14 50 L 15 50 L 16 50 M 50.95 38 L 50.95 37 L 51.95 37 L 51.95 38 L 50.95 38 " stroke-width="1" fill="undefined"/>
<path style="fill:#BCAA19;fill-opacity:1" d="M 13 51 L 13 50 L 14 50 L 14 51 L 13 51 " stroke-width="1" fill="undefined"/>
<path style="fill:#49430A;fill-opacity:1" d="M 15 52 L 14 52 L 14 51 L 15 51 L 15 52 " stroke-width="1" fill="undefined"/>
<path style="fill:#D1BC1C;fill-opacity:1" d="M 15 50 L 14 50 L 14 49 L 15 49 L 15 50 " stroke-width="1" fill="undefined"/>
<path style="fill:#A39416;fill-opacity:1" d="M 13 51 L 12 51 L 12 50 L 13 50 L 13 51 " stroke-width="1" fill="undefined"/>
<path style="fill:#7C7011;fill-opacity:1" d="M 12 51 L 11 51 L 11 50 L 12 50 L 12 51 " stroke-width="1" fill="undefined"/>
<path style="fill:#060600;fill-opacity:1" d="M 13 52 L 12 52 L 12 51 L 13 51 L 13 52 " stroke-width="1" fill="undefined"/>
<path style="fill:#000000;fill-opacity:0.682353" d="M 48.95 52 L 48.95 53 L 47.95 53 L 47.95 52 L 48.95 52 M 13 53 L 12 53 L 12 52 L 13 52 L 13 53 " stroke-width="1" fill="undefined"/>
<path style="fill:#000000;fill-opacity:0.937255" d="M 16 52 L 16 53 L 15 53 L 15 52 L 16 52 M 34 13 L 34.95 13 L 34.95 14 L 34 14 L 34 13 " stroke-width="1" fill="undefined"/>
<path style="fill:#000000;fill-opacity:0.0941176" d="M 16 54 L 15.25 53.75 L 15 53 L 16 53 L 16 54 " stroke-width="1" fill="undefined"/>
<path style="fill:#252105;fill-opacity:1" d="M 13 52 L 13 51 L 14 51 L 14 52 L 13 52 " stroke-width="1" fill="undefined"/>
<path style="fill:#6D630E;fill-opacity:1" d="M 16 52 L 15 52 L 15 51 L 16 51 L 16 52 " stroke-width="1" fill="undefined"/>
<path style="fill:#D4BF18;fill-opacity:1" d="M 20 50 L 21 50 L 22 50 L 22 51 L 21 51 L 20 51 L 20 50 " stroke-width="1" fill="undefined"/>
<path style="fill:#AC9E2A;fill-opacity:1" d="M 20 51 L 21 51 L 21 52 L 20 52 L 20 51 " stroke-width="1" fill="undefined"/>
<path style="fill:#CEBA1C;fill-opacity:1" d="M 20 51 L 19 51 L 19 50 L 20 50 L 20 51 " stroke-width="1" fill="undefined"/>
<path style="fill:#A09113;fill-opacity:1" d="M 20 52 L 19 52 L 19 51 L 20 51 L 20 52 " stroke-width="1" fill="undefined"/>
<path style="fill:#E8D31F;fill-opacity:1" d="M 17 50 L 17 49 Q 17.5 49 17.75 49.25 Q 18 49.5 18 50 L 17 50 " stroke-width="1" fill="undefined"/>
<path style="fill:#DFCB1E;fill-opacity:1" d="M 17 50 L 16 50 L 16 49 L 17 49 L 17 50 M 27 14 L 26 14 L 26 13 L 27 13 L 27 14 " stroke-width="1" fill="undefined"/>
<path style="fill:#827612;fill-opacity:1" d="M 17 52 L 16 52 L 16 51 L 17 51 L 17 52 " stroke-width="1" fill="undefined"/>
<path style="fill:#8D8013;fill-opacity:1" d="M 26 37 L 26 36 L 27 36 L 27 37 L 26 37 M 18 52 L 17 52 L 17 51 L 18 51 L 18 52 " stroke-width="1" fill="undefined"/>
<path style="fill:#000000;fill-opacity:0.337255" d="M 18 54 L 17 54 L 17 53 L 18 53 L 18 54 " stroke-width="1" fill="undefined"/>
<path style="fill:#1E1F25;fill-opacity:1" d="M 22 52 L 22 53 L 21 53 L 21 52 L 22 52 " stroke-width="1" fill="undefined"/>
<path style="fill:#111111;fill-opacity:1" d="M 20 53 L 20 52 L 21 52 L 21 53 L 20 53 " stroke-width="1" fill="undefined"/>
<path style="fill:#000000;fill-opacity:0.541176" d="M 20 54 L 19 54 L 19 53 L 20 53 L 20 54 " stroke-width="1" fill="undefined"/>
<path style="fill:#998B15;fill-opacity:1" d="M 19 52 L 18 52 L 18 51 L 19 51 L 19 52 " stroke-width="1" fill="undefined"/>
<path style="fill:#BDB78C;fill-opacity:1" d="M 22 52 L 21 52 L 21 51 L 22 51 L 22 52 " stroke-width="1" fill="undefined"/>
<path style="fill:#000000;fill-opacity:0.458824" d="M 1 30 L 1 31 L 0 31 L 0 30 L 1 30 " stroke-width="1" fill="undefined"/>
<path style="fill:#000000;fill-opacity:0.47451" d="M 25 2 L 24 2 L 24 1 L 25 1 L 25 2 M 41.95 54 L 40.95 54 L 40.95 53 L 41.95 53 L 41.95 54 " stroke-width="1" fill="undefined"/>
<path style="fill:#000000;fill-opacity:0.933333" d="M 26 3 L 25.25 2.75 L 25 2 L 26 2 L 26 3 M 25 14 L 24 14 L 24 13 L 25 13 L 25 14 " stroke-width="1" fill="undefined"/>
<path style="fill:#000000;fill-opacity:0.831373" d="M 23 2 L 22 2 L 22 1 L 23 1 L 23 2 " stroke-width="1" fill="undefined"/>
<path style="fill:#000000;fill-opacity:0.607843" d="M 22 4 L 22.75 4.25 L 23 5 L 22 5 L 22 4 " stroke-width="1" fill="undefined"/>
<path style="fill:#000000;fill-opacity:0.0862745" d="M 22 5 L 21.25 4.75 L 21 4 L 22 4 L 22 5 " stroke-width="1" fill="undefined"/>
<path style="fill:#000000;fill-opacity:0.407843" d="M 23 6 L 23 5 L 23.75 5.25 Q 24 5.5 24 6 L 23 6 " stroke-width="1" fill="undefined"/>
<path style="fill:#000000;fill-opacity:0.643137" d="M 27 3 L 26 3 L 26 2 L 27 2 L 27 3 " stroke-width="1" fill="undefined"/>
<path style="fill:#000000;fill-opacity:0.823529" d="M 31 3 L 31 4 L 30 4 L 30 3 L 30 2 L 30 1 L 31 1 L 31 2 L 31 3 " stroke-width="1" fill="undefined"/>
<path style="fill:#000000;fill-opacity:0.0627451" d="M 30 1 L 30 2 Q 29.5 2 29.4 1.8 Q 29 1 29 0 L 30 0 L 30 1 M 38.95 18 L 38.95 17 L 39.7 17.25 L 39.95 18 L 38.95 18 " stroke-width="1" fill="undefined"/>
<path style="fill:#000000;fill-opacity:0.176471" d="M 27 2 L 27.75 2.25 Q 28 2.5 28 3 L 27 3 L 27 2 " stroke-width="1" fill="undefined"/>
<path style="fill:#000000;fill-opacity:0.419608" d="M 28 3 L 28.75 3.25 L 29 4 L 28 4 L 28 3 " stroke-width="1" fill="undefined"/>
<path style="fill:#000000;fill-opacity:0.941176" d="M 28 3 L 28 4 L 27.25 3.75 L 27 3 L 28 3 " stroke-width="1" fill="undefined"/>
<path style="fill:#000000;fill-opacity:0.701961" d="M 30 5 Q 29.5 5 29.25 4.75 Q 29 4.5 29 4 L 30 4 L 30 5 " stroke-width="1" fill="undefined"/>
<path style="fill:#000000;fill-opacity:0.894118" d="M 31 2 L 32 2 L 32 3 L 31 3 L 31 2 " stroke-width="1" fill="undefined"/>
<path style="fill:#000000;fill-opacity:0.898039" d="M 32 6 L 32 5 L 33 5 L 33 6 L 32 6 M 45.95 52 L 45.95 53 L 44.95 53 L 44.95 52 L 45.95 52 " stroke-width="1" fill="undefined"/>
<path style="fill:#000000;fill-opacity:0.0431373" d="M 33 6 L 33 5 L 33.75 5.25 L 34 6 L 33 6 " stroke-width="1" fill="undefined"/>
<path style="fill:#000000;fill-opacity:0.180392" d="M 41.95 22 L 41.95 21 L 42.7 21.25 L 42.95 22 L 41.95 22 " stroke-width="1" fill="undefined"/>
<path style="fill:#000000;fill-opacity:0.980392" d="M 40.95 21 L 41.95 21 L 41.95 22 L 40.95 22 L 40.95 21 " stroke-width="1" fill="undefined"/>
<path style="fill:#282405;fill-opacity:1" d="M 42.95 23 L 42.95 24 L 41.95 24 L 41.95 23 L 42.95 23 " stroke-width="1" fill="undefined"/>
<path style="fill:#ECD71F;fill-opacity:1" d="M 40.95 23 L 41.95 23 L 41.95 24 L 40.95 24 L 40.95 23 " stroke-width="1" fill="undefined"/>
<path style="fill:#CAB61B;fill-opacity:1" d="M 42.95 25 L 41.95 25 L 41.95 24 L 42.95 24 L 42.95 25 " stroke-width="1" fill="undefined"/>
<path style="fill:#000000;fill-opacity:0.854902" d="M 41.95 22 L 42.95 22 L 42.95 23 L 41.95 23 L 41.95 22 " stroke-width="1" fill="undefined"/>
<path style="fill:#4F480B;fill-opacity:1" d="M 40.95 23 L 40.95 22 L 41.95 22 L 41.95 23 L 40.95 23 " stroke-width="1" fill="undefined"/>
<path style="fill:#070600;fill-opacity:1" d="M 42.95 24 L 43.95 24 L 43.95 25 L 42.95 25 L 42.95 24 " stroke-width="1" fill="undefined"/>
<path style="fill:#000000;fill-opacity:0.454902" d="M 43.95 25 L 43.95 24 L 44.7 24.25 L 44.95 25 L 43.95 25 " stroke-width="1" fill="undefined"/>
<path style="fill:#000000;fill-opacity:0.976471" d="M 43.95 25 L 44.95 25 L 44.95 26 L 43.95 26 L 43.95 25 " stroke-width="1" fill="undefined"/>
<path style="fill:#E7D21F;fill-opacity:1" d="M 44.95 28 L 43.95 28 L 43.95 27 L 44.95 27 L 44.95 28 " stroke-width="1" fill="undefined"/>
<path style="fill:#FFEA21;fill-opacity:1" d="M 42.95 27 L 42.95 26 L 43.95 26 L 43.95 27 L 42.95 27 M 24 17 Q 24 17.5 23.75 17.75 Q 23.5 18 23 18 L 23 17 L 24 17 M 54.95 46 L 54.95 47 L 54.95 48 L 53.95 48 L 53.95 47 L 53.95 46 L 54.95 46 " stroke-width="1" fill="undefined"/>
<path style="fill:#000000;fill-opacity:0.85098" d="M 44.95 27 L 44.95 26 L 45.95 26 L 45.95 27 L 44.95 27 " stroke-width="1" fill="undefined"/>
<path style="fill:#000000;fill-opacity:0.101961" d="M 45.95 27 L 45.95 26 L 46.7 26.25 L 46.95 27 L 45.95 27 M 50.95 52 L 51.95 52 L 51.7 52.75 L 50.95 53 L 50.95 52 " stroke-width="1" fill="undefined"/>
<path style="fill:#8E8113;fill-opacity:1" d="M 43.95 25 L 43.95 26 L 42.95 26 L 42.95 25 L 43.95 25 " stroke-width="1" fill="undefined"/>
<path style="fill:#1F1C04;fill-opacity:1" d="M 25 15 L 24 15 L 24 14 L 25 14 L 25 15 M 44.95 28 L 44.95 27 L 45.95 27 L 45.95 28 L 44.95 28 " stroke-width="1" fill="undefined"/>
<path style="fill:#FEE721;fill-opacity:1" d="M 44.95 29 L 44.2 28.75 Q 43.95 28.5 43.95 28 L 44.95 28 L 44.95 29 M 42.95 25 L 42.95 26 L 42.2 25.75 Q 41.95 25.5 41.95 25 L 42.95 25 " stroke-width="1" fill="undefined"/>
<path style="fill:#756B10;fill-opacity:1" d="M 46.95 29 L 46.95 30 L 45.95 30 L 45.95 29 L 46.95 29 " stroke-width="1" fill="undefined"/>
<path style="fill:#FFED22;fill-opacity:1" d="M 45.95 29 L 45.95 30 L 45.2 29.75 Q 44.95 29.5 44.95 29 L 45.95 29 " stroke-width="1" fill="undefined"/>
<path style="fill:#B0A017;fill-opacity:1" d="M 45.95 29 L 44.95 29 L 44.95 28 L 45.95 28 L 45.95 29 " stroke-width="1" fill="undefined"/>
<path style="fill:#0A0900;fill-opacity:1" d="M 45.95 29 L 45.95 28 L 46.95 28 L 46.95 29 L 45.95 29 " stroke-width="1" fill="undefined"/>
<path style="fill:#F6E020;fill-opacity:1" d="M 43.95 27 L 43.95 28 L 43.2 27.75 L 42.95 27 L 43.95 27 " stroke-width="1" fill="undefined"/>
<path style="fill:#000000;fill-opacity:0.121569" d="M 47.95 30 L 47.95 29 Q 48.45 29 48.7 29.25 L 48.95 30 L 47.95 30 " stroke-width="1" fill="undefined"/>
<path style="fill:#000000;fill-opacity:0.929412" d="M 46.95 30 L 46.95 29 L 47.95 29 L 47.95 30 L 46.95 30 M 55.95 46 L 55.95 45 L 56.95 45 L 56.95 46 L 55.95 46 " stroke-width="1" fill="undefined"/>
<path style="fill:#000000;fill-opacity:0.403922" d="M 46.95 29 L 46.95 28 L 47.7 28.25 L 47.95 29 L 46.95 29 " stroke-width="1" fill="undefined"/>
<path style="fill:#383208;fill-opacity:1" d="M 46.95 31 L 46.95 30 L 47.95 30 L 47.95 31 L 46.95 31 " stroke-width="1" fill="undefined"/>
<path style="fill:#FBE421;fill-opacity:1" d="M 41.95 24 L 41.95 25 Q 41.45 25 41.2 24.75 Q 40.95 24.5 40.95 24 L 41.95 24 " stroke-width="1" fill="undefined"/>
<path style="fill:#000000;fill-opacity:0.0823529" d="M 33 8 L 33 7 L 33 6 L 34 6 L 34.1 6.95 Q 34.6 9.1 33 9 L 33 8 M 55.95 34 L 55.95 33 Q 57.6 32.85 56.6 34.8 L 55.95 35 L 55.95 34 " stroke-width="1" fill="undefined"/>
<path style="fill:#000000;fill-opacity:0.952941" d="M 33 7 Q 32.5 7 32.25 6.75 Q 32 6.5 32 6 L 33 6 L 33 7 " stroke-width="1" fill="undefined"/>
<path style="fill:#000000;fill-opacity:0.764706" d="M 32 10 L 32 9 L 33 9 L 33 10 L 32 10 " stroke-width="1" fill="undefined"/>
<path style="fill:#000000;fill-opacity:0.772549" d="M 32 12 L 32 11 L 33 11 L 33 12 L 32 12 M 37.95 18 L 37.95 17 L 38.95 17 L 38.95 18 L 37.95 18 " stroke-width="1" fill="undefined"/>
<path style="fill:#000000;fill-opacity:0.905882" d="M 33 13 L 33 12 L 34 12 L 34 13 L 33 13 " stroke-width="1" fill="undefined"/>
<path style="fill:#433D01;fill-opacity:1" d="M 34 15 L 34 14 L 34.95 14 L 34.95 15 L 34 15 " stroke-width="1" fill="undefined"/>
<path style="fill:#000000;fill-opacity:0.270588" d="M 34.95 14 L 34.95 13 L 35.7 13.25 L 35.95 14 L 34.95 14 " stroke-width="1" fill="undefined"/>
<path style="fill:#3C3501;fill-opacity:1" d="M 33 14 L 33 13 L 34 13 L 34 14 L 33 14 " stroke-width="1" fill="undefined"/>
<path style="fill:#DFCD27;fill-opacity:1" d="M 33 13 L 33 14 L 32 14 L 32 13 L 33 13 " stroke-width="1" fill="undefined"/>
<path style="fill:#FFF987;fill-opacity:1" d="M 32 14 L 33 14 L 33 15 L 32 15 L 32 14 " stroke-width="1" fill="undefined"/>
<path style="fill:#FFFA75;fill-opacity:1" d="M 31 14 L 31 13 L 32 13 L 32 14 L 31 14 " stroke-width="1" fill="undefined"/>
<path style="fill:#1F1D01;fill-opacity:1" d="M 33 13 L 32 13 L 32 12 L 33 12 L 33 13 " stroke-width="1" fill="undefined"/>
<path style="fill:#B7A614;fill-opacity:1" d="M 31 13 L 31 12 L 32 12 L 32 13 L 31 13 " stroke-width="1" fill="undefined"/>
<path style="fill:#FFFA94;fill-opacity:1" d="M 34 15 L 34 16 L 33 16 L 33 15 L 34 15 " stroke-width="1" fill="undefined"/>
<path style="fill:#FFF69F;fill-opacity:1" d="M 33 15 L 33 16 L 32 16 L 32 15 L 33 15 " stroke-width="1" fill="undefined"/>
<path style="fill:#FCEE78;fill-opacity:1" d="M 31 16 L 31 15 L 32 15 L 32 16 L 31 16 " stroke-width="1" fill="undefined"/>
<path style="fill:#F3DE2E;fill-opacity:1" d="M 32 16 L 32 17 Q 31.5 17 31.25 16.75 Q 31 16.5 31 16 L 32 16 " stroke-width="1" fill="undefined"/>
<path style="fill:#F6E346;fill-opacity:1" d="M 33 17 L 33 18 Q 32.5 18 32.25 17.75 Q 32 17.5 32 17 L 33 17 " stroke-width="1" fill="undefined"/>
<path style="fill:#FEF390;fill-opacity:1" d="M 32 17 L 32 16 L 33 16 L 33 17 L 32 17 " stroke-width="1" fill="undefined"/>
<path style="fill:#FFF599;fill-opacity:1" d="M 34.95 16 L 34.95 17 Q 34.95 17.5 35.2 17.75 Q 35.45 18 35.95 18 Q 35.95 18.5 36.2 18.75 Q 36.45 19 36.95 19 Q 36.95 19.5 37.2 19.75 Q 37.45 20 37.95 20 L 37.95 21 L 36.95 21 L 35.95 21 L 35.7 20.25 L 34.95 20 L 34.75 19.25 L 34 19 L 33.75 18.25 L 33 18 L 33 17 L 33 16 L 34 16 L 34.95 16 " stroke-width="1" fill="undefined"/>
<path style="fill:#4C4402;fill-opacity:1" d="M 34.95 16 L 34.95 15 L 35.95 15 L 35.95 16 L 34.95 16 " stroke-width="1" fill="undefined"/>
<path style="fill:#F2E342;fill-opacity:1" d="M 34 16 L 34 15 L 34.95 15 L 34.95 16 L 34 16 " stroke-width="1" fill="undefined"/>
<path style="fill:#3A3400;fill-opacity:1" d="M 35.95 17 L 35.95 16 L 36.95 16 L 36.95 17 L 35.95 17 " stroke-width="1" fill="undefined"/>
<path style="fill:#F1E141;fill-opacity:1" d="M 34.95 17 L 34.95 16 L 35.95 16 L 35.95 17 L 34.95 17 " stroke-width="1" fill="undefined"/>
<path style="fill:#FFFB94;fill-opacity:1" d="M 35.95 18 Q 35.45 18 35.2 17.75 Q 34.95 17.5 34.95 17 L 35.95 17 L 35.95 18 " stroke-width="1" fill="undefined"/>
<path style="fill:#FFF7A5;fill-opacity:1" d="M 32 14 L 32 15 L 31 15 L 31 14 L 32 14 " stroke-width="1" fill="undefined"/>
<path style="fill:#EEDD38;fill-opacity:1" d="M 34 14 L 34 15 L 33 15 L 33 14 L 34 14 " stroke-width="1" fill="undefined"/>
<path style="fill:#000000;fill-opacity:0.207843" d="M 36.95 16 L 36.95 15 L 37.7 15.25 L 37.95 16 L 36.95 16 " stroke-width="1" fill="undefined"/>
<path style="fill:#322C00;fill-opacity:1" d="M 36.95 18 L 36.95 17 L 37.95 17 L 37.95 18 L 36.95 18 " stroke-width="1" fill="undefined"/>
<path style="fill:#E5D538;fill-opacity:1" d="M 35.95 18 L 35.95 17 L 36.95 17 L 36.95 18 L 35.95 18 " stroke-width="1" fill="undefined"/>
<path style="fill:#5C530B;fill-opacity:1" d="M 30 11 L 30.75 11.25 L 31 12 L 30 12 L 30 11 " stroke-width="1" fill="undefined"/>
<path style="fill:#A99B17;fill-opacity:1" d="M 30 12 L 29 12 L 29 11 L 30 11 L 30 12 " stroke-width="1" fill="undefined"/>
<path style="fill:#756A10;fill-opacity:1" d="M 29 12 L 28 12 L 28 11 L 29 11 L 29 12 " stroke-width="1" fill="undefined"/>
<path style="fill:#060500;fill-opacity:1" d="M 28 12 L 27 12 L 27 11 L 28 11 L 28 12 " stroke-width="1" fill="undefined"/>
<path style="fill:#000000;fill-opacity:0.858824" d="M 24 6 Q 24.5 6.5 24.5 7 L 24 7 L 24 6 " stroke-width="1" fill="undefined"/>
<path style="fill:#000000;fill-opacity:0.713725" d="M 23 15 L 23 16 L 22 16 L 22 15 L 23 15 M 23 12 L 22 12 L 22 11 L 23 11 L 23 12 " stroke-width="1" fill="undefined"/>
<path style="fill:#000000;fill-opacity:0.705882" d="M 24 11 L 24.75 11.25 Q 25 11.5 25 12 L 24 12 L 24 11 " stroke-width="1" fill="undefined"/>
<path style="fill:#2D2A06;fill-opacity:1" d="M 26 14 L 25 14 L 25 13 L 26 13 L 26 14 " stroke-width="1" fill="undefined"/>
<path style="fill:#000000;fill-opacity:0.215686" d="M 25 12 L 25 13 L 24 13 L 24 12 L 25 12 " stroke-width="1" fill="undefined"/>
<path style="fill:#282306;fill-opacity:1" d="M 27 13 L 26 13 L 26 12 L 27 12 L 27 13 " stroke-width="1" fill="undefined"/>
<path style="fill:#D6C11D;fill-opacity:1" d="M 25 14 L 26 14 L 26 15 L 25 15 L 25 14 " stroke-width="1" fill="undefined"/>
<path style="fill:#000000;fill-opacity:0.160784" d="M 24 14 L 23 14 L 23 13 L 24 13 L 24 14 " stroke-width="1" fill="undefined"/>
<path style="fill:#040400;fill-opacity:1" d="M 23 17 L 22 17 L 22 16 L 23 16 L 23 17 " stroke-width="1" fill="undefined"/>
<path style="fill:#746A0F;fill-opacity:1" d="M 23 18 L 22 18 L 22 17 L 23 17 L 23 18 " stroke-width="1" fill="undefined"/>
<path style="fill:#0F0D01;fill-opacity:1" d="M 24 15 L 24 16 L 23 16 L 23 15 L 24 15 " stroke-width="1" fill="undefined"/>
<path style="fill:#A49516;fill-opacity:1" d="M 24 17 L 23 17 L 23 16 L 24 16 L 24 17 " stroke-width="1" fill="undefined"/>
<path style="fill:#FEE621;fill-opacity:1" d="M 26 15 Q 26 15.5 25.75 15.75 Q 25.5 16 25 16 L 25 15 L 26 15 " stroke-width="1" fill="undefined"/>
<path style="fill:#CCB81B;fill-opacity:1" d="M 25 15 L 25 16 L 24 16 L 24 15 L 25 15 " stroke-width="1" fill="undefined"/>
<path style="fill:#FDE620;fill-opacity:1" d="M 27 14 Q 27 14.5 26.75 14.75 Q 26.5 15 26 15 L 26 14 L 27 14 " stroke-width="1" fill="undefined"/>
<path style="fill:#FEE821;fill-opacity:1" d="M 30 12 L 31 12 L 31 13 L 30 13 L 29 13 L 28 13 L 28 12 L 29 12 L 30 12 " stroke-width="1" fill="undefined"/>
<path style="fill:#FBEB68;fill-opacity:1" d="M 31 14 L 30 14 L 30 13 L 31 13 L 31 14 " stroke-width="1" fill="undefined"/>
<path style="fill:#F7E651;fill-opacity:1" d="M 31 14 L 31 15 Q 30.5 15 30.25 14.75 Q 30 14.5 30 14 L 31 14 " stroke-width="1" fill="undefined"/>
<path style="fill:#FFE721;fill-opacity:1" d="M 28 13 Q 28 13.5 27.75 13.75 Q 27.5 14 27 14 L 27 13 L 28 13 " stroke-width="1" fill="undefined"/>
<path style="fill:#F9E220;fill-opacity:1" d="M 23 18 L 22.8 18.9 L 22 20 L 22 19 L 22 18 L 23 18 " stroke-width="1" fill="undefined"/>
<path style="fill:#D79613;fill-opacity:1" d="M 24 31 L 23 31 L 23 30 L 24 30 L 24 31 " stroke-width="1" fill="undefined"/>
<path style="fill:#CB770D;fill-opacity:1" d="M 25 31 L 24 31 L 24 30 L 25 30 L 25 31 " stroke-width="1" fill="undefined"/>
<path style="fill:#000000;fill-opacity:0.709804" d="M 38.95 19 L 38.95 18 L 39.95 18 L 39.95 19 L 38.95 19 " stroke-width="1" fill="undefined"/>
<path style="fill:#221F00;fill-opacity:1" d="M 37.95 19 L 37.95 18 L 38.95 18 L 38.95 19 L 37.95 19 " stroke-width="1" fill="undefined"/>
<path style="fill:#0C0B00;fill-opacity:1" d="M 38.95 20 L 38.95 19 L 39.95 19 L 39.95 20 L 38.95 20 " stroke-width="1" fill="undefined"/>
<path style="fill:#AA9A10;fill-opacity:1" d="M 38.95 21 L 38.95 20 L 39.95 20 L 39.95 21 L 38.95 21 " stroke-width="1" fill="undefined"/>
<path style="fill:#000000;fill-opacity:0.54902" d="M 39.95 20 L 39.95 19 L 40.7 19.25 L 40.95 20 L 39.95 20 " stroke-width="1" fill="undefined"/>
<path style="fill:#BEAD18;fill-opacity:1" d="M 37.95 20 L 37.95 19 L 38.95 19 L 38.95 20 L 37.95 20 " stroke-width="1" fill="undefined"/>
<path style="fill:#FFFB79;fill-opacity:1" d="M 37.95 20 Q 37.45 20 37.2 19.75 Q 36.95 19.5 36.95 19 L 37.95 19 L 37.95 20 " stroke-width="1" fill="undefined"/>
<path style="fill:#DBCA2D;fill-opacity:1" d="M 36.95 19 L 36.95 18 L 37.95 18 L 37.95 19 L 36.95 19 " stroke-width="1" fill="undefined"/>
<path style="fill:#FFFC8C;fill-opacity:1" d="M 36.95 19 Q 36.45 19 36.2 18.75 Q 35.95 18.5 35.95 18 L 36.95 18 L 36.95 19 " stroke-width="1" fill="undefined"/>
<path style="fill:#F3DE2C;fill-opacity:1" d="M 37.95 23 Q 37.45 23 37.2 22.75 Q 36.95 22.5 36.95 22 L 37.95 22 L 37.95 23 " stroke-width="1" fill="undefined"/>
<path style="fill:#FEF391;fill-opacity:1" d="M 36.95 21 L 37.95 21 L 38.95 21 L 38.95 22 L 37.95 22 L 36.95 22 L 36.95 21 " stroke-width="1" fill="undefined"/>
<path style="fill:#F5E343;fill-opacity:1" d="M 36.95 22 Q 36.45 22 36.2 21.75 Q 35.95 21.5 35.95 21 L 36.95 21 L 36.95 22 " stroke-width="1" fill="undefined"/>
<path style="fill:#F8E85F;fill-opacity:1" d="M 37.95 22 L 38.95 22 L 38.95 23 L 37.95 23 L 37.95 22 " stroke-width="1" fill="undefined"/>
<path style="fill:#81750F;fill-opacity:1" d="M 39.95 21 L 40.95 21 L 40.95 22 L 39.95 22 L 39.95 21 " stroke-width="1" fill="undefined"/>
<path style="fill:#FFEB2C;fill-opacity:1" d="M 38.95 21 L 39.95 21 L 39.95 22 L 38.95 22 L 38.95 21 " stroke-width="1" fill="undefined"/>
<path style="fill:#F6E131;fill-opacity:1" d="M 38.95 22 L 39.95 22 L 39.95 23 L 38.95 23 L 38.95 22 " stroke-width="1" fill="undefined"/>
<path style="fill:#F6E01F;fill-opacity:1" d="M 39.95 22 L 40.95 22 L 40.95 23 L 40.95 24 Q 40.45 24 40.2 23.75 Q 39.95 23.5 39.95 23 L 39.95 22 " stroke-width="1" fill="undefined"/>
<path style="fill:#FFF459;fill-opacity:1" d="M 37.95 21 L 37.95 20 L 38.95 20 L 38.95 21 L 37.95 21 " stroke-width="1" fill="undefined"/>
<path style="fill:#F7E652;fill-opacity:1" d="M 35.95 21 Q 35.45 21 35.2 20.75 Q 34.95 20.5 34.95 20 L 35.7 20.25 L 35.95 21 " stroke-width="1" fill="undefined"/>
<path style="fill:#F8E758;fill-opacity:1" d="M 34.95 20 Q 34.45 20 34.25 19.75 Q 34 19.5 34 19 L 34.75 19.25 L 34.95 20 " stroke-width="1" fill="undefined"/>
<path style="fill:#F7E653;fill-opacity:1" d="M 34 19 Q 33.5 19 33.25 18.75 Q 33 18.5 33 18 L 33.75 18.25 L 34 19 " stroke-width="1" fill="undefined"/>
<path style="fill:#EDCF1E;fill-opacity:1" d="M 34.95 36 L 34.95 35 L 35.7 35.25 L 35.95 36 L 34.95 36 M 36.95 37 L 36.95 36 L 37.7 36.25 L 37.95 37 L 36.95 37 " stroke-width="1" fill="undefined"/>
<path style="fill:#CE7F0E;fill-opacity:1" d="M 32.25 34.75 L 32 34 L 33 34 L 33 35 L 32.25 34.75 " stroke-width="1" fill="undefined"/>
<path style="fill:#B13600;fill-opacity:1" d="M 32 34 L 32.25 34.75 L 33 35 L 34 35 Q 34 35.5 34.25 35.75 L 34.95 36 L 35.95 36 Q 35.95 36.5 36.2 36.75 L 36.95 37 L 37.95 37 L 37.95 38 L 36.95 38 L 36.95 39 L 35.95 39 L 34.95 39 L 34.75 38.25 Q 34.45 38 34 38 L 33 38 L 32 38 L 31.75 37.25 Q 31.5 37 31 37 L 30 37 L 29.75 36.25 L 29 36 L 28 36 Q 28 35.5 27.75 35.25 Q 27.5 35 27 35 L 26 35 L 25 35 Q 25 34.5 24.75 34.25 Q 24.5 34 24 34 L 23 34 L 23 33 L 23 32 L 23 31 L 24 31 L 25 31 L 26 31 L 26.25 31.75 L 27 32 L 28 32 Q 28 32.5 28.25 32.75 L 29 33 L 30 33 Q 30 33.5 30.25 33.75 L 31 34 L 32 34 " stroke-width="1" fill="undefined"/>
<path style="fill:#CF810F;fill-opacity:1" d="M 34.95 36 L 34.25 35.75 Q 34 35.5 34 35 L 34.95 35 L 34.95 36 " stroke-width="1" fill="undefined"/>
<path style="fill:#473102;fill-opacity:1" d="M 35.95 40 L 34.95 40 L 34.95 39 L 35.95 39 L 35.95 40 " stroke-width="1" fill="undefined"/>
<path style="fill:#B85604;fill-opacity:1" d="M 34 38 Q 34.45 38 34.75 38.25 L 34.95 39 L 34 39 L 34 38 " stroke-width="1" fill="undefined"/>
<path style="fill:#776B0A;fill-opacity:1" d="M 34.95 40 L 34 40 L 34 39 L 34.95 39 L 34.95 40 " stroke-width="1" fill="undefined"/>
<path style="fill:#C2870B;fill-opacity:1" d="M 33 39 L 33 38 L 34 38 L 34 39 L 33 39 " stroke-width="1" fill="undefined"/>
<path style="fill:#B7A10E;fill-opacity:1" d="M 32 38 L 33 38 L 33 39 L 32 39 L 32 38 " stroke-width="1" fill="undefined"/>
<path style="fill:#7D710A;fill-opacity:1" d="M 31 39 L 31 38 L 32 38 L 32 39 L 31 39 " stroke-width="1" fill="undefined"/>
<path style="fill:#BC6A07;fill-opacity:1" d="M 31 38 L 31 37 Q 31.5 37 31.75 37.25 L 32 38 L 31 38 " stroke-width="1" fill="undefined"/>
<path style="fill:#84770B;fill-opacity:1" d="M 33 40 L 32 40 L 32 39 L 33 39 L 33 40 " stroke-width="1" fill="undefined"/>
<path style="fill:#332E05;fill-opacity:1" d="M 34 41 L 34 42 L 33 42 L 32 42 L 32 41 L 33 41 L 34 41 " stroke-width="1" fill="undefined"/>
<path style="fill:#514907;fill-opacity:1" d="M 31 41 L 32 41 L 32 42 L 31 42 L 31 41 " stroke-width="1" fill="undefined"/>
<path style="fill:#CEB911;fill-opacity:1" d="M 31 41 L 30 41 L 29.75 40.25 L 29 40 L 28 40 L 28 39 L 29 39 L 30 39 L 31 39 Q 31 39.5 31.25 39.75 L 32 40 L 33 40 L 33 41 L 32 41 L 31 41 " stroke-width="1" fill="undefined"/>
<path style="fill:#B7A50F;fill-opacity:1" d="M 32 39 L 32 40 L 31.25 39.75 Q 31 39.5 31 39 L 32 39 " stroke-width="1" fill="undefined"/>
<path style="fill:#BEAC10;fill-opacity:1" d="M 33 41 L 33 40 L 34 40 L 34 41 L 33 41 M 47.95 40 L 47.95 39 L 48.95 39 L 48.95 40 L 47.95 40 " stroke-width="1" fill="undefined"/>
<path style="fill:#211A01;fill-opacity:1" d="M 36.95 40 L 36.95 41 L 35.95 41 L 35.95 40 L 36.95 40 " stroke-width="1" fill="undefined"/>
<path style="fill:#6E640F;fill-opacity:1" d="M 34.95 41 L 34.95 40 L 35.95 40 L 35.95 41 L 34.95 41 " stroke-width="1" fill="undefined"/>
<path style="fill:#4A4306;fill-opacity:1" d="M 34.95 41 L 34 41 L 34 40 L 34.95 40 L 34.95 41 " stroke-width="1" fill="undefined"/>
<path style="fill:#9E8F15;fill-opacity:1" d="M 34 41 L 34.95 41 L 34.95 42 L 34 42 L 34 41 " stroke-width="1" fill="undefined"/>
<path style="fill:#2A2305;fill-opacity:1" d="M 34.95 42 L 34.95 41 L 35.95 41 L 35.95 42 L 34.95 42 " stroke-width="1" fill="undefined"/>
<path style="fill:#432D00;fill-opacity:1" d="M 36.95 43 L 35.95 43 L 34.95 43 L 34.95 42 L 35.95 42 L 36.95 42 L 36.95 43 " stroke-width="1" fill="undefined"/>
<path style="fill:#B77D00;fill-opacity:1" d="M 36.95 42 L 35.95 42 L 35.95 41 L 36.95 41 L 36.95 42 " stroke-width="1" fill="undefined"/>
<path style="fill:#6A5F09;fill-opacity:1" d="M 33 40 L 33 39 L 34 39 L 34 40 L 33 40 M 29 41 L 28 41 L 28 40 L 29 40 L 29 41 " stroke-width="1" fill="undefined"/>
<path style="fill:#93580A;fill-opacity:1" d="M 36.95 40 L 35.95 40 L 35.95 39 L 36.95 39 L 36.95 40 " stroke-width="1" fill="undefined"/>
<path style="fill:#796E10;fill-opacity:1" d="M 39.95 38 L 38.95 38 L 38.95 37 L 39.95 37 L 39.95 38 " stroke-width="1" fill="undefined"/>
<path style="fill:#EDA100;fill-opacity:1" d="M 39.95 39 L 39.95 38 L 40.95 38 L 40.95 39 L 39.95 39 " stroke-width="1" fill="undefined"/>
<path style="fill:#7A5300;fill-opacity:1" d="M 39.95 39 L 38.95 39 L 38.95 38 L 39.95 38 L 39.95 39 " stroke-width="1" fill="undefined"/>
<path style="fill:#FEAC00;fill-opacity:1" d="M 38.95 39 L 39.95 39 L 40.95 39 L 41.95 39 L 42.95 39 L 43.95 39 Q 43.95 39.5 44.2 39.75 L 44.95 40 L 45.95 40 L 46.95 40 Q 46.95 40.5 47.2 40.75 L 47.95 41 L 48.95 41 L 48.95 42 L 47.95 42 L 46.95 42 L 45.95 42 L 44.95 42 L 43.95 42 L 42.95 42 L 42.7 41.25 Q 42.45 41 41.95 41 L 40.95 41 L 39.95 41 L 38.95 41 L 37.95 41 L 37.95 40 L 38.7 39.75 L 38.95 39 M 36.95 43 L 37.95 43 L 38.95 43 L 39.95 43 L 40.95 43 L 41.95 43 L 42.95 43 L 43.95 43 L 44.95 43 L 44.95 44 L 44.95 45 L 43.95 45 L 42.95 45 L 42.95 46 L 41.95 46 L 40.95 46 L 39.95 46 L 38.95 46 L 38.7 45.25 L 37.95 45 L 36.95 45 L 36.7 44.25 Q 36.45 44 35.95 44 L 35.95 43 L 36.95 43 " stroke-width="1" fill="undefined"/>
<path style="fill:#221D04;fill-opacity:1" d="M 37.95 39 L 37.95 38 L 38.95 38 L 38.95 39 L 37.95 39 " stroke-width="1" fill="undefined"/>
<path style="fill:#B97E00;fill-opacity:1" d="M 41.95 38 L 41.95 39 L 40.95 39 L 40.95 38 L 41.95 38 " stroke-width="1" fill="undefined"/>
<path style="fill:#5F570D;fill-opacity:1" d="M 40.95 38 L 39.95 38 L 39.95 37 L 40.95 37 L 40.95 38 " stroke-width="1" fill="undefined"/>
<path style="fill:#D9A917;fill-opacity:1" d="M 38.95 38 L 37.95 38 L 37.95 37 L 38.95 37 L 38.95 38 " stroke-width="1" fill="undefined"/>
<path style="fill:#82640E;fill-opacity:1" d="M 41.95 38 L 40.95 38 L 40.95 37 L 41.95 37 L 41.95 38 " stroke-width="1" fill="undefined"/>
<path style="fill:#952E00;fill-opacity:1" d="M 37.95 39 L 36.95 39 L 36.95 38 L 37.95 38 L 37.95 39 " stroke-width="1" fill="undefined"/>
<path style="fill:#1A1200;fill-opacity:1" d="M 37.95 40 L 36.95 40 L 36.95 39 L 37.95 39 L 37.95 40 " stroke-width="1" fill="undefined"/>
<path style="fill:#956500;fill-opacity:1" d="M 36.95 42 L 36.95 41 L 37.95 41 L 37.95 42 L 36.95 42 " stroke-width="1" fill="undefined"/>
<path style="fill:#CF8C00;fill-opacity:1" d="M 37.95 40 L 37.95 41 L 36.95 41 L 36.95 40 L 37.95 40 " stroke-width="1" fill="undefined"/>
<path style="fill:#A47000;fill-opacity:1" d="M 36.95 42 L 37.95 42 L 37.95 43 L 36.95 43 L 36.95 42 " stroke-width="1" fill="undefined"/>
<path style="fill:#BF8200;fill-opacity:1" d="M 46.95 42 L 47.95 42 L 47.95 43 L 46.95 43 L 46.95 42 M 37.95 39 L 38.95 39 L 38.7 39.75 L 37.95 40 L 37.95 39 " stroke-width="1" fill="undefined"/>
<path style="fill:#684700;fill-opacity:1" d="M 38.95 42 L 37.95 42 L 37.95 41 L 38.95 41 L 38.95 42 " stroke-width="1" fill="undefined"/>
<path style="fill:#986700;fill-opacity:1" d="M 39.95 43 L 39.95 42 L 38.95 42 L 38.95 41 L 39.95 41 L 39.95 42 L 40.95 42 L 40.95 43 M 47.95 41 L 47.2 40.75 Q 46.95 40.5 46.95 40 L 47.95 40 L 47.95 41 M 40.95 43 L 39.95 43 " stroke-width="1" fill="undefined"/>
<path style="fill:#B37A00;fill-opacity:1" d="M 38.95 42 L 39.95 42 L 39.95 43 L 38.95 43 L 38.95 42 " stroke-width="1" fill="undefined"/>
<path style="fill:#A77200;fill-opacity:1" d="M 40.95 42 L 39.95 42 L 39.95 41 L 40.95 41 L 40.95 42 " stroke-width="1" fill="undefined"/>
<path style="fill:#CC8A00;fill-opacity:1" d="M 41.95 42 L 40.95 42 L 40.95 41 L 41.95 41 L 41.95 42 M 38.95 43 L 37.95 43 L 37.95 42 L 38.95 42 L 38.95 43 M 37.95 46 L 37.95 45 L 38.7 45.25 L 38.95 46 L 37.95 46 M 45.95 43 L 45.95 44 L 44.95 44 L 44.95 43 L 45.95 43 " stroke-width="1" fill="undefined"/>
<path style="fill:#D0830F;fill-opacity:1" d="M 36.95 37 L 36.2 36.75 Q 35.95 36.5 35.95 36 L 36.95 36 L 36.95 37 " stroke-width="1" fill="undefined"/>
<path style="fill:#EBCB1D;fill-opacity:1" d="M 29 32 L 29.75 32.25 L 30 33 L 29 33 L 29 32 " stroke-width="1" fill="undefined"/>
<path style="fill:#CD7B0E;fill-opacity:1" d="M 27 32 L 26.25 31.75 L 26 31 L 27 31 L 27 32 M 28 32 L 29 32 L 29 33 L 28.25 32.75 Q 28 32.5 28 32 " stroke-width="1" fill="undefined"/>
<path style="fill:#CD7D0E;fill-opacity:1" d="M 31 34 L 30.25 33.75 Q 30 33.5 30 33 L 31 33 L 31 34 " stroke-width="1" fill="undefined"/>
<path style="fill:#EACA1D;fill-opacity:1" d="M 25 30 Q 25.5 30 25.75 30.25 Q 26 30.5 26 31 L 25 31 L 25 30 M 27 31 Q 27.5 31 27.75 31.25 Q 28 31.5 28 32 L 27 32 L 27 31 " stroke-width="1" fill="undefined"/>
<path style="fill:#A93500;fill-opacity:1" d="M 27 35 Q 27.5 35 27.75 35.25 Q 28 35.5 28 36 L 27 36 L 27 35 " stroke-width="1" fill="undefined"/>
<path style="fill:#76660A;fill-opacity:1" d="M 27 37 L 27 36 L 28 36 L 28 37 L 27 37 " stroke-width="1" fill="undefined"/>
<path style="fill:#CE7F0F;fill-opacity:1" d="M 26 36 L 26 35 L 27 35 L 27 36 L 26 36 " stroke-width="1" fill="undefined"/>
<path style="fill:#B64C02;fill-opacity:1" d="M 29 37 L 29 36 L 29.75 36.25 L 30 37 L 29 37 " stroke-width="1" fill="undefined"/>
<path style="fill:#C1830A;fill-opacity:1" d="M 29 37 L 28 37 L 28 36 L 29 36 L 29 37 " stroke-width="1" fill="undefined"/>
<path style="fill:#E2B318;fill-opacity:1" d="M 24 35 L 23.25 34.75 L 23 34 L 24 34 L 24 35 M 22 32 L 22 31 L 23 31 L 23 32 L 22 32 " stroke-width="1" fill="undefined"/>
<path style="fill:#B74502;fill-opacity:1" d="M 23 32 L 23 33 L 22 33 L 22 32 L 23 32 " stroke-width="1" fill="undefined"/>
<path style="fill:#BD5406;fill-opacity:1" d="M 22 33 L 23 33 L 23 34 L 22 34 L 22 33 " stroke-width="1" fill="undefined"/>
<path style="fill:#E1AF18;fill-opacity:1" d="M 22 33 L 22 34 L 21.25 33.75 L 21 33 L 22 33 " stroke-width="1" fill="undefined"/>
<path style="fill:#C76D0B;fill-opacity:1" d="M 24 34 Q 24.5 34 24.75 34.25 Q 25 34.5 25 35 L 24 35 L 24 34 " stroke-width="1" fill="undefined"/>
<path style="fill:#EAC81C;fill-opacity:1" d="M 26 36 L 25.25 35.75 L 25 35 L 26 35 L 26 36 " stroke-width="1" fill="undefined"/>
<path style="fill:#4C450A;fill-opacity:1" d="M 26 39 L 26 38 L 27 38 L 27 39 L 26 39 " stroke-width="1" fill="undefined"/>
<path style="fill:#C89D0D;fill-opacity:1" d="M 30 38 L 30 37 L 31 37 L 31 38 L 30 38 " stroke-width="1" fill="undefined"/>
<path style="fill:#655B08;fill-opacity:1" d="M 30 38 L 30 39 L 29 39 L 29 38 L 30 38 M 46.95 39 L 47.95 39 L 47.95 40 L 46.95 40 L 46.95 39 " stroke-width="1" fill="undefined"/>
<path style="fill:#8E800C;fill-opacity:1" d="M 28 38 L 29 38 L 29 39 L 28 39 L 28 38 " stroke-width="1" fill="undefined"/>
<path style="fill:#5E5408;fill-opacity:1" d="M 30 38 L 31 38 L 31 39 L 30 39 L 30 38 " stroke-width="1" fill="undefined"/>
<path style="fill:#CCB711;fill-opacity:1" d="M 29 38 L 29 37 L 30 37 L 30 38 L 29 38 " stroke-width="1" fill="undefined"/>
<path style="fill:#95870C;fill-opacity:1" d="M 29 38 L 28 38 L 28 37 L 29 37 L 29 38 " stroke-width="1" fill="undefined"/>
<path style="fill:#B1A00F;fill-opacity:1" d="M 28 38 L 28 39 L 27 39 L 27 38 L 28 38 " stroke-width="1" fill="undefined"/>
<path style="fill:#625908;fill-opacity:1" d="M 27 39 L 28 39 L 28 40 L 27 40 L 27 39 M 49.95 39 L 48.95 39 L 48.95 38 L 49.95 38 L 49.95 39 " stroke-width="1" fill="undefined"/>
<path style="fill:#595008;fill-opacity:1" d="M 27 37 L 28 37 L 28 38 L 27 38 L 27 37 " stroke-width="1" fill="undefined"/>
<path style="fill:#574F0C;fill-opacity:1" d="M 28 41 L 27.25 40.75 L 27 40 L 28 40 L 28 41 " stroke-width="1" fill="undefined"/>
<path style="fill:#988A14;fill-opacity:1" d="M 27 39 L 27 40 L 26.25 39.75 L 26 39 L 27 39 " stroke-width="1" fill="undefined"/>
<path style="fill:#928514;fill-opacity:1" d="M 29 42 L 28.25 41.75 Q 28 41.5 28 41 L 29 41 L 29 42 " stroke-width="1" fill="undefined"/>
<path style="fill:#3D3605;fill-opacity:1" d="M 30 41 L 31 41 L 31 42 L 30 42 L 30 41 " stroke-width="1" fill="undefined"/>
<path style="fill:#C7B210;fill-opacity:1" d="M 29 41 L 29 40 L 29.75 40.25 L 30 41 L 29 41 " stroke-width="1" fill="undefined"/>
<path style="fill:#E0CC1E;fill-opacity:1" d="M 34 44 L 33.25 43.75 Q 33 43.5 33 43 L 34 43 L 34 44 M 31 42 L 31 43 L 30.25 42.75 Q 30 42.5 30 42 L 31 42 " stroke-width="1" fill="undefined"/>
<path style="fill:#252204;fill-opacity:1" d="M 29 41 L 30 41 L 30 42 L 29 42 L 29 41 " stroke-width="1" fill="undefined"/>
<path style="fill:#F0D913;fill-opacity:1" d="M 27 48 L 27 47 Q 27.5 47 27.75 47.25 Q 28 47.5 28 48 L 27 48 " stroke-width="1" fill="undefined"/>
<path style="fill:#F8ED8D;fill-opacity:1" d="M 27 48 L 28 48 L 28 49 L 27 49 L 27 48 " stroke-width="1" fill="undefined"/>
<path style="fill:#FEFBE8;fill-opacity:1" d="M 29.75 48.75 L 29 49 L 29 48 L 30 48 L 29.75 48.75 " stroke-width="1" fill="undefined"/>
<path style="fill:#FFFFFE;fill-opacity:1" d="M 27 49 L 28 49 L 29 49 L 29.75 48.75 L 30 48 L 31 48 L 32 48 L 32.75 47.75 L 33 47 L 34 47 L 34.95 47 L 35.95 47 L 36.95 47 L 37.95 47 L 38.95 47 Q 38.95 47.5 39.2 47.75 L 39.95 48 L 40.95 48 L 41.95 48 L 42.7 47.75 L 42.95 47 L 43.95 47 L 44.95 47 L 45.95 47 L 46.95 47 Q 46.95 47.5 47.2 47.75 L 47.95 48 L 48.95 48 L 49.95 48 L 50.95 48 L 50.95 49 L 49.95 49 L 48.95 49 L 47.95 49 L 46.95 49 L 45.95 49 L 44.95 49 L 44.95 50 L 43.95 50 L 42.95 50 L 40.95 50 L 39.95 50 L 38.95 50 L 37.95 50 L 36.95 50 L 35.95 50 L 34.95 50 L 34 50 L 33 50 L 30 50 L 29 50 L 27 50 L 26 50 L 26 49 L 27 49 " stroke-width="1" fill="undefined"/>
<path style="fill:#F2DD2B;fill-opacity:1" d="M 30 48 L 29 48 L 29 47 L 30 47 L 30 48 " stroke-width="1" fill="undefined"/>
<path style="fill:#F5E664;fill-opacity:1" d="M 31 48 L 30 48 L 30 47 L 31 47 L 31 48 " stroke-width="1" fill="undefined"/>
<path style="fill:#FAF0A4;fill-opacity:1" d="M 32 48 L 31 48 L 31 47 L 32 47 L 32 48 " stroke-width="1" fill="undefined"/>
<path style="fill:#FBF5BF;fill-opacity:1" d="M 29 49 L 28 49 L 28 48 L 29 48 L 29 49 " stroke-width="1" fill="undefined"/>
<path style="fill:#F0D914;fill-opacity:1" d="M 24 49 L 24 48 L 25 48 L 26 48 L 26 49 L 25 49 L 24 49 M 51.95 48 L 51.95 47 L 52.7 47.25 L 52.95 48 L 51.95 48 " stroke-width="1" fill="undefined"/>
<path style="fill:#FDF5AF;fill-opacity:1" d="M 25 50 L 25 49 L 26 49 L 26 50 L 25 50 " stroke-width="1" fill="undefined"/>
<path style="fill:#EDEEF4;fill-opacity:1" d="M 24 50 L 25 50 L 26 50 L 27 50 L 27 51 L 26 51 L 25 51 L 24 51 L 24 50 " stroke-width="1" fill="undefined"/>
<path style="fill:#F9EA68;fill-opacity:1" d="M 25 49 L 25 50 L 24 50 L 24 49 L 25 49 " stroke-width="1" fill="undefined"/>
<path style="fill:#CDCDCE;fill-opacity:1" d="M 26 52 L 25 52 L 24 52 L 24 51 L 25 51 L 26 51 L 26 52 " stroke-width="1" fill="undefined"/>
<path style="fill:#E5E0B4;fill-opacity:1" d="M 23 51 L 23 50 L 24 50 L 24 51 L 23 51 " stroke-width="1" fill="undefined"/>
<path style="fill:#F4DC16;fill-opacity:1" d="M 23 50 L 22 50 L 22 49 L 23 49 L 23 50 " stroke-width="1" fill="undefined"/>
<path style="fill:#DDCF5A;fill-opacity:1" d="M 23 51 L 22 51 L 22 50 L 23 50 L 23 51 " stroke-width="1" fill="undefined"/>
<path style="fill:#C9CAD4;fill-opacity:1" d="M 24 51 L 24 52 L 23 52 L 22 52 L 22 51 L 23 51 L 24 51 " stroke-width="1" fill="undefined"/>
<path style="fill:#2B2B2B;fill-opacity:1" d="M 23 52 L 23 53 L 22 53 L 22 52 L 23 52 " stroke-width="1" fill="undefined"/>
<path style="fill:#333333;fill-opacity:1" d="M 23 53 L 23 52 L 24 52 L 24 53 L 23 53 " stroke-width="1" fill="undefined"/>
<path style="fill:#000000;fill-opacity:0.745098" d="M 24 53 L 25 53 L 25 54 L 24 54 L 23 54 L 23 53 L 24 53 " stroke-width="1" fill="undefined"/>
<path style="fill:#494949;fill-opacity:1" d="M 26 53 L 25 53 L 25 52 L 26 52 L 26 53 M 34.95 53 L 34 53 L 34 52 L 34.95 52 L 34.95 53 " stroke-width="1" fill="undefined"/>
<path style="fill:#3D3D3D;fill-opacity:1" d="M 24 53 L 24 52 L 25 52 L 25 53 L 24 53 " stroke-width="1" fill="undefined"/>
<path style="fill:#000000;fill-opacity:0.792157" d="M 35.95 54 L 34.95 54 L 25 54 L 25 53 L 26 53 L 27 53 L 28 53 L 31 53 L 32 53 L 33 53 L 34 53 L 34.95 53 L 35.95 53 L 35.95 54 " stroke-width="1" fill="undefined"/>
<path style="fill:#4D4D4D;fill-opacity:1" d="M 26 53 L 26 52 L 27 52 L 27 53 L 26 53 " stroke-width="1" fill="undefined"/>
<path style="fill:#D2D2D2;fill-opacity:1" d="M 29 51 L 30 51 L 33 51 L 34 51 L 34.95 51 L 35.95 51 L 35.95 52 L 34.95 52 L 34 52 L 33 52 L 32 52 L 31 52 L 28 52 L 27 52 L 26 52 L 26 51 L 27 51 L 29 51 " stroke-width="1" fill="undefined"/>
<path style="fill:#F7F7F7;fill-opacity:1" d="M 34 51 L 33 51 L 30 51 L 30 50 L 33 50 L 34 50 L 34 51 " stroke-width="1" fill="undefined"/>
<path style="fill:#F4F4F4;fill-opacity:1" d="M 30 51 L 29 51 L 27 51 L 27 50 L 29 50 L 30 50 L 30 51 " stroke-width="1" fill="undefined"/>
<path style="fill:#575757;fill-opacity:1" d="M 32 53 L 31 53 L 28 53 L 28 52 L 31 52 L 32 52 L 32 53 " stroke-width="1" fill="undefined"/>
<path style="fill:#525252;fill-opacity:1" d="M 27 52 L 28 52 L 28 53 L 27 53 L 27 52 " stroke-width="1" fill="undefined"/>
<path style="fill:#F3E03E;fill-opacity:1" d="M 27 49 L 26 49 L 26 48 L 27 48 L 27 49 " stroke-width="1" fill="undefined"/>
<path style="fill:#533800;fill-opacity:1" d="M 36.95 46 L 36.95 45 L 37.95 45 L 37.95 46 L 36.95 46 " stroke-width="1" fill="undefined"/>
<path style="fill:#BC8000;fill-opacity:1" d="M 35.95 45 L 35.95 44 Q 36.45 44 36.7 44.25 L 36.95 45 L 35.95 45 " stroke-width="1" fill="undefined"/>
<path style="fill:#B2AB74;fill-opacity:1" d="M 36.95 46 L 37.95 46 L 37.95 47 L 36.95 47 L 36.95 46 " stroke-width="1" fill="undefined"/>
<path style="fill:#F7E978;fill-opacity:1" d="M 35.95 46 L 36.95 46 L 36.95 47 L 35.95 47 L 35.95 46 " stroke-width="1" fill="undefined"/>
<path style="fill:#312F20;fill-opacity:1" d="M 37.95 46 L 38.95 46 L 38.95 47 L 37.95 47 L 37.95 46 " stroke-width="1" fill="undefined"/>
<path style="fill:#382700;fill-opacity:1" d="M 43.95 43 L 42.95 43 L 42.95 42 L 43.95 42 L 43.95 43 M 39.95 47 L 38.95 47 L 38.95 46 L 39.95 46 L 39.95 47 " stroke-width="1" fill="undefined"/>
<path style="fill:#C5C5C5;fill-opacity:1" d="M 39.95 48 L 39.2 47.75 Q 38.95 47.5 38.95 47 L 39.95 47 L 39.95 48 " stroke-width="1" fill="undefined"/>
<path style="fill:#7D5500;fill-opacity:1" d="M 42.95 38 L 42.95 39 L 41.95 39 L 41.95 38 L 42.95 38 M 41.95 47 L 40.95 47 L 39.95 47 L 39.95 46 L 40.95 46 L 41.95 46 L 41.95 47 " stroke-width="1" fill="undefined"/>
<path style="fill:#7D7D7D;fill-opacity:1" d="M 40.95 47 L 40.95 48 L 39.95 48 L 39.95 47 L 40.95 47 " stroke-width="1" fill="undefined"/>
<path style="fill:#868686;fill-opacity:1" d="M 41.95 48 L 40.95 48 L 40.95 47 L 41.95 47 L 41.95 48 " stroke-width="1" fill="undefined"/>
<path style="fill:#433D09;fill-opacity:1" d="M 35.95 46 L 35.95 45 L 36.95 45 L 36.95 46 L 35.95 46 " stroke-width="1" fill="undefined"/>
<path style="fill:#593D00;fill-opacity:1" d="M 41.95 42 L 42.95 42 L 42.95 43 L 41.95 43 L 41.95 42 M 34.95 44 L 34.95 43 L 35.95 43 L 35.95 44 L 34.95 44 " stroke-width="1" fill="undefined"/>
<path style="fill:#090800;fill-opacity:1" d="M 34.95 44 L 34 44 L 34 43 L 34.95 43 L 34.95 44 " stroke-width="1" fill="undefined"/>
<path style="fill:#AC9C17;fill-opacity:1" d="M 34.95 45 L 34.25 44.75 Q 34 44.5 34 44 L 34.95 44 L 34.95 45 " stroke-width="1" fill="undefined"/>
<path style="fill:#2F2301;fill-opacity:1" d="M 35.95 44 L 35.95 45 L 34.95 45 L 34.95 44 L 35.95 44 " stroke-width="1" fill="undefined"/>
<path style="fill:#D7C31D;fill-opacity:1" d="M 34.95 46 L 34.95 45 L 35.95 45 L 35.95 46 L 34.95 46 " stroke-width="1" fill="undefined"/>
<path style="fill:#F2DD2C;fill-opacity:1" d="M 34 47 L 33 47 L 33 46 L 34 46 L 34 47 " stroke-width="1" fill="undefined"/>
<path style="fill:#FCF9DA;fill-opacity:1" d="M 32 47 L 33 47 L 32.75 47.75 L 32 48 L 32 47 " stroke-width="1" fill="undefined"/>
<path style="fill:#F4E24C;fill-opacity:1" d="M 34.95 47 L 34 47 L 34 46 L 34.95 46 L 34.95 47 " stroke-width="1" fill="undefined"/>
<path style="fill:#F6E76B;fill-opacity:1" d="M 34.95 46 L 35.95 46 L 35.95 47 L 34.95 47 L 34.95 46 " stroke-width="1" fill="undefined"/>
<path style="fill:#ECECEC;fill-opacity:1" d="M 35.95 51 L 35.95 50 L 36.95 50 L 36.95 51 L 35.95 51 " stroke-width="1" fill="undefined"/>
<path style="fill:#EFEFEF;fill-opacity:1" d="M 35.95 51 L 34.95 51 L 34 51 L 34 50 L 34.95 50 L 35.95 50 L 35.95 51 " stroke-width="1" fill="undefined"/>
<path style="fill:#4E4E4E;fill-opacity:1" d="M 34 53 L 33 53 L 32 53 L 32 52 L 33 52 L 34 52 L 34 53 " stroke-width="1" fill="undefined"/>
<path style="fill:#343434;fill-opacity:1" d="M 36.95 52 L 36.95 53 L 35.95 53 L 35.95 52 L 36.95 52 " stroke-width="1" fill="undefined"/>
<path style="fill:#3E3E3E;fill-opacity:1" d="M 34.95 53 L 34.95 52 L 35.95 52 L 35.95 53 L 34.95 53 " stroke-width="1" fill="undefined"/>
<path style="fill:#000000;fill-opacity:0.72549" d="M 37.95 54 L 36.95 54 L 35.95 54 L 35.95 53 L 36.95 53 L 37.95 53 L 37.95 54 " stroke-width="1" fill="undefined"/>
<path style="fill:#CACACA;fill-opacity:1" d="M 36.95 51 L 37.95 51 L 37.95 52 L 36.95 52 L 35.95 52 L 35.95 51 L 36.95 51 " stroke-width="1" fill="undefined"/>
<path style="fill:#D3D3D3;fill-opacity:1" d="M 43.95 51 L 42.95 51 L 41.95 51 L 40.95 51 L 40.95 50 L 42.95 50 L 43.95 50 L 43.95 51 " stroke-width="1" fill="undefined"/>
<path style="fill:#DEDEDE;fill-opacity:1" d="M 40.95 51 L 39.95 51 L 38.95 51 L 38.95 50 L 39.95 50 L 40.95 50 L 40.95 51 " stroke-width="1" fill="undefined"/>
<path style="fill:#A1A1A1;fill-opacity:1" d="M 39.95 52 L 39.95 51 L 40.95 51 L 40.95 52 L 39.95 52 " stroke-width="1" fill="undefined"/>
<path style="fill:#B0B0B0;fill-opacity:1" d="M 39.95 52 L 38.95 52 L 38.95 51 L 39.95 51 L 39.95 52 " stroke-width="1" fill="undefined"/>
<path style="fill:#E1E1E1;fill-opacity:1" d="M 36.95 50 L 37.95 50 L 38.95 50 L 38.95 51 L 37.95 51 L 36.95 51 L 36.95 50 M 41.95 47 L 42.95 47 L 42.7 47.75 L 41.95 48 L 41.95 47 " stroke-width="1" fill="undefined"/>
<path style="fill:#292929;fill-opacity:1" d="M 37.95 52 L 37.95 53 L 36.95 53 L 36.95 52 L 37.95 52 M 46.95 51 L 47.95 51 L 47.95 52 L 46.95 52 L 46.95 51 " stroke-width="1" fill="undefined"/>
<path style="fill:#1F1F1F;fill-opacity:1" d="M 37.95 53 L 37.95 52 L 38.95 52 L 38.95 53 L 37.95 53 " stroke-width="1" fill="undefined"/>
<path style="fill:#0A0A0A;fill-opacity:1" d="M 39.95 53 L 39.95 52 L 40.95 52 L 40.95 53 L 39.95 53 " stroke-width="1" fill="undefined"/>
<path style="fill:#161616;fill-opacity:1" d="M 39.95 53 L 38.95 53 L 38.95 52 L 39.95 52 L 39.95 53 " stroke-width="1" fill="undefined"/>
<path style="fill:#000000;fill-opacity:0.572549" d="M 39.95 53 L 40.95 53 L 40.95 54 L 39.95 54 L 39.95 53 " stroke-width="1" fill="undefined"/>
<path style="fill:#BDBDBD;fill-opacity:1" d="M 37.95 51 L 38.95 51 L 38.95 52 L 37.95 52 L 37.95 51 " stroke-width="1" fill="undefined"/>
<path style="fill:#898989;fill-opacity:1" d="M 41.95 52 L 40.95 52 L 40.95 51 L 41.95 51 L 41.95 52 " stroke-width="1" fill="undefined"/>
<path style="fill:#C0AE1A;fill-opacity:1" d="M 31 42 L 32 42 L 31.75 42.75 L 31 43 L 31 42 " stroke-width="1" fill="undefined"/>
<path style="fill:#6B4900;fill-opacity:1" d="M 45.95 40 L 44.95 40 L 44.95 39 L 45.95 39 L 45.95 40 M 41.95 43 L 40.95 43 L 40.95 42 L 41.95 42 L 41.95 43 " stroke-width="1" fill="undefined"/>
<path style="fill:#451400;fill-opacity:0.635294" d="M 54.95 33 L 54.95 32 L 55.95 32 L 55.95 33 L 54.95 33 " stroke-width="1" fill="undefined"/>
<path style="fill:#992D00;fill-opacity:0.937255" d="M 54.95 34 L 54.95 33 L 55.95 33 L 55.95 34 L 54.95 34 " stroke-width="1" fill="undefined"/>
<path style="fill:#B03500;fill-opacity:0.996078" d="M 47.95 37 L 46.95 37 L 46.95 38 L 45.95 38 L 44.95 38 L 43.95 38 L 42.95 38 L 42.95 37 L 43.95 37 L 44.7 36.75 L 44.95 36 L 45.95 36 L 46.7 35.75 L 46.95 35 L 47.95 35 L 48.7 34.75 L 48.95 34 L 49.95 34 L 50.7 33.75 L 50.95 33 L 51.95 33 L 52.7 32.75 L 52.95 32 L 53.95 32 L 54.95 32 L 54.95 33 L 54.95 34 L 54.95 35 L 53.95 35 L 52.95 35 L 51.95 35 L 51.95 36 L 50.95 36 L 49.95 36 L 49.95 37 L 48.95 37 L 47.95 37 " stroke-width="1" fill="undefined"/>
<path style="fill:#030100;fill-opacity:0.156863" d="M 54.95 32 L 54.95 31 L 55.7 31.25 L 55.95 32 L 54.95 32 " stroke-width="1" fill="undefined"/>
<path style="fill:#130500;fill-opacity:0.333333" d="M 53.95 32 L 53.95 31 L 54.95 31 L 54.95 32 L 53.95 32 " stroke-width="1" fill="undefined"/>
<path style="fill:#050100;fill-opacity:0.176471" d="M 52.95 31 L 53.95 31 L 53.95 32 L 52.95 32 L 52.95 31 " stroke-width="1" fill="undefined"/>
<path style="fill:#8C2900;fill-opacity:0.898039" d="M 52.95 32 L 52.7 32.75 L 51.95 33 L 51.95 32 L 52.95 32 " stroke-width="1" fill="undefined"/>
<path style="fill:#491500;fill-opacity:0.643137" d="M 50.95 33 L 50.95 32 L 51.95 32 L 51.95 33 L 50.95 33 " stroke-width="1" fill="undefined"/>
<path style="fill:#2A0C00;fill-opacity:0.529412" d="M 51.95 36 L 51.95 35 L 52.95 35 L 52.95 36 L 51.95 36 " stroke-width="1" fill="undefined"/>
<path style="fill:#000000;fill-opacity:0.482353" d="M 51.95 36 L 52.95 36 L 52.95 37 L 51.95 37 L 51.95 36 " stroke-width="1" fill="undefined"/>
<path style="fill:#150600;fill-opacity:0.34902" d="M 53.95 36 L 52.95 36 L 52.95 35 L 53.95 35 L 53.95 36 " stroke-width="1" fill="undefined"/>
<path style="fill:#060200;fill-opacity:0.2" d="M 53.95 35 L 54.95 35 L 54.7 35.75 L 53.95 36 L 53.95 35 " stroke-width="1" fill="undefined"/>
<path style="fill:#732200;fill-opacity:0.811765" d="M 55.95 34 L 55.95 35 L 54.95 35 L 54.95 34 L 55.95 34 " stroke-width="1" fill="undefined"/>
<path style="fill:#655C0E;fill-opacity:1" d="M 52.95 38 L 52.95 39 L 51.95 39 L 51.95 38 L 52.95 38 M 53.95 43 L 53.95 42 L 54.95 42 L 54.95 43 L 53.95 43 M 44.95 46 L 44.95 45 L 45.95 45 L 45.95 46 L 44.95 46 " stroke-width="1" fill="undefined"/>
<path style="fill:#F1DB1F;fill-opacity:1" d="M 50.95 40 L 50.95 39 L 50.95 38 L 51.95 38 L 51.95 39 L 52.2 39.75 L 52.95 40 L 52.95 41 L 52.95 42 L 51.95 42 L 51.7 41.25 Q 51.45 41 50.95 41 L 50.95 40 M 52.95 43 L 52.95 42 L 53.95 42 L 53.95 43 L 52.95 43 " stroke-width="1" fill="undefined"/>
<path style="fill:#0B0A01;fill-opacity:1" d="M 52.95 39 L 53.95 39 L 53.95 40 L 52.95 40 L 52.95 39 M 53.95 42 L 53.95 41 L 54.95 41 L 54.95 42 L 53.95 42 " stroke-width="1" fill="undefined"/>
<path style="fill:#010100;fill-opacity:0.988235" d="M 52.95 37 L 52.95 38 L 51.95 38 L 51.95 37 L 52.95 37 " stroke-width="1" fill="undefined"/>
<path style="fill:#DDC91D;fill-opacity:1" d="M 52.95 40 L 52.2 39.75 L 51.95 39 L 52.95 39 L 52.95 40 " stroke-width="1" fill="undefined"/>
<path style="fill:#73690F;fill-opacity:1" d="M 52.95 41 L 52.95 40 L 53.95 40 L 53.95 41 L 52.95 41 " stroke-width="1" fill="undefined"/>
<path style="fill:#E3CE1E;fill-opacity:1" d="M 52.95 42 L 52.95 41 L 53.95 41 L 53.95 42 L 52.95 42 " stroke-width="1" fill="undefined"/>
<path style="fill:#000000;fill-opacity:0.752941" d="M 53.95 41 L 53.95 40 L 54.95 40 L 54.95 41 L 53.95 41 " stroke-width="1" fill="undefined"/>
<path style="fill:#62590D;fill-opacity:1" d="M 52.95 43 L 51.95 43 L 51.95 42 L 52.95 42 L 52.95 43 " stroke-width="1" fill="undefined"/>
<path style="fill:#000000;fill-opacity:0.301961" d="M 53.95 40 L 53.95 39 Q 54.45 39 54.7 39.25 L 54.95 40 L 53.95 40 " stroke-width="1" fill="undefined"/>
<path style="fill:#423307;fill-opacity:1" d="M 50.95 36 L 51.95 36 L 51.95 37 L 50.95 37 L 50.95 36 " stroke-width="1" fill="undefined"/>
<path style="fill:#000000;fill-opacity:0.431373" d="M 48.95 32 L 48.95 31 L 49.7 31.25 L 49.95 32 L 48.95 32 " stroke-width="1" fill="undefined"/>
<path style="fill:#010100;fill-opacity:0.94902" d="M 48.95 33 L 48.95 32 L 49.95 32 L 49.95 33 L 48.95 33 " stroke-width="1" fill="undefined"/>
<path style="fill:#BDAC19;fill-opacity:1" d="M 48.95 32 L 48.95 33 L 47.95 33 L 47.95 32 L 48.95 32 " stroke-width="1" fill="undefined"/>
<path style="fill:#8C5209;fill-opacity:1" d="M 48.95 34 L 48.95 33 L 49.95 33 L 49.95 34 L 48.95 34 " stroke-width="1" fill="undefined"/>
<path style="fill:#0C0400;fill-opacity:0.384314" d="M 50.95 33 L 49.95 33 L 49.95 32 L 50.95 32 L 50.95 33 " stroke-width="1" fill="undefined"/>
<path style="fill:#111001;fill-opacity:1" d="M 47.95 32 L 47.95 31 L 48.95 31 L 48.95 32 L 47.95 32 " stroke-width="1" fill="undefined"/>
<path style="fill:#9E2F00;fill-opacity:1" d="M 50.7 33.75 L 49.95 34 L 49.95 33 L 50.95 33 L 50.7 33.75 " stroke-width="1" fill="undefined"/>
<path style="fill:#F6E320;fill-opacity:1" d="M 47.95 33 L 47.2 32.75 Q 46.95 32.5 46.95 32 L 47.95 32 L 47.95 33 " stroke-width="1" fill="undefined"/>
<path style="fill:#C8B51B;fill-opacity:1" d="M 46.95 31 L 47.95 31 L 47.95 32 L 46.95 32 L 46.95 31 " stroke-width="1" fill="undefined"/>
<path style="fill:#D38A11;fill-opacity:1" d="M 47.95 35 L 46.95 35 L 46.95 34 L 47.95 34 L 47.95 35 " stroke-width="1" fill="undefined"/>
<path style="fill:#B64302;fill-opacity:1" d="M 45.95 35 L 46.95 35 L 46.7 35.75 L 45.95 36 L 45.95 35 " stroke-width="1" fill="undefined"/>
<path style="fill:#B54101;fill-opacity:1" d="M 48.7 34.75 L 47.95 35 L 47.95 34 L 48.95 34 L 48.7 34.75 " stroke-width="1" fill="undefined"/>
<path style="fill:#AD690C;fill-opacity:1" d="M 50.95 37 L 49.95 37 L 49.95 36 L 50.95 36 L 50.95 37 " stroke-width="1" fill="undefined"/>
<path style="fill:#DA9E14;fill-opacity:1" d="M 43.95 37 L 42.95 37 L 42.95 36 L 43.95 36 L 43.95 37 " stroke-width="1" fill="undefined"/>
<path style="fill:#B94A04;fill-opacity:1" d="M 43.95 36 L 44.95 36 L 44.7 36.75 L 43.95 37 L 43.95 36 " stroke-width="1" fill="undefined"/>
<path style="fill:#D69412;fill-opacity:1" d="M 45.95 36 L 44.95 36 L 44.95 35 L 45.95 35 L 45.95 36 " stroke-width="1" fill="undefined"/>
<path style="fill:#604E06;fill-opacity:1" d="M 45.95 39 L 45.95 38 L 46.95 38 L 46.95 39 L 45.95 39 " stroke-width="1" fill="undefined"/>
<path style="fill:#633804;fill-opacity:1" d="M 44.95 38 L 45.95 38 L 45.95 39 L 44.95 39 L 44.95 38 " stroke-width="1" fill="undefined"/>
<path style="fill:#3A1800;fill-opacity:1" d="M 44.95 38 L 44.95 39 L 43.95 39 L 43.95 38 L 44.95 38 " stroke-width="1" fill="undefined"/>
<path style="fill:#D28E00;fill-opacity:1" d="M 44.95 39 L 44.95 40 L 44.2 39.75 Q 43.95 39.5 43.95 39 L 44.95 39 " stroke-width="1" fill="undefined"/>
<path style="fill:#3A2400;fill-opacity:1" d="M 42.95 38 L 43.95 38 L 43.95 39 L 42.95 39 L 42.95 38 " stroke-width="1" fill="undefined"/>
<path style="fill:#934105;fill-opacity:1" d="M 41.95 37 L 42.95 37 L 42.95 38 L 41.95 38 L 41.95 37 " stroke-width="1" fill="undefined"/>
<path style="fill:#F3A500;fill-opacity:1" d="M 41.95 42 L 41.95 41 Q 42.45 41 42.7 41.25 L 42.95 42 L 41.95 42 " stroke-width="1" fill="undefined"/>
<path style="fill:#322200;fill-opacity:1" d="M 44.95 43 L 43.95 43 L 43.95 42 L 44.95 42 L 44.95 43 " stroke-width="1" fill="undefined"/>
<path style="fill:#5F4100;fill-opacity:1" d="M 44.95 42 L 45.95 42 L 45.95 43 L 44.95 43 L 44.95 42 " stroke-width="1" fill="undefined"/>
<path style="fill:#231D01;fill-opacity:1" d="M 46.95 39 L 46.95 40 L 45.95 40 L 45.95 39 L 46.95 39 " stroke-width="1" fill="undefined"/>
<path style="fill:#A9960E;fill-opacity:1" d="M 48.95 37 L 49.95 37 L 49.95 38 L 48.95 38 L 48.95 37 " stroke-width="1" fill="undefined"/>
<path style="fill:#3E3807;fill-opacity:1" d="M 49.95 39 L 49.95 38 L 49.95 37 L 50.95 37 L 50.95 38 L 50.95 39 L 49.95 39 " stroke-width="1" fill="undefined"/>
<path style="fill:#A6960E;fill-opacity:1" d="M 49.95 40 L 48.95 40 L 48.95 39 L 49.95 39 L 49.95 40 " stroke-width="1" fill="undefined"/>
<path style="fill:#4F4706;fill-opacity:1" d="M 47.95 39 L 46.95 39 L 46.95 38 L 47.95 38 L 48.95 38 L 48.95 39 L 47.95 39 " stroke-width="1" fill="undefined"/>
<path style="fill:#665D0E;fill-opacity:1" d="M 49.95 40 L 49.95 39 L 50.95 39 L 50.95 40 L 49.95 40 " stroke-width="1" fill="undefined"/>
<path style="fill:#C48E0B;fill-opacity:1" d="M 48.95 37 L 48.95 38 L 47.95 38 L 47.95 37 L 48.95 37 " stroke-width="1" fill="undefined"/>
<path style="fill:#BA5D05;fill-opacity:1" d="M 47.95 38 L 46.95 38 L 46.95 37 L 47.95 37 L 47.95 38 " stroke-width="1" fill="undefined"/>
<path style="fill:#231A00;fill-opacity:1" d="M 48.95 40 L 48.95 41 L 47.95 41 L 47.95 40 L 48.95 40 " stroke-width="1" fill="undefined"/>
<path style="fill:#D6C11C;fill-opacity:1" d="M 49.95 41 L 49.95 40 L 50.95 40 L 50.95 41 L 49.95 41 " stroke-width="1" fill="undefined"/>
<path style="fill:#1F1D04;fill-opacity:1" d="M 49.95 41 L 48.95 41 L 48.95 40 L 49.95 40 L 49.95 41 " stroke-width="1" fill="undefined"/>
<path style="fill:#9E6B00;fill-opacity:1" d="M 49.95 42 L 48.95 42 L 48.95 41 L 49.95 41 L 49.95 42 " stroke-width="1" fill="undefined"/>
<path style="fill:#FCAB00;fill-opacity:1" d="M 48.95 42 L 49.95 42 L 50.95 42 L 50.95 43 L 49.95 43 L 48.95 43 L 48.95 42 " stroke-width="1" fill="undefined"/>
<path style="fill:#342701;fill-opacity:1" d="M 49.95 42 L 49.95 41 L 50.95 41 L 50.95 42 L 49.95 42 " stroke-width="1" fill="undefined"/>
<path style="fill:#F0A300;fill-opacity:1" d="M 48.95 43 L 47.95 43 L 47.95 42 L 48.95 42 L 48.95 43 " stroke-width="1" fill="undefined"/>
<path style="fill:#8F6100;fill-opacity:1" d="M 46.95 43 L 46.95 44 L 45.95 44 L 45.95 43 L 45.95 42 L 46.95 42 L 46.95 43 " stroke-width="1" fill="undefined"/>
<path style="fill:#0E0900;fill-opacity:1" d="M 49.95 44 L 47.95 44 L 47.95 43 L 48.95 43 L 49.95 43 L 50.95 43 L 50.95 44 L 49.95 44 " stroke-width="1" fill="undefined"/>
<path style="fill:#171000;fill-opacity:1" d="M 52.95 44 L 51.95 44 L 50.95 44 L 50.95 43 L 51.95 43 L 52.95 43 L 52.95 44 " stroke-width="1" fill="undefined"/>
<path style="fill:#A19215;fill-opacity:1" d="M 46.95 44 L 47.95 44 L 47.7 44.75 L 46.95 45 L 46.95 44 " stroke-width="1" fill="undefined"/>
<path style="fill:#2A2102;fill-opacity:1" d="M 45.95 45 L 45.95 44 L 46.95 44 L 46.95 45 L 45.95 45 " stroke-width="1" fill="undefined"/>
<path style="fill:#2B1E00;fill-opacity:1" d="M 47.95 43 L 47.95 44 L 46.95 44 L 46.95 43 L 47.95 43 " stroke-width="1" fill="undefined"/>
<path style="fill:#FEFCEA;fill-opacity:1" d="M 47.95 48 L 47.2 47.75 Q 46.95 47.5 46.95 47 L 47.95 47 L 47.95 48 " stroke-width="1" fill="undefined"/>
<path style="fill:#F2DE34;fill-opacity:1" d="M 45.95 46 L 46.95 46 L 46.95 47 L 45.95 47 L 45.95 46 " stroke-width="1" fill="undefined"/>
<path style="fill:#FBF5BE;fill-opacity:1" d="M 48.95 48 L 47.95 48 L 47.95 47 L 48.95 47 L 48.95 48 " stroke-width="1" fill="undefined"/>
<path style="fill:#F8ED90;fill-opacity:1" d="M 49.95 48 L 48.95 48 L 48.95 47 L 49.95 47 L 49.95 48 " stroke-width="1" fill="undefined"/>
<path style="fill:#F4E354;fill-opacity:1" d="M 49.95 47 L 50.7 47.25 L 50.95 48 L 49.95 48 L 49.95 47 " stroke-width="1" fill="undefined"/>
<path style="fill:#E6D11E;fill-opacity:1" d="M 45.95 46 L 45.95 45 L 46.95 45 L 46.95 46 L 45.95 46 " stroke-width="1" fill="undefined"/>
<path style="fill:#2E2000;fill-opacity:1" d="M 44.95 46 L 43.95 46 L 43.95 45 L 44.95 45 L 44.95 46 " stroke-width="1" fill="undefined"/>
<path style="fill:#9B6900;fill-opacity:1" d="M 44.95 45 L 44.95 44 L 45.95 44 L 45.95 45 L 44.95 45 " stroke-width="1" fill="undefined"/>
<path style="fill:#271B00;fill-opacity:1" d="M 42.95 47 L 41.95 47 L 41.95 46 L 42.95 46 L 42.95 47 " stroke-width="1" fill="undefined"/>
<path style="fill:#534E29;fill-opacity:1" d="M 43.95 47 L 42.95 47 L 42.95 46 L 43.95 46 L 43.95 47 " stroke-width="1" fill="undefined"/>
<path style="fill:#D1C465;fill-opacity:1" d="M 44.95 47 L 43.95 47 L 43.95 46 L 44.95 46 L 44.95 47 " stroke-width="1" fill="undefined"/>
<path style="fill:#F5E55E;fill-opacity:1" d="M 44.95 46 L 45.95 46 L 45.95 47 L 44.95 47 L 44.95 46 " stroke-width="1" fill="undefined"/>
<path style="fill:#AD7600;fill-opacity:1" d="M 43.95 46 L 42.95 46 L 42.95 45 L 43.95 45 L 43.95 46 " stroke-width="1" fill="undefined"/>
<path style="fill:#F3F3F3;fill-opacity:1" d="M 46.95 50 L 45.95 50 L 45.95 49 L 46.95 49 L 46.95 50 " stroke-width="1" fill="undefined"/>
<path style="fill:#FAFAFA;fill-opacity:1" d="M 45.95 50 L 44.95 50 L 44.95 49 L 45.95 49 L 45.95 50 " stroke-width="1" fill="undefined"/>
<path style="fill:#C8C8C8;fill-opacity:1" d="M 45.95 50 L 46.95 50 L 47.95 50 L 47.95 51 L 46.95 51 L 45.95 51 L 44.95 51 L 43.95 51 L 43.95 50 L 44.95 50 L 45.95 50 " stroke-width="1" fill="undefined"/>
<path style="fill:#484848;fill-opacity:1" d="M 44.95 51 L 45.95 51 L 45.95 52 L 44.95 52 L 44.95 51 " stroke-width="1" fill="undefined"/>
<path style="fill:#5A5A5A;fill-opacity:1" d="M 44.95 52 L 43.95 52 L 43.95 51 L 44.95 51 L 44.95 52 " stroke-width="1" fill="undefined"/>
<path style="fill:#7B7B7B;fill-opacity:1" d="M 41.95 51 L 42.95 51 L 42.95 52 L 41.95 52 L 41.95 51 " stroke-width="1" fill="undefined"/>
<path style="fill:#000000;fill-opacity:0.262745" d="M 43.95 54 L 42.95 54 L 42.95 53 L 43.95 53 L 43.95 54 " stroke-width="1" fill="undefined"/>
<path style="fill:#000000;fill-opacity:0.827451" d="M 46.95 52 L 46.95 53 L 45.95 53 L 45.95 52 L 46.95 52 " stroke-width="1" fill="undefined"/>
<path style="fill:#000000;fill-opacity:0.0509804" d="M 44.95 53 L 45.95 53 L 45.7 53.75 L 44.95 54 L 44.95 53 " stroke-width="1" fill="undefined"/>
<path style="fill:#666666;fill-opacity:1" d="M 43.95 52 L 42.95 52 L 42.95 51 L 43.95 51 L 43.95 52 " stroke-width="1" fill="undefined"/>
<path style="fill:#3C3C3C;fill-opacity:1" d="M 45.95 52 L 45.95 51 L 46.95 51 L 46.95 52 L 45.95 52 " stroke-width="1" fill="undefined"/>
<path style="fill:#EEEFF7;fill-opacity:1" d="M 51.95 49 L 51.95 50 L 50.95 50 L 50.95 49 L 51.95 49 " stroke-width="1" fill="undefined"/>
<path style="fill:#F3F3F4;fill-opacity:1" d="M 49.95 50 L 48.95 50 L 48.95 49 L 49.95 49 L 50.95 49 L 50.95 50 L 49.95 50 " stroke-width="1" fill="undefined"/>
<path style="fill:#909090;fill-opacity:1" d="M 48.95 50 L 49.95 50 L 49.95 51 L 48.95 51 L 48.95 50 " stroke-width="1" fill="undefined"/>
<path style="fill:#EDEDED;fill-opacity:1" d="M 47.95 50 L 46.95 50 L 46.95 49 L 47.95 49 L 48.95 49 L 48.95 50 L 47.95 50 " stroke-width="1" fill="undefined"/>
<path style="fill:#6D6D6D;fill-opacity:1" d="M 49.95 51 L 49.95 50 L 50.95 50 L 50.95 51 L 49.95 51 " stroke-width="1" fill="undefined"/>
<path style="fill:#B3B3B3;fill-opacity:1" d="M 48.95 50 L 48.95 51 L 47.95 51 L 47.95 50 L 48.95 50 " stroke-width="1" fill="undefined"/>
<path style="fill:#4A4A4A;fill-opacity:1" d="M 51.95 51 L 50.95 51 L 50.95 50 L 51.95 50 L 51.95 51 " stroke-width="1" fill="undefined"/>
<path style="fill:#000000;fill-opacity:0.760784" d="M 55.95 51 L 54.95 51 L 54.95 50 L 55.95 50 L 55.95 51 M 47.95 53 L 46.95 53 L 46.95 52 L 47.95 52 L 47.95 53 " stroke-width="1" fill="undefined"/>
<path style="fill:#000000;fill-opacity:0.521569" d="M 49.95 53 L 48.95 53 L 48.95 52 L 49.95 52 L 49.95 53 " stroke-width="1" fill="undefined"/>
<path style="fill:#000000;fill-opacity:0.294118" d="M 55.95 44 L 55.95 43 L 56.7 43.25 L 56.95 44 L 55.95 44 M 49.95 52 L 50.95 52 L 50.95 53 L 49.95 53 L 49.95 52 " stroke-width="1" fill="undefined"/>
<path style="fill:#0E0E0E;fill-opacity:1" d="M 47.95 52 L 47.95 51 L 48.95 51 L 48.95 52 L 47.95 52 " stroke-width="1" fill="undefined"/>
<path style="fill:#FFF9C8;fill-opacity:1" d="M 51.95 49 L 50.95 49 L 50.95 48 L 51.95 48 L 51.95 49 " stroke-width="1" fill="undefined"/>
<path style="fill:#000000;fill-opacity:0.580392" d="M 56.95 48 L 56.95 47 L 57.95 47 L 57.95 48 L 56.95 48 " stroke-width="1" fill="undefined"/>
<path style="fill:#000000;fill-opacity:0.635294" d="M 56.95 49 L 56.95 48 L 57.95 48 L 57.95 49 L 56.95 49 " stroke-width="1" fill="undefined"/>
<path style="fill:#2A2706;fill-opacity:1" d="M 54.95 45 L 54.95 44 L 55.95 44 L 55.95 45 L 54.95 45 " stroke-width="1" fill="undefined"/>
<path style="fill:#554C0C;fill-opacity:1" d="M 54.95 46 L 54.95 45 L 55.95 45 L 55.95 46 L 54.95 46 " stroke-width="1" fill="undefined"/>
<path style="fill:#CEBB1B;fill-opacity:1" d="M 53.95 44 L 53.95 43 L 54.95 43 L 54.95 44 L 53.95 44 " stroke-width="1" fill="undefined"/>
<path style="fill:#FFF49B;fill-opacity:1" d="M 52.95 49 L 51.95 49 L 51.95 48 L 52.95 48 L 52.95 49 " stroke-width="1" fill="undefined"/>
<path style="fill:#FFED4B;fill-opacity:1" d="M 53.95 49 L 52.95 49 L 52.95 48 L 53.95 48 L 53.95 49 " stroke-width="1" fill="undefined"/>
<path style="fill:#71660F;fill-opacity:1" d="M 54.95 47 L 54.95 46 L 55.95 46 L 55.95 47 L 54.95 47 " stroke-width="1" fill="undefined"/>
<path style="fill:#7E7211;fill-opacity:1" d="M 55.95 47 L 55.95 48 L 54.95 48 L 54.95 47 L 55.95 47 " stroke-width="1" fill="undefined"/>
<path style="fill:#3A3508;fill-opacity:1" d="M 55.95 48 L 55.7 48.75 L 54.95 49 L 54.95 48 L 55.95 48 " stroke-width="1" fill="undefined"/>
<path style="fill:#FAE220;fill-opacity:1" d="M 53.95 46 L 53.95 45 L 54.95 45 L 54.95 46 L 53.95 46 " stroke-width="1" fill="undefined"/>
<path style="fill:#2B2915;fill-opacity:1" d="M 53.95 50 L 53.95 49 L 54.95 49 L 54.95 50 L 53.95 50 " stroke-width="1" fill="undefined"/>
<path style="fill:#000000;fill-opacity:0.286275" d="M 53.95 51 L 54.95 51 L 54.7 51.75 L 53.95 52 L 53.95 51 " stroke-width="1" fill="undefined"/>
<path style="fill:#87877F;fill-opacity:1" d="M 53.95 50 L 52.95 50 L 52.95 49 L 53.95 49 L 53.95 50 " stroke-width="1" fill="undefined"/>
<path style="fill:#CFD0DB;fill-opacity:1" d="M 52.95 49 L 52.95 50 L 51.95 50 L 51.95 49 L 52.95 49 " stroke-width="1" fill="undefined"/>
<path style="fill:#000000;fill-opacity:0.627451" d="M 52.95 51 L 53.95 51 L 53.95 52 L 52.95 52 L 52.95 51 " stroke-width="1" fill="undefined"/>
<path style="fill:#121212;fill-opacity:1" d="M 52.95 51 L 51.95 51 L 51.95 50 L 52.95 50 L 52.95 51 " stroke-width="1" fill="undefined"/>
<path style="fill:#000000;fill-opacity:0.803922" d="M 52.95 52 L 51.95 52 L 51.95 51 L 52.95 51 L 52.95 52 " stroke-width="1" fill="undefined"/>
<path style="fill:#805700;fill-opacity:1" d="M 50.95 43 L 50.95 42 L 51.95 42 L 51.95 43 L 50.95 43 " stroke-width="1" fill="undefined"/>
</g>
</svg>