<?xml version="1.0" encoding="utf-8"?><svg xmlns="http://www.w3.org/2000/svg" xmlns:xlink="http://www.w3.org/1999/xlink" xmlns:author="http://www.sothink.com" version="1.1" id="Layer_1" width="30.977359771728516" height="29" xml:space="preserve" viewBox="-0.5 -0.5 30.977359771728516 29">
<g id="33">
<path style="fill:#000000;fill-opacity:0.156863" d="M 6 11 L 5 11 L 5 10 L 6 10 L 6 11 M 11 3 L 11 2 L 12 2 L 12 3 L 11 3 M 5 14 L 4 14 L 4 13 L 5 13 L 5 14 " stroke-width="1" fill="undefined"/>
<path style="fill:#000000;fill-opacity:0.533333" d="M 6 11 L 6 12 L 5 12 L 5 11 L 6 11 M 10 26 L 11 26 L 11 27 L 10 27 L 10 26 " stroke-width="1" fill="undefined"/>
<path style="fill:#000000;fill-opacity:0.886275" d="M 6 13 L 5 13 L 5 12 L 6 12 L 6 13 M 7 24 L 7 23 L 8 23 L 8 24 L 7 24 " stroke-width="1" fill="undefined"/>
<path style="fill:#000000;fill-opacity:0.0980392" d="M 7 9 L 6 9 L 6 8 L 7 8 L 7 9 M 0 16 L 0 15 L 1 15 L 1 16 L 0 16 M 4 16 L 3 16 L 3 15 L 4 15 L 4 16 " stroke-width="1" fill="undefined"/>
<path style="fill:#030303;fill-opacity:0.47451" d="M 2 15 L 3 15 L 3 16 L 2 16 L 2 15 " stroke-width="1" fill="undefined"/>
<path style="fill:#101010;fill-opacity:1" d="M 3 17 L 2 17 L 1 17 L 1 16 L 2 16 L 3 16 L 3 17 " stroke-width="1" fill="undefined"/>
<path style="fill:#080808;fill-opacity:0.745098" d="M 1 15 L 2 15 L 2 16 L 1 16 L 1 15 " stroke-width="1" fill="undefined"/>
<path style="fill:#000000;fill-opacity:0.309804" d="M 27.95 18 L 28.95 18 L 28.95 19 L 27.95 19 L 27.95 18 M 5 14 L 5 15 L 4 15 L 4 14 L 5 14 " stroke-width="1" fill="undefined"/>
<path style="fill:#000000;fill-opacity:0.392157" d="M 5 16 L 4 16 L 4 15 L 5 15 L 5 16 " stroke-width="1" fill="undefined"/>
<path style="fill:#010101;fill-opacity:0.564706" d="M 5 17 L 4 17 L 4 16 L 5 16 L 5 17 " stroke-width="1" fill="undefined"/>
<path style="fill:#233D47;fill-opacity:1" d="M 6 14 L 6 15 L 5 15 L 5 14 L 6 14 M 10 25 L 9 25 L 9 24 L 10 24 L 10 25 " stroke-width="1" fill="undefined"/>
<path style="fill:#2C4B57;fill-opacity:1" d="M 6 16 L 5 16 L 5 15 L 6 15 L 6 16 M 11 6 L 11 5 L 12 5 L 12 6 L 11 6 M 17 8 L 18 8 L 18 9 L 17 9 L 17 8 M 19 11 L 18 11 L 18 10 L 19 10 L 19 11 M 19 27 L 18 27 L 18 26 L 19 26 L 19 27 " stroke-width="1" fill="undefined"/>
<path style="fill:#0D0D0D;fill-opacity:0.933333" d="M 4 17 L 3 17 L 3 16 L 4 16 L 4 17 " stroke-width="1" fill="undefined"/>
<path style="fill:#111E22;fill-opacity:1" d="M 6 14 L 5 14 L 5 13 L 6 13 L 6 14 M 19 26 L 20 26 L 20 27 L 19 27 L 19 26 " stroke-width="1" fill="undefined"/>
<path style="fill:#000000;fill-opacity:0.203922" d="M 8 25 L 7.25 24.75 L 7 24 L 8 24 L 8 25 M 1 17 L 1 18 L 0.25 17.75 L 0 17 L 1 17 " stroke-width="1" fill="undefined"/>
<path style="fill:#101C1F;fill-opacity:1" d="M 6 18 L 6 19 L 5 19 L 5 18 L 6 18 " stroke-width="1" fill="undefined"/>
<path style="fill:#0A0A0A;fill-opacity:0.929412" d="M 4 18 L 4 17 L 5 17 L 5 18 L 5 19 L 4 19 L 4 18 " stroke-width="1" fill="undefined"/>
<path style="fill:#1F353E;fill-opacity:1" d="M 6 17 L 6 18 L 5 18 L 5 17 L 6 17 M 21 25 L 22 25 L 22 26 L 21 26 L 21 25 " stroke-width="1" fill="undefined"/>
<path style="fill:#000000;fill-opacity:0.188235" d="M 5 20 L 4 20 L 4 19 L 5 19 L 5 20 " stroke-width="1" fill="undefined"/>
<path style="fill:#070707;fill-opacity:0.686275" d="M 3 19 L 3 18 L 4 18 L 4 19 L 3 19 " stroke-width="1" fill="undefined"/>
<path style="fill:#050505;fill-opacity:0.603922" d="M 4 17 L 4 18 L 3 18 L 3 17 L 4 17 " stroke-width="1" fill="undefined"/>
<path style="fill:#020202;fill-opacity:0.415686" d="M 2 18 L 1 18 L 1 17 L 2 17 L 3 17 L 3 18 L 2 18 " stroke-width="1" fill="undefined"/>
<path style="fill:#000000;fill-opacity:0.180392" d="M 2 20 L 1 20 L 1 19 L 2 19 L 2 20 " stroke-width="1" fill="undefined"/>
<path style="fill:#000000;fill-opacity:0.0862745" d="M 11 4 L 11 3 L 12 3 L 12 4 L 11 4 M 12 27 L 12 28 L 11.25 27.75 L 11 27 L 12 27 M 7 24 L 6.25 23.75 L 6 23 L 7 23 L 7 24 M 3 18 L 3 19 L 2 19 L 2 18 L 3 18 " stroke-width="1" fill="undefined"/>
<path style="fill:#0C0C0C;fill-opacity:0.886275" d="M 3 20 L 2 20 L 2 19 L 3 19 L 3 20 " stroke-width="1" fill="undefined"/>
<path style="fill:#010101;fill-opacity:0.309804" d="M 2 21 L 1.25 20.75 L 1 20 L 2 20 L 2 21 " stroke-width="1" fill="undefined"/>
<path style="fill:#0A0A0A;fill-opacity:0.803922" d="M 2 20 L 3 20 L 3 21 L 2 21 L 2 20 " stroke-width="1" fill="undefined"/>
<path style="fill:#010101;fill-opacity:0.333333" d="M 3 20 L 4 20 Q 4 20.5 3.75 20.75 L 3 21 L 3 20 " stroke-width="1" fill="undefined"/>
<path style="fill:#000000;fill-opacity:0.639216" d="M 13 2 L 13 1 L 15 1 L 16 1 L 16 2 L 15 2 L 14 2 L 13 2 M 5 21 L 5 20 L 6 20 L 6 21 L 5 21 " stroke-width="1" fill="undefined"/>
<path style="fill:#000000;fill-opacity:0.192157" d="M 6 21 L 6 22 L 5.25 21.75 L 5 21 L 6 21 " stroke-width="1" fill="undefined"/>
<path style="fill:#0E0E0E;fill-opacity:0.968627" d="M 4 19 L 4 20 L 3 20 L 3 19 L 4 19 " stroke-width="1" fill="undefined"/>
<path style="fill:#000000;fill-opacity:0.933333" d="M 5 20 L 5 19 L 6 19 L 6 20 L 5 20 " stroke-width="1" fill="undefined"/>
<path style="fill:#020202;fill-opacity:0.392157" d="M 1 16 L 1 17 L 0 17 L 0 16 L 1 16 " stroke-width="1" fill="undefined"/>
<path style="fill:#294550;fill-opacity:1" d="M 5 17 L 5 16 L 6 16 L 6 17 L 5 17 " stroke-width="1" fill="undefined"/>
<path style="fill:#000000;fill-opacity:0.298039" d="M 17 1 L 16 1 L 16 0 L 17 0 L 17 1 M 26.95 13 L 26.95 12 L 27.95 12 L 27.95 13 L 26.95 13 " stroke-width="1" fill="undefined"/>
<path style="fill:#000000;fill-opacity:0.321569" d="M 13 2 L 12 2 L 12 1 L 13 1 L 13 2 " stroke-width="1" fill="undefined"/>
<path style="fill:#010303;fill-opacity:0.898039" d="M 12 4 L 12 3 L 13 3 L 13 4 L 12 4 " stroke-width="1" fill="undefined"/>
<path style="fill:#080E10;fill-opacity:1" d="M 12 2 L 13 2 L 13 3 L 12 3 L 12 2 M 13 5 L 12 5 L 12 4 L 13 4 L 13 5 " stroke-width="1" fill="undefined"/>
<path style="fill:#437385;fill-opacity:1" d="M 14 2 L 14 3 L 13 3 L 13 2 L 14 2 M 15 18 L 15 19 L 14.25 18.75 L 14 18 L 15 18 " stroke-width="1" fill="undefined"/>
<path style="fill:#386171;fill-opacity:1" d="M 14 3 L 14 4 L 13 4 L 13 3 L 14 3 " stroke-width="1" fill="undefined"/>
<path style="fill:#315563;fill-opacity:1" d="M 15 2 L 16 2 L 16 3 L 15 3 L 15 2 M 22 9 L 21 9 L 21 8 L 22 8 L 22 9 " stroke-width="1" fill="undefined"/>
<path style="fill:#5C9FB8;fill-opacity:1" d="M 15 3 L 15 4 L 14 4 L 14 3 L 15 3 M 12.75 5.75 Q 12.5 6 12 6 L 12 5 L 13 5 Q 13 5.5 12.75 5.75 M 20 9 L 20 8 L 21 8 L 21 9 L 20 9 " stroke-width="1" fill="undefined"/>
<path style="fill:#5FA3BD;fill-opacity:1" d="M 17 3 L 17 4 L 16 4 L 16 3 L 17 3 M 18 9 L 18 8 L 18.75 8.25 L 19 9 L 18 9 M 10 25 L 10 24 Q 10.5 24 10.75 24.25 Q 11 24.5 11 25 L 10 25 " stroke-width="1" fill="undefined"/>
<path style="fill:#62A9C4;fill-opacity:1" d="M 15 3 L 16 3 L 16 4 L 15 4 L 15 3 M 17 9 L 17.25 9.75 Q 17.5 10 18 10 L 18 11 L 17 11 L 16 11 L 15 11 Q 15 10.5 14.75 10.25 L 14 10 L 14 9 L 15 9 L 16 9 L 17 9 M 19 2 L 19 3 L 20 3 L 20 4 L 19 4 L 19 3 L 18 3 L 18 2 L 19 2 M 24.95 19 L 25.95 19 L 25.95 20 L 24.95 20 L 24.95 19 " stroke-width="1" fill="undefined"/>
<path style="fill:#355B6A;fill-opacity:1" d="M 15 5 L 15 4 L 16 4 L 16 5 L 15 5 M 13 15 L 13 16 L 12.25 15.75 L 12 15 L 13 15 M 23.95 20 L 22.95 20 L 22.95 19 L 23.95 19 L 23.95 20 " stroke-width="1" fill="undefined"/>
<path style="fill:#45778A;fill-opacity:1" d="M 15 3 L 14 3 L 14 2 L 15 2 L 15 3 " stroke-width="1" fill="undefined"/>
<path style="fill:#2D4F5C;fill-opacity:1" d="M 14 5 L 14 4 L 15 4 L 15 5 L 14 5 " stroke-width="1" fill="undefined"/>
<path style="fill:#091011;fill-opacity:1" d="M 17 2 L 17 3 L 16 3 L 16 2 L 16 1 L 17 1 L 17 2 " stroke-width="1" fill="undefined"/>
<path style="fill:#203741;fill-opacity:1" d="M 14 5 L 13 5 L 13 4 L 14 4 L 14 5 " stroke-width="1" fill="undefined"/>
<path style="fill:#000000;fill-opacity:0.121569" d="M 11 5 L 10 5 L 10 4 L 11 4 L 11 5 M 28.95 18 L 28.95 17 Q 30.6 16.9 29.6 18.8 Q 29.45 19 28.95 19 L 28.95 18 " stroke-width="1" fill="undefined"/>
<path style="fill:#000304;fill-opacity:0.956863" d="M 11 6 L 10 6 L 10 5 L 11 5 L 11 6 " stroke-width="1" fill="undefined"/>
<path style="fill:#05090B;fill-opacity:0.980392" d="M 10 6 L 10 7 L 9 7 L 9 6 L 10 6 " stroke-width="1" fill="undefined"/>
<path style="fill:#000000;fill-opacity:0.368627" d="M 8 7 L 8 6 L 9 6 L 9 7 L 8 7 " stroke-width="1" fill="undefined"/>
<path style="fill:#4A7F93;fill-opacity:1" d="M 10.75 6.75 Q 10.5 7 10 7 L 10 6 L 11 6 Q 11 6.5 10.75 6.75 " stroke-width="1" fill="undefined"/>
<path style="fill:#61A8C3;fill-opacity:1" d="M 6 16 L 6 15 L 6 14 L 6 13 Q 6.5 13 6.75 12.75 Q 7 12.5 7 12 L 7 11 Q 7.5 11 7.75 10.75 Q 8 10.5 8 10 L 8 9 Q 8.5 9 8.75 8.75 Q 9 8.5 9 8 Q 9.5 8 9.75 7.75 Q 10 7.5 10 7 Q 10.5 7 10.75 6.75 Q 11 6.5 11 6 L 12 6 Q 12.5 6 12.75 5.75 Q 13 5.5 13 5 L 14 5 L 15 5 L 16 5 L 17 5 L 18 5 Q 19 5 19.8 4.6 L 20 4 L 21 4 L 21 5 Q 21 5.5 21.25 5.75 Q 21.5 6 22 6 Q 22 6.5 22.25 6.75 Q 22.5 7 22.95 7 L 22.95 8 L 22 8 L 21 8 L 20 8 L 20 9 L 19 9 L 18.75 8.25 L 18 8 L 17 8 L 16 8 L 15 8 L 14 8 L 13 8 L 12 8 L 12 9 L 11 9 L 11 10 L 11 11 L 11 12 L 11 13 L 11 14 L 11.25 14.75 Q 11.5 15 12 15 L 12.25 15.75 L 13 16 L 13 17 L 13.25 17.75 L 14 18 L 14.25 18.75 L 15 19 L 15.25 19.75 L 16 20 L 16.25 20.75 L 17 21 L 18 21 Q 18.5 21.5 19 21.5 L 19 21 L 20 21 L 21 21 L 21.75 20.75 L 22 20 L 22.95 20 L 23.95 20 L 24.95 20 L 24.95 21 L 24.95 22 L 23.95 22 L 23.95 23 L 22.95 23 L 22.95 24 L 22 24 L 22 25 L 21 25 L 20 25 L 20 26 L 19 26 L 18 26 L 17 26 L 14 26 L 13 26 L 12 26 Q 12 25.5 11.75 25.25 Q 11.5 25 11 25 Q 11 24.5 10.75 24.25 Q 10.5 24 10 24 L 9 24 Q 9 23.5 8.75 23.25 Q 8.5 23 8 23 L 8 22 Q 8 21.5 7.75 21.25 Q 7.5 21 7 21 L 7 20 Q 7 19.5 6.75 19.25 Q 6.5 19 6 19 L 6 18 L 6 17 L 6 16 M 23.2 9.75 Q 23.45 10 23.95 10 L 24.95 10 L 24.95 11 L 23.95 11 L 22.95 11 L 22 11 L 21 11 L 21 10 L 21.75 9.75 L 22 9 L 22.95 9 Q 22.95 9.5 23.2 9.75 " stroke-width="1" fill="undefined"/>
<path style="fill:#000000;fill-opacity:0.262745" d="M 10 6 L 9 6 L 9 5 L 10 5 L 10 6 M 24.95 23 L 25.95 23 L 25.7 23.75 L 24.95 24 L 24.95 23 " stroke-width="1" fill="undefined"/>
<path style="fill:#518BA1;fill-opacity:1" d="M 9.75 7.75 Q 9.5 8 9 8 L 9 7 L 10 7 Q 10 7.5 9.75 7.75 M 20 2 L 20 3 L 19 3 L 19 2 L 20 2 M 22.95 24 L 22.95 23 L 23.95 23 L 23.95 24 L 22.95 24 " stroke-width="1" fill="undefined"/>
<path style="fill:#000000;fill-opacity:0.239216" d="M 7 8 L 7 7 L 8 7 L 8 8 L 7 8 M 18 1 L 18 0 L 18.75 0.25 L 19 1 L 18 1 " stroke-width="1" fill="undefined"/>
<path style="fill:#4C8398;fill-opacity:1" d="M 9 8 Q 9 8.5 8.75 8.75 Q 8.5 9 8 9 L 8 8 L 9 8 M 21.75 20.75 L 21 21 L 21 20 L 22 20 L 21.75 20.75 " stroke-width="1" fill="undefined"/>
<path style="fill:#010404;fill-opacity:0.921569" d="M 7 9 L 7 8 L 8 8 L 8 9 L 7 9 " stroke-width="1" fill="undefined"/>
<path style="fill:#000000;fill-opacity:0.603922" d="M 7 9 L 7 10 L 6 10 L 6 9 L 7 9 " stroke-width="1" fill="undefined"/>
<path style="fill:#080F12;fill-opacity:0.992157" d="M 7 11 L 6 11 L 6 10 L 7 10 L 7 11 " stroke-width="1" fill="undefined"/>
<path style="fill:#2E4F5C;fill-opacity:1" d="M 7 10 L 7 9 L 8 9 L 8 10 L 7 10 M 20 21 L 20 20 L 21 20 L 21 21 L 20 21 " stroke-width="1" fill="undefined"/>
<path style="fill:#5DA1BB;fill-opacity:1" d="M 7 10 L 8 10 Q 8 10.5 7.75 10.75 Q 7.5 11 7 11 L 7 10 M 12 10 L 11 10 L 11 9 L 12 9 L 12 10 " stroke-width="1" fill="undefined"/>
<path style="fill:#080E10;fill-opacity:0.980392" d="M 9 8 L 8 8 L 8 7 L 9 7 L 9 8 " stroke-width="1" fill="undefined"/>
<path style="fill:#5491A8;fill-opacity:1" d="M 13 9 L 12 9 L 12 8 L 13 8 L 13 9 M 17 20 L 17 21 L 16.25 20.75 L 16 20 L 17 20 " stroke-width="1" fill="undefined"/>
<path style="fill:#131F24;fill-opacity:1" d="M 12 10 L 12 9 L 13 9 L 13 10 L 12 10 M 24.95 12 L 24.95 11 L 25.95 11 L 25.95 12 L 24.95 12 " stroke-width="1" fill="undefined"/>
<path style="fill:#305260;fill-opacity:1" d="M 12 10 L 13 10 L 13 11 L 12 11 L 12 10 " stroke-width="1" fill="undefined"/>
<path style="fill:#223C45;fill-opacity:1" d="M 14 9 L 13 9 L 13 8 L 14 8 L 14 9 " stroke-width="1" fill="undefined"/>
<path style="fill:#4E889E;fill-opacity:1" d="M 14 9 L 14 10 L 14 11 L 13 11 L 13 10 L 13 9 L 14 9 " stroke-width="1" fill="undefined"/>
<path style="fill:#16252C;fill-opacity:1" d="M 14 8 L 15 8 L 16 8 L 16 9 L 15 9 L 14 9 L 14 8 " stroke-width="1" fill="undefined"/>
<path style="fill:#5999B1;fill-opacity:1" d="M 14 11 L 14 10 L 14.75 10.25 Q 15 10.5 15 11 L 14 11 " stroke-width="1" fill="undefined"/>
<path style="fill:#192B30;fill-opacity:1" d="M 17 9 L 16 9 L 16 8 L 17 8 L 17 9 " stroke-width="1" fill="undefined"/>
<path style="fill:#000000;fill-opacity:0.662745" d="M 21 26 L 22 26 L 22 27 L 21 27 L 21 26 M 6 23 L 6 22 L 7 22 L 7 23 L 6 23 M 11 5 L 11 4 L 12 4 L 12 5 L 11 5 " stroke-width="1" fill="undefined"/>
<path style="fill:#386272;fill-opacity:1" d="M 12 11 L 11 11 L 11 10 L 12 10 L 12 11 " stroke-width="1" fill="undefined"/>
<path style="fill:#4B8196;fill-opacity:1" d="M 17 5 L 16 5 L 16 4 L 17 4 L 17 5 M 20 3 L 21 3 L 21 4 L 20 4 L 20 3 M 14 17 L 14 18 L 13.25 17.75 L 13 17 L 14 17 " stroke-width="1" fill="undefined"/>
<path style="fill:#000000;fill-opacity:0.45098" d="M 22 5 L 22 4 L 22.7 4.25 L 22.95 5 L 22 5 M 27.95 17 L 27.95 16 L 28.7 16.25 L 28.95 17 L 27.95 17 M 25.95 21 L 26.95 21 L 26.7 21.75 L 25.95 22 L 25.95 21 " stroke-width="1" fill="undefined"/>
<path style="fill:#000000;fill-opacity:0.447059" d="M 21 4 L 21 3 L 21.75 3.25 L 22 4 L 21 4 " stroke-width="1" fill="undefined"/>
<path style="fill:#040708;fill-opacity:0.72549" d="M 20 2 L 19 2 L 19 1 L 20 1 L 20 2 " stroke-width="1" fill="undefined"/>
<path style="fill:#000000;fill-opacity:0.0509804" d="M 20 1 L 20.75 1.25 L 21 2 L 20 2 L 20 1 " stroke-width="1" fill="undefined"/>
<path style="fill:#000000;fill-opacity:0.47451" d="M 18 1 L 17 1 L 17 0 L 18 0 L 18 1 " stroke-width="1" fill="undefined"/>
<path style="fill:#3A6575;fill-opacity:1" d="M 18 2 L 17 2 L 17 1 L 18 1 L 18 2 " stroke-width="1" fill="undefined"/>
<path style="fill:#5B9DB6;fill-opacity:1" d="M 18 4 L 18 3 L 17 3 L 17 2 L 18 2 L 18 3 L 19 3 L 19 4 L 18 4 M 20 10 L 19 10 L 19 9 L 20 9 L 20 10 M 23.95 19 L 24.95 19 L 24.95 20 L 23.95 20 L 23.95 19 M 7 22 L 7 21 Q 7.5 21 7.75 21.25 Q 8 21.5 8 22 L 7 22 " stroke-width="1" fill="undefined"/>
<path style="fill:#28444F;fill-opacity:1" d="M 18 3 L 18 4 L 17 4 L 17 3 L 18 3 " stroke-width="1" fill="undefined"/>
<path style="fill:#5A9BB4;fill-opacity:1" d="M 18 5 L 17 5 L 17 4 L 18 4 L 18 5 M 23.95 10 Q 23.45 10 23.2 9.75 Q 22.95 9.5 22.95 9 L 23.7 9.25 L 23.95 10 M 24.95 21 L 24.95 20 L 25.95 20 L 25.95 21 L 24.95 21 " stroke-width="1" fill="undefined"/>
<path style="fill:#070D0F;fill-opacity:0.721569" d="M 20 2 L 21 2 L 21 3 L 20 3 L 20 2 " stroke-width="1" fill="undefined"/>
<path style="fill:#4E869C;fill-opacity:1" d="M 18 4 L 19 4 L 20 4 L 19.8 4.6 Q 19 5 18 5 L 18 4 " stroke-width="1" fill="undefined"/>
<path style="fill:#2F515E;fill-opacity:1" d="M 18 12 L 17 12 L 17 11 L 18 11 L 18 12 M 18 2 L 18 1 L 19 1 L 19 2 L 18 2 M 8 24 L 8 23 Q 8.5 23 8.75 23.25 Q 9 23.5 9 24 L 8 24 " stroke-width="1" fill="undefined"/>
<path style="fill:#233D45;fill-opacity:1" d="M 19 9 L 19 10 L 18 10 L 18 9 L 19 9 " stroke-width="1" fill="undefined"/>
<path style="fill:#406F81;fill-opacity:1" d="M 18 10 Q 17.5 10 17.25 9.75 L 17 9 L 18 9 L 18 10 " stroke-width="1" fill="undefined"/>
<path style="fill:#18292F;fill-opacity:1" d="M 20 9 L 21 9 L 21 10 L 20 10 L 20 9 " stroke-width="1" fill="undefined"/>
<path style="fill:#46798C;fill-opacity:1" d="M 20 10 L 21 10 L 21 11 L 20 11 L 20 10 M 12 14 L 12 15 Q 11.5 15 11.25 14.75 L 11 14 L 12 14 " stroke-width="1" fill="undefined"/>
<path style="fill:#4F899F;fill-opacity:1" d="M 21.75 9.75 L 21 10 L 21 9 L 22 9 L 21.75 9.75 " stroke-width="1" fill="undefined"/>
<path style="fill:#28434D;fill-opacity:1" d="M 19 10 L 20 10 L 20 11 L 19 11 L 19 10 " stroke-width="1" fill="undefined"/>
<path style="fill:#000000;fill-opacity:0.286275" d="M 24.95 8 L 24.95 7 L 25.7 7.25 L 25.95 8 L 24.95 8 " stroke-width="1" fill="undefined"/>
<path style="fill:#000000;fill-opacity:0.580392" d="M 23.95 7 L 23.95 6 L 24.7 6.25 L 24.95 7 L 23.95 7 M 27.95 14 L 27.95 15 L 26.95 15 L 26.95 14 L 27.95 14 " stroke-width="1" fill="undefined"/>
<path style="fill:#050809;fill-opacity:1" d="M 23.95 8 L 23.95 7 L 24.95 7 L 24.95 8 L 23.95 8 " stroke-width="1" fill="undefined"/>
<path style="fill:#0A1215;fill-opacity:1" d="M 22 5 L 22.95 5 L 22.95 6 L 23.95 6 L 23.95 7 L 22.95 7 L 22.95 6 L 22 6 L 22 5 M 24.95 10 L 24.95 9 L 25.95 9 L 25.95 10 L 24.95 10 " stroke-width="1" fill="undefined"/>
<path style="fill:#000000;fill-opacity:0.65098" d="M 22.95 6 L 22.95 5 L 23.7 5.25 L 23.95 6 L 22.95 6 " stroke-width="1" fill="undefined"/>
<path style="fill:#5695AD;fill-opacity:1" d="M 6 13 L 6 12 L 7 12 Q 7 12.5 6.75 12.75 Q 6.5 13 6 13 M 22.95 6 L 22.95 7 Q 22.5 7 22.25 6.75 Q 22 6.5 22 6 L 22.95 6 M 6 19 Q 6.5 19 6.75 19.25 Q 7 19.5 7 20 L 6 20 L 6 19 " stroke-width="1" fill="undefined"/>
<path style="fill:#5693AB;fill-opacity:1" d="M 22 5 L 22 6 Q 21.5 6 21.25 5.75 Q 21 5.5 21 5 L 22 5 " stroke-width="1" fill="undefined"/>
<path style="fill:#28434E;fill-opacity:1" d="M 22.95 9 L 22 9 L 22 8 L 22.95 8 L 22.95 9 " stroke-width="1" fill="undefined"/>
<path style="fill:#2C4A57;fill-opacity:1" d="M 24.95 10 L 23.95 10 L 23.7 9.25 L 22.95 9 L 22.95 8 L 23.95 8 L 24.95 8 L 24.95 9 L 24.95 10 " stroke-width="1" fill="undefined"/>
<path style="fill:#000000;fill-opacity:0.862745" d="M 24.95 9 L 24.95 8 L 25.95 8 L 25.95 9 L 24.95 9 M 10 26 L 9 26 L 9 25 L 10 25 L 10 26 " stroke-width="1" fill="undefined"/>
<path style="fill:#17282D;fill-opacity:1" d="M 24.95 11 L 24.95 10 L 25.95 10 L 25.95 11 L 24.95 11 " stroke-width="1" fill="undefined"/>
<path style="fill:#000000;fill-opacity:0.403922" d="M 25.95 10 L 25.95 9 L 26.7 9.25 L 26.95 10 L 25.95 10 M 23.95 24 L 24.95 24 L 24.7 24.75 L 23.95 25 L 23.95 24 " stroke-width="1" fill="undefined"/>
<path style="fill:#528DA4;fill-opacity:1" d="M 23.95 7 L 23.95 8 L 22.95 8 L 22.95 7 L 23.95 7 M 19 21 L 19 21.5 Q 18.5 21.5 18 21 L 19 21 " stroke-width="1" fill="undefined"/>
<path style="fill:#213B44;fill-opacity:1" d="M 21 5 L 21 4 L 22 4 L 22 5 L 21 5 " stroke-width="1" fill="undefined"/>
<path style="fill:#000000;fill-opacity:0.8" d="M 25.95 11 L 25.95 10 L 26.95 10 L 26.95 11 L 25.95 11 " stroke-width="1" fill="undefined"/>
<path style="fill:#000000;fill-opacity:0.498039" d="M 26.95 13 L 27.95 13 L 27.95 14 L 26.95 14 L 26.95 13 " stroke-width="1" fill="undefined"/>
<path style="fill:#020505;fill-opacity:1" d="M 25.95 13 L 25.95 12 L 25.95 11 L 26.95 11 L 26.95 12 L 26.95 13 L 25.95 13 " stroke-width="1" fill="undefined"/>
<path style="fill:#000000;fill-opacity:0.0745098" d="M 26.95 12 L 26.95 11 L 27.7 11.25 L 27.95 12 L 26.95 12 " stroke-width="1" fill="undefined"/>
<path style="fill:#243E48;fill-opacity:1" d="M 25.95 15 L 25.95 14 L 26.95 14 L 26.95 15 L 25.95 15 " stroke-width="1" fill="undefined"/>
<path style="fill:#000000;fill-opacity:0.796078" d="M 26.95 16 L 26.95 15 L 27.95 15 L 27.95 16 L 26.95 16 " stroke-width="1" fill="undefined"/>
<path style="fill:#523902;fill-opacity:1" d="M 25.95 16 L 25.95 15 L 26.95 15 L 26.95 16 L 25.95 16 " stroke-width="1" fill="undefined"/>
<path style="fill:#7D5500;fill-opacity:1" d="M 26.95 16 L 27.95 16 L 27.95 17 L 26.95 17 L 26.95 16 M 20 17 L 19 17 L 19 16 L 20 16 L 20 17 " stroke-width="1" fill="undefined"/>
<path style="fill:#0C0D0E;fill-opacity:1" d="M 25.95 13 L 26.95 13 L 26.95 14 L 25.95 14 L 25.95 13 " stroke-width="1" fill="undefined"/>
<path style="fill:#291C00;fill-opacity:0.992157" d="M 27.95 18 L 27.95 17 L 28.95 17 L 28.95 18 L 27.95 18 " stroke-width="1" fill="undefined"/>
<path style="fill:#654500;fill-opacity:1" d="M 26.95 18 L 26.95 17 L 27.95 17 L 27.95 18 L 26.95 18 M 24.95 18 L 23.95 18 L 23.95 17 L 24.95 17 L 24.95 18 " stroke-width="1" fill="undefined"/>
<path style="fill:#000000;fill-opacity:0.509804" d="M 26.95 18 L 27.95 18 L 27.95 19 L 26.95 19 L 26.95 18 " stroke-width="1" fill="undefined"/>
<path style="fill:#345A68;fill-opacity:1" d="M 25.95 19 L 25.95 18 L 26.95 18 L 26.95 19 L 25.95 19 " stroke-width="1" fill="undefined"/>
<path style="fill:#4D3604;fill-opacity:1" d="M 25.95 18 L 25.95 17 L 26.95 17 L 26.95 18 L 25.95 18 " stroke-width="1" fill="undefined"/>
<path style="fill:#000000;fill-opacity:0.227451" d="M 26.95 19 L 27.95 19 L 27.7 19.75 L 26.95 20 L 26.95 19 " stroke-width="1" fill="undefined"/>
<path style="fill:#010303;fill-opacity:0.901961" d="M 25.95 21 L 25.95 20 L 26.95 20 L 26.95 21 L 25.95 21 " stroke-width="1" fill="undefined"/>
<path style="fill:#1D3139;fill-opacity:1" d="M 25.95 19 L 26.95 19 L 26.95 20 L 25.95 20 L 25.95 19 " stroke-width="1" fill="undefined"/>
<path style="fill:#FEAC00;fill-opacity:1" d="M 22 13 Q 22 13.5 22.25 13.75 Q 22.5 14 22.95 14 L 23.95 14 Q 23.95 14.5 24.2 14.75 Q 24.45 15 24.95 15 Q 24.95 15.5 25.2 15.75 L 25.95 16 L 26.95 16 L 26.95 17 L 25.95 17 L 24.95 17 L 23.95 17 L 23.7 16.25 L 22.95 16 L 22 16 L 21 16 L 20 16 L 19 16 L 18 16 L 15 16 L 15 15 Q 15.5 15 15.75 14.75 Q 16 14.5 16 14 L 17 14 Q 17.5 14 17.75 13.75 Q 18 13.5 18 13 L 19 13 L 20 13 L 21 13 L 22 13 M 16 19 L 16 18 L 16 17 L 17 17 L 18 17 Q 17.85 18.65 20 18.15 L 21 18 L 22 18 L 22.95 18 L 22.95 19 L 22 19 L 21 19 L 20 19 L 20 20 L 19 20 L 18 20 Q 18 19.5 17.75 19.25 Q 17.5 19 17 19 L 16 19 " stroke-width="1" fill="undefined"/>
<path style="fill:#221611;fill-opacity:1" d="M 24.95 12 L 23.95 12 L 23.95 11 L 24.95 11 L 24.95 12 " stroke-width="1" fill="undefined"/>
<path style="fill:#D05123;fill-opacity:1" d="M 23.95 12 L 24.95 12 L 24.95 13 L 23.95 13 L 23.95 12 M 14 12 L 15 12 L 16 12 L 16 13 L 15 13 L 15 14 L 14 14 L 14 15 L 13 15 Q 13 14.5 12.75 14.25 L 12 14 L 12 13 L 12 12 L 13 12 L 14 12 " stroke-width="1" fill="undefined"/>
<path style="fill:#461C0C;fill-opacity:1" d="M 22.95 12 L 22.95 11 L 23.95 11 L 23.95 12 L 22.95 12 " stroke-width="1" fill="undefined"/>
<path style="fill:#5C2410;fill-opacity:1" d="M 24.95 14 L 23.95 14 L 23.95 13 L 24.95 13 L 24.95 14 " stroke-width="1" fill="undefined"/>
<path style="fill:#A13F1C;fill-opacity:1" d="M 24.95 13 L 24.95 12 L 25.95 12 L 25.95 13 L 24.95 13 " stroke-width="1" fill="undefined"/>
<path style="fill:#B9481F;fill-opacity:1" d="M 22.95 13 L 22.95 12 L 23.95 12 L 23.95 13 L 22.95 13 " stroke-width="1" fill="undefined"/>
<path style="fill:#C14B21;fill-opacity:1" d="M 24.95 14 L 24.95 13 L 25.95 13 L 25.95 14 L 24.95 14 " stroke-width="1" fill="undefined"/>
<path style="fill:#5A2310;fill-opacity:1" d="M 22.95 12 L 22.95 13 L 22 13 L 22 12 L 22.95 12 " stroke-width="1" fill="undefined"/>
<path style="fill:#CF8C00;fill-opacity:1" d="M 22.95 14 Q 22.5 14 22.25 13.75 Q 22 13.5 22 13 L 22.95 13 L 22.95 14 " stroke-width="1" fill="undefined"/>
<path style="fill:#3E2801;fill-opacity:1" d="M 21 13 L 21 12 L 22 12 L 22 13 L 21 13 " stroke-width="1" fill="undefined"/>
<path style="fill:#301308;fill-opacity:1" d="M 22.95 12 L 22 12 L 22 11 L 22.95 11 L 22.95 12 " stroke-width="1" fill="undefined"/>
<path style="fill:#221E1D;fill-opacity:1" d="M 21 12 L 21 11 L 22 11 L 22 12 L 21 12 " stroke-width="1" fill="undefined"/>
<path style="fill:#C58600;fill-opacity:1" d="M 22.95 17 L 22 17 L 22 16 L 22.95 16 L 22.95 17 " stroke-width="1" fill="undefined"/>
<path style="fill:#E19900;fill-opacity:1" d="M 22.95 17 L 22.95 16 L 23.7 16.25 L 23.95 17 L 22.95 17 M 17 19 Q 17.5 19 17.75 19.25 Q 18 19.5 18 20 L 17 20 L 17 19 " stroke-width="1" fill="undefined"/>
<path style="fill:#2C1C02;fill-opacity:1" d="M 24.95 15 L 24.95 14 L 25.95 14 L 25.95 15 L 24.95 15 " stroke-width="1" fill="undefined"/>
<path style="fill:#B67C00;fill-opacity:1" d="M 24.2 14.75 Q 23.95 14.5 23.95 14 L 24.95 14 L 24.95 15 Q 24.45 15 24.2 14.75 " stroke-width="1" fill="undefined"/>
<path style="fill:#F0A300;fill-opacity:1" d="M 25.2 15.75 Q 24.95 15.5 24.95 15 L 25.95 15 L 25.95 16 L 25.2 15.75 M 15 17 L 16 17 L 16 18 L 15 18 L 15 17 " stroke-width="1" fill="undefined"/>
<path style="fill:#452E00;fill-opacity:1" d="M 22.95 14 L 22.95 13 L 23.95 13 L 23.95 14 L 22.95 14 " stroke-width="1" fill="undefined"/>
<path style="fill:#15232A;fill-opacity:1" d="M 21 12 L 20 12 L 20 11 L 21 11 L 21 12 " stroke-width="1" fill="undefined"/>
<path style="fill:#775100;fill-opacity:1" d="M 21 13 L 20 13 L 20 12 L 21 12 L 21 13 " stroke-width="1" fill="undefined"/>
<path style="fill:#0B1316;fill-opacity:1" d="M 20 11 L 20 12 L 19 12 L 19 11 L 20 11 " stroke-width="1" fill="undefined"/>
<path style="fill:#2A4652;fill-opacity:1" d="M 18 12 L 18 11 L 19 11 L 19 12 L 18 12 " stroke-width="1" fill="undefined"/>
<path style="fill:#A47000;fill-opacity:1" d="M 19 12 L 20 12 L 20 13 L 19 13 L 19 12 M 17 13 L 18 13 Q 18 13.5 17.75 13.75 Q 17.5 14 17 14 L 17 13 " stroke-width="1" fill="undefined"/>
<path style="fill:#362500;fill-opacity:1" d="M 19 12 L 19 13 L 18 13 L 18 12 L 19 12 " stroke-width="1" fill="undefined"/>
<path style="fill:#242A2B;fill-opacity:1" d="M 16 12 L 16 11 L 17 11 L 17 12 L 16 12 " stroke-width="1" fill="undefined"/>
<path style="fill:#411A0C;fill-opacity:1" d="M 17 12 L 18 12 L 18 13 L 17 13 L 17 12 " stroke-width="1" fill="undefined"/>
<path style="fill:#C94E22;fill-opacity:1" d="M 16 13 L 16 12 L 17 12 L 17 13 L 16 13 " stroke-width="1" fill="undefined"/>
<path style="fill:#986700;fill-opacity:1" d="M 20 16 L 21 16 L 22 16 L 22 17 L 22.95 17 L 22.95 18 L 22 18 L 22 17 L 21 17 L 20 17 L 20 16 " stroke-width="1" fill="undefined"/>
<path style="fill:#644400;fill-opacity:1" d="M 15 17 L 14 17 L 14 16 L 15 16 L 18 16 L 19 16 L 19 17 L 18 17 L 17 17 L 16 17 L 15 17 " stroke-width="1" fill="undefined"/>
<path style="fill:#391F05;fill-opacity:1" d="M 17 13 L 17 14 L 16 14 L 16 13 L 17 13 " stroke-width="1" fill="undefined"/>
<path style="fill:#A16E00;fill-opacity:1" d="M 22 17 L 22 18 L 21 18 L 21 17 L 22 17 " stroke-width="1" fill="undefined"/>
<path style="fill:#CD8A00;fill-opacity:1" d="M 20 18.15 Q 17.85 18.65 18 17 L 19 17 L 20 17 L 21 17 L 21 18 L 20 18.15 " stroke-width="1" fill="undefined"/>
<path style="fill:#D59000;fill-opacity:1" d="M 21 20 L 20 20 L 20 19 L 21 19 L 21 20 " stroke-width="1" fill="undefined"/>
<path style="fill:#242C23;fill-opacity:1" d="M 17 20 L 18 20 L 18 21 L 17 21 L 17 20 " stroke-width="1" fill="undefined"/>
<path style="fill:#593D00;fill-opacity:1" d="M 24.95 18 L 24.95 17 L 25.95 17 L 25.95 18 L 24.95 18 M 19 21 L 18 21 L 18 20 L 19 20 L 19 21 " stroke-width="1" fill="undefined"/>
<path style="fill:#222115;fill-opacity:1" d="M 19 20 L 20 20 L 20 21 L 19 21 L 19 20 " stroke-width="1" fill="undefined"/>
<path style="fill:#3D2E09;fill-opacity:1" d="M 17 19 L 17 20 L 16 20 L 16 19 L 17 19 " stroke-width="1" fill="undefined"/>
<path style="fill:#865B00;fill-opacity:1" d="M 22 20 L 21 20 L 21 19 L 22 19 L 22 20 " stroke-width="1" fill="undefined"/>
<path style="fill:#7C5604;fill-opacity:1" d="M 24.95 19 L 23.95 19 L 23.95 18 L 24.95 18 L 24.95 19 " stroke-width="1" fill="undefined"/>
<path style="fill:#895D00;fill-opacity:1" d="M 23.95 18 L 22.95 18 L 22.95 17 L 23.95 17 L 23.95 18 " stroke-width="1" fill="undefined"/>
<path style="fill:#375152;fill-opacity:1" d="M 24.95 19 L 24.95 18 L 25.95 18 L 25.95 19 L 24.95 19 " stroke-width="1" fill="undefined"/>
<path style="fill:#DE9600;fill-opacity:1" d="M 23.95 18 L 23.95 19 L 22.95 19 L 22.95 18 L 23.95 18 " stroke-width="1" fill="undefined"/>
<path style="fill:#443712;fill-opacity:1" d="M 22.95 20 L 22 20 L 22 19 L 22.95 19 L 22.95 20 " stroke-width="1" fill="undefined"/>
<path style="fill:#487D91;fill-opacity:1" d="M 23.95 23 L 23.95 22 L 24.95 22 L 24.95 23 L 23.95 23 " stroke-width="1" fill="undefined"/>
<path style="fill:#2B4955;fill-opacity:1" d="M 24.95 21 L 25.95 21 L 25.95 22 L 24.95 22 L 24.95 21 " stroke-width="1" fill="undefined"/>
<path style="fill:#000000;fill-opacity:0.898039" d="M 24.95 23 L 24.95 22 L 25.95 22 L 25.95 23 L 24.95 23 " stroke-width="1" fill="undefined"/>
<path style="fill:#4D1F0E;fill-opacity:1" d="M 16 12 L 15 12 L 15 11 L 16 11 L 16 12 " stroke-width="1" fill="undefined"/>
<path style="fill:#662912;fill-opacity:1" d="M 15 11 L 15 12 L 14 12 L 14 11 L 15 11 " stroke-width="1" fill="undefined"/>
<path style="fill:#7C3016;fill-opacity:1" d="M 13 12 L 13 11 L 14 11 L 14 12 L 13 12 " stroke-width="1" fill="undefined"/>
<path style="fill:#A5411D;fill-opacity:1" d="M 16 14 L 15 14 L 15 13 L 16 13 L 16 14 " stroke-width="1" fill="undefined"/>
<path style="fill:#5A2815;fill-opacity:1" d="M 12 12 L 12 13 L 11 13 L 11 12 L 12 12 " stroke-width="1" fill="undefined"/>
<path style="fill:#5E2511;fill-opacity:1" d="M 13 12 L 12 12 L 12 11 L 13 11 L 13 12 " stroke-width="1" fill="undefined"/>
<path style="fill:#0F0B0B;fill-opacity:1" d="M 11 12 L 11 11 L 12 11 L 12 12 L 11 12 " stroke-width="1" fill="undefined"/>
<path style="fill:#6D2B13;fill-opacity:1" d="M 12 15 L 12 14 L 12.75 14.25 Q 13 14.5 13 15 L 12 15 " stroke-width="1" fill="undefined"/>
<path style="fill:#100702;fill-opacity:1" d="M 13 16 L 13 15 L 14 15 L 14 16 L 13 16 " stroke-width="1" fill="undefined"/>
<path style="fill:#513600;fill-opacity:1" d="M 15 14 L 16 14 Q 16 14.5 15.75 14.75 Q 15.5 15 15 15 L 15 14 " stroke-width="1" fill="undefined"/>
<path style="fill:#923919;fill-opacity:1" d="M 14 15 L 14 14 L 15 14 L 15 15 L 14 15 " stroke-width="1" fill="undefined"/>
<path style="fill:#543900;fill-opacity:1" d="M 14 16 L 14 15 L 15 15 L 15 16 L 14 16 " stroke-width="1" fill="undefined"/>
<path style="fill:#4A3832;fill-opacity:1" d="M 12 13 L 12 14 L 11 14 L 11 13 L 12 13 " stroke-width="1" fill="undefined"/>
<path style="fill:#0F100B;fill-opacity:1" d="M 14 17 L 13 17 L 13 16 L 14 16 L 14 17 " stroke-width="1" fill="undefined"/>
<path style="fill:#325765;fill-opacity:1" d="M 7 11 L 7 12 L 6 12 L 6 11 L 7 11 M 7 20 L 7 21 L 6 21 L 6 20 L 7 20 " stroke-width="1" fill="undefined"/>
<path style="fill:#05090B;fill-opacity:0.992157" d="M 23.95 23 L 24.95 23 L 24.95 24 L 23.95 24 L 23.95 23 M 6 22 L 6 21 L 7 21 L 7 22 L 6 22 " stroke-width="1" fill="undefined"/>
<path style="fill:#213942;fill-opacity:1" d="M 7 23 L 7 22 L 8 22 L 8 23 L 7 23 " stroke-width="1" fill="undefined"/>
<path style="fill:#4E3702;fill-opacity:1" d="M 16 18 L 16 19 L 15 19 L 15 18 L 16 18 " stroke-width="1" fill="undefined"/>
<path style="fill:#2E2104;fill-opacity:1" d="M 15 18 L 14 18 L 14 17 L 15 17 L 15 18 " stroke-width="1" fill="undefined"/>
<path style="fill:#477B8F;fill-opacity:1" d="M 16 19 L 16 20 L 15.25 19.75 L 15 19 L 16 19 " stroke-width="1" fill="undefined"/>
<path style="fill:#060A0C;fill-opacity:1" d="M 12 26 L 13 26 L 13 27 L 12 27 L 12 26 M 22.95 24 L 23.95 24 L 23.95 25 L 22.95 25 L 22.95 24 " stroke-width="1" fill="undefined"/>
<path style="fill:#3D697A;fill-opacity:1" d="M 11 26 L 11 25 Q 11.5 25 11.75 25.25 Q 12 25.5 12 26 L 11 26 " stroke-width="1" fill="undefined"/>
<path style="fill:#000000;fill-opacity:0.439216" d="M 13 28 L 12 28 L 12 27 L 13 27 L 13 28 " stroke-width="1" fill="undefined"/>
<path style="fill:#000000;fill-opacity:0.709804" d="M 14 27 L 14 28 L 13 28 L 13 27 L 14 27 " stroke-width="1" fill="undefined"/>
<path style="fill:#396474;fill-opacity:1" d="M 14 26 L 17 26 L 18 26 L 18 27 L 17 27 L 16 27 L 15 27 L 14 27 L 14 26 " stroke-width="1" fill="undefined"/>
<path style="fill:#000000;fill-opacity:0.803922" d="M 15 28 L 14 28 L 14 27 L 15 27 L 15 28 " stroke-width="1" fill="undefined"/>
<path style="fill:#000000;fill-opacity:1" d="M 17 28 L 16 28 L 15 28 L 15 27 L 16 27 L 17 27 L 17 28 M 20 26 L 21 26 L 21 27 L 20 27 L 20 26 " stroke-width="1" fill="undefined"/>
<path style="fill:#203740;fill-opacity:1" d="M 14 27 L 13 27 L 13 26 L 14 26 L 14 27 " stroke-width="1" fill="undefined"/>
<path style="fill:#000000;fill-opacity:0.968627" d="M 22 25 L 22.95 25 L 22.95 26 L 22 26 L 22 25 M 12 26 L 12 27 L 11 27 L 11 26 L 12 26 " stroke-width="1" fill="undefined"/>
<path style="fill:#000000;fill-opacity:0.168627" d="M 20 27 L 21 27 L 20.75 27.75 L 20 28 L 20 27 M 9 25 L 9 26 L 8.25 25.75 L 8 25 L 9 25 " stroke-width="1" fill="undefined"/>
<path style="fill:#0D1619;fill-opacity:1" d="M 11 26 L 10 26 L 10 25 L 11 25 L 11 26 " stroke-width="1" fill="undefined"/>
<path style="fill:#000000;fill-opacity:0.0627451" d="M 10 26 L 10 27 L 9.25 26.75 L 9 26 L 10 26 " stroke-width="1" fill="undefined"/>
<path style="fill:#000000;fill-opacity:0.956863" d="M 8 25 L 8 24 L 9 24 L 9 25 L 8 25 " stroke-width="1" fill="undefined"/>
<path style="fill:#000000;fill-opacity:0.333333" d="M 22.95 25 L 23.95 25 L 23.7 25.75 L 22.95 26 L 22.95 25 " stroke-width="1" fill="undefined"/>
<path style="fill:#000000;fill-opacity:0.145098" d="M 22 26 L 22.95 26 L 22.7 26.75 L 22 27 L 22 26 " stroke-width="1" fill="undefined"/>
<path style="fill:#447588;fill-opacity:1" d="M 22 25 L 22 24 L 22.95 24 L 22.95 25 L 22 25 " stroke-width="1" fill="undefined"/>
<path style="fill:#4E879D;fill-opacity:1" d="M 21 26 L 20 26 L 20 25 L 21 25 L 21 26 " stroke-width="1" fill="undefined"/>
<path style="fill:#000000;fill-opacity:0.85098" d="M 17 27 L 18 27 L 18 28 L 17 28 L 17 27 " stroke-width="1" fill="undefined"/>
<path style="fill:#000000;fill-opacity:0.756863" d="M 19 27 L 19 28 L 18 28 L 18 27 L 19 27 " stroke-width="1" fill="undefined"/>
<path style="fill:#000000;fill-opacity:0.521569" d="M 19 27 L 20 27 L 20 28 L 19 28 L 19 27 " stroke-width="1" fill="undefined"/>
</g>
</svg>