<?xml version="1.0" encoding="utf-8"?><svg xmlns="http://www.w3.org/2000/svg" xmlns:xlink="http://www.w3.org/1999/xlink" xmlns:author="http://www.sothink.com" version="1.1" id="Layer_1" width="49" height="45.95000076293945" xml:space="preserve" viewBox="-0.5 -0.5 49 45.95000076293945">
<g id="46">
<path style="fill:#000000;fill-opacity:0.372549" d="M 48 24 L 48 25 L 47 25 L 47 24 L 48 24 " stroke-width="1" fill="undefined"/>
<path style="fill:#000000;fill-opacity:0.517647" d="M 47 26 L 47 25 L 48 25 L 48 26 L 47 26 " stroke-width="1" fill="undefined"/>
<path style="fill:#000000;fill-opacity:0.596078" d="M 48 26 L 48 27 L 48 28 L 47 28 L 47 27 L 47 26 L 48 26 " stroke-width="1" fill="undefined"/>
<path style="fill:#000000;fill-opacity:0.498039" d="M 47 29 L 47 28 L 48 28 L 48 29 L 47 29 M 21 43.95 L 22 43.95 L 22 44.95 L 21 44.95 L 21 43.95 " stroke-width="1" fill="undefined"/>
<path style="fill:#000000;fill-opacity:0.172549" d="M 47 24 L 47 23 L 47.75 23.25 L 48 24 L 47 24 " stroke-width="1" fill="undefined"/>
<path style="fill:#000000;fill-opacity:0.129412" d="M 48 30 L 47.75 30.75 L 47 31 L 47 30 L 48 30 M 29 1 L 29 0 L 29.75 0.25 L 30 1 L 29 1 M 39 10 L 39 9 L 39.75 9.25 L 40 10 L 39 10 " stroke-width="1" fill="undefined"/>
<path style="fill:#000000;fill-opacity:0.356863" d="M 47 30 L 47 29 L 48 29 L 48 30 L 47 30 " stroke-width="1" fill="undefined"/>
<path style="fill:#000000;fill-opacity:0.905882" d="M 11 2 L 10 2 L 10 1 L 11 1 L 11 2 " stroke-width="1" fill="undefined"/>
<path style="fill:#000000;fill-opacity:0.27451" d="M 9 2 L 8 2 L 8 1 L 9 1 L 9 2 " stroke-width="1" fill="undefined"/>
<path style="fill:#000000;fill-opacity:0.407843" d="M 7 3 L 7 2 L 8 2 Q 8 2.5 7.75 2.75 Q 7.5 3 7 3 " stroke-width="1" fill="undefined"/>
<path style="fill:#000000;fill-opacity:0.996078" d="M 47 27 L 47 28 L 47 29 L 47 30 L 47 31 L 46 31 L 46 32 L 46 33 L 45 33 L 45 32 L 45 31 L 45 30 L 45.75 29.75 L 46 29 L 46 28 L 46 27 L 46 26 L 46 25 L 45.75 24.25 L 45 24 L 45 23 L 45 22 L 45 21 L 45 20 L 46 20 L 46 21 L 46 22 Q 46 22.5 46.25 22.75 L 47 23 L 47 24 L 47 25 L 47 26 L 47 27 M 7.75 2.75 Q 8 2.5 8 2 L 9 2 L 10 2 L 11 2 L 12 2 L 13 2 L 13.25 2.75 L 14 3 L 14 4 L 14 5 L 13 5 Q 13 4.5 12.75 4.25 L 12 4 Q 12 3.5 11.75 3.25 L 11 3 L 10 3 L 9 3 L 9 4 L 8 4 L 8 5 L 8 6 L 8 7 L 7 7 L 7 6 L 7 5 L 7 4 L 7 3 Q 7.5 3 7.75 2.75 M 17 4 L 18 4 L 19 4 L 20 4 L 21 4 L 22 4 Q 22.5 4 22.75 3.75 Q 23 3.5 23 3 Q 23.5 3 23.75 2.75 Q 24 2.5 24 2 L 24 1 L 25 1 L 26 1 L 27 1 L 28 1 L 29 1 L 29 2 L 28 2 L 27 2 L 26 2 L 25 2 L 25 3 L 25 4 L 24 4 L 24 5 L 23 5 L 22 5 L 21 5 L 20 5 L 19 5 L 18 5 L 17 5 L 17 4 M 2 18 L 3 18 L 3 19 L 3 20 L 3 21 L 3 22 L 2 22 L 2 23 L 2 24 L 2 26 L 2 27 L 2 28 L 2 29 L 2.25 29.75 L 3 30 L 3 31 L 3 32 L 3 33 L 2 33 L 2 32 Q 2 31.5 1.75 31.25 Q 1.5 31 1 31 L 1 30 L 1 29 L 1 28 L 1 27 L 1 24 L 1 23 L 1 22 L 1 21 Q 1.5 21 1.75 20.75 Q 2 20.5 2 20 L 2 19 L 2 18 M 36 9 L 35 9 L 34.75 8.25 L 34 8 L 34 7 L 35 7 L 36 7 Q 36 7.5 36.25 7.75 Q 36.5 8 37 8 L 37 9 L 36 9 M 12 40.95 L 13 40.95 L 14 40.95 L 15 40.95 L 15.25 41.7 L 16 41.95 L 17 41.95 L 18 41.95 L 19 41.95 L 19.25 42.7 L 20 42.95 L 21 42.95 L 22 42.95 L 23 42.95 L 24 42.95 L 25 42.95 L 26 42.95 L 27 42.95 L 28 42.95 L 29 42.95 L 29 43.95 L 28 43.95 L 27 43.95 L 26 43.95 L 25 43.95 L 24 43.95 L 23 43.95 L 22 43.95 L 21 43.95 L 20 43.95 L 19 43.95 L 18 43.95 Q 18 43.45 17.75 43.2 Q 17.5 42.95 17 42.95 L 16 42.95 L 15 42.95 L 14 42.95 Q 14 42.45 13.75 42.2 Q 13.5 41.95 13 41.95 L 12 41.95 L 12 40.95 M 40 37.95 L 41 37.95 L 41 38.95 L 40 38.95 L 40 39.95 L 39 39.95 L 38 39.95 L 38 38.95 L 38.75 38.7 L 39 37.95 L 40 37.95 M 34 40.95 L 35 40.95 L 36 40.95 L 36 41.95 L 35 41.95 L 34 41.95 L 34 42.95 L 33 42.95 L 32 42.95 L 31 42.95 L 30 42.95 L 29 42.95 L 29 41.95 L 30 41.95 L 31 41.95 L 32 41.95 L 32.75 41.7 L 33 40.95 L 34 40.95 " stroke-width="1" fill="undefined"/>
<path style="fill:#000000;fill-opacity:0.211765" d="M 6 4 L 6 3 L 7 3 L 7 4 L 6 4 " stroke-width="1" fill="undefined"/>
<path style="fill:#2E5A1F;fill-opacity:1" d="M 9 4 L 9 3 L 10 3 L 10 4 L 9 4 " stroke-width="1" fill="undefined"/>
<path style="fill:#2D591E;fill-opacity:1" d="M 9 5 L 8 5 L 8 4 L 9 4 L 9 5 " stroke-width="1" fill="undefined"/>
<path style="fill:#5FBF3D;fill-opacity:1" d="M 11 4 L 10 4 L 10 3 L 11 3 L 11 4 " stroke-width="1" fill="undefined"/>
<path style="fill:#275C1A;fill-opacity:1" d="M 11 5 L 10 5 L 10 4 L 11 4 L 11 5 " stroke-width="1" fill="undefined"/>
<path style="fill:#3E7729;fill-opacity:1" d="M 11 4 L 11 3 L 11.75 3.25 Q 12 3.5 12 4 L 11 4 " stroke-width="1" fill="undefined"/>
<path style="fill:#000000;fill-opacity:0.760784" d="M 9 1 L 10 1 L 10 2 L 9 2 L 9 1 M 38 9 L 37 9 L 37 8 L 38 8 L 38 9 " stroke-width="1" fill="undefined"/>
<path style="fill:#000000;fill-opacity:0.803922" d="M 12 2 L 11 2 L 11 1 L 12 1 L 12 2 " stroke-width="1" fill="undefined"/>
<path style="fill:#66CB41;fill-opacity:1" d="M 9 5 L 9 4 L 10 4 L 10 5 L 9 5 " stroke-width="1" fill="undefined"/>
<path style="fill:#000000;fill-opacity:0.352941" d="M 12 1 L 12.75 1.25 Q 13 1.5 13 2 L 12 2 L 12 1 " stroke-width="1" fill="undefined"/>
<path style="fill:#000000;fill-opacity:0.556863" d="M 13 2 L 13.75 2.25 L 14 3 L 13.25 2.75 L 13 2 " stroke-width="1" fill="undefined"/>
<path style="fill:#000000;fill-opacity:0.32549" d="M 14 4 L 14 3 L 14.75 3.25 Q 15 3.5 15 4 L 14 4 " stroke-width="1" fill="undefined"/>
<path style="fill:#2D5D1E;fill-opacity:1" d="M 12 5 L 12 4 L 12.75 4.25 Q 13 4.5 13 5 L 12 5 " stroke-width="1" fill="undefined"/>
<path style="fill:#000000;fill-opacity:0.572549" d="M 16 5 L 15 5 L 15 4 L 16 4 L 16 5 " stroke-width="1" fill="undefined"/>
<path style="fill:#000000;fill-opacity:0.815686" d="M 7 7 L 8 7 L 8 8 L 7 8 L 7 7 M 15 4 L 15 5 L 14 5 L 14 4 L 15 4 " stroke-width="1" fill="undefined"/>
<path style="fill:#163F0F;fill-opacity:1" d="M 11 5 L 11 4 L 12 4 L 12 5 L 11 5 " stroke-width="1" fill="undefined"/>
<path style="fill:#000000;fill-opacity:0.215686" d="M 17 4 L 17 3 L 18 3 L 18 4 L 17 4 " stroke-width="1" fill="undefined"/>
<path style="fill:#000000;fill-opacity:0.462745" d="M 26 44.95 L 25 44.95 L 25 43.95 L 26 43.95 L 26 44.95 M 19 4 L 18 4 L 18 3 L 19 3 L 19 4 " stroke-width="1" fill="undefined"/>
<path style="fill:#000000;fill-opacity:0.635294" d="M 19 4 L 19 3 L 20 3 L 20 4 L 19 4 " stroke-width="1" fill="undefined"/>
<path style="fill:#000000;fill-opacity:0.713725" d="M 21 4 L 20 4 L 20 3 L 21 3 L 21 4 " stroke-width="1" fill="undefined"/>
<path style="fill:#000000;fill-opacity:0.823529" d="M 21 4 L 21 3 L 22 3 L 22 4 L 21 4 M 30 4 L 30 3 L 31 3 L 31 4 L 30 4 M 10 40.95 L 9 40.95 L 9 39.95 L 10 39.95 L 10 40.95 " stroke-width="1" fill="undefined"/>
<path style="fill:#000000;fill-opacity:0.654902" d="M 27 1 L 26 1 L 26 0 L 27 0 L 27 1 " stroke-width="1" fill="undefined"/>
<path style="fill:#000000;fill-opacity:0.494118" d="M 25 1 L 25 0 L 26 0 L 26 1 L 25 1 " stroke-width="1" fill="undefined"/>
<path style="fill:#000000;fill-opacity:0.188235" d="M 24 1 L 24 0 L 25 0 L 25 1 L 24 1 " stroke-width="1" fill="undefined"/>
<path style="fill:#000000;fill-opacity:0.34902" d="M 3 34 L 3 35 L 2.25 34.75 L 2 34 L 3 34 M 1 28 L 1 29 L 0 29 L 0 28 L 1 28 M 24 2 L 23 2 L 23 1 L 24 1 L 24 2 " stroke-width="1" fill="undefined"/>
<path style="fill:#000000;fill-opacity:0.901961" d="M 22 3 L 23 3 Q 23 3.5 22.75 3.75 Q 22.5 4 22 4 L 22 3 M 39 11 L 39 10 L 40 10 L 40 11 L 39 11 " stroke-width="1" fill="undefined"/>
<path style="fill:#000000;fill-opacity:0.772549" d="M 14 42.95 L 13 42.95 L 13 41.95 Q 13.5 41.95 13.75 42.2 Q 14 42.45 14 42.95 M 24 2 Q 24 2.5 23.75 2.75 Q 23.5 3 23 3 L 23 2 L 24 2 " stroke-width="1" fill="undefined"/>
<path style="fill:#2B511C;fill-opacity:1" d="M 26 3 L 25 3 L 25 2 L 26 2 L 26 3 " stroke-width="1" fill="undefined"/>
<path style="fill:#51A634;fill-opacity:1" d="M 25 3 L 26 3 L 26 4 L 25 4 L 25 3 " stroke-width="1" fill="undefined"/>
<path style="fill:#3D7928;fill-opacity:1" d="M 27 3 L 26 3 L 26 2 L 27 2 L 27 3 " stroke-width="1" fill="undefined"/>
<path style="fill:#0E2F0A;fill-opacity:1" d="M 27 4 L 26 4 L 26 3 L 27 3 L 27 4 " stroke-width="1" fill="undefined"/>
<path style="fill:#6BD947;fill-opacity:1" d="M 26 5 L 25 5 L 25 4 L 26 4 L 26 5 " stroke-width="1" fill="undefined"/>
<path style="fill:#2A551C;fill-opacity:1" d="M 24 5 L 24 4 L 25 4 L 25 5 L 24 5 " stroke-width="1" fill="undefined"/>
<path style="fill:#000000;fill-opacity:0.894118" d="M 16 4 L 17 4 L 17 5 L 16 5 L 16 4 M 3 17 L 3 18 L 2 18 L 2 17 L 3 17 M 40 12 L 40 11 L 41 11 L 41 12 L 40 12 " stroke-width="1" fill="undefined"/>
<path style="fill:#000000;fill-opacity:0.305882" d="M 30 1 L 30.75 1.25 L 31 2 L 30 2 L 30 1 " stroke-width="1" fill="undefined"/>
<path style="fill:#000000;fill-opacity:0.603922" d="M 1 20 L 1 19 L 2 19 L 2 20 L 1 20 M 28 1 L 27 1 L 27 0 L 28 0 L 28 1 " stroke-width="1" fill="undefined"/>
<path style="fill:#000000;fill-opacity:0.443137" d="M 28 0 L 29 0 L 29 1 L 28 1 L 28 0 " stroke-width="1" fill="undefined"/>
<path style="fill:#000000;fill-opacity:1" d="M 16 5 L 17 5 L 17 6 L 16 6 L 15 6 L 14 6 L 14 5 L 15 5 L 16 5 M 30 2 L 30 3 L 30 4 L 30 5 L 29 5 L 29 4 L 29 3 L 29 2 L 30 2 M 31 6 L 30 6 L 30 5 L 31 5 L 32 5 L 32 6 L 33 6 L 34 6 L 34 7 L 33 7 L 32 7 L 32 6 L 31 6 M 5 16 L 4 16 L 4 17 L 4 18 L 3 18 L 3 17 L 3 16 L 4 16 L 4 15 L 4 14 L 5 14 L 5 15 L 5 16 M 3 33 L 4 33 L 4 34 L 4 35 L 3 35 L 3 34 L 3 33 M 4 36 L 4 35 L 5 35 L 5 36 L 6 36 L 6 36.95 L 7 36.95 L 7 37.95 L 8 37.95 L 9 37.95 L 9.25 38.7 L 10 38.95 L 10 39.95 L 9 39.95 L 8 39.95 Q 8 39.45 7.75 39.2 Q 7.5 38.95 7 38.95 L 7 37.95 L 6 37.95 L 6 36.95 L 5 36.95 L 5 36 L 4 36 M 12 40.95 L 11 40.95 L 10 40.95 L 10 39.95 L 11 39.95 L 12 39.95 L 12 40.95 M 37 9 L 38 9 L 38 10 L 37 10 L 37 9 M 38 11 L 38 10 L 39 10 L 39 11 L 40 11 L 40 12 L 41 12 L 41 13 L 40 13 L 40 12 L 39 12 L 39 11 L 38 11 M 8 7 L 9 7 L 9 8 L 8 8 L 8 7 M 43.75 33.75 L 44 33 L 45 33 L 45 34 L 45 35 L 44 35 L 44 36 L 43 36 L 43 35 L 43 34 L 43.75 33.75 M 43 36 L 43 36.95 L 42 36.95 L 42 37.95 L 41 37.95 L 41 36.95 L 42 36.95 L 42 36 L 43 36 M 38 40.95 L 37 40.95 L 36 40.95 L 36 39.95 L 37 39.95 L 38 39.95 L 38 40.95 " stroke-width="1" fill="undefined"/>
<path style="fill:#28481C;fill-opacity:1" d="M 28 3 L 28 2 L 29 2 L 29 3 L 28 3 " stroke-width="1" fill="undefined"/>
<path style="fill:#336921;fill-opacity:1" d="M 28 3 L 27 3 L 27 2 L 28 2 L 28 3 " stroke-width="1" fill="undefined"/>
<path style="fill:#0A2808;fill-opacity:1" d="M 28 4 L 27 4 L 27 3 L 28 3 L 28 4 " stroke-width="1" fill="undefined"/>
<path style="fill:#4A9D33;fill-opacity:1" d="M 27 4 L 28 4 L 28 5 L 27 5 L 27 4 " stroke-width="1" fill="undefined"/>
<path style="fill:#183F0F;fill-opacity:1" d="M 28 4 L 28 3 L 29 3 L 29 4 L 28 4 " stroke-width="1" fill="undefined"/>
<path style="fill:#40832C;fill-opacity:1" d="M 28 4 L 29 4 L 29 5 L 28 5 L 28 4 " stroke-width="1" fill="undefined"/>
<path style="fill:#000000;fill-opacity:0.0588235" d="M 37 41.95 L 36.75 42.7 L 36 42.95 L 36 41.95 L 37 41.95 M 31 2 Q 31.5 2.5 31.5 3 L 31 3 L 31 2 M 46 20 L 46 19 L 46.75 19.25 L 47 20 L 46 20 " stroke-width="1" fill="undefined"/>
<path style="fill:#000000;fill-opacity:0.898039" d="M 47 22 L 47 23 L 46.25 22.75 Q 46 22.5 46 22 L 47 22 M 31 2 L 31 3 L 30 3 L 30 2 L 31 2 " stroke-width="1" fill="undefined"/>
<path style="fill:#000000;fill-opacity:0.219608" d="M 31 5 L 31 4 L 31.75 4.25 L 32 5 L 31 5 " stroke-width="1" fill="undefined"/>
<path style="fill:#000000;fill-opacity:0.776471" d="M 30 5 L 30 4 L 31 4 L 31 5 L 30 5 " stroke-width="1" fill="undefined"/>
<path style="fill:#000000;fill-opacity:0.945098" d="M 30 1 L 30 2 L 29 2 L 29 1 L 30 1 " stroke-width="1" fill="undefined"/>
<path style="fill:#58B33A;fill-opacity:1" d="M 27 5 L 26 5 L 26 4 L 27 4 L 27 5 " stroke-width="1" fill="undefined"/>
<path style="fill:#000000;fill-opacity:0.482353" d="M 7 6 L 7 7 L 6 7 L 6 6 L 7 6 " stroke-width="1" fill="undefined"/>
<path style="fill:#000000;fill-opacity:0.0784314" d="M 7 7 L 7 8 L 6.25 7.75 L 6 7 L 7 7 " stroke-width="1" fill="undefined"/>
<path style="fill:#000000;fill-opacity:0.662745" d="M 7 5 L 7 6 L 6 6 L 6 5 L 7 5 " stroke-width="1" fill="undefined"/>
<path style="fill:#000000;fill-opacity:0.333333" d="M 5 12 L 5 11 L 6 11 Q 6 11.5 5.75 11.75 Q 5.5 12 5 12 " stroke-width="1" fill="undefined"/>
<path style="fill:#000000;fill-opacity:0.992157" d="M 6.75 10.75 Q 7 10.5 7 10 Q 7.5 10 7.75 9.75 Q 8 9.5 8 9 Q 8.5 9 8.75 8.75 Q 9 8.5 9 8 L 10 8 L 10 9 L 10 10 L 9 10 L 9 11 L 8 11 L 8 12 L 7 12 L 7 13 L 6 13 L 6 14 L 5 14 L 5 13 L 5 12 Q 5.5 12 5.75 11.75 Q 6 11.5 6 11 Q 6.5 11 6.75 10.75 M 43 16 L 44 16 Q 44 16.5 44.25 16.75 Q 44.5 17 45 17 L 45 18 L 45 19 L 45 20 L 44 20 L 44 19 L 43.75 18.25 L 43 18 L 43 17 L 43 16 " stroke-width="1" fill="undefined"/>
<path style="fill:#000000;fill-opacity:0.164706" d="M 4 13 L 4 12 L 5 12 L 5 13 L 4 13 " stroke-width="1" fill="undefined"/>
<path style="fill:#000000;fill-opacity:0.447059" d="M 21 44.95 L 20 44.95 L 20 43.95 L 21 43.95 L 21 44.95 M 4 15 L 3 15 L 3 14 L 4 14 L 4 15 " stroke-width="1" fill="undefined"/>
<path style="fill:#000000;fill-opacity:0.94902" d="M 3 15 L 4 15 L 4 16 L 3 16 L 3 15 " stroke-width="1" fill="undefined"/>
<path style="fill:#000000;fill-opacity:0.0980392" d="M 2 16 L 2 15 L 3 15 L 3 16 L 2 16 " stroke-width="1" fill="undefined"/>
<path style="fill:#000000;fill-opacity:0.501961" d="M 2 17 L 2 16 L 3 16 L 3 17 L 2 17 " stroke-width="1" fill="undefined"/>
<path style="fill:#17300F;fill-opacity:1" d="M 6 15 L 5 15 L 5 14 L 6 14 L 6 15 " stroke-width="1" fill="undefined"/>
<path style="fill:#4A9A31;fill-opacity:1" d="M 5.75 15.75 Q 5.5 16 5 16 L 5 15 L 6 15 Q 6 15.5 5.75 15.75 " stroke-width="1" fill="undefined"/>
<path style="fill:#6BE147;fill-opacity:1" d="M 10.75 8.75 Q 11 8.5 11 8 Q 11.5 8 11.75 7.75 Q 12 7.5 12 7 Q 12.5 7 12.75 6.75 Q 13 6.5 13 6 L 14 6 L 14.25 6.75 Q 14.5 7 15 7 L 16 7 Q 16.5 7 16.75 6.75 Q 17 6.5 17 6 L 18 6 L 19 6 L 20 6 L 21 6 L 22 6 L 23 6 Q 23.5 6 23.75 5.75 Q 24 5.5 24 5 L 25 5 L 26 5 L 27 5 L 28 5 L 28 6 L 28 7 Q 28 7.5 28.25 7.75 Q 28.5 8 29 8 L 30 8 L 31 8 Q 31 8.5 31.25 8.75 Q 31.5 9 32 9 L 33 9 Q 33 9.5 33.25 9.75 Q 33.5 10 34 10 L 35 10 Q 35 10.5 35.25 10.75 Q 35.5 11 36 11 Q 36 11.5 36.25 11.75 Q 36.5 12 37 12 Q 37 12.5 37.25 12.75 Q 37.5 13 38 13 L 39 13 Q 39 13.5 39.25 13.75 Q 39.5 14 40 14 Q 40 14.5 40.25 14.75 Q 40.5 15 41 15 Q 41 15.5 41.25 15.75 Q 41.5 16 42 16 L 42 17 L 42 18 L 41 18 L 40 18 L 39 18 L 38 18 L 38 19 L 38 20 L 38 21 L 37 21 L 37 22 L 36 22 L 35 22 L 34 22 L 34 21 L 33.75 20.25 L 33 20 L 32.75 19.25 L 32 19 L 31.75 18.25 L 31 18 L 30.75 17.25 L 30 17 L 29 17 L 28.75 16.25 L 28 16 L 27 16 L 26 16 L 25 16 L 23 16 L 22 16 L 21 16 L 20 16 L 20 17 L 19 17 L 18 17 L 18 18 L 17 18 L 17 19 L 16 19 L 16 20 L 15 20 L 15 21 L 15 22 L 14 22 L 13 22 Q 13 21.5 12.75 21.25 L 12 21 L 11 21 L 10.75 20.25 L 10 20 L 10 19 Q 10 18.5 9.75 18.25 L 9 18 L 8 18 L 7 18 L 6 18 L 5 18 L 5 17 L 5 16 Q 5.5 16 5.75 15.75 Q 6 15.5 6 15 L 6 14 Q 6.5 14 6.75 13.75 Q 7 13.5 7 13 Q 7.5 13 7.75 12.75 Q 8 12.5 8 12 Q 8.5 12 8.75 11.75 Q 9 11.5 9 11 Q 9.5 11 9.75 10.75 Q 10 10.5 10 10 L 10 9 Q 10.5 9 10.75 8.75 " stroke-width="1" fill="undefined"/>
<path style="fill:#29551C;fill-opacity:1" d="M 6.75 13.75 Q 6.5 14 6 14 L 6 13 L 7 13 Q 7 13.5 6.75 13.75 " stroke-width="1" fill="undefined"/>
<path style="fill:#000000;fill-opacity:0.807843" d="M 5 13 L 5 14 L 4 14 L 4 13 L 5 13 " stroke-width="1" fill="undefined"/>
<path style="fill:#224917;fill-opacity:1" d="M 5 17 L 4 17 L 4 16 L 5 16 L 5 17 " stroke-width="1" fill="undefined"/>
<path style="fill:#000000;fill-opacity:0.478431" d="M 0 28 L 0 27 L 0 24 L 1 24 L 1 27 L 1 28 L 0 28 M 6 11 L 6 10 L 7 10 Q 7 10.5 6.75 10.75 Q 6.5 11 6 11 " stroke-width="1" fill="undefined"/>
<path style="fill:#63D141;fill-opacity:1" d="M 6 19 L 5 19 L 5 18 L 6 18 L 6 19 " stroke-width="1" fill="undefined"/>
<path style="fill:#2D6B17;fill-opacity:1" d="M 5 19 L 6 19 L 6 20 L 5 20 L 5 19 " stroke-width="1" fill="undefined"/>
<path style="fill:#5ABE3A;fill-opacity:1" d="M 3 21 L 3 20 Q 3.5 20 3.75 19.75 Q 4 19.5 4 19 L 5 19 L 5 20 L 5 21 L 4 21 L 3 21 " stroke-width="1" fill="undefined"/>
<path style="fill:#53B334;fill-opacity:1" d="M 5 21 L 5 20 L 6 20 L 6 21 L 5 21 " stroke-width="1" fill="undefined"/>
<path style="fill:#32741A;fill-opacity:1" d="M 7 19 L 7 20 L 6 20 L 6 19 L 7 19 " stroke-width="1" fill="undefined"/>
<path style="fill:#4CA52F;fill-opacity:1" d="M 7 19 L 6 19 L 6 18 L 7 18 L 7 19 " stroke-width="1" fill="undefined"/>
<path style="fill:#6DE449;fill-opacity:1" d="M 4 19 L 4 18 L 5 18 L 5 19 L 4 19 " stroke-width="1" fill="undefined"/>
<path style="fill:#50A735;fill-opacity:1" d="M 5 17 L 5 18 L 4 18 L 4 17 L 5 17 " stroke-width="1" fill="undefined"/>
<path style="fill:#1C3D12;fill-opacity:1" d="M 4 19 L 3 19 L 3 18 L 4 18 L 4 19 " stroke-width="1" fill="undefined"/>
<path style="fill:#000000;fill-opacity:0.0470588" d="M 10 41.95 L 9.25 41.7 L 9 40.95 L 10 40.95 L 10 41.95 M 2 33 L 2 34 L 1.25 33.75 L 1 33 L 2 33 M 1 18 L 1 17 L 2 17 L 2 18 L 1 18 " stroke-width="1" fill="undefined"/>
<path style="fill:#387725;fill-opacity:1" d="M 3.75 19.75 Q 3.5 20 3 20 L 3 19 L 4 19 Q 4 19.5 3.75 19.75 " stroke-width="1" fill="undefined"/>
<path style="fill:#000000;fill-opacity:0.298039" d="M 2 18 L 2 19 L 1 19 L 1 18 L 2 18 " stroke-width="1" fill="undefined"/>
<path style="fill:#6BE148;fill-opacity:1" d="M 4 21 L 5 21 L 6 21 L 6 22 L 5 22 L 5 23 L 4 23 Q 4 22.5 3.75 22.25 Q 3.5 22 3 22 L 3 21 L 4 21 " stroke-width="1" fill="undefined"/>
<path style="fill:#6DE349;fill-opacity:1" d="M 4 24 L 4 25 L 4 26 L 4 27 L 4 28 L 4 29 L 4 30 L 3 30 L 3 29 L 3 28 L 3 27 L 3 26 L 3 24 L 3 23 L 3 22 Q 3.5 22 3.75 22.25 Q 4 22.5 4 23 L 4 24 " stroke-width="1" fill="undefined"/>
<path style="fill:#1B3911;fill-opacity:1" d="M 3 23 L 2 23 L 2 22 L 3 22 L 3 23 " stroke-width="1" fill="undefined"/>
<path style="fill:#285719;fill-opacity:1" d="M 3 24 L 2 24 L 2 23 L 3 23 L 3 24 " stroke-width="1" fill="undefined"/>
<path style="fill:#5CAA3F;fill-opacity:1" d="M 5 23 L 5 22 L 6 22 L 6 23 L 5 23 " stroke-width="1" fill="undefined"/>
<path style="fill:#5DBE38;fill-opacity:1" d="M 7 22 L 6 22 L 6 21 L 7 21 L 7 22 " stroke-width="1" fill="undefined"/>
<path style="fill:#74547A;fill-opacity:1" d="M 5 23 L 6 23 L 6 24 L 5 24 L 5 23 " stroke-width="1" fill="undefined"/>
<path style="fill:#7F5A85;fill-opacity:1" d="M 7 23 L 6 23 L 6 22 L 7 22 L 7 23 " stroke-width="1" fill="undefined"/>
<path style="fill:#5CC33D;fill-opacity:1" d="M 4 24 L 4 23 L 5 23 L 5 24 L 4 24 " stroke-width="1" fill="undefined"/>
<path style="fill:#6ADE46;fill-opacity:1" d="M 8 20 L 8 21 L 7 21 L 6 21 L 6 20 L 7 20 L 8 20 " stroke-width="1" fill="undefined"/>
<path style="fill:#000000;fill-opacity:0.854902" d="M 2 20 Q 2 20.5 1.75 20.75 Q 1.5 21 1 21 L 1 20 L 2 20 " stroke-width="1" fill="undefined"/>
<path style="fill:#000000;fill-opacity:0.282353" d="M 46 34 L 45.75 34.75 L 45 35 L 45 34 L 46 34 M 1 22 L 1 23 L 0 23 L 0 22 L 1 22 " stroke-width="1" fill="undefined"/>
<path style="fill:#000000;fill-opacity:0.411765" d="M 13 41.95 L 13 42.95 L 12 42.95 L 12 41.95 L 13 41.95 M 0 24 L 0 23 L 1 23 L 1 24 L 0 24 " stroke-width="1" fill="undefined"/>
<path style="fill:#000000;fill-opacity:0.145098" d="M 0 22 L 0 21 L 1 21 L 1 22 L 0 22 " stroke-width="1" fill="undefined"/>
<path style="fill:#000000;fill-opacity:0.243137" d="M 0 30 L 0 29 L 1 29 L 1 30 L 0 30 " stroke-width="1" fill="undefined"/>
<path style="fill:#5F2F6E;fill-opacity:1" d="M 6 24 L 8 24 L 9 24 L 10 24 L 10 25 L 9 25 L 8 25 L 7 25 L 6 25 L 5 25 L 5 24 L 6 24 " stroke-width="1" fill="undefined"/>
<path style="fill:#834895;fill-opacity:1" d="M 5 25 L 6 25 L 6 26 L 5 26 L 5 25 " stroke-width="1" fill="undefined"/>
<path style="fill:#4D9936;fill-opacity:1" d="M 4 25 L 4 24 L 5 24 L 5 25 L 4 25 " stroke-width="1" fill="undefined"/>
<path style="fill:#673F71;fill-opacity:1" d="M 6 27 L 5 27 L 5 26 L 6 26 L 6 27 " stroke-width="1" fill="undefined"/>
<path style="fill:#8F4DA3;fill-opacity:1" d="M 7 26 L 6 26 L 6 25 L 7 25 L 7 26 " stroke-width="1" fill="undefined"/>
<path style="fill:#529C3E;fill-opacity:1" d="M 5 25 L 5 26 L 4 26 L 4 25 L 5 25 " stroke-width="1" fill="undefined"/>
<path style="fill:#2E661E;fill-opacity:1" d="M 2 27 L 2 26 L 2 24 L 3 24 L 3 26 L 3 27 L 2 27 " stroke-width="1" fill="undefined"/>
<path style="fill:#1F4513;fill-opacity:1" d="M 2 29 L 2 28 L 3 28 L 3 29 L 2 29 " stroke-width="1" fill="undefined"/>
<path style="fill:#4EB730;fill-opacity:1" d="M 4 29 L 4 28 L 5 28 L 5 29 L 4 29 " stroke-width="1" fill="undefined"/>
<path style="fill:#2B5D1B;fill-opacity:1" d="M 2 28 L 2 27 L 3 27 L 3 28 L 2 28 " stroke-width="1" fill="undefined"/>
<path style="fill:#142D0C;fill-opacity:1" d="M 3 29 L 3 30 L 2.25 29.75 L 2 29 L 3 29 " stroke-width="1" fill="undefined"/>
<path style="fill:#45B128;fill-opacity:1" d="M 4 28 L 4 27 L 5 27 L 5 28 L 4 28 " stroke-width="1" fill="undefined"/>
<path style="fill:#565649;fill-opacity:1" d="M 6 28 L 5 28 L 5 27 L 6 27 L 6 28 " stroke-width="1" fill="undefined"/>
<path style="fill:#459A21;fill-opacity:1" d="M 6 28 L 6 29 L 5 29 L 5 28 L 6 28 " stroke-width="1" fill="undefined"/>
<path style="fill:#663476;fill-opacity:1" d="M 7.25 26.75 L 8 27 L 9 27 L 10.1 27.8 L 11 28 L 11 29 L 10 29 L 9 29 L 8 29 Q 8 28.5 7.75 28.25 Q 7.5 28 7 28 L 6 28 L 6 27 L 6 26 L 7 26 L 7.25 26.75 M 38 28 L 38 27 L 39 27 L 39 28 L 38 28 " stroke-width="1" fill="undefined"/>
<path style="fill:#49B62B;fill-opacity:1" d="M 6 30 L 5 30 L 5 29 L 6 29 L 6 30 " stroke-width="1" fill="undefined"/>
<path style="fill:#5B6646;fill-opacity:1" d="M 7 28 L 7 29 L 6 29 L 6 28 L 7 28 " stroke-width="1" fill="undefined"/>
<path style="fill:#47A82C;fill-opacity:1" d="M 5 26 L 5 27 L 4 27 L 4 26 L 5 26 " stroke-width="1" fill="undefined"/>
<path style="fill:#66D843;fill-opacity:1" d="M 4 30 L 4 29 L 5 29 L 5 30 L 4 30 " stroke-width="1" fill="undefined"/>
<path style="fill:#834596;fill-opacity:1" d="M 8 23 L 9 23 L 9 24 L 8 24 L 6 24 L 6 23 L 7 23 L 8 23 " stroke-width="1" fill="undefined"/>
<path style="fill:#4EB82F;fill-opacity:1" d="M 7 31 L 6 31 L 6 30 L 7 30 L 7 31 " stroke-width="1" fill="undefined"/>
<path style="fill:#66D943;fill-opacity:1" d="M 6 31 L 5.25 30.75 L 5 30 L 6 30 L 6 31 M 18 40.95 L 19 40.95 L 19 41.95 L 18 41.95 L 18 40.95 " stroke-width="1" fill="undefined"/>
<path style="fill:#6CE248;fill-opacity:1" d="M 5 30 L 5.25 30.75 L 6 31 L 7 31 L 9 31 L 10 31 L 10.75 30.75 L 11 30 L 12 30 L 12.75 29.75 Q 13 29.5 13 29 L 13 28 L 13 27 L 14 27 L 14.25 27.75 L 15 28 L 15.25 28.75 L 16 29 L 16.25 29.75 L 17 30 L 17.25 30.75 L 18 31 L 18 32 L 18.25 32.75 L 19 33 L 19.25 33.75 L 20 34 L 20.25 34.75 L 21 35 L 22 35 L 23 35 L 24 35 L 25 35 L 26 35 L 27 35 L 27.75 34.75 L 28 34 L 28.75 33.75 L 29 33 L 30 33 L 31 33 L 31.75 32.75 L 32 32 L 33 32 L 33.75 31.75 L 34 31 L 34 30 L 34.75 29.75 L 35 29 L 35 28 L 36 28 L 36 29 Q 36 29.5 36.25 29.75 L 37 30 Q 37 30.5 37.25 30.75 L 38 31 L 39 31 L 40 31 L 41 31 L 41.75 30.75 L 42 30 L 43 30 L 44 30 L 44 31 L 44 32 L 44 33 L 43 33 L 43 34 L 42 34 L 42 35 L 41 35 L 41 36 L 40 36 L 40 36.95 L 39 36.95 L 39 37.95 L 38 37.95 L 37 37.95 L 37 38.95 L 36 38.95 L 35 38.95 L 35 39.95 L 34 39.95 L 33 39.95 L 32 39.95 L 32 40.95 L 31 40.95 L 30 40.95 L 29 40.95 L 28 40.95 L 27 40.95 L 26 40.95 L 26 41.95 L 25 41.95 L 24 41.95 L 23 41.95 L 22 41.95 L 21 41.95 L 20 41.95 Q 20 41.45 19.75 41.2 Q 19.5 40.95 19 40.95 L 18 40.95 L 17 40.95 L 16 40.95 Q 16 40.45 15.75 40.2 Q 15.5 39.95 15 39.95 L 14 39.95 L 13 39.95 Q 13 39.45 12.75 39.2 Q 12.5 38.95 12 38.95 L 11 38.95 Q 11 38.45 10.75 38.2 Q 10.5 37.95 10 37.95 L 9 37.95 Q 9 37.45 8.75 37.2 Q 8.5 36.95 8 36.95 Q 8 36.45 7.75 36.2 L 7 36 Q 7 35.5 6.75 35.25 Q 6.5 35 6 35 Q 6 34.5 5.75 34.25 Q 5.5 34 5 34 L 5 33 Q 5 32.5 4.75 32.25 Q 4.5 32 4 32 L 4 31 L 4 30 L 5 30 " stroke-width="1" fill="undefined"/>
<path style="fill:#63D240;fill-opacity:1" d="M 4 31 L 3 31 L 3 30 L 4 30 L 4 31 " stroke-width="1" fill="undefined"/>
<path style="fill:#000000;fill-opacity:0.72549" d="M 1 32 L 1 31 Q 1.5 31 1.75 31.25 Q 2 31.5 2 32 L 1 32 " stroke-width="1" fill="undefined"/>
<path style="fill:#357C20;fill-opacity:1" d="M 4 31 L 4 32 L 3 32 L 3 31 L 4 31 " stroke-width="1" fill="undefined"/>
<path style="fill:#15330B;fill-opacity:1" d="M 4 33 L 3 33 L 3 32 L 4 32 L 4 33 " stroke-width="1" fill="undefined"/>
<path style="fill:#040901;fill-opacity:1" d="M 5 34 L 5 35 L 4 35 L 4 34 L 5 34 " stroke-width="1" fill="undefined"/>
<path style="fill:#000000;fill-opacity:0.643137" d="M 4 36 L 3 36 L 3 35 L 4 35 L 4 36 " stroke-width="1" fill="undefined"/>
<path style="fill:#000000;fill-opacity:0.870588" d="M 3 34 L 2 34 L 2 33 L 3 33 L 3 34 M 38 10 L 38 9 L 39 9 L 39 10 L 38 10 " stroke-width="1" fill="undefined"/>
<path style="fill:#30731C;fill-opacity:1" d="M 4 34 L 4 33 L 5 33 L 5 34 L 4 34 " stroke-width="1" fill="undefined"/>
<path style="fill:#50B533;fill-opacity:1" d="M 5 34 Q 5.5 34 5.75 34.25 Q 6 34.5 6 35 L 5 35 L 5 34 " stroke-width="1" fill="undefined"/>
<path style="fill:#0F2908;fill-opacity:1" d="M 5 36 L 5 35 L 6 35 L 6 36 L 5 36 " stroke-width="1" fill="undefined"/>
<path style="fill:#68DC45;fill-opacity:1" d="M 4 33 L 4 32 Q 4.5 32 4.75 32.25 Q 5 32.5 5 33 L 4 33 M 35 27 L 36 27 L 36 28 L 35 28 L 35 27 " stroke-width="1" fill="undefined"/>
<path style="fill:#000000;fill-opacity:0.376471" d="M 35 41.95 L 36 41.95 L 36 42.95 L 35 42.95 L 35 41.95 M 2 32 L 2 33 L 1 33 L 1 32 L 2 32 " stroke-width="1" fill="undefined"/>
<path style="fill:#000000;fill-opacity:0.109804" d="M 1 30 L 1 31 L 0.25 30.75 L 0 30 L 1 30 M 41 12 L 41 11 L 41.75 11.25 L 42 12 L 41 12 " stroke-width="1" fill="undefined"/>
<path style="fill:#122F09;fill-opacity:1" d="M 6 36.95 L 6 36 L 7 36 L 7 36.95 L 6 36.95 " stroke-width="1" fill="undefined"/>
<path style="fill:#000000;fill-opacity:0.85098" d="M 5 37.95 L 5 36.95 L 6 36.95 L 6 37.95 L 5 37.95 " stroke-width="1" fill="undefined"/>
<path style="fill:#000000;fill-opacity:0.811765" d="M 41 13 L 41 12 L 42 12 L 42 13 L 41 13 M 5 36 L 5 36.95 L 4 36.95 L 4 36 L 5 36 " stroke-width="1" fill="undefined"/>
<path style="fill:#000000;fill-opacity:0.113725" d="M 6 38.95 L 5.25 38.7 L 5 37.95 L 6 37.95 L 6 38.95 M 45 18 L 45 17 L 45.75 17.25 L 46 18 L 45 18 " stroke-width="1" fill="undefined"/>
<path style="fill:#000000;fill-opacity:0.12549" d="M 5 36.95 L 5 37.95 L 4.25 37.7 L 4 36.95 L 5 36.95 " stroke-width="1" fill="undefined"/>
<path style="fill:#000000;fill-opacity:0.0627451" d="M 12 41.95 L 12 42.95 L 11.25 42.7 L 11 41.95 L 12 41.95 M 4 36 L 4 36.95 L 3.25 36.75 L 3 36 L 4 36 " stroke-width="1" fill="undefined"/>
<path style="fill:#000000;fill-opacity:0.741176" d="M 6 37.95 L 7 37.95 L 7 38.95 L 6 38.95 L 6 37.95 " stroke-width="1" fill="undefined"/>
<path style="fill:#5CC83C;fill-opacity:1" d="M 6 36 L 6 35 Q 6.5 35 6.75 35.25 Q 7 35.5 7 36 L 6 36 " stroke-width="1" fill="undefined"/>
<path style="fill:#44941F;fill-opacity:1" d="M 7 30 L 6 30 L 6 29 L 7 29 L 7 30 " stroke-width="1" fill="undefined"/>
<path style="fill:#000000;fill-opacity:0.0862745" d="M 38 9 L 38 8 L 38.75 8.25 L 39 9 L 38 9 " stroke-width="1" fill="undefined"/>
<path style="fill:#27421D;fill-opacity:1" d="M 38 11 L 37 11 L 37 10 L 38 10 L 38 11 " stroke-width="1" fill="undefined"/>
<path style="fill:#162810;fill-opacity:1" d="M 36 10 L 36 9 L 37 9 L 37 10 L 36 10 " stroke-width="1" fill="undefined"/>
<path style="fill:#000000;fill-opacity:0.141176" d="M 33 42.95 L 34 42.95 L 33.75 43.7 L 33 43.95 L 33 42.95 M 40 11 L 40 10 L 40.75 10.25 L 41 11 L 40 11 " stroke-width="1" fill="undefined"/>
<path style="fill:#000100;fill-opacity:1" d="M 43 16 L 42 16 L 41.75 15.25 L 41 15 L 41 14 L 41 13 L 42 13 Q 42 13.5 42.25 13.75 Q 42.5 14 43 14 L 43 15 L 43 16 " stroke-width="1" fill="undefined"/>
<path style="fill:#1B3213;fill-opacity:1" d="M 40 14 L 40 13 L 41 13 L 41 14 L 40 14 " stroke-width="1" fill="undefined"/>
<path style="fill:#29471F;fill-opacity:1" d="M 39 13 L 39 12 L 40 12 L 40 13 L 39 13 " stroke-width="1" fill="undefined"/>
<path style="fill:#2C4A20;fill-opacity:1" d="M 38 12 L 38 11 L 39 11 L 39 12 L 38 12 " stroke-width="1" fill="undefined"/>
<path style="fill:#8DE76D;fill-opacity:1" d="M 37 11 L 38 11 L 38 12 L 37 12 L 37 11 " stroke-width="1" fill="undefined"/>
<path style="fill:#71E44C;fill-opacity:1" d="M 38 13 Q 37.5 13 37.25 12.75 Q 37 12.5 37 12 L 38 12 L 38 13 " stroke-width="1" fill="undefined"/>
<path style="fill:#77E654;fill-opacity:1" d="M 37 11 L 37 12 Q 36.5 12 36.25 11.75 Q 36 11.5 36 11 L 37 11 " stroke-width="1" fill="undefined"/>
<path style="fill:#72D951;fill-opacity:1" d="M 40 14 Q 39.5 14 39.25 13.75 Q 39 13.5 39 13 L 40 13 L 40 14 " stroke-width="1" fill="undefined"/>
<path style="fill:#89E869;fill-opacity:1" d="M 38 12 L 39 12 L 39 13 L 38 13 L 38 12 " stroke-width="1" fill="undefined"/>
<path style="fill:#3D7D28;fill-opacity:1" d="M 42 16 Q 41.5 16 41.25 15.75 Q 41 15.5 41 15 L 41.75 15.25 L 42 16 " stroke-width="1" fill="undefined"/>
<path style="fill:#5ABB3D;fill-opacity:1" d="M 41 14 L 41 15 Q 40.5 15 40.25 14.75 Q 40 14.5 40 14 L 41 14 " stroke-width="1" fill="undefined"/>
<path style="fill:#000000;fill-opacity:0.329412" d="M 43 15 L 43 14 L 43.75 14.25 L 44 15 L 43 15 " stroke-width="1" fill="undefined"/>
<path style="fill:#000000;fill-opacity:0.933333" d="M 43 16 L 43 15 L 44 15 L 44 16 L 43 16 " stroke-width="1" fill="undefined"/>
<path style="fill:#000000;fill-opacity:0.0901961" d="M 44 36.95 L 43.75 37.7 L 43 37.95 L 43 36.95 L 44 36.95 M 44 16 L 44 15 L 44.75 15.25 L 45 16 L 44 16 " stroke-width="1" fill="undefined"/>
<path style="fill:#000000;fill-opacity:0.552941" d="M 44.25 16.75 Q 44 16.5 44 16 L 45 16 L 45 17 Q 44.5 17 44.25 16.75 " stroke-width="1" fill="undefined"/>
<path style="fill:#000000;fill-opacity:0.607843" d="M 42.25 13.75 Q 42 13.5 42 13 L 42.75 13.25 L 43 14 Q 42.5 14 42.25 13.75 " stroke-width="1" fill="undefined"/>
<path style="fill:#214717;fill-opacity:1" d="M 43 17 L 42 17 L 42 16 L 43 16 L 43 17 " stroke-width="1" fill="undefined"/>
<path style="fill:#8ADE6D;fill-opacity:1" d="M 37 10 L 37 11 L 36 11 L 36 10 L 37 10 " stroke-width="1" fill="undefined"/>
<path style="fill:#000000;fill-opacity:0.203922" d="M 27 43.95 L 28 43.95 L 29 43.95 L 29 44.95 L 28 44.95 L 27 44.95 L 27 43.95 M 35 6 L 35.75 6.25 L 36 7 L 35 7 L 35 6 " stroke-width="1" fill="undefined"/>
<path style="fill:#000000;fill-opacity:0.47451" d="M 36.25 7.75 Q 36 7.5 36 7 L 36.75 7.25 L 37 8 Q 36.5 8 36.25 7.75 " stroke-width="1" fill="undefined"/>
<path style="fill:#000000;fill-opacity:0.768627" d="M 34 6 L 35 6 L 35 7 L 34 7 L 34 6 " stroke-width="1" fill="undefined"/>
<path style="fill:#000000;fill-opacity:0.301961" d="M 33 6 L 33 5 L 33.75 5.25 L 34 6 L 33 6 " stroke-width="1" fill="undefined"/>
<path style="fill:#000000;fill-opacity:0.788235" d="M 39 39.95 L 39 40.95 L 38 40.95 L 38 39.95 L 39 39.95 M 33 6 L 32 6 L 32 5 L 33 5 L 33 6 " stroke-width="1" fill="undefined"/>
<path style="fill:#4E813D;fill-opacity:1" d="M 33 8 L 32 8 L 32 7 L 33 7 L 33 8 " stroke-width="1" fill="undefined"/>
<path style="fill:#192D12;fill-opacity:1" d="M 31 7 L 31 6 L 32 6 L 32 7 L 31 7 " stroke-width="1" fill="undefined"/>
<path style="fill:#172A11;fill-opacity:1" d="M 33 8 L 33 7 L 34 7 L 34 8 L 33 8 " stroke-width="1" fill="undefined"/>
<path style="fill:#385E2C;fill-opacity:1" d="M 34 9 L 34 8 L 34.75 8.25 L 35 9 L 34 9 " stroke-width="1" fill="undefined"/>
<path style="fill:#9AF579;fill-opacity:1" d="M 34 8 L 34 9 L 33 9 L 33 8 L 34 8 " stroke-width="1" fill="undefined"/>
<path style="fill:#8DF06B;fill-opacity:1" d="M 33 9 L 32 9 L 32 8 L 33 8 L 33 9 " stroke-width="1" fill="undefined"/>
<path style="fill:#78E755;fill-opacity:1" d="M 32 8 L 32 9 Q 31.5 9 31.25 8.75 Q 31 8.5 31 8 L 32 8 " stroke-width="1" fill="undefined"/>
<path style="fill:#7AE857;fill-opacity:1" d="M 34 10 Q 33.5 10 33.25 9.75 Q 33 9.5 33 9 L 34 9 L 34 10 " stroke-width="1" fill="undefined"/>
<path style="fill:#91F16F;fill-opacity:1" d="M 34 9 L 35 9 L 35 10 L 34 10 L 34 9 " stroke-width="1" fill="undefined"/>
<path style="fill:#6CAC54;fill-opacity:1" d="M 36 10 L 35 10 L 35 9 L 36 9 L 36 10 " stroke-width="1" fill="undefined"/>
<path style="fill:#83EB60;fill-opacity:1" d="M 36 11 Q 35.5 11 35.25 10.75 Q 35 10.5 35 10 L 36 10 L 36 11 " stroke-width="1" fill="undefined"/>
<path style="fill:#99F579;fill-opacity:1" d="M 31 8 L 31 7 L 32 7 L 32 8 L 31 8 " stroke-width="1" fill="undefined"/>
<path style="fill:#3F6C30;fill-opacity:1" d="M 30 6 L 31 6 L 31 7 L 30 7 L 30 6 " stroke-width="1" fill="undefined"/>
<path style="fill:#162A0F;fill-opacity:1" d="M 29 6 L 29 5 L 30 5 L 30 6 L 29 6 " stroke-width="1" fill="undefined"/>
<path style="fill:#8EF06D;fill-opacity:1" d="M 31 8 L 30 8 L 30 7 L 31 7 L 31 8 " stroke-width="1" fill="undefined"/>
<path style="fill:#98F578;fill-opacity:1" d="M 30 6 L 30 7 L 29 7 L 29 6 L 30 6 " stroke-width="1" fill="undefined"/>
<path style="fill:#72E74E;fill-opacity:1" d="M 29 5 L 29 6 L 28 6 L 28 5 L 29 5 " stroke-width="1" fill="undefined"/>
<path style="fill:#87ED65;fill-opacity:1" d="M 28 7 L 28 6 L 29 6 L 29 7 L 28 7 " stroke-width="1" fill="undefined"/>
<path style="fill:#70E44D;fill-opacity:1" d="M 29 8 Q 28.5 8 28.25 7.75 Q 28 7.5 28 7 L 29 7 L 29 8 " stroke-width="1" fill="undefined"/>
<path style="fill:#7DE95A;fill-opacity:1" d="M 29 7 L 30 7 L 30 8 L 29 8 L 29 7 " stroke-width="1" fill="undefined"/>
<path style="fill:#65CE37;fill-opacity:1" d="M 28 16 L 28.75 16.25 L 29 17 L 28 17 L 28 16 " stroke-width="1" fill="undefined"/>
<path style="fill:#5FB721;fill-opacity:1" d="M 28 17 L 27 17 L 27 16 L 28 16 L 28 17 " stroke-width="1" fill="undefined"/>
<path style="fill:#5FBE2A;fill-opacity:1" d="M 32 20 L 32 19 L 32.75 19.25 L 33 20 L 32 20 " stroke-width="1" fill="undefined"/>
<path style="fill:#74B904;fill-opacity:1" d="M 32 20 L 33 20 L 33 21 L 32 21 L 32 20 " stroke-width="1" fill="undefined"/>
<path style="fill:#7CC102;fill-opacity:1" d="M 31 20 L 31 19 L 32 19 L 32 20 L 31 20 " stroke-width="1" fill="undefined"/>
<path style="fill:#65CD36;fill-opacity:1" d="M 33 21 L 33 20 L 33.75 20.25 L 34 21 L 33 21 " stroke-width="1" fill="undefined"/>
<path style="fill:#AAEB01;fill-opacity:1" d="M 32 21 L 33 21 L 33 22 L 32 22 L 32 21 " stroke-width="1" fill="undefined"/>
<path style="fill:#C6FC0C;fill-opacity:1" d="M 33 22 L 33 23 L 33 24 L 32 24 L 32 23 L 32 22 L 33 22 " stroke-width="1" fill="undefined"/>
<path style="fill:#BEF70A;fill-opacity:1" d="M 31.25 22.75 Q 31 22.5 31 22 L 32 22 L 32 23 L 31.25 22.75 M 28 19 L 28 18 L 29 18 L 29 19 L 28 19 " stroke-width="1" fill="undefined"/>
<path style="fill:#86CB01;fill-opacity:1" d="M 33 23 L 33 22 L 34 22 L 34 23 L 33 23 " stroke-width="1" fill="undefined"/>
<path style="fill:#5EBF2F;fill-opacity:1" d="M 35 23 L 34 23 L 34 22 L 35 22 L 35 23 " stroke-width="1" fill="undefined"/>
<path style="fill:#63AF0F;fill-opacity:1" d="M 33 22 L 33 21 L 34 21 L 34 22 L 33 22 " stroke-width="1" fill="undefined"/>
<path style="fill:#D4FF15;fill-opacity:1" d="M 31 22 L 31 21 L 32 21 L 32 22 L 31 22 " stroke-width="1" fill="undefined"/>
<path style="fill:#A4E800;fill-opacity:1" d="M 33 24 L 33 23 L 34 23 L 34 24 L 33 24 " stroke-width="1" fill="undefined"/>
<path style="fill:#68DB45;fill-opacity:1" d="M 36 23 L 35 23 L 35 22 L 36 22 L 36 23 " stroke-width="1" fill="undefined"/>
<path style="fill:#4A9229;fill-opacity:1" d="M 37 23 L 36 23 L 36 22 L 37 22 L 37 23 " stroke-width="1" fill="undefined"/>
<path style="fill:#4BA82B;fill-opacity:1" d="M 36 24 L 35 24 L 35 23 L 36 23 L 36 24 " stroke-width="1" fill="undefined"/>
<path style="fill:#5DAF15;fill-opacity:1" d="M 35 24 L 34 24 L 34 23 L 35 23 L 35 24 " stroke-width="1" fill="undefined"/>
<path style="fill:#B8F507;fill-opacity:1" d="M 32 20 L 32 21 L 31 21 L 31 20 L 32 20 " stroke-width="1" fill="undefined"/>
<path style="fill:#65D038;fill-opacity:1" d="M 30 18 L 30 17 L 30.75 17.25 L 31 18 L 30 18 " stroke-width="1" fill="undefined"/>
<path style="fill:#60BF2C;fill-opacity:1" d="M 31 19 L 31 18 L 31.75 18.25 L 32 19 L 31 19 " stroke-width="1" fill="undefined"/>
<path style="fill:#5FAE14;fill-opacity:1" d="M 29 17 L 30 17 L 30 18 L 29 18 L 29 17 " stroke-width="1" fill="undefined"/>
<path style="fill:#B6F406;fill-opacity:1" d="M 31 19 L 31 20 L 30 20 L 30 19 L 31 19 " stroke-width="1" fill="undefined"/>
<path style="fill:#D3FF13;fill-opacity:1" d="M 29 20 L 29 19 L 30 19 L 30 20 L 29 20 " stroke-width="1" fill="undefined"/>
<path style="fill:#D5FF15;fill-opacity:1" d="M 31 21 L 30 21 L 30 20 L 31 20 L 31 21 " stroke-width="1" fill="undefined"/>
<path style="fill:#70B505;fill-opacity:1" d="M 30 18 L 31 18 L 31 19 L 30 19 L 30 18 " stroke-width="1" fill="undefined"/>
<path style="fill:#A1E500;fill-opacity:1" d="M 29 19 L 29 18 L 30 18 L 30 19 L 29 19 " stroke-width="1" fill="undefined"/>
<path style="fill:#7ABF02;fill-opacity:1" d="M 29 17 L 29 18 L 28 18 L 28 17 L 29 17 " stroke-width="1" fill="undefined"/>
<path style="fill:#95DB00;fill-opacity:1" d="M 28 17 L 28 18 L 27 18 L 27 17 L 28 17 " stroke-width="1" fill="undefined"/>
<path style="fill:#ACEE00;fill-opacity:1" d="M 27 17 L 27 18 L 26 18 L 26 19 Q 25.5 19 25.4 18.8 Q 25 18 25 17 L 26 17 L 27 17 " stroke-width="1" fill="undefined"/>
<path style="fill:#C8FA0D;fill-opacity:1" d="M 27 18 L 28 18 L 28 19 L 27 19 L 27 18 " stroke-width="1" fill="undefined"/>
<path style="fill:#C5FB0D;fill-opacity:1" d="M 28 20 L 28 19 L 29 19 L 29 20 L 28 20 " stroke-width="1" fill="undefined"/>
<path style="fill:#ACEE02;fill-opacity:1" d="M 27.25 19.75 Q 27 19.5 27 19 L 28 19 L 28 20 Q 27.5 20 27.25 19.75 " stroke-width="1" fill="undefined"/>
<path style="fill:#A3E800;fill-opacity:1" d="M 32 25 Q 32.5 25.5 33.1 25.8 L 34 26 L 34 27 L 34 28 L 34 29 L 33 29 L 33 30 L 32 30 L 31 30 L 30 30 L 30 31 L 29 31 L 28 31 L 27 31 L 26 31 L 25 31 L 24.75 30.25 L 24 30 L 23 30 L 22 30 L 22 29 L 22.75 28.75 L 23 28 L 23.75 27.75 Q 24 27.5 24 27 L 24 26 L 24 25 L 24.6 24.75 Q 25.65 22.85 24 23 L 24 22 Q 24 21.5 23.75 21.25 L 23 21 L 22 21 L 21 21 L 20 21 L 20 22 L 19 22 L 19 23 L 19 24 L 19 25 L 19 26 L 19 27 L 19 28 L 18 28 Q 18 27.5 17.75 27.25 Q 17.5 27 17 27 Q 17 26.5 16.75 26.25 Q 16.5 26 16 26 L 16 25 L 16 24 L 16 23 L 16 22 Q 16.5 22 16.75 21.75 Q 17 21.5 17 21 L 17 20 Q 17.5 20 17.75 19.75 Q 18 19.5 18 19 L 19 19 Q 19.5 19 19.75 18.75 Q 20 18.5 20 18 L 21 18 Q 21.5 18 21.75 17.75 Q 22 17.5 22 17 L 23 17 L 24 17 L 25 17 Q 25 18 25.4 18.8 Q 25.5 19 26 19 L 27 19 Q 27 19.5 27.25 19.75 Q 27.5 20 28 20 L 29 20 Q 29 20.5 29.25 20.75 Q 29.5 21 30 21 Q 30 21.5 30.25 21.75 Q 30.5 22 31 22 Q 31 22.5 31.25 22.75 L 32 23 L 32 24 L 32 25 M 26 24 L 26 25 L 26.25 25.75 L 27 26 L 27 27 L 27 28 Q 27 28.5 27.25 28.75 L 28 29 L 29.8 28.6 Q 30 28.5 30 28 L 30.75 27.75 L 31 27 L 31 26 L 31 25 L 31 24 L 30.75 23.25 L 30 23 L 29 23 L 28 23 L 27 23 L 27 24 L 26 24 " stroke-width="1" fill="undefined"/>
<path style="fill:#BEF709;fill-opacity:1" d="M 27 18 L 27 19 L 26 19 L 26 18 L 27 18 " stroke-width="1" fill="undefined"/>
<path style="fill:#34600C;fill-opacity:1" d="M 29 24 L 28 24 L 28 23 L 29 23 L 29 24 " stroke-width="1" fill="undefined"/>
<path style="fill:#89C802;fill-opacity:1" d="M 28 24 L 27 24 L 27 23 L 28 23 L 28 24 " stroke-width="1" fill="undefined"/>
<path style="fill:#B4F305;fill-opacity:1" d="M 30.25 21.75 Q 30 21.5 30 21 L 31 21 L 31 22 Q 30.5 22 30.25 21.75 " stroke-width="1" fill="undefined"/>
<path style="fill:#B7F406;fill-opacity:1" d="M 29.25 20.75 Q 29 20.5 29 20 L 30 20 L 30 21 Q 29.5 21 29.25 20.75 " stroke-width="1" fill="undefined"/>
<path style="fill:#3D6B0B;fill-opacity:1" d="M 30 24 L 29 24 L 29 23 L 30 23 L 30 24 " stroke-width="1" fill="undefined"/>
<path style="fill:#427109;fill-opacity:1" d="M 31 25 L 31 26 L 30 26 L 30 25 L 31 25 " stroke-width="1" fill="undefined"/>
<path style="fill:#5E9207;fill-opacity:1" d="M 31 24 L 31 25 L 30 25 L 30 24 L 31 24 " stroke-width="1" fill="undefined"/>
<path style="fill:#14380F;fill-opacity:1" d="M 30 24 L 30 25 L 30 26 L 29 26 L 29 27 L 28 27 L 27.75 26.25 L 27 26 L 27 25 L 27.75 24.75 L 28 24 L 29 24 L 30 24 M 23 24 L 23 25 L 22 25 L 21 25 L 20 25 L 20 24 L 20 23 L 20 22 L 21 22 L 22 22 L 23 22 L 23 23 L 23 24 " stroke-width="1" fill="undefined"/>
<path style="fill:#98DB00;fill-opacity:1" d="M 30 23 L 30.75 23.25 L 31 24 L 30 24 L 30 23 " stroke-width="1" fill="undefined"/>
<path style="fill:#71A904;fill-opacity:1" d="M 30 27 L 30 26 L 31 26 L 31 27 L 30 27 " stroke-width="1" fill="undefined"/>
<path style="fill:#2D570C;fill-opacity:1" d="M 27 24 L 28 24 L 27.75 24.75 L 27 25 L 27 24 " stroke-width="1" fill="undefined"/>
<path style="fill:#8DCE01;fill-opacity:1" d="M 27 25 L 27 26 L 26.25 25.75 L 26 25 L 27 25 " stroke-width="1" fill="undefined"/>
<path style="fill:#9BDD00;fill-opacity:1" d="M 26 25 L 26 24 L 27 24 L 27 25 L 26 25 " stroke-width="1" fill="undefined"/>
<path style="fill:#406D08;fill-opacity:1" d="M 27 27 L 27 26 L 27.75 26.25 L 28 27 L 27 27 " stroke-width="1" fill="undefined"/>
<path style="fill:#7FB900;fill-opacity:1" d="M 27 28 L 27 27 L 28 27 L 28 28 L 27 28 " stroke-width="1" fill="undefined"/>
<path style="fill:#9FE200;fill-opacity:1" d="M 28 29 L 27.25 28.75 Q 27 28.5 27 28 L 28 28 L 28 29 " stroke-width="1" fill="undefined"/>
<path style="fill:#8BC900;fill-opacity:1" d="M 28 28 L 29 28 L 30 28 Q 30 28.5 29.8 28.6 L 28 29 L 28 28 " stroke-width="1" fill="undefined"/>
<path style="fill:#71A600;fill-opacity:1" d="M 30 27 L 30 28 L 29 28 L 28 28 L 28 27 L 29 27 L 30 27 " stroke-width="1" fill="undefined"/>
<path style="fill:#95D500;fill-opacity:1" d="M 30 27 L 31 27 L 30.75 27.75 L 30 28 L 30 27 " stroke-width="1" fill="undefined"/>
<path style="fill:#1E440D;fill-opacity:1" d="M 29 27 L 29 26 L 30 26 L 30 27 L 29 27 " stroke-width="1" fill="undefined"/>
<path style="fill:#775A7D;fill-opacity:1" d="M 37 25 L 37 26 L 36 26 L 36 25 L 37 25 " stroke-width="1" fill="undefined"/>
<path style="fill:#47A725;fill-opacity:1" d="M 36 25 L 36 26 L 35 26 L 35 25 L 36 25 " stroke-width="1" fill="undefined"/>
<path style="fill:#88688F;fill-opacity:1" d="M 37 25 L 36 25 L 36 24 L 37 24 L 37 25 " stroke-width="1" fill="undefined"/>
<path style="fill:#449720;fill-opacity:1" d="M 36 25 L 35 25 L 35 24 L 36 24 L 36 25 " stroke-width="1" fill="undefined"/>
<path style="fill:#6CB409;fill-opacity:1" d="M 34 25 L 34 24 L 35 24 L 35 25 L 34 25 " stroke-width="1" fill="undefined"/>
<path style="fill:#77BC05;fill-opacity:1" d="M 35 27 L 35 28 L 34 28 L 34 27 L 34 26 L 34 25 L 35 25 L 35 26 L 35 27 " stroke-width="1" fill="undefined"/>
<path style="fill:#50B830;fill-opacity:1" d="M 35 26 L 36 26 L 36 27 L 35 27 L 35 26 " stroke-width="1" fill="undefined"/>
<path style="fill:#BAF705;fill-opacity:1" d="M 32.75 24.75 L 32 25 L 32 24 L 33 24 L 32.75 24.75 " stroke-width="1" fill="undefined"/>
<path style="fill:#ACEF00;fill-opacity:1" d="M 34 26 L 33.1 25.8 Q 32.5 25.5 32 25 L 32.75 24.75 L 33 24 L 34 24 L 34 25 L 34 26 " stroke-width="1" fill="undefined"/>
<path style="fill:#88CC01;fill-opacity:1" d="M 34 30 L 33 30 L 33 29 L 34 29 L 34 30 " stroke-width="1" fill="undefined"/>
<path style="fill:#69B40E;fill-opacity:1" d="M 34 29 L 34 28 L 35 28 L 35 29 L 34 29 " stroke-width="1" fill="undefined"/>
<path style="fill:#4F6C36;fill-opacity:1" d="M 37 27 L 37 28 L 36 28 L 36 27 L 37 27 " stroke-width="1" fill="undefined"/>
<path style="fill:#4FAF2C;fill-opacity:1" d="M 36 29 L 36 28 L 37 28 L 37 29 L 36 29 " stroke-width="1" fill="undefined"/>
<path style="fill:#62C32C;fill-opacity:1" d="M 34 29 L 35 29 L 34.75 29.75 L 34 30 L 34 29 " stroke-width="1" fill="undefined"/>
<path style="fill:#837380;fill-opacity:1" d="M 37 27 L 36 27 L 36 26 L 37 26 L 37 27 " stroke-width="1" fill="undefined"/>
<path style="fill:#76726A;fill-opacity:1" d="M 37 24 L 36 24 L 36 23 L 37 23 L 37 24 " stroke-width="1" fill="undefined"/>
<path style="fill:#000000;fill-opacity:0.917647" d="M 46 19 L 46 20 L 45 20 L 45 19 L 46 19 " stroke-width="1" fill="undefined"/>
<path style="fill:#000000;fill-opacity:0.337255" d="M 46 20 L 47 20 L 47 21 L 46 21 L 46 20 " stroke-width="1" fill="undefined"/>
<path style="fill:#000000;fill-opacity:0.537255" d="M 45 18 L 46 18 L 46 19 L 45 19 L 45 18 " stroke-width="1" fill="undefined"/>
<path style="fill:#244E19;fill-opacity:1" d="M 43 19 L 43 18 L 43.75 18.25 L 44 19 L 43 19 " stroke-width="1" fill="undefined"/>
<path style="fill:#34731F;fill-opacity:1" d="M 43 20 L 43 19 L 44 19 L 44 20 L 43 20 " stroke-width="1" fill="undefined"/>
<path style="fill:#4FAB31;fill-opacity:1" d="M 43 20 L 44 20 L 44 21 L 43 21 L 43 20 " stroke-width="1" fill="undefined"/>
<path style="fill:#2C6815;fill-opacity:1" d="M 43 19 L 43 20 L 42 20 L 42 19 L 43 19 " stroke-width="1" fill="undefined"/>
<path style="fill:#5CC43D;fill-opacity:1" d="M 42 19 L 42 18 L 43 18 L 43 19 L 42 19 " stroke-width="1" fill="undefined"/>
<path style="fill:#54B038;fill-opacity:1" d="M 43 17 L 43 18 L 42 18 L 42 17 L 43 17 M 41 30 L 41 31 L 40 31 L 40 30 L 41 30 " stroke-width="1" fill="undefined"/>
<path style="fill:#65CF40;fill-opacity:1" d="M 44 22 L 43 22 L 43 21 L 44 21 L 44 22 " stroke-width="1" fill="undefined"/>
<path style="fill:#637150;fill-opacity:1" d="M 42 22 L 42 21 L 43 21 L 43 22 L 42 22 " stroke-width="1" fill="undefined"/>
<path style="fill:#61724D;fill-opacity:1" d="M 44 22 L 44 23 L 43 23 L 43 22 L 44 22 " stroke-width="1" fill="undefined"/>
<path style="fill:#3D812A;fill-opacity:1" d="M 44 22 L 44 21 L 45 21 L 45 22 L 44 22 " stroke-width="1" fill="undefined"/>
<path style="fill:#8C529D;fill-opacity:1" d="M 44 24 L 43 24 L 43 23 L 44 23 L 44 24 " stroke-width="1" fill="undefined"/>
<path style="fill:#60C33E;fill-opacity:1" d="M 44 23 L 44 22 L 45 22 L 45 23 L 44 23 " stroke-width="1" fill="undefined"/>
<path style="fill:#924FA7;fill-opacity:1" d="M 38 24 L 38 23 L 38 22 L 39 22 L 39.75 21.75 L 40 21 L 41 21 Q 41 21.5 41.25 21.75 Q 41.5 22 42 22 L 43 22 L 43 23 L 43 24 L 43 25 L 42 25 L 41 25 L 40.75 24.25 Q 40.5 24 40 24 L 39 24 L 38 24 " stroke-width="1" fill="undefined"/>
<path style="fill:#000000;fill-opacity:0.686275" d="M 46 22 L 46 21 L 47 21 L 47 22 L 46 22 " stroke-width="1" fill="undefined"/>
<path style="fill:#1E4113;fill-opacity:1" d="M 44 21 L 44 20 L 45 20 L 45 21 L 44 21 " stroke-width="1" fill="undefined"/>
<path style="fill:#59A733;fill-opacity:1" d="M 44 23 L 45 23 L 45 24 L 44 24 L 44 23 " stroke-width="1" fill="undefined"/>
<path style="fill:#5BBE39;fill-opacity:1" d="M 42 20 L 43 20 L 43 21 L 42 21 L 42 20 " stroke-width="1" fill="undefined"/>
<path style="fill:#469A2B;fill-opacity:1" d="M 42 19 L 41 19 L 41 18 L 42 18 L 42 19 " stroke-width="1" fill="undefined"/>
<path style="fill:#499F2C;fill-opacity:1" d="M 41 19 L 41 20 L 40 20 L 40 19 L 41 19 " stroke-width="1" fill="undefined"/>
<path style="fill:#55B636;fill-opacity:1" d="M 40 19 L 40 20 L 39 20 L 39 19 L 40 19 " stroke-width="1" fill="undefined"/>
<path style="fill:#39811F;fill-opacity:1" d="M 42 20 L 41 20 L 41 19 L 42 19 L 42 20 " stroke-width="1" fill="undefined"/>
<path style="fill:#59AF32;fill-opacity:1" d="M 41 20 L 42 20 L 42 21 L 41 21 L 41 20 " stroke-width="1" fill="undefined"/>
<path style="fill:#519729;fill-opacity:1" d="M 41 21 L 40 21 L 40 20 L 41 20 L 41 21 " stroke-width="1" fill="undefined"/>
<path style="fill:#367C1E;fill-opacity:1" d="M 41 19 L 40 19 L 39 19 L 39 18 L 40 18 L 41 18 L 41 19 " stroke-width="1" fill="undefined"/>
<path style="fill:#65D542;fill-opacity:1" d="M 39 19 L 39 20 L 38 20 L 38 19 L 39 19 " stroke-width="1" fill="undefined"/>
<path style="fill:#5EC73D;fill-opacity:1" d="M 39 19 L 38 19 L 38 18 L 39 18 L 39 19 " stroke-width="1" fill="undefined"/>
<path style="fill:#61C33C;fill-opacity:1" d="M 39 20 L 39 21 L 38 21 L 38 20 L 39 20 " stroke-width="1" fill="undefined"/>
<path style="fill:#518F31;fill-opacity:1" d="M 38 22 L 37 22 L 37 21 L 38 21 L 38 22 " stroke-width="1" fill="undefined"/>
<path style="fill:#82578A;fill-opacity:1" d="M 38 23 L 37 23 L 37 22 L 38 22 L 38 23 " stroke-width="1" fill="undefined"/>
<path style="fill:#9A58AE;fill-opacity:1" d="M 38 24 L 37 24 L 37 23 L 38 23 L 38 24 " stroke-width="1" fill="undefined"/>
<path style="fill:#8C529C;fill-opacity:1" d="M 39.75 21.75 L 39 22 L 39 21 L 40 21 L 39.75 21.75 " stroke-width="1" fill="undefined"/>
<path style="fill:#745D72;fill-opacity:1" d="M 39 22 L 38 22 L 38 21 L 39 21 L 39 22 " stroke-width="1" fill="undefined"/>
<path style="fill:#84558E;fill-opacity:1" d="M 41.25 21.75 Q 41 21.5 41 21 L 42 21 L 42 22 Q 41.5 22 41.25 21.75 " stroke-width="1" fill="undefined"/>
<path style="fill:#54A02C;fill-opacity:1" d="M 40 20 L 40 21 L 39 21 L 39 20 L 40 20 " stroke-width="1" fill="undefined"/>
<path style="fill:#86489A;fill-opacity:1" d="M 40 24 Q 40.5 24 40.75 24.25 L 41 25 L 40 25 L 40 24 " stroke-width="1" fill="undefined"/>
<path style="fill:#4F245C;fill-opacity:1" d="M 41 25 L 41 26 L 40 26 L 40 25 L 41 25 " stroke-width="1" fill="undefined"/>
<path style="fill:#592B67;fill-opacity:1" d="M 39 26 L 39 25 L 40 25 L 40 26 L 39 26 " stroke-width="1" fill="undefined"/>
<path style="fill:#552A63;fill-opacity:1" d="M 43 26 L 42 26 L 42 25 L 43 25 L 43 26 " stroke-width="1" fill="undefined"/>
<path style="fill:#472054;fill-opacity:1" d="M 42 26 L 41 26 L 41 25 L 42 25 L 42 26 " stroke-width="1" fill="undefined"/>
<path style="fill:#854698;fill-opacity:1" d="M 42 27 L 41 27 L 41 26 L 42 26 L 42 27 " stroke-width="1" fill="undefined"/>
<path style="fill:#9150A6;fill-opacity:1" d="M 41 27 L 40 27 L 40 26 L 41 26 L 41 27 " stroke-width="1" fill="undefined"/>
<path style="fill:#7B408D;fill-opacity:1" d="M 39 25 L 39 24 L 40 24 L 40 25 L 39 25 " stroke-width="1" fill="undefined"/>
<path style="fill:#743C85;fill-opacity:1" d="M 39 24 L 39 25 L 38 25 L 37 25 L 37 24 L 38 24 L 39 24 " stroke-width="1" fill="undefined"/>
<path style="fill:#5D2D6C;fill-opacity:1" d="M 38 25 L 39 25 L 39 26 L 38 26 L 37 26 L 37 25 L 38 25 M 42 28 L 43 28 L 43 29 L 42 29 L 41 29 L 40 29 L 40 28 L 42 28 " stroke-width="1" fill="undefined"/>
<path style="fill:#814494;fill-opacity:1" d="M 37 26 L 38 26 L 38 27 L 37 27 L 37 26 " stroke-width="1" fill="undefined"/>
<path style="fill:#9452A9;fill-opacity:1" d="M 39 27 L 38 27 L 38 26 L 39 26 L 39 27 " stroke-width="1" fill="undefined"/>
<path style="fill:#6A3D77;fill-opacity:1" d="M 38 28 L 37 28 L 37 27 L 38 27 L 38 28 " stroke-width="1" fill="undefined"/>
<path style="fill:#55643D;fill-opacity:1" d="M 38 28 L 38 29 L 37 29 L 37 28 L 38 28 " stroke-width="1" fill="undefined"/>
<path style="fill:#449C21;fill-opacity:1" d="M 38 30 L 37 30 L 37 29 L 38 29 L 38 30 " stroke-width="1" fill="undefined"/>
<path style="fill:#6B3D78;fill-opacity:1" d="M 38 29 L 38 28 L 39 28 L 39 29 L 38 29 " stroke-width="1" fill="undefined"/>
<path style="fill:#643273;fill-opacity:1" d="M 40 28 L 40 29 L 39 29 L 39 28 L 40 28 M 43 26 L 43 25 L 44 25 L 44 26 L 43 26 " stroke-width="1" fill="undefined"/>
<path style="fill:#6F3C7E;fill-opacity:1" d="M 40 27 L 40 28 L 39 28 L 39 27 L 40 27 " stroke-width="1" fill="undefined"/>
<path style="fill:#477622;fill-opacity:1" d="M 38 30 L 38 29 L 39 29 L 39 30 L 38 30 " stroke-width="1" fill="undefined"/>
<path style="fill:#7D458E;fill-opacity:1" d="M 43 27 L 43 28 L 42 28 L 40 28 L 40 27 L 41 27 L 42 27 L 43 27 " stroke-width="1" fill="undefined"/>
<path style="fill:#5D3D62;fill-opacity:1" d="M 40 30 L 40 29 L 41 29 L 42 29 L 42 30 L 41 30 L 40 30 " stroke-width="1" fill="undefined"/>
<path style="fill:#9856AC;fill-opacity:1" d="M 40 27 L 39 27 L 39 26 L 40 26 L 40 27 " stroke-width="1" fill="undefined"/>
<path style="fill:#5C4E55;fill-opacity:1" d="M 40 30 L 39 30 L 39 29 L 40 29 L 40 30 " stroke-width="1" fill="undefined"/>
<path style="fill:#733C84;fill-opacity:1" d="M 43 27 L 42 27 L 42 26 L 43 26 L 43 27 M 44 26 L 44 25 L 45 25 L 45 26 L 44 26 " stroke-width="1" fill="undefined"/>
<path style="fill:#38592E;fill-opacity:1" d="M 45 27 L 45 26 L 45 25 L 46 25 L 46 26 L 46 27 L 45 27 " stroke-width="1" fill="undefined"/>
<path style="fill:#254F1A;fill-opacity:1" d="M 45 25 L 45 24 L 45.75 24.25 L 46 25 L 45 25 " stroke-width="1" fill="undefined"/>
<path style="fill:#796B76;fill-opacity:1" d="M 45 24 L 45 25 L 44 25 L 44 24 L 45 24 " stroke-width="1" fill="undefined"/>
<path style="fill:#9652AC;fill-opacity:1" d="M 9 23 L 8 23 L 8 22 L 9 22 L 10 22 L 11 22 L 12 22 L 13 22 L 13 23 L 12 23 L 11 23 L 10 23 L 9 23 M 44 24 L 44 25 L 43 25 L 43 24 L 44 24 " stroke-width="1" fill="undefined"/>
<path style="fill:#5A2C68;fill-opacity:1" d="M 44 27 L 43 27 L 43 26 L 44 26 L 44 27 " stroke-width="1" fill="undefined"/>
<path style="fill:#773D88;fill-opacity:1" d="M 44 27 L 44 28 L 43 28 L 43 27 L 44 27 " stroke-width="1" fill="undefined"/>
<path style="fill:#5B3765;fill-opacity:1" d="M 43 29 L 43 28 L 44 28 L 44 29 L 43 29 " stroke-width="1" fill="undefined"/>
<path style="fill:#7C4B8B;fill-opacity:1" d="M 45 27 L 45 28 L 44 28 L 44 27 L 45 27 " stroke-width="1" fill="undefined"/>
<path style="fill:#6AC94D;fill-opacity:1" d="M 43 29 L 44 29 L 44 30 L 43 30 L 43 29 " stroke-width="1" fill="undefined"/>
<path style="fill:#699A59;fill-opacity:1" d="M 45 28 L 45 29 L 44 29 L 44 28 L 45 28 " stroke-width="1" fill="undefined"/>
<path style="fill:#2F6B1E;fill-opacity:1" d="M 45 29 L 45 28 L 46 28 L 46 29 L 45 29 " stroke-width="1" fill="undefined"/>
<path style="fill:#3D742C;fill-opacity:1" d="M 45 27 L 46 27 L 46 28 L 45 28 L 45 27 " stroke-width="1" fill="undefined"/>
<path style="fill:#1E4812;fill-opacity:1" d="M 45 29 L 46 29 L 45.75 29.75 L 45 30 L 45 29 " stroke-width="1" fill="undefined"/>
<path style="fill:#50255D;fill-opacity:1" d="M 44 27 L 44 26 L 45 26 L 45 27 L 44 27 " stroke-width="1" fill="undefined"/>
<path style="fill:#6EE44A;fill-opacity:1" d="M 44 29 L 45 29 L 45 30 L 44 30 L 44 29 " stroke-width="1" fill="undefined"/>
<path style="fill:#59674E;fill-opacity:1" d="M 43 30 L 42 30 L 42 29 L 43 29 L 43 30 " stroke-width="1" fill="undefined"/>
<path style="fill:#5ED03C;fill-opacity:1" d="M 37 30 L 36.25 29.75 Q 36 29.5 36 29 L 37 29 L 37 30 " stroke-width="1" fill="undefined"/>
<path style="fill:#64B314;fill-opacity:1" d="M 26 17 L 26 16 L 27 16 L 27 17 L 26 17 " stroke-width="1" fill="undefined"/>
<path style="fill:#74E052;fill-opacity:1" d="M 24 5 Q 24 5.5 23.75 5.75 Q 23.5 6 23 6 L 23 5 L 24 5 " stroke-width="1" fill="undefined"/>
<path style="fill:#6ED04F;fill-opacity:1" d="M 23 5 L 23 6 L 22 6 L 22 5 L 23 5 " stroke-width="1" fill="undefined"/>
<path style="fill:#5DBA40;fill-opacity:1" d="M 21 5 L 22 5 L 22 6 L 21 6 L 21 5 " stroke-width="1" fill="undefined"/>
<path style="fill:#4D9F34;fill-opacity:1" d="M 20 5 L 21 5 L 21 6 L 20 6 L 20 5 " stroke-width="1" fill="undefined"/>
<path style="fill:#448D2D;fill-opacity:1" d="M 19 5 L 20 5 L 20 6 L 19 6 L 19 5 " stroke-width="1" fill="undefined"/>
<path style="fill:#30651F;fill-opacity:1" d="M 19 6 L 18 6 L 18 5 L 19 5 L 19 6 " stroke-width="1" fill="undefined"/>
<path style="fill:#172F0F;fill-opacity:1" d="M 18 5 L 18 6 L 17 6 L 17 5 L 18 5 " stroke-width="1" fill="undefined"/>
<path style="fill:#57B53A;fill-opacity:1" d="M 16 6 L 17 6 Q 17 6.5 16.75 6.75 Q 16.5 7 16 7 L 16 6 " stroke-width="1" fill="undefined"/>
<path style="fill:#68D73F;fill-opacity:1" d="M 21 17 L 20 17 L 20 16 L 21 16 L 21 17 " stroke-width="1" fill="undefined"/>
<path style="fill:#6DB50B;fill-opacity:1" d="M 23 16 L 25 16 L 26 16 L 26 17 L 25 17 L 24 17 L 23 17 L 23 16 " stroke-width="1" fill="undefined"/>
<path style="fill:#65B616;fill-opacity:1" d="M 23 17 L 22 17 L 22 16 L 23 16 L 23 17 " stroke-width="1" fill="undefined"/>
<path style="fill:#61C02A;fill-opacity:1" d="M 22 17 L 21 17 L 21 16 L 22 16 L 22 17 " stroke-width="1" fill="undefined"/>
<path style="fill:#3D8029;fill-opacity:1" d="M 15 6 L 16 6 L 16 7 L 15 7 L 15 6 " stroke-width="1" fill="undefined"/>
<path style="fill:#57B73A;fill-opacity:1" d="M 15 7 Q 14.5 7 14.25 6.75 L 14 6 L 15 6 L 15 7 " stroke-width="1" fill="undefined"/>
<path style="fill:#172D0F;fill-opacity:1" d="M 14 6 L 13 6 L 13 5 L 14 5 L 14 6 M 9 7 L 10 7 L 10 8 L 9 8 L 9 7 " stroke-width="1" fill="undefined"/>
<path style="fill:#2D6A1E;fill-opacity:1" d="M 12 6 L 12 5 L 13 5 L 13 6 L 12 6 " stroke-width="1" fill="undefined"/>
<path style="fill:#0C2B0A;fill-opacity:1" d="M 12 5 L 12 6 L 12 7 L 11 7 L 10.75 6.25 L 10 6 L 10 5 L 11 5 L 12 5 " stroke-width="1" fill="undefined"/>
<path style="fill:#45902C;fill-opacity:1" d="M 12 6 L 13 6 Q 13 6.5 12.75 6.75 Q 12.5 7 12 7 L 12 6 " stroke-width="1" fill="undefined"/>
<path style="fill:#5CB73D;fill-opacity:1" d="M 11 7 L 12 7 Q 12 7.5 11.75 7.75 Q 11.5 8 11 8 L 11 7 " stroke-width="1" fill="undefined"/>
<path style="fill:#153A0F;fill-opacity:1" d="M 10 6 L 10.75 6.25 L 11 7 L 10 7 L 10 6 " stroke-width="1" fill="undefined"/>
<path style="fill:#61C03F;fill-opacity:1" d="M 11 7 L 11 8 L 10 8 L 10 7 L 11 7 " stroke-width="1" fill="undefined"/>
<path style="fill:#4D9D33;fill-opacity:1" d="M 9 6 L 10 6 L 10 7 L 9 7 L 9 6 " stroke-width="1" fill="undefined"/>
<path style="fill:#46922E;fill-opacity:1" d="M 10 5 L 10 6 L 9 6 L 9 5 L 10 5 " stroke-width="1" fill="undefined"/>
<path style="fill:#4D9532;fill-opacity:1" d="M 9 5 L 9 6 L 8 6 L 8 5 L 9 5 " stroke-width="1" fill="undefined"/>
<path style="fill:#1A3211;fill-opacity:1" d="M 9 6 L 9 7 L 8 7 L 8 6 L 9 6 " stroke-width="1" fill="undefined"/>
<path style="fill:#000000;fill-opacity:0.819608" d="M 8 8 L 9 8 Q 9 8.5 8.75 8.75 Q 8.5 9 8 9 L 8 8 " stroke-width="1" fill="undefined"/>
<path style="fill:#000000;fill-opacity:0.0666667" d="M 8 8 L 8 9 L 7 9 L 7 8 L 8 8 " stroke-width="1" fill="undefined"/>
<path style="fill:#000000;fill-opacity:0.513725" d="M 8 9 Q 8 9.5 7.75 9.75 Q 7.5 10 7 10 L 7 9 L 8 9 " stroke-width="1" fill="undefined"/>
<path style="fill:#54B338;fill-opacity:1" d="M 11 8 Q 11 8.5 10.75 8.75 Q 10.5 9 10 9 L 10 8 L 11 8 " stroke-width="1" fill="undefined"/>
<path style="fill:#2C5A1E;fill-opacity:1" d="M 9.75 10.75 Q 9.5 11 9 11 L 9 10 L 10 10 Q 10 10.5 9.75 10.75 " stroke-width="1" fill="undefined"/>
<path style="fill:#4DA034;fill-opacity:1" d="M 8.75 11.75 Q 8.5 12 8 12 L 8 11 L 9 11 Q 9 11.5 8.75 11.75 " stroke-width="1" fill="undefined"/>
<path style="fill:#3D802A;fill-opacity:1" d="M 7.75 12.75 Q 7.5 13 7 13 L 7 12 L 8 12 Q 8 12.5 7.75 12.75 " stroke-width="1" fill="undefined"/>
<path style="fill:#63C831;fill-opacity:1" d="M 16 21 L 15 21 L 15 20 L 16 20 L 16 21 " stroke-width="1" fill="undefined"/>
<path style="fill:#5FBD2A;fill-opacity:1" d="M 17 20 L 16 20 L 16 19 L 17 19 L 17 20 " stroke-width="1" fill="undefined"/>
<path style="fill:#78A269;fill-opacity:1" d="M 12 22 L 12 21 L 12.75 21.25 Q 13 21.5 13 22 L 12 22 " stroke-width="1" fill="undefined"/>
<path style="fill:#75B261;fill-opacity:1" d="M 14 23 L 13 23 L 13 22 L 14 22 L 14 23 " stroke-width="1" fill="undefined"/>
<path style="fill:#607552;fill-opacity:1" d="M 14 24 L 13 24 L 13 23 L 14 23 L 14 24 " stroke-width="1" fill="undefined"/>
<path style="fill:#62C32E;fill-opacity:1" d="M 15 23 L 14 23 L 14 22 L 15 22 L 15 23 " stroke-width="1" fill="undefined"/>
<path style="fill:#835E89;fill-opacity:1" d="M 11 22 L 11 21 L 12 21 L 12 22 L 11 22 " stroke-width="1" fill="undefined"/>
<path style="fill:#5B2C69;fill-opacity:1" d="M 12 24 L 12 23 L 13 23 L 13 24 L 12 24 " stroke-width="1" fill="undefined"/>
<path style="fill:#5CA40C;fill-opacity:1" d="M 16 21 L 16 22 L 15 22 L 15 21 L 16 21 " stroke-width="1" fill="undefined"/>
<path style="fill:#7BBF02;fill-opacity:1" d="M 15 23 L 15 22 L 16 22 L 16 23 L 15 23 " stroke-width="1" fill="undefined"/>
<path style="fill:#9CE100;fill-opacity:1" d="M 17 21 Q 17 21.5 16.75 21.75 Q 16.5 22 16 22 L 16 21 L 17 21 " stroke-width="1" fill="undefined"/>
<path style="fill:#96DB00;fill-opacity:1" d="M 15 25 L 15 24 L 15 23 L 16 23 L 16 24 L 16 25 L 15 25 " stroke-width="1" fill="undefined"/>
<path style="fill:#6DB104;fill-opacity:1" d="M 16 21 L 16 20 L 17 20 L 17 21 L 16 21 " stroke-width="1" fill="undefined"/>
<path style="fill:#56A414;fill-opacity:1" d="M 15 24 L 14 24 L 14 23 L 15 23 L 15 24 " stroke-width="1" fill="undefined"/>
<path style="fill:#60CB3E;fill-opacity:1" d="M 10 19 L 10 20 L 9 20 L 9 19 L 10 19 " stroke-width="1" fill="undefined"/>
<path style="fill:#52AF33;fill-opacity:1" d="M 9 19 L 9 18 L 9.75 18.25 Q 10 18.5 10 19 L 9 19 " stroke-width="1" fill="undefined"/>
<path style="fill:#33761C;fill-opacity:1" d="M 8 18 L 9 18 L 9 19 L 8 19 L 8 18 " stroke-width="1" fill="undefined"/>
<path style="fill:#449529;fill-opacity:1" d="M 8 19 L 8 20 L 7 20 L 7 19 L 8 19 " stroke-width="1" fill="undefined"/>
<path style="fill:#51AE32;fill-opacity:1" d="M 9 19 L 9 20 L 8 20 L 8 19 L 9 19 " stroke-width="1" fill="undefined"/>
<path style="fill:#60C23C;fill-opacity:1" d="M 9 20 L 9 21 L 8 21 L 8 20 L 9 20 " stroke-width="1" fill="undefined"/>
<path style="fill:#38801F;fill-opacity:1" d="M 8 19 L 7 19 L 7 18 L 8 18 L 8 19 " stroke-width="1" fill="undefined"/>
<path style="fill:#7C5A7E;fill-opacity:1" d="M 9 22 L 8 22 L 8 21 L 9 21 L 9 22 " stroke-width="1" fill="undefined"/>
<path style="fill:#9450A9;fill-opacity:1" d="M 8 23 L 7 23 L 7 22 L 8 22 L 8 23 " stroke-width="1" fill="undefined"/>
<path style="fill:#5D7645;fill-opacity:1" d="M 8 22 L 7 22 L 7 21 L 8 21 L 8 22 " stroke-width="1" fill="undefined"/>
<path style="fill:#895396;fill-opacity:1" d="M 10 22 L 9 22 L 9 21 L 10 21 L 11 21 L 11 22 L 10 22 " stroke-width="1" fill="undefined"/>
<path style="fill:#62C73D;fill-opacity:1" d="M 10 21 L 10 20 L 10.75 20.25 L 11 21 L 10 21 " stroke-width="1" fill="undefined"/>
<path style="fill:#663376;fill-opacity:1" d="M 11 24 L 11 25 L 10 25 L 10 24 L 10 23 L 11 23 L 11 24 " stroke-width="1" fill="undefined"/>
<path style="fill:#5CB636;fill-opacity:1" d="M 9 21 L 9 20 L 10 20 L 10 21 L 9 21 " stroke-width="1" fill="undefined"/>
<path style="fill:#763D88;fill-opacity:1" d="M 10 24 L 9 24 L 9 23 L 10 23 L 10 24 " stroke-width="1" fill="undefined"/>
<path style="fill:#6F3A80;fill-opacity:1" d="M 12 24 L 12 25 L 11 25 L 11 24 L 12 24 " stroke-width="1" fill="undefined"/>
<path style="fill:#9856AD;fill-opacity:1" d="M 10 26 L 10 25 L 11 25 L 11 26 L 10 26 " stroke-width="1" fill="undefined"/>
<path style="fill:#854898;fill-opacity:1" d="M 11 27 L 10 27 L 10 26 L 11 26 L 11 27 " stroke-width="1" fill="undefined"/>
<path style="fill:#9453A9;fill-opacity:1" d="M 12 25 L 12 26 L 11 26 L 11 25 L 12 25 " stroke-width="1" fill="undefined"/>
<path style="fill:#9C5CB0;fill-opacity:1" d="M 9 26 L 9 25 L 10 25 L 10 26 L 9 26 " stroke-width="1" fill="undefined"/>
<path style="fill:#9553AB;fill-opacity:1" d="M 7 26 L 7 25 L 8 25 L 9 25 L 9 26 L 8 26 L 7 26 " stroke-width="1" fill="undefined"/>
<path style="fill:#7B448B;fill-opacity:1" d="M 9 27 L 8 27 L 8 26 L 9 26 L 9 27 " stroke-width="1" fill="undefined"/>
<path style="fill:#703A80;fill-opacity:1" d="M 7 26 L 8 26 L 8 27 L 7.25 26.75 L 7 26 " stroke-width="1" fill="undefined"/>
<path style="fill:#6B5568;fill-opacity:1" d="M 9 30 L 8 30 L 8 29 L 9 29 L 9 30 " stroke-width="1" fill="undefined"/>
<path style="fill:#6E3C7D;fill-opacity:1" d="M 7.75 28.25 Q 8 28.5 8 29 L 7 29 L 7 28 Q 7.5 28 7.75 28.25 " stroke-width="1" fill="undefined"/>
<path style="fill:#4F6E2F;fill-opacity:1" d="M 8 30 L 7 30 L 7 29 L 8 29 L 8 30 " stroke-width="1" fill="undefined"/>
<path style="fill:#60306F;fill-opacity:1" d="M 11 28 L 10.1 27.8 L 9 27 L 10 27 L 11 27 L 11 28 " stroke-width="1" fill="undefined"/>
<path style="fill:#673477;fill-opacity:1" d="M 12 27 L 12 28 L 11 28 L 11 27 L 11 26 L 12 26 L 12 27 " stroke-width="1" fill="undefined"/>
<path style="fill:#685A60;fill-opacity:1" d="M 11 30 L 10 30 L 10 29 L 11 29 L 11 30 " stroke-width="1" fill="undefined"/>
<path style="fill:#6C3A7A;fill-opacity:1" d="M 11 29 L 11 28 L 12 28 L 12 29 L 11 29 " stroke-width="1" fill="undefined"/>
<path style="fill:#9353A8;fill-opacity:1" d="M 9 27 L 9 26 L 10 26 L 10 27 L 9 27 " stroke-width="1" fill="undefined"/>
<path style="fill:#715274;fill-opacity:1" d="M 10 30 L 9 30 L 9 29 L 10 29 L 10 30 " stroke-width="1" fill="undefined"/>
<path style="fill:#8CCC00;fill-opacity:1" d="M 15 25 L 16 25 L 16 26 L 15 26 L 15 25 " stroke-width="1" fill="undefined"/>
<path style="fill:#73B202;fill-opacity:1" d="M 15 27 L 15 26 L 16 26 L 16 27 L 15 27 " stroke-width="1" fill="undefined"/>
<path style="fill:#549F10;fill-opacity:1" d="M 14 26 L 14 25 L 14 24 L 15 24 L 15 25 L 15 26 L 14 26 " stroke-width="1" fill="undefined"/>
<path style="fill:#696260;fill-opacity:1" d="M 14 25 L 13 25 L 13 24 L 14 24 L 14 25 " stroke-width="1" fill="undefined"/>
<path style="fill:#7A408C;fill-opacity:1" d="M 12 24 L 13 24 L 13 25 L 13 26 L 12 26 L 12 25 L 12 24 " stroke-width="1" fill="undefined"/>
<path style="fill:#5E5E57;fill-opacity:1" d="M 13 26 L 13 25 L 14 25 L 14 26 L 13 26 " stroke-width="1" fill="undefined"/>
<path style="fill:#64B147;fill-opacity:1" d="M 14 27 L 13 27 L 13 26 L 14 26 L 14 27 " stroke-width="1" fill="undefined"/>
<path style="fill:#703980;fill-opacity:1" d="M 13 27 L 12 27 L 12 26 L 13 26 L 13 27 " stroke-width="1" fill="undefined"/>
<path style="fill:#70417C;fill-opacity:1" d="M 12 28 L 12 27 L 13 27 L 13 28 L 12 28 " stroke-width="1" fill="undefined"/>
<path style="fill:#58803A;fill-opacity:1" d="M 12 28 L 13 28 L 13 29 L 12 29 L 12 28 " stroke-width="1" fill="undefined"/>
<path style="fill:#67D543;fill-opacity:1" d="M 12 29 L 13 29 Q 13 29.5 12.75 29.75 L 12 30 L 12 29 " stroke-width="1" fill="undefined"/>
<path style="fill:#5AA20C;fill-opacity:1" d="M 15 28 L 15 27 L 16 27 L 16 28 L 15 28 " stroke-width="1" fill="undefined"/>
<path style="fill:#68D840;fill-opacity:1" d="M 17 30 L 16.25 29.75 L 16 29 L 17 29 L 17 30 M 15 27 L 15 28 L 14.25 27.75 L 14 27 L 15 27 " stroke-width="1" fill="undefined"/>
<path style="fill:#67D43D;fill-opacity:1" d="M 16 28 L 16 29 L 15.25 28.75 L 15 28 L 16 28 " stroke-width="1" fill="undefined"/>
<path style="fill:#84C000;fill-opacity:1" d="M 16 28 L 16 27 L 17 27 L 17 28 L 16 28 " stroke-width="1" fill="undefined"/>
<path style="fill:#5BA30C;fill-opacity:1" d="M 16 29 L 16 28 L 17 28 L 17 29 L 16 29 " stroke-width="1" fill="undefined"/>
<path style="fill:#5DB723;fill-opacity:1" d="M 14 26 L 15 26 L 15 27 L 14 27 L 14 26 " stroke-width="1" fill="undefined"/>
<path style="fill:#9ADB00;fill-opacity:1" d="M 16 27 L 16 26 Q 16.5 26 16.75 26.25 Q 17 26.5 17 27 L 16 27 " stroke-width="1" fill="undefined"/>
<path style="fill:#5F2E6E;fill-opacity:1" d="M 11 24 L 11 23 L 12 23 L 12 24 L 11 24 " stroke-width="1" fill="undefined"/>
<path style="fill:#4D7A2C;fill-opacity:1" d="M 11 29 L 12 29 L 12 30 L 11 30 L 11 29 " stroke-width="1" fill="undefined"/>
<path style="fill:#4B7C09;fill-opacity:1" d="M 22 21 L 23 21 L 23 22 L 22 22 L 22 21 " stroke-width="1" fill="undefined"/>
<path style="fill:#4E8009;fill-opacity:1" d="M 24 22 L 24 23 L 23 23 L 23 22 L 24 22 " stroke-width="1" fill="undefined"/>
<path style="fill:#9ADD00;fill-opacity:1" d="M 23 22 L 23 21 L 23.75 21.25 Q 24 21.5 24 22 L 23 22 " stroke-width="1" fill="undefined"/>
<path style="fill:#35610B;fill-opacity:1" d="M 21 21 L 22 21 L 22 22 L 21 22 L 21 21 " stroke-width="1" fill="undefined"/>
<path style="fill:#234B0D;fill-opacity:1" d="M 23 23 L 24 23 L 24 24 L 24 25 L 23 25 L 23 24 L 23 23 M 21 26 L 21 25 L 22 25 L 22 26 L 21 26 " stroke-width="1" fill="undefined"/>
<path style="fill:#7ABF05;fill-opacity:1" d="M 21 17 L 21 18 L 20 18 L 20 17 L 21 17 " stroke-width="1" fill="undefined"/>
<path style="fill:#94D900;fill-opacity:1" d="M 22 17 Q 22 17.5 21.75 17.75 Q 21.5 18 21 18 L 21 17 L 22 17 " stroke-width="1" fill="undefined"/>
<path style="fill:#9ADF00;fill-opacity:1" d="M 19 18 L 20 18 Q 20 18.5 19.75 18.75 Q 19.5 19 19 19 L 19 18 " stroke-width="1" fill="undefined"/>
<path style="fill:#62B71D;fill-opacity:1" d="M 19 18 L 19 17 L 20 17 L 20 18 L 19 18 " stroke-width="1" fill="undefined"/>
<path style="fill:#68D63E;fill-opacity:1" d="M 19 18 L 18 18 L 18 17 L 19 17 L 19 18 " stroke-width="1" fill="undefined"/>
<path style="fill:#6DB307;fill-opacity:1" d="M 19 19 L 18 19 L 18 18 L 19 18 L 19 19 " stroke-width="1" fill="undefined"/>
<path style="fill:#76BA02;fill-opacity:1" d="M 18 19 Q 18 19.5 17.75 19.75 Q 17.5 20 17 20 L 17 19 L 18 19 " stroke-width="1" fill="undefined"/>
<path style="fill:#61C22D;fill-opacity:1" d="M 18 19 L 17 19 L 17 18 L 18 18 L 18 19 M 27 34 L 28 34 L 27.75 34.75 L 27 35 L 27 34 " stroke-width="1" fill="undefined"/>
<path style="fill:#7CB704;fill-opacity:1" d="M 19 23 L 19 22 L 20 22 L 20 23 L 19 23 " stroke-width="1" fill="undefined"/>
<path style="fill:#70A905;fill-opacity:1" d="M 21 22 L 20 22 L 20 21 L 21 21 L 21 22 " stroke-width="1" fill="undefined"/>
<path style="fill:#4D7E09;fill-opacity:1" d="M 19 24 L 19 23 L 20 23 L 20 24 L 19 24 " stroke-width="1" fill="undefined"/>
<path style="fill:#3F6D09;fill-opacity:1" d="M 21 26 L 20 26 L 20 25 L 21 25 L 21 26 " stroke-width="1" fill="undefined"/>
<path style="fill:#487708;fill-opacity:1" d="M 19 25 L 19 24 L 20 24 L 20 25 L 19 25 " stroke-width="1" fill="undefined"/>
<path style="fill:#77AF00;fill-opacity:1" d="M 20 25 L 20 26 L 19 26 L 19 25 L 20 25 " stroke-width="1" fill="undefined"/>
<path style="fill:#72A800;fill-opacity:1" d="M 19.75 31.25 Q 19.5 31 19 31 L 19 30 L 19.75 29.75 L 20 29 L 20 28 L 20 27 L 20 26 L 21 26 Q 21.5 26.5 22 26.5 L 22 26 L 23 26 L 24 26 L 24 27 L 23 27 L 23 28 L 22 28 L 22 29 L 22 30 L 22 31 Q 22 31.5 21.8 31.6 L 20 32 Q 20 31.5 19.75 31.25 " stroke-width="1" fill="undefined"/>
<path style="fill:#99DA00;fill-opacity:1" d="M 17 28 L 17 27 Q 17.5 27 17.75 27.25 Q 18 27.5 18 28 L 17 28 " stroke-width="1" fill="undefined"/>
<path style="fill:#7EBC01;fill-opacity:1" d="M 17 29 L 17 28 L 18 28 L 18 29 L 17 29 " stroke-width="1" fill="undefined"/>
<path style="fill:#94D300;fill-opacity:1" d="M 20 28 L 20 29 L 19 29 L 18 29 L 18 28 L 19 28 L 20 28 " stroke-width="1" fill="undefined"/>
<path style="fill:#6BAA02;fill-opacity:1" d="M 19 30 L 18 30 L 18 29 L 19 29 L 19 30 " stroke-width="1" fill="undefined"/>
<path style="fill:#57A918;fill-opacity:1" d="M 17 30 L 17 29 L 18 29 L 18 30 L 17 30 " stroke-width="1" fill="undefined"/>
<path style="fill:#89C700;fill-opacity:1" d="M 20 27 L 20 28 L 19 28 L 19 27 L 20 27 " stroke-width="1" fill="undefined"/>
<path style="fill:#83BE00;fill-opacity:1" d="M 19 27 L 19 26 L 20 26 L 20 27 L 19 27 M 24 27 Q 24 27.5 23.75 27.75 L 23 28 L 23 27 L 24 27 " stroke-width="1" fill="undefined"/>
<path style="fill:#80BB00;fill-opacity:1" d="M 19.75 29.75 L 19 30 L 19 29 L 20 29 L 19.75 29.75 " stroke-width="1" fill="undefined"/>
<path style="fill:#2B530B;fill-opacity:1" d="M 22 26 L 22 25 L 23 25 L 23 26 L 22 26 " stroke-width="1" fill="undefined"/>
<path style="fill:#629502;fill-opacity:1" d="M 23 26 L 23 25 L 24 25 L 24 26 L 23 26 " stroke-width="1" fill="undefined"/>
<path style="fill:#9FE300;fill-opacity:1" d="M 24 24 L 24 23 Q 25.65 22.85 24.6 24.75 L 24 25 L 24 24 " stroke-width="1" fill="undefined"/>
<path style="fill:#8FCE00;fill-opacity:1" d="M 23 28 L 22.75 28.75 L 22 29 L 22 28 L 23 28 " stroke-width="1" fill="undefined"/>
<path style="fill:#6EA300;fill-opacity:1" d="M 22 26 L 22 26.5 Q 21.5 26.5 21 26 L 22 26 " stroke-width="1" fill="undefined"/>
<path style="fill:#70AF02;fill-opacity:1" d="M 27 32 L 26.25 31.75 L 26 31 L 27 31 L 27 32 " stroke-width="1" fill="undefined"/>
<path style="fill:#6DA400;fill-opacity:1" d="M 27 33 L 27 34 L 26 34 L 25 34 L 24 34 L 23 34 L 22 34 L 21 34 Q 21 33.5 20.75 33.25 Q 20.5 33 20 33 L 20 32 L 21.8 31.6 Q 22 31.5 22 31 L 23 31 Q 23.5 31.5 24 31.5 L 24 31 L 25 31 L 26 31 L 26.25 31.75 L 27 32 L 27 33 " stroke-width="1" fill="undefined"/>
<path style="fill:#9EE000;fill-opacity:1" d="M 24 31 L 24 30 L 24.75 30.25 L 25 31 L 24 31 " stroke-width="1" fill="undefined"/>
<path style="fill:#7FBE01;fill-opacity:1" d="M 23 31 L 22 31 L 22 30 L 23 30 L 23 31 " stroke-width="1" fill="undefined"/>
<path style="fill:#63A104;fill-opacity:1" d="M 24 31 L 24 31.5 Q 23.5 31.5 23 31 L 24 31 " stroke-width="1" fill="undefined"/>
<path style="fill:#91D300;fill-opacity:1" d="M 24 31 L 23 31 L 23 30 L 24 30 L 24 31 " stroke-width="1" fill="undefined"/>
<path style="fill:#5A9A05;fill-opacity:1" d="M 22 34 L 23 34 L 24 34 L 24 35 L 23 35 L 22 35 L 22 34 " stroke-width="1" fill="undefined"/>
<path style="fill:#5D9B03;fill-opacity:1" d="M 25 34 L 26 34 L 26 35 L 25 35 L 24 35 L 24 34 L 25 34 " stroke-width="1" fill="undefined"/>
<path style="fill:#59AD1C;fill-opacity:1" d="M 21 34 L 22 34 L 22 35 L 21 35 L 21 34 M 19 32 L 18 32 L 18 31 L 19 31 L 19 32 " stroke-width="1" fill="undefined"/>
<path style="fill:#58A10F;fill-opacity:1" d="M 27 34 L 27 35 L 26 35 L 26 34 L 27 34 " stroke-width="1" fill="undefined"/>
<path style="fill:#68A101;fill-opacity:1" d="M 19 32 L 19 31 Q 19.5 31 19.75 31.25 Q 20 31.5 20 32 L 19 32 " stroke-width="1" fill="undefined"/>
<path style="fill:#559907;fill-opacity:1" d="M 19 31 L 18 31 L 18 30 L 19 30 L 19 31 " stroke-width="1" fill="undefined"/>
<path style="fill:#69DA41;fill-opacity:1" d="M 18 31 L 17.25 30.75 L 17 30 L 18 30 L 18 31 " stroke-width="1" fill="undefined"/>
<path style="fill:#68D73E;fill-opacity:1" d="M 19 33 L 18.25 32.75 L 18 32 L 19 32 L 19 33 " stroke-width="1" fill="undefined"/>
<path style="fill:#66D039;fill-opacity:1" d="M 20 33 L 20 34 L 19.25 33.75 L 19 33 L 20 33 " stroke-width="1" fill="undefined"/>
<path style="fill:#579D0B;fill-opacity:1" d="M 20 34 L 20 33 Q 20.5 33 20.75 33.25 Q 21 33.5 21 34 L 20 34 " stroke-width="1" fill="undefined"/>
<path style="fill:#68D63D;fill-opacity:1" d="M 21 35 L 20.25 34.75 L 20 34 L 21 34 L 21 35 " stroke-width="1" fill="undefined"/>
<path style="fill:#569C0A;fill-opacity:1" d="M 20 32 L 20 33 L 19 33 L 19 32 L 20 32 " stroke-width="1" fill="undefined"/>
<path style="fill:#6ADF46;fill-opacity:1" d="M 19 40.95 Q 19.5 40.95 19.75 41.2 Q 20 41.45 20 41.95 L 19 41.95 L 19 40.95 " stroke-width="1" fill="undefined"/>
<path style="fill:#53B833;fill-opacity:1" d="M 18 41.95 L 17 41.95 L 17 40.95 L 18 40.95 L 18 41.95 " stroke-width="1" fill="undefined"/>
<path style="fill:#59C739;fill-opacity:1" d="M 10 30 L 11 30 L 10.75 30.75 L 10 31 L 10 30 " stroke-width="1" fill="undefined"/>
<path style="fill:#47B429;fill-opacity:1" d="M 10 30 L 10 31 L 9 31 L 7 31 L 7 30 L 8 30 L 9 30 L 10 30 " stroke-width="1" fill="undefined"/>
<path style="fill:#62D53F;fill-opacity:1" d="M 10 38.95 L 10 37.95 Q 10.5 37.95 10.75 38.2 Q 11 38.45 11 38.95 L 10 38.95 " stroke-width="1" fill="undefined"/>
<path style="fill:#58C338;fill-opacity:1" d="M 7 36.95 L 7 36 L 7.75 36.2 Q 8 36.45 8 36.95 L 7 36.95 " stroke-width="1" fill="undefined"/>
<path style="fill:#45A12A;fill-opacity:1" d="M 8 37.95 L 8 36.95 Q 8.5 36.95 8.75 37.2 Q 9 37.45 9 37.95 L 8 37.95 " stroke-width="1" fill="undefined"/>
<path style="fill:#0A1B05;fill-opacity:1" d="M 7 37.95 L 7 36.95 L 8 36.95 L 8 37.95 L 7 37.95 " stroke-width="1" fill="undefined"/>
<path style="fill:#000000;fill-opacity:0.564706" d="M 24 43.95 L 25 43.95 L 25 44.95 L 24 44.95 L 24 43.95 M 8 39.95 L 7.25 39.7 L 7 38.95 Q 7.5 38.95 7.75 39.2 Q 8 39.45 8 39.95 " stroke-width="1" fill="undefined"/>
<path style="fill:#000000;fill-opacity:0.286275" d="M 9 40.95 L 8.25 40.7 L 8 39.95 L 9 39.95 L 9 40.95 " stroke-width="1" fill="undefined"/>
<path style="fill:#102B08;fill-opacity:1" d="M 10 39.95 L 10 38.95 L 11 38.95 L 11 39.95 L 10 39.95 " stroke-width="1" fill="undefined"/>
<path style="fill:#000000;fill-opacity:0.454902" d="M 10 40.95 L 11 40.95 L 11 41.95 L 10 41.95 L 10 40.95 " stroke-width="1" fill="undefined"/>
<path style="fill:#276315;fill-opacity:1" d="M 10 38.95 L 9.25 38.7 L 9 37.95 L 10 37.95 L 10 38.95 " stroke-width="1" fill="undefined"/>
<path style="fill:#378720;fill-opacity:1" d="M 12 39.95 L 11 39.95 L 11 38.95 L 12 38.95 L 12 39.95 " stroke-width="1" fill="undefined"/>
<path style="fill:#327E1C;fill-opacity:1" d="M 14 40.95 L 13 40.95 L 13 39.95 L 14 39.95 L 14 40.95 " stroke-width="1" fill="undefined"/>
<path style="fill:#64D641;fill-opacity:1" d="M 12 39.95 L 12 38.95 Q 12.5 38.95 12.75 39.2 Q 13 39.45 13 39.95 L 12 39.95 " stroke-width="1" fill="undefined"/>
<path style="fill:#13340A;fill-opacity:1" d="M 12 40.95 L 12 39.95 L 13 39.95 L 13 40.95 L 12 40.95 " stroke-width="1" fill="undefined"/>
<path style="fill:#5CCD3A;fill-opacity:1" d="M 14 40.95 L 14 39.95 L 15 39.95 L 15 40.95 L 14 40.95 " stroke-width="1" fill="undefined"/>
<path style="fill:#69DD45;fill-opacity:1" d="M 15 39.95 Q 15.5 39.95 15.75 40.2 Q 16 40.45 16 40.95 L 15 40.95 L 15 39.95 " stroke-width="1" fill="undefined"/>
<path style="fill:#1C490F;fill-opacity:1" d="M 16 40.95 L 16 41.95 L 15.25 41.7 L 15 40.95 L 16 40.95 " stroke-width="1" fill="undefined"/>
<path style="fill:#000000;fill-opacity:0.87451" d="M 11 40.95 L 12 40.95 L 12 41.95 L 11 41.95 L 11 40.95 " stroke-width="1" fill="undefined"/>
<path style="fill:#000000;fill-opacity:0.423529" d="M 15 42.95 L 16 42.95 L 16 43.95 L 15 43.95 L 15 42.95 " stroke-width="1" fill="undefined"/>
<path style="fill:#000000;fill-opacity:0.160784" d="M 15 42.95 L 15 43.95 L 14.25 43.7 L 14 42.95 L 15 42.95 " stroke-width="1" fill="undefined"/>
<path style="fill:#000000;fill-opacity:0.666667" d="M 17 43.95 L 16 43.95 L 16 42.95 L 17 42.95 L 17 43.95 " stroke-width="1" fill="undefined"/>
<path style="fill:#235814;fill-opacity:1" d="M 25 41.95 L 26 41.95 L 26 42.95 L 25 42.95 L 25 41.95 " stroke-width="1" fill="undefined"/>
<path style="fill:#2C6C19;fill-opacity:1" d="M 24 41.95 L 25 41.95 L 25 42.95 L 24 42.95 L 24 41.95 " stroke-width="1" fill="undefined"/>
<path style="fill:#1F4C10;fill-opacity:1" d="M 27 41.95 L 27 42.95 L 26 42.95 L 26 41.95 L 27 41.95 " stroke-width="1" fill="undefined"/>
<path style="fill:#327E1D;fill-opacity:1" d="M 23 41.95 L 24 41.95 L 24 42.95 L 23 42.95 L 23 41.95 " stroke-width="1" fill="undefined"/>
<path style="fill:#2D711A;fill-opacity:1" d="M 22 41.95 L 23 41.95 L 23 42.95 L 22 42.95 L 22 41.95 " stroke-width="1" fill="undefined"/>
<path style="fill:#275F15;fill-opacity:1" d="M 21 41.95 L 22 41.95 L 22 42.95 L 21 42.95 L 21 41.95 " stroke-width="1" fill="undefined"/>
<path style="fill:#000000;fill-opacity:0.588235" d="M 23 44.95 L 22 44.95 L 22 43.95 L 23 43.95 L 23 44.95 M 7 4 L 7 5 L 6 5 L 6 4 L 7 4 " stroke-width="1" fill="undefined"/>
<path style="fill:#000000;fill-opacity:0.65098" d="M 23 43.95 L 24 43.95 L 24 44.95 L 23 44.95 L 23 43.95 " stroke-width="1" fill="undefined"/>
<path style="fill:#000000;fill-opacity:0.415686" d="M 37 40.95 L 38 40.95 L 37.75 41.7 L 37 41.95 L 37 40.95 M 27 44.95 L 26 44.95 L 26 43.95 L 27 43.95 L 27 44.95 " stroke-width="1" fill="undefined"/>
<path style="fill:#215312;fill-opacity:1" d="M 21 42.95 L 20 42.95 L 20 41.95 L 21 41.95 L 21 42.95 " stroke-width="1" fill="undefined"/>
<path style="fill:#17390C;fill-opacity:1" d="M 20 41.95 L 20 42.95 L 19.25 42.7 L 19 41.95 L 20 41.95 " stroke-width="1" fill="undefined"/>
<path style="fill:#000000;fill-opacity:0.882353" d="M 17 42.95 Q 17.5 42.95 17.75 43.2 Q 18 43.45 18 43.95 L 17 43.95 L 17 42.95 " stroke-width="1" fill="undefined"/>
<path style="fill:#000000;fill-opacity:0.0431373" d="M 18 44.95 L 17.25 44.7 L 17 43.95 L 18 43.95 L 18 44.95 " stroke-width="1" fill="undefined"/>
<path style="fill:#000000;fill-opacity:0.168627" d="M 19 44.95 L 18 44.95 L 18 43.95 L 19 43.95 L 19 44.95 " stroke-width="1" fill="undefined"/>
<path style="fill:#000000;fill-opacity:0.313725" d="M 19 43.95 L 20 43.95 L 20 44.95 L 19 44.95 L 19 43.95 " stroke-width="1" fill="undefined"/>
<path style="fill:#69DD46;fill-opacity:1" d="M 26 41.95 L 26 40.95 L 27 40.95 L 28 40.95 L 28 41.95 L 27 41.95 L 26 41.95 " stroke-width="1" fill="undefined"/>
<path style="fill:#35811F;fill-opacity:1" d="M 17 41.95 L 16 41.95 L 16 40.95 L 17 40.95 L 17 41.95 " stroke-width="1" fill="undefined"/>
<path style="fill:#000000;fill-opacity:0.756863" d="M 46 32 L 46 31 L 47 31 L 47 32 L 46 32 " stroke-width="1" fill="undefined"/>
<path style="fill:#000000;fill-opacity:0.360784" d="M 47 32 L 46.75 32.75 L 46 33 L 46 32 L 47 32 " stroke-width="1" fill="undefined"/>
<path style="fill:#66DA42;fill-opacity:1" d="M 44 31 L 44 30 L 45 30 L 45 31 L 44 31 " stroke-width="1" fill="undefined"/>
<path style="fill:#367F20;fill-opacity:1" d="M 45 31 L 45 32 L 44 32 L 44 31 L 45 31 " stroke-width="1" fill="undefined"/>
<path style="fill:#2C6A19;fill-opacity:1" d="M 43 34 L 43 33 L 44 33 L 43.75 33.75 L 43 34 " stroke-width="1" fill="undefined"/>
<path style="fill:#4CAE2F;fill-opacity:1" d="M 42 35 L 42 34 L 43 34 L 43 35 L 42 35 " stroke-width="1" fill="undefined"/>
<path style="fill:#000000;fill-opacity:0.835294" d="M 45 34 L 45 33 L 46 33 L 46 34 L 45 34 " stroke-width="1" fill="undefined"/>
<path style="fill:#122E0A;fill-opacity:1" d="M 45 32 L 45 33 L 44 33 L 44 32 L 45 32 " stroke-width="1" fill="undefined"/>
<path style="fill:#000000;fill-opacity:0.580392" d="M 45 35 L 44.75 35.75 L 44 36 L 44 35 L 45 35 " stroke-width="1" fill="undefined"/>
<path style="fill:#65C847;fill-opacity:1" d="M 42 30 L 41.75 30.75 L 41 31 L 41 30 L 42 30 " stroke-width="1" fill="undefined"/>
<path style="fill:#4EBC2E;fill-opacity:1" d="M 39 30 L 40 30 L 40 31 L 39 31 L 38 31 L 38 30 L 39 30 " stroke-width="1" fill="undefined"/>
<path style="fill:#56C237;fill-opacity:1" d="M 38 31 L 37.25 30.75 Q 37 30.5 37 30 L 38 30 L 38 31 " stroke-width="1" fill="undefined"/>
<path style="fill:#59C839;fill-opacity:1" d="M 42 36 L 41 36 L 41 35 L 42 35 L 42 36 " stroke-width="1" fill="undefined"/>
<path style="fill:#0D2207;fill-opacity:1" d="M 41 36 L 42 36 L 42 36.95 L 41 36.95 L 41 36 " stroke-width="1" fill="undefined"/>
<path style="fill:#56C036;fill-opacity:1" d="M 40 36.95 L 40 36 L 41 36 L 41 36.95 L 40 36.95 " stroke-width="1" fill="undefined"/>
<path style="fill:#000000;fill-opacity:0.690196" d="M 42 38.95 L 41 38.95 L 41 37.95 L 42 37.95 L 42 38.95 " stroke-width="1" fill="undefined"/>
<path style="fill:#000000;fill-opacity:0.780392" d="M 42 37.95 L 42 36.95 L 43 36.95 L 43 37.95 L 42 37.95 " stroke-width="1" fill="undefined"/>
<path style="fill:#071204;fill-opacity:1" d="M 41 36.95 L 41 37.95 L 40 37.95 L 40 36.95 L 41 36.95 " stroke-width="1" fill="undefined"/>
<path style="fill:#419827;fill-opacity:1" d="M 39 37.95 L 39 36.95 L 40 36.95 L 40 37.95 L 39 37.95 " stroke-width="1" fill="undefined"/>
<path style="fill:#1F4E10;fill-opacity:1" d="M 38 37.95 L 39 37.95 L 38.75 38.7 L 38 38.95 L 38 37.95 " stroke-width="1" fill="undefined"/>
<path style="fill:#63D93F;fill-opacity:1" d="M 38 38.95 L 37 38.95 L 37 37.95 L 38 37.95 L 38 38.95 " stroke-width="1" fill="undefined"/>
<path style="fill:#0E2307;fill-opacity:1" d="M 37 38.95 L 38 38.95 L 38 39.95 L 37 39.95 L 37 38.95 " stroke-width="1" fill="undefined"/>
<path style="fill:#35821E;fill-opacity:1" d="M 36 38.95 L 37 38.95 L 37 39.95 L 36 39.95 L 36 38.95 " stroke-width="1" fill="undefined"/>
<path style="fill:#000000;fill-opacity:0.254902" d="M 39 39.95 L 40 39.95 L 39.75 40.7 L 39 40.95 L 39 39.95 " stroke-width="1" fill="undefined"/>
<path style="fill:#000000;fill-opacity:0.505882" d="M 40 38.95 L 41 38.95 L 40.75 39.7 L 40 39.95 L 40 38.95 " stroke-width="1" fill="undefined"/>
<path style="fill:#000000;fill-opacity:0.0745098" d="M 43 37.95 L 42.75 38.7 L 42 38.95 L 42 37.95 L 43 37.95 " stroke-width="1" fill="undefined"/>
<path style="fill:#000000;fill-opacity:0.74902" d="M 43 36.95 L 43 36 L 44 36 L 44 36.95 L 43 36.95 " stroke-width="1" fill="undefined"/>
<path style="fill:#0B1D06;fill-opacity:1" d="M 43 35 L 43 36 L 42 36 L 42 35 L 43 35 " stroke-width="1" fill="undefined"/>
<path style="fill:#87C400;fill-opacity:1" d="M 33 31 L 32 31 L 32 30 L 33 30 L 33 31 " stroke-width="1" fill="undefined"/>
<path style="fill:#5DAF1A;fill-opacity:1" d="M 32 31 L 33 31 L 33 32 L 32 32 L 32 31 " stroke-width="1" fill="undefined"/>
<path style="fill:#67A704;fill-opacity:1" d="M 31 31 L 32 31 L 32 32 L 31 32 L 31 31 " stroke-width="1" fill="undefined"/>
<path style="fill:#6ADE45;fill-opacity:1" d="M 34 31 L 33.75 31.75 L 33 32 L 33 31 L 34 31 " stroke-width="1" fill="undefined"/>
<path style="fill:#5EAF17;fill-opacity:1" d="M 33 30 L 34 30 L 34 31 L 33 31 L 33 30 " stroke-width="1" fill="undefined"/>
<path style="fill:#9BDC00;fill-opacity:1" d="M 30 31 L 30 30 L 31 30 L 32 30 L 32 31 L 31 31 L 30 31 " stroke-width="1" fill="undefined"/>
<path style="fill:#71B002;fill-opacity:1" d="M 31 31 L 31 32 L 30 32 L 30 31 L 31 31 " stroke-width="1" fill="undefined"/>
<path style="fill:#76B601;fill-opacity:1" d="M 29 31 L 30 31 L 30 32 L 29 32 L 29 31 " stroke-width="1" fill="undefined"/>
<path style="fill:#62C42F;fill-opacity:1" d="M 30 32 L 31 32 L 31 33 L 30 33 L 30 32 " stroke-width="1" fill="undefined"/>
<path style="fill:#85C400;fill-opacity:1" d="M 28 32 L 28 31 L 29 31 L 29 32 L 28 32 " stroke-width="1" fill="undefined"/>
<path style="fill:#7BBB01;fill-opacity:1" d="M 28 32 L 27 32 L 27 31 L 28 31 L 28 32 " stroke-width="1" fill="undefined"/>
<path style="fill:#63A202;fill-opacity:1" d="M 28 32 L 29 32 L 29 33 L 28 33 L 28 32 " stroke-width="1" fill="undefined"/>
<path style="fill:#73A900;fill-opacity:1" d="M 27 32 L 28 32 L 28 33 L 27 33 L 27 32 " stroke-width="1" fill="undefined"/>
<path style="fill:#5FBC28;fill-opacity:1" d="M 28 33 L 29 33 L 28.75 33.75 L 28 34 L 28 33 " stroke-width="1" fill="undefined"/>
<path style="fill:#629D02;fill-opacity:1" d="M 27 33 L 28 33 L 28 34 L 27 34 L 27 33 " stroke-width="1" fill="undefined"/>
<path style="fill:#66D23A;fill-opacity:1" d="M 31 32 L 32 32 L 31.75 32.75 L 31 33 L 31 32 " stroke-width="1" fill="undefined"/>
<path style="fill:#5DB824;fill-opacity:1" d="M 29 32 L 30 32 L 30 33 L 29 33 L 29 32 " stroke-width="1" fill="undefined"/>
<path style="fill:#65D841;fill-opacity:1" d="M 29 41.95 L 28 41.95 L 28 40.95 L 29 40.95 L 29 41.95 " stroke-width="1" fill="undefined"/>
<path style="fill:#58BF37;fill-opacity:1" d="M 30 41.95 L 29 41.95 L 29 40.95 L 30 40.95 L 30 41.95 " stroke-width="1" fill="undefined"/>
<path style="fill:#4BAC2D;fill-opacity:1" d="M 31 41.95 L 30 41.95 L 30 40.95 L 31 40.95 L 31 41.95 " stroke-width="1" fill="undefined"/>
<path style="fill:#69DE46;fill-opacity:1" d="M 33 40.95 L 32 40.95 L 32 39.95 L 33 39.95 L 33 40.95 " stroke-width="1" fill="undefined"/>
<path style="fill:#1B450E;fill-opacity:1" d="M 32 40.95 L 33 40.95 L 32.75 41.7 L 32 41.95 L 32 40.95 " stroke-width="1" fill="undefined"/>
<path style="fill:#5DCD3A;fill-opacity:1" d="M 34 40.95 L 33 40.95 L 33 39.95 L 34 39.95 L 34 40.95 " stroke-width="1" fill="undefined"/>
<path style="fill:#30791B;fill-opacity:1" d="M 35 40.95 L 34 40.95 L 34 39.95 L 35 39.95 L 35 40.95 " stroke-width="1" fill="undefined"/>
<path style="fill:#66DB42;fill-opacity:1" d="M 36 39.95 L 35 39.95 L 35 38.95 L 36 38.95 L 36 39.95 " stroke-width="1" fill="undefined"/>
<path style="fill:#13320A;fill-opacity:1" d="M 36 39.95 L 36 40.95 L 35 40.95 L 35 39.95 L 36 39.95 " stroke-width="1" fill="undefined"/>
<path style="fill:#317A1C;fill-opacity:1" d="M 31 40.95 L 32 40.95 L 32 41.95 L 31 41.95 L 31 40.95 " stroke-width="1" fill="undefined"/>
<path style="fill:#000000;fill-opacity:0.752941" d="M 35 42.95 L 34 42.95 L 34 41.95 L 35 41.95 L 35 42.95 " stroke-width="1" fill="undefined"/>
<path style="fill:#000000;fill-opacity:0.384314" d="M 32 42.95 L 33 42.95 L 33 43.95 L 32 43.95 L 32 42.95 " stroke-width="1" fill="undefined"/>
<path style="fill:#000000;fill-opacity:0.67451" d="M 31 42.95 L 32 42.95 L 32 43.95 L 31 43.95 L 31 42.95 " stroke-width="1" fill="undefined"/>
<path style="fill:#000000;fill-opacity:0.839216" d="M 30 42.95 L 31 42.95 L 31 43.95 L 30 43.95 L 30 42.95 " stroke-width="1" fill="undefined"/>
<path style="fill:#000000;fill-opacity:0.0705882" d="M 29 43.95 L 30 43.95 L 29.75 44.7 L 29 44.95 L 29 43.95 " stroke-width="1" fill="undefined"/>
<path style="fill:#000000;fill-opacity:0.913725" d="M 29 43.95 L 29 42.95 L 30 42.95 L 30 43.95 L 29 43.95 " stroke-width="1" fill="undefined"/>
<path style="fill:#0C2006;fill-opacity:1" d="M 29 41.95 L 29 42.95 L 28 42.95 L 28 41.95 L 29 41.95 " stroke-width="1" fill="undefined"/>
<path style="fill:#0F2808;fill-opacity:1" d="M 27 41.95 L 28 41.95 L 28 42.95 L 27 42.95 L 27 41.95 " stroke-width="1" fill="undefined"/>
<path style="fill:#000000;fill-opacity:0.866667" d="M 36 41.95 L 36 40.95 L 37 40.95 L 37 41.95 L 36 41.95 " stroke-width="1" fill="undefined"/>
</g>
</svg>