<?xml version="1.0" encoding="utf-8"?><svg xmlns="http://www.w3.org/2000/svg" xmlns:xlink="http://www.w3.org/1999/xlink" xmlns:author="http://www.sothink.com" version="1.1" id="Layer_1" width="19.128089904785156" height="31.25" xml:space="preserve" viewBox="0 -0.25 19.128089904785156 31.25">
<g id="139">
<path style="fill:#000000;fill-opacity:1" d="M 1.95 7.7 L 0.5 1.1 L 10.05 0.7 Q 16.45 1.2 17.75 6.9 Q 18.95 12.3 14.65 14.7 Q 18.9 15.85 18.6 21 Q 19.1 30.35 10.7 30.5 L 3.45 30.5 Q 2.25 29.45 2 27.5 Q 1.8 25.8 2.95 24.05 Q 12.4 24.95 13.05 21.7 Q 14 17.1 7.55 17 L 7.55 13.05 Q 12.65 12.6 12.25 9.6 Q 12.45 7.45 9.7 6.95 Q 6.05 6.4 1.95 7.7 " stroke-width="1" fill="undefined"/>
<path style="fill:none;stroke-width:1;stroke-linecap:round;stroke-linejoin:round;stroke-miterlimit:3;stroke:#000000;stroke-opacity:1" d="M 9.7 6.95 Q 12.45 7.45 12.25 9.6 Q 12.65 12.6 7.55 13.05 L 7.55 17 Q 14 17.1 13.05 21.7 Q 12.4 24.95 2.95 24.05 Q 1.8 25.8 2 27.5 Q 2.25 29.45 3.45 30.5 L 10.7 30.5 Q 19.1 30.35 18.6 21 Q 18.9 15.85 14.65 14.7 Q 18.95 12.3 17.75 6.9 Q 16.45 1.2 10.05 0.7 L 0.5 1.1 L 1.95 7.7 Q 6.05 6.4 9.7 6.95 Z " stroke-width="1" fill="undefined"/>
<path style="fill:#FFFEFD;fill-opacity:1" d="M 2.15 7.15 L 0.75 0.65 L 10.1 0.25 Q 16.4 0.75 17.65 6.35 Q 18.85 11.65 14.6 14 Q 18.8 15.1 18.5 20.15 Q 19 29.35 10.75 29.5 L 3.65 29.5 Q 2.45 28.45 2.2 26.55 Q 2 24.9 3.15 23.15 Q 12.4 24.05 13.05 20.85 Q 14 16.35 7.65 16.25 L 7.65 12.4 Q 12.65 11.95 12.25 9 Q 12.45 6.9 9.75 6.4 Q 6.2 5.85 2.15 7.15 " stroke-width="1" fill="undefined"/>
<path style="fill:none;stroke-width:0.5;stroke-linecap:round;stroke-linejoin:round;stroke-miterlimit:3;stroke:#000000;stroke-opacity:1" d="M 9.75 6.4 Q 12.45 6.9 12.25 9 Q 12.65 11.95 7.65 12.4 L 7.65 16.25 Q 14 16.35 13.05 20.85 Q 12.4 24.05 3.15 23.15 Q 2 24.9 2.2 26.55 Q 2.45 28.45 3.65 29.5 L 10.75 29.5 Q 19 29.35 18.5 20.15 Q 18.8 15.1 14.6 14 Q 18.85 11.65 17.65 6.35 Q 16.4 0.75 10.1 0.25 L 0.75 0.65 L 2.15 7.15 Q 6.2 5.85 9.75 6.4 Z " stroke-width="1" fill="undefined"/>
</g>
</svg>