<?xml version="1.0" encoding="utf-8"?><svg xmlns="http://www.w3.org/2000/svg" xmlns:xlink="http://www.w3.org/1999/xlink" xmlns:author="http://www.sothink.com" version="1.1" id="Layer_1" width="50.95000076293945" height="43" xml:space="preserve" viewBox="-0.5 -0.5 50.95000076293945 43">
<g id="6">
<path style="fill:#000000;fill-opacity:0.0745098" d="M 47.95 20 L 48.7 20.25 L 48.95 21 L 47.95 21 L 47.95 20 M 48.95 25 L 48.95 24 L 49.7 24.25 L 49.95 25 L 48.95 25 M 38.95 40 L 39.95 40 L 39.7 40.75 L 38.95 41 L 38.95 40 M 1 21 L 0 21 L 0 20 L 1 20 L 1 21 " stroke-width="1" fill="undefined"/>
<path style="fill:#000000;fill-opacity:0.603922" d="M 46.95 20 L 46.95 19 L 47.95 19 L 47.95 20 L 46.95 20 M 41.95 38 L 42.95 38 L 42.95 39 L 41.95 39 L 41.95 38 M 24 42 L 23 42 L 23 41 L 24 41 L 24 42 M 21 5 L 20 5 L 19 5 L 18 5 L 18 4 L 20 4 L 21 4 L 21 5 " stroke-width="1" fill="undefined"/>
<path style="fill:#000000;fill-opacity:0.145098" d="M 46.95 19 L 46.95 18 L 47.7 18.25 L 47.95 19 L 46.95 19 M 46.95 35 L 46.7 35.75 L 45.95 36 L 45.95 35 L 46.95 35 M 44.95 16 L 44.95 15 L 45.7 15.25 L 45.95 16 L 44.95 16 " stroke-width="1" fill="undefined"/>
<path style="fill:#000000;fill-opacity:0.709804" d="M 47.95 23 L 47.95 22 L 48.95 22 L 48.95 23 L 47.95 23 " stroke-width="1" fill="undefined"/>
<path style="fill:#5A0013;fill-opacity:1" d="M 46.95 23 L 46.95 22 L 46.95 21 L 47.95 21 L 47.95 22 L 47.95 23 L 46.95 23 M 35 24 L 34.25 23.75 Q 34 23.5 34 23 L 35 23 L 35 24 " stroke-width="1" fill="undefined"/>
<path style="fill:#000000;fill-opacity:0.403922" d="M 48.95 21 L 48.95 22 L 47.95 22 L 47.95 21 L 48.95 21 M 16 40 L 15.25 39.75 L 15 39 L 16 39 L 16 40 M 8 32 L 8 33 L 7.25 32.75 L 7 32 L 8 32 M 18 10 L 17 10 L 17 9 L 18 9 L 18 10 " stroke-width="1" fill="undefined"/>
<path style="fill:#000000;fill-opacity:0.921569" d="M 47.95 24 L 47.95 23 L 48.95 23 L 48.95 24 L 47.95 24 M 27 41 L 27 42 L 26 42 L 26 41 L 27 41 " stroke-width="1" fill="undefined"/>
<path style="fill:#110003;fill-opacity:0.980392" d="M 46.95 20 L 47.95 20 L 47.95 21 L 46.95 21 L 46.95 20 " stroke-width="1" fill="undefined"/>
<path style="fill:#000000;fill-opacity:0.439216" d="M 28 2 L 28 1 L 28.75 1.25 L 29 2 L 28 2 M 38.95 11 L 38.95 10 L 39.7 10.25 L 39.95 11 L 38.95 11 " stroke-width="1" fill="undefined"/>
<path style="fill:#010000;fill-opacity:0.956863" d="M 38.95 10 L 38.95 11 L 37.95 11 L 37.95 10 L 38.95 10 " stroke-width="1" fill="undefined"/>
<path style="fill:#AF0024;fill-opacity:1" d="M 38.95 12 Q 38.45 12 38.2 11.75 Q 37.95 11.5 37.95 11 L 38.95 11 L 38.95 12 M 36 10 L 37 10 L 37 11 Q 36.5 11 36.25 10.75 Q 36 10.5 36 10 M 39.95 28 L 39.95 27 L 40.95 27 L 40.95 28 L 39.95 28 " stroke-width="1" fill="undefined"/>
<path style="fill:#500011;fill-opacity:1" d="M 37 11 L 37 10 L 37.95 10 L 37.95 11 L 37 11 M 37 25 L 36 25 L 36 24 L 37 24 L 37 25 M 24 2 L 24 1 L 25 1 L 25 2 L 24 2 " stroke-width="1" fill="undefined"/>
<path style="fill:#000000;fill-opacity:0.0980392" d="M 36 9 L 36 8 L 36.75 8.25 L 37 9 L 36 9 M 37.95 9 L 38.7 9.25 L 38.95 10 L 37.95 10 L 37.95 9 M 40.95 12 L 40.95 11 L 41.7 11.25 L 41.95 12 L 40.95 12 " stroke-width="1" fill="undefined"/>
<path style="fill:#000000;fill-opacity:0.592157" d="M 37 10 L 37 9 L 37.95 9 L 37.95 10 L 37 10 " stroke-width="1" fill="undefined"/>
<path style="fill:#000000;fill-opacity:0.745098" d="M 25 41 L 25 42 L 24 42 L 24 41 L 25 41 M 40.95 12 L 39.95 12 L 39.95 11 L 40.95 11 L 40.95 12 " stroke-width="1" fill="undefined"/>
<path style="fill:#250008;fill-opacity:1" d="M 38.95 12 L 38.95 11 L 39.95 11 L 39.95 12 L 38.95 12 M 7 25 L 7 24 L 8 24 L 8 25 L 7 25 M 31 24 Q 31.5 24 31.75 24.25 L 32 25 L 31 25 L 31 24 M 43.95 37 L 42.95 37 L 42.95 36 L 43.95 36 L 43.95 37 " stroke-width="1" fill="undefined"/>
<path style="fill:#010000;fill-opacity:0.596078" d="M 32 5 L 32 4 L 32.75 4.25 L 33 5 L 32 5 " stroke-width="1" fill="undefined"/>
<path style="fill:#7D001A;fill-opacity:1" d="M 28.25 2.75 Q 28 2.5 28 2 L 29 2 L 29 3 Q 28.5 3 28.25 2.75 M 31.25 4.75 Q 31 4.5 31 4 L 32 4 L 32 5 Q 31.5 5 31.25 4.75 M 33.25 6.75 Q 33 6.5 33 6 L 34 6 L 34 7 Q 33.5 7 33.25 6.75 M 24 8 L 25 8 L 25 9 L 24 9 L 24 8 M 45.95 21 L 44.95 21 L 44.95 20 L 45.95 20 L 45.95 19 L 46.95 19 L 46.95 20 L 45.95 20 L 45.95 21 " stroke-width="1" fill="undefined"/>
<path style="fill:#0D0003;fill-opacity:0.882353" d="M 27 2 L 27 1 L 28 1 L 28 2 L 27 2 " stroke-width="1" fill="undefined"/>
<path style="fill:#D5002B;fill-opacity:1" d="M 28 2 Q 28 2.5 28.25 2.75 Q 28.5 3 29 3 Q 29 3.5 29.25 3.75 Q 29.5 4 30 4 L 31 4 Q 31 4.5 31.25 4.75 Q 31.5 5 32 5 Q 32 5.5 32.25 5.75 Q 32.5 6 33 6 Q 33 6.5 33.25 6.75 Q 33.5 7 34 7 L 34 8 Q 34 8.5 34.25 8.75 Q 34.5 9 35 9 Q 35 9.5 35.25 9.75 Q 35.5 10 36 10 Q 36 10.5 36.25 10.75 Q 36.5 11 37 11 L 37.95 11 Q 37.95 11.5 38.2 11.75 Q 38.45 12 38.95 12 L 39.95 12 Q 39.95 12.5 40.2 12.75 Q 40.45 13 40.95 13 Q 40.95 13.5 41.2 13.75 Q 41.45 14 41.95 14 Q 41.95 14.5 42.2 14.75 Q 42.45 15 42.95 15 Q 42.95 15.5 43.2 15.75 Q 43.45 16 43.95 16 Q 43.95 16.5 44.2 16.75 Q 44.45 17 44.95 17 L 44.95 18 Q 44.95 18.5 45.2 18.75 Q 45.45 19 45.95 19 L 45.95 20 L 44.95 20 L 44.95 21 L 43.95 21 L 42.95 21 L 41.95 21 L 41.95 22 L 40.95 22 L 39.95 22 L 39.95 23 L 38.95 23 L 37.95 23 L 37.95 24 L 37 24 L 36 24 L 35.75 23.25 L 35 23 L 34 23 L 33.75 22.25 L 33 22 L 32 22 L 31.75 21.25 Q 31.5 21 31 21 L 30 21 L 29.75 20.25 L 29 20 L 28 20 L 27.75 19.25 L 27 19 L 26 19 L 26 20 L 25 20 L 25 21 L 25 22 L 25.25 22.75 L 26 23 L 27 23 L 27 24 L 26 24 L 26 25 L 25 25 L 25 26 Q 24.3 29.2 25.75 30.35 Q 26 30.5 26 31 L 25 31 L 24 31 L 23 31 L 23 32 L 22 32 L 21 32 L 20 32 L 19 32 L 19 33 L 18 33 L 17 33 L 17 34 L 16 34 L 16 35 L 15 35 L 14 35 L 14 36 L 13 36 L 12 36 Q 12 35.5 11.75 35.25 Q 11.5 35 11 35 Q 11 34.5 10.75 34.25 Q 10.5 34 10 34 Q 10 33.5 9.75 33.25 Q 9.5 33 9 33 L 9 32 L 9 31 Q 9 30.5 8.75 30.25 Q 8.5 30 8 30 L 8 29 L 8 28 L 8 27 L 8 26 L 8 25 L 8 24 L 8.75 23.75 Q 9 23.5 9 23 L 9 22 L 9 21 L 9.75 20.75 Q 10 20.5 10 20 L 10 19 Q 10.5 19 10.75 18.75 Q 11 18.5 11 18 L 11 17 Q 11.5 17 11.75 16.75 Q 12 16.5 12 16 Q 12.5 16 12.75 15.75 Q 13 15.5 13 15 Q 13.5 15 13.75 14.75 Q 14 14.5 14 14 Q 14.5 14 14.75 13.75 Q 15 13.5 15 13 Q 15.5 13 15.75 12.75 Q 16 12.5 16 12 L 17 12 Q 17.5 12 17.75 11.75 Q 18 11.5 18 11 Q 18.5 11 18.75 10.75 Q 19 10.5 19 10 L 20 10 L 21 10 Q 21.5 10 21.75 9.75 Q 22 9.5 22 9 L 23 9 L 24 9 L 25 9 L 26 9 L 26.75 8.75 L 27 8 L 28 8 L 29 8 L 29.5 8 L 29 7 L 28 7 L 27.75 6.25 L 27 6 L 26 6 L 25.75 5.25 L 25 5 L 24 5 Q 24 4.5 23.75 4.25 L 23 4 L 23 3 Q 23.5 3 23.75 2.75 Q 24 2.5 24 2 L 25 2 L 26 2 L 27 2 L 28 2 M 30 8 Q 30 8.5 30.25 8.75 Q 30.5 9 31 9 L 32 9 L 32.5 9 L 32 8 L 31 8 L 30 8 M 21.75 24.25 Q 21.5 24 21 24 L 20 24 L 20 25 L 20 26 L 19 26 Q 18.95 28 19.45 29.9 L 20 30 L 20.25 30.75 L 21 31 L 22 31 L 22.75 30.75 L 23 30 L 23.55 29.85 Q 24.65 27.35 23 27 L 23 26 Q 23 25.5 22.75 25.25 Q 22.5 25 22 25 Q 22 24.5 21.75 24.25 M 17.75 28.25 Q 17.5 28 17 28 L 16.8 27.4 L 15 27 L 15 28 L 14 28 L 14 29 L 14 30 L 14.25 30.75 L 15 31 L 15.25 31.75 L 16 32 L 16.75 31.75 L 17 31 L 17.8 29.9 L 18 29 Q 18 28.5 17.75 28.25 " stroke-width="1" fill="undefined"/>
<path style="fill:#BE0028;fill-opacity:1" d="M 30 4 Q 29.5 4 29.25 3.75 Q 29 3.5 29 3 L 30 3 L 30 4 M 33 22 L 33.75 22.25 L 34 23 L 33 23 L 33 22 M 35 23 L 35.75 23.25 L 36 24 L 35 24 L 35 23 M 21 24 Q 21.5 24 21.75 24.25 Q 22 24.5 22 25 L 21 25 L 21 24 M 16 31 L 17 31 L 16.75 31.75 L 16 32 L 16 31 " stroke-width="1" fill="undefined"/>
<path style="fill:#000000;fill-opacity:0.533333" d="M 31 4 L 31 3 L 31.75 3.25 L 32 4 L 31 4 M 45.95 18 L 45.95 17 L 46.7 17.25 L 46.95 18 L 45.95 18 " stroke-width="1" fill="undefined"/>
<path style="fill:#000000;fill-opacity:0.286275" d="M 30 3 L 30 2 L 30.75 2.25 L 31 3 L 30 3 " stroke-width="1" fill="undefined"/>
<path style="fill:#40000E;fill-opacity:1" d="M 30 4 L 30 3 L 31 3 L 31 4 L 30 4 " stroke-width="1" fill="undefined"/>
<path style="fill:#090000;fill-opacity:0.890196" d="M 30 3 L 29 3 L 29 2 L 30 2 L 30 3 " stroke-width="1" fill="undefined"/>
<path style="fill:#82001C;fill-opacity:1" d="M 32 9 L 31 9 L 31 8 L 32 8 L 32 9 M 23 9 L 22 9 L 22 8 L 23 8 L 23 9 M 16 12 Q 16 12.5 15.75 12.75 Q 15.5 13 15 13 L 15 12 L 16 12 " stroke-width="1" fill="undefined"/>
<path style="fill:#8E001E;fill-opacity:1" d="M 31 9 Q 30.5 9 30.25 8.75 Q 30 8.5 30 8 L 31 8 L 31 9 " stroke-width="1" fill="undefined"/>
<path style="fill:#4C0010;fill-opacity:1" d="M 27 7 L 28 7 L 29 7 L 29 8 L 28 8 L 27 8 L 27 7 M 27 24 L 27 23 L 28 23 L 28 24 L 28 25 L 27 25 L 27 24 " stroke-width="1" fill="undefined"/>
<path style="fill:#B90027;fill-opacity:1" d="M 27 7 L 27 6 L 27.75 6.25 L 28 7 L 27 7 M 26 8 L 27 8 L 26.75 8.75 L 26 9 L 26 8 M 27 19 L 27.75 19.25 L 28 20 L 27 20 L 27 19 M 29 20 L 29.75 20.25 L 30 21 L 29 21 L 29 20 M 16 8 L 16 7 L 16.75 7.25 L 17 8 L 16 8 " stroke-width="1" fill="undefined"/>
<path style="fill:#89001D;fill-opacity:1" d="M 29 7 L 29.5 8 L 29 8 L 29 7 M 8 23 L 8 22 L 9 22 L 9 23 L 8 23 " stroke-width="1" fill="undefined"/>
<path style="fill:#C10029;fill-opacity:1" d="M 34 8 L 35 8 L 35 9 Q 34.5 9 34.25 8.75 Q 34 8.5 34 8 M 32 8 L 32.5 9 L 32 9 L 32 8 M 45.95 20 L 46.95 20 L 46.95 21 L 45.95 21 L 45.95 20 " stroke-width="1" fill="undefined"/>
<path style="fill:#000000;fill-opacity:0.133333" d="M 35 8 L 35 7 L 35.75 7.25 L 36 8 L 35 8 " stroke-width="1" fill="undefined"/>
<path style="fill:#050000;fill-opacity:0.72549" d="M 35 9 L 35 8 L 36 8 L 36 9 L 35 9 " stroke-width="1" fill="undefined"/>
<path style="fill:#41000D;fill-opacity:0.988235" d="M 34 8 L 34 7 L 35 7 L 35 8 L 34 8 " stroke-width="1" fill="undefined"/>
<path style="fill:#000000;fill-opacity:0.462745" d="M 34 7 L 34 6 L 34.75 6.25 L 35 7 L 34 7 " stroke-width="1" fill="undefined"/>
<path style="fill:#010000;fill-opacity:0.584314" d="M 33 6 L 33 5 L 33.75 5.25 L 34 6 L 33 6 " stroke-width="1" fill="undefined"/>
<path style="fill:#8F001E;fill-opacity:1" d="M 32.25 5.75 Q 32 5.5 32 5 L 33 5 L 33 6 Q 32.5 6 32.25 5.75 M 27 20 L 26 20 L 26 19 L 27 19 L 27 20 M 44.95 25 L 45.95 25 L 45.95 26 L 44.95 26 L 44.95 25 M 30 29 L 31 29 L 31 30 L 30 30 L 30 29 M 28.25 28.75 Q 28 28.5 28 28 L 29 28 L 29 29 L 28.25 28.75 " stroke-width="1" fill="undefined"/>
<path style="fill:#000000;fill-opacity:0.980392" d="M 47.95 29 L 47.95 28 L 48.95 28 L 48.95 29 L 47.95 29 M 36 10 L 36 9 L 37 9 L 37 10 L 36 10 M 9 35 L 9 34 L 10 34 L 10 35 L 9 35 " stroke-width="1" fill="undefined"/>
<path style="fill:#7C001A;fill-opacity:1" d="M 35 9 L 36 9 L 36 10 Q 35.5 10 35.25 9.75 Q 35 9.5 35 9 " stroke-width="1" fill="undefined"/>
<path style="fill:#520011;fill-opacity:1" d="M 29 21 L 28.25 20.75 Q 28 20.5 28 20 L 29 20 L 29 21 M 47.95 30 L 47.95 31 L 46.95 31 L 46.95 30 L 47.95 30 M 23 5 L 23 4 L 23.75 4.25 Q 24 4.5 24 5 L 23 5 " stroke-width="1" fill="undefined"/>
<path style="fill:#010000;fill-opacity:1" d="M 27 23 L 26.75 22.25 L 26 22 L 26 21 L 26 20 L 27 20 L 28 20 Q 28 20.5 28.25 20.75 L 29 21 L 30 21 Q 30 21.5 30.25 21.75 L 31 22 L 32 22 L 32.25 22.75 L 33 23 L 34 23 Q 34 23.5 34.25 23.75 L 35 24 L 36 24 L 36 25 L 36 26 L 35 26 L 34.75 25.25 Q 34.5 25 34 25 L 33 25 L 32 25 L 31.75 24.25 Q 31.5 24 31 24 L 30 24 L 29 24 L 28.75 23.25 Q 28.5 23 28 23 L 27 23 " stroke-width="1" fill="undefined"/>
<path style="fill:#3D000D;fill-opacity:1" d="M 28 24 L 28 23 Q 28.5 23 28.75 23.25 L 29 24 L 28 24 " stroke-width="1" fill="undefined"/>
<path style="fill:#540012;fill-opacity:1" d="M 31 22 L 30.25 21.75 Q 30 21.5 30 21 L 31 21 L 31 22 " stroke-width="1" fill="undefined"/>
<path style="fill:#BC0028;fill-opacity:1" d="M 9 20 L 10 20 Q 10 20.5 9.75 20.75 L 9 21 L 9 20 M 31 21 Q 31.5 21 31.75 21.25 L 32 22 L 31 22 L 31 21 " stroke-width="1" fill="undefined"/>
<path style="fill:#550012;fill-opacity:1" d="M 9 20 L 9 19 L 10 19 L 10 20 L 9 20 M 33 23 L 32.25 22.75 L 32 22 L 33 22 L 33 23 M 29 25 L 30 25 L 30 26 L 29 26 L 28 26 L 28 25 L 29 25 M 41.95 26 L 41.95 25 L 42.95 25 L 42.95 26 L 41.95 26 " stroke-width="1" fill="undefined"/>
<path style="fill:#000000;fill-opacity:0.203922" d="M 11 15 L 11 14 L 12 14 L 12 15 L 11 15 M 41.95 13 L 41.95 12 L 42.7 12.25 L 42.95 13 L 43.7 13.25 L 43.95 14 L 44.7 14.25 L 44.95 15 L 43.95 15 L 43.95 14 L 42.95 14 L 42.95 13 L 41.95 13 " stroke-width="1" fill="undefined"/>
<path style="fill:#090000;fill-opacity:0.937255" d="M 42.95 14 L 43.95 14 L 43.95 15 L 42.95 15 L 42.95 14 " stroke-width="1" fill="undefined"/>
<path style="fill:#060000;fill-opacity:0.937255" d="M 42.95 13 L 42.95 14 L 41.95 14 L 41.95 13 L 42.95 13 " stroke-width="1" fill="undefined"/>
<path style="fill:#A50022;fill-opacity:1" d="M 43.95 15 L 43.95 16 Q 43.45 16 43.2 15.75 Q 42.95 15.5 42.95 15 L 43.95 15 " stroke-width="1" fill="undefined"/>
<path style="fill:#0B0001;fill-opacity:0.94902" d="M 43.95 16 L 43.95 15 L 44.95 15 L 44.95 16 L 43.95 16 " stroke-width="1" fill="undefined"/>
<path style="fill:#94001F;fill-opacity:1" d="M 44.95 17 Q 44.45 17 44.2 16.75 Q 43.95 16.5 43.95 16 L 44.95 16 L 44.95 17 " stroke-width="1" fill="undefined"/>
<path style="fill:#000000;fill-opacity:0.815686" d="M 47.95 29 L 48.95 29 L 48.95 30 L 47.95 30 L 47.95 29 M 44.95 17 L 44.95 16 L 45.95 16 L 45.95 17 L 44.95 17 " stroke-width="1" fill="undefined"/>
<path style="fill:#5C0014;fill-opacity:1" d="M 16 11 L 17 11 L 17 12 L 16 12 L 16 11 M 44.95 18 L 44.95 17 L 45.95 17 L 45.95 18 L 44.95 18 " stroke-width="1" fill="undefined"/>
<path style="fill:#A30021;fill-opacity:1" d="M 42.95 14 L 42.95 15 Q 42.45 15 42.2 14.75 Q 41.95 14.5 41.95 14 L 42.95 14 " stroke-width="1" fill="undefined"/>
<path style="fill:#660016;fill-opacity:1" d="M 40.95 13 Q 40.45 13 40.2 12.75 Q 39.95 12.5 39.95 12 L 40.95 12 L 40.95 13 M 16 7 L 15 7 L 15 6 L 16 6 L 16 7 " stroke-width="1" fill="undefined"/>
<path style="fill:#9B0020;fill-opacity:1" d="M 25 8 L 26 8 L 26 7 L 27 7 L 27 8 L 26 8 L 26 9 L 25 9 L 25 8 M 41.95 13 L 41.95 14 Q 41.45 14 41.2 13.75 Q 40.95 13.5 40.95 13 L 41.95 13 M 40.95 27 L 40.95 26 L 41.95 26 L 41.95 27 L 40.95 27 M 25 7 L 24.25 6.75 L 24 6 L 25 6 L 25 7 " stroke-width="1" fill="undefined"/>
<path style="fill:#010000;fill-opacity:0.909804" d="M 40.95 12 L 41.95 12 L 41.95 13 L 40.95 13 L 40.95 12 " stroke-width="1" fill="undefined"/>
<path style="fill:#A80022;fill-opacity:1" d="M 13 14 L 14 14 Q 14 14.5 13.75 14.75 Q 13.5 15 13 15 L 13 14 M 38.95 24 L 37.95 24 L 37.95 23 L 38.95 23 L 38.95 24 M 23 2 L 24 2 Q 24 2.5 23.75 2.75 Q 23.5 3 23 3 L 23 2 " stroke-width="1" fill="undefined"/>
<path style="fill:#C7002A;fill-opacity:1" d="M 8 31 L 8 30 Q 8.5 30 8.75 30.25 Q 9 30.5 9 31 L 8 31 M 42.95 22 L 41.95 22 L 41.95 21 L 42.95 21 L 42.95 22 M 30 25 L 29 25 L 29 24 L 30 24 L 30 25 " stroke-width="1" fill="undefined"/>
<path style="fill:#570013;fill-opacity:1" d="M 41.7 22.75 L 40.95 23 L 40.95 22 L 41.95 22 L 41.7 22.75 " stroke-width="1" fill="undefined"/>
<path style="fill:#000000;fill-opacity:1" d="M 27 41 L 30 41 L 31 41 L 31 42 L 30 42 L 27 42 L 27 41 M 21 41 L 20 41 L 20 40 L 21 40 L 22 40 L 23 40 L 23 41 L 22 41 L 21 41 M 37 26 L 37 25 L 37.7 24.75 L 37.95 24 L 38.95 24 L 39.7 23.75 L 39.95 23 L 40.95 23 L 41.7 22.75 L 41.95 22 L 42.95 22 L 43.95 22 L 44.7 21.75 L 44.95 21 L 45.95 21 L 46.2 21.75 L 46.95 22 L 46.95 23 L 45.95 23 L 44.95 23 L 44.95 24 L 43.95 24 L 42.95 24 L 41.95 24 L 41.95 25 L 40.95 25 L 39.95 25 L 38.95 25 L 38.95 26 L 37.95 26 L 37 26 M 36 40 L 36 41 L 35 41 L 35 40 L 36 40 M 38.95 39 L 39.95 39 L 39.95 40 L 38.95 40 L 38.95 39 M 15 38 L 16 38 L 16 39 L 15 39 L 15 38 M 14 38 L 13 38 L 13 37 L 14 37 L 14 38 M 17 39 L 18 39 L 19 39 L 19 40 L 18 40 L 17 40 L 17 39 " stroke-width="1" fill="undefined"/>
<path style="fill:#B70027;fill-opacity:1" d="M 40.95 23 L 39.95 23 L 39.95 22 L 40.95 22 L 40.95 23 M 22.25 25.75 L 22 25 Q 22.5 25 22.75 25.25 Q 23 25.5 23 26 L 22.25 25.75 " stroke-width="1" fill="undefined"/>
<path style="fill:#45000F;fill-opacity:1" d="M 9 34 L 9 33 Q 9.5 33 9.75 33.25 Q 10 33.5 10 34 L 9 34 M 38.95 23 L 39.95 23 L 39.7 23.75 L 38.95 24 L 38.95 23 " stroke-width="1" fill="undefined"/>
<path style="fill:#160004;fill-opacity:0.984314" d="M 45.95 19 L 45.95 18 L 46.95 18 L 46.95 19 L 45.95 19 " stroke-width="1" fill="undefined"/>
<path style="fill:#CC002B;fill-opacity:1" d="M 22 9 Q 22 9.5 21.75 9.75 Q 21.5 10 21 10 L 21 9 L 22 9 M 17 11 L 18 11 Q 18 11.5 17.75 11.75 Q 17.5 12 17 12 L 17 11 M 45.95 19 Q 45.45 19 45.2 18.75 Q 44.95 18.5 44.95 18 L 45.95 18 L 45.95 19 M 45.95 32 L 45.95 31 L 46.95 31 L 46.95 32 L 45.95 32 " stroke-width="1" fill="undefined"/>
<path style="fill:#0F0002;fill-opacity:1" d="M 44.7 21.75 L 43.95 22 L 43.95 21 L 44.95 21 L 44.7 21.75 M 34 26 L 34 25 Q 34.5 25 34.75 25.25 L 35 26 L 34 26 M 48.95 27 L 48.95 28 L 47.95 28 L 47.95 27 L 48.95 27 M 22 3 L 23 3 L 23 4 L 22 4 L 22 3 " stroke-width="1" fill="undefined"/>
<path style="fill:#690016;fill-opacity:1" d="M 10 35 L 10 34 Q 10.5 34 10.75 34.25 Q 11 34.5 11 35 L 10 35 M 26 23 L 25.25 22.75 L 25 22 L 26 22 L 26 23 M 43.95 22 L 42.95 22 L 42.95 21 L 43.95 21 L 43.95 22 " stroke-width="1" fill="undefined"/>
<path style="fill:#2C0009;fill-opacity:1" d="M 44.95 24 L 44.95 23 L 45.95 23 L 45.95 24 L 44.95 24 M 25 6 L 26 6 L 26 7 L 25 7 L 25 6 " stroke-width="1" fill="undefined"/>
<path style="fill:#43000E;fill-opacity:1" d="M 46.2 21.75 L 45.95 21 L 46.95 21 L 46.95 22 L 46.2 21.75 M 8 22 L 8 21 L 9 21 L 9 22 L 8 22 " stroke-width="1" fill="undefined"/>
<path style="fill:#780019;fill-opacity:1" d="M 30 25 L 30 24 L 31 24 L 31 25 L 30 25 M 45.95 24 L 45.95 23 L 46.95 23 L 46.95 24 L 45.95 24 " stroke-width="1" fill="undefined"/>
<path style="fill:#D4002B;fill-opacity:1" d="M 45.95 24 L 46.95 24 L 47.95 24 L 47.95 25 L 47.95 26 L 47.95 27 L 47.95 28 L 47.45 28 Q 47.6 25.9 45.95 26 L 45.95 25 L 45.95 24 " stroke-width="1" fill="undefined"/>
<path style="fill:#AB0023;fill-opacity:1" d="M 44.95 24 L 45.95 24 L 45.95 25 L 44.95 25 L 44.95 24 " stroke-width="1" fill="undefined"/>
<path style="fill:#A50021;fill-opacity:1" d="M 45.95 28 L 45.95 29 L 44.95 29 L 44.95 30 L 43.95 30 L 42.95 30 L 42.95 29 L 43.7 28.75 L 43.95 28 L 44.75 26.9 L 44.95 26 L 45.95 26 L 45.95 28 " stroke-width="1" fill="undefined"/>
<path style="fill:#2F000A;fill-opacity:1" d="M 43.95 26 L 42.95 26 L 42.95 25 L 43.95 25 L 44.95 25 L 44.95 26 L 43.95 26 " stroke-width="1" fill="undefined"/>
<path style="fill:#6A0016;fill-opacity:1" d="M 42.95 24 L 43.95 24 L 44.95 24 L 44.95 25 L 43.95 25 L 42.95 25 L 42.95 24 " stroke-width="1" fill="undefined"/>
<path style="fill:#B40025;fill-opacity:1" d="M 43.95 27 L 42.95 27 L 42.95 26 L 43.95 26 L 43.95 27 M 42.95 37 L 41.95 37 L 41.95 36 L 42.95 36 L 42.95 37 " stroke-width="1" fill="undefined"/>
<path style="fill:#220007;fill-opacity:1" d="M 41.95 24 L 42.95 24 L 42.95 25 L 41.95 25 L 41.95 24 " stroke-width="1" fill="undefined"/>
<path style="fill:#6D0017;fill-opacity:1" d="M 43.95 28 L 43.7 28.75 L 42.95 29 L 42.95 28 L 42.95 27 L 43.95 27 L 43.95 28 M 43.95 33 L 44.7 32.75 L 44.95 32 L 45.95 32 L 45.95 33 L 45.95 34 L 44.95 34 L 43.95 34 L 43.95 33 " stroke-width="1" fill="undefined"/>
<path style="fill:#D3002C;fill-opacity:1" d="M 40.95 28 L 40.95 27 L 41.95 27 L 42.95 27 L 42.95 28 L 41.95 28 L 40.95 28 " stroke-width="1" fill="undefined"/>
<path style="fill:#290009;fill-opacity:1" d="M 41.95 28 L 42.95 28 L 42.95 29 L 41.95 29 L 41.95 28 " stroke-width="1" fill="undefined"/>
<path style="fill:#560012;fill-opacity:1" d="M 43.95 27 L 43.95 26 L 44.95 26 L 44.75 26.9 L 43.95 28 L 43.95 27 " stroke-width="1" fill="undefined"/>
<path style="fill:#B30025;fill-opacity:1" d="M 45.7 29.75 L 44.95 30 L 44.95 29 L 45.95 29 L 45.7 29.75 " stroke-width="1" fill="undefined"/>
<path style="fill:#D5002C;fill-opacity:1" d="M 45.95 31 L 45.95 32 L 44.95 32 L 44.95 31 L 44.95 30 L 45.7 29.75 L 45.95 29 L 46.95 29 L 46.95 30 L 46.95 31 L 45.95 31 " stroke-width="1" fill="undefined"/>
<path style="fill:#BF0028;fill-opacity:1" d="M 47.95 29 L 46.95 29 L 45.95 29 L 45.95 28 L 45.95 26 Q 47.6 25.9 47.45 28 L 47.95 28 L 47.95 29 M 20 30 L 19.45 29.9 Q 18.95 28 19 26 L 20 26 L 20 29 L 20 30 " stroke-width="1" fill="undefined"/>
<path style="fill:#AA0023;fill-opacity:1" d="M 41.95 27 L 41.95 26 L 42.95 26 L 42.95 27 L 41.95 27 M 29 27 L 29 26 L 30 26 L 30 27 L 29 27 M 18 6 L 17 6 L 17 5 L 18 5 L 18 6 " stroke-width="1" fill="undefined"/>
<path style="fill:#610014;fill-opacity:1" d="M 40.95 26 L 40.95 25 L 41.95 25 L 41.95 26 L 40.95 26 " stroke-width="1" fill="undefined"/>
<path style="fill:#47000F;fill-opacity:1" d="M 33 26 L 33 25 L 34 25 L 34 26 L 33 26 M 40.95 25 L 40.95 26 L 39.95 26 L 39.95 25 L 40.95 25 " stroke-width="1" fill="undefined"/>
<path style="fill:#7F001B;fill-opacity:1" d="M 39.95 27 L 38.95 27 L 38.95 26 L 39.95 26 L 40.95 26 L 40.95 27 L 39.95 27 " stroke-width="1" fill="undefined"/>
<path style="fill:#140004;fill-opacity:1" d="M 26 22 L 26.75 22.25 L 27 23 L 26 23 L 26 22 M 39.95 25 L 39.95 26 L 38.95 26 L 38.95 25 L 39.95 25 " stroke-width="1" fill="undefined"/>
<path style="fill:#31000B;fill-opacity:1" d="M 20 9 L 20 10 L 19 10 L 19 9 L 18 9 L 18 8 L 19 8 L 19 9 L 20 9 M 10 18 L 10 17 L 11 17 L 11 18 L 10 18 M 37 24 L 37.95 24 L 37.7 24.75 L 37 25 L 37 24 " stroke-width="1" fill="undefined"/>
<path style="fill:#30000A;fill-opacity:1" d="M 37.95 26 L 38.95 26 L 38.95 27 L 37.95 27 L 37.95 26 M 27 27 L 27 26 L 27 25 L 28 25 L 28 26 L 28 27 L 27 27 M 29 29 L 29 28 L 30 28 L 30 29 L 29 29 " stroke-width="1" fill="undefined"/>
<path style="fill:#ECAE1C;fill-opacity:1" d="M 37.95 27 L 37.95 28 L 37.25 27.75 Q 37 27.5 37 27 L 37.95 27 " stroke-width="1" fill="undefined"/>
<path style="fill:#FAB81E;fill-opacity:1" d="M 39.95 28 L 40.2 28.75 L 40.95 29 Q 40.95 29.5 41.2 29.75 L 41.95 30 Q 41.95 30.5 42.2 30.75 L 42.95 31 L 43.95 31 L 43.95 32 L 42.95 32 L 41.95 32 L 40.95 32 L 39.95 32 L 38.95 32 L 37.95 32 L 37.75 31.25 Q 37.45 31 37 31 L 36 31 L 35 31 L 34 31 L 33 31 L 32 31 L 32 30 L 32.75 29.75 L 33 29 L 33.75 28.75 L 34 28 L 35 28 L 35.75 27.75 L 36 27 L 37 27 Q 37 27.5 37.25 27.75 L 37.95 28 L 38.95 28 L 39.95 28 " stroke-width="1" fill="undefined"/>
<path style="fill:#A17713;fill-opacity:1" d="M 37.95 27 L 38.95 27 L 38.95 28 L 37.95 28 L 37.95 27 M 42.95 33 L 41.95 33 L 41.95 32 L 42.95 32 L 42.95 33 " stroke-width="1" fill="undefined"/>
<path style="fill:#572C0D;fill-opacity:1" d="M 38.95 28 L 38.95 27 L 39.95 27 L 39.95 28 L 38.95 28 " stroke-width="1" fill="undefined"/>
<path style="fill:#AB7E14;fill-opacity:1" d="M 39.95 28 L 40.95 28 L 40.95 29 L 40.2 28.75 L 39.95 28 " stroke-width="1" fill="undefined"/>
<path style="fill:#321409;fill-opacity:1" d="M 40.95 28 L 41.95 28 L 41.95 29 L 40.95 29 L 40.95 28 " stroke-width="1" fill="undefined"/>
<path style="fill:#E9AC1C;fill-opacity:1" d="M 41.2 29.75 Q 40.95 29.5 40.95 29 L 41.95 29 L 41.95 30 L 41.2 29.75 " stroke-width="1" fill="undefined"/>
<path style="fill:#100102;fill-opacity:1" d="M 37.95 26 L 37.95 27 L 37 27 L 37 26 L 37.95 26 " stroke-width="1" fill="undefined"/>
<path style="fill:#7E5D0F;fill-opacity:1" d="M 40.95 32 L 41.95 32 L 41.95 33 L 40.95 33 L 40.95 32 " stroke-width="1" fill="undefined"/>
<path style="fill:#F2B21D;fill-opacity:1" d="M 42.2 30.75 Q 41.95 30.5 41.95 30 L 42.95 30 L 42.95 31 L 42.2 30.75 " stroke-width="1" fill="undefined"/>
<path style="fill:#CC8019;fill-opacity:1" d="M 40.95 34 L 40.95 33 L 41.95 33 L 41.95 34 L 40.95 34 " stroke-width="1" fill="undefined"/>
<path style="fill:#62470C;fill-opacity:1" d="M 39.95 32 L 40.95 32 L 40.95 33 L 39.95 33 L 39.95 32 " stroke-width="1" fill="undefined"/>
<path style="fill:#F59B1E;fill-opacity:1" d="M 39.95 34 L 39.95 35 L 38.95 35 L 37.95 35 L 37.95 36 L 37 36 L 36 36 L 35 36 L 34.75 35.25 Q 34.5 35 34 35 L 33.75 34.25 L 33 34 L 33 33 L 34 33 L 35 33 L 36 33 L 37 33 L 37.95 33 L 38.95 33 L 39.95 33 L 40.95 33 L 40.95 34 L 39.95 34 M 33 33 L 32 33 L 32 32 L 33 32 L 33 33 " stroke-width="1" fill="undefined"/>
<path style="fill:#573A0B;fill-opacity:1" d="M 37.95 32 L 38.95 32 L 39.95 32 L 39.95 33 L 38.95 33 L 37.95 33 L 37.95 32 " stroke-width="1" fill="undefined"/>
<path style="fill:#6A430D;fill-opacity:1" d="M 37.95 32 L 37.95 33 L 37 33 L 37 32 L 37.95 32 " stroke-width="1" fill="undefined"/>
<path style="fill:#DBA11A;fill-opacity:1" d="M 37 32 L 37 31 Q 37.45 31 37.75 31.25 L 37.95 32 L 37 32 " stroke-width="1" fill="undefined"/>
<path style="fill:#C37C18;fill-opacity:1" d="M 35 32 L 35 33 L 34 33 L 34 32 L 35 32 M 37.95 36 L 37.95 35 L 38.95 35 L 38.95 36 L 37.95 36 " stroke-width="1" fill="undefined"/>
<path style="fill:#4F443A;fill-opacity:1" d="M 38.95 37 L 37.95 37 L 37.95 36 L 38.95 36 L 38.95 37 " stroke-width="1" fill="undefined"/>
<path style="fill:#4F3512;fill-opacity:1" d="M 38.95 36 L 38.95 35 L 39.95 35 L 39.95 36 L 38.95 36 " stroke-width="1" fill="undefined"/>
<path style="fill:#9E6413;fill-opacity:1" d="M 39.95 35 L 39.95 34 L 40.95 34 L 40.95 35 L 39.95 35 " stroke-width="1" fill="undefined"/>
<path style="fill:#D3002B;fill-opacity:1" d="M 43.95 34 L 43.95 35 L 43.95 36 L 42.95 36 L 41.95 36 L 40.95 36 L 40.95 35 L 41.7 34.75 L 41.95 34 L 42.95 34 L 43.95 34 " stroke-width="1" fill="undefined"/>
<path style="fill:#961F32;fill-opacity:1" d="M 39.95 36 L 39.95 35 L 40.95 35 L 40.95 36 L 39.95 36 " stroke-width="1" fill="undefined"/>
<path style="fill:#E1AC99;fill-opacity:1" d="M 39.95 37 L 39.95 36 L 40.95 36 L 40.95 37 L 39.95 37 M 18 34 Q 18 34.5 17.75 34.75 L 17 35 L 17 34 L 18 34 " stroke-width="1" fill="undefined"/>
<path style="fill:#D70932;fill-opacity:1" d="M 41.95 37 L 40.95 37 L 40.95 36 L 41.95 36 L 41.95 37 " stroke-width="1" fill="undefined"/>
<path style="fill:#680915;fill-opacity:1" d="M 40.95 34 L 41.95 34 L 41.7 34.75 L 40.95 35 L 40.95 34 " stroke-width="1" fill="undefined"/>
<path style="fill:#D2B59B;fill-opacity:1" d="M 38.95 37 L 38.95 36 L 39.95 36 L 39.95 37 L 38.95 37 " stroke-width="1" fill="undefined"/>
<path style="fill:#4A1A0C;fill-opacity:1" d="M 42.95 34 L 41.95 34 L 41.95 33 L 42.95 33 L 42.95 34 " stroke-width="1" fill="undefined"/>
<path style="fill:#BE0029;fill-opacity:1" d="M 44.95 31 L 43.95 31 L 43.95 30 L 44.95 30 L 44.95 31 " stroke-width="1" fill="undefined"/>
<path style="fill:#640015;fill-opacity:1" d="M 46.95 32 L 46.95 33 L 45.95 33 L 45.95 32 L 46.95 32 M 26 1 L 26 2 L 25 2 L 25 1 L 26 1 " stroke-width="1" fill="undefined"/>
<path style="fill:#000000;fill-opacity:0.862745" d="M 46.95 33 L 46.95 32 L 47.95 32 L 47.95 33 L 46.95 33 " stroke-width="1" fill="undefined"/>
<path style="fill:#050000;fill-opacity:1" d="M 46.95 34 L 45.95 34 L 45.95 33 L 46.95 33 L 46.95 34 " stroke-width="1" fill="undefined"/>
<path style="fill:#672F10;fill-opacity:1" d="M 44.95 32 L 43.95 32 L 43.95 31 L 44.95 31 L 44.95 32 " stroke-width="1" fill="undefined"/>
<path style="fill:#0A0001;fill-opacity:1" d="M 41.95 38 L 41.95 37 L 42.95 37 L 42.95 38 L 41.95 38 M 47.95 32 L 46.95 32 L 46.95 31 L 47.95 31 L 47.95 32 " stroke-width="1" fill="undefined"/>
<path style="fill:#703A10;fill-opacity:1" d="M 43.95 31 L 42.95 31 L 42.95 30 L 43.95 30 L 43.95 31 " stroke-width="1" fill="undefined"/>
<path style="fill:#C99418;fill-opacity:1" d="M 43.95 33 L 42.95 33 L 42.95 32 L 43.95 32 L 43.95 33 " stroke-width="1" fill="undefined"/>
<path style="fill:#BF8D17;fill-opacity:1" d="M 35 27 L 36 27 L 35.75 27.75 L 35 28 L 35 27 M 44.7 32.75 L 43.95 33 L 43.95 32 L 44.95 32 L 44.7 32.75 " stroke-width="1" fill="undefined"/>
<path style="fill:#7E001B;fill-opacity:1" d="M 43.95 34 L 42.95 34 L 42.95 33 L 43.95 33 L 43.95 34 " stroke-width="1" fill="undefined"/>
<path style="fill:#C9002A;fill-opacity:1" d="M 8 23 L 9 23 Q 9 23.5 8.75 23.75 L 8 24 L 8 23 M 44.95 34 L 44.95 35 L 43.95 35 L 43.95 34 L 44.95 34 M 15 30 L 15 31 L 14.25 30.75 L 14 30 L 15 30 " stroke-width="1" fill="undefined"/>
<path style="fill:#34000B;fill-opacity:1" d="M 43.95 36 L 43.95 35 L 44.95 35 L 44.95 36 L 43.95 36 " stroke-width="1" fill="undefined"/>
<path style="fill:#2B0009;fill-opacity:1" d="M 44.95 34 L 45.95 34 L 45.95 35 L 44.95 35 L 44.95 34 " stroke-width="1" fill="undefined"/>
<path style="fill:#000000;fill-opacity:0.945098" d="M 45.95 36 L 44.95 36 L 44.95 35 L 45.95 35 L 45.95 36 M 19 9 L 19 10 L 18 10 L 18 9 L 19 9 " stroke-width="1" fill="undefined"/>
<path style="fill:#000000;fill-opacity:0.239216" d="M 44.95 36 L 45.95 36 L 45.7 36.75 L 44.95 37 L 44.95 36 M 15 12 L 14 12 L 14 11 L 15 11 L 15 12 " stroke-width="1" fill="undefined"/>
<path style="fill:#000000;fill-opacity:0.768627" d="M 45.95 35 L 45.95 34 L 46.95 34 L 46.95 35 L 45.95 35 M 11 16 L 11 17 L 10 17 L 10 16 L 11 16 " stroke-width="1" fill="undefined"/>
<path style="fill:#000000;fill-opacity:0.956863" d="M 43.95 36 L 44.95 36 L 44.95 37 L 43.95 37 L 43.95 36 " stroke-width="1" fill="undefined"/>
<path style="fill:#000000;fill-opacity:0.356863" d="M 47.95 33 L 47.7 33.75 L 46.95 34 L 46.95 33 L 47.95 33 M 9 18 L 9 17 L 10 17 L 10 18 L 9 18 M 13 14 L 12 14 L 12 13 L 13 13 L 13 14 M 16 9 L 15.25 8.75 L 15 8 L 16 8 L 16 9 " stroke-width="1" fill="undefined"/>
<path style="fill:#5E2C0F;fill-opacity:1" d="M 41.95 30 L 41.95 29 L 42.95 29 L 42.95 30 L 41.95 30 " stroke-width="1" fill="undefined"/>
<path style="fill:#8C001E;fill-opacity:1" d="M 23 8 L 24 8 L 24 9 L 23 9 L 23 8 M 19 10 Q 19 10.5 18.75 10.75 Q 18.5 11 18 11 L 18 10 L 19 10 M 47.95 30 L 46.95 30 L 46.95 29 L 47.95 29 L 47.95 30 " stroke-width="1" fill="undefined"/>
<path style="fill:#1C0006;fill-opacity:1" d="M 37 26 L 36 26 L 36 25 L 37 25 L 37 26 M 31 29 L 30 29 L 30 28 L 31 28 L 31 29 " stroke-width="1" fill="undefined"/>
<path style="fill:#271A05;fill-opacity:1" d="M 36 26 L 37 26 L 37 27 L 36 27 L 36 26 " stroke-width="1" fill="undefined"/>
<path style="fill:#280009;fill-opacity:1" d="M 35 26 L 36 26 L 36 27 L 35 27 L 35 26 " stroke-width="1" fill="undefined"/>
<path style="fill:#530012;fill-opacity:1" d="M 33 26 L 34 26 L 35 26 L 35 27 L 34 27 L 33 27 L 33 26 " stroke-width="1" fill="undefined"/>
<path style="fill:#6C0017;fill-opacity:1" d="M 33 26 L 32.25 25.75 L 32 25 L 33 25 L 33 26 " stroke-width="1" fill="undefined"/>
<path style="fill:#80001B;fill-opacity:1" d="M 32 27 L 30 27 L 30 26 L 30.75 25.75 L 31 25 L 32 25 L 32.25 25.75 L 33 26 L 33 27 L 32 27 " stroke-width="1" fill="undefined"/>
<path style="fill:#96001F;fill-opacity:1" d="M 12 15 L 13 15 Q 13 15.5 12.75 15.75 Q 12.5 16 12 16 L 12 15 M 34 27 L 34 28 L 33 28 L 33 27 L 34 27 " stroke-width="1" fill="undefined"/>
<path style="fill:#B08215;fill-opacity:1" d="M 33 28 L 34 28 L 33.75 28.75 L 33 29 L 33 28 " stroke-width="1" fill="undefined"/>
<path style="fill:#D6002C;fill-opacity:1" d="M 28 24 L 29 24 L 29 25 L 28 25 L 28 24 M 31 28 L 30 28 L 30 27 L 32 27 L 33 27 L 33 28 L 32 28 L 31 28 M 17 6 L 18 6 Q 18.5 6 18.75 5.75 Q 19 5.5 19 5 L 20 5 L 21 5 L 21.25 5.75 L 22 6 L 23 6 L 24 6 L 24.25 6.75 L 25 7 L 26 7 L 26 8 L 25 8 L 24 8 L 23 8 L 22 8 L 21 8 L 19 8 L 18 8 L 17 8 L 16.75 7.25 L 16 7 L 16 6 L 17 6 " stroke-width="1" fill="undefined"/>
<path style="fill:#DDA31A;fill-opacity:1" d="M 32 29 L 33 29 L 32.75 29.75 L 32 30 L 32 29 " stroke-width="1" fill="undefined"/>
<path style="fill:#2A1206;fill-opacity:1" d="M 32 28 L 33 28 L 33 29 L 32 29 L 32 28 " stroke-width="1" fill="undefined"/>
<path style="fill:#5A380C;fill-opacity:1" d="M 34 27 L 35 27 L 35 28 L 34 28 L 34 27 " stroke-width="1" fill="undefined"/>
<path style="fill:#6B0017;fill-opacity:1" d="M 11 16 L 12 16 Q 12 16.5 11.75 16.75 Q 11.5 17 11 17 L 11 16 M 31 25 L 30.75 25.75 L 30 26 L 30 25 L 31 25 " stroke-width="1" fill="undefined"/>
<path style="fill:#86001D;fill-opacity:1" d="M 28 27 L 28 26 L 29 26 L 29 27 L 28 27 " stroke-width="1" fill="undefined"/>
<path style="fill:#200007;fill-opacity:1" d="M 13 37 L 12 37 L 12 36 L 13 36 L 13 37 M 28 28 L 28 27 L 29 27 L 29 28 L 28 28 " stroke-width="1" fill="undefined"/>
<path style="fill:#8B001D;fill-opacity:1" d="M 27.25 27.75 Q 27 27.5 27 27 L 28 27 L 28 28 L 27.25 27.75 " stroke-width="1" fill="undefined"/>
<path style="fill:#A90022;fill-opacity:1" d="M 26 31 Q 26 30.5 25.75 30.35 Q 24.3 29.2 25 26 L 25.75 25.75 L 26 25 L 26 24 L 27 24 L 27 25 L 27 26 L 27 27 Q 27 27.5 27.25 27.75 L 28 28 Q 28 28.5 28.25 28.75 L 29 29 L 30 29 L 30 30 L 29 30 L 29 31 L 28 31 L 27 31 L 26 31 " stroke-width="1" fill="undefined"/>
<path style="fill:#9E0020;fill-opacity:1" d="M 29 28 L 29 27 L 30 27 L 30 28 L 29 28 " stroke-width="1" fill="undefined"/>
<path style="fill:#35000B;fill-opacity:1" d="M 31 28 L 32 28 L 32 29 L 31 29 L 31 28 " stroke-width="1" fill="undefined"/>
<path style="fill:#3C2009;fill-opacity:1" d="M 31 29 L 32 29 L 32 30 L 31 30 L 31 29 " stroke-width="1" fill="undefined"/>
<path style="fill:#EFB01D;fill-opacity:1" d="M 31 31 L 31 30 L 32 30 L 32 31 L 31 31 " stroke-width="1" fill="undefined"/>
<path style="fill:#352107;fill-opacity:1" d="M 30 31 L 30 30 L 31 30 L 31 31 L 30 31 " stroke-width="1" fill="undefined"/>
<path style="fill:#402D08;fill-opacity:1" d="M 31 32 L 30 32 L 30 31 L 31 31 L 32 31 L 32 32 L 31 32 " stroke-width="1" fill="undefined"/>
<path style="fill:#97001F;fill-opacity:1" d="M 29 31 L 29 30 L 30 30 L 30 31 L 29 31 " stroke-width="1" fill="undefined"/>
<path style="fill:#3C2C19;fill-opacity:1" d="M 31 33 L 30 33 L 30 32 L 31 32 L 31 33 " stroke-width="1" fill="undefined"/>
<path style="fill:#CFB399;fill-opacity:1" d="M 29.25 32.75 L 29 32 L 30 32 L 30 33 L 29.25 32.75 " stroke-width="1" fill="undefined"/>
<path style="fill:#DB8A1B;fill-opacity:1" d="M 32 34 L 32 33 L 31 33 L 31 32 L 32 32 L 32 33 L 33 33 L 33 34 L 32 34 " stroke-width="1" fill="undefined"/>
<path style="fill:#322310;fill-opacity:1" d="M 31 34 L 31 33 L 32 33 L 32 34 L 31 34 " stroke-width="1" fill="undefined"/>
<path style="fill:#C1A78F;fill-opacity:1" d="M 31 34 L 30.25 33.75 Q 30 33.5 30 33 L 31 33 L 31 34 " stroke-width="1" fill="undefined"/>
<path style="fill:#49322C;fill-opacity:1" d="M 29 32 L 29 31 L 30 31 L 30 32 L 29 32 " stroke-width="1" fill="undefined"/>
<path style="fill:#312406;fill-opacity:1" d="M 33 32 L 32 32 L 32 31 L 33 31 L 33 32 " stroke-width="1" fill="undefined"/>
<path style="fill:#E2C3A7;fill-opacity:1" d="M 22.75 32.75 L 23 32 L 24 32 L 25 32 L 26 32 L 27 32 L 28 32 L 29 32 L 29.25 32.75 L 30 33 Q 30 33.5 30.25 33.75 L 31 34 Q 31 34.5 31.25 34.75 L 32 35 L 32.25 35.75 L 33 36 Q 33 36.5 33.25 36.75 L 34 37 Q 34 37.5 34.25 37.75 L 35 38 L 36 38 L 37 38 L 37.95 38 L 37.95 39 L 37 39 L 36 39 L 35 39 L 35 40 L 34 40 L 33 40 L 32 40 L 31 40 L 30 40 L 27 40 L 26 40 L 25 40 L 24 40 L 23 40 Q 23 39.5 22.75 39.25 Q 22.5 39 22 39 L 21 39 L 20 39 L 19 39 Q 19 38.5 18.75 38.25 Q 18.5 38 18 38 L 17 38 L 16 38 Q 16 37.5 15.75 37.25 Q 15.5 37 15 37 L 15 36 L 15.75 35.75 Q 16 35.5 16 35 L 17 35 L 17.75 34.75 Q 18 34.5 18 34 L 19 34 L 19.75 33.75 L 20 33 L 21 33 L 22 33 L 22.75 32.75 " stroke-width="1" fill="undefined"/>
<path style="fill:#E09C8E;fill-opacity:1" d="M 28 32 L 27 32 L 27 31 L 28 31 L 29 31 L 29 32 L 28 32 " stroke-width="1" fill="undefined"/>
<path style="fill:#BCA38B;fill-opacity:1" d="M 31.25 34.75 Q 31 34.5 31 34 L 32 34 L 32 35 L 31.25 34.75 " stroke-width="1" fill="undefined"/>
<path style="fill:#342412;fill-opacity:1" d="M 32 35 L 32 34 L 33 34 L 33 35 L 32 35 " stroke-width="1" fill="undefined"/>
<path style="fill:#B68716;fill-opacity:1" d="M 36 31 L 37 31 L 37 32 L 36 32 L 36 31 " stroke-width="1" fill="undefined"/>
<path style="fill:#A06614;fill-opacity:1" d="M 36 32 L 36 33 L 35 33 L 35 32 L 36 32 " stroke-width="1" fill="undefined"/>
<path style="fill:#925D12;fill-opacity:1" d="M 36 32 L 37 32 L 37 33 L 36 33 L 36 32 " stroke-width="1" fill="undefined"/>
<path style="fill:#936C12;fill-opacity:1" d="M 36 32 L 35 32 L 35 31 L 36 31 L 36 32 " stroke-width="1" fill="undefined"/>
<path style="fill:#63490C;fill-opacity:1" d="M 34 32 L 34 31 L 35 31 L 35 32 L 34 32 " stroke-width="1" fill="undefined"/>
<path style="fill:#D5871A;fill-opacity:1" d="M 34 33 L 33 33 L 33 32 L 34 32 L 34 33 " stroke-width="1" fill="undefined"/>
<path style="fill:#553E0A;fill-opacity:1" d="M 34 32 L 33 32 L 33 31 L 34 31 L 34 32 " stroke-width="1" fill="undefined"/>
<path style="fill:#D8891A;fill-opacity:1" d="M 33 35 L 33 34 L 33.75 34.25 L 34 35 L 33 35 " stroke-width="1" fill="undefined"/>
<path style="fill:#BEA58D;fill-opacity:1" d="M 32.25 35.75 L 32 35 L 33 35 L 33 36 L 32.25 35.75 " stroke-width="1" fill="undefined"/>
<path style="fill:#2F2315;fill-opacity:1" d="M 33 36 L 33 35 L 34 35 L 34 36 L 33 36 " stroke-width="1" fill="undefined"/>
<path style="fill:#CDB197;fill-opacity:1" d="M 33.25 36.75 Q 33 36.5 33 36 L 34 36 L 34 37 L 33.25 36.75 " stroke-width="1" fill="undefined"/>
<path style="fill:#C07A18;fill-opacity:1" d="M 34 36 L 34 35 Q 34.5 35 34.75 35.25 L 35 36 L 34 36 " stroke-width="1" fill="undefined"/>
<path style="fill:#865511;fill-opacity:1" d="M 36 37 L 35 37 L 35 36 L 36 36 L 36 37 " stroke-width="1" fill="undefined"/>
<path style="fill:#C77E18;fill-opacity:1" d="M 37 37 L 36 37 L 36 36 L 37 36 L 37 37 " stroke-width="1" fill="undefined"/>
<path style="fill:#362D23;fill-opacity:1" d="M 34 37 L 34 36 L 35 36 L 35 37 L 34 37 " stroke-width="1" fill="undefined"/>
<path style="fill:#3D342C;fill-opacity:1" d="M 37 38 L 36 38 L 36 37 L 37 37 L 37 38 " stroke-width="1" fill="undefined"/>
<path style="fill:#8F7C6A;fill-opacity:1" d="M 37 40 L 36 40 L 36 39 L 37 39 L 37 40 " stroke-width="1" fill="undefined"/>
<path style="fill:#64574A;fill-opacity:1" d="M 36 38 L 35 38 L 35 37 L 36 37 L 36 38 M 26 40 L 27 40 L 27 41 L 26 41 L 26 40 " stroke-width="1" fill="undefined"/>
<path style="fill:#D7BA9F;fill-opacity:1" d="M 34.25 37.75 Q 34 37.5 34 37 L 35 37 L 35 38 L 34.25 37.75 " stroke-width="1" fill="undefined"/>
<path style="fill:#C4AA91;fill-opacity:1" d="M 35 40 L 35 39 L 36 39 L 36 40 L 35 40 " stroke-width="1" fill="undefined"/>
<path style="fill:#AC957F;fill-opacity:1" d="M 37.95 38 L 37 38 L 37 37 L 37.95 37 L 37.95 38 " stroke-width="1" fill="undefined"/>
<path style="fill:#000000;fill-opacity:0.627451" d="M 33 41 L 34 41 L 34 42 L 33 42 L 33 41 " stroke-width="1" fill="undefined"/>
<path style="fill:#000000;fill-opacity:0.803922" d="M 33 41 L 33 42 L 32 42 L 32 41 L 33 41 M 26 41 L 26 42 L 25 42 L 25 41 L 26 41 " stroke-width="1" fill="undefined"/>
<path style="fill:#2C2721;fill-opacity:1" d="M 33 41 L 33 40 L 34 40 L 34 41 L 33 41 " stroke-width="1" fill="undefined"/>
<path style="fill:#594D42;fill-opacity:1" d="M 31 40 L 32 40 L 33 40 L 33 41 L 32 41 L 31 41 L 31 40 M 26 41 L 25 41 L 25 40 L 26 40 L 26 41 " stroke-width="1" fill="undefined"/>
<path style="fill:#181512;fill-opacity:1" d="M 35 40 L 35 41 L 34 41 L 34 40 L 35 40 " stroke-width="1" fill="undefined"/>
<path style="fill:#000000;fill-opacity:0.521569" d="M 35 42 L 34 42 L 34 41 L 35 41 L 35 42 " stroke-width="1" fill="undefined"/>
<path style="fill:#000000;fill-opacity:0.933333" d="M 36 40 L 37 40 L 37 41 L 36 41 L 36 40 M 15 11 L 16 11 L 16 12 L 15 12 L 15 11 " stroke-width="1" fill="undefined"/>
<path style="fill:#000000;fill-opacity:0.27451" d="M 36 41 L 35.75 41.75 L 35 42 L 35 41 L 36 41 " stroke-width="1" fill="undefined"/>
<path style="fill:#000000;fill-opacity:0.67451" d="M 37.95 40 L 37.95 41 L 37 41 L 37 40 L 37.95 40 " stroke-width="1" fill="undefined"/>
<path style="fill:#473D34;fill-opacity:1" d="M 37 40 L 37 39 L 37.95 39 L 37.95 40 L 37 40 " stroke-width="1" fill="undefined"/>
<path style="fill:#000000;fill-opacity:0.87451" d="M 31 41 L 32 41 L 32 42 L 31 42 L 31 41 M 8 34 L 8 33 L 9 33 L 9 34 L 8 34 " stroke-width="1" fill="undefined"/>
<path style="fill:#877564;fill-opacity:1" d="M 27 40 L 30 40 L 31 40 L 31 41 L 30 41 L 27 41 L 27 40 " stroke-width="1" fill="undefined"/>
<path style="fill:#000000;fill-opacity:0.168627" d="M 48.95 27 L 48.95 26 L 48.95 25 L 49.95 25 L 49.95 26 L 49.95 27 L 48.95 27 M 43.95 37 L 44.95 37 L 44.7 37.75 L 43.95 38 L 43.95 37 M 40.95 39 L 41.95 39 L 41.7 39.75 L 40.95 40 L 40.95 39 M 4 19 L 4 18 L 5 18 L 5 19 L 4 19 M 15 6 L 14 6 L 14 5 L 15 5 L 15 6 " stroke-width="1" fill="undefined"/>
<path style="fill:#000000;fill-opacity:0.85098" d="M 42.95 37 L 43.95 37 L 43.95 38 L 42.95 38 L 42.95 37 M 23 4 L 23 5 L 22 5 L 22 4 L 23 4 " stroke-width="1" fill="undefined"/>
<path style="fill:#000000;fill-opacity:0.0509804" d="M 42.95 38 L 43.95 38 L 43.7 38.75 L 42.95 39 L 42.95 38 M 8 19 L 8 18 L 9 18 L 9 19 L 8 19 M 3 20 L 4 20 L 4 21 L 3 21 L 3 20 " stroke-width="1" fill="undefined"/>
<path style="fill:#E1C2A6;fill-opacity:1" d="M 38.95 38 L 37.95 38 L 37.95 37 L 38.95 37 L 39.95 37 L 40.95 37 L 40.95 38 L 39.95 38 L 38.95 38 " stroke-width="1" fill="undefined"/>
<path style="fill:#000000;fill-opacity:0.992157" d="M 40.95 38 L 41.95 38 L 41.95 39 L 40.95 39 L 40.95 38 M 10 36 L 10 35 L 11 35 L 11 36 L 10 36 " stroke-width="1" fill="undefined"/>
<path style="fill:#221E1A;fill-opacity:1" d="M 39.95 38 L 40.95 38 L 40.95 39 L 39.95 39 L 39.95 38 " stroke-width="1" fill="undefined"/>
<path style="fill:#000000;fill-opacity:0.662745" d="M 39.95 39 L 40.95 39 L 40.95 40 L 39.95 40 L 39.95 39 " stroke-width="1" fill="undefined"/>
<path style="fill:#847262;fill-opacity:1" d="M 39.95 38 L 39.95 39 L 38.95 39 L 38.95 38 L 39.95 38 " stroke-width="1" fill="undefined"/>
<path style="fill:#7D3038;fill-opacity:1" d="M 41.95 38 L 40.95 38 L 40.95 37 L 41.95 37 L 41.95 38 " stroke-width="1" fill="undefined"/>
<path style="fill:#D5B79D;fill-opacity:1" d="M 37.95 39 L 37.95 38 L 38.95 38 L 38.95 39 L 37.95 39 " stroke-width="1" fill="undefined"/>
<path style="fill:#050504;fill-opacity:1" d="M 37.95 39 L 38.95 39 L 38.95 40 L 37.95 40 L 37.95 39 " stroke-width="1" fill="undefined"/>
<path style="fill:#000000;fill-opacity:0.333333" d="M 37.95 40 L 38.95 40 L 38.95 41 L 37.95 41 L 37.95 40 M 14 13 L 13 13 L 13 12 L 14 12 L 14 13 " stroke-width="1" fill="undefined"/>
<path style="fill:#4A2F09;fill-opacity:1" d="M 37.95 37 L 37 37 L 37 36 L 37.95 36 L 37.95 37 " stroke-width="1" fill="undefined"/>
<path style="fill:#1E0006;fill-opacity:1" d="M 47.95 27 L 47.95 26 L 47.95 25 L 48.95 25 L 48.95 26 L 48.95 27 L 47.95 27 " stroke-width="1" fill="undefined"/>
<path style="fill:#120004;fill-opacity:1" d="M 47.95 25 L 47.95 24 L 48.95 24 L 48.95 25 L 47.95 25 " stroke-width="1" fill="undefined"/>
<path style="fill:#000000;fill-opacity:0.121569" d="M 48.95 27 L 49.95 27 L 49.7 27.75 L 48.95 28 L 48.95 27 M 24 1 L 23 1 L 23 0 L 24 0 L 24 1 " stroke-width="1" fill="undefined"/>
<path style="fill:#000000;fill-opacity:0.568627" d="M 48.95 30 L 48.95 31 L 47.95 31 L 47.95 30 L 48.95 30 " stroke-width="1" fill="undefined"/>
<path style="fill:#000000;fill-opacity:0.262745" d="M 48.95 31 L 48.7 31.75 L 47.95 32 L 47.95 31 L 48.95 31 M 22 41 L 22 42 L 21.25 41.75 L 21 41 L 22 41 " stroke-width="1" fill="undefined"/>
<path style="fill:#B10024;fill-opacity:1" d="M 46.95 24 L 46.95 23 L 47.95 23 L 47.95 24 L 46.95 24 " stroke-width="1" fill="undefined"/>
<path style="fill:#000000;fill-opacity:0.156863" d="M 18 40 L 18 41 L 17.25 40.75 L 17 40 L 18 40 M 3 20 L 3 19 L 4 19 L 4 20 L 3 20 M 15 11 L 15 10 L 16 10 L 16 11 L 15 11 M 26 0 L 26.75 0.25 L 27 1 L 26 1 L 26 0 " stroke-width="1" fill="undefined"/>
<path style="fill:#4B0010;fill-opacity:1" d="M 7 28 L 8 28 L 8 29 L 7 29 L 7 28 M 11 36 L 11 35 Q 11.5 35 11.75 35.25 Q 12 35.5 12 36 L 11 36 M 27 1 L 27 2 L 26 2 L 26 1 L 27 1 M 26 6 L 27 6 L 27 7 L 26 7 L 26 6 " stroke-width="1" fill="undefined"/>
<path style="fill:#000000;fill-opacity:0.298039" d="M 7 29 L 7 30 L 6 30 L 6 29 L 7 29 M 24 0 L 25 0 L 26 0 L 26 1 L 25 1 L 24 1 L 24 0 " stroke-width="1" fill="undefined"/>
<path style="fill:#000000;fill-opacity:0.556863" d="M 23 2 L 22 2 L 22 1 L 23 1 L 23 2 " stroke-width="1" fill="undefined"/>
<path style="fill:#020000;fill-opacity:1" d="M 22 2 L 23 2 L 23 3 L 22 3 L 22 2 M 7 31 L 7 30 L 8 30 L 8 31 L 7 31 " stroke-width="1" fill="undefined"/>
<path style="fill:#080001;fill-opacity:1" d="M 23 2 L 23 1 L 24 1 L 24 2 L 23 2 " stroke-width="1" fill="undefined"/>
<path style="fill:#9A001F;fill-opacity:1" d="M 22 6 L 22 5 L 23 5 L 23 6 L 22 6 " stroke-width="1" fill="undefined"/>
<path style="fill:#000000;fill-opacity:0.423529" d="M 21 5 L 21 4 L 21 3 L 21 2 L 22 2 L 22 3 L 22 4 L 22 5 L 21 5 " stroke-width="1" fill="undefined"/>
<path style="fill:#32000A;fill-opacity:1" d="M 25 6 L 24 6 L 23 6 L 23 5 L 24 5 L 25 5 L 25 6 " stroke-width="1" fill="undefined"/>
<path style="fill:#000000;fill-opacity:0.486275" d="M 17 4 L 18 4 L 18 5 L 17 5 L 17 4 " stroke-width="1" fill="undefined"/>
<path style="fill:#000000;fill-opacity:0.25098" d="M 16 5 L 16 4 L 17 4 L 17 5 L 16 5 " stroke-width="1" fill="undefined"/>
<path style="fill:#C30029;fill-opacity:1" d="M 18.75 5.75 Q 18.5 6 18 6 L 18 5 L 19 5 Q 19 5.5 18.75 5.75 " stroke-width="1" fill="undefined"/>
<path style="fill:#180005;fill-opacity:0.862745" d="M 17 8 L 18 8 L 18 9 L 17 9 L 17 8 " stroke-width="1" fill="undefined"/>
<path style="fill:#170005;fill-opacity:1" d="M 17 10 L 18 10 L 18 11 L 17 11 L 17 10 " stroke-width="1" fill="undefined"/>
<path style="fill:#000000;fill-opacity:0.792157" d="M 19 40 L 20 40 L 20 41 L 19 41 L 19 40 M 13 38 L 12 38 L 12 37 L 13 37 L 13 38 M 7 32 L 7 31 L 8 31 L 8 32 L 7 32 M 16 11 L 16 10 L 17 10 L 17 11 L 16 11 " stroke-width="1" fill="undefined"/>
<path style="fill:#570012;fill-opacity:1" d="M 19 9 L 19 8 L 21 8 L 22 8 L 22 9 L 21 9 L 20 9 L 19 9 " stroke-width="1" fill="undefined"/>
<path style="fill:#84001C;fill-opacity:1" d="M 21 9 L 21 10 L 20 10 L 20 9 L 21 9 " stroke-width="1" fill="undefined"/>
<path style="fill:#000000;fill-opacity:0.65098" d="M 16 8 L 17 8 L 17 9 L 16 9 L 16 8 " stroke-width="1" fill="undefined"/>
<path style="fill:#AD0024;fill-opacity:1" d="M 25 6 L 25 5 L 25.75 5.25 L 26 6 L 25 6 " stroke-width="1" fill="undefined"/>
<path style="fill:#610015;fill-opacity:1" d="M 16 6 L 16 5 L 17 5 L 17 6 L 16 6 " stroke-width="1" fill="undefined"/>
<path style="fill:#B20025;fill-opacity:1" d="M 10 18 L 11 18 Q 11 18.5 10.75 18.75 Q 10.5 19 10 19 L 10 18 M 25 21 L 25 20 L 26 20 L 26 21 L 25 21 M 21 5 L 22 5 L 22 6 L 21.25 5.75 L 21 5 " stroke-width="1" fill="undefined"/>
<path style="fill:#010000;fill-opacity:0.819608" d="M 15 5 L 16 5 L 16 6 L 15 6 L 15 5 " stroke-width="1" fill="undefined"/>
<path style="fill:#36000C;fill-opacity:1" d="M 16 7 L 16 8 L 15 8 L 15 7 L 16 7 " stroke-width="1" fill="undefined"/>
<path style="fill:#000000;fill-opacity:0.843137" d="M 15 6 L 15 7 L 15 8 Q 14.5 8 14.4 7.8 Q 14 7 14 6 L 15 6 " stroke-width="1" fill="undefined"/>
<path style="fill:#99001F;fill-opacity:1" d="M 14 13 L 15 13 Q 15 13.5 14.75 13.75 Q 14.5 14 14 14 L 14 13 " stroke-width="1" fill="undefined"/>
<path style="fill:#010000;fill-opacity:0.968627" d="M 15 12 L 15 13 L 14 13 L 14 12 L 15 12 " stroke-width="1" fill="undefined"/>
<path style="fill:#070000;fill-opacity:0.980392" d="M 12 14 L 13 14 L 13 15 L 12 15 L 12 14 " stroke-width="1" fill="undefined"/>
<path style="fill:#090000;fill-opacity:0.992157" d="M 14 13 L 14 14 L 13 14 L 13 13 L 14 13 " stroke-width="1" fill="undefined"/>
<path style="fill:#010000;fill-opacity:0.898039" d="M 11 15 L 12 15 L 12 16 L 11 16 L 11 15 M 10 18 L 10 19 L 9 19 L 9 18 L 10 18 " stroke-width="1" fill="undefined"/>
<path style="fill:#000000;fill-opacity:0.0862745" d="M 10 16 L 10 15 L 11 15 L 11 16 L 10 16 " stroke-width="1" fill="undefined"/>
<path style="fill:#030303;fill-opacity:0.482353" d="M 7 20 L 8 20 L 8 21 L 7 21 L 7 20 " stroke-width="1" fill="undefined"/>
<path style="fill:#0A0A0A;fill-opacity:0.815686" d="M 7 19 L 7 20 L 6.25 19.75 L 6 19 L 5 19 L 5 18 L 6 18 L 6 19 L 7 19 " stroke-width="1" fill="undefined"/>
<path style="fill:#000000;fill-opacity:0.498039" d="M 19 40 L 19 41 L 18 41 L 18 40 L 19 40 M 8 20 L 8 19 L 9 19 L 9 20 L 8 20 " stroke-width="1" fill="undefined"/>
<path style="fill:#010000;fill-opacity:0.945098" d="M 8 20 L 9 20 L 9 21 L 8 21 L 8 20 " stroke-width="1" fill="undefined"/>
<path style="fill:#090909;fill-opacity:0.976471" d="M 7 21 L 8 21 L 8 22 L 7 22 L 7 21 " stroke-width="1" fill="undefined"/>
<path style="fill:#030303;fill-opacity:0.937255" d="M 7 23 L 7 22 L 8 22 L 8 23 L 7 23 " stroke-width="1" fill="undefined"/>
<path style="fill:#0E0E0E;fill-opacity:0.968627" d="M 6 22 L 6 21 L 7 21 L 7 22 L 6 22 " stroke-width="1" fill="undefined"/>
<path style="fill:#040001;fill-opacity:1" d="M 7 23 L 8 23 L 8 24 L 7 24 L 7 23 " stroke-width="1" fill="undefined"/>
<path style="fill:#090909;fill-opacity:0.780392" d="M 6 23 L 6 22 L 7 22 L 7 23 L 6 23 " stroke-width="1" fill="undefined"/>
<path style="fill:#101010;fill-opacity:1" d="M 6 19 L 6.25 19.75 L 7 20 L 7 21 L 6 21 L 5 21 L 5 20 L 5 19 L 6 19 M 2 21 L 3 21 L 3.25 21.75 L 4 22 L 5 22 L 6 22 L 6 23 L 5 23 L 4 23 L 3 23 L 2 23 L 1 23 L 1 22 L 1 21 L 2 21 M 5 25 L 5 26 L 4 26 L 4 25 L 5 25 M 7 23 L 7 24 L 6 24 L 6 23 L 7 23 " stroke-width="1" fill="undefined"/>
<path style="fill:#4D0010;fill-opacity:1" d="M 25 22 L 25 21 L 26 21 L 26 22 L 25 22 " stroke-width="1" fill="undefined"/>
<path style="fill:#0D0D0D;fill-opacity:0.921569" d="M 4 26 L 3 26 L 3 25 L 4 25 L 4 26 M 0 23 L 0 22 L 1 22 L 1 23 L 0 23 " stroke-width="1" fill="undefined"/>
<path style="fill:#050505;fill-opacity:0.568627" d="M 1 21 L 1 22 L 0 22 L 0 21 L 1 21 " stroke-width="1" fill="undefined"/>
<path style="fill:#000000;fill-opacity:0.180392" d="M 12 38 L 11.25 37.75 L 11 37 L 12 37 L 12 38 M 1 24 L 0.25 23.75 L 0 23 L 1 23 L 1 24 " stroke-width="1" fill="undefined"/>
<path style="fill:#070707;fill-opacity:0.721569" d="M 2 21 L 1 21 L 1 20 L 2 20 L 2 21 " stroke-width="1" fill="undefined"/>
<path style="fill:#000000;fill-opacity:0.215686" d="M 9 34 L 9 35 L 8.25 34.75 L 8 34 L 9 34 M 6 19 L 6 18 L 6.75 18.25 Q 7 18.5 7 19 L 6 19 " stroke-width="1" fill="undefined"/>
<path style="fill:#0E0E0E;fill-opacity:0.945098" d="M 4 21 L 4 22 L 3.25 21.75 L 3 21 L 4 21 M 4 20 L 4 19 L 5 19 L 5 20 L 4 20 " stroke-width="1" fill="undefined"/>
<path style="fill:#020202;fill-opacity:0.380392" d="M 3 21 L 2 21 L 2 20 L 3 20 L 3 21 " stroke-width="1" fill="undefined"/>
<path style="fill:#040404;fill-opacity:0.556863" d="M 2 23 L 3 23 L 3 24 L 2 24 L 2 23 M 5 24 L 5 25 L 4 25 L 4 24 L 5 24 " stroke-width="1" fill="undefined"/>
<path style="fill:#070707;fill-opacity:0.662745" d="M 4 24 L 3 24 L 3 23 L 4 23 L 4 24 " stroke-width="1" fill="undefined"/>
<path style="fill:#050505;fill-opacity:0.592157" d="M 5 21 L 5 22 L 4 22 L 4 21 L 5 21 " stroke-width="1" fill="undefined"/>
<path style="fill:#0A0A0A;fill-opacity:0.803922" d="M 4 23 L 5 23 L 6 23 L 6 24 L 5 24 L 4 24 L 4 23 " stroke-width="1" fill="undefined"/>
<path style="fill:#040404;fill-opacity:0.513725" d="M 5 21 L 6 21 L 6 22 L 5 22 L 5 21 " stroke-width="1" fill="undefined"/>
<path style="fill:#040404;fill-opacity:0.545098" d="M 4 21 L 4 20 L 5 20 L 5 21 L 4 21 " stroke-width="1" fill="undefined"/>
<path style="fill:#020202;fill-opacity:0.368627" d="M 1 23 L 2 23 L 2 24 L 1 24 L 1 23 " stroke-width="1" fill="undefined"/>
<path style="fill:#010101;fill-opacity:0.533333" d="M 7 25 L 7 26 L 6 26 L 6 25 L 7 25 " stroke-width="1" fill="undefined"/>
<path style="fill:#0A0A0A;fill-opacity:0.839216" d="M 5 25 L 6 25 L 6 26 L 5 26 L 5 25 " stroke-width="1" fill="undefined"/>
<path style="fill:#0B0B0B;fill-opacity:0.929412" d="M 7 24 L 7 25 L 6 25 L 6 24 L 7 24 " stroke-width="1" fill="undefined"/>
<path style="fill:#090909;fill-opacity:0.756863" d="M 5 25 L 5 24 L 6 24 L 6 25 L 5 25 " stroke-width="1" fill="undefined"/>
<path style="fill:#020202;fill-opacity:0.431373" d="M 4 26 L 5 26 Q 5 26.5 4.75 26.6 Q 2.85 27.65 3 26 L 4 26 " stroke-width="1" fill="undefined"/>
<path style="fill:#010101;fill-opacity:0.286275" d="M 4 24 L 4 25 L 3 25 L 3 24 L 4 24 " stroke-width="1" fill="undefined"/>
<path style="fill:#000000;fill-opacity:0.447059" d="M 6 29 L 6 28 L 6 26 L 7 26 L 7 27 L 7 28 L 7 29 L 6 29 " stroke-width="1" fill="undefined"/>
<path style="fill:#000000;fill-opacity:0.109804" d="M 7 30 L 7 31 L 6.25 30.75 L 6 30 L 7 30 " stroke-width="1" fill="undefined"/>
<path style="fill:#C00029;fill-opacity:1" d="M 25.75 25.75 L 25 26 L 25 25 L 26 25 L 25.75 25.75 " stroke-width="1" fill="undefined"/>
<path style="fill:#A70022;fill-opacity:1" d="M 20.75 30.25 Q 20.5 30 20 30 L 20 29 L 20 26 L 20 25 L 21 25 L 22 25 L 22.25 25.75 L 23 26 L 23 27 L 23 29 L 23 30 L 22 30 L 22 31 L 21 31 Q 21 30.5 20.75 30.25 M 17 28 L 17 29 L 17 30 L 17 31 L 16 31 L 15 31 L 15 30 L 15 29 L 15 28 L 16 28 L 17 28 " stroke-width="1" fill="undefined"/>
<path style="fill:#C60029;fill-opacity:1" d="M 23 29 L 23 27 Q 24.65 27.35 23.55 29.85 L 23 30 L 23 29 " stroke-width="1" fill="undefined"/>
<path style="fill:#C8002A;fill-opacity:1" d="M 21 25 L 20 25 L 20 24 L 21 24 L 21 25 M 16 28 L 15 28 L 15 27 L 16.8 27.4 L 17 28 L 16 28 " stroke-width="1" fill="undefined"/>
<path style="fill:#B00024;fill-opacity:1" d="M 17 30 L 17 29 L 18 29 L 17.8 29.9 L 17 31 L 17 30 " stroke-width="1" fill="undefined"/>
<path style="fill:#C20029;fill-opacity:1" d="M 17 28 Q 17.5 28 17.75 28.25 Q 18 28.5 18 29 L 17 29 L 17 28 " stroke-width="1" fill="undefined"/>
<path style="fill:#DE8580;fill-opacity:1" d="M 22 33 L 21 33 L 21 32 L 22 32 L 22 33 " stroke-width="1" fill="undefined"/>
<path style="fill:#DB495A;fill-opacity:1" d="M 20 32 L 21 32 L 21 33 L 20 33 L 20 32 " stroke-width="1" fill="undefined"/>
<path style="fill:#D70C33;fill-opacity:1" d="M 14 36 L 14 35 L 15 35 L 15 36 L 14 36 M 19 33 L 19 32 L 20 32 L 20 33 L 19 33 " stroke-width="1" fill="undefined"/>
<path style="fill:#BA0027;fill-opacity:1" d="M 21 31 L 20.25 30.75 L 20 30 Q 20.5 30 20.75 30.25 Q 21 30.5 21 31 " stroke-width="1" fill="undefined"/>
<path style="fill:#DB5763;fill-opacity:1" d="M 19 34 L 18 34 L 18 33 L 19 33 L 19 34 " stroke-width="1" fill="undefined"/>
<path style="fill:#D60730;fill-opacity:1" d="M 18 34 L 17 34 L 17 33 L 18 33 L 18 34 " stroke-width="1" fill="undefined"/>
<path style="fill:#DB4B5C;fill-opacity:1" d="M 17 35 L 16 35 L 16 34 L 17 34 L 17 35 " stroke-width="1" fill="undefined"/>
<path style="fill:#E1B59E;fill-opacity:1" d="M 19 33 L 20 33 L 19.75 33.75 L 19 34 L 19 33 " stroke-width="1" fill="undefined"/>
<path style="fill:#DE807D;fill-opacity:1" d="M 26 31 L 27 31 L 27 32 L 26 32 L 26 31 " stroke-width="1" fill="undefined"/>
<path style="fill:#DD7576;fill-opacity:1" d="M 25 31 L 26 31 L 26 32 L 25 32 L 25 31 " stroke-width="1" fill="undefined"/>
<path style="fill:#DC5E67;fill-opacity:1" d="M 24 31 L 25 31 L 25 32 L 24 32 L 24 31 " stroke-width="1" fill="undefined"/>
<path style="fill:#C00028;fill-opacity:1" d="M 22 30 L 23 30 L 22.75 30.75 L 22 31 L 22 30 " stroke-width="1" fill="undefined"/>
<path style="fill:#E1B7A0;fill-opacity:1" d="M 22 33 L 22 32 L 23 32 L 22.75 32.75 L 22 33 " stroke-width="1" fill="undefined"/>
<path style="fill:#D9344D;fill-opacity:1" d="M 24 32 L 23 32 L 23 31 L 24 31 L 24 32 " stroke-width="1" fill="undefined"/>
<path style="fill:#BB0027;fill-opacity:1" d="M 14 30 L 14 29 L 14 28 L 15 28 L 15 29 L 15 30 L 14 30 " stroke-width="1" fill="undefined"/>
<path style="fill:#48000F;fill-opacity:1" d="M 7 26 L 7 25 L 8 25 L 8 26 L 7 26 " stroke-width="1" fill="undefined"/>
<path style="fill:#580013;fill-opacity:1" d="M 7 28 L 7 27 L 7 26 L 8 26 L 8 27 L 8 28 L 7 28 " stroke-width="1" fill="undefined"/>
<path style="fill:#280008;fill-opacity:1" d="M 7 30 L 7 29 L 8 29 L 8 30 L 7 30 " stroke-width="1" fill="undefined"/>
<path style="fill:#190005;fill-opacity:1" d="M 8 33 L 8 32 L 9 32 L 9 33 L 8 33 " stroke-width="1" fill="undefined"/>
<path style="fill:#750019;fill-opacity:1" d="M 8 32 L 8 31 L 9 31 L 9 32 L 8 32 " stroke-width="1" fill="undefined"/>
<path style="fill:#000000;fill-opacity:0.380392" d="M 10 36 L 9.25 35.75 L 9 35 L 10 35 L 10 36 " stroke-width="1" fill="undefined"/>
<path style="fill:#000000;fill-opacity:0.321569" d="M 11 37 L 10.25 36.75 L 10 36 L 11 36 L 11 37 " stroke-width="1" fill="undefined"/>
<path style="fill:#CA002A;fill-opacity:1" d="M 16 31 L 16 32 L 15.25 31.75 L 15 31 L 16 31 " stroke-width="1" fill="undefined"/>
<path style="fill:#9E0D2A;fill-opacity:1" d="M 13 37 L 13 36 L 14 36 L 14 37 L 13 37 " stroke-width="1" fill="undefined"/>
<path style="fill:#DF8C84;fill-opacity:1" d="M 15 35 L 16 35 Q 16 35.5 15.75 35.75 L 15 36 L 15 35 " stroke-width="1" fill="undefined"/>
<path style="fill:#E0A594;fill-opacity:1" d="M 14 37 L 14 36 L 15 36 L 15 37 L 14 37 " stroke-width="1" fill="undefined"/>
<path style="fill:#000000;fill-opacity:0.968627" d="M 11 37 L 11 36 L 12 36 L 12 37 L 11 37 " stroke-width="1" fill="undefined"/>
<path style="fill:#B49C85;fill-opacity:1" d="M 15 38 L 15 37 Q 15.5 37 15.75 37.25 Q 16 37.5 16 38 L 15 38 " stroke-width="1" fill="undefined"/>
<path style="fill:#4C4238;fill-opacity:1" d="M 14 38 L 14 37 L 15 37 L 15 38 L 14 38 " stroke-width="1" fill="undefined"/>
<path style="fill:#000000;fill-opacity:0.909804" d="M 15 38 L 15 39 L 14 39 L 14 38 L 15 38 " stroke-width="1" fill="undefined"/>
<path style="fill:#372F2A;fill-opacity:1" d="M 17 39 L 16 39 L 16 38 L 17 38 L 17 39 " stroke-width="1" fill="undefined"/>
<path style="fill:#000000;fill-opacity:0.427451" d="M 14 38 L 14 39 L 13.25 38.75 L 13 38 L 14 38 " stroke-width="1" fill="undefined"/>
<path style="fill:#000000;fill-opacity:0.827451" d="M 17 40 L 16 40 L 16 39 L 17 39 L 17 40 " stroke-width="1" fill="undefined"/>
<path style="fill:#DABCA1;fill-opacity:1" d="M 22 39 Q 22.5 39 22.75 39.25 Q 23 39.5 23 40 L 22 40 L 22 39 " stroke-width="1" fill="undefined"/>
<path style="fill:#000000;fill-opacity:0.45098" d="M 23 42 L 22 42 L 22 41 L 23 41 L 23 42 " stroke-width="1" fill="undefined"/>
<path style="fill:#3F362E;fill-opacity:1" d="M 24 41 L 24 40 L 25 40 L 25 41 L 24 41 " stroke-width="1" fill="undefined"/>
<path style="fill:#28221E;fill-opacity:1" d="M 24 41 L 23 41 L 23 40 L 24 40 L 24 41 " stroke-width="1" fill="undefined"/>
<path style="fill:#9F8976;fill-opacity:1" d="M 21 39 L 22 39 L 22 40 L 21 40 L 21 39 " stroke-width="1" fill="undefined"/>
<path style="fill:#67594C;fill-opacity:1" d="M 21 40 L 20 40 L 20 39 L 21 39 L 21 40 " stroke-width="1" fill="undefined"/>
<path style="fill:#C7AC93;fill-opacity:1" d="M 18 38 Q 18.5 38 18.75 38.25 Q 19 38.5 19 39 L 18 39 L 18 38 " stroke-width="1" fill="undefined"/>
<path style="fill:#897766;fill-opacity:1" d="M 17 39 L 17 38 L 18 38 L 18 39 L 17 39 " stroke-width="1" fill="undefined"/>
<path style="fill:#1F1C18;fill-opacity:1" d="M 20 40 L 19 40 L 19 39 L 20 39 L 20 40 " stroke-width="1" fill="undefined"/>
</g>
</svg>