<?xml version="1.0" encoding="utf-8"?><svg xmlns="http://www.w3.org/2000/svg" xmlns:xlink="http://www.w3.org/1999/xlink" xmlns:author="http://www.sothink.com" version="1.1" id="Layer_1" width="12.156097412109375" height="31.108213424682617" xml:space="preserve" viewBox="0 -0.22071444988250732 12.156097412109375 31.108213424682617">
<g id="137">
<path style="fill:#000000;fill-opacity:1" d="M 1.35 6.8 L 5.7 1.85 Q 7.65 -0.35 10.6 1.05 Q 12 1.7 11.35 8.35 L 9.7 29.15 Q 9.6 30.8 7 30.25 Q 4.65 30.5 4.6 29.25 L 6.1 8.2 L 4.85 10.2 Q 2.95 12.65 1.35 11 Q -0.35 9.7 1.35 6.8 " stroke-width="1" fill="undefined"/>
<path style="fill:none;stroke-width:1;stroke-linecap:round;stroke-linejoin:round;stroke-miterlimit:3;stroke:#000000;stroke-opacity:1" d="M 1.35 6.8 L 5.7 1.85 Q 7.65 -0.35 10.6 1.05 Q 12 1.7 11.35 8.35 L 9.7 29.15 Q 9.6 30.8 7 30.25 Q 4.65 30.5 4.6 29.25 L 6.1 8.2 L 4.85 10.2 Q 2.95 12.65 1.35 11 Q -0.35 9.7 1.35 6.8 Z " stroke-width="1" fill="undefined"/>
<path style="fill:#FFFEFD;fill-opacity:1" d="M 10.7 0.8 Q 12.1 1.45 11.45 7.95 L 9.8 28.35 Q 9.7 30 7.15 29.45 Q 4.85 29.7 4.8 28.45 L 6.3 7.8 L 5.05 9.8 Q 3.2 12.2 1.65 10.55 Q -0.05 9.3 1.65 6.45 L 5.9 1.6 Q 7.8 -0.55 10.7 0.8 " stroke-width="1" fill="undefined"/>
<path style="fill:none;stroke-width:0.5;stroke-linecap:round;stroke-linejoin:round;stroke-miterlimit:3;stroke:#000000;stroke-opacity:1" d="M 10.7 0.8 Q 12.1 1.45 11.45 7.95 L 9.8 28.35 Q 9.7 30 7.15 29.45 Q 4.85 29.7 4.8 28.45 L 6.3 7.8 L 5.05 9.8 Q 3.2 12.2 1.65 10.55 Q -0.05 9.3 1.65 6.45 L 5.9 1.6 Q 7.8 -0.55 10.7 0.8 Z " stroke-width="1" fill="undefined"/>
</g>
</svg>